<svg width="381" height="381" viewBox="0 0 381 381" fill="none" xmlns="http://www.w3.org/2000/svg">
<rect x="0.000366211" width="381" height="381" fill="#FAFAFA"/>
<circle cx="122.006" cy="170.95" r="2.73706" transform="rotate(-45 122.006 170.95)" fill="#D4145A"/>
<circle cx="82.7032" cy="131.646" r="2.73706" transform="rotate(-45 82.7032 131.646)" fill="#D4145A"/>
<circle cx="102.355" cy="151.298" r="2.73706" transform="rotate(-45 102.355 151.298)" fill="#D4145A"/>
<circle cx="63.0514" cy="111.995" r="2.73706" transform="rotate(-45 63.0514 111.995)" fill="#D4145A"/>
<circle cx="112.181" cy="161.124" r="2.73706" transform="rotate(-45 112.181 161.124)" fill="#D4145A"/>
<circle cx="72.8773" cy="121.821" r="2.73706" transform="rotate(-45 72.8773 121.821)" fill="#D4145A"/>
<circle cx="92.529" cy="141.472" r="2.73706" transform="rotate(-45 92.529 141.472)" fill="#D4145A"/>
<circle cx="53.2258" cy="102.169" r="2.73706" transform="rotate(-45 53.2258 102.169)" fill="#D4145A"/>
<circle cx="141.658" cy="151.298" r="2.73706" transform="rotate(-45 141.658 151.298)" fill="#D4145A"/>
<circle cx="102.355" cy="111.995" r="2.73706" transform="rotate(-45 102.355 111.995)" fill="#D4145A"/>
<circle cx="122.007" cy="131.646" r="2.73706" transform="rotate(-45 122.007 131.646)" fill="#D4145A"/>
<circle cx="82.7032" cy="92.3433" r="2.73706" transform="rotate(-45 82.7032 92.3433)" fill="#D4145A"/>
<circle cx="131.832" cy="141.472" r="2.73706" transform="rotate(-45 131.832 141.472)" fill="#D4145A"/>
<circle cx="92.529" cy="102.169" r="2.73706" transform="rotate(-45 92.529 102.169)" fill="#D4145A"/>
<circle cx="112.181" cy="121.821" r="2.73706" transform="rotate(-45 112.181 121.821)" fill="#D4145A"/>
<circle cx="72.8773" cy="82.5176" r="2.73706" transform="rotate(-45 72.8773 82.5176)" fill="#D4145A"/>
<circle cx="161.31" cy="131.646" r="2.73706" transform="rotate(-45 161.31 131.646)" fill="#D4145A"/>
<circle cx="122.007" cy="92.3433" r="2.73706" transform="rotate(-45 122.007 92.3433)" fill="#D4145A"/>
<circle cx="141.658" cy="111.995" r="2.73706" transform="rotate(-45 141.658 111.995)" fill="#D4145A"/>
<circle cx="102.355" cy="72.6917" r="2.73706" transform="rotate(-45 102.355 72.6917)" fill="#D4145A"/>
<circle cx="151.484" cy="121.821" r="2.73706" transform="rotate(-45 151.484 121.821)" fill="#D4145A"/>
<circle cx="112.181" cy="82.5176" r="2.73706" transform="rotate(-45 112.181 82.5176)" fill="#D4145A"/>
<circle cx="131.832" cy="102.169" r="2.73706" transform="rotate(-45 131.832 102.169)" fill="#D4145A"/>
<circle cx="92.529" cy="62.8657" r="2.73706" transform="rotate(-45 92.529 62.8657)" fill="#D4145A"/>
<circle cx="131.832" cy="161.124" r="2.73706" transform="rotate(-45 131.832 161.124)" fill="#D4145A"/>
<circle cx="92.529" cy="121.821" r="2.73706" transform="rotate(-45 92.529 121.821)" fill="#D4145A"/>
<circle cx="112.181" cy="141.472" r="2.73706" transform="rotate(-45 112.181 141.472)" fill="#D4145A"/>
<circle cx="72.8773" cy="102.169" r="2.73706" transform="rotate(-45 72.8773 102.169)" fill="#D4145A"/>
<circle cx="122.007" cy="151.298" r="2.73706" transform="rotate(-45 122.007 151.298)" fill="#D4145A"/>
<circle cx="82.7032" cy="111.995" r="2.73706" transform="rotate(-45 82.7032 111.995)" fill="#D4145A"/>
<circle cx="102.355" cy="131.646" r="2.73706" transform="rotate(-45 102.355 131.646)" fill="#D4145A"/>
<circle cx="63.0514" cy="92.3433" r="2.73706" transform="rotate(-45 63.0514 92.3433)" fill="#D4145A"/>
<circle cx="151.484" cy="141.472" r="2.73706" transform="rotate(-45 151.484 141.472)" fill="#D4145A"/>
<circle cx="112.181" cy="102.169" r="2.73706" transform="rotate(-45 112.181 102.169)" fill="#D4145A"/>
<circle cx="131.832" cy="121.821" r="2.73706" transform="rotate(-45 131.832 121.821)" fill="#D4145A"/>
<circle cx="92.529" cy="82.5176" r="2.73706" transform="rotate(-45 92.529 82.5176)" fill="#D4145A"/>
<circle cx="141.658" cy="131.646" r="2.73706" transform="rotate(-45 141.658 131.646)" fill="#D4145A"/>
<circle cx="102.355" cy="92.3433" r="2.73706" transform="rotate(-45 102.355 92.3433)" fill="#D4145A"/>
<circle cx="122.007" cy="111.995" r="2.73706" transform="rotate(-45 122.007 111.995)" fill="#D4145A"/>
<circle cx="82.7032" cy="72.6917" r="2.73706" transform="rotate(-45 82.7032 72.6917)" fill="#D4145A"/>
<circle cx="171.136" cy="121.821" r="2.73706" transform="rotate(-45 171.136 121.821)" fill="#D4145A"/>
<circle cx="131.832" cy="82.5176" r="2.73706" transform="rotate(-45 131.832 82.5176)" fill="#D4145A"/>
<circle cx="151.484" cy="102.169" r="2.73706" transform="rotate(-45 151.484 102.169)" fill="#D4145A"/>
<circle cx="112.181" cy="62.8657" r="2.73706" transform="rotate(-45 112.181 62.8657)" fill="#D4145A"/>
<circle cx="161.31" cy="111.995" r="2.73706" transform="rotate(-45 161.31 111.995)" fill="#D4145A"/>
<circle cx="122.006" cy="72.6917" r="2.73706" transform="rotate(-45 122.006 72.6917)" fill="#D4145A"/>
<circle cx="141.658" cy="92.3433" r="2.73706" transform="rotate(-45 141.658 92.3433)" fill="#D4145A"/>
<circle cx="102.355" cy="53.04" r="2.73706" transform="rotate(-45 102.355 53.04)" fill="#D4145A"/>
<circle cx="43.4987" cy="92.4424" r="2.73706" transform="rotate(-45 43.4987 92.4424)" fill="#D4145A"/>
<circle cx="4.19549" cy="53.1389" r="2.73706" transform="rotate(-45 4.19549 53.1389)" fill="#D4145A"/>
<circle cx="23.8471" cy="72.7908" r="2.73706" transform="rotate(-45 23.8471 72.7908)" fill="#D4145A"/>
<circle cx="33.6729" cy="82.6165" r="2.73706" transform="rotate(-45 33.6729 82.6165)" fill="#D4145A"/>
<circle cx="14.0213" cy="62.9648" r="2.73706" transform="rotate(-45 14.0213 62.9648)" fill="#D4145A"/>
<circle cx="63.1504" cy="72.7908" r="2.73706" transform="rotate(-45 63.1504 72.7908)" fill="#D4145A"/>
<circle cx="23.8471" cy="33.4873" r="2.73706" transform="rotate(-45 23.8471 33.4873)" fill="#D4145A"/>
<circle cx="43.4988" cy="53.1389" r="2.73706" transform="rotate(-45 43.4988 53.1389)" fill="#D4145A"/>
<circle cx="4.19549" cy="13.8357" r="2.73706" transform="rotate(-45 4.19549 13.8357)" fill="#D4145A"/>
<circle cx="53.3246" cy="62.9648" r="2.73706" transform="rotate(-45 53.3246 62.9648)" fill="#D4145A"/>
<circle cx="14.0213" cy="23.6616" r="2.73706" transform="rotate(-45 14.0213 23.6616)" fill="#D4145A"/>
<circle cx="33.6729" cy="43.3132" r="2.73706" transform="rotate(-45 33.6729 43.3132)" fill="#D4145A"/>
<circle cx="82.8022" cy="53.1389" r="2.73706" transform="rotate(-45 82.8022 53.1389)" fill="#D4145A"/>
<circle cx="43.4988" cy="13.8357" r="2.73706" transform="rotate(-45 43.4988 13.8357)" fill="#D4145A"/>
<circle cx="63.1504" cy="33.4873" r="2.73706" transform="rotate(-45 63.1504 33.4873)" fill="#D4145A"/>
<circle cx="72.9762" cy="43.3132" r="2.73706" transform="rotate(-45 72.9762 43.3132)" fill="#D4145A"/>
<circle cx="33.6729" cy="4.01001" r="2.73706" transform="rotate(-45 33.6729 4.01001)" fill="#D4145A"/>
<circle cx="53.3246" cy="23.6616" r="2.73706" transform="rotate(-45 53.3246 23.6616)" fill="#D4145A"/>
<circle cx="53.3246" cy="82.6165" r="2.73706" transform="rotate(-45 53.3246 82.6165)" fill="#D4145A"/>
<circle cx="14.0213" cy="43.3132" r="2.73706" transform="rotate(-45 14.0213 43.3132)" fill="#D4145A"/>
<circle cx="33.6729" cy="62.9648" r="2.73706" transform="rotate(-45 33.6729 62.9648)" fill="#D4145A"/>
<circle cx="43.4988" cy="72.7908" r="2.73706" transform="rotate(-45 43.4988 72.7908)" fill="#D4145A"/>
<circle cx="4.19549" cy="33.4873" r="2.73706" transform="rotate(-45 4.19549 33.4873)" fill="#D4145A"/>
<circle cx="23.8471" cy="53.1389" r="2.73706" transform="rotate(-45 23.8471 53.1389)" fill="#D4145A"/>
<circle cx="72.9762" cy="62.9648" r="2.73706" transform="rotate(-45 72.9762 62.9648)" fill="#D4145A"/>
<circle cx="33.6729" cy="23.6616" r="2.73706" transform="rotate(-45 33.6729 23.6616)" fill="#D4145A"/>
<circle cx="53.3246" cy="43.3132" r="2.73706" transform="rotate(-45 53.3246 43.3132)" fill="#D4145A"/>
<circle cx="14.0213" cy="4.01001" r="2.73706" transform="rotate(-45 14.0213 4.01001)" fill="#D4145A"/>
<circle cx="63.1504" cy="53.1389" r="2.73706" transform="rotate(-45 63.1504 53.1389)" fill="#D4145A"/>
<circle cx="23.8471" cy="13.8357" r="2.73706" transform="rotate(-45 23.8471 13.8357)" fill="#D4145A"/>
<circle cx="43.4988" cy="33.4873" r="2.73706" transform="rotate(-45 43.4988 33.4873)" fill="#D4145A"/>
<circle cx="92.628" cy="43.3132" r="2.73706" transform="rotate(-45 92.628 43.3132)" fill="#D4145A"/>
<circle cx="53.3246" cy="4.01001" r="2.73706" transform="rotate(-45 53.3246 4.01001)" fill="#D4145A"/>
<circle cx="72.9762" cy="23.6616" r="2.73706" transform="rotate(-45 72.9762 23.6616)" fill="#D4145A"/>
<circle cx="82.8022" cy="33.4873" r="2.73706" transform="rotate(-45 82.8022 33.4873)" fill="#D4145A"/>
<circle cx="63.1504" cy="13.8357" r="2.73706" transform="rotate(-45 63.1504 13.8357)" fill="#D4145A"/>
<circle cx="200.476" cy="249.42" r="2.73706" transform="rotate(-45 200.476 249.42)" fill="#D4145A"/>
<circle cx="161.173" cy="210.116" r="2.73706" transform="rotate(-45 161.173 210.116)" fill="#D4145A"/>
<circle cx="180.825" cy="229.769" r="2.73706" transform="rotate(-45 180.825 229.769)" fill="#D4145A"/>
<circle cx="141.522" cy="190.465" r="2.73706" transform="rotate(-45 141.522 190.465)" fill="#D4145A"/>
<circle cx="190.651" cy="239.594" r="2.73706" transform="rotate(-45 190.651 239.594)" fill="#D4145A"/>
<circle cx="151.347" cy="200.291" r="2.73706" transform="rotate(-45 151.347 200.291)" fill="#D4145A"/>
<circle cx="170.999" cy="219.943" r="2.73706" transform="rotate(-45 170.999 219.943)" fill="#D4145A"/>
<circle cx="131.696" cy="180.639" r="2.73706" transform="rotate(-45 131.696 180.639)" fill="#D4145A"/>
<circle cx="220.128" cy="229.769" r="2.73706" transform="rotate(-45 220.128 229.769)" fill="#D4145A"/>
<circle cx="180.825" cy="190.465" r="2.73706" transform="rotate(-45 180.825 190.465)" fill="#D4145A"/>
<circle cx="200.477" cy="210.117" r="2.73706" transform="rotate(-45 200.477 210.117)" fill="#D4145A"/>
<circle cx="161.173" cy="170.813" r="2.73706" transform="rotate(-45 161.173 170.813)" fill="#D4145A"/>
<circle cx="210.302" cy="219.943" r="2.73706" transform="rotate(-45 210.302 219.943)" fill="#D4145A"/>
<circle cx="170.999" cy="180.639" r="2.73706" transform="rotate(-45 170.999 180.639)" fill="#D4145A"/>
<circle cx="190.651" cy="200.291" r="2.73706" transform="rotate(-45 190.651 200.291)" fill="#D4145A"/>
<circle cx="151.347" cy="160.988" r="2.73706" transform="rotate(-45 151.347 160.988)" fill="#D4145A"/>
<circle cx="239.78" cy="210.116" r="2.73706" transform="rotate(-45 239.78 210.116)" fill="#D4145A"/>
<circle cx="200.477" cy="170.813" r="2.73706" transform="rotate(-45 200.477 170.813)" fill="#D4145A"/>
<circle cx="220.128" cy="190.465" r="2.73706" transform="rotate(-45 220.128 190.465)" fill="#D4145A"/>
<circle cx="180.825" cy="151.162" r="2.73706" transform="rotate(-45 180.825 151.162)" fill="#D4145A"/>
<circle cx="229.954" cy="200.291" r="2.73706" transform="rotate(-45 229.954 200.291)" fill="#D4145A"/>
<circle cx="190.651" cy="160.988" r="2.73706" transform="rotate(-45 190.651 160.988)" fill="#D4145A"/>
<circle cx="210.302" cy="180.639" r="2.73706" transform="rotate(-45 210.302 180.639)" fill="#D4145A"/>
<circle cx="170.999" cy="141.336" r="2.73706" transform="rotate(-45 170.999 141.336)" fill="#D4145A"/>
<circle cx="210.302" cy="239.594" r="2.73706" transform="rotate(-45 210.302 239.594)" fill="#D4145A"/>
<circle cx="170.999" cy="200.291" r="2.73706" transform="rotate(-45 170.999 200.291)" fill="#D4145A"/>
<circle cx="190.651" cy="219.943" r="2.73706" transform="rotate(-45 190.651 219.943)" fill="#D4145A"/>
<circle cx="151.347" cy="180.639" r="2.73706" transform="rotate(-45 151.347 180.639)" fill="#D4145A"/>
<circle cx="200.477" cy="229.769" r="2.73706" transform="rotate(-45 200.477 229.769)" fill="#D4145A"/>
<circle cx="161.173" cy="190.465" r="2.73706" transform="rotate(-45 161.173 190.465)" fill="#D4145A"/>
<circle cx="180.825" cy="210.116" r="2.73706" transform="rotate(-45 180.825 210.116)" fill="#D4145A"/>
<circle cx="141.522" cy="170.813" r="2.73706" transform="rotate(-45 141.522 170.813)" fill="#D4145A"/>
<circle cx="229.954" cy="219.943" r="2.73706" transform="rotate(-45 229.954 219.943)" fill="#D4145A"/>
<circle cx="190.651" cy="180.639" r="2.73706" transform="rotate(-45 190.651 180.639)" fill="#D4145A"/>
<circle cx="210.302" cy="200.291" r="2.73706" transform="rotate(-45 210.302 200.291)" fill="#D4145A"/>
<circle cx="170.999" cy="160.988" r="2.73706" transform="rotate(-45 170.999 160.988)" fill="#D4145A"/>
<circle cx="220.128" cy="210.117" r="2.73706" transform="rotate(-45 220.128 210.117)" fill="#D4145A"/>
<circle cx="180.825" cy="170.813" r="2.73706" transform="rotate(-45 180.825 170.813)" fill="#D4145A"/>
<circle cx="200.477" cy="190.465" r="2.73706" transform="rotate(-45 200.477 190.465)" fill="#D4145A"/>
<circle cx="161.173" cy="151.162" r="2.73706" transform="rotate(-45 161.173 151.162)" fill="#D4145A"/>
<circle cx="249.606" cy="200.291" r="2.73706" transform="rotate(-45 249.606 200.291)" fill="#D4145A"/>
<circle cx="210.302" cy="160.988" r="2.73706" transform="rotate(-45 210.302 160.988)" fill="#D4145A"/>
<circle cx="229.954" cy="180.639" r="2.73706" transform="rotate(-45 229.954 180.639)" fill="#D4145A"/>
<circle cx="190.651" cy="141.336" r="2.73706" transform="rotate(-45 190.651 141.336)" fill="#D4145A"/>
<circle cx="239.78" cy="190.465" r="2.73706" transform="rotate(-45 239.78 190.465)" fill="#D4145A"/>
<circle cx="200.477" cy="151.162" r="2.73706" transform="rotate(-45 200.477 151.162)" fill="#D4145A"/>
<circle cx="220.128" cy="170.813" r="2.73706" transform="rotate(-45 220.128 170.813)" fill="#D4145A"/>
<circle cx="180.825" cy="131.51" r="2.73706" transform="rotate(-45 180.825 131.51)" fill="#D4145A"/>
<circle cx="278.911" cy="327.964" r="2.73706" transform="rotate(-45 278.911 327.964)" fill="#D4145A"/>
<circle cx="239.607" cy="288.66" r="2.73706" transform="rotate(-45 239.607 288.66)" fill="#D4145A"/>
<circle cx="259.259" cy="308.312" r="2.73706" transform="rotate(-45 259.259 308.312)" fill="#D4145A"/>
<circle cx="219.956" cy="269.009" r="2.73706" transform="rotate(-45 219.956 269.009)" fill="#D4145A"/>
<circle cx="269.085" cy="318.138" r="2.73706" transform="rotate(-45 269.085 318.138)" fill="#D4145A"/>
<circle cx="229.781" cy="278.834" r="2.73706" transform="rotate(-45 229.781 278.834)" fill="#D4145A"/>
<circle cx="249.433" cy="298.486" r="2.73706" transform="rotate(-45 249.433 298.486)" fill="#D4145A"/>
<circle cx="210.13" cy="259.183" r="2.73706" transform="rotate(-45 210.13 259.183)" fill="#D4145A"/>
<circle cx="298.562" cy="308.312" r="2.73706" transform="rotate(-45 298.562 308.312)" fill="#D4145A"/>
<circle cx="259.259" cy="269.009" r="2.73706" transform="rotate(-45 259.259 269.009)" fill="#D4145A"/>
<circle cx="278.911" cy="288.66" r="2.73706" transform="rotate(-45 278.911 288.66)" fill="#D4145A"/>
<circle cx="239.607" cy="249.357" r="2.73706" transform="rotate(-45 239.607 249.357)" fill="#D4145A"/>
<circle cx="288.737" cy="298.486" r="2.73706" transform="rotate(-45 288.737 298.486)" fill="#D4145A"/>
<circle cx="249.433" cy="259.183" r="2.73706" transform="rotate(-45 249.433 259.183)" fill="#D4145A"/>
<circle cx="269.085" cy="278.834" r="2.73706" transform="rotate(-45 269.085 278.834)" fill="#D4145A"/>
<circle cx="229.781" cy="239.531" r="2.73706" transform="rotate(-45 229.781 239.531)" fill="#D4145A"/>
<circle cx="318.214" cy="288.66" r="2.73706" transform="rotate(-45 318.214 288.66)" fill="#D4145A"/>
<circle cx="278.911" cy="249.357" r="2.73706" transform="rotate(-45 278.911 249.357)" fill="#D4145A"/>
<circle cx="298.562" cy="269.009" r="2.73706" transform="rotate(-45 298.562 269.009)" fill="#D4145A"/>
<circle cx="259.259" cy="229.705" r="2.73706" transform="rotate(-45 259.259 229.705)" fill="#D4145A"/>
<circle cx="308.388" cy="278.834" r="2.73706" transform="rotate(-45 308.388 278.834)" fill="#D4145A"/>
<circle cx="269.085" cy="239.531" r="2.73706" transform="rotate(-45 269.085 239.531)" fill="#D4145A"/>
<circle cx="288.737" cy="259.183" r="2.73706" transform="rotate(-45 288.737 259.183)" fill="#D4145A"/>
<circle cx="249.433" cy="219.879" r="2.73706" transform="rotate(-45 249.433 219.879)" fill="#D4145A"/>
<circle cx="288.737" cy="318.138" r="2.73706" transform="rotate(-45 288.737 318.138)" fill="#D4145A"/>
<circle cx="249.433" cy="278.834" r="2.73706" transform="rotate(-45 249.433 278.834)" fill="#D4145A"/>
<circle cx="269.085" cy="298.486" r="2.73706" transform="rotate(-45 269.085 298.486)" fill="#D4145A"/>
<circle cx="229.781" cy="259.183" r="2.73706" transform="rotate(-45 229.781 259.183)" fill="#D4145A"/>
<circle cx="278.911" cy="308.312" r="2.73706" transform="rotate(-45 278.911 308.312)" fill="#D4145A"/>
<circle cx="239.607" cy="269.009" r="2.73706" transform="rotate(-45 239.607 269.009)" fill="#D4145A"/>
<circle cx="259.259" cy="288.66" r="2.73706" transform="rotate(-45 259.259 288.66)" fill="#D4145A"/>
<circle cx="219.956" cy="249.357" r="2.73706" transform="rotate(-45 219.956 249.357)" fill="#D4145A"/>
<circle cx="308.388" cy="298.486" r="2.73706" transform="rotate(-45 308.388 298.486)" fill="#D4145A"/>
<circle cx="269.085" cy="259.183" r="2.73706" transform="rotate(-45 269.085 259.183)" fill="#D4145A"/>
<circle cx="288.737" cy="278.834" r="2.73706" transform="rotate(-45 288.737 278.834)" fill="#D4145A"/>
<circle cx="249.433" cy="239.531" r="2.73706" transform="rotate(-45 249.433 239.531)" fill="#D4145A"/>
<circle cx="298.562" cy="288.66" r="2.73706" transform="rotate(-45 298.562 288.66)" fill="#D4145A"/>
<circle cx="259.259" cy="249.357" r="2.73706" transform="rotate(-45 259.259 249.357)" fill="#D4145A"/>
<circle cx="278.911" cy="269.009" r="2.73706" transform="rotate(-45 278.911 269.009)" fill="#D4145A"/>
<circle cx="239.607" cy="229.705" r="2.73706" transform="rotate(-45 239.607 229.705)" fill="#D4145A"/>
<circle cx="328.04" cy="278.834" r="2.73706" transform="rotate(-45 328.04 278.834)" fill="#D4145A"/>
<circle cx="288.737" cy="239.531" r="2.73706" transform="rotate(-45 288.737 239.531)" fill="#D4145A"/>
<circle cx="308.388" cy="259.183" r="2.73706" transform="rotate(-45 308.388 259.183)" fill="#D4145A"/>
<circle cx="269.085" cy="219.879" r="2.73706" transform="rotate(-45 269.085 219.879)" fill="#D4145A"/>
<circle cx="318.214" cy="269.009" r="2.73706" transform="rotate(-45 318.214 269.009)" fill="#D4145A"/>
<circle cx="278.911" cy="229.705" r="2.73706" transform="rotate(-45 278.911 229.705)" fill="#D4145A"/>
<circle cx="298.562" cy="249.357" r="2.73706" transform="rotate(-45 298.562 249.357)" fill="#D4145A"/>
<circle cx="259.259" cy="210.054" r="2.73706" transform="rotate(-45 259.259 210.054)" fill="#D4145A"/>
<circle cx="318.096" cy="367.149" r="2.73706" transform="rotate(-45 318.096 367.149)" fill="#D4145A"/>
<circle cx="298.445" cy="347.497" r="2.73706" transform="rotate(-45 298.445 347.497)" fill="#D4145A"/>
<circle cx="308.27" cy="357.323" r="2.73706" transform="rotate(-45 308.27 357.323)" fill="#D4145A"/>
<circle cx="327.922" cy="376.975" r="2.73706" transform="rotate(-45 327.922 376.975)" fill="#D4145A"/>
<circle cx="288.619" cy="337.672" r="2.73706" transform="rotate(-45 288.619 337.672)" fill="#D4145A"/>
<circle cx="337.748" cy="347.497" r="2.73706" transform="rotate(-45 337.748 347.497)" fill="#D4145A"/>
<circle cx="357.399" cy="367.149" r="2.73706" transform="rotate(-45 357.399 367.149)" fill="#D4145A"/>
<circle cx="318.096" cy="327.846" r="2.73706" transform="rotate(-45 318.096 327.846)" fill="#D4145A"/>
<circle cx="367.225" cy="376.975" r="2.73706" transform="rotate(-45 367.225 376.975)" fill="#D4145A"/>
<circle cx="327.922" cy="337.672" r="2.73706" transform="rotate(-45 327.922 337.672)" fill="#D4145A"/>
<circle cx="347.574" cy="357.323" r="2.73706" transform="rotate(-45 347.574 357.323)" fill="#D4145A"/>
<circle cx="308.27" cy="318.02" r="2.73706" transform="rotate(-45 308.27 318.02)" fill="#D4145A"/>
<circle cx="357.399" cy="327.846" r="2.73706" transform="rotate(-45 357.399 327.846)" fill="#D4145A"/>
<circle cx="377.051" cy="347.497" r="2.73706" transform="rotate(-45 377.051 347.497)" fill="#D4145A"/>
<circle cx="337.748" cy="308.194" r="2.73706" transform="rotate(-45 337.748 308.194)" fill="#D4145A"/>
<circle cx="347.574" cy="318.02" r="2.73706" transform="rotate(-45 347.574 318.02)" fill="#D4145A"/>
<circle cx="367.225" cy="337.672" r="2.73706" transform="rotate(-45 367.225 337.672)" fill="#D4145A"/>
<circle cx="327.922" cy="298.368" r="2.73706" transform="rotate(-45 327.922 298.368)" fill="#D4145A"/>
<circle cx="327.922" cy="357.323" r="2.73706" transform="rotate(-45 327.922 357.323)" fill="#D4145A"/>
<circle cx="347.574" cy="376.975" r="2.73706" transform="rotate(-45 347.574 376.975)" fill="#D4145A"/>
<circle cx="308.27" cy="337.672" r="2.73706" transform="rotate(-45 308.27 337.672)" fill="#D4145A"/>
<circle cx="318.096" cy="347.497" r="2.73706" transform="rotate(-45 318.096 347.497)" fill="#D4145A"/>
<circle cx="337.748" cy="367.149" r="2.73706" transform="rotate(-45 337.748 367.149)" fill="#D4145A"/>
<circle cx="298.445" cy="327.846" r="2.73706" transform="rotate(-45 298.445 327.846)" fill="#D4145A"/>
<circle cx="347.574" cy="337.672" r="2.73706" transform="rotate(-45 347.574 337.672)" fill="#D4145A"/>
<circle cx="367.225" cy="357.323" r="2.73706" transform="rotate(-45 367.225 357.323)" fill="#D4145A"/>
<circle cx="327.922" cy="318.02" r="2.73706" transform="rotate(-45 327.922 318.02)" fill="#D4145A"/>
<circle cx="377.051" cy="367.149" r="2.73706" transform="rotate(-45 377.051 367.149)" fill="#D4145A"/>
<circle cx="337.748" cy="327.846" r="2.73706" transform="rotate(-45 337.748 327.846)" fill="#D4145A"/>
<circle cx="357.4" cy="347.497" r="2.73706" transform="rotate(-45 357.4 347.497)" fill="#D4145A"/>
<circle cx="318.096" cy="308.194" r="2.73706" transform="rotate(-45 318.096 308.194)" fill="#D4145A"/>
<circle cx="367.225" cy="318.02" r="2.73706" transform="rotate(-45 367.225 318.02)" fill="#D4145A"/>
<circle cx="347.574" cy="298.368" r="2.73706" transform="rotate(-45 347.574 298.368)" fill="#D4145A"/>
<circle cx="357.399" cy="308.194" r="2.73706" transform="rotate(-45 357.399 308.194)" fill="#D4145A"/>
<circle cx="377.051" cy="327.846" r="2.73706" transform="rotate(-45 377.051 327.846)" fill="#D4145A"/>
<circle cx="337.748" cy="288.542" r="2.73706" transform="rotate(-45 337.748 288.542)" fill="#D4145A"/>
<circle cx="374.593" cy="44.302" r="2.73706" transform="rotate(-45 374.593 44.302)" fill="#D4145A"/>
<circle cx="335.29" cy="4.99854" r="2.73706" transform="rotate(-45 335.29 4.99854)" fill="#D4145A"/>
<circle cx="354.941" cy="24.6504" r="2.73706" transform="rotate(-45 354.941 24.6504)" fill="#D4145A"/>
<circle cx="364.767" cy="34.4761" r="2.73706" transform="rotate(-45 364.767 34.4761)" fill="#D4145A"/>
<circle cx="345.116" cy="14.8245" r="2.73706" transform="rotate(-45 345.116 14.8245)" fill="#D4145A"/>
<circle cx="374.593" cy="4.99854" r="2.73706" transform="rotate(-45 374.593 4.99854)" fill="#D4145A"/>
<circle cx="364.767" cy="14.8245" r="2.73706" transform="rotate(-45 364.767 14.8245)" fill="#D4145A"/>
<circle cx="374.593" cy="24.6504" r="2.73706" transform="rotate(-45 374.593 24.6504)" fill="#D4145A"/>
<circle cx="354.941" cy="4.99854" r="2.73706" transform="rotate(-45 354.941 4.99854)" fill="#D4145A"/>
<circle cx="26.0632" cy="376.005" r="2.73706" transform="rotate(-45 26.0632 376.005)" fill="#D4145A"/>
<circle cx="6.41143" cy="356.353" r="2.73706" transform="rotate(-45 6.41143 356.353)" fill="#D4145A"/>
<circle cx="16.2372" cy="366.179" r="2.73706" transform="rotate(-45 16.2372 366.179)" fill="#D4145A"/>
<circle cx="6.41143" cy="376.005" r="2.73706" transform="rotate(-45 6.41143 376.005)" fill="#D4145A"/>
<circle cx="35.889" cy="366.179" r="2.73706" transform="rotate(-45 35.889 366.179)" fill="#D4145A"/>
<circle cx="16.2372" cy="346.527" r="2.73706" transform="rotate(-45 16.2372 346.527)" fill="#D4145A"/>
<circle cx="26.063" cy="356.353" r="2.73706" transform="rotate(-45 26.063 356.353)" fill="#D4145A"/>
<circle cx="45.7148" cy="376.005" r="2.73706" transform="rotate(-45 45.7148 376.005)" fill="#D4145A"/>
<circle cx="6.41143" cy="336.701" r="2.73706" transform="rotate(-45 6.41143 336.701)" fill="#D4145A"/>
</svg>
