<svg xmlns="http://www.w3.org/2000/svg" viewBox="0 0 694.37 167.7"><defs><style>.cls-1{fill:#d4145a;}.cls-2{fill:#fafafa;}</style></defs><title>bannerHeaderAsset 2</title><g id="Layer_2" data-name="Layer 2"><g id="Layer_1-2" data-name="Layer 1"><path class="cls-1" d="M155.1,65.7a6.51,6.51,0,0,1-5.13-2,7.34,7.34,0,0,1-1.65-5c0-.74.05-1.65.15-2.74-.29.89-.55,1.81-.78,2.74a11.65,11.65,0,0,1-2.18,5.07,6.33,6.33,0,0,1-5,2A6.05,6.05,0,0,1,135.33,63l-.15.08A20.41,20.41,0,0,1,125,65.7c-4.6,0-8.36-1.22-11.18-3.64-.48.38-1,.73-1.41,1.06a14.26,14.26,0,0,1-8.35,2.58,8.71,8.71,0,0,1-6.87-2.79,10.1,10.1,0,0,1-2.3-6.42c-.21.7-.4,1.41-.58,2.13-1.06,4.49-4.18,7.08-8.55,7.08a5.26,5.26,0,0,1-5.11-3.08,14.78,14.78,0,0,1-.83-5.86c0-1.32,0-2.35.06-3.16L80,48.86c0-1.07,0-2.2.06-3.35-.79-.06-1.57-.14-2.31-.24A53.79,53.79,0,0,1,68,58.91c-4.5,4.51-9.14,6.79-13.79,6.79-3.28,0-7.78-1.27-10.63-7.33a28.59,28.59,0,0,1-1.82-5.13,33.73,33.73,0,0,1-4.36,6.35c-3.6,4.06-7.59,6.11-11.87,6.11-3.55,0-8.42-1.57-11.48-9-2.1-5.12-3.16-12-3.16-20.43a137.93,137.93,0,0,1,1.59-19.82,10.25,10.25,0,0,1,2.33-5.8,7.49,7.49,0,0,1,5.68-2.1,7.31,7.31,0,0,1,4.64,1.42,6.29,6.29,0,0,1,2.14,5.24c0,.39,0,1-.13,1.92l0,.13a146.59,146.59,0,0,0-1.77,20.51,40.93,40.93,0,0,0,1.24,11.52,7.49,7.49,0,0,0,.95,2.12,11.88,11.88,0,0,0,2.49-2.93,54.6,54.6,0,0,0,5.56-12.36,133.36,133.36,0,0,0,4.86-20.21,8.89,8.89,0,0,1,2.84-5.64,8.32,8.32,0,0,1,5.4-1.72,6.75,6.75,0,0,1,4.77,1.61,6,6,0,0,1,1.83,4.63,10.92,10.92,0,0,1-.17,2.07,112.74,112.74,0,0,0-1.63,19A97.79,97.79,0,0,0,54,46.1a11.58,11.58,0,0,0,1.31,4.78,1.17,1.17,0,0,0,1.2.66c.24,0,1.58-.16,4.09-3.24a43.84,43.84,0,0,0,5-8,17.37,17.37,0,0,1-4.41-5.5A21.19,21.19,0,0,1,59,25.08a22.54,22.54,0,0,1,1.73-9.24,13.87,13.87,0,0,1,5.15-6.19,13.32,13.32,0,0,1,7.28-2.09,10.53,10.53,0,0,1,8.42,3.86,13.79,13.79,0,0,1,2.86,7.89,50.42,50.42,0,0,1,3.39-7.93C90.83,5.82,94.69,3,99.3,3a8.23,8.23,0,0,1,6.9,3.62,13.21,13.21,0,0,1,2.28,7.9,29.23,29.23,0,0,1-3.91,14c-.52,1-1.1,1.95-1.76,3a8.22,8.22,0,0,1,1-.06c4.26,0,6.9,2.64,6.9,6.9a24.41,24.41,0,0,1-.34,3.57c.15-.34.3-.68.46-1a17.29,17.29,0,0,1,5.84-6.83,15.15,15.15,0,0,1,8.68-2.62A10.58,10.58,0,0,1,133,34.37a9.7,9.7,0,0,1,2.35,3.72c.11-.4.23-.8.36-1.19a7.4,7.4,0,0,1,3-4.16,9.08,9.08,0,0,1,5.1-1.3,6,6,0,0,1,3.26.75A4,4,0,0,1,148.9,35a15.72,15.72,0,0,1,2.38-1.73,11.72,11.72,0,0,1,5.86-1.79,6.44,6.44,0,0,1,6.9,6.9,48.72,48.72,0,0,1-.69,6.33c-.4,2.42-.72,4.7-.95,6.81a63.56,63.56,0,0,0-.34,7,7.54,7.54,0,0,1-1.74,5.32A6.84,6.84,0,0,1,155.1,65.7ZM108.27,54.05Zm.51-4.06c-.14.74-.25,1.33-.32,1.82l.38-.39C108.8,51,108.78,50.47,108.78,50Zm24.67-.1-.41.51.41-.34ZM71.15,22.71a13.73,13.73,0,0,0-.1,1.43C71.1,23.64,71.14,23.17,71.15,22.71Z"/><path class="cls-2" d="M99.3,6a5.27,5.27,0,0,1,4.47,2.37,10.27,10.27,0,0,1,1.71,6.15,26.29,26.29,0,0,1-3.54,12.57Q98.4,33.6,90.42,42.3q-.18,3.12-.18,6.42a34.43,34.43,0,0,1,4.41-8.31,17.21,17.21,0,0,1,4.8-4.59,8.78,8.78,0,0,1,4.35-1.38q3.9,0,3.9,3.9a48.22,48.22,0,0,1-1.32,8.46,41.64,41.64,0,0,0-1.14,6.9q0,2.4,1.74,2.4a4.69,4.69,0,0,0,2.85-1.47A29.3,29.3,0,0,0,112,52.47a17.77,17.77,0,0,1,1.55-10.26,14.25,14.25,0,0,1,4.83-5.67,12.15,12.15,0,0,1,7-2.1,7.6,7.6,0,0,1,5.58,2.07,7.52,7.52,0,0,1,2.1,5.61,9.7,9.7,0,0,1-3,7.11q-3,3-10.05,4.71,1.5,2.76,5.7,2.76a13.12,13.12,0,0,0,6.15-1.89,20.24,20.24,0,0,0,4.55-3.4,48.39,48.39,0,0,1,2.2-13.61,4.51,4.51,0,0,1,1.77-2.55,6.24,6.24,0,0,1,3.45-.81,3.38,3.38,0,0,1,1.68.3,1.24,1.24,0,0,1,.48,1.14,22.87,22.87,0,0,1-.9,4.32q-.6,2.4-1,4.2a43,43,0,0,0-.6,4.44,34.12,34.12,0,0,1,4.44-8.4,17.41,17.41,0,0,1,4.83-4.62,8.78,8.78,0,0,1,4.35-1.38,3.48,3.48,0,0,1,3.9,3.9,47.5,47.5,0,0,1-.66,5.88q-.6,3.66-1,6.93a67.05,67.05,0,0,0-.36,7.29,4.7,4.7,0,0,1-.93,3.27,4,4,0,0,1-3,1,3.66,3.66,0,0,1-2.88-1,4.51,4.51,0,0,1-.9-3.06,60.2,60.2,0,0,1,.84-7.92,56.52,56.52,0,0,0,.72-6.12q0-1-.66-1t-2.19,2a32.22,32.22,0,0,0-2.88,5.31,41.3,41.3,0,0,0-2.37,7,9.36,9.36,0,0,1-1.53,3.81,3.45,3.45,0,0,1-2.73,1,3.28,3.28,0,0,1-3.21-2.4,11.3,11.3,0,0,1-.51-1.89,26.61,26.61,0,0,1-3.09,2A17.39,17.39,0,0,1,125,62.7q-6.3,0-9.78-3.42a11.29,11.29,0,0,1-1.19-1.4,28.76,28.76,0,0,1-3.34,2.78,11.27,11.27,0,0,1-6.63,2,5.83,5.83,0,0,1-4.62-1.77,7.53,7.53,0,0,1-1.56-5.13,37.46,37.46,0,0,1,.84-6,31.05,31.05,0,0,0,.78-5.22q0-1-.66-1t-2.22,2a29.48,29.48,0,0,0-2.88,5.31,43.1,43.1,0,0,0-2.34,7q-1.14,4.8-5.64,4.8a2.32,2.32,0,0,1-2.37-1.29,12.93,12.93,0,0,1-.57-4.65q0-1.92.06-3.06L83,48.9c0-2,.08-4.14.22-6.25A39.06,39.06,0,0,1,76,41.94,52,52,0,0,1,65.91,56.79Q60,62.7,54.24,62.7q-5.28,0-7.92-5.61t-3-15Q39.72,52.5,35.19,57.6t-9.63,5.1q-5.76,0-8.7-7.17T13.92,36.24a133.41,133.41,0,0,1,1.56-19.38A7.67,7.67,0,0,1,17,12.69a4.64,4.64,0,0,1,3.51-1.17,4.41,4.41,0,0,1,2.79.78,3.5,3.5,0,0,1,1,2.88q0,.42-.12,1.62a148.21,148.21,0,0,0-1.8,20.94q0,8,1.38,12.42t3.72,4.38q2.1,0,5.07-4.41a57,57,0,0,0,5.91-13.08,136.09,136.09,0,0,0,5-20.67,6.13,6.13,0,0,1,1.77-3.81,5.4,5.4,0,0,1,3.51-1.05,3.91,3.91,0,0,1,2.73.81,3.16,3.16,0,0,1,.87,2.43,7.28,7.28,0,0,1-.12,1.5,115.34,115.34,0,0,0-1.68,19.56A98.67,98.67,0,0,0,51,46.44a14.73,14.73,0,0,0,1.74,6,4.16,4.16,0,0,0,3.75,2.07q2.88,0,6.42-4.35a49.53,49.53,0,0,0,6.48-10.83,14.89,14.89,0,0,1-5.52-5.91A18.1,18.1,0,0,1,62,25.08a19.49,19.49,0,0,1,1.47-8,10.86,10.86,0,0,1,4-4.89,10.36,10.36,0,0,1,5.67-1.62,7.44,7.44,0,0,1,6.09,2.76,11.63,11.63,0,0,1,2.25,7.56,45.44,45.44,0,0,1-2.94,15.06,38.94,38.94,0,0,0,5.26.51q.42-3.36,1.07-6.81a57.88,57.88,0,0,1,5.58-16.83Q94.14,6,99.3,6M91.08,34.8a42.94,42.94,0,0,0,6.15-9.54,22.28,22.28,0,0,0,2.43-9.36A8,8,0,0,0,99.24,13q-.42-1-1.2-1-1.08,0-2.4,3.09a52.36,52.36,0,0,0-2.55,8.34,111.37,111.37,0,0,0-2,11.43M71.82,33.36a35.31,35.31,0,0,0,2.34-11.1,7.83,7.83,0,0,0-.66-3.69,2,2,0,0,0-1.8-1.17,3,3,0,0,0-2.64,1.89,11.49,11.49,0,0,0-1,5.37q0,5.88,3.78,8.7M119,49.26a13.63,13.63,0,0,0,5.58-2.52,5,5,0,0,0,2-3.9A2.61,2.61,0,0,0,126,41a2.2,2.2,0,0,0-1.71-.69q-2.22,0-3.75,2.58A12,12,0,0,0,119,49.14v.12M99.3,0c-4,0-9.67,1.73-14.13,10-.13.26-.27.52-.41.78a12.72,12.72,0,0,0-.88-1.2,13.39,13.39,0,0,0-10.74-5,16.29,16.29,0,0,0-8.89,2.56,16.52,16.52,0,0,0-6,6.82,8.81,8.81,0,0,0-2.75-6,9.64,9.64,0,0,0-6.82-2.42,11.26,11.26,0,0,0-7.29,2.39,11.8,11.8,0,0,0-3.9,7.44,131.49,131.49,0,0,1-4.75,19.77,65,65,0,0,1-4,9.68,56.77,56.77,0,0,1-.38-7.06,143.34,143.34,0,0,1,1.74-20.07l0-.14v-.14a22.13,22.13,0,0,0,.15-2.21C30.3,11,28.52,8.77,27,7.59a10.23,10.23,0,0,0-6.51-2.07,10.38,10.38,0,0,0-7.86,3C11,10.28,10,12.73,9.54,16A139.92,139.92,0,0,0,7.92,36.24c0,8.95,1.11,16,3.39,21.57,3.88,9.47,10.6,10.89,14.25,10.89,5.17,0,9.92-2.39,14.12-7.11q.69-.78,1.35-1.65c2.77,5.65,7.45,8.76,13.21,8.76,5.47,0,10.82-2.58,15.91-7.67a52.37,52.37,0,0,0,6.78-8.41v.89c0,.85-.06,1.91-.06,3.25a17.43,17.43,0,0,0,1.08,7.08A8.28,8.28,0,0,0,85.8,68.7a11.15,11.15,0,0,0,9-4.07l.23.27a11.65,11.65,0,0,0,9.12,3.8,17.23,17.23,0,0,0,9.76-2.91A20.63,20.63,0,0,0,125,68.7a23.4,23.4,0,0,0,9.63-2,9.06,9.06,0,0,0,5.85,2,9.24,9.24,0,0,0,7.23-3,9.42,9.42,0,0,0,7.35,3,9.75,9.75,0,0,0,7.4-2.88,10.38,10.38,0,0,0,2.56-7.38,62.65,62.65,0,0,1,.32-6.63c.23-2.06.54-4.29.92-6.62v-.07a45.67,45.67,0,0,0,.73-6.78,9.43,9.43,0,0,0-9.9-9.9,14.63,14.63,0,0,0-7.28,2.14,7.09,7.09,0,0,0-1.17-.92,9,9,0,0,0-4.87-1.22,12.08,12.08,0,0,0-6.75,1.8A9.94,9.94,0,0,0,135,32.09a13.62,13.62,0,0,0-9.64-3.65A18.1,18.1,0,0,0,115,31.58a18.72,18.72,0,0,0-2.36,1.88,8.78,8.78,0,0,0-5-4.37,31.84,31.84,0,0,0,3.81-14.57,16.12,16.12,0,0,0-2.85-9.66A11.27,11.27,0,0,0,99.3,0ZM57.22,47.55a16,16,0,0,1-.29-1.79,94.24,94.24,0,0,1-.41-9.94c0-1.6,0-3.2.11-4.8a22.42,22.42,0,0,0,1.87,5.17,20.42,20.42,0,0,0,3.36,4.75,37.48,37.48,0,0,1-3.63,5.46c-.39.47-.72.85-1,1.15Zm68.66-1.82Z"/><path class="cls-1" d="M223.14,84.36c-3,0-7-1.43-9-8.26a51.6,51.6,0,0,1-1.72-11.27,11.26,11.26,0,0,1-4.25.87A9.36,9.36,0,0,1,201,62.86l-.42.29A15,15,0,0,1,192,65.7a11.31,11.31,0,0,1-10.48-6.39c-1.92-3.62-2.9-8.28-2.9-13.83a88.07,88.07,0,0,1,1.95-17.27,59.77,59.77,0,0,1,5.89-16.93c3-5.5,6.86-8.28,11.42-8.28A8.05,8.05,0,0,1,205,7.09c1.41,2.29,2.1,5.31,2.1,9.23a44.77,44.77,0,0,1-3.47,15.93,8.34,8.34,0,0,1,3.89-.81c4.47,0,6.06,2.6,6.06,5,0,.84-.14,2.46-1.2,7.57A52.78,52.78,0,0,0,211,52.17c.39-.37.85-.85,1.37-1.42a118.5,118.5,0,0,1,2.38-18,73.21,73.21,0,0,1,7.16-20.47c3.46-6.17,7.56-9.3,12.19-9.3A7.89,7.89,0,0,1,241,6.92a15.48,15.48,0,0,1,2.06,8.38c0,8.71-4.36,18.05-13,27.83l.42,0a8.15,8.15,0,0,0,.93,0q.84,0,1.77-.06a21.09,21.09,0,0,1,.93-2.24A17.26,17.26,0,0,1,240,34.06a15.15,15.15,0,0,1,8.68-2.62,10.17,10.17,0,0,1,10.68,10.68,12.79,12.79,0,0,1-1.3,5.73,4.41,4.41,0,0,1,3.21,2.1,6.64,6.64,0,0,1,.91,3.57,9.61,9.61,0,0,1-1.51,5.36,14.6,14.6,0,0,1-5.52,5,16.75,16.75,0,0,1-7.91,1.79c-4.7,0-8.45-1.49-11.15-4.42a14.33,14.33,0,0,1-3.11-5.42h-.3c.22,1.4.42,2.86.59,4.38a73.38,73.38,0,0,1,.53,7.81c0,4.93-.83,8.68-2.55,11.47C228.75,83.52,225.46,84.36,223.14,84.36ZM192.58,52.2A2.49,2.49,0,0,0,193,53s.07.08.31.08a3.93,3.93,0,0,0,2.51-.8,18.16,18.16,0,0,0,2-1.87c.11-1.54.32-3.29.64-5.22.18-1.1.38-2.18.6-3.23A99.69,99.69,0,0,1,192.58,52.2Z"/><path class="cls-2" d="M234.06,6a5,5,0,0,1,4.41,2.52,12.6,12.6,0,0,1,1.59,6.78q0,14.1-16.86,30.72a103.21,103.21,0,0,0-.6,10.32q0,6.18.42,12.69t1.38,6.51q1.8,0,1.8-6.24a63.58,63.58,0,0,0-.63-9.06q-.63-4.38-1.71-9.24a4.12,4.12,0,0,1,.51-2,8.22,8.22,0,0,1,1.41-2.1,2.27,2.27,0,0,1,1.5-.9q1.2,0,2.88.12a11.57,11.57,0,0,0,1.26.06,35.92,35.92,0,0,0,4.09-.26,17.23,17.23,0,0,1,1.31-3.73,14.25,14.25,0,0,1,4.83-5.67,12.15,12.15,0,0,1,7-2.1,7.6,7.6,0,0,1,5.58,2.07,7.52,7.52,0,0,1,2.1,5.61,9.7,9.7,0,0,1-3,7.11q-3,3-10.11,4.71a5,5,0,0,0,4.86,2.76,6.78,6.78,0,0,0,4.05-1.14,19.59,19.59,0,0,0,3.69-3.84,2.06,2.06,0,0,1,1.62-.9,1.39,1.39,0,0,1,1.23.72,3.72,3.72,0,0,1,.45,2,6.65,6.65,0,0,1-1,3.72,11.68,11.68,0,0,1-4.41,4,13.78,13.78,0,0,1-6.51,1.44q-5.76,0-8.94-3.45a12,12,0,0,1-3-6.52,18.26,18.26,0,0,1-2.18.13,22.86,22.86,0,0,1-4.14-.54q.78,3.72,1.29,8.25a69.22,69.22,0,0,1,.51,7.47q0,6.48-2.1,9.9a6.29,6.29,0,0,1-5.52,3.42q-4.32,0-6.15-6.12c-1.08-3.59-1.68-8.81-1.8-15.63-2.46,2-4.81,3.09-7.05,3.09a6.24,6.24,0,0,1-5.67-2.76,9.05,9.05,0,0,1-.78-1.52,24.28,24.28,0,0,1-2.82,2.24,12,12,0,0,1-6.87,2,8.33,8.33,0,0,1-7.83-4.8q-2.55-4.8-2.55-12.42a85.31,85.31,0,0,1,1.89-16.68,56.6,56.6,0,0,1,5.58-16.08Q192.78,6,197.88,6a5.09,5.09,0,0,1,4.53,2.67q1.65,2.67,1.65,7.65,0,7.14-4,16.56a91.71,91.71,0,0,1-10.74,18.66,7,7,0,0,0,1.38,3.51,3.25,3.25,0,0,0,2.52,1.05,7,7,0,0,0,4.32-1.41,24.32,24.32,0,0,0,3.15-3,48,48,0,0,1,.66-6,64.71,64.71,0,0,1,1.77-7.89,5.08,5.08,0,0,1,1.44-2.64,4.61,4.61,0,0,1,2.88-.72q3.06,0,3.06,2a47,47,0,0,1-1.14,7A51.89,51.89,0,0,0,208,52.38a6.33,6.33,0,0,0,.48,2.76,1.67,1.67,0,0,0,1.62,1,4.52,4.52,0,0,0,2.7-1.5A36.16,36.16,0,0,0,215.27,52a115.43,115.43,0,0,1,2.38-18.57,69.62,69.62,0,0,1,6.84-19.62Q228.84,6,234.06,6m-9.78,32a43.82,43.82,0,0,0,7.38-11.37A28.63,28.63,0,0,0,234.3,15.6q0-3.66-1.5-3.66-1.08,0-2.67,3.66A67.46,67.46,0,0,0,227,25.29q-1.56,6-2.7,12.75m-35.34,5.4a77.32,77.32,0,0,0,6.78-14.07,38.57,38.57,0,0,0,2.52-12.87q0-4.56-1.68-4.56-1.38,0-3.12,5a81.84,81.84,0,0,0-3.06,12.36,89.47,89.47,0,0,0-1.44,14.16m53.4,5.82a13.63,13.63,0,0,0,5.58-2.52,5,5,0,0,0,2-3.9,2.61,2.61,0,0,0-.63-1.83,2.2,2.2,0,0,0-1.71-.69q-2.22,0-3.75,2.58a12,12,0,0,0-1.53,6.24v.12M234.06,0c-5.8,0-10.78,3.65-14.81,10.84a72.57,72.57,0,0,0-6.89,18.7,10.06,10.06,0,0,0-4.28-1.09,42.25,42.25,0,0,0,2-12.13c0-4.5-.83-8-2.55-10.8A11,11,0,0,0,197.88,0c-3.95,0-9.59,1.71-14,9.83a62.64,62.64,0,0,0-6.2,17.78,91.16,91.16,0,0,0-2,17.87c0,6.05,1.09,11.18,3.25,15.24a14.35,14.35,0,0,0,13.13,8,18.07,18.07,0,0,0,8.69-2.14,13.09,13.09,0,0,0,7.45,2.14,13.43,13.43,0,0,0,1.55-.09A46.82,46.82,0,0,0,211.24,77c2.81,9.39,9.26,10.4,11.9,10.4a12.26,12.26,0,0,0,10.63-6.28c2-3.28,3-7.54,3-13q0-1.07-.06-2.28a18.53,18.53,0,0,0,10.5,2.94,19.84,19.84,0,0,0,9.31-2.13,17.67,17.67,0,0,0,6.64-6.06,12.52,12.52,0,0,0,2-7,9.57,9.57,0,0,0-1.37-5.17,7.59,7.59,0,0,0-2-2.13,16.4,16.4,0,0,0,.52-4.1,13.43,13.43,0,0,0-3.89-9.88,13.59,13.59,0,0,0-9.79-3.8,18.65,18.65,0,0,0-5.72.87,34.39,34.39,0,0,0,3.14-14,18.43,18.43,0,0,0-2.52-10A10.91,10.91,0,0,0,234.06,0Z"/><path class="cls-1" d="M208.62,33.48a8.24,8.24,0,0,1-5.82-2A7.15,7.15,0,0,1,200.58,26a7.41,7.41,0,0,1,2.7-5.79,9.06,9.06,0,0,1,6.06-2.13,8.62,8.62,0,0,1,5.45,1.72,6.64,6.64,0,0,1,2.53,5.42,7.89,7.89,0,0,1-2.55,6A8.89,8.89,0,0,1,208.62,33.48Z"/><path class="cls-2" d="M209.34,21.12a5.67,5.67,0,0,1,3.6,1.08,3.66,3.66,0,0,1,1.38,3.06,4.88,4.88,0,0,1-1.56,3.81,5.94,5.94,0,0,1-4.14,1.41,5.38,5.38,0,0,1-3.78-1.17A4.24,4.24,0,0,1,203.58,26a4.43,4.43,0,0,1,1.65-3.51,6.11,6.11,0,0,1,4.11-1.41m0-6a12.1,12.1,0,0,0-8,2.85A10.47,10.47,0,0,0,197.58,26a10.15,10.15,0,0,0,3.17,7.67,11.17,11.17,0,0,0,7.87,2.77,11.84,11.84,0,0,0,8.16-3,10.82,10.82,0,0,0,3.54-8.26,9.65,9.65,0,0,0-3.68-7.78,11.52,11.52,0,0,0-7.3-2.36Z"/><path class="cls-1" d="M312.48,33.48a8.22,8.22,0,0,1-5.82-2A7.15,7.15,0,0,1,304.44,26a7.41,7.41,0,0,1,2.7-5.79,9.06,9.06,0,0,1,6.06-2.13,8.62,8.62,0,0,1,5.45,1.72,6.64,6.64,0,0,1,2.53,5.42,7.89,7.89,0,0,1-2.55,6A8.89,8.89,0,0,1,312.48,33.48Z"/><path class="cls-2" d="M313.2,21.12a5.67,5.67,0,0,1,3.6,1.08,3.66,3.66,0,0,1,1.38,3.06,4.88,4.88,0,0,1-1.56,3.81,5.94,5.94,0,0,1-4.14,1.41,5.38,5.38,0,0,1-3.78-1.17A4.24,4.24,0,0,1,307.44,26a4.43,4.43,0,0,1,1.65-3.51,6.11,6.11,0,0,1,4.11-1.41m0-6a12.1,12.1,0,0,0-8,2.85A10.47,10.47,0,0,0,301.44,26a10.11,10.11,0,0,0,3.17,7.67,11.17,11.17,0,0,0,7.87,2.77,11.84,11.84,0,0,0,8.16-3,10.82,10.82,0,0,0,3.54-8.26,9.65,9.65,0,0,0-3.68-7.78,11.52,11.52,0,0,0-7.3-2.36Z"/><path class="cls-1" d="M280.44,92.7A9.76,9.76,0,0,1,273.35,90a9.56,9.56,0,0,1-2.81-7.09c0-3.44,1.31-7.1,3.88-10.85a42.13,42.13,0,0,1,6.16-6.79,10.1,10.1,0,0,1-4.92-3.31,13.75,13.75,0,0,1-2.9-9,22.64,22.64,0,0,1,2.55-10.47,22,22,0,0,1,6.85-8,16.29,16.29,0,0,1,9.56-3.16,5.12,5.12,0,0,1,4,1.52,7,7,0,0,1,.44.59h.7a6.47,6.47,0,0,1,3.87,1,4.83,4.83,0,0,1,1.89,4.21,11.47,11.47,0,0,1-.09,1.57c-.16,1.2-.63,4.16-1.43,9l.68-.48c.12-1.11.28-2.29.49-3.53A67.05,67.05,0,0,1,304.14,37a7.78,7.78,0,0,1,2.44-4.13,7.35,7.35,0,0,1,4.76-1.38c4.12,0,5.79,2.22,6,4.47a5.57,5.57,0,0,1,2-3.13,7.89,7.89,0,0,1,4.89-1.4,6.2,6.2,0,0,1,4.33,1.48,5.85,5.85,0,0,1,1.73,4.52V38.7a11.67,11.67,0,0,1,.52-1.27,11.23,11.23,0,0,1,3.35-4.23,8.61,8.61,0,0,1,5.37-1.82,6.56,6.56,0,0,1,5.07,2.25,7.8,7.8,0,0,1,1.81,4.91,17,17,0,0,1,4.48-4.48,15.15,15.15,0,0,1,8.68-2.62,10.17,10.17,0,0,1,10.68,10.68,12.59,12.59,0,0,1-2.93,8.23l.56-.49c1.32-1.71,2.38-3.18,3.13-4.37a34.78,34.78,0,0,0,2-3.79c.72-1.55,1.69-3.73,2.88-6.48.72-1.65,2.65-4.44,7.5-4.44a8.61,8.61,0,0,1,3.57.57A4,4,0,0,1,389.4,35a6.85,6.85,0,0,1-.38,2,11.44,11.44,0,0,1-.88,2.1,5.37,5.37,0,0,0-.72,2.24h0a1.62,1.62,0,0,0,.22.47,19.36,19.36,0,0,0,1.68,2.32,39.19,39.19,0,0,1,3.2,4.72,10.77,10.77,0,0,1,1.38,5.33,13.19,13.19,0,0,1-1.51,6.15,12.53,12.53,0,0,1-4.29,4.76A11.54,11.54,0,0,1,381.66,67a9.94,9.94,0,0,1-6.75-2.18,7.63,7.63,0,0,1-2.39-3.56,6.2,6.2,0,0,1-1.46.77c-.53.34-1.08.67-1.64,1a20.44,20.44,0,0,1-10.14,2.67c-5,0-9-1.44-11.89-4.28a14.21,14.21,0,0,1-3.81-6.76h-.2a20.15,20.15,0,0,1-3.59-.31q-1.31,2-2.78,4.13a23.08,23.08,0,0,1-4.83,5.39,9.61,9.61,0,0,1-5.72,1.83,7.5,7.5,0,0,1-6.29-3.15h0A13.57,13.57,0,0,1,312,65.7c-4.58,0-7-2.25-8.2-4.14,0-.07-.09-.14-.13-.22-.92.63-1.69,1.16-2.31,1.6l-2.85,1.91c-1.54,8-3.56,14.39-6,19.12C289.48,89.76,285.43,92.7,280.44,92.7Zm7.82-46.79a12.64,12.64,0,0,0-1,1.87,13.36,13.36,0,0,0-1,5.2v.25l.06-.07a8.22,8.22,0,0,0,1.24-3.51Zm28.84-6.6c-.18,1.11-.46,2.63-.91,4.74a52.1,52.1,0,0,0-1.37,8.12c.69-.66,1.56-1.6,2.59-2.8-.21-3.42-.31-6.56-.31-9.35Z"/><path class="cls-2" d="M383.4,33.78a6.37,6.37,0,0,1,2.34.3,1,1,0,0,1,.66,1,4.9,4.9,0,0,1-.24,1.14,9.46,9.46,0,0,1-.66,1.56,8.56,8.56,0,0,0-1.08,3.66,4.08,4.08,0,0,0,.62,2,22.74,22.74,0,0,0,2,2.7,38.12,38.12,0,0,1,2.91,4.29,7.79,7.79,0,0,1,1,3.87A10.32,10.32,0,0,1,389.73,59a9.61,9.61,0,0,1-3.27,3.63,8.57,8.57,0,0,1-4.8,1.38,7.09,7.09,0,0,1-4.78-1.44,4.23,4.23,0,0,1-1.64-3.24,3.69,3.69,0,0,1,1.14-2.7,4.52,4.52,0,0,1,3.36-1.14,13.28,13.28,0,0,1,1.83.15l1.59.21a7.73,7.73,0,0,0-.7-2.94,15.22,15.22,0,0,0-1.58-2.67c-.64-.86-1.25-1.61-1.8-2.25a40,40,0,0,1-3.7,5.88c-.2.26-.43.51-.64.77a4.32,4.32,0,0,1-.52.79,18.51,18.51,0,0,1-2,2.05c-.27.27-.53.56-.8.83a3.61,3.61,0,0,1-1.63,1c-.58.38-1.18.75-1.82,1.11a17.39,17.39,0,0,1-8.67,2.28q-6.3,0-9.78-3.42a11.92,11.92,0,0,1-3.42-7.81,20,20,0,0,1-2.7.19,16.84,16.84,0,0,1-5-.72q-1.74,2.82-3.84,5.82a20.4,20.4,0,0,1-4.14,4.68,6.58,6.58,0,0,1-4,1.26,4.54,4.54,0,0,1-3.87-1.92,8.67,8.67,0,0,1-1.35-3.25C318,61,314.89,62.7,312,62.7a6.24,6.24,0,0,1-5.67-2.76A10.29,10.29,0,0,1,305,56.79c-2.34,1.59-4.14,2.82-5.38,3.69l-3.84,2.58q-2.28,12.42-6,19.53t-9.39,7.11a6.8,6.8,0,0,1-5-1.89,6.64,6.64,0,0,1-1.92-5q0-4.26,3.36-9.15t12.6-12l.36-2.34a7.24,7.24,0,0,1-5.94,3.36A7.3,7.3,0,0,1,278,60a10.79,10.79,0,0,1-2.22-7.08A19.51,19.51,0,0,1,278,43.83a19,19,0,0,1,5.91-6.9,13.33,13.33,0,0,1,7.83-2.61,2.34,2.34,0,0,1,1.77.51,4.31,4.31,0,0,1,.75,1.83,12.92,12.92,0,0,1,2.64-.24,3.79,3.79,0,0,1,2.13.45,2.06,2.06,0,0,1,.63,1.77,8.47,8.47,0,0,1-.06,1.14q-.24,1.86-1.5,9.42-.24,1.44-.51,3.15L297,56c2.64-2.06,5.19-3.9,7.66-5.55.11-1.38.29-3,.59-4.74A64.71,64.71,0,0,1,307,37.8a5.08,5.08,0,0,1,1.44-2.64,4.61,4.61,0,0,1,2.88-.72q3.06,0,3.06,2a47,47,0,0,1-1.14,7,51.89,51.89,0,0,0-1.44,8.94,6.33,6.33,0,0,0,.48,2.76,1.67,1.67,0,0,0,1.62,1,4.52,4.52,0,0,0,2.7-1.5,51.46,51.46,0,0,0,3.87-4.21q-.39-5.74-.39-10.37v-2.1a3.42,3.42,0,0,1,1.08-2.76,5,5,0,0,1,3.06-.78,3.32,3.32,0,0,1,2.31.69,3,3,0,0,1,.75,2.31q0,6.9.84,17.94,3.6-5.34,5.4-8.52a8.9,8.9,0,0,1-.9-4.14,9.23,9.23,0,0,1,.9-4A8.3,8.3,0,0,1,336,35.58a5.65,5.65,0,0,1,3.54-1.2,3.57,3.57,0,0,1,2.82,1.23,5.25,5.25,0,0,1,1.08,3.57A16.46,16.46,0,0,1,342,45.36a37.82,37.82,0,0,0,4.8-.66,16.4,16.4,0,0,1,1-2.49,14.25,14.25,0,0,1,4.83-5.67,12.15,12.15,0,0,1,7-2.1,7.6,7.6,0,0,1,5.58,2.07,7.52,7.52,0,0,1,2.1,5.61,9.7,9.7,0,0,1-3,7.11q-3,3-10.05,4.71,1.5,2.76,5.7,2.76a13.12,13.12,0,0,0,6.15-1.89,20.65,20.65,0,0,0,4-2.91q2.19-2.8,3.46-4.8A40.66,40.66,0,0,0,375.75,43q1.11-2.4,2.91-6.54,1.14-2.64,4.74-2.64M286.08,56.64A3.44,3.44,0,0,0,288.72,55a11.16,11.16,0,0,0,1.8-4.8l1.92-10.26a7.09,7.09,0,0,0-4.56,1.89,12.9,12.9,0,0,0-3.36,4.83A16.26,16.26,0,0,0,283.26,53a4.25,4.25,0,0,0,.75,2.76,2.55,2.55,0,0,0,2.07.9m67.2-7.38a13.63,13.63,0,0,0,5.58-2.52,5,5,0,0,0,2-3.9,2.61,2.61,0,0,0-.63-1.83,2.2,2.2,0,0,0-1.71-.69q-2.22,0-3.75,2.58a12,12,0,0,0-1.53,6.24v.12M281.1,83.88q1.5,0,3.39-3.6a49.33,49.33,0,0,0,3.63-11.46A34.86,34.86,0,0,0,281.46,76a10.76,10.76,0,0,0-2,5.58,3.26,3.26,0,0,0,.39,1.68,1.38,1.38,0,0,0,1.29.66m102.3-56.1c-4.8,0-8.54,2.28-10.25,6.26l-1,2.3a12.72,12.72,0,0,0-2.77-4.1,13.59,13.59,0,0,0-9.79-3.8,18.14,18.14,0,0,0-10.37,3.14,19.09,19.09,0,0,0-1.53,1.15,8.53,8.53,0,0,0-.82-1.08,9.58,9.58,0,0,0-7.32-3.27,11.71,11.71,0,0,0-7.2,2.45c-.31.23-.6.48-.89.74a7.57,7.57,0,0,0-.83-.91,9.15,9.15,0,0,0-6.38-2.28,10.78,10.78,0,0,0-6.7,2h0a9.6,9.6,0,0,0-6.19-2,10.29,10.29,0,0,0-6.63,2A8.93,8.93,0,0,0,303,32.35a4.55,4.55,0,0,0-.47-.36,8.84,8.84,0,0,0-4.91-1.55,8.16,8.16,0,0,0-5.86-2.12A19.33,19.33,0,0,0,280.42,32a25,25,0,0,0-7.77,9,25.52,25.52,0,0,0-2.89,11.85,16.64,16.64,0,0,0,3.58,10.89,13.94,13.94,0,0,0,2.2,2.15A37.29,37.29,0,0,0,272,70.31c-2.93,4.26-4.41,8.49-4.41,12.55a12.61,12.61,0,0,0,3.71,9.23,12.8,12.8,0,0,0,9.19,3.61c4.26,0,10.28-1.8,14.71-10.35,2.5-4.81,4.49-10.94,6.07-18.7L303,65.46l0,0,.05,0h0A12.67,12.67,0,0,0,312,68.7a15.23,15.23,0,0,0,7.76-2.27,10.6,10.6,0,0,0,6.7,2.27,12.49,12.49,0,0,0,7.47-2.4,25.16,25.16,0,0,0,5.54-6.09q.93-1.34,1.8-2.64h.09a16.82,16.82,0,0,0,3.93,6c3.47,3.41,8.18,5.14,14,5.14a23.45,23.45,0,0,0,11.61-3l.44-.25a11.51,11.51,0,0,0,1.61,1.7A12.82,12.82,0,0,0,381.66,70a14.55,14.55,0,0,0,8.09-2.36,15.63,15.63,0,0,0,5.3-5.88,16.29,16.29,0,0,0,1.85-7.54,13.7,13.7,0,0,0-1.76-6.8,44.41,44.41,0,0,0-3.37-5l-.06-.07-.06-.08c-.48-.58-.81-1-1-1.34.05-.13.12-.29.21-.47a14.24,14.24,0,0,0,1.06-2.54,9.69,9.69,0,0,0,.51-2.9,7,7,0,0,0-4.17-6.42,11.44,11.44,0,0,0-4.83-.84Z"/><path class="cls-1" d="M413.82,92.7A9.76,9.76,0,0,1,406.73,90a9.56,9.56,0,0,1-2.81-7.09,17.24,17.24,0,0,1,1.54-7,28.63,28.63,0,0,1,5.34-7.57c.86-.94,1.86-1.93,3-3a8.46,8.46,0,0,1-4.5-3.44A13.71,13.71,0,0,1,407,54a56,56,0,0,1,.63-8.72,54.18,54.18,0,0,1,2.1-8.42,7.89,7.89,0,0,1,2.77-4.07,8.61,8.61,0,0,1,5.17-1.35,5.67,5.67,0,0,1,3.74,1.1,4.54,4.54,0,0,1,1.61,3.58,18.75,18.75,0,0,1-.75,3.94c-.4,1.5-.71,2.78-.93,3.91l-.15.74A74.16,74.16,0,0,0,423.7,37a7.62,7.62,0,0,1,2.51-4.16A7.65,7.65,0,0,1,431,31.44a6.24,6.24,0,0,1,3.58.86A4.29,4.29,0,0,1,436.5,36c0,.87-.2,2.84-1.61,10.84l-.4,2.46.41-.28a20.71,20.71,0,0,1,2-8.36,16.7,16.7,0,0,1,5.85-6.78,15.09,15.09,0,0,1,8.42-2.5,12.27,12.27,0,0,1,9.6,4.16,15.88,15.88,0,0,1,3.39,6.22c.38-1.61.84-3.25,1.38-4.9a8,8,0,0,1,2.78-4.07,8.61,8.61,0,0,1,5.17-1.35,5.69,5.69,0,0,1,3.74,1.1,4.53,4.53,0,0,1,1.6,3.58,18.23,18.23,0,0,1-.74,3.94c-.4,1.5-.71,2.78-.93,3.91-.06.28-.11.56-.16.83A71.42,71.42,0,0,0,479.49,37a6.84,6.84,0,0,1,7.34-5.59A5.21,5.21,0,0,1,491,33.22a6.1,6.1,0,0,1,1.25,4,29.89,29.89,0,0,1-.26,3.72c-.17,1.24-.35,2.52-.55,3.82-.4,2.52-.71,4.83-1,6.87a62.65,62.65,0,0,0-.34,6.83,7.49,7.49,0,0,1-1.74,5.32,6.83,6.83,0,0,1-5.22,1.94c-3.06,0-4.67-1.28-5.48-2.36a8.27,8.27,0,0,1-5.68,2.36,8.37,8.37,0,0,1-6.94-3.52,12.23,12.23,0,0,1-2.17-6,17,17,0,0,1-4.12,5.69,14,14,0,0,1-9.63,3.8,13.64,13.64,0,0,1-7.84-2.26,13.89,13.89,0,0,1-3.09-2.88l-6.39,4.29c-1.54,8-3.56,14.39-6,19.12C422.86,89.76,418.81,92.7,413.82,92.7Zm34.86-46.12a13,13,0,0,0-.3,3,5.83,5.83,0,0,0,.69,3.25c.12.16.42.53.62.53a1.35,1.35,0,0,0,1.11-.57,4.16,4.16,0,0,0,.76-1.38,11.22,11.22,0,0,1-2.19-3.1A12.48,12.48,0,0,1,448.68,46.58Z"/><path class="cls-2" d="M451.19,34.38a9.34,9.34,0,0,1,7.35,3.15,13.49,13.49,0,0,1,3.27,7.77,32.38,32.38,0,0,0,4.84-.74,55,55,0,0,1,1.76-6.76,5,5,0,0,1,1.68-2.58,5.91,5.91,0,0,1,3.42-.78,3,3,0,0,1,1.83.42,1.54,1.54,0,0,1,.51,1.26,24.91,24.91,0,0,1-.66,3.24q-.6,2.22-1,4a56.75,56.75,0,0,0-1.2,8.4,3.74,3.74,0,0,0,.3,1.77,1,1,0,0,0,1,.51q.9,0,2.28-1.83a26.09,26.09,0,0,0,2.91-5.52,70.8,70.8,0,0,0,2.91-8.91,4.72,4.72,0,0,1,1.47-2.58,4.74,4.74,0,0,1,3-.78,2.32,2.32,0,0,1,1.89.69,3.19,3.19,0,0,1,.57,2.07,25.8,25.8,0,0,1-.24,3.33q-.24,1.83-.54,3.75-.6,3.84-1,7a63.74,63.74,0,0,0-.36,7.17,4.7,4.7,0,0,1-.93,3.27,4,4,0,0,1-3,1,3.62,3.62,0,0,1-3.09-1.17q-.87-1.17-.87-4.53,0-.66.12-2.94a14.57,14.57,0,0,1-3,6.42,5.8,5.8,0,0,1-4.29,2.22,5.37,5.37,0,0,1-4.53-2.31A10.54,10.54,0,0,1,465.83,54c0-1,0-2,.08-3a29.89,29.89,0,0,1-4.58.55,15,15,0,0,1-4.5,8.07,11.07,11.07,0,0,1-7.62,3A10.65,10.65,0,0,1,443.06,61a11.05,11.05,0,0,1-3.87-4.62h0l-10,6.73q-2.28,12.42-6,19.53t-9.39,7.11a6.84,6.84,0,0,1-5-1.89,6.63,6.63,0,0,1-1.91-5,14.11,14.11,0,0,1,1.29-5.76A26.24,26.24,0,0,1,413,70.35a79.72,79.72,0,0,1,9.94-8.73l.18-1.38q.4-2.22,1-6.36a15.25,15.25,0,0,1-3.37,6.57,6.3,6.3,0,0,1-4.55,2.25,5.16,5.16,0,0,1-4.41-2.49A10.72,10.72,0,0,1,410,54a52.39,52.39,0,0,1,.6-8.25,49.57,49.57,0,0,1,2-8,5,5,0,0,1,1.67-2.58,6,6,0,0,1,3.42-.78,2.94,2.94,0,0,1,1.83.42,1.54,1.54,0,0,1,.52,1.26,27,27,0,0,1-.66,3.24c-.4,1.48-.73,2.82-1,4q-.49,2.46-.84,4.71a24.3,24.3,0,0,0-.36,3.69q0,2.28,1.26,2.28.9,0,2.25-1.8a26,26,0,0,0,2.87-5.46,71.18,71.18,0,0,0,3-9,4.72,4.72,0,0,1,1.47-2.58,4.73,4.73,0,0,1,3-.78,3.68,3.68,0,0,1,1.92.36,1.33,1.33,0,0,1,.54,1.2c0,1-.53,4.44-1.56,10.32L430.37,56q3.86-2.9,7.53-5.37c0-.17,0-.34,0-.51A18.32,18.32,0,0,1,439.61,42a13.67,13.67,0,0,1,4.8-5.58,12.09,12.09,0,0,1,6.78-2m-1.5,22A4.35,4.35,0,0,0,453,54.78a8.66,8.66,0,0,0,1.89-4.5,8.28,8.28,0,0,1-2.85-3.3,9.77,9.77,0,0,1-1-4.32,10.4,10.4,0,0,1,.18-1.92H451a4.71,4.71,0,0,0-4,2.31,11.39,11.39,0,0,0-1.59,6.51,8.37,8.37,0,0,0,1.29,5,3.72,3.72,0,0,0,3,1.74M414.48,83.88q1.49,0,3.35-3.48t3.73-11.58a33.88,33.88,0,0,0-6.69,7.11,10.84,10.84,0,0,0-2.08,5.61,3.17,3.17,0,0,0,.4,1.68,1.37,1.37,0,0,0,1.29.66m36.71-55.5a18,18,0,0,0-10.07,3,18.62,18.62,0,0,0-2.19,1.67,7,7,0,0,0-2.65-3.24A9.21,9.21,0,0,0,431,28.44a10.52,10.52,0,0,0-6.68,2.06l-.37.31c-.2-.2-.41-.4-.63-.58a8.51,8.51,0,0,0-5.65-1.79,11.5,11.5,0,0,0-6.92,1.91,10.84,10.84,0,0,0-3.87,5.55,58.71,58.71,0,0,0-2.21,8.91A58.25,58.25,0,0,0,404,54a16.67,16.67,0,0,0,2.76,9.61A12.87,12.87,0,0,0,408.88,66c-.09.11-.19.21-.29.31a31.44,31.44,0,0,0-5.88,8.41,20.27,20.27,0,0,0-1.79,8.17,12.61,12.61,0,0,0,3.71,9.23,12.8,12.8,0,0,0,9.19,3.61c4.26,0,10.27-1.8,14.71-10.35,2.5-4.81,4.49-10.94,6.06-18.7l3.25-2.18a18.63,18.63,0,0,0,1.84,1.45,16.64,16.64,0,0,0,9.53,2.78,17,17,0,0,0,11.64-4.57c.42-.38.82-.77,1.2-1.18a11.78,11.78,0,0,0,.67,1,11.4,11.4,0,0,0,9.35,4.74,10.82,10.82,0,0,0,5.49-1.51,10.27,10.27,0,0,0,5.67,1.51,9.75,9.75,0,0,0,7.41-2.88,10.42,10.42,0,0,0,2.55-7.38,56.42,56.42,0,0,1,.33-6.49c.22-2,.54-4.27.92-6.75.21-1.31.4-2.62.56-3.89a30.62,30.62,0,0,0,.29-4.11,9,9,0,0,0-1.94-5.89,8.19,8.19,0,0,0-6.52-2.87,10.49,10.49,0,0,0-6.67,2.06l-.37.31c-.2-.2-.41-.4-.63-.58a8.51,8.51,0,0,0-5.65-1.79,11.5,11.5,0,0,0-6.92,1.91,10.16,10.16,0,0,0-3.11,3.72l-.44-.52a15.38,15.38,0,0,0-11.85-5.17Z"/><path class="cls-1" d="M665.09,67a9.9,9.9,0,0,1-6.74-2.18,7.73,7.73,0,0,1-2.35-3.4,24.76,24.76,0,0,1-2.2,1.69,14.59,14.59,0,0,1-8.45,2.57,8.71,8.71,0,0,1-6.87-2.79,10,10,0,0,1-2.29-6.41c-.22.7-.41,1.4-.59,2.12a11.65,11.65,0,0,1-2.18,5.07,6.65,6.65,0,0,1-11-2.31,19.12,19.12,0,0,1-1-5.41,17.11,17.11,0,0,1-4.22,5.93,14.05,14.05,0,0,1-9.63,3.8,13.64,13.64,0,0,1-7.84-2.26,14.72,14.72,0,0,1-1.51-1.2c-.41.32-.81.61-1.22.89a14.59,14.59,0,0,1-8.45,2.57,8.71,8.71,0,0,1-6.87-2.79,10,10,0,0,1-2.29-6.42c-.21.7-.41,1.41-.58,2.13a11.25,11.25,0,0,1-2.23,5.13,6.43,6.43,0,0,1-5,2,6.15,6.15,0,0,1-5.63-3.5,12.83,12.83,0,0,1-1.33-6v-.14c-.25.85-.48,1.69-.68,2.52a11.75,11.75,0,0,1-2.19,5.09,6.33,6.33,0,0,1-5,2A6.06,6.06,0,0,1,551.54,63l-.15.08a20.41,20.41,0,0,1-10.14,2.67c-4.58,0-8.32-1.21-11.13-3.6q-.72.57-1.44,1a15.06,15.06,0,0,1-8.55,2.55,11.32,11.32,0,0,1-10.48-6.39c-1.92-3.62-2.9-8.28-2.9-13.83a88.84,88.84,0,0,1,1.95-17.27,60.08,60.08,0,0,1,5.89-16.93C517.61,5.78,521.45,3,526,3a8,8,0,0,1,7.08,4.09c1.42,2.29,2.1,5.31,2.1,9.23,0,5.14-1.41,11.1-4.19,17.72-.38.9-.78,1.81-1.2,2.71a16.8,16.8,0,0,1,3.08-2.69,15.1,15.1,0,0,1,8.67-2.62,10.56,10.56,0,0,1,7.69,2.93,9.7,9.7,0,0,1,2.35,3.72L552,36.9a7.45,7.45,0,0,1,3-4.16,9.21,9.21,0,0,1,5.1-1.3,6,6,0,0,1,3.27.75,4,4,0,0,1,1.76,2.49,16.86,16.86,0,0,1,1.49-1.14,11.09,11.09,0,0,1,6.14-2.1,6.68,6.68,0,0,1,5.19,1.94,6.1,6.1,0,0,1,1.31,2.37l.17-.16c3-2.75,6-4.15,8.87-4.15,4.26,0,6.9,2.64,6.9,6.9a23.29,23.29,0,0,1-.28,3.21c.13-.3.26-.6.4-.89a16.85,16.85,0,0,1,5.85-6.78,15.12,15.12,0,0,1,8.43-2.5,12.29,12.29,0,0,1,9.6,4.16,15.88,15.88,0,0,1,3.31,6,46.92,46.92,0,0,1,1.21-4.6,7.45,7.45,0,0,1,3-4.16,9.19,9.19,0,0,1,5.1-1.3,6.07,6.07,0,0,1,3.27.75A4,4,0,0,1,636.81,35a15.72,15.72,0,0,1,2.38-1.73,11.72,11.72,0,0,1,5.86-1.79c4.26,0,6.9,2.64,6.9,6.9a49,49,0,0,1-1.39,9.09c-.44,2-.7,3.41-.85,4.37l.36-.36a72.78,72.78,0,0,0,4.39-5.95,36.62,36.62,0,0,0,2-3.79c.71-1.55,1.68-3.73,2.88-6.48.71-1.65,2.64-4.44,7.49-4.44a8.66,8.66,0,0,1,3.58.57A4,4,0,0,1,672.83,35a6.79,6.79,0,0,1-.37,2,12.23,12.23,0,0,1-.89,2.1,5.55,5.55,0,0,0-.72,2.24h0a2.09,2.09,0,0,0,.22.47,19.91,19.91,0,0,0,1.69,2.32,41.72,41.72,0,0,1,3.2,4.72,10.77,10.77,0,0,1,1.37,5.33,13.19,13.19,0,0,1-1.51,6.15,12.51,12.51,0,0,1-4.28,4.76A11.57,11.57,0,0,1,665.09,67Zm-15.57-13Zm-56.82,0ZM607,46.58a13,13,0,0,0-.31,3,5.82,5.82,0,0,0,.7,3.25c.12.16.41.53.62.53a1.35,1.35,0,0,0,1.11-.57,4.34,4.34,0,0,0,.76-1.38,11.25,11.25,0,0,1-2.2-3.1A12.42,12.42,0,0,1,607,46.58Zm-86.3,5.62a2.39,2.39,0,0,0,.36.82s.08.08.31.08a3.93,3.93,0,0,0,2.51-.8,12.22,12.22,0,0,0,1.14-1c0-.46,0-.92,0-1.39a21.09,21.09,0,0,1,.67-5.3Q523.41,48.43,520.72,52.2ZM593.21,50c-.14.73-.24,1.32-.32,1.8.12-.11.24-.24.38-.38q-.06-.68-.06-1.32Zm-43.54-.11c-.14.17-.27.34-.42.51l.41-.34A.91.91,0,0,1,549.67,49.89Z"/><path class="cls-2" d="M526,6a5.09,5.09,0,0,1,4.53,2.67q1.65,2.67,1.65,7.65,0,7.14-4,16.56a91.71,91.71,0,0,1-10.74,18.66,7,7,0,0,0,1.38,3.51,3.25,3.25,0,0,0,2.52,1.05,7,7,0,0,0,4.32-1.41,22.19,22.19,0,0,0,2.46-2.27,18.15,18.15,0,0,1-.18-2.5,17.36,17.36,0,0,1,1.74-7.71,14.25,14.25,0,0,1,4.83-5.67,12.15,12.15,0,0,1,7-2.1,7.6,7.6,0,0,1,5.58,2.07,7.52,7.52,0,0,1,2.1,5.61,9.7,9.7,0,0,1-3,7.11q-3,3-10,4.71,1.5,2.76,5.7,2.76a13.12,13.12,0,0,0,6.15-1.89,20,20,0,0,0,4.55-3.4,48.76,48.76,0,0,1,2.2-13.61,4.51,4.51,0,0,1,1.77-2.55,6.24,6.24,0,0,1,3.45-.81,3.38,3.38,0,0,1,1.68.3,1.24,1.24,0,0,1,.48,1.14,22.87,22.87,0,0,1-.9,4.32q-.6,2.4-1,4.17a41.58,41.58,0,0,0-.6,4.41,32.47,32.47,0,0,1,3.87-7.92A18.23,18.23,0,0,1,568.22,36a8.12,8.12,0,0,1,4.47-1.59,3.86,3.86,0,0,1,3,1,4.27,4.27,0,0,1,.87,2.94,38,38,0,0,1-1.14,7q-.48,2.16-.66,3.24,3-7.38,6.66-10.74t6.84-3.36q3.9,0,3.9,3.9a48.22,48.22,0,0,1-1.32,8.46,41.64,41.64,0,0,0-1.14,6.9q0,2.4,1.74,2.4a4.69,4.69,0,0,0,2.85-1.47c.6-.54,1.32-1.26,2.15-2.17a15.13,15.13,0,0,1-.2-2.36A18.32,18.32,0,0,1,598,42a13.67,13.67,0,0,1,4.8-5.58,12.09,12.09,0,0,1,6.78-2,9.34,9.34,0,0,1,7.35,3.15,13.49,13.49,0,0,1,3.27,7.77,31.46,31.46,0,0,0,4.77-.73,47.94,47.94,0,0,1,1.59-6.77,4.51,4.51,0,0,1,1.77-2.55,6.24,6.24,0,0,1,3.45-.81,3.38,3.38,0,0,1,1.68.3,1.24,1.24,0,0,1,.48,1.14,22.87,22.87,0,0,1-.9,4.32q-.6,2.4-1,4.2a43,43,0,0,0-.6,4.44,34.12,34.12,0,0,1,4.44-8.4,17.41,17.41,0,0,1,4.83-4.62,8.78,8.78,0,0,1,4.35-1.38q3.9,0,3.9,3.9a48.22,48.22,0,0,1-1.32,8.46,41.64,41.64,0,0,0-1.14,6.9q0,2.4,1.74,2.4a4.69,4.69,0,0,0,2.85-1.47c.37-.33.79-.74,1.24-1.21A73.24,73.24,0,0,0,657,47.1,38.76,38.76,0,0,0,659.18,43q1.11-2.4,2.91-6.54,1.14-2.64,4.74-2.64a6.29,6.29,0,0,1,2.34.3,1,1,0,0,1,.66,1,4.42,4.42,0,0,1-.24,1.14,8.67,8.67,0,0,1-.66,1.56,8.56,8.56,0,0,0-1.08,3.66,4,4,0,0,0,.63,2,22.47,22.47,0,0,0,1.95,2.7,38.12,38.12,0,0,1,2.91,4.29,7.79,7.79,0,0,1,1,3.87A10.2,10.2,0,0,1,673.16,59a9.53,9.53,0,0,1-3.27,3.63,8.54,8.54,0,0,1-4.8,1.38,7,7,0,0,1-4.77-1.44,4.24,4.24,0,0,1-1.65-3.24,3.69,3.69,0,0,1,1.14-2.7,4.56,4.56,0,0,1,3.36-1.14,13.17,13.17,0,0,1,1.83.15l1.59.21a7.72,7.72,0,0,0-.69-2.94,14.69,14.69,0,0,0-1.59-2.67q-1-1.29-1.8-2.25a39.2,39.2,0,0,1-3.69,5.88l-.64.77a4.2,4.2,0,0,1-.53.79,26.55,26.55,0,0,1-5.55,5.22,11.64,11.64,0,0,1-6.75,2,5.83,5.83,0,0,1-4.62-1.77,7.53,7.53,0,0,1-1.56-5.13,37.46,37.46,0,0,1,.84-6,31.05,31.05,0,0,0,.78-5.22q0-1-.66-1t-2.19,2a32.22,32.22,0,0,0-2.88,5.31,41.3,41.3,0,0,0-2.37,7,9.36,9.36,0,0,1-1.53,3.81,3.45,3.45,0,0,1-2.73,1,3.28,3.28,0,0,1-3.21-2.4,23,23,0,0,1-.93-7.68c0-.53,0-1.06,0-1.58a29.72,29.72,0,0,1-4.65.56,15,15,0,0,1-4.5,8.07,11.07,11.07,0,0,1-7.62,3A10.65,10.65,0,0,1,601.4,61a10.82,10.82,0,0,1-2.92-3,24.53,24.53,0,0,1-3.2,2.66,11.64,11.64,0,0,1-6.75,2,5.83,5.83,0,0,1-4.62-1.77,7.53,7.53,0,0,1-1.56-5.13,37.46,37.46,0,0,1,.84-6,31.05,31.05,0,0,0,.78-5.22q0-1-.66-1t-2.22,2a29.48,29.48,0,0,0-2.88,5.31,43.1,43.1,0,0,0-2.34,7,9.15,9.15,0,0,1-1.53,3.84,3.6,3.6,0,0,1-2.79,1,3.18,3.18,0,0,1-3-1.89,9.79,9.79,0,0,1-1-4.59,51.93,51.93,0,0,1,.6-6.6q.48-3.84.48-5,0-1-.66-1-.9,0-2.28,2.16a31,31,0,0,0-2.67,5.52A53.11,53.11,0,0,0,561,57.9a9.36,9.36,0,0,1-1.53,3.81,3.45,3.45,0,0,1-2.73,1,3.28,3.28,0,0,1-3.21-2.4,10.47,10.47,0,0,1-.5-1.89,26.77,26.77,0,0,1-3.1,2,17.39,17.39,0,0,1-8.67,2.28q-6.3,0-9.78-3.42a11.16,11.16,0,0,1-1.14-1.35A24.12,24.12,0,0,1,527,60.66a12,12,0,0,1-6.87,2,8.33,8.33,0,0,1-7.83-4.8q-2.55-4.8-2.55-12.42a85.31,85.31,0,0,1,1.89-16.68,56.6,56.6,0,0,1,5.58-16.08Q520.91,6,526,6m-8.94,37.44a77.32,77.32,0,0,0,6.78-14.07,38.57,38.57,0,0,0,2.52-12.87q0-4.56-1.68-4.56-1.38,0-3.12,5a81.84,81.84,0,0,0-3.06,12.36,89.47,89.47,0,0,0-1.44,14.16m18.18,5.82a13.63,13.63,0,0,0,5.58-2.52,5,5,0,0,0,2-3.9,2.61,2.61,0,0,0-.63-1.83,2.2,2.2,0,0,0-1.71-.69q-2.22,0-3.75,2.58a12,12,0,0,0-1.53,6.24v.12M608,56.34a4.35,4.35,0,0,0,3.33-1.56,8.66,8.66,0,0,0,1.89-4.5A8.28,8.28,0,0,1,610.4,47a9.77,9.77,0,0,1-1-4.32,10.4,10.4,0,0,1,.18-1.92h-.3a4.71,4.71,0,0,0-4,2.31,11.39,11.39,0,0,0-1.59,6.51,8.37,8.37,0,0,0,1.29,5,3.72,3.72,0,0,0,3,1.74M526,0c-3.94,0-9.58,1.71-14.05,9.83a63.06,63.06,0,0,0-6.2,17.78,91.85,91.85,0,0,0-2,17.87c0,6.05,1.1,11.18,3.25,15.24a14.35,14.35,0,0,0,13.13,8,17.92,17.92,0,0,0,10-2.9,20.54,20.54,0,0,0,11.15,2.9,23.33,23.33,0,0,0,9.63-2,9.08,9.08,0,0,0,5.85,2,9.25,9.25,0,0,0,7.24-3l.36-.44a9,9,0,0,0,7.22,3.47,9.37,9.37,0,0,0,7.24-2.93,9.25,9.25,0,0,0,.66-.83,11.65,11.65,0,0,0,9.08,3.76A17.65,17.65,0,0,0,598.11,66a16.64,16.64,0,0,0,9.44,2.72,17,17,0,0,0,11.64-4.57l.82-.79a9.14,9.14,0,0,0,8.42,5.36,9.25,9.25,0,0,0,7.24-3c.2-.23.4-.48.59-.74a11.63,11.63,0,0,0,9.09,3.77,17.6,17.6,0,0,0,9.78-2.85,12.28,12.28,0,0,0,1.25,1.25A12.81,12.81,0,0,0,665.09,70a14.55,14.55,0,0,0,8.09-2.36,15.46,15.46,0,0,0,5.3-5.88,16.17,16.17,0,0,0,1.85-7.54,13.8,13.8,0,0,0-1.75-6.8,44.67,44.67,0,0,0-3.38-5l-.06-.07-.06-.08c-.47-.58-.8-1-1-1.34.06-.13.13-.29.22-.46a14.59,14.59,0,0,0,1.05-2.55,9.69,9.69,0,0,0,.51-2.9,7,7,0,0,0-4.17-6.42,11.41,11.41,0,0,0-4.83-.84c-4.8,0-8.53,2.28-10.25,6.26-.61,1.4-1.15,2.65-1.64,3.74-.24-5.61-4.16-9.34-9.89-9.34a14.63,14.63,0,0,0-7.28,2.14,7.09,7.09,0,0,0-1.17-.92,9,9,0,0,0-4.87-1.22,12.08,12.08,0,0,0-6.75,1.8,10,10,0,0,0-3.31,3.65l-.3-.34a15.34,15.34,0,0,0-11.84-5.17A18.44,18.44,0,0,0,597,33.32c-1.59-3-4.72-4.88-8.75-4.88A14.47,14.47,0,0,0,580,31.25a9.57,9.57,0,0,0-7.3-2.81,13.49,13.49,0,0,0-6.8,2,6.77,6.77,0,0,0-1-.75A9,9,0,0,0,560,28.44a12.08,12.08,0,0,0-6.75,1.8,9.65,9.65,0,0,0-2.08,1.85,13.66,13.66,0,0,0-9.65-3.65,18.77,18.77,0,0,0-5.59.83,43.4,43.4,0,0,0,2.23-12.95c0-4.5-.83-8-2.54-10.8A11,11,0,0,0,526,0Z"/><path class="cls-1" d="M680.33,74.88a6.31,6.31,0,0,1-3.93-1.22,5.16,5.16,0,0,1-1.95-4.3,8.29,8.29,0,0,1,.27-2c.41-1.71.72-3.33.93-4.79a34.76,34.76,0,0,0,.3-4.8,9.7,9.7,0,0,1,2.15-6.59A7.59,7.59,0,0,1,684,48.54a7.18,7.18,0,0,1,5.45,2.11,7.31,7.31,0,0,1,1.93,5.21,20,20,0,0,1-1.44,6.6,52.64,52.64,0,0,1-3.25,7.2,16.67,16.67,0,0,1-2.35,3.57A5.39,5.39,0,0,1,680.33,74.88Z"/><path class="cls-2" d="M684,51.54a4.3,4.3,0,0,1,3.27,1.17,4.39,4.39,0,0,1,1.11,3.15,17.45,17.45,0,0,1-1.26,5.58,48.93,48.93,0,0,1-3.06,6.78,15.26,15.26,0,0,1-1.89,2.94,2.42,2.42,0,0,1-1.83.72,3.36,3.36,0,0,1-2.1-.6,2.27,2.27,0,0,1-.78-1.92,5.29,5.29,0,0,1,.18-1.26q.66-2.76,1-5.1a37.59,37.59,0,0,0,.33-5.22,6.82,6.82,0,0,1,1.41-4.62A4.59,4.59,0,0,1,684,51.54m0-6a10.68,10.68,0,0,0-8.16,3.68A12.64,12.64,0,0,0,673,57.78a31.84,31.84,0,0,1-.27,4.38c-.19,1.36-.49,2.88-.88,4.52a10.85,10.85,0,0,0-.35,2.68A8.2,8.2,0,0,0,674.57,76a9.29,9.29,0,0,0,5.76,1.84,8.4,8.4,0,0,0,6.16-2.57,19.68,19.68,0,0,0,2.84-4.24,54.38,54.38,0,0,0,3.42-7.59,22.82,22.82,0,0,0,1.62-7.62,10.26,10.26,0,0,0-2.76-7.28,10.08,10.08,0,0,0-7.62-3Z"/><path class="cls-1" d="M20.7,139A9.91,9.91,0,0,1,14,136.84a7.66,7.66,0,0,1-2.39-3.55,5.94,5.94,0,0,1-3.41,1.11,5,5,0,0,1-3.83-1.73A5.5,5.5,0,0,1,3,129a6.48,6.48,0,0,1,1.52-4.13l.77-.94A77,77,0,0,0,10,117.54c.63-1.08,1.38-2.55,2.25-4.38s1.79-3.89,2.65-5.91c.72-1.68,2.65-4.47,7.5-4.47a8.66,8.66,0,0,1,3.58.57A4,4,0,0,1,28.44,107a6.79,6.79,0,0,1-.37,2,12.23,12.23,0,0,1-.89,2.1,5.55,5.55,0,0,0-.72,2.24h0a2.09,2.09,0,0,0,.22.47,19.62,19.62,0,0,0,1.69,2.31,47.59,47.59,0,0,1,2.94,4.27,20.41,20.41,0,0,1,2-7.56,17.29,17.29,0,0,1,5.84-6.83,15.15,15.15,0,0,1,8.68-2.62,10.54,10.54,0,0,1,7.68,2.93,9.45,9.45,0,0,1,1.31,1.6q.48-3.72,1.3-7.76A59.77,59.77,0,0,1,64,83.28C67,77.78,70.86,75,75.42,75a8.05,8.05,0,0,1,7.08,4.09A12.49,12.49,0,0,1,84,82.58c3-5,6.66-7.58,11-7.58a8.05,8.05,0,0,1,7.08,4.09c1.41,2.29,2.1,5.31,2.1,9.23,0,5.14-1.4,11.1-4.16,17.71a91.78,91.78,0,0,1-10.25,18.1,2.14,2.14,0,0,0,.39.77,1.22,1.22,0,0,0,.82.2,2.67,2.67,0,0,0,1-.32,6.8,6.8,0,0,0,1.65-1.08A4.87,4.87,0,0,1,97,122.34a4.3,4.3,0,0,1,3.79,2.35,6.94,6.94,0,0,1,.83,3.41,8,8,0,0,1-2.88,6.33,13.82,13.82,0,0,1-9,3.27,11.94,11.94,0,0,1-9.49-4.15,24.66,24.66,0,0,1-2.13,1.6,15,15,0,0,1-8.54,2.55,11.12,11.12,0,0,1-9.17-4.36c-.84.58-1.74,1.15-2.71,1.69a20.41,20.41,0,0,1-10.14,2.67c-4.6,0-8.35-1.22-11.17-3.63a13.89,13.89,0,0,1-1.87,1.13,18.52,18.52,0,0,1-7,1.73A11.52,11.52,0,0,1,20.7,139ZM70.12,124.2a2.84,2.84,0,0,0,.37.83s.07.07.31.07a3.93,3.93,0,0,0,2.51-.8,20.86,20.86,0,0,0,2.62-2.51,42.47,42.47,0,0,1-.21-4.31q0-1,0-2A103.41,103.41,0,0,1,70.12,124.2Zm-13.79-2.86a12.52,12.52,0,0,1-.78,1c.28-.22.55-.46.81-.71Z"/><path class="cls-2" d="M95,78a5.09,5.09,0,0,1,4.53,2.67q1.65,2.67,1.65,7.65,0,7.14-3.93,16.56a89.2,89.2,0,0,1-10.71,18.6A6.48,6.48,0,0,0,88,127,4,4,0,0,0,91,128.1a5.58,5.58,0,0,0,2.31-.6,9.72,9.72,0,0,0,2.37-1.56,2,2,0,0,1,1.32-.6,1.33,1.33,0,0,1,1.17.81,4,4,0,0,1,.45,1.95,5,5,0,0,1-1.8,4,10.81,10.81,0,0,1-7.08,2.58,8.86,8.86,0,0,1-8.34-4.77c-.2-.35-.38-.72-.55-1.1a24.86,24.86,0,0,1-4.4,3.83,12,12,0,0,1-6.87,2,8.33,8.33,0,0,1-7.83-4.8c-.19-.35-.36-.72-.52-1.09a25,25,0,0,1-5,3.61,17.39,17.39,0,0,1-8.67,2.28q-6.3,0-9.78-3.42A10.19,10.19,0,0,1,36.61,130a14,14,0,0,1-3.46,2.56A16.26,16.26,0,0,1,26.4,134a8.52,8.52,0,0,1-5.7,2,7,7,0,0,1-4.77-1.44,4.24,4.24,0,0,1-1.65-3.24,3.69,3.69,0,0,1,1.14-2.7,4.56,4.56,0,0,1,3.36-1.14,13.17,13.17,0,0,1,1.83.15l1.59.21a7.72,7.72,0,0,0-.69-2.94,14.69,14.69,0,0,0-1.59-2.67Q19,121,18.12,120a39.2,39.2,0,0,1-3.69,5.88,44,44,0,0,1-4,4.44,3.21,3.21,0,0,1-2.28,1.08,2,2,0,0,1-1.56-.69A2.51,2.51,0,0,1,6,129a3.42,3.42,0,0,1,.84-2.22l.78-1a77.54,77.54,0,0,0,5-6.72q1-1.74,2.4-4.65t2.7-6q1.14-2.64,4.74-2.64a6.29,6.29,0,0,1,2.34.3,1,1,0,0,1,.66,1,4.42,4.42,0,0,1-.24,1.14,8.67,8.67,0,0,1-.66,1.56,8.56,8.56,0,0,0-1.08,3.66,4,4,0,0,0,.63,2,22.47,22.47,0,0,0,1.95,2.7A38.12,38.12,0,0,1,29,122.37a7.79,7.79,0,0,1,1,3.87,16.25,16.25,0,0,1-.12,1.68,13.94,13.94,0,0,0,4.62-3.47,18.48,18.48,0,0,1-.18-2.53A17.36,17.36,0,0,1,36,114.21a14.25,14.25,0,0,1,4.83-5.67,12.15,12.15,0,0,1,7-2.1,7.6,7.6,0,0,1,5.58,2.07,7.52,7.52,0,0,1,2.1,5.61,9.7,9.7,0,0,1-3,7.11q-3,3-10.05,4.71,1.5,2.76,5.7,2.76a13.12,13.12,0,0,0,6.15-1.89,20.26,20.26,0,0,0,5.18-4.08,37.4,37.4,0,0,1-.35-5.25,85.31,85.31,0,0,1,1.89-16.68,56.6,56.6,0,0,1,5.58-16.08Q70.32,78,75.42,78A5.09,5.09,0,0,1,80,80.67q1.65,2.67,1.65,7.65,0,7.14-4,16.56A91.71,91.71,0,0,1,66.9,123.54a7,7,0,0,0,1.38,3.51,3.25,3.25,0,0,0,2.52,1,7,7,0,0,0,4.32-1.41,28.9,28.9,0,0,0,4-3.92,36.36,36.36,0,0,1-.36-5.29,85.31,85.31,0,0,1,1.89-16.68,56.6,56.6,0,0,1,5.58-16.08Q89.88,78,95,78M86,115.44a77.32,77.32,0,0,0,6.78-14.07A38.57,38.57,0,0,0,95.34,88.5q0-4.56-1.68-4.56-1.38,0-3.12,5a81.84,81.84,0,0,0-3.06,12.36A89.47,89.47,0,0,0,86,115.44m-19.56,0a77.32,77.32,0,0,0,6.78-14.07A38.57,38.57,0,0,0,75.78,88.5q0-4.56-1.68-4.56-1.38,0-3.12,5a81.84,81.84,0,0,0-3.06,12.36,89.47,89.47,0,0,0-1.44,14.16m-25,5.82a13.63,13.63,0,0,0,5.58-2.52,5,5,0,0,0,2-3.9,2.61,2.61,0,0,0-.63-1.83,2.2,2.2,0,0,0-1.71-.69q-2.22,0-3.75,2.58a12,12,0,0,0-1.53,6.24v.12M95,72a14.09,14.09,0,0,0-10.43,4.76A10.93,10.93,0,0,0,75.42,72c-4,0-9.59,1.71-14.05,9.83a62.64,62.64,0,0,0-6.2,17.78c-.17.83-.33,1.66-.48,2.47a14.38,14.38,0,0,0-6.87-1.64,18.1,18.1,0,0,0-10.36,3.14,20.14,20.14,0,0,0-6.85,8c-.27.55-.51,1.1-.74,1.66l-.21-.29c.06-.13.13-.29.22-.46a14.59,14.59,0,0,0,1.05-2.55,9.38,9.38,0,0,0,.51-2.9,7,7,0,0,0-4.17-6.42,11.41,11.41,0,0,0-4.83-.84c-4.79,0-8.53,2.28-10.25,6.26q-1.29,3-2.61,5.84C8.76,113.6,8.06,115,7.48,116A72.84,72.84,0,0,1,3,122.05l-.77,1A9.37,9.37,0,0,0,0,129a8.5,8.5,0,0,0,2.07,5.65,8,8,0,0,0,6.09,2.75,8.7,8.7,0,0,0,2-.24A11.87,11.87,0,0,0,12,139.1,12.79,12.79,0,0,0,20.7,142a14.71,14.71,0,0,0,7.79-2.16,21.19,21.19,0,0,0,7.32-2l.38-.2a20.47,20.47,0,0,0,11.33,3,23.42,23.42,0,0,0,11.61-3l.77-.45a14.25,14.25,0,0,0,9.64,3.5,18,18,0,0,0,10.22-3.06l.22-.16a15.31,15.31,0,0,0,9.72,3.22,16.67,16.67,0,0,0,10.9-4,11,11,0,0,0,4-8.64,9.87,9.87,0,0,0-1.21-4.86,7.3,7.3,0,0,0-6.41-3.9h-.44a89.27,89.27,0,0,0,6.25-12.16c2.91-7,4.39-13.34,4.39-18.87,0-4.5-.83-8-2.55-10.8A11,11,0,0,0,95,72Z"/><path class="cls-1" d="M227.28,137.7a6.5,6.5,0,0,1-5.13-2,7.32,7.32,0,0,1-1.65-5c0-.75.05-1.67.15-2.77-.29.91-.55,1.83-.78,2.77a11.41,11.41,0,0,1-2.22,5.14,6.48,6.48,0,0,1-5,1.94,6.14,6.14,0,0,1-5.63-3.5,12.83,12.83,0,0,1-1.33-6v-.14q-.39,1.28-.69,2.52a11.63,11.63,0,0,1-2.19,5.09,6.3,6.3,0,0,1-5,2,6.08,6.08,0,0,1-5.2-2.75l-.14.08a20.41,20.41,0,0,1-10.14,2.67c-4.61,0-8.36-1.22-11.19-3.64-.47.38-.93.73-1.4,1.06a14.31,14.31,0,0,1-8.35,2.58,8.74,8.74,0,0,1-6.87-2.78,10.09,10.09,0,0,1-2.3-6.43c-.21.7-.4,1.41-.58,2.13-1.08,4.56-4.12,7.08-8.55,7.08a5.49,5.49,0,0,1-4.45-2,15.5,15.5,0,0,1-7.73,2c-6.95,0-15.24-3.51-15.24-20.22q0-1.17,0-2.37a5.52,5.52,0,0,1-3.79-1.56,5.81,5.81,0,0,1-1.46-4.17c0-4.69,3.07-6.36,5.7-6.36h.89a59.53,59.53,0,0,1,2.85-10.14,30.3,30.3,0,0,1,5.66-9.65c2.56-2.79,5.45-4.21,8.6-4.21a7.43,7.43,0,0,1,6.47,3.59A12.57,12.57,0,0,1,142.54,89a45.91,45.91,0,0,1,2.57-5.64c3-5.56,6.88-8.38,11.49-8.38a8.24,8.24,0,0,1,6.9,3.62,13.21,13.21,0,0,1,2.28,7.9,29.34,29.34,0,0,1-3.91,14c-.52,1-1.11,2-1.76,3a8.22,8.22,0,0,1,1-.06c4.25,0,6.9,2.64,6.9,6.9a24.41,24.41,0,0,1-.34,3.57c.14-.34.3-.68.46-1a17.26,17.26,0,0,1,5.84-6.84,15.15,15.15,0,0,1,8.68-2.62,10.54,10.54,0,0,1,7.68,2.93,9.72,9.72,0,0,1,2.36,3.72c.11-.4.23-.8.36-1.19a7.39,7.39,0,0,1,3-4.16,9.19,9.19,0,0,1,5.1-1.3,6,6,0,0,1,3.26.75,4,4,0,0,1,1.76,2.49,18.47,18.47,0,0,1,1.49-1.14,11.12,11.12,0,0,1,6.15-2.1,6.68,6.68,0,0,1,5.19,1.94,5.94,5.94,0,0,1,1.29,2.34,15.8,15.8,0,0,1,3.24-2.53,11.72,11.72,0,0,1,5.82-1.75,6.44,6.44,0,0,1,6.9,6.9,47.32,47.32,0,0,1-.7,6.33c-.39,2.4-.71,4.68-.94,6.81a63.69,63.69,0,0,0-.34,7,7.54,7.54,0,0,1-1.75,5.33A6.84,6.84,0,0,1,227.28,137.7Zm-98.2-22.56c0,.64,0,1.2,0,1.68,0,4.72.66,6.57,1.06,7.25a2,2,0,0,0,2.06,1,4.11,4.11,0,0,0,2.7-.92,23.3,23.3,0,0,0,2.38-2.21l0-1.11c0-2,.06-4.06.2-6.14a17.41,17.41,0,0,1-4,.42Zm37,6.86c-.14.73-.25,1.32-.33,1.81l.38-.39C166.1,123,166.08,122.47,166.08,122Zm24.67-.11-.42.52.41-.35ZM138.48,103h.39l.15-.88q-.27.43-.57.87Z"/><path class="cls-2" d="M156.6,78a5.27,5.27,0,0,1,4.47,2.37,10.27,10.27,0,0,1,1.71,6.15,26.29,26.29,0,0,1-3.54,12.57q-3.54,6.51-11.52,15.21-.18,3.12-.18,6.42a34.43,34.43,0,0,1,4.41-8.31,17.21,17.21,0,0,1,4.8-4.59,8.78,8.78,0,0,1,4.35-1.38q3.9,0,3.9,3.9a48.22,48.22,0,0,1-1.32,8.46,41.64,41.64,0,0,0-1.14,6.9q0,2.4,1.74,2.4a4.69,4.69,0,0,0,2.85-1.47,29.44,29.44,0,0,0,2.13-2.16,18,18,0,0,1,1.56-10.26,14.25,14.25,0,0,1,4.83-5.67,12.15,12.15,0,0,1,7-2.1,7.6,7.6,0,0,1,5.58,2.07,7.52,7.52,0,0,1,2.1,5.61,9.7,9.7,0,0,1-3,7.11q-3,3-10,4.71,1.5,2.76,5.7,2.76a13.12,13.12,0,0,0,6.15-1.89,20.24,20.24,0,0,0,4.55-3.4,48.39,48.39,0,0,1,2.2-13.61,4.51,4.51,0,0,1,1.77-2.55,6.24,6.24,0,0,1,3.45-.81,3.38,3.38,0,0,1,1.68.3,1.24,1.24,0,0,1,.48,1.14,22.87,22.87,0,0,1-.9,4.32q-.6,2.4-1,4.17a41.58,41.58,0,0,0-.6,4.41,32.47,32.47,0,0,1,3.87-7.92,18.23,18.23,0,0,1,4.62-4.83,8.12,8.12,0,0,1,4.47-1.59,3.86,3.86,0,0,1,3,1,4.27,4.27,0,0,1,.87,2.94,38,38,0,0,1-1.14,7q-.48,2.16-.66,3.24a34.06,34.06,0,0,1,4.41-8.22,17.09,17.09,0,0,1,4.77-4.53,8.76,8.76,0,0,1,4.32-1.35,3.48,3.48,0,0,1,3.9,3.9,47.5,47.5,0,0,1-.66,5.88q-.6,3.66-1,6.93a67.05,67.05,0,0,0-.36,7.29,4.7,4.7,0,0,1-.93,3.27,4,4,0,0,1-3,1,3.66,3.66,0,0,1-2.88-1,4.51,4.51,0,0,1-.9-3.06,60.2,60.2,0,0,1,.84-7.92,56.52,56.52,0,0,0,.72-6.12q0-1-.66-1t-2.22,2a29.48,29.48,0,0,0-2.88,5.31,43.1,43.1,0,0,0-2.34,7,9.15,9.15,0,0,1-1.53,3.84,3.6,3.6,0,0,1-2.79,1,3.18,3.18,0,0,1-3-1.89,9.79,9.79,0,0,1-1-4.59,51.93,51.93,0,0,1,.6-6.6q.48-3.84.48-5,0-1-.66-1-.9,0-2.28,2.16a31,31,0,0,0-2.67,5.52,53.11,53.11,0,0,0-2.07,6.6,9.36,9.36,0,0,1-1.53,3.81,3.45,3.45,0,0,1-2.73,1,3.28,3.28,0,0,1-3.21-2.4,10.42,10.42,0,0,1-.51-1.89,26.61,26.61,0,0,1-3.09,2,17.39,17.39,0,0,1-8.67,2.28q-6.3,0-9.78-3.42a11.29,11.29,0,0,1-1.19-1.4,28.76,28.76,0,0,1-3.34,2.78,11.27,11.27,0,0,1-6.63,2,5.83,5.83,0,0,1-4.62-1.77,7.53,7.53,0,0,1-1.56-5.13,37.46,37.46,0,0,1,.84-6,31.05,31.05,0,0,0,.78-5.22q0-1-.66-1t-2.22,2a29.48,29.48,0,0,0-2.88,5.31,43.1,43.1,0,0,0-2.34,7q-1.14,4.8-5.64,4.8a2.32,2.32,0,0,1-2.37-1.29,8.07,8.07,0,0,1-.5-2.52,23.76,23.76,0,0,1-2.29,1.77,12.36,12.36,0,0,1-7,2q-12.24,0-12.24-17.22,0-2.64.18-5.34h-2.34a3.37,3.37,0,0,1-2.43-.66,3,3,0,0,1-.63-2.1q0-3.36,2.7-3.36h3.42A58.39,58.39,0,0,1,122.7,94a27.21,27.21,0,0,1,5.07-8.7q3-3.24,6.39-3.24a4.49,4.49,0,0,1,4,2.22,10.06,10.06,0,0,1,1.44,5.58q0,9.3-7.8,16.2h6.72a1.9,1.9,0,0,1,1.38.42,2.21,2.21,0,0,1,.42,1.56q0,4.14-6.78,4.14h-7.32q-.12,3-.12,4.68,0,6.24,1.47,8.76a5,5,0,0,0,4.65,2.52,7.16,7.16,0,0,0,4.56-1.56,31.77,31.77,0,0,0,3.51-3.37l0-2.27a103.92,103.92,0,0,1,1.89-19.26,57.88,57.88,0,0,1,5.58-16.83Q151.44,78,156.6,78m-8.22,28.8a42.94,42.94,0,0,0,6.15-9.54A22.28,22.28,0,0,0,157,87.9a8,8,0,0,0-.42-2.94q-.42-1-1.2-1-1.08,0-2.4,3.09a52.36,52.36,0,0,0-2.55,8.34,111.37,111.37,0,0,0-2,11.43m-21.6-1.68a20.49,20.49,0,0,0,5.31-6.87,16.66,16.66,0,0,0,1.77-6.93q0-3.54-1.32-3.54-.9,0-2,2.25a32,32,0,0,0-2.1,6.24,83.64,83.64,0,0,0-1.65,8.85m49.56,16.14a13.63,13.63,0,0,0,5.58-2.52,5,5,0,0,0,2-3.9,2.61,2.61,0,0,0-.63-1.83,2.2,2.2,0,0,0-1.71-.69q-2.22,0-3.75,2.58a12,12,0,0,0-1.53,6.24v.12M156.6,72c-3.81,0-9.16,1.57-13.51,8.87A10.45,10.45,0,0,0,134.16,76c-2.77,0-6.89.9-10.81,5.19a32.89,32.89,0,0,0-6.25,10.6,60.85,60.85,0,0,0-2.51,8.35c-3.68.64-7.13,3.59-7.13,9.22a8.74,8.74,0,0,0,2.29,6.25,7.57,7.57,0,0,0,2.93,1.89c0,20.92,12.76,23.18,18.24,23.18a18.91,18.91,0,0,0,7.25-1.39,9,9,0,0,0,4.93,1.39,11.13,11.13,0,0,0,8.94-4.07l.24.27a11.65,11.65,0,0,0,9.12,3.8,17.25,17.25,0,0,0,9.76-2.91,20.6,20.6,0,0,0,11.18,2.91,23.31,23.31,0,0,0,9.62-2,9.11,9.11,0,0,0,5.86,2,9.21,9.21,0,0,0,7.23-3,4.94,4.94,0,0,0,.36-.44,9,9,0,0,0,7.23,3.47,9.33,9.33,0,0,0,7.23-2.93l.07-.07a9.44,9.44,0,0,0,7.34,3,9.75,9.75,0,0,0,7.4-2.88,10.37,10.37,0,0,0,2.56-7.38,63,63,0,0,1,.32-6.64c.23-2.07.54-4.29.92-6.61v-.06a47.34,47.34,0,0,0,.73-6.79,9.43,9.43,0,0,0-9.9-9.9,14.63,14.63,0,0,0-7.32,2.15c-.33.19-.65.39-1,.61a9.62,9.62,0,0,0-7.25-2.76,13.44,13.44,0,0,0-6.8,2,6.77,6.77,0,0,0-1-.75,9.06,9.06,0,0,0-4.87-1.22,12.14,12.14,0,0,0-6.76,1.8,10.15,10.15,0,0,0-2.08,1.85,13.65,13.65,0,0,0-9.64-3.65,18.14,18.14,0,0,0-10.37,3.14,21.38,21.38,0,0,0-2.36,1.88,8.73,8.73,0,0,0-4.94-4.37,31.84,31.84,0,0,0,3.81-14.57,16.15,16.15,0,0,0-2.85-9.66A11.28,11.28,0,0,0,156.6,72Zm-24.52,46.14h2.24c0,.87,0,1.73,0,2.59-.55.52-1,.88-1.25,1.11a1.18,1.18,0,0,1-.49.24,17.7,17.7,0,0,1-.46-3.93Z"/><path class="cls-1" d="M332,138.06a6.73,6.73,0,0,1-5-1.93,7.21,7.21,0,0,1-.72-.88,10.59,10.59,0,0,1-1.73,1.15,12,12,0,0,1-5.62,1.3,10.66,10.66,0,0,1-7.39-2.82l-.37.25a14.58,14.58,0,0,1-8.44,2.57,8.75,8.75,0,0,1-6.88-2.79,10.07,10.07,0,0,1-2.29-6.41c-.21.7-.41,1.4-.58,2.12a11.65,11.65,0,0,1-2.19,5.07,6.32,6.32,0,0,1-5,2,6.06,6.06,0,0,1-4.74-2.14,11.38,11.38,0,0,1-6.36,2.14,8.51,8.51,0,0,1-5.53-2,9,9,0,0,1-1-.89,11,11,0,0,1-7.49,2.92,10.31,10.31,0,0,1-8.26-3.8,13.7,13.7,0,0,1-2.9-9,22.64,22.64,0,0,1,2.55-10.47,22,22,0,0,1,6.84-8,16.34,16.34,0,0,1,9.57-3.16,5.09,5.09,0,0,1,4,1.52,5.39,5.39,0,0,1,.45.59h.7c4.38,0,5.94,2.75,5.94,5.1a39.56,39.56,0,0,1-1,6.56c-.59,3-.93,5-1.12,6.51.36-.36.75-.77,1.17-1.24a51.13,51.13,0,0,1,2.31-13.45,7.39,7.39,0,0,1,3-4.16,9.16,9.16,0,0,1,5.1-1.3,6,6,0,0,1,3.26.75,4,4,0,0,1,1.82,2.77,15.17,15.17,0,0,1,2.37-1.73,11.75,11.75,0,0,1,5.87-1.79c4.25,0,6.9,2.64,6.9,6.9a49.86,49.86,0,0,1-1.39,9.09c-.44,2-.7,3.42-.86,4.38l.5-.51a22.4,22.4,0,0,1,2.3-8.66,21.33,21.33,0,0,1,6.49-7.76,19.35,19.35,0,0,1,7-3.28,77.87,77.87,0,0,1,4.28-18.27C330.26,78.48,334.08,75,339,75a8.11,8.11,0,0,1,6.71,3.57c1.54,2.11,2.29,5,2.29,8.85a48.88,48.88,0,0,1-3.43,16.45,123.67,123.67,0,0,1-8.28,17.74,78.08,78.08,0,0,0,1.69,8.32,8.26,8.26,0,0,1,.35,2.43C338.33,135,336.69,138.06,332,138.06Zm-9.36-19.65a10.89,10.89,0,0,0-1.63,5.85,5.26,5.26,0,0,0,.14,1.33,1.35,1.35,0,0,0,.29-.18,10.34,10.34,0,0,0,1.61-1.91C322.9,121.84,322.76,120.13,322.68,118.41Zm-57.54-.55a12.43,12.43,0,0,0-1,1.92,13.21,13.21,0,0,0-1,5.2v.22a7.46,7.46,0,0,0,1.14-2.87Z"/><path class="cls-2" d="M339,78a5.15,5.15,0,0,1,4.29,2.34c1.13,1.56,1.71,3.92,1.71,7.08a45.51,45.51,0,0,1-3.25,15.42A121.16,121.16,0,0,1,333.17,121a82.27,82.27,0,0,0,1.92,9.72,5.48,5.48,0,0,1,.24,1.62c0,1.8-1.1,2.7-3.29,2.7a3.76,3.76,0,0,1-2.85-1,9.73,9.73,0,0,1-1.83-3.84l-.07-.24a14.61,14.61,0,0,1-4.1,3.78,9,9,0,0,1-4.23,1,7.64,7.64,0,0,1-6-2.73,9.29,9.29,0,0,1-.93-1.3,24,24,0,0,1-2.48,2,11.64,11.64,0,0,1-6.75,2,5.82,5.82,0,0,1-4.62-1.77,7.48,7.48,0,0,1-1.56-5.13,36.3,36.3,0,0,1,.84-6,32.17,32.17,0,0,0,.78-5.22q0-1-.66-1t-2.19,2a32.22,32.22,0,0,0-2.88,5.31,41.3,41.3,0,0,0-2.37,7,9.5,9.5,0,0,1-1.53,3.81,3.45,3.45,0,0,1-2.73,1,3.27,3.27,0,0,1-3.21-2.4,10.61,10.61,0,0,1-.44-1.51,27,27,0,0,1-2.11,1.81,8.9,8.9,0,0,1-5.34,2.1,5.6,5.6,0,0,1-3.63-1.35,8.23,8.23,0,0,1-2.49-3.69q-3.12,5-7.86,5a7.3,7.3,0,0,1-5.94-2.7,10.79,10.79,0,0,1-2.22-7.08,19.51,19.51,0,0,1,2.22-9.09,19,19,0,0,1,5.91-6.9,13.33,13.33,0,0,1,7.83-2.61,2.34,2.34,0,0,1,1.77.51,4.31,4.31,0,0,1,.75,1.83,14.09,14.09,0,0,1,2.64-.24q2.94,0,2.94,2.1a45,45,0,0,1-.9,6,58.23,58.23,0,0,0-1.38,9.6,2.18,2.18,0,0,0,.45,1.44,1.45,1.45,0,0,0,1.17.54,4.56,4.56,0,0,0,2.76-1.47,38.35,38.35,0,0,0,2.95-3.11,48.51,48.51,0,0,1,2.21-13.72,4.51,4.51,0,0,1,1.77-2.55,6.22,6.22,0,0,1,3.45-.81,3.38,3.38,0,0,1,1.68.3,1.26,1.26,0,0,1,.48,1.14,22.87,22.87,0,0,1-.9,4.32q-.6,2.4-1,4.2a43,43,0,0,0-.6,4.44,33.78,33.78,0,0,1,4.44-8.4,17.41,17.41,0,0,1,4.83-4.62,8.78,8.78,0,0,1,4.35-1.38q3.9,0,3.9,3.9A48.22,48.22,0,0,1,305,118.8a41.64,41.64,0,0,0-1.14,6.9c0,1.6.57,2.4,1.74,2.4a4.71,4.71,0,0,0,2.85-1.47c.58-.52,1.28-1.22,2.07-2.09a19.65,19.65,0,0,1,2-8.56,18.39,18.39,0,0,1,5.58-6.69,16.58,16.58,0,0,1,7.92-3.15,76.59,76.59,0,0,1,4.36-19.74Q333.65,78,339,78m-6,34.08q6.66-14.4,6.66-23.4a12.47,12.47,0,0,0-.4-3.54c-.26-.84-.56-1.26-.93-1.26q-1.74,0-3.26,8.88A161.89,161.89,0,0,0,333,112.08m-70.08,16.56a3.29,3.29,0,0,0,2.52-1.56,10.12,10.12,0,0,0,1.74-4.14l2.22-11a7.27,7.27,0,0,0-4.65,1.89,12.73,12.73,0,0,0-3.39,4.83A16.26,16.26,0,0,0,260.1,125a4.25,4.25,0,0,0,.75,2.76,2.55,2.55,0,0,0,2.07.9m58.13,0a3.67,3.67,0,0,0,2.32-.9,17.36,17.36,0,0,0,2.84-3.48,66.73,66.73,0,0,1-.59-9.06c0-1.24,0-2.2.05-2.88a9.65,9.65,0,0,0-5.46,4.38,13.87,13.87,0,0,0-2.16,7.56q0,4.38,3,4.38M339,72c-4.33,0-10.29,2.13-14.16,12.26a78.35,78.35,0,0,0-4.2,17,22.51,22.51,0,0,0-6,3.18,24.37,24.37,0,0,0-2.77,2.39c-1.26-3.94-4.72-6.41-9.38-6.41a14.63,14.63,0,0,0-7.28,2.14,7.09,7.09,0,0,0-1.17-.92,9.06,9.06,0,0,0-4.87-1.22,12.14,12.14,0,0,0-6.76,1.8,9.8,9.8,0,0,0-2.41,2.27,9,9,0,0,0-5.55-2.07,8.16,8.16,0,0,0-5.86-2.12,19.28,19.28,0,0,0-11.3,3.71,24.94,24.94,0,0,0-7.77,9,25.52,25.52,0,0,0-2.89,11.85,16.64,16.64,0,0,0,3.58,10.89,13.25,13.25,0,0,0,10.58,4.89,13.83,13.83,0,0,0,7.38-2.08,11.57,11.57,0,0,0,6.6,2.08,13.45,13.45,0,0,0,6-1.47,9.88,9.88,0,0,0,12.31-1.56,8.7,8.7,0,0,0,.59-.74,11.67,11.67,0,0,0,9.1,3.77,17.65,17.65,0,0,0,8.64-2.17A13.67,13.67,0,0,0,319,140.7a15,15,0,0,0,6.92-1.6,9.81,9.81,0,0,0,6.16,2c5.47,0,9.29-3.58,9.29-8.7a11.43,11.43,0,0,0-.46-3.24c-.59-2.28-1.08-4.61-1.46-7a127.58,127.58,0,0,0,8-17.26C349.81,98.3,351,92.58,351,87.42c0-4.51-.94-8-2.87-10.62A11.13,11.13,0,0,0,339,72Z"/><path class="cls-1" d="M416.69,164.7a9.74,9.74,0,0,1-7.08-2.75,9.55,9.55,0,0,1-2.82-7.09,17.26,17.26,0,0,1,1.55-7,28.63,28.63,0,0,1,5.34-7.57c.86-.94,1.86-1.93,3-3A8,8,0,0,1,413,135l-.22.15a14.59,14.59,0,0,1-8.45,2.57,7.5,7.5,0,0,1-6.44-3.14,8.89,8.89,0,0,1-6.58,3.14,8.11,8.11,0,0,1-6.88-3.79,13,13,0,0,1-2.11-5.81,17.69,17.69,0,0,1-4.12,5.75,13.64,13.64,0,0,1-9.39,3.85c-5.08,0-9-2.1-11.39-6.08-2.14-3.59-3.19-8.47-3.19-14.92a84.92,84.92,0,0,1,2-17.45,55.71,55.71,0,0,1,5.95-16.36c3-5.24,6.85-7.89,11.38-7.89a8.17,8.17,0,0,1,6.89,3.64,13.36,13.36,0,0,1,2.23,7.88,30.41,30.41,0,0,1-2.05,10.85,37.1,37.1,0,0,1-4,7.43,12.34,12.34,0,0,1,3.84,3.11,15.8,15.8,0,0,1,3.06,5.86q.57-2.42,1.38-4.91a8,8,0,0,1,2.78-4.07,8.61,8.61,0,0,1,5.17-1.35,5.69,5.69,0,0,1,3.74,1.1,4.53,4.53,0,0,1,1.6,3.58,18.23,18.23,0,0,1-.74,3.94c-.4,1.5-.71,2.78-.93,3.91-.05.25-.1.49-.14.72a76.32,76.32,0,0,0,2.46-7.67,6.82,6.82,0,0,1,7.33-5.58,6.5,6.5,0,0,1,3.49.77,4.31,4.31,0,0,1,2,3.79c0,.91-.18,2.67-1.57,8.87-.76,3.48-1.16,5.61-1.38,6.92.39-.38.83-.84,1.31-1.37.11-1.82.29-3.54.54-5.14a55.25,55.25,0,0,1,2.09-8.42,8,8,0,0,1,2.78-4.07,8.61,8.61,0,0,1,5.17-1.35,5.69,5.69,0,0,1,3.74,1.1,4.53,4.53,0,0,1,1.6,3.58,18.23,18.23,0,0,1-.74,3.94c-.4,1.5-.71,2.78-.93,3.91l-.15.74a74.16,74.16,0,0,0,2.47-7.69,6.82,6.82,0,0,1,7.33-5.58,6.25,6.25,0,0,1,3.59.86,4.28,4.28,0,0,1,1.87,3.7c0,.84-.19,2.78-1.6,10.78-.91,5.59-1.45,8.92-1.61,9.95-1.51,10.47-3.64,19-6.33,25.16C426.72,161.06,422.3,164.7,416.69,164.7ZM368,118.52a12.36,12.36,0,0,0-.29,2.8,6.37,6.37,0,0,0,.73,3.47c.2.28.46.55.59.55s.55,0,1.1-.59a4.11,4.11,0,0,0,.77-1.37,11.17,11.17,0,0,1-2.19-3.09A13.34,13.34,0,0,1,368,118.52Z"/><path class="cls-2" d="M373.55,78A5.2,5.2,0,0,1,378,80.37a10.4,10.4,0,0,1,1.68,6.15,27.18,27.18,0,0,1-1.86,9.78,38.38,38.38,0,0,1-6.18,10.2,9,9,0,0,1,6.54,3.33,13.68,13.68,0,0,1,3,7.47,32.38,32.38,0,0,0,4.84-.74,55,55,0,0,1,1.76-6.76,5,5,0,0,1,1.68-2.58,5.91,5.91,0,0,1,3.42-.78,3,3,0,0,1,1.83.42,1.54,1.54,0,0,1,.51,1.26,24.91,24.91,0,0,1-.66,3.24q-.6,2.22-1,4a56.75,56.75,0,0,0-1.2,8.4,3.74,3.74,0,0,0,.3,1.77,1,1,0,0,0,1,.51q.9,0,2.25-1.8a26.45,26.45,0,0,0,2.88-5.46,73,73,0,0,0,3-9,3.9,3.9,0,0,1,4.44-3.36,4,4,0,0,1,1.92.33,1.32,1.32,0,0,1,.54,1.23,58.12,58.12,0,0,1-1.5,8.22,66.51,66.51,0,0,0-1.68,9.48,2.87,2.87,0,0,0,.48,1.77,1.51,1.51,0,0,0,1.26.63,4.69,4.69,0,0,0,2.85-1.47,35,35,0,0,0,2.9-3,49.45,49.45,0,0,1,.55-5.87,51.79,51.79,0,0,1,2-8,5,5,0,0,1,1.68-2.58,5.91,5.91,0,0,1,3.42-.78,3,3,0,0,1,1.83.42,1.54,1.54,0,0,1,.51,1.26,24.91,24.91,0,0,1-.66,3.24q-.6,2.22-1,4-.48,2.46-.84,4.71a24.3,24.3,0,0,0-.36,3.69q0,2.28,1.26,2.28.9,0,2.25-1.8a26.45,26.45,0,0,0,2.88-5.46,73,73,0,0,0,3-9,3.9,3.9,0,0,1,4.44-3.36,3.68,3.68,0,0,1,1.92.36,1.33,1.33,0,0,1,.54,1.2q0,1.44-1.56,10.26-1.38,8.46-1.62,10Q431,143.7,427.07,152.7t-10.38,9a6.8,6.8,0,0,1-5-1.89,6.64,6.64,0,0,1-1.92-4.95,14.27,14.27,0,0,1,1.29-5.76,26.07,26.07,0,0,1,4.8-6.75,79.52,79.52,0,0,1,9.93-8.73l.18-1.38q.42-2.22,1-6.36a15.24,15.24,0,0,1-3.36,6.57A6.32,6.32,0,0,1,419,134.7a5.16,5.16,0,0,1-4.41-2.49,9.65,9.65,0,0,1-.88-1.69,24,24,0,0,1-2.66,2.14,11.64,11.64,0,0,1-6.75,2,4.59,4.59,0,0,1-4.23-2.22,12,12,0,0,1-1.35-6.24,14.05,14.05,0,0,1-3.06,6.27,6,6,0,0,1-4.38,2.19,5.16,5.16,0,0,1-4.41-2.49,10.72,10.72,0,0,1-1.71-6.21c0-1,0-2,.08-3a29.89,29.89,0,0,1-4.58.55,15.61,15.61,0,0,1-4.52,8,10.67,10.67,0,0,1-7.36,3.06q-6.06,0-8.82-4.62t-2.76-13.38a81.81,81.81,0,0,1,1.92-16.83,52.6,52.6,0,0,1,5.61-15.48Q368.45,78,373.55,78m-8.4,32.58q4-7.26,6.33-12.81a25.6,25.6,0,0,0,2.37-9.87A7.54,7.54,0,0,0,373.4,85q-.45-1-1.23-1-1.2,0-2.61,3.57A57.42,57.42,0,0,0,367,97.2a122,122,0,0,0-1.8,13.38m3.9,17.76a4.38,4.38,0,0,0,3.3-1.56,8.51,8.51,0,0,0,1.92-4.5,8.28,8.28,0,0,1-2.85-3.3,9.77,9.77,0,0,1-1-4.32,14.69,14.69,0,0,1,.24-2.28h-.18a4.85,4.85,0,0,0-4.11,2.43,11.41,11.41,0,0,0-1.65,6.51,8.9,8.9,0,0,0,1.29,5.22,3.7,3.7,0,0,0,3,1.8m48.3,27.54q1.5,0,3.36-3.48t3.72-11.58a34.15,34.15,0,0,0-6.69,7.11,10.81,10.81,0,0,0-2.07,5.61,3.26,3.26,0,0,0,.39,1.68,1.38,1.38,0,0,0,1.29.66M373.55,72c-3.9,0-9.5,1.63-14,9.39a58.82,58.82,0,0,0-6.29,17.24,88.2,88.2,0,0,0-2,18.07c0,7,1.18,12.39,3.61,16.46,2.06,3.44,6.15,7.54,14,7.54a16.49,16.49,0,0,0,11.41-4.64c.43-.4.84-.81,1.24-1.24.16.27.32.53.5.79a11.12,11.12,0,0,0,15.78,3,10.94,10.94,0,0,0,6.59,2,18.33,18.33,0,0,0,5.82-.92,28.42,28.42,0,0,0-4.56,6.91,20.28,20.28,0,0,0-1.8,8.17,12.62,12.62,0,0,0,3.72,9.23,12.8,12.8,0,0,0,9.18,3.61c4.76,0,11.37-2.19,15.89-12.61,2.84-6.55,5-15,6.55-25.93.16-1,.7-4.37,1.6-9.89,1.52-8.59,1.64-10.32,1.64-11.27a7.29,7.29,0,0,0-3.21-6.19,9.24,9.24,0,0,0-5.25-1.37,10.49,10.49,0,0,0-6.67,2.06l-.37.31c-.2-.2-.41-.4-.63-.58a8.51,8.51,0,0,0-5.65-1.79,11.5,11.5,0,0,0-6.92,1.91,8.35,8.35,0,0,0-.81.66,6.89,6.89,0,0,0-1.62-1.36,9.59,9.59,0,0,0-5.05-1.21,10.49,10.49,0,0,0-6.67,2.06l-.37.31c-.2-.2-.41-.4-.63-.58a8.51,8.51,0,0,0-5.65-1.79,11.5,11.5,0,0,0-6.92,1.91,10.12,10.12,0,0,0-3.11,3.71l0-.07a15.88,15.88,0,0,0-2.05-2,37.47,37.47,0,0,0,2.68-5.5,33.18,33.18,0,0,0,2.25-11.92,16.28,16.28,0,0,0-2.78-9.62,11.21,11.21,0,0,0-9.34-4.9Z"/><path class="cls-1" d="M605.93,139a9.91,9.91,0,0,1-6.74-2.18,7.64,7.64,0,0,1-2.35-3.43,25.75,25.75,0,0,1-2.33,1.75,15.41,15.41,0,0,1-8.68,2.54c-4.94,0-8.82-1.82-11.41-5.3a27.32,27.32,0,0,1-3.36,2.73,14.59,14.59,0,0,1-8.45,2.57,7.5,7.5,0,0,1-6.45-3.14,8.86,8.86,0,0,1-6.57,3.14,7.92,7.92,0,0,1-6-2.72l-.21.15a14.59,14.59,0,0,1-8.45,2.57,8.71,8.71,0,0,1-6.87-2.79,10,10,0,0,1-2.29-6.41c-.21.7-.41,1.4-.58,2.12a11.76,11.76,0,0,1-2.19,5.07,6.65,6.65,0,0,1-11-2.31,19.12,19.12,0,0,1-1-5.41,17,17,0,0,1-4.22,5.93,14.05,14.05,0,0,1-9.63,3.8,13.64,13.64,0,0,1-7.84-2.26,14.72,14.72,0,0,1-1.51-1.2c-.34.26-.67.52-1,.76a12.87,12.87,0,0,1-7.58,2.7,9.5,9.5,0,0,1-7.37-3.39,13.46,13.46,0,0,1-2.51,1.91,11.69,11.69,0,0,1-5.9,1.48,10.67,10.67,0,0,1-8.29-3.76,13.43,13.43,0,0,1-3.11-9.08,22.69,22.69,0,0,1,2.36-10.24,21.2,21.2,0,0,1,6.52-7.81,19.29,19.29,0,0,1,7-3.24,75.68,75.68,0,0,1,4.3-18.41c2.62-6.74,6.4-10.16,11.22-10.16a8.11,8.11,0,0,1,6.72,3.57c1.54,2.11,2.28,5,2.28,8.85a49.83,49.83,0,0,1-3.48,16.75c-.63,1.71-1.31,3.43-2.06,5.17a16.3,16.3,0,0,1,3.77-3.46,15.12,15.12,0,0,1,8.43-2.5,12.27,12.27,0,0,1,9.6,4.16,15.88,15.88,0,0,1,3.31,6c.34-1.58.74-3.12,1.21-4.6a7.45,7.45,0,0,1,3-4.16,9.08,9.08,0,0,1,5.1-1.3,6,6,0,0,1,3.27.75,4,4,0,0,1,1.81,2.77,15.72,15.72,0,0,1,2.38-1.73,11.72,11.72,0,0,1,5.86-1.79c4.26,0,6.9,2.64,6.9,6.9a49,49,0,0,1-1.39,9.09c-.44,2-.7,3.42-.85,4.38.39-.39.83-.85,1.32-1.39a48.88,48.88,0,0,1,.54-5.14,55.25,55.25,0,0,1,2.09-8.42,8,8,0,0,1,2.77-4.07,8.66,8.66,0,0,1,5.18-1.35,5.71,5.71,0,0,1,3.74,1.1,4.56,4.56,0,0,1,1.6,3.58,18.23,18.23,0,0,1-.74,3.94c-.4,1.5-.71,2.78-.94,3.91,0,.25-.09.49-.13.72a76.32,76.32,0,0,0,2.46-7.67,6.8,6.8,0,0,1,7.33-5.58,7,7,0,0,1,3.23.62,5.77,5.77,0,0,1,3.37-1H572a59.53,59.53,0,0,1,2.85-10.14,30.3,30.3,0,0,1,5.66-9.65c2.56-2.79,5.46-4.21,8.6-4.21a7.45,7.45,0,0,1,6.48,3.59,13.07,13.07,0,0,1,1.92,7.21,22.8,22.8,0,0,1-4.11,13.2h0a4.79,4.79,0,0,1,3.5,1.29,5,5,0,0,1,1.3,3.69c0,2.15-1,7.14-9.78,7.14H584c0,.64,0,1.2,0,1.68,0,4.72.67,6.57,1.06,7.25a2,2,0,0,0,2.06,1,4.11,4.11,0,0,0,2.7-.92,19.63,19.63,0,0,0,1.87-1.69c1.58-2,2.81-3.69,3.64-5a37.69,37.69,0,0,0,2-3.79c.72-1.57,1.67-3.69,2.88-6.48.71-1.65,2.64-4.44,7.49-4.44a8.66,8.66,0,0,1,3.58.57,4,4,0,0,1,2.42,3.69,6.79,6.79,0,0,1-.37,2,12.23,12.23,0,0,1-.89,2.1,5.55,5.55,0,0,0-.72,2.24h0a2.09,2.09,0,0,0,.22.47,19.91,19.91,0,0,0,1.69,2.32,42.66,42.66,0,0,1,3.2,4.71,10.83,10.83,0,0,1,1.37,5.34,13.19,13.19,0,0,1-1.51,6.15,12.43,12.43,0,0,1-4.28,4.76A11.55,11.55,0,0,1,605.93,139Zm-66.87-13Zm-72-7.49a10.49,10.49,0,0,0-1.59,5.7,5.42,5.42,0,0,0,.13,1.31,2.09,2.09,0,0,0,.25-.18,11.09,11.09,0,0,0,1.62-1.87A44,44,0,0,1,467.06,118.56Zm29.5,0a13,13,0,0,0-.31,3,5.82,5.82,0,0,0,.7,3.25c.12.16.42.53.62.53a1.35,1.35,0,0,0,1.11-.57,4.16,4.16,0,0,0,.76-1.38,11.47,11.47,0,0,1-2.2-3.1A13.83,13.83,0,0,1,496.56,118.58Zm-16.2,3.73a10.47,10.47,0,0,0,.53,2.66,3.82,3.82,0,0,0,.87-.59c.3-.26.65-.59,1.05-1,0-.45-.06-.88-.06-1.3a23.31,23.31,0,0,1,.57-5.24C482.39,118.67,481.41,120.48,480.36,122.31Zm88.46-7.54c-.14.64-.29,1.34-.46,2.1-.76,3.48-1.17,5.61-1.38,6.92.91-.9,2.08-2.19,3.47-3.86l.2-.21c0-.74-.06-1.48-.06-2.24s0-1.57,0-2.37A7.46,7.46,0,0,1,568.82,114.77Z"/><path class="cls-2" d="M483.41,78a5.14,5.14,0,0,1,4.29,2.34q1.71,2.34,1.71,7.08,0,6.72-3.3,15.72a116.77,116.77,0,0,1-8.82,18.48,13.1,13.1,0,0,0,1,5,2.38,2.38,0,0,0,2.07,1.5,5.13,5.13,0,0,0,3.3-1.44,29.94,29.94,0,0,0,2.24-2.21,15.1,15.1,0,0,1-.2-2.35,18.32,18.32,0,0,1,1.74-8.13,13.67,13.67,0,0,1,4.8-5.58,12.09,12.09,0,0,1,6.78-2,9.34,9.34,0,0,1,7.35,3.15,13.49,13.49,0,0,1,3.27,7.77,31.27,31.27,0,0,0,4.77-.73,47.94,47.94,0,0,1,1.59-6.77,4.51,4.51,0,0,1,1.77-2.55,6.24,6.24,0,0,1,3.45-.81,3.38,3.38,0,0,1,1.68.3,1.24,1.24,0,0,1,.48,1.14,22.87,22.87,0,0,1-.9,4.32q-.6,2.4-1,4.2a43,43,0,0,0-.6,4.44,34.12,34.12,0,0,1,4.44-8.4,17.41,17.41,0,0,1,4.83-4.62,8.78,8.78,0,0,1,4.35-1.38q3.9,0,3.9,3.9a48.22,48.22,0,0,1-1.32,8.46,41.64,41.64,0,0,0-1.14,6.9q0,2.4,1.74,2.4a4.69,4.69,0,0,0,2.85-1.47,35,35,0,0,0,2.9-3,49.45,49.45,0,0,1,.55-5.87,51.79,51.79,0,0,1,2-8,5,5,0,0,1,1.68-2.58,5.91,5.91,0,0,1,3.42-.78,3,3,0,0,1,1.83.42,1.54,1.54,0,0,1,.51,1.26,24.91,24.91,0,0,1-.66,3.24q-.6,2.22-1,4a56.75,56.75,0,0,0-1.2,8.4,3.74,3.74,0,0,0,.3,1.77,1,1,0,0,0,1,.51q.9,0,2.25-1.8a26.45,26.45,0,0,0,2.88-5.46,73,73,0,0,0,3-9,3.9,3.9,0,0,1,4.44-3.36,4,4,0,0,1,1.92.33,1.32,1.32,0,0,1,.54,1.23,58.12,58.12,0,0,1-1.5,8.22,66.51,66.51,0,0,0-1.68,9.48,2.87,2.87,0,0,0,.48,1.77,1.51,1.51,0,0,0,1.26.63,4.69,4.69,0,0,0,2.85-1.47,48.15,48.15,0,0,0,4.41-4.77,2.44,2.44,0,0,1,1-.72c-.1-1.15-.16-2.36-.16-3.66q0-2.64.18-5.34h-2.34a3.37,3.37,0,0,1-2.43-.66,3,3,0,0,1-.63-2.1q0-3.36,2.7-3.36h3.42A58.39,58.39,0,0,1,577.61,94a27.21,27.21,0,0,1,5.07-8.7q3-3.24,6.39-3.24a4.49,4.49,0,0,1,4,2.22,10.06,10.06,0,0,1,1.44,5.58q0,9.3-7.8,16.2h6.72a1.9,1.9,0,0,1,1.38.42,2.21,2.21,0,0,1,.42,1.56q0,4.14-6.78,4.14h-7.32q-.12,3-.12,4.68,0,6.24,1.47,8.76a5,5,0,0,0,4.65,2.52,7.16,7.16,0,0,0,4.56-1.56,25.75,25.75,0,0,0,2.26-2.05c1.67-2.12,3-3.93,3.92-5.39A38.76,38.76,0,0,0,600,115q1.11-2.4,2.91-6.54,1.14-2.64,4.74-2.64a6.29,6.29,0,0,1,2.34.3,1,1,0,0,1,.66,1,4.42,4.42,0,0,1-.24,1.14,8.67,8.67,0,0,1-.66,1.56,8.56,8.56,0,0,0-1.08,3.66,4,4,0,0,0,.63,2,22.47,22.47,0,0,0,1.95,2.7,38.12,38.12,0,0,1,2.91,4.29,7.79,7.79,0,0,1,1,3.87A10.2,10.2,0,0,1,614,131a9.53,9.53,0,0,1-3.27,3.63,8.54,8.54,0,0,1-4.8,1.38,7,7,0,0,1-4.77-1.44,4.24,4.24,0,0,1-1.65-3.24,3.69,3.69,0,0,1,1.14-2.7A4.56,4.56,0,0,1,604,127.5a13.17,13.17,0,0,1,1.83.15l1.59.21a7.72,7.72,0,0,0-.69-2.94,14.69,14.69,0,0,0-1.59-2.67q-1-1.29-1.8-2.25a39.2,39.2,0,0,1-3.69,5.88l-.64.77a4.36,4.36,0,0,1-.53.79,25.52,25.52,0,0,1-5.64,5.22,12.36,12.36,0,0,1-7,2q-8,0-10.79-7.45a2.14,2.14,0,0,1-.13.19,26.55,26.55,0,0,1-5.55,5.22,11.64,11.64,0,0,1-6.75,2,4.59,4.59,0,0,1-4.23-2.22,12,12,0,0,1-1.35-6.24,14.05,14.05,0,0,1-3.06,6.27,6,6,0,0,1-4.38,2.19,5.16,5.16,0,0,1-4.41-2.49,9.65,9.65,0,0,1-.88-1.69,24,24,0,0,1-2.66,2.14,11.64,11.64,0,0,1-6.75,2,5.83,5.83,0,0,1-4.62-1.77,7.53,7.53,0,0,1-1.56-5.13,37.46,37.46,0,0,1,.84-6,31.05,31.05,0,0,0,.78-5.22q0-1-.66-1t-2.19,2a32.22,32.22,0,0,0-2.88,5.31,41.3,41.3,0,0,0-2.37,7,9.36,9.36,0,0,1-1.53,3.81,3.45,3.45,0,0,1-2.73,1,3.28,3.28,0,0,1-3.21-2.4,23,23,0,0,1-.93-7.68c0-.53,0-1.06,0-1.58a29.58,29.58,0,0,1-4.65.56,15,15,0,0,1-4.5,8.07,11.07,11.07,0,0,1-7.62,3,10.65,10.65,0,0,1-6.15-1.74,11,11,0,0,1-2.92-3,27.31,27.31,0,0,1-3,2.57,9.91,9.91,0,0,1-5.82,2.13q-4.56,0-7-5.34a17.24,17.24,0,0,1-4.41,4.26,8.73,8.73,0,0,1-4.41,1.08,7.63,7.63,0,0,1-6-2.73,10.46,10.46,0,0,1-2.37-7.11,19.76,19.76,0,0,1,2-8.91,18.2,18.2,0,0,1,5.61-6.72,16.31,16.31,0,0,1,8-3.09A75.44,75.44,0,0,1,475,86.25Q478.19,78,483.41,78m-6.06,34.2q6.72-14.64,6.72-23.52a12.53,12.53,0,0,0-.39-3.54q-.39-1.26-.93-1.26-1.14,0-2.28,4.05a73.94,73.94,0,0,0-2,10.59q-.81,6.54-1.17,13.68m104.34-7.08A20.49,20.49,0,0,0,587,98.25a16.66,16.66,0,0,0,1.77-6.93q0-3.54-1.32-3.54-.9,0-2,2.25a32,32,0,0,0-2.1,6.24,83.64,83.64,0,0,0-1.65,8.85M465.47,128.64a3.61,3.61,0,0,0,2.28-.93,17.58,17.58,0,0,0,2.88-3.45A40.05,40.05,0,0,1,470,117q0-1.44.12-4.68a10.05,10.05,0,0,0-5.49,4.41,13.59,13.59,0,0,0-2.19,7.53q0,4.38,3,4.38m32.1-.3a4.35,4.35,0,0,0,3.33-1.56,8.66,8.66,0,0,0,1.89-4.5,8.28,8.28,0,0,1-2.85-3.3,9.77,9.77,0,0,1-1-4.32,10.4,10.4,0,0,1,.18-1.92h-.3a4.71,4.71,0,0,0-4,2.31,11.39,11.39,0,0,0-1.59,6.51,8.37,8.37,0,0,0,1.29,5,3.72,3.72,0,0,0,3,1.74M483.41,72c-4.25,0-10.14,2.09-14,12.08a76.08,76.08,0,0,0-4.22,17.14,22.39,22.39,0,0,0-6.09,3.17,24.2,24.2,0,0,0-7.44,8.89A25.78,25.78,0,0,0,449,124.86a16.29,16.29,0,0,0,3.84,11,13.62,13.62,0,0,0,10.56,4.8,14.68,14.68,0,0,0,7.39-1.87q.45-.26.9-.57a12.55,12.55,0,0,0,7.49,2.44,15.4,15.4,0,0,0,8.52-2.71,16.57,16.57,0,0,0,9.42,2.71,17,17,0,0,0,11.64-4.57l.82-.78A9.15,9.15,0,0,0,518,140.7a9.25,9.25,0,0,0,7.24-3,8.7,8.7,0,0,0,.59-.74,11.66,11.66,0,0,0,9.09,3.77,17.67,17.67,0,0,0,8.35-2,10.76,10.76,0,0,0,6.35,2,11.2,11.2,0,0,0,6.42-2,11,11,0,0,0,6.6,2,17.6,17.6,0,0,0,10.15-3.09c.48-.33,1-.68,1.42-1a17,17,0,0,0,11.65,4.13,18.34,18.34,0,0,0,10.11-2.89,11.1,11.1,0,0,0,1.28,1.29,12.81,12.81,0,0,0,8.71,2.92,14.52,14.52,0,0,0,8.09-2.36,15.46,15.46,0,0,0,5.3-5.88,16.17,16.17,0,0,0,1.85-7.54,13.8,13.8,0,0,0-1.75-6.8,43.34,43.34,0,0,0-3.38-5l-.06-.07-.06-.08c-.47-.58-.8-1-1-1.34.06-.13.13-.29.22-.47a15,15,0,0,0,1.06-2.54,9.64,9.64,0,0,0,.5-2.9,7,7,0,0,0-4.17-6.42,11.41,11.41,0,0,0-4.83-.84,11.18,11.18,0,0,0-8.09,3.06,8.27,8.27,0,0,0-.56-.64,7.72,7.72,0,0,0-1.15-.93,25.71,25.71,0,0,0,2.6-11.45A15.91,15.91,0,0,0,598.06,81a10.43,10.43,0,0,0-9-5c-2.76,0-6.88.9-10.81,5.19A33.07,33.07,0,0,0,572,91.81a60.85,60.85,0,0,0-2.51,8.35,8.8,8.8,0,0,0-2,.62,11.77,11.77,0,0,0-3-.34,10.52,10.52,0,0,0-6.68,2.06l-.37.31a6.85,6.85,0,0,0-.62-.58,8.51,8.51,0,0,0-5.65-1.79,11.55,11.55,0,0,0-6.93,1.91,9.93,9.93,0,0,0-1.74,1.63,9.66,9.66,0,0,0-7.89-3.54,14.63,14.63,0,0,0-7.28,2.14,7.09,7.09,0,0,0-1.17-.92,9,9,0,0,0-4.87-1.22,12.08,12.08,0,0,0-6.75,1.8,10.14,10.14,0,0,0-3.31,3.65l-.29-.34a15.38,15.38,0,0,0-11.85-5.17,18.12,18.12,0,0,0-6,1,47.09,47.09,0,0,0,2.37-14c0-4.51-.93-8-2.86-10.62a11.14,11.14,0,0,0-9.14-4.8ZM587,118.14h1.42a22,22,0,0,0,2.93-.18c-.56.76-1.2,1.61-1.93,2.54a16.8,16.8,0,0,1-1.47,1.32,1.09,1.09,0,0,1-.49.25,17.7,17.7,0,0,1-.46-3.93Z"/></g></g></svg>