<svg xmlns="http://www.w3.org/2000/svg" viewBox="0 0 690.37 163.7"><defs><style>.cls-1{fill:#d4145a;}.cls-2{fill:#fafafa;}</style></defs><title>bannerHeaderAsset 1</title><g id="Layer_2" data-name="Layer 2"><g id="Layer_1-2" data-name="Layer 1"><path class="cls-1" d="M153.1,62.7a5.54,5.54,0,0,1-4.38-1.7,6.42,6.42,0,0,1-1.4-4.38,61,61,0,0,1,.86-8.22c.09-.58.16-1.1.23-1.57-.47.86-.95,1.84-1.43,2.92a39.18,39.18,0,0,0-2.26,6.63,10.73,10.73,0,0,1-2,4.65,5.35,5.35,0,0,1-4.23,1.67,5.14,5.14,0,0,1-4.83-3.12l-1,.58A19.39,19.39,0,0,1,123,62.7c-4.71,0-8.46-1.33-11.15-4q-1,.85-2,1.56a13.32,13.32,0,0,1-7.78,2.4A7.74,7.74,0,0,1,96,60.25a9.44,9.44,0,0,1-2.06-6.45,38.58,38.58,0,0,1,.88-6.38,2,2,0,0,1,0-.26c-.41.77-.82,1.63-1.24,2.58a41.42,41.42,0,0,0-2.23,6.64c-1,4.07-3.66,6.32-7.58,6.32a4.24,4.24,0,0,1-4.2-2.48,14.33,14.33,0,0,1-.74-5.46c0-1.33,0-2.37.06-3.17L79,46.88c0-1.38,0-2.82.1-4.3-1.38-.08-2.69-.21-3.92-.4a53.09,53.09,0,0,1-9.84,14c-4.31,4.31-8.71,6.5-13.08,6.5-3,0-7.1-1.17-9.73-6.76a31.19,31.19,0,0,1-2.34-7.68,37.14,37.14,0,0,1-5.48,8.67c-3.41,3.83-7.15,5.77-11.13,5.77-3.24,0-7.7-1.46-10.55-8.41-2-5-3.09-11.75-3.09-20A135.86,135.86,0,0,1,11.5,14.57a9.42,9.42,0,0,1,2.06-5.26,6.55,6.55,0,0,1,5-1.79,6.38,6.38,0,0,1,4,1.21,5.35,5.35,0,0,1,1.75,4.45c0,.35,0,.91-.13,1.82a147.83,147.83,0,0,0-1.79,20.74c0,5.13.43,9.11,1.29,11.82.74,2.36,1.51,3,1.81,3,0,0,1.1-.1,3.41-3.53a55.8,55.8,0,0,0,5.68-12.6A136.4,136.4,0,0,0,39.47,14,7.88,7.88,0,0,1,42,9a7.32,7.32,0,0,1,4.77-1.5,5.77,5.77,0,0,1,4.09,1.35,5.08,5.08,0,0,1,1.51,3.89,8.56,8.56,0,0,1-.17,1.93,114.63,114.63,0,0,0-1.63,19.13A96.83,96.83,0,0,0,51,44.21a12.79,12.79,0,0,0,1.45,5.2,2.17,2.17,0,0,0,2.05,1.13c.72,0,2.31-.47,4.87-3.61A46,46,0,0,0,64.83,38a16.6,16.6,0,0,1-4.77-5.68A20.13,20.13,0,0,1,58,23.08a21.41,21.41,0,0,1,1.65-8.83A12.82,12.82,0,0,1,64.4,8.49a12.37,12.37,0,0,1,6.74-1.93,9.39,9.39,0,0,1,7.64,3.5,13.58,13.58,0,0,1,2.7,8.82,44.94,44.94,0,0,1-2.28,13.4l.86.07c.25-1.7.53-3.41.84-5.08A60.26,60.26,0,0,1,86.69,9.86C89.52,4.64,93.09,2,97.3,2a7.3,7.3,0,0,1,6.09,3.2,12.21,12.21,0,0,1,2.09,7.32,28.4,28.4,0,0,1-3.78,13.53,53.22,53.22,0,0,1-3.16,5,9.38,9.38,0,0,1,3.26-.64c3.69,0,5.9,2.21,5.9,5.9a49.14,49.14,0,0,1-1.37,8.88,37.87,37.87,0,0,0-1.09,6.48c0,.12,0,.23,0,.31a4.74,4.74,0,0,0,1.25-.87c.39-.35.85-.8,1.37-1.35-.06-.62-.09-1.24-.09-1.87a19.42,19.42,0,0,1,1.94-8.59,16.25,16.25,0,0,1,5.51-6.44,14.08,14.08,0,0,1,8.11-2.45A9.17,9.17,0,0,1,133,40.12a11.65,11.65,0,0,1-3.56,8.52,18.14,18.14,0,0,1-6.83,4,8.72,8.72,0,0,0,1.07.06,11.28,11.28,0,0,0,5.19-1.64,18.72,18.72,0,0,0,3.54-2.53,50.21,50.21,0,0,1,2.26-13.33,6.5,6.5,0,0,1,2.58-3.62,8,8,0,0,1,4.55-1.14,5.09,5.09,0,0,1,2.74.6A3.18,3.18,0,0,1,146,33.88a8.19,8.19,0,0,1-.2,1.62,16.68,16.68,0,0,1,4-3.41,10.86,10.86,0,0,1,5.36-1.65,5.46,5.46,0,0,1,5.9,5.9,48.15,48.15,0,0,1-.68,6.18c-.4,2.42-.72,4.72-1,6.85a65.65,65.65,0,0,0-.35,7.07,6.5,6.5,0,0,1-1.47,4.64A5.91,5.91,0,0,1,153.1,62.7ZM122.32,40.32c-.3,0-1.08,0-2,1.6a8.45,8.45,0,0,0-1,2.49,8.93,8.93,0,0,0,2-1.21,2.94,2.94,0,0,0,1.31-2.36.78.78,0,0,0-.11-.48A.4.4,0,0,0,122.32,40.32ZM69.66,17.4c-.14,0-.44.09-.84.84A9.39,9.39,0,0,0,68,22.66,10.34,10.34,0,0,0,69,27.35a27,27,0,0,0,1.17-7.09,6,6,0,0,0-.4-2.71Zm25.82-3.58a50.7,50.7,0,0,0-2.44,8c-.19.78-.36,1.58-.53,2.39.32-.59.62-1.2.91-1.81a20.41,20.41,0,0,0,2.24-8.51c0-.17,0-.33,0-.48Z"/><path class="cls-2" d="M97.3,4a5.27,5.27,0,0,1,4.47,2.37,10.27,10.27,0,0,1,1.71,6.15,26.29,26.29,0,0,1-3.54,12.57Q96.4,31.6,88.42,40.3q-.18,3.12-.18,6.42a34.43,34.43,0,0,1,4.41-8.31,17.21,17.21,0,0,1,4.8-4.59,8.78,8.78,0,0,1,4.35-1.38q3.9,0,3.9,3.9a48.22,48.22,0,0,1-1.32,8.46,41.64,41.64,0,0,0-1.14,6.9q0,2.4,1.74,2.4a4.69,4.69,0,0,0,2.85-1.47A29.3,29.3,0,0,0,110,50.47a17.77,17.77,0,0,1,1.55-10.26,14.25,14.25,0,0,1,4.83-5.67,12.15,12.15,0,0,1,7-2.1,7.6,7.6,0,0,1,5.58,2.07,7.52,7.52,0,0,1,2.1,5.61,9.7,9.7,0,0,1-3,7.11q-3,3-10.05,4.71,1.5,2.76,5.7,2.76a13.12,13.12,0,0,0,6.15-1.89,20.24,20.24,0,0,0,4.55-3.4,48.39,48.39,0,0,1,2.2-13.61,4.51,4.51,0,0,1,1.77-2.55,6.24,6.24,0,0,1,3.45-.81,3.38,3.38,0,0,1,1.68.3,1.24,1.24,0,0,1,.48,1.14,22.87,22.87,0,0,1-.9,4.32q-.6,2.4-1,4.2a43,43,0,0,0-.6,4.44,34.12,34.12,0,0,1,4.44-8.4,17.41,17.41,0,0,1,4.83-4.62,8.78,8.78,0,0,1,4.35-1.38,3.48,3.48,0,0,1,3.9,3.9,47.5,47.5,0,0,1-.66,5.88q-.6,3.66-1,6.93a67.05,67.05,0,0,0-.36,7.29,4.7,4.7,0,0,1-.93,3.27,4,4,0,0,1-3,1,3.66,3.66,0,0,1-2.88-1,4.51,4.51,0,0,1-.9-3.06,60.2,60.2,0,0,1,.84-7.92,56.52,56.52,0,0,0,.72-6.12q0-1-.66-1t-2.19,2a32.22,32.22,0,0,0-2.88,5.31,41.3,41.3,0,0,0-2.37,7,9.36,9.36,0,0,1-1.53,3.81,3.45,3.45,0,0,1-2.73,1,3.28,3.28,0,0,1-3.21-2.4,11.3,11.3,0,0,1-.51-1.89,26.61,26.61,0,0,1-3.09,2A17.39,17.39,0,0,1,123,60.7q-6.3,0-9.78-3.42a11.29,11.29,0,0,1-1.19-1.4,28.76,28.76,0,0,1-3.34,2.78,11.27,11.27,0,0,1-6.63,2,5.83,5.83,0,0,1-4.62-1.77,7.53,7.53,0,0,1-1.56-5.13,37.46,37.46,0,0,1,.84-6,31.05,31.05,0,0,0,.78-5.22q0-1-.66-1t-2.22,2a29.48,29.48,0,0,0-2.88,5.31,43.1,43.1,0,0,0-2.34,7q-1.14,4.8-5.64,4.8a2.32,2.32,0,0,1-2.37-1.29,12.93,12.93,0,0,1-.57-4.65q0-1.92.06-3.06L81,46.9c0-2,.08-4.14.22-6.25A39.06,39.06,0,0,1,74,39.94,52,52,0,0,1,63.91,54.79Q58,60.7,52.24,60.7q-5.28,0-7.92-5.61t-3-15Q37.72,50.5,33.19,55.6t-9.63,5.1q-5.76,0-8.7-7.17T11.92,34.24a133.41,133.41,0,0,1,1.56-19.38A7.67,7.67,0,0,1,15,10.69a4.64,4.64,0,0,1,3.51-1.17,4.41,4.41,0,0,1,2.79.78,3.5,3.5,0,0,1,1,2.88q0,.42-.12,1.62a148.21,148.21,0,0,0-1.8,20.94q0,8,1.38,12.42t3.72,4.38q2.1,0,5.07-4.41a57,57,0,0,0,5.91-13.08,136.09,136.09,0,0,0,5-20.67,6.13,6.13,0,0,1,1.77-3.81,5.4,5.4,0,0,1,3.51-1.05,3.91,3.91,0,0,1,2.73.81,3.16,3.16,0,0,1,.87,2.43,7.28,7.28,0,0,1-.12,1.5,115.34,115.34,0,0,0-1.68,19.56A98.67,98.67,0,0,0,49,44.44a14.73,14.73,0,0,0,1.74,6,4.16,4.16,0,0,0,3.75,2.07q2.88,0,6.42-4.35a49.53,49.53,0,0,0,6.48-10.83,14.89,14.89,0,0,1-5.52-5.91A18.1,18.1,0,0,1,60,23.08a19.49,19.49,0,0,1,1.47-8,10.86,10.86,0,0,1,4-4.89,10.36,10.36,0,0,1,5.67-1.62,7.44,7.44,0,0,1,6.09,2.76,11.63,11.63,0,0,1,2.25,7.56,45.44,45.44,0,0,1-2.94,15.06,38.94,38.94,0,0,0,5.26.51q.42-3.36,1.07-6.81a57.88,57.88,0,0,1,5.58-16.83Q92.14,4,97.3,4M89.08,32.8a42.94,42.94,0,0,0,6.15-9.54,22.28,22.28,0,0,0,2.43-9.36A8,8,0,0,0,97.24,11q-.42-1-1.2-1Q95,9.94,93.64,13a52.36,52.36,0,0,0-2.55,8.34,111.37,111.37,0,0,0-2,11.43M69.82,31.36a35.31,35.31,0,0,0,2.34-11.1,7.83,7.83,0,0,0-.66-3.69,2,2,0,0,0-1.8-1.17,3,3,0,0,0-2.64,1.89,11.49,11.49,0,0,0-1,5.37q0,5.88,3.78,8.7M117,47.26a13.63,13.63,0,0,0,5.58-2.52,5,5,0,0,0,2-3.9A2.61,2.61,0,0,0,124,39a2.2,2.2,0,0,0-1.71-.69q-2.22,0-3.75,2.58A12,12,0,0,0,117,47.14v.12M97.3,0c-3.44,0-8.38,1.54-12.37,8.9a47.76,47.76,0,0,0-2.16,4.6,13.37,13.37,0,0,0-2.44-4.71,11.45,11.45,0,0,0-9.19-4.23A14.31,14.31,0,0,0,63.33,6.8a14.76,14.76,0,0,0-5.53,6.63A23.47,23.47,0,0,0,56,23.08a22.1,22.1,0,0,0,2.3,10.2,18.46,18.46,0,0,0,4,5.28,41.14,41.14,0,0,1-4.55,7.11c-2.21,2.71-3.32,2.87-3.33,2.87a1.45,1.45,0,0,1-.23,0s0-.06-.12-.17A10.82,10.82,0,0,1,53,44a93,93,0,0,1-.43-10.17A111.63,111.63,0,0,1,54.13,15a11.11,11.11,0,0,0,.19-2.25A7,7,0,0,0,52.18,7.4a7.74,7.74,0,0,0-5.46-1.88,9.25,9.25,0,0,0-6,2A9.75,9.75,0,0,0,37.5,13.7a132.38,132.38,0,0,1-4.83,20.07A53.24,53.24,0,0,1,27.23,45.9a18.39,18.39,0,0,1-1.38,1.83,7.41,7.41,0,0,1-.27-.77c-.8-2.52-1.2-6.29-1.2-11.22a144.49,144.49,0,0,1,1.76-20.36v-.19c.1-1,.14-1.58.14-2,0-3.34-1.37-5.12-2.51-6a8.31,8.31,0,0,0-5.27-1.64,8.43,8.43,0,0,0-6.41,2.42,11.2,11.2,0,0,0-2.59,6.37,137.6,137.6,0,0,0-1.6,19.93c0,8.69,1.06,15.49,3.24,20.81,3.27,8,8.55,9.65,12.4,9.65,4.58,0,8.82-2.17,12.62-6.44a32.09,32.09,0,0,0,3.31-4.51,27.11,27.11,0,0,0,1.21,3c3.08,6.54,8,7.91,11.54,7.91,4.92,0,9.8-2.38,14.5-7.08A54.47,54.47,0,0,0,76.3,44.35l.71.07c0,.85,0,1.67,0,2.48l-.06,4.67c0,.82-.06,1.87-.06,3.19A15.71,15.71,0,0,0,77.77,61a6.25,6.25,0,0,0,6,3.67,9.12,9.12,0,0,0,8.94-6,9.48,9.48,0,0,0,1.74,2.89,9.71,9.71,0,0,0,7.62,3.12A15.22,15.22,0,0,0,111,61.93l.81-.59A18,18,0,0,0,123,64.7a21.39,21.39,0,0,0,10-2.46,7,7,0,0,0,5.47,2.46,7.28,7.28,0,0,0,5.73-2.35,9.09,9.09,0,0,0,1.53-2.59,7.21,7.21,0,0,0,1.44,2.57,7.47,7.47,0,0,0,5.88,2.37A7.79,7.79,0,0,0,159,62.45a8.48,8.48,0,0,0,2-6,61.48,61.48,0,0,1,.34-6.85c.23-2.1.54-4.36.93-6.72a45.15,45.15,0,0,0,.71-6.53,7.43,7.43,0,0,0-7.9-7.9,12.76,12.76,0,0,0-6.36,1.92c-.47.28-.93.58-1.39.92a5,5,0,0,0-1.76-1.93,7,7,0,0,0-3.81-.91,10.08,10.08,0,0,0-5.65,1.47,8.16,8.16,0,0,0-3,3.57,10.65,10.65,0,0,0-1.47-1.82,11.49,11.49,0,0,0-8.39-3.22,16.17,16.17,0,0,0-9.24,2.79,17.78,17.78,0,0,0-4.43,4.31,7.25,7.25,0,0,0-7-7.07c.29-.5.57-1,.83-1.47a30.34,30.34,0,0,0,4-14.48A14.17,14.17,0,0,0,105,4,9.2,9.2,0,0,0,97.3,0Z"/><path class="cls-1" d="M221.14,81.36c-2.65,0-6.2-1.31-8.07-7.55A54.37,54.37,0,0,1,211.3,61.3a11,11,0,0,1-5.16,1.4,8.26,8.26,0,0,1-7-3.2c-.38.29-.75.56-1.13.82a14.06,14.06,0,0,1-8,2.38,10.38,10.38,0,0,1-9.6-5.86c-1.84-3.48-2.78-8-2.78-13.36a87.83,87.83,0,0,1,1.93-17.08,58.46,58.46,0,0,1,5.79-16.64C188.16,4.61,191.71,2,195.88,2a7.08,7.08,0,0,1,6.23,3.62c1.31,2.12,1.95,5,1.95,8.7,0,5-1.39,10.84-4.12,17.34A93.21,93.21,0,0,1,189.49,50a4,4,0,0,0,.72,1.7,1.28,1.28,0,0,0,1,.4,5,5,0,0,0,3.11-1,20.64,20.64,0,0,0,2.39-2.25c.1-1.59.32-3.43.65-5.48a67.35,67.35,0,0,1,1.83-8.14,6.82,6.82,0,0,1,2.11-3.63,6.39,6.39,0,0,1,4.13-1.16c4.69,0,5.06,3.09,5.06,4,0,.73-.12,2.29-1.18,7.37a47.87,47.87,0,0,0-1.4,8.53,5.45,5.45,0,0,0,.19,1.67,5,5,0,0,0,1.25-.92c.51-.47,1.15-1.13,1.91-2A118.74,118.74,0,0,1,213.69,31a72,72,0,0,1,7.05-20.19C224,5,227.82,2,232.06,2a7,7,0,0,1,6.1,3.45,14.6,14.6,0,0,1,1.9,7.85c0,8.92-4.76,18.57-14.14,28.73.7,0,1.5,0,2.38.12.36,0,.71.05,1.12.05.78,0,1.62,0,2.51-.11A19.31,19.31,0,0,1,233,39.33a16.31,16.31,0,0,1,5.5-6.44,14.13,14.13,0,0,1,8.12-2.45,9.17,9.17,0,0,1,9.68,9.68,11.54,11.54,0,0,1-2.21,7,3.78,3.78,0,0,1,1.35-.25,3.35,3.35,0,0,1,2.92,1.66,5.55,5.55,0,0,1,.76,3,8.55,8.55,0,0,1-1.35,4.81,13.7,13.7,0,0,1-5.15,4.7,15.79,15.79,0,0,1-7.44,1.67c-4.41,0-7.91-1.38-10.41-4.09a13.61,13.61,0,0,1-3.11-5.76h-.58a15.16,15.16,0,0,1-1.65-.11q.45,2.64.79,5.6a73.2,73.2,0,0,1,.52,7.69c0,4.74-.79,8.32-2.4,10.95C226.14,80.6,223.21,81.36,221.14,81.36Zm24.63-28.67h.33a4.94,4.94,0,0,0,2.88-.76,12.65,12.65,0,0,0,1.81-1.69A22.36,22.36,0,0,1,245.77,52.69Zm-.15-12.37c-.3,0-1.08,0-2,1.6a8.45,8.45,0,0,0-1,2.49,9.16,9.16,0,0,0,2-1.21A2.94,2.94,0,0,0,246,40.84a.85.85,0,0,0-.11-.48A.4.4,0,0,0,245.62,40.32Zm-51.41-27c-.25.55-.55,1.27-.88,2.23a80.47,80.47,0,0,0-3,12c-.27,1.49-.5,3-.69,4.42.81-1.79,1.54-3.58,2.18-5.35a36.91,36.91,0,0,0,2.4-12.2C194.24,14.06,194.23,13.68,194.21,13.35Zm36.09.31c-.11.22-.22.46-.34.74a66.22,66.22,0,0,0-3.05,9.39c-.31,1.19-.6,2.41-.89,3.66a38.79,38.79,0,0,0,1.81-3.58A26.92,26.92,0,0,0,230.3,13.66Z"/><path class="cls-2" d="M232.06,4a5,5,0,0,1,4.41,2.52,12.6,12.6,0,0,1,1.59,6.78q0,14.1-16.86,30.72a103.21,103.21,0,0,0-.6,10.32q0,6.18.42,12.69t1.38,6.51q1.8,0,1.8-6.24a63.58,63.58,0,0,0-.63-9.06q-.63-4.38-1.71-9.24a4.12,4.12,0,0,1,.51-2,8.22,8.22,0,0,1,1.41-2.1,2.27,2.27,0,0,1,1.5-.9q1.2,0,2.88.12a11.57,11.57,0,0,0,1.26.06,35.92,35.92,0,0,0,4.09-.26,17.23,17.23,0,0,1,1.31-3.73,14.25,14.25,0,0,1,4.83-5.67,12.15,12.15,0,0,1,7-2.1,7.6,7.6,0,0,1,5.58,2.07,7.52,7.52,0,0,1,2.1,5.61,9.7,9.7,0,0,1-3,7.11q-3,3-10.11,4.71a5,5,0,0,0,4.86,2.76,6.78,6.78,0,0,0,4.05-1.14,19.59,19.59,0,0,0,3.69-3.84,2.06,2.06,0,0,1,1.62-.9,1.39,1.39,0,0,1,1.23.72,3.72,3.72,0,0,1,.45,2,6.65,6.65,0,0,1-1,3.72,11.68,11.68,0,0,1-4.41,4,13.78,13.78,0,0,1-6.51,1.44q-5.76,0-8.94-3.45a12,12,0,0,1-3-6.52,18.26,18.26,0,0,1-2.18.13,22.86,22.86,0,0,1-4.14-.54q.78,3.72,1.29,8.25a69.22,69.22,0,0,1,.51,7.47q0,6.48-2.1,9.9a6.29,6.29,0,0,1-5.52,3.42q-4.32,0-6.15-6.12c-1.08-3.59-1.68-8.81-1.8-15.63-2.46,2-4.81,3.09-7.05,3.09a6.24,6.24,0,0,1-5.67-2.76,9.05,9.05,0,0,1-.78-1.52,24.28,24.28,0,0,1-2.82,2.24,12,12,0,0,1-6.87,2,8.33,8.33,0,0,1-7.83-4.8q-2.55-4.8-2.55-12.42a85.31,85.31,0,0,1,1.89-16.68,56.6,56.6,0,0,1,5.58-16.08Q190.78,4,195.88,4a5.09,5.09,0,0,1,4.53,2.67q1.65,2.67,1.65,7.65,0,7.14-4,16.56a91.71,91.71,0,0,1-10.74,18.66,7,7,0,0,0,1.38,3.51,3.25,3.25,0,0,0,2.52,1.05,7,7,0,0,0,4.32-1.41,24.32,24.32,0,0,0,3.15-3,48,48,0,0,1,.66-6,64.71,64.71,0,0,1,1.77-7.89,5.08,5.08,0,0,1,1.44-2.64,4.61,4.61,0,0,1,2.88-.72q3.06,0,3.06,2a47,47,0,0,1-1.14,7A51.89,51.89,0,0,0,206,50.38a6.33,6.33,0,0,0,.48,2.76,1.67,1.67,0,0,0,1.62,1,4.52,4.52,0,0,0,2.7-1.5A36.16,36.16,0,0,0,213.27,50a115.43,115.43,0,0,1,2.38-18.57,69.62,69.62,0,0,1,6.84-19.62Q226.84,4,232.06,4m-9.78,32a43.82,43.82,0,0,0,7.38-11.37A28.63,28.63,0,0,0,232.3,13.6q0-3.66-1.5-3.66-1.08,0-2.67,3.66A67.46,67.46,0,0,0,225,23.29q-1.56,6-2.7,12.75m-35.34,5.4a77.32,77.32,0,0,0,6.78-14.07,38.57,38.57,0,0,0,2.52-12.87q0-4.56-1.68-4.56-1.38,0-3.12,5a81.84,81.84,0,0,0-3.06,12.36,89.47,89.47,0,0,0-1.44,14.16m53.4,5.82a13.63,13.63,0,0,0,5.58-2.52,5,5,0,0,0,2-3.9,2.61,2.61,0,0,0-.63-1.83,2.2,2.2,0,0,0-1.71-.69q-2.22,0-3.75,2.58a12,12,0,0,0-1.53,6.24v.12M232.06,0c-5,0-9.42,3.3-13.06,9.82a73.71,73.71,0,0,0-7.27,20.75c0,.21-.09.43-.13.65-1-1.57-2.95-2.78-6.12-2.78a11,11,0,0,0-2.22.2,43.45,43.45,0,0,0,2.8-14.32c0-4.11-.74-7.3-2.25-9.75A9.1,9.1,0,0,0,195.88,0c-5,0-9.09,3-12.3,8.79a60.88,60.88,0,0,0-6,17.22,89.41,89.41,0,0,0-2,17.47c0,5.72,1,10.53,3,14.3A12.24,12.24,0,0,0,190,64.7a16,16,0,0,0,8.84-2.55,10.51,10.51,0,0,0,7.3,2.55,12.11,12.11,0,0,0,3.34-.49,49.09,49.09,0,0,0,1.68,10.18c2.33,7.8,7.25,9,10,9s6.22-.92,8.93-5.33c1.81-3,2.69-6.87,2.69-12a71.34,71.34,0,0,0-.47-7.32,15,15,0,0,0,1,1.24c2.89,3.15,6.89,4.74,11.88,4.74a17.78,17.78,0,0,0,8.37-1.9,15.66,15.66,0,0,0,5.9-5.38,10.56,10.56,0,0,0,1.67-5.9,7.62,7.62,0,0,0-1.06-4.1,5.41,5.41,0,0,0-2.67-2.24,14.07,14.07,0,0,0,.91-5.06,11.16,11.16,0,0,0-11.68-11.68,16.15,16.15,0,0,0-9.24,2.79,18.51,18.51,0,0,0-1.48,1.12c4.08-6.59,6.14-13,6.14-19a16.46,16.46,0,0,0-2.21-8.91A9,9,0,0,0,232.06,0ZM230.2,40.19l.53-.64c-.09.21-.17.42-.25.63Zm-38.28,9.86q1.68-2.4,3.2-4.83c-.13,1-.23,1.91-.3,2.77a15.4,15.4,0,0,1-1.66,1.51,2.73,2.73,0,0,1-1.24.55Z"/><path class="cls-1" d="M206.62,30.48a7.28,7.28,0,0,1-5.14-1.7,6.21,6.21,0,0,1-1.9-4.74,6.43,6.43,0,0,1,2.35-5,8.11,8.11,0,0,1,5.41-1.89,7.69,7.69,0,0,1,4.83,1.5,5.67,5.67,0,0,1,2.15,4.64,6.91,6.91,0,0,1-2.22,5.29A7.88,7.88,0,0,1,206.62,30.48Z"/><path class="cls-2" d="M207.34,19.12a5.67,5.67,0,0,1,3.6,1.08,3.66,3.66,0,0,1,1.38,3.06,4.88,4.88,0,0,1-1.56,3.81,5.94,5.94,0,0,1-4.14,1.41,5.38,5.38,0,0,1-3.78-1.17A4.24,4.24,0,0,1,201.58,24a4.43,4.43,0,0,1,1.65-3.51,6.11,6.11,0,0,1,4.11-1.41m0-4a10,10,0,0,0-6.71,2.37,8.38,8.38,0,0,0-3,6.55,8.13,8.13,0,0,0,2.54,6.2,9.18,9.18,0,0,0,6.5,2.24A9.83,9.83,0,0,0,213.44,30a8.88,8.88,0,0,0,2.88-6.78,7.71,7.71,0,0,0-2.91-6.21,9.64,9.64,0,0,0-6.07-1.93Z"/><path class="cls-1" d="M310.48,30.48a7.28,7.28,0,0,1-5.14-1.7,6.21,6.21,0,0,1-1.9-4.74,6.43,6.43,0,0,1,2.35-5,8.11,8.11,0,0,1,5.41-1.89,7.69,7.69,0,0,1,4.83,1.5,5.67,5.67,0,0,1,2.15,4.64A6.91,6.91,0,0,1,316,28.55,7.9,7.9,0,0,1,310.48,30.48Z"/><path class="cls-2" d="M311.2,19.12a5.67,5.67,0,0,1,3.6,1.08,3.66,3.66,0,0,1,1.38,3.06,4.88,4.88,0,0,1-1.56,3.81,5.94,5.94,0,0,1-4.14,1.41,5.38,5.38,0,0,1-3.78-1.17A4.24,4.24,0,0,1,305.44,24a4.43,4.43,0,0,1,1.65-3.51,6.11,6.11,0,0,1,4.11-1.41m0-4a10,10,0,0,0-6.71,2.37A8.38,8.38,0,0,0,301.44,24a8.16,8.16,0,0,0,2.53,6.2,9.23,9.23,0,0,0,6.51,2.24A9.83,9.83,0,0,0,317.3,30a8.88,8.88,0,0,0,2.88-6.78,7.71,7.71,0,0,0-2.91-6.21,9.64,9.64,0,0,0-6.07-1.93Z"/><path class="cls-1" d="M278.44,89.7a8.8,8.8,0,0,1-6.39-2.46,8.6,8.6,0,0,1-2.51-6.38c0-3.24,1.25-6.7,3.71-10.28a45.33,45.33,0,0,1,7.47-7.94,9.07,9.07,0,0,1-6.29-3.37,12.8,12.8,0,0,1-2.67-8.35,21.58,21.58,0,0,1,2.44-10,21,21,0,0,1,6.53-7.61,15.35,15.35,0,0,1,9-3A4.12,4.12,0,0,1,293,31.51a4.22,4.22,0,0,1,.62.95c.4,0,.83,0,1.27,0a5.48,5.48,0,0,1,3.29.82,3.92,3.92,0,0,1,1.47,3.4,10.92,10.92,0,0,1-.08,1.42c-.16,1.25-.66,4.36-1.51,9.47-.1.59-.2,1.22-.31,1.89,1-.73,2-1.44,3-2.11.12-1.23.3-2.55.52-3.94a67.35,67.35,0,0,1,1.83-8.14,6.82,6.82,0,0,1,2.11-3.63,6.39,6.39,0,0,1,4.13-1.16c4.69,0,5.06,3.09,5.06,4,0,.73-.13,2.29-1.18,7.37a47.87,47.87,0,0,0-1.4,8.53,5.45,5.45,0,0,0,.19,1.67,5,5,0,0,0,1.25-.92,43.26,43.26,0,0,0,3.18-3.42c-.23-3.55-.34-6.81-.34-9.69v-2.1A5.34,5.34,0,0,1,318,31.57a6.85,6.85,0,0,1,4.28-1.19,5.22,5.22,0,0,1,3.66,1.22,4.9,4.9,0,0,1,1.4,3.78c0,3.24.14,7.22.42,11.87.6-.94,1.13-1.8,1.58-2.58a11.55,11.55,0,0,1-.66-4,11.15,11.15,0,0,1,1.09-4.81,10.32,10.32,0,0,1,3-3.86,7.63,7.63,0,0,1,4.76-1.61,5.58,5.58,0,0,1,4.32,1.91,7.17,7.17,0,0,1,1.58,4.89A15,15,0,0,1,342.9,41l.38-.06a15.17,15.17,0,0,1,.68-1.62,16.31,16.31,0,0,1,5.5-6.44,14.13,14.13,0,0,1,8.12-2.45,9.17,9.17,0,0,1,9.68,9.68,11.65,11.65,0,0,1-3.56,8.52,18.22,18.22,0,0,1-6.83,4,8.6,8.6,0,0,0,1.07.06,11.32,11.32,0,0,0,5.19-1.64,18.73,18.73,0,0,0,3.5-2.52c1.36-1.76,2.45-3.28,3.24-4.51a37.18,37.18,0,0,0,2.06-3.91c.73-1.58,1.68-3.7,2.89-6.5.76-1.75,2.51-3.84,6.58-3.84a7.74,7.74,0,0,1,3.16.48A3,3,0,0,1,386.4,33a6.3,6.3,0,0,1-.33,1.73,11.24,11.24,0,0,1-.81,1.92,6.42,6.42,0,0,0-.84,2.71,2,2,0,0,0,.35,1,20.48,20.48,0,0,0,1.78,2.45,40.43,40.43,0,0,1,3.1,4.57,9.79,9.79,0,0,1,1.25,4.85,12.19,12.19,0,0,1-1.4,5.69,11.5,11.5,0,0,1-3.95,4.38A10.48,10.48,0,0,1,379.66,64a9,9,0,0,1-6.09-1.93,6.19,6.19,0,0,1-2.33-4.75v0l-.45.45a5.51,5.51,0,0,1-2.17,1.39c-.55.35-1.11.7-1.69,1a19.39,19.39,0,0,1-9.65,2.54c-4.73,0-8.49-1.34-11.19-4a13.4,13.4,0,0,1-3.72-7.07l-1,0a19.44,19.44,0,0,1-4.07-.42c-1,1.52-2,3.08-3.11,4.67a22.09,22.09,0,0,1-4.61,5.15,8.55,8.55,0,0,1-5.13,1.64A6.56,6.56,0,0,1,319,60a7.09,7.09,0,0,1-.56-.89c-2.87,2.41-5.69,3.63-8.41,3.63-4.13,0-6.28-2-7.36-3.68-.22-.36-.43-.73-.63-1.13l-3.23,2.23-3.17,2.13c-1.53,8.06-3.55,14.53-6,19.26C286.78,86.94,283,89.7,278.44,89.7Zm3.85-16.24A19.45,19.45,0,0,0,281.14,75a9.25,9.25,0,0,0-1.72,4.37,12,12,0,0,0,1.3-2.06A26.35,26.35,0,0,0,282.29,73.46Zm5.57-32.68a6.07,6.07,0,0,0-.67.52,11,11,0,0,0-2.83,4.09,14.44,14.44,0,0,0-1.1,5.59,2.56,2.56,0,0,0,.28,1.48c.06.07.15.18.54.18.17,0,.55-.23,1-.88a9.44,9.44,0,0,0,1.43-3.94Zm89.5,8.79c-.44.74-.89,1.44-1.33,2.09a8.42,8.42,0,0,1,1.71-.16l.8,0A12.14,12.14,0,0,0,377.36,49.57Zm-20.8-9.25c-.3,0-1.08,0-2,1.6a8.56,8.56,0,0,0-1,2.49,8.86,8.86,0,0,0,2-1.21,2.93,2.93,0,0,0,1.32-2.36.85.85,0,0,0-.11-.48A.41.41,0,0,0,356.56,40.32Z"/><path class="cls-2" d="M381.4,31.78a6.37,6.37,0,0,1,2.34.3,1,1,0,0,1,.66,1,4.9,4.9,0,0,1-.24,1.14,9.46,9.46,0,0,1-.66,1.56,8.56,8.56,0,0,0-1.08,3.66,4.08,4.08,0,0,0,.62,2,22.74,22.74,0,0,0,2,2.7,38.12,38.12,0,0,1,2.91,4.29,7.79,7.79,0,0,1,1,3.87A10.32,10.32,0,0,1,387.73,57a9.61,9.61,0,0,1-3.27,3.63,8.57,8.57,0,0,1-4.8,1.38,7.09,7.09,0,0,1-4.78-1.44,4.23,4.23,0,0,1-1.64-3.24,3.69,3.69,0,0,1,1.14-2.7,4.52,4.52,0,0,1,3.36-1.14,13.28,13.28,0,0,1,1.83.15l1.59.21a7.73,7.73,0,0,0-.7-2.94,15.22,15.22,0,0,0-1.58-2.67c-.64-.86-1.25-1.61-1.8-2.25a40,40,0,0,1-3.7,5.88c-.2.26-.43.51-.64.77a4.32,4.32,0,0,1-.52.79,18.51,18.51,0,0,1-2,2.05c-.27.27-.53.56-.8.83a3.61,3.61,0,0,1-1.63,1c-.58.38-1.18.75-1.82,1.11a17.39,17.39,0,0,1-8.67,2.28q-6.3,0-9.78-3.42a11.92,11.92,0,0,1-3.42-7.81,20,20,0,0,1-2.7.19,16.84,16.84,0,0,1-5-.72q-1.74,2.82-3.84,5.82a20.4,20.4,0,0,1-4.14,4.68,6.58,6.58,0,0,1-4,1.26,4.54,4.54,0,0,1-3.87-1.92,8.67,8.67,0,0,1-1.35-3.25C316,59,312.89,60.7,310,60.7a6.24,6.24,0,0,1-5.67-2.76A10.29,10.29,0,0,1,303,54.79c-2.34,1.59-4.14,2.82-5.38,3.69l-3.84,2.58q-2.28,12.42-6,19.53t-9.39,7.11a6.8,6.8,0,0,1-5-1.89,6.64,6.64,0,0,1-1.92-5q0-4.26,3.36-9.15t12.6-12l.36-2.34a7.24,7.24,0,0,1-5.94,3.36A7.3,7.3,0,0,1,276,58a10.79,10.79,0,0,1-2.22-7.08A19.51,19.51,0,0,1,276,41.83a19,19,0,0,1,5.91-6.9,13.33,13.33,0,0,1,7.83-2.61,2.34,2.34,0,0,1,1.77.51,4.31,4.31,0,0,1,.75,1.83,12.92,12.92,0,0,1,2.64-.24,3.79,3.79,0,0,1,2.13.45,2.06,2.06,0,0,1,.63,1.77,8.47,8.47,0,0,1-.06,1.14q-.24,1.86-1.5,9.42-.24,1.44-.51,3.15L295,54c2.64-2.06,5.19-3.9,7.66-5.55.11-1.38.29-3,.59-4.74A64.71,64.71,0,0,1,305,35.8a5.08,5.08,0,0,1,1.44-2.64,4.61,4.61,0,0,1,2.88-.72q3.06,0,3.06,2a47,47,0,0,1-1.14,7,51.89,51.89,0,0,0-1.44,8.94,6.33,6.33,0,0,0,.48,2.76,1.67,1.67,0,0,0,1.62,1,4.52,4.52,0,0,0,2.7-1.5,51.46,51.46,0,0,0,3.87-4.21q-.39-5.74-.39-10.37v-2.1a3.42,3.42,0,0,1,1.08-2.76,5,5,0,0,1,3.06-.78,3.32,3.32,0,0,1,2.31.69,3,3,0,0,1,.75,2.31q0,6.9.84,17.94,3.6-5.34,5.4-8.52a8.9,8.9,0,0,1-.9-4.14,9.23,9.23,0,0,1,.9-4A8.3,8.3,0,0,1,334,33.58a5.65,5.65,0,0,1,3.54-1.2,3.57,3.57,0,0,1,2.82,1.23,5.25,5.25,0,0,1,1.08,3.57A16.46,16.46,0,0,1,340,43.36a37.82,37.82,0,0,0,4.8-.66,16.4,16.4,0,0,1,1-2.49,14.25,14.25,0,0,1,4.83-5.67,12.15,12.15,0,0,1,7-2.1,7.6,7.6,0,0,1,5.58,2.07,7.52,7.52,0,0,1,2.1,5.61,9.7,9.7,0,0,1-3,7.11q-3,3-10.05,4.71,1.5,2.76,5.7,2.76a13.12,13.12,0,0,0,6.15-1.89,20.65,20.65,0,0,0,4-2.91q2.19-2.8,3.46-4.8A40.66,40.66,0,0,0,373.75,41q1.11-2.4,2.91-6.54,1.14-2.64,4.74-2.64M284.08,54.64A3.44,3.44,0,0,0,286.72,53a11.16,11.16,0,0,0,1.8-4.8l1.92-10.26a7.09,7.09,0,0,0-4.56,1.89,12.9,12.9,0,0,0-3.36,4.83A16.26,16.26,0,0,0,281.26,51a4.25,4.25,0,0,0,.75,2.76,2.55,2.55,0,0,0,2.07.9m67.2-7.38a13.63,13.63,0,0,0,5.58-2.52,5,5,0,0,0,2-3.9,2.61,2.61,0,0,0-.63-1.83,2.2,2.2,0,0,0-1.71-.69q-2.22,0-3.75,2.58a12,12,0,0,0-1.53,6.24v.12M279.1,81.88q1.5,0,3.39-3.6a49.33,49.33,0,0,0,3.63-11.46A34.86,34.86,0,0,0,279.46,74a10.76,10.76,0,0,0-2,5.58,3.26,3.26,0,0,0,.39,1.68,1.38,1.38,0,0,0,1.29.66m102.3-54.1c-5.43,0-7.6,3.17-8.42,5-1.18,2.74-2.15,4.91-2.87,6.45-.29.65-.59,1.25-.88,1.82,0-.32,0-.65,0-1a11.16,11.16,0,0,0-11.68-11.68,16.13,16.13,0,0,0-9.24,2.79,18.2,18.2,0,0,0-3.3,2.89A8,8,0,0,0,343.36,31a7.54,7.54,0,0,0-5.82-2.59,9.57,9.57,0,0,0-6,2A11.81,11.81,0,0,0,329,33.09a6.15,6.15,0,0,0-1.75-3,7.19,7.19,0,0,0-5-1.75,8.86,8.86,0,0,0-5.49,1.6,6.74,6.74,0,0,0-1.26,1.29c-1-1.6-2.94-2.83-6.15-2.83A8.26,8.26,0,0,0,304,30a8.41,8.41,0,0,0-2.67,4.27,5.33,5.33,0,0,0-2-2.7,7.45,7.45,0,0,0-4.45-1.19h-.2a2.11,2.11,0,0,0-.19-.23,6.06,6.06,0,0,0-4.77-1.87,17.31,17.31,0,0,0-10.14,3.34A23,23,0,0,0,272.42,40a23.68,23.68,0,0,0-2.66,10.93,14.7,14.7,0,0,0,3.13,9.62,11.15,11.15,0,0,0,3.85,3,39.49,39.49,0,0,0-5.14,5.87c-2.7,3.92-4.06,7.76-4.06,11.41a10.64,10.64,0,0,0,3.11,7.8,10.82,10.82,0,0,0,7.79,3c3.71,0,9-1.61,12.94-9.27,2.49-4.81,4.47-11,6-19l2.45-1.65,0,0,0,0,1.47-1a10.19,10.19,0,0,0,8.6,4,14.06,14.06,0,0,0,8-2.79,8.56,8.56,0,0,0,6.47,2.79,10.52,10.52,0,0,0,6.3-2,23.58,23.58,0,0,0,5.07-5.62c.86-1.22,1.67-2.43,2.45-3.62a20.88,20.88,0,0,0,2.53.21,15,15,0,0,0,3.88,6.48c3.08,3,7.32,4.57,12.59,4.57a21.45,21.45,0,0,0,10.63-2.79c.54-.31,1.08-.63,1.6-1l.51-.22a8.7,8.7,0,0,0,2.24,2.86,10.89,10.89,0,0,0,7.4,2.43,12.53,12.53,0,0,0,7-2,13.48,13.48,0,0,0,4.62-5.12,14.22,14.22,0,0,0,1.63-6.62,11.82,11.82,0,0,0-1.5-5.82,43.17,43.17,0,0,0-3.22-4.76l0-.06,0-.05a20.15,20.15,0,0,1-1.6-2.18l-.07-.13a6.57,6.57,0,0,1,.62-1.67,12.37,12.37,0,0,0,.93-2.21A7.88,7.88,0,0,0,388.4,33a5,5,0,0,0-3-4.6,9.54,9.54,0,0,0-4-.66ZM314.18,47.26c.05-.29.11-.6.17-.94,0,.23,0,.47,0,.7l-.21.24Z"/><path class="cls-1" d="M411.82,89.7a8.78,8.78,0,0,1-6.39-2.46,8.6,8.6,0,0,1-2.51-6.38,16.4,16.4,0,0,1,1.45-6.56,27.59,27.59,0,0,1,5.16-7.3A57.19,57.19,0,0,1,414,62.7a7.16,7.16,0,0,1-5.9-3.36A12.69,12.69,0,0,1,406,52a55.39,55.39,0,0,1,.62-8.57,53.53,53.53,0,0,1,2.06-8.26,7,7,0,0,1,2.4-3.57,7.73,7.73,0,0,1,4.59-1.16,4.77,4.77,0,0,1,3.1.87,3.49,3.49,0,0,1,1.25,2.81,18.69,18.69,0,0,1-.72,3.7c-.4,1.5-.71,2.81-.94,4-.31,1.59-.59,3.15-.83,4.63q-.22,1.44-.3,2.49A26.08,26.08,0,0,0,419.78,44a71.26,71.26,0,0,0,2.88-8.75,6.59,6.59,0,0,1,2.17-3.63A6.67,6.67,0,0,1,429,30.44a5.27,5.27,0,0,1,3,.7A3.26,3.26,0,0,1,433.5,34c0,.78-.19,2.69-1.59,10.67l-.78,4.81,2.75-1.92a20.2,20.2,0,0,1,1.94-8.47,15.64,15.64,0,0,1,5.5-6.37,14.11,14.11,0,0,1,7.87-2.34A11.33,11.33,0,0,1,458,34.2a15,15,0,0,1,3.45,6.91c.47-.06,1-.15,1.47-.24a56.26,56.26,0,0,1,1.55-5.69,7,7,0,0,1,2.41-3.58,7.73,7.73,0,0,1,4.59-1.16,4.77,4.77,0,0,1,3.1.87,3.49,3.49,0,0,1,1.24,2.81,18.07,18.07,0,0,1-.71,3.7c-.4,1.5-.72,2.81-.94,4-.73,3.8-1,5.93-1.12,7.12a26.07,26.07,0,0,0,2.56-5,68.35,68.35,0,0,0,2.82-8.65,6.59,6.59,0,0,1,2.17-3.64,6.66,6.66,0,0,1,4.2-1.21,4.23,4.23,0,0,1,3.44,1.42,5.1,5.1,0,0,1,1,3.34,27.94,27.94,0,0,1-.25,3.59c-.17,1.24-.35,2.5-.55,3.8-.4,2.53-.71,4.85-.95,6.91a62,62,0,0,0-.35,6.94,6.5,6.5,0,0,1-1.47,4.64,5.91,5.91,0,0,1-4.49,1.62,5.48,5.48,0,0,1-4.69-2,5.32,5.32,0,0,1-.58-1l-.11.13a7.73,7.73,0,0,1-5.78,2.88,7.38,7.38,0,0,1-6.13-3.12A12.46,12.46,0,0,1,461.83,52c0-.2,0-.4,0-.59l-.94.09a16.54,16.54,0,0,1-4.73,7.66,13,13,0,0,1-9,3.54,12.61,12.61,0,0,1-7.27-2.09,13,13,0,0,1-3.43-3.42L429,62.25c-1.54,8.06-3.55,14.53-6,19.26C420.16,86.94,416.4,89.7,411.82,89.7Zm3.88-16.27A17.31,17.31,0,0,0,414.55,75a9.22,9.22,0,0,0-1.75,4.43,12.06,12.06,0,0,0,1.27-2A25.78,25.78,0,0,0,415.7,73.43Zm31.41-31.86a5.65,5.65,0,0,0-.5.61,9.62,9.62,0,0,0-1.23,5.38,6.6,6.6,0,0,0,.89,3.85c.69.93,1.2.93,1.42.93a2.36,2.36,0,0,0,1.85-.9,5.62,5.62,0,0,0,1.16-2.35,10.26,10.26,0,0,1-2.43-3.24A11.66,11.66,0,0,1,447.11,41.57Z"/><path class="cls-2" d="M449.19,32.38a9.34,9.34,0,0,1,7.35,3.15,13.49,13.49,0,0,1,3.27,7.77,32.38,32.38,0,0,0,4.84-.74,55,55,0,0,1,1.76-6.76,5,5,0,0,1,1.68-2.58,5.91,5.91,0,0,1,3.42-.78,3,3,0,0,1,1.83.42,1.54,1.54,0,0,1,.51,1.26,24.91,24.91,0,0,1-.66,3.24q-.6,2.22-1,4a56.75,56.75,0,0,0-1.2,8.4,3.74,3.74,0,0,0,.3,1.77,1,1,0,0,0,1,.51q.9,0,2.28-1.83a26.09,26.09,0,0,0,2.91-5.52,70.8,70.8,0,0,0,2.91-8.91,4.72,4.72,0,0,1,1.47-2.58,4.74,4.74,0,0,1,3-.78,2.32,2.32,0,0,1,1.89.69,3.19,3.19,0,0,1,.57,2.07,25.8,25.8,0,0,1-.24,3.33q-.24,1.83-.54,3.75-.6,3.84-1,7a63.74,63.74,0,0,0-.36,7.17,4.7,4.7,0,0,1-.93,3.27,4,4,0,0,1-3,1,3.62,3.62,0,0,1-3.09-1.17q-.87-1.17-.87-4.53,0-.66.12-2.94a14.57,14.57,0,0,1-3,6.42,5.8,5.8,0,0,1-4.29,2.22,5.37,5.37,0,0,1-4.53-2.31A10.54,10.54,0,0,1,463.83,52c0-1,0-2,.08-3a29.89,29.89,0,0,1-4.58.55,15,15,0,0,1-4.5,8.07,11.07,11.07,0,0,1-7.62,3A10.65,10.65,0,0,1,441.06,59a11.05,11.05,0,0,1-3.87-4.62h0l-10,6.73q-2.28,12.42-6,19.53t-9.39,7.11a6.84,6.84,0,0,1-5-1.89,6.63,6.63,0,0,1-1.91-5,14.11,14.11,0,0,1,1.29-5.76A26.24,26.24,0,0,1,411,68.35a79.72,79.72,0,0,1,9.94-8.73l.18-1.38q.4-2.22,1-6.36a15.25,15.25,0,0,1-3.37,6.57,6.3,6.3,0,0,1-4.55,2.25,5.16,5.16,0,0,1-4.41-2.49A10.72,10.72,0,0,1,408,52a52.39,52.39,0,0,1,.6-8.25,49.57,49.57,0,0,1,2-8,5,5,0,0,1,1.67-2.58,6,6,0,0,1,3.42-.78,2.94,2.94,0,0,1,1.83.42,1.54,1.54,0,0,1,.52,1.26,27,27,0,0,1-.66,3.24c-.4,1.48-.73,2.82-1,4q-.49,2.46-.84,4.71a24.3,24.3,0,0,0-.36,3.69q0,2.28,1.26,2.28.9,0,2.25-1.8a26,26,0,0,0,2.87-5.46,71.18,71.18,0,0,0,3-9,4.72,4.72,0,0,1,1.47-2.58,4.73,4.73,0,0,1,3-.78,3.68,3.68,0,0,1,1.92.36,1.33,1.33,0,0,1,.54,1.2c0,1-.53,4.44-1.56,10.32L428.37,54q3.86-2.9,7.53-5.37c0-.17,0-.34,0-.51A18.32,18.32,0,0,1,437.61,40a13.67,13.67,0,0,1,4.8-5.58,12.09,12.09,0,0,1,6.78-2m-1.5,22A4.35,4.35,0,0,0,451,52.78a8.66,8.66,0,0,0,1.89-4.5,8.28,8.28,0,0,1-2.85-3.3,9.77,9.77,0,0,1-1-4.32,10.4,10.4,0,0,1,.18-1.92H449a4.71,4.71,0,0,0-4,2.31,11.39,11.39,0,0,0-1.59,6.51,8.37,8.37,0,0,0,1.29,5,3.72,3.72,0,0,0,3,1.74M412.48,81.88q1.49,0,3.35-3.48t3.73-11.58a33.88,33.88,0,0,0-6.69,7.11,10.84,10.84,0,0,0-2.08,5.61,3.17,3.17,0,0,0,.4,1.68,1.37,1.37,0,0,0,1.29.66m36.71-53.5a16.05,16.05,0,0,0-9,2.67,17.11,17.11,0,0,0-4.88,4.86A17,17,0,0,0,435.5,34a5.33,5.33,0,0,0-2.33-4.53,7.2,7.2,0,0,0-4.13-1,8.57,8.57,0,0,0-5.45,1.64,7.49,7.49,0,0,0-1.83,2.14,5.39,5.39,0,0,0-1.67-2.45,6.6,6.6,0,0,0-4.38-1.33A9.57,9.57,0,0,0,410,30a8.93,8.93,0,0,0-3.14,4.57A52.17,52.17,0,0,0,404,52a14.66,14.66,0,0,0,2.41,8.47A9.78,9.78,0,0,0,410,63.69c-.68.67-1.32,1.32-1.9,2a29.69,29.69,0,0,0-5.52,7.85,18.29,18.29,0,0,0-1.62,7.37,10.64,10.64,0,0,0,3.11,7.8,10.82,10.82,0,0,0,7.79,3c3.7,0,9-1.61,12.94-9.27,2.49-4.81,4.47-11,6-19l5.3-3.56a14.4,14.4,0,0,0,11.12,4.81,15,15,0,0,0,10.3-4.06,17.32,17.32,0,0,0,3-3.54,11.87,11.87,0,0,0,1.81,3.67,9.31,9.31,0,0,0,7.74,3.93,9.08,9.08,0,0,0,5.58-2,7.7,7.7,0,0,0,5.58,2,7.8,7.8,0,0,0,5.95-2.25,8.46,8.46,0,0,0,2-6,60.67,60.67,0,0,1,.34-6.72c.23-2,.55-4.32.94-6.82.2-1.3.38-2.59.55-3.85a30.21,30.21,0,0,0,.27-3.85,7.09,7.09,0,0,0-1.48-4.62,6.15,6.15,0,0,0-5-2.14,8.56,8.56,0,0,0-5.44,1.64,7.34,7.34,0,0,0-1.83,2.14,5.39,5.39,0,0,0-1.67-2.45,6.62,6.62,0,0,0-4.38-1.33A9.57,9.57,0,0,0,465.76,30a8.93,8.93,0,0,0-3.14,4.57c-.22.66-.43,1.33-.62,2a16.59,16.59,0,0,0-2.46-3.65,13.41,13.41,0,0,0-10.35-4.5ZM447.9,50.25l0,0a3.73,3.73,0,0,1-.48-1.88,11,11,0,0,0,1,1.26,3.28,3.28,0,0,1-.33.5l-.16.15Zm-28.65-.19Z"/><path class="cls-1" d="M663.09,64A9,9,0,0,1,657,62.09a6.25,6.25,0,0,1-2.33-4.61,27.31,27.31,0,0,1-3.44,2.83,13.62,13.62,0,0,1-7.88,2.39,7.74,7.74,0,0,1-6.12-2.45,9.44,9.44,0,0,1-2.06-6.45,38.58,38.58,0,0,1,.88-6.38s0-.09,0-.13c-.39.75-.78,1.57-1.18,2.46a39.18,39.18,0,0,0-2.26,6.63,10.73,10.73,0,0,1-2,4.65,5.33,5.33,0,0,1-4.23,1.67A5.25,5.25,0,0,1,621.36,59a22.71,22.71,0,0,1-1.06-7.63l-1.06.11a16.62,16.62,0,0,1-4.73,7.66,13.07,13.07,0,0,1-9,3.54,12.62,12.62,0,0,1-7.28-2.09,13.08,13.08,0,0,1-2-1.71,22.68,22.68,0,0,1-1.85,1.41,13.62,13.62,0,0,1-7.88,2.39,7.74,7.74,0,0,1-6.12-2.45,9.44,9.44,0,0,1-2.06-6.45,38.58,38.58,0,0,1,.88-6.38c0-.09,0-.18,0-.26-.41.77-.82,1.63-1.24,2.58a41.42,41.42,0,0,0-2.23,6.64,10.4,10.4,0,0,1-2,4.7,5.45,5.45,0,0,1-4.27,1.62,5.19,5.19,0,0,1-4.74-3,11.8,11.8,0,0,1-1.22-5.52,52.67,52.67,0,0,1,.62-6.88c0-.14,0-.27,0-.41-.45.92-.89,2-1.33,3.09a49.65,49.65,0,0,0-2,6.35A11,11,0,0,1,559,61a5.37,5.37,0,0,1-4.24,1.67,5.14,5.14,0,0,1-4.83-3.12l-1,.58a19.36,19.36,0,0,1-9.65,2.54c-4.68,0-8.41-1.32-11.1-3.92a23.11,23.11,0,0,1-2,1.54,14,14,0,0,1-8,2.38,10.35,10.35,0,0,1-9.59-5.86c-1.85-3.48-2.79-8-2.79-13.36a87.75,87.75,0,0,1,1.93-17.08,58.77,58.77,0,0,1,5.79-16.64C516.3,4.61,519.84,2,524,2a7.07,7.07,0,0,1,6.23,3.62c1.32,2.12,2,5,2,8.7,0,5-1.38,10.84-4.11,17.33A93.21,93.21,0,0,1,517.63,50a4,4,0,0,0,.72,1.7,1.24,1.24,0,0,0,1,.4,5,5,0,0,0,3.11-1,17,17,0,0,0,1.58-1.4,17.53,17.53,0,0,1-.09-1.78,19.59,19.59,0,0,1,1.94-8.59,16.33,16.33,0,0,1,5.51-6.44,14.12,14.12,0,0,1,8.11-2.45,9.15,9.15,0,0,1,9.68,9.68,11.64,11.64,0,0,1-3.55,8.52,18.3,18.3,0,0,1-6.83,4,8.55,8.55,0,0,0,1.06.06,11.28,11.28,0,0,0,5.19-1.64,18.72,18.72,0,0,0,3.54-2.53A50.21,50.21,0,0,1,550.9,35.2a6.5,6.5,0,0,1,2.58-3.62A8.06,8.06,0,0,1,558,30.44a5.09,5.09,0,0,1,2.74.6,3.18,3.18,0,0,1,1.42,2.84,7.29,7.29,0,0,1-.11,1.16,16.35,16.35,0,0,1,3-2.67,10.1,10.1,0,0,1,5.58-1.93,5.74,5.74,0,0,1,4.45,1.61,5.94,5.94,0,0,1,1.38,3.85A19,19,0,0,1,578,34.33c2.81-2.58,5.56-3.89,8.19-3.89,3.7,0,5.9,2.21,5.9,5.9a48.85,48.85,0,0,1-1.36,8.88,37.4,37.4,0,0,0-1.1,6.48c0,.12,0,.23,0,.31a4.58,4.58,0,0,0,1.25-.87c.39-.35.85-.8,1.37-1.35a16.53,16.53,0,0,1-.09-1.69,20.55,20.55,0,0,1,1.94-9,15.79,15.79,0,0,1,5.5-6.37,14.16,14.16,0,0,1,7.88-2.34,11.34,11.34,0,0,1,8.85,3.82,15.12,15.12,0,0,1,3.45,6.91c.43-.06.88-.14,1.35-.22a50.33,50.33,0,0,1,1.42-5.69,6.5,6.5,0,0,1,2.58-3.62,8,8,0,0,1,4.55-1.14,5.09,5.09,0,0,1,2.74.6,3.18,3.18,0,0,1,1.42,2.84,8.19,8.19,0,0,1-.2,1.62,16.68,16.68,0,0,1,4-3.41,10.86,10.86,0,0,1,5.36-1.65c3.7,0,5.9,2.21,5.9,5.9a49.79,49.79,0,0,1-1.36,8.88,37.4,37.4,0,0,0-1.1,6.48c0,.12,0,.23,0,.31a4.58,4.58,0,0,0,1.25-.87c.32-.29.68-.64,1.07-1A72.84,72.84,0,0,0,653.3,44a37.18,37.18,0,0,0,2.06-3.91c.74-1.58,1.68-3.7,2.9-6.5.75-1.75,2.51-3.84,6.57-3.84a7.76,7.76,0,0,1,3.17.48A3,3,0,0,1,669.83,33a5.94,5.94,0,0,1-.33,1.73,11.24,11.24,0,0,1-.81,1.92,6.42,6.42,0,0,0-.84,2.71,2,2,0,0,0,.36,1A20.19,20.19,0,0,0,670,42.82a39.13,39.13,0,0,1,3.1,4.57,9.79,9.79,0,0,1,1.25,4.85,12.3,12.3,0,0,1-1.39,5.69,11.58,11.58,0,0,1-4,4.38A10.51,10.51,0,0,1,663.09,64ZM605.44,41.57a5.65,5.65,0,0,0-.49.61,9.61,9.61,0,0,0-1.24,5.38,6.52,6.52,0,0,0,.9,3.85c.69.93,1.2.93,1.42.93a2.38,2.38,0,0,0,1.85-.9A5.62,5.62,0,0,0,609,49.09a10.44,10.44,0,0,1-2.44-3.24A11.86,11.86,0,0,1,605.44,41.57Zm55.36,8c-.45.74-.89,1.44-1.34,2.09a8.42,8.42,0,0,1,1.71-.16l.81,0A12.91,12.91,0,0,0,660.8,49.57ZM538.53,40.32c-.29,0-1.08,0-2,1.6a8.55,8.55,0,0,0-1,2.49,8.86,8.86,0,0,0,2-1.21,2.91,2.91,0,0,0,1.31-2.36.85.85,0,0,0-.1-.48A.43.43,0,0,0,538.53,40.32Zm-16.19-27c-.25.55-.54,1.27-.88,2.23a80.47,80.47,0,0,0-3,12c-.26,1.49-.49,3-.69,4.42.82-1.79,1.54-3.58,2.18-5.35a36.91,36.91,0,0,0,2.4-12.2C522.37,14.06,522.36,13.68,522.34,13.35Z"/><path class="cls-2" d="M524,4a5.09,5.09,0,0,1,4.53,2.67q1.65,2.67,1.65,7.65,0,7.14-4,16.56a91.71,91.71,0,0,1-10.74,18.66,7,7,0,0,0,1.38,3.51,3.25,3.25,0,0,0,2.52,1.05,7,7,0,0,0,4.32-1.41,22.19,22.19,0,0,0,2.46-2.27,18.15,18.15,0,0,1-.18-2.5,17.36,17.36,0,0,1,1.74-7.71,14.25,14.25,0,0,1,4.83-5.67,12.15,12.15,0,0,1,7-2.1,7.6,7.6,0,0,1,5.58,2.07,7.52,7.52,0,0,1,2.1,5.61,9.7,9.7,0,0,1-3,7.11q-3,3-10,4.71,1.5,2.76,5.7,2.76a13.12,13.12,0,0,0,6.15-1.89,20,20,0,0,0,4.55-3.4,48.76,48.76,0,0,1,2.2-13.61,4.51,4.51,0,0,1,1.77-2.55,6.24,6.24,0,0,1,3.45-.81,3.38,3.38,0,0,1,1.68.3,1.24,1.24,0,0,1,.48,1.14,22.87,22.87,0,0,1-.9,4.32q-.6,2.4-1,4.17a41.58,41.58,0,0,0-.6,4.41,32.47,32.47,0,0,1,3.87-7.92A18.23,18.23,0,0,1,566.22,34a8.12,8.12,0,0,1,4.47-1.59,3.86,3.86,0,0,1,3,1,4.27,4.27,0,0,1,.87,2.94,38,38,0,0,1-1.14,7q-.48,2.16-.66,3.24,3-7.38,6.66-10.74t6.84-3.36q3.9,0,3.9,3.9a48.22,48.22,0,0,1-1.32,8.46,41.64,41.64,0,0,0-1.14,6.9q0,2.4,1.74,2.4a4.69,4.69,0,0,0,2.85-1.47c.6-.54,1.32-1.26,2.15-2.17a15.13,15.13,0,0,1-.2-2.36A18.32,18.32,0,0,1,596,40a13.67,13.67,0,0,1,4.8-5.58,12.09,12.09,0,0,1,6.78-2,9.34,9.34,0,0,1,7.35,3.15,13.49,13.49,0,0,1,3.27,7.77,31.46,31.46,0,0,0,4.77-.73,47.94,47.94,0,0,1,1.59-6.77,4.51,4.51,0,0,1,1.77-2.55,6.24,6.24,0,0,1,3.45-.81,3.38,3.38,0,0,1,1.68.3,1.24,1.24,0,0,1,.48,1.14,22.87,22.87,0,0,1-.9,4.32q-.6,2.4-1,4.2a43,43,0,0,0-.6,4.44,34.12,34.12,0,0,1,4.44-8.4,17.41,17.41,0,0,1,4.83-4.62,8.78,8.78,0,0,1,4.35-1.38q3.9,0,3.9,3.9a48.22,48.22,0,0,1-1.32,8.46,41.64,41.64,0,0,0-1.14,6.9q0,2.4,1.74,2.4a4.69,4.69,0,0,0,2.85-1.47c.37-.33.79-.74,1.24-1.21A73.24,73.24,0,0,0,655,45.1,38.76,38.76,0,0,0,657.18,41q1.11-2.4,2.91-6.54,1.14-2.64,4.74-2.64a6.29,6.29,0,0,1,2.34.3,1,1,0,0,1,.66,1,4.42,4.42,0,0,1-.24,1.14,8.67,8.67,0,0,1-.66,1.56,8.56,8.56,0,0,0-1.08,3.66,4,4,0,0,0,.63,2,22.47,22.47,0,0,0,1.95,2.7,38.12,38.12,0,0,1,2.91,4.29,7.79,7.79,0,0,1,1,3.87A10.2,10.2,0,0,1,671.16,57a9.53,9.53,0,0,1-3.27,3.63,8.54,8.54,0,0,1-4.8,1.38,7,7,0,0,1-4.77-1.44,4.24,4.24,0,0,1-1.65-3.24,3.69,3.69,0,0,1,1.14-2.7,4.56,4.56,0,0,1,3.36-1.14,13.17,13.17,0,0,1,1.83.15l1.59.21a7.72,7.72,0,0,0-.69-2.94,14.69,14.69,0,0,0-1.59-2.67q-1-1.29-1.8-2.25a39.2,39.2,0,0,1-3.69,5.88l-.64.77a4.2,4.2,0,0,1-.53.79,26.55,26.55,0,0,1-5.55,5.22,11.64,11.64,0,0,1-6.75,2,5.83,5.83,0,0,1-4.62-1.77,7.53,7.53,0,0,1-1.56-5.13,37.46,37.46,0,0,1,.84-6,31.05,31.05,0,0,0,.78-5.22q0-1-.66-1t-2.19,2a32.22,32.22,0,0,0-2.88,5.31,41.3,41.3,0,0,0-2.37,7,9.36,9.36,0,0,1-1.53,3.81,3.45,3.45,0,0,1-2.73,1,3.28,3.28,0,0,1-3.21-2.4,23,23,0,0,1-.93-7.68c0-.53,0-1.06,0-1.58a29.72,29.72,0,0,1-4.65.56,15,15,0,0,1-4.5,8.07,11.07,11.07,0,0,1-7.62,3A10.65,10.65,0,0,1,599.4,59a10.82,10.82,0,0,1-2.92-3,24.53,24.53,0,0,1-3.2,2.66,11.64,11.64,0,0,1-6.75,2,5.83,5.83,0,0,1-4.62-1.77,7.53,7.53,0,0,1-1.56-5.13,37.46,37.46,0,0,1,.84-6,31.05,31.05,0,0,0,.78-5.22q0-1-.66-1t-2.22,2a29.48,29.48,0,0,0-2.88,5.31,43.1,43.1,0,0,0-2.34,7,9.15,9.15,0,0,1-1.53,3.84,3.6,3.6,0,0,1-2.79,1,3.18,3.18,0,0,1-3-1.89,9.79,9.79,0,0,1-1-4.59,51.93,51.93,0,0,1,.6-6.6q.48-3.84.48-5,0-1-.66-1-.9,0-2.28,2.16a31,31,0,0,0-2.67,5.52A53.11,53.11,0,0,0,559,55.9a9.36,9.36,0,0,1-1.53,3.81,3.45,3.45,0,0,1-2.73,1,3.28,3.28,0,0,1-3.21-2.4,10.47,10.47,0,0,1-.5-1.89,26.77,26.77,0,0,1-3.1,2,17.39,17.39,0,0,1-8.67,2.28q-6.3,0-9.78-3.42a11.16,11.16,0,0,1-1.14-1.35A24.12,24.12,0,0,1,525,58.66a12,12,0,0,1-6.87,2,8.33,8.33,0,0,1-7.83-4.8q-2.55-4.8-2.55-12.42a85.31,85.31,0,0,1,1.89-16.68,56.6,56.6,0,0,1,5.58-16.08Q518.91,4,524,4m-8.94,37.44a77.32,77.32,0,0,0,6.78-14.07,38.57,38.57,0,0,0,2.52-12.87q0-4.56-1.68-4.56-1.38,0-3.12,5a81.84,81.84,0,0,0-3.06,12.36,89.47,89.47,0,0,0-1.44,14.16m18.18,5.82a13.63,13.63,0,0,0,5.58-2.52,5,5,0,0,0,2-3.9,2.61,2.61,0,0,0-.63-1.83,2.2,2.2,0,0,0-1.71-.69q-2.22,0-3.75,2.58a12,12,0,0,0-1.53,6.24v.12M606,54.34a4.35,4.35,0,0,0,3.33-1.56,8.66,8.66,0,0,0,1.89-4.5A8.28,8.28,0,0,1,608.4,45a9.77,9.77,0,0,1-1-4.32,10.4,10.4,0,0,1,.18-1.92h-.3a4.71,4.71,0,0,0-4,2.31,11.39,11.39,0,0,0-1.59,6.51,8.37,8.37,0,0,0,1.29,5,3.72,3.72,0,0,0,3,1.74M524,0c-5,0-9.09,3-12.29,8.79a60.88,60.88,0,0,0-6,17.22,90.18,90.18,0,0,0-2,17.47c0,5.72,1,10.53,3,14.3a12.26,12.26,0,0,0,11.36,6.92A16.08,16.08,0,0,0,527.24,62l.86-.61a18,18,0,0,0,11.15,3.33,21.39,21.39,0,0,0,10-2.46,7,7,0,0,0,5.47,2.46,7.31,7.31,0,0,0,5.74-2.35,10,10,0,0,0,1.83-3.44,11.46,11.46,0,0,0,.74,1.76,7.2,7.2,0,0,0,6.51,4,7.4,7.4,0,0,0,5.76-2.28,9.61,9.61,0,0,0,1.91-3.61,9.29,9.29,0,0,0,9.31,5.89,15.64,15.64,0,0,0,9-2.74l.61-.44a11.58,11.58,0,0,0,1,.74,14.55,14.55,0,0,0,8.4,2.44,15,15,0,0,0,10.3-4.06,17.54,17.54,0,0,0,2.94-3.43,14.29,14.29,0,0,0,.7,2.54,7.24,7.24,0,0,0,6.94,5,7.32,7.32,0,0,0,5.74-2.35A10.12,10.12,0,0,0,634,58.79a9.38,9.38,0,0,0,1.69,2.79,9.71,9.71,0,0,0,7.62,3.12,15.64,15.64,0,0,0,9-2.74c.42-.29.83-.6,1.24-.91a9.35,9.35,0,0,0,2.08,2.54,10.9,10.9,0,0,0,7.4,2.43,12.5,12.5,0,0,0,7-2,13.51,13.51,0,0,0,4.63-5.12,14.33,14.33,0,0,0,1.62-6.62,11.71,11.71,0,0,0-1.5-5.82,40.51,40.51,0,0,0-3.22-4.76l0-.06,0-.05a18.2,18.2,0,0,1-1.59-2.18.88.88,0,0,1-.07-.13,6.37,6.37,0,0,1,.61-1.67,12.37,12.37,0,0,0,.93-2.21,7.88,7.88,0,0,0,.42-2.32,5,5,0,0,0-3-4.6,9.48,9.48,0,0,0-4-.66c-5.42,0-7.6,3.17-8.41,5-1.19,2.73-2.16,4.91-2.87,6.45a34.34,34.34,0,0,1-2,3.71c-.54.85-1.25,1.87-2.13,3,0-.12,0-.25.08-.38A50.21,50.21,0,0,0,651,36.34c0-4.8-3.1-7.9-7.9-7.9a12.76,12.76,0,0,0-6.36,1.92c-.47.28-.93.58-1.39.92a4.88,4.88,0,0,0-1.76-1.93,7,7,0,0,0-3.81-.91,10.08,10.08,0,0,0-5.65,1.47,8.41,8.41,0,0,0-3.39,4.7c-.17.54-.33,1.09-.49,1.65a16.9,16.9,0,0,0-2.32-3.38,13.43,13.43,0,0,0-10.35-4.5,16.05,16.05,0,0,0-9,2.67,17,17,0,0,0-4.48,4.28c-.4-4.22-3.4-6.89-7.85-6.89-2.85,0-5.76,1.22-8.65,3.63a6.7,6.7,0,0,0-1-1.35,7.63,7.63,0,0,0-5.94-2.28,12,12,0,0,0-6.7,2.27q-.25.16-.51.36a4.91,4.91,0,0,0-1.64-1.72,7,7,0,0,0-3.81-.91,10.08,10.08,0,0,0-5.65,1.47,8.08,8.08,0,0,0-3,3.57,11.22,11.22,0,0,0-1.48-1.82,11.49,11.49,0,0,0-8.39-3.22,16.13,16.13,0,0,0-9.1,2.7c2.48-6.23,3.74-11.89,3.74-16.82,0-4.11-.73-7.3-2.24-9.75A9.12,9.12,0,0,0,524,0Zm-4,50.05c.67-1,1.33-1.92,2-2.88,0,.25,0,.5,0,.75s0,.65,0,1c-.31.28-.55.47-.72.6a2.76,2.76,0,0,1-1.25.55Zm86.19.2,0,0a3.79,3.79,0,0,1-.47-1.88,12.12,12.12,0,0,0,1,1.26,2.24,2.24,0,0,1-.33.5,1,1,0,0,1-.15.15Z"/><path class="cls-1" d="M678.33,71.88a5.33,5.33,0,0,1-3.32-1,4.21,4.21,0,0,1-1.56-3.51,7.31,7.31,0,0,1,.24-1.75c.42-1.75.74-3.4.95-4.89a35.13,35.13,0,0,0,.31-4.94,8.76,8.76,0,0,1,1.9-5.93A6.63,6.63,0,0,1,682,47.54a6.22,6.22,0,0,1,4.72,1.79,6.35,6.35,0,0,1,1.66,4.53A19.06,19.06,0,0,1,687,60.12a51.76,51.76,0,0,1-3.18,7.06,16.87,16.87,0,0,1-2.2,3.36A4.4,4.4,0,0,1,678.33,71.88Z"/><path class="cls-2" d="M682,49.54a4.3,4.3,0,0,1,3.27,1.17,4.39,4.39,0,0,1,1.11,3.15,17.45,17.45,0,0,1-1.26,5.58,48.93,48.93,0,0,1-3.06,6.78,15.26,15.26,0,0,1-1.89,2.94,2.42,2.42,0,0,1-1.83.72,3.36,3.36,0,0,1-2.1-.6,2.27,2.27,0,0,1-.78-1.92,5.29,5.29,0,0,1,.18-1.26q.66-2.76,1-5.1a37.59,37.59,0,0,0,.33-5.22,6.82,6.82,0,0,1,1.41-4.62A4.59,4.59,0,0,1,682,49.54m0-4a8.61,8.61,0,0,0-6.65,3A10.76,10.76,0,0,0,673,55.78a34.32,34.32,0,0,1-.29,4.66c-.2,1.43-.51,3-.92,4.73a9,9,0,0,0-.29,2.19,6.19,6.19,0,0,0,2.34,5.09,7.26,7.26,0,0,0,4.54,1.43,6.39,6.39,0,0,0,4.72-1.95,18,18,0,0,0,2.52-3.81,52.74,52.74,0,0,0,3.3-7.32,20.91,20.91,0,0,0,1.5-6.94,8.29,8.29,0,0,0-2.21-5.9A8.12,8.12,0,0,0,682,45.54Z"/><path class="cls-1" d="M18.7,136a9,9,0,0,1-6.08-1.93,6.21,6.21,0,0,1-2.34-4.75v0l-.45.43a5.11,5.11,0,0,1-3.67,1.65A3.94,3.94,0,0,1,3.09,130,4.53,4.53,0,0,1,2,127a5.38,5.38,0,0,1,1.3-3.49l.77-1A76.81,76.81,0,0,0,8.91,116c.61-1,1.39-2.56,2.28-4.44s1.81-3.91,2.67-6c.76-1.77,2.52-3.86,6.58-3.86a7.76,7.76,0,0,1,3.17.48A3,3,0,0,1,25.44,105a5.94,5.94,0,0,1-.33,1.73,11.24,11.24,0,0,1-.81,1.92,6.42,6.42,0,0,0-.84,2.71,2,2,0,0,0,.36,1,20.19,20.19,0,0,0,1.77,2.45,40.71,40.71,0,0,1,3.11,4.57,9.68,9.68,0,0,1,1.05,2.88l.59-.54c-.05-.6-.08-1.2-.08-1.81a19.42,19.42,0,0,1,1.94-8.59,16.31,16.31,0,0,1,5.5-6.44,14.13,14.13,0,0,1,8.12-2.45,9.58,9.58,0,0,1,7,2.64,9,9,0,0,1,2.57,5.22,100.07,100.07,0,0,1,1.72-11.9,58.46,58.46,0,0,1,5.79-16.64C65.7,76.61,69.25,74,73.42,74a7.08,7.08,0,0,1,6.23,3.62,13.75,13.75,0,0,1,1.82,6c.31-.63.63-1.25,1-1.85C85.26,76.61,88.81,74,93,74a7.09,7.09,0,0,1,6.23,3.62c1.31,2.12,2,5,2,8.7,0,5-1.38,10.83-4.09,17.33a91,91,0,0,1-10.41,18.29,3.69,3.69,0,0,0,.77,1.67,2,2,0,0,0,1.53.49,3.66,3.66,0,0,0,1.47-.41,8.27,8.27,0,0,0,1.88-1.24A3.89,3.89,0,0,1,95,121.34a3.26,3.26,0,0,1,2.92,1.84,6,6,0,0,1,.7,2.92,7,7,0,0,1-2.52,5.56,12.82,12.82,0,0,1-8.36,3,10.89,10.89,0,0,1-9.34-4.6,26.22,26.22,0,0,1-2.83,2.22,14.06,14.06,0,0,1-8,2.38,10.24,10.24,0,0,1-9-4.76,30.14,30.14,0,0,1-3.42,2.22,19.36,19.36,0,0,1-9.65,2.54c-4.68,0-8.42-1.32-11.11-3.92A13.25,13.25,0,0,1,32,132.3,17.79,17.79,0,0,1,25.13,134,10.46,10.46,0,0,1,18.7,136Zm26.41-11.38a8.72,8.72,0,0,0,1.07.06,11.28,11.28,0,0,0,5.19-1.64,18,18,0,0,0,4-3,41.15,41.15,0,0,1-.24-4.55V115a11.73,11.73,0,0,1-3.22,5.6A18.14,18.14,0,0,1,45.11,124.64ZM67,122a4.09,4.09,0,0,0,.72,1.7,1.28,1.28,0,0,0,1,.4,5,5,0,0,0,3.11-1,24.24,24.24,0,0,0,3.07-3,40.48,40.48,0,0,1-.26-4.65c0-2.06.11-4.26.33-6.57A96.57,96.57,0,0,1,67,122Zm-50.62-.43c-.45.74-.89,1.44-1.34,2.09a8.42,8.42,0,0,1,1.71-.16l.81,0A13.41,13.41,0,0,0,16.41,121.57Zm28.39-9.25c-.3,0-1.08,0-2,1.6a8.45,8.45,0,0,0-1,2.49,8.93,8.93,0,0,0,2-1.21,2.94,2.94,0,0,0,1.31-2.36.78.78,0,0,0-.11-.48A.4.4,0,0,0,44.8,112.32Zm46.5-27c-.24.55-.54,1.27-.87,2.23a78.39,78.39,0,0,0-3,12c-.27,1.49-.5,3-.69,4.42.81-1.79,1.54-3.58,2.18-5.35a36.91,36.91,0,0,0,2.4-12.2C91.34,86.06,91.32,85.68,91.3,85.35Zm-19.55,0c-.25.55-.55,1.27-.88,2.23a80.47,80.47,0,0,0-3,12c-.27,1.49-.5,3-.69,4.42.81-1.79,1.54-3.58,2.18-5.35a36.91,36.91,0,0,0,2.4-12.2C71.78,86.06,71.77,85.68,71.75,85.35Z"/><path class="cls-2" d="M93,76a5.09,5.09,0,0,1,4.53,2.67q1.65,2.67,1.65,7.65,0,7.14-3.93,16.56a89.2,89.2,0,0,1-10.71,18.6A6.48,6.48,0,0,0,86,125,4,4,0,0,0,89,126.1a5.58,5.58,0,0,0,2.31-.6,9.72,9.72,0,0,0,2.37-1.56,2,2,0,0,1,1.32-.6,1.33,1.33,0,0,1,1.17.81,4,4,0,0,1,.45,1.95,5,5,0,0,1-1.8,4,10.81,10.81,0,0,1-7.08,2.58,8.86,8.86,0,0,1-8.34-4.77c-.2-.35-.38-.72-.55-1.1a24.86,24.86,0,0,1-4.4,3.83,12,12,0,0,1-6.87,2,8.33,8.33,0,0,1-7.83-4.8c-.19-.35-.36-.72-.52-1.09a25,25,0,0,1-5,3.61,17.39,17.39,0,0,1-8.67,2.28q-6.3,0-9.78-3.42A10.19,10.19,0,0,1,34.61,128a14,14,0,0,1-3.46,2.56A16.26,16.26,0,0,1,24.4,132a8.52,8.52,0,0,1-5.7,2,7,7,0,0,1-4.77-1.44,4.24,4.24,0,0,1-1.65-3.24,3.69,3.69,0,0,1,1.14-2.7,4.56,4.56,0,0,1,3.36-1.14,13.17,13.17,0,0,1,1.83.15l1.59.21a7.72,7.72,0,0,0-.69-2.94,14.69,14.69,0,0,0-1.59-2.67Q17,119,16.12,118a39.2,39.2,0,0,1-3.69,5.88,44,44,0,0,1-4,4.44,3.21,3.21,0,0,1-2.28,1.08,2,2,0,0,1-1.56-.69A2.51,2.51,0,0,1,4,127a3.42,3.42,0,0,1,.84-2.22l.78-1a77.54,77.54,0,0,0,5-6.72q1-1.74,2.4-4.65t2.7-6q1.14-2.64,4.74-2.64a6.29,6.29,0,0,1,2.34.3,1,1,0,0,1,.66,1,4.42,4.42,0,0,1-.24,1.14,8.67,8.67,0,0,1-.66,1.56,8.56,8.56,0,0,0-1.08,3.66,4,4,0,0,0,.63,2,22.47,22.47,0,0,0,1.95,2.7A38.12,38.12,0,0,1,27,120.37a7.79,7.79,0,0,1,1,3.87,16.25,16.25,0,0,1-.12,1.68,13.94,13.94,0,0,0,4.62-3.47,18.48,18.48,0,0,1-.18-2.53A17.36,17.36,0,0,1,34,112.21a14.25,14.25,0,0,1,4.83-5.67,12.15,12.15,0,0,1,7-2.1,7.6,7.6,0,0,1,5.58,2.07,7.52,7.52,0,0,1,2.1,5.61,9.7,9.7,0,0,1-3,7.11q-3,3-10.05,4.71,1.5,2.76,5.7,2.76a13.12,13.12,0,0,0,6.15-1.89,20.26,20.26,0,0,0,5.18-4.08,37.4,37.4,0,0,1-.35-5.25A85.31,85.31,0,0,1,59.05,98.8a56.6,56.6,0,0,1,5.58-16.08Q68.32,76,73.42,76A5.09,5.09,0,0,1,78,78.67q1.65,2.67,1.65,7.65,0,7.14-4,16.56A91.71,91.71,0,0,1,64.9,121.54a7,7,0,0,0,1.38,3.51,3.25,3.25,0,0,0,2.52,1,7,7,0,0,0,4.32-1.41,28.9,28.9,0,0,0,4-3.92,36.36,36.36,0,0,1-.36-5.29A85.31,85.31,0,0,1,78.61,98.8a56.6,56.6,0,0,1,5.58-16.08Q87.88,76,93,76M84,113.44a77.32,77.32,0,0,0,6.78-14.07A38.57,38.57,0,0,0,93.34,86.5q0-4.56-1.68-4.56-1.38,0-3.12,5a81.84,81.84,0,0,0-3.06,12.36A89.47,89.47,0,0,0,84,113.44m-19.56,0a77.32,77.32,0,0,0,6.78-14.07A38.57,38.57,0,0,0,73.78,86.5q0-4.56-1.68-4.56-1.38,0-3.12,5a81.84,81.84,0,0,0-3.06,12.36,89.47,89.47,0,0,0-1.44,14.16m-25,5.82a13.63,13.63,0,0,0,5.58-2.52,5,5,0,0,0,2-3.9,2.61,2.61,0,0,0-.63-1.83,2.2,2.2,0,0,0-1.71-.69q-2.22,0-3.75,2.58a12,12,0,0,0-1.53,6.24v.12M93,72c-4.19,0-7.79,2.11-10.74,6.29a13.27,13.27,0,0,0-.89-1.72A9.1,9.1,0,0,0,73.42,72c-5,0-9.09,3-12.3,8.79a60.88,60.88,0,0,0-6,17.22c-.39,1.91-.72,3.78-1,5.58a11.52,11.52,0,0,0-8.32-3.15,16.17,16.17,0,0,0-9.24,2.79,18.32,18.32,0,0,0-6.18,7.23,20.84,20.84,0,0,0-1.73,5.17c-.43-.62-.92-1.28-1.45-2l0-.06,0,0a17.2,17.2,0,0,1-1.59-2.19.52.52,0,0,1-.07-.12,6.17,6.17,0,0,1,.62-1.67,13.09,13.09,0,0,0,.92-2.21,7.88,7.88,0,0,0,.42-2.32,5,5,0,0,0-3-4.6,9.48,9.48,0,0,0-4-.66c-5.42,0-7.6,3.17-8.41,5-.86,2-1.75,4-2.64,5.91S7.8,114,7.19,115c-1,1.6-2.61,3.72-4.68,6.29l-.77,1A7.41,7.41,0,0,0,0,127a6.53,6.53,0,0,0,1.58,4.34,6,6,0,0,0,4.58,2.06,6.71,6.71,0,0,0,2.9-.66,9.06,9.06,0,0,0,2.24,2.85A10.89,10.89,0,0,0,18.7,138a12.51,12.51,0,0,0,7.13-2.11,19.39,19.39,0,0,0,7.09-1.81q.69-.34,1.38-.78a18,18,0,0,0,11.22,3.38,21.36,21.36,0,0,0,10.63-2.8c.71-.39,1.38-.8,2-1.22a12.08,12.08,0,0,0,9.36,4,16,16,0,0,0,9.1-2.72c.5-.33,1-.69,1.47-1.06a12.91,12.91,0,0,0,9.59,3.78,14.78,14.78,0,0,0,9.63-3.5,8.92,8.92,0,0,0,3.25-7.1,8,8,0,0,0-1-3.89A5.3,5.3,0,0,0,95,119.34,5.91,5.91,0,0,0,91,121a5.57,5.57,0,0,1-1.37.89,2.8,2.8,0,0,1-.56.21,92.68,92.68,0,0,0,9.9-17.66c2.81-6.74,4.24-12.83,4.24-18.1,0-4.11-.74-7.3-2.25-9.75A9.1,9.1,0,0,0,93,72ZM69.46,122.05c1.16-1.65,2.25-3.31,3.29-5,0,.8.07,1.59.14,2.36a18,18,0,0,1-2.19,2.06,2.73,2.73,0,0,1-1.24.55Z"/><path class="cls-1" d="M225.28,134.7a5.53,5.53,0,0,1-4.38-1.7,6.4,6.4,0,0,1-1.4-4.38,61,61,0,0,1,.86-8.22q.13-.93.24-1.68c-.48.88-1,1.89-1.47,3a41.42,41.42,0,0,0-2.23,6.64,10.46,10.46,0,0,1-2,4.7,5.47,5.47,0,0,1-4.27,1.62,5.18,5.18,0,0,1-4.74-3,11.77,11.77,0,0,1-1.22-5.52,52.67,52.67,0,0,1,.62-6.88c0-.14,0-.27,0-.41-.45.92-.9,1.95-1.34,3.09a51.93,51.93,0,0,0-2,6.35,10.72,10.72,0,0,1-2,4.66,5.35,5.35,0,0,1-4.23,1.67,5.16,5.16,0,0,1-4.84-3.12c-.32.2-.65.39-1,.58a19.39,19.39,0,0,1-9.65,2.54c-4.71,0-8.46-1.33-11.15-4-.68.57-1.35,1.09-2,1.56a13.29,13.29,0,0,1-7.77,2.4,7.74,7.74,0,0,1-6.12-2.45,9.43,9.43,0,0,1-2.06-6.45,38.25,38.25,0,0,1,.87-6.38l.06-.27c-.41.78-.83,1.64-1.24,2.59a41.42,41.42,0,0,0-2.23,6.64c-1,4.07-3.66,6.32-7.58,6.32a4.25,4.25,0,0,1-4.13-2.32,14.38,14.38,0,0,1-8.05,2.32c-6.5,0-14.24-3.33-14.24-19.22,0-1.1,0-2.22.07-3.34h-.23a5.11,5.11,0,0,1-3.88-1.28,4.87,4.87,0,0,1-1.18-3.48c0-5,3.6-5.36,4.7-5.36h1.72a59.69,59.69,0,0,1,3-10.78,29.14,29.14,0,0,1,5.46-9.33c2.37-2.58,5-3.89,7.87-3.89a6.48,6.48,0,0,1,5.64,3.13,12.07,12.07,0,0,1,1.76,6.67,22.06,22.06,0,0,1-5.11,14.2h2a5.09,5.09,0,0,1,1.21.14c.16-1,.33-1.92.51-2.89A60.16,60.16,0,0,1,144,81.86c2.82-5.22,6.39-7.86,10.61-7.86a7.3,7.3,0,0,1,6.09,3.2,12.28,12.28,0,0,1,2.09,7.32A28.35,28.35,0,0,1,159,98a51.85,51.85,0,0,1-3.15,5,9.38,9.38,0,0,1,3.26-.64c3.69,0,5.9,2.21,5.9,5.9a49.14,49.14,0,0,1-1.37,8.88,37.87,37.87,0,0,0-1.09,6.48,2.82,2.82,0,0,0,0,.31,4.74,4.74,0,0,0,1.25-.87c.39-.35.85-.8,1.37-1.35-.06-.62-.09-1.24-.09-1.87a19.45,19.45,0,0,1,1.94-8.59,16.31,16.31,0,0,1,5.5-6.44,14.13,14.13,0,0,1,8.12-2.45,9.17,9.17,0,0,1,9.68,9.68,11.67,11.67,0,0,1-3.56,8.52,18.22,18.22,0,0,1-6.83,4,8.6,8.6,0,0,0,1.07.06,11.32,11.32,0,0,0,5.19-1.64,18.34,18.34,0,0,0,3.53-2.53A50.62,50.62,0,0,1,192,107.2a6.46,6.46,0,0,1,2.58-3.62,8,8,0,0,1,4.55-1.14,5,5,0,0,1,2.73.6,3.16,3.16,0,0,1,1.43,2.84,6.52,6.52,0,0,1-.12,1.16,16.68,16.68,0,0,1,3-2.67,10.11,10.11,0,0,1,5.59-1.93,5.72,5.72,0,0,1,4.45,1.62,6,6,0,0,1,1.38,3.84,16.83,16.83,0,0,1,4.39-3.84,10.68,10.68,0,0,1,5.32-1.62,5.46,5.46,0,0,1,5.9,5.9,48.57,48.57,0,0,1-.69,6.18c-.39,2.41-.71,4.7-.95,6.85a65.82,65.82,0,0,0-.34,7.07,6.44,6.44,0,0,1-1.48,4.64A5.87,5.87,0,0,1,225.28,134.7Zm-99.17-22.56c0,1.07,0,2,0,2.68,0,4.71.65,6.82,1.2,7.75a3,3,0,0,0,2.92,1.53A5.18,5.18,0,0,0,133.5,123a26.77,26.77,0,0,0,2.76-2.6l0-1.49q0-3.7.3-7.56a13.47,13.47,0,0,1-5.08.82Zm53.51.18c-.3,0-1.08,0-2,1.6a8.56,8.56,0,0,0-1,2.49,9.16,9.16,0,0,0,2-1.21,2.94,2.94,0,0,0,1.31-2.36.85.85,0,0,0-.11-.48A.4.4,0,0,0,179.62,112.32ZM152.78,85.81a50.73,50.73,0,0,0-2.45,8c-.18.78-.35,1.58-.52,2.39.32-.6.62-1.2.91-1.81A20.56,20.56,0,0,0,153,85.9c0-.17,0-.33,0-.48ZM129.83,90a36.79,36.79,0,0,0-1.46,4.73c-.08.3-.15.61-.22.92l.12-.26A15.74,15.74,0,0,0,129.83,90Z"/><path class="cls-2" d="M154.6,76a5.27,5.27,0,0,1,4.47,2.37,10.27,10.27,0,0,1,1.71,6.15,26.29,26.29,0,0,1-3.54,12.57q-3.54,6.51-11.52,15.21-.18,3.12-.18,6.42a34.43,34.43,0,0,1,4.41-8.31,17.21,17.21,0,0,1,4.8-4.59,8.78,8.78,0,0,1,4.35-1.38q3.9,0,3.9,3.9a48.22,48.22,0,0,1-1.32,8.46,41.64,41.64,0,0,0-1.14,6.9q0,2.4,1.74,2.4a4.69,4.69,0,0,0,2.85-1.47,29.44,29.44,0,0,0,2.13-2.16,18,18,0,0,1,1.56-10.26,14.25,14.25,0,0,1,4.83-5.67,12.15,12.15,0,0,1,7-2.1,7.6,7.6,0,0,1,5.58,2.07,7.52,7.52,0,0,1,2.1,5.61,9.7,9.7,0,0,1-3,7.11q-3,3-10,4.71,1.5,2.76,5.7,2.76a13.12,13.12,0,0,0,6.15-1.89,20.24,20.24,0,0,0,4.55-3.4,48.39,48.39,0,0,1,2.2-13.61,4.51,4.51,0,0,1,1.77-2.55,6.24,6.24,0,0,1,3.45-.81,3.38,3.38,0,0,1,1.68.3,1.24,1.24,0,0,1,.48,1.14,22.87,22.87,0,0,1-.9,4.32q-.6,2.4-1,4.17a41.58,41.58,0,0,0-.6,4.41,32.47,32.47,0,0,1,3.87-7.92,18.23,18.23,0,0,1,4.62-4.83,8.12,8.12,0,0,1,4.47-1.59,3.86,3.86,0,0,1,3,1,4.27,4.27,0,0,1,.87,2.94,38,38,0,0,1-1.14,7q-.48,2.16-.66,3.24a34.06,34.06,0,0,1,4.41-8.22,17.09,17.09,0,0,1,4.77-4.53,8.76,8.76,0,0,1,4.32-1.35,3.48,3.48,0,0,1,3.9,3.9,47.5,47.5,0,0,1-.66,5.88q-.6,3.66-1,6.93a67.05,67.05,0,0,0-.36,7.29,4.7,4.7,0,0,1-.93,3.27,4,4,0,0,1-3,1,3.66,3.66,0,0,1-2.88-1,4.51,4.51,0,0,1-.9-3.06,60.2,60.2,0,0,1,.84-7.92,56.52,56.52,0,0,0,.72-6.12q0-1-.66-1t-2.22,2a29.48,29.48,0,0,0-2.88,5.31,43.1,43.1,0,0,0-2.34,7,9.15,9.15,0,0,1-1.53,3.84,3.6,3.6,0,0,1-2.79,1,3.18,3.18,0,0,1-3-1.89,9.79,9.79,0,0,1-1-4.59,51.93,51.93,0,0,1,.6-6.6q.48-3.84.48-5,0-1-.66-1-.9,0-2.28,2.16a31,31,0,0,0-2.67,5.52,53.11,53.11,0,0,0-2.07,6.6,9.36,9.36,0,0,1-1.53,3.81,3.45,3.45,0,0,1-2.73,1,3.28,3.28,0,0,1-3.21-2.4,10.42,10.42,0,0,1-.51-1.89,26.61,26.61,0,0,1-3.09,2,17.39,17.39,0,0,1-8.67,2.28q-6.3,0-9.78-3.42a11.29,11.29,0,0,1-1.19-1.4,28.76,28.76,0,0,1-3.34,2.78,11.27,11.27,0,0,1-6.63,2,5.83,5.83,0,0,1-4.62-1.77,7.53,7.53,0,0,1-1.56-5.13,37.46,37.46,0,0,1,.84-6,31.05,31.05,0,0,0,.78-5.22q0-1-.66-1t-2.22,2a29.48,29.48,0,0,0-2.88,5.31,43.1,43.1,0,0,0-2.34,7q-1.14,4.8-5.64,4.8a2.32,2.32,0,0,1-2.37-1.29,8.07,8.07,0,0,1-.5-2.52,23.76,23.76,0,0,1-2.29,1.77,12.36,12.36,0,0,1-7,2q-12.24,0-12.24-17.22,0-2.64.18-5.34h-2.34a3.37,3.37,0,0,1-2.43-.66,3,3,0,0,1-.63-2.1q0-3.36,2.7-3.36h3.42A58.39,58.39,0,0,1,120.7,92a27.21,27.21,0,0,1,5.07-8.7q3-3.24,6.39-3.24a4.49,4.49,0,0,1,4,2.22,10.06,10.06,0,0,1,1.44,5.58q0,9.3-7.8,16.2h6.72a1.9,1.9,0,0,1,1.38.42,2.21,2.21,0,0,1,.42,1.56q0,4.14-6.78,4.14h-7.32q-.12,3-.12,4.68,0,6.24,1.47,8.76a5,5,0,0,0,4.65,2.52,7.16,7.16,0,0,0,4.56-1.56,31.77,31.77,0,0,0,3.51-3.37l0-2.27a103.92,103.92,0,0,1,1.89-19.26,57.88,57.88,0,0,1,5.58-16.83Q149.44,76,154.6,76m-8.22,28.8a42.94,42.94,0,0,0,6.15-9.54A22.28,22.28,0,0,0,155,85.9a8,8,0,0,0-.42-2.94q-.42-1-1.2-1-1.08,0-2.4,3.09a52.36,52.36,0,0,0-2.55,8.34,111.37,111.37,0,0,0-2,11.43m-21.6-1.68a20.49,20.49,0,0,0,5.31-6.87,16.66,16.66,0,0,0,1.77-6.93q0-3.54-1.32-3.54-.9,0-2,2.25a32,32,0,0,0-2.1,6.24,83.64,83.64,0,0,0-1.65,8.85m49.56,16.14a13.63,13.63,0,0,0,5.58-2.52,5,5,0,0,0,2-3.9,2.61,2.61,0,0,0-.63-1.83,2.2,2.2,0,0,0-1.71-.69q-2.22,0-3.75,2.58a12,12,0,0,0-1.53,6.24v.12M154.6,72c-5,0-9.17,3-12.37,8.9-.43.81-.85,1.64-1.25,2.5a12.34,12.34,0,0,0-1.51-3.34,8.51,8.51,0,0,0-7.31-4c-3.44,0-6.58,1.53-9.34,4.54a31.37,31.37,0,0,0-5.86,10,60.65,60.65,0,0,0-2.73,9.5h-.07c-3.09,0-6.7,1.93-6.7,7.36a6.73,6.73,0,0,0,1.74,4.86,6.11,6.11,0,0,0,3.49,1.76c0,.49,0,1,0,1.48,0,18.46,10.17,21.22,16.24,21.22a16.62,16.62,0,0,0,7.52-1.71,6.62,6.62,0,0,0,4.66,1.71,9.13,9.13,0,0,0,8.94-6,9.48,9.48,0,0,0,1.74,2.89,9.71,9.71,0,0,0,7.62,3.12,15.25,15.25,0,0,0,8.92-2.76l.82-.6a18,18,0,0,0,11.2,3.36,21.35,21.35,0,0,0,10-2.46,7,7,0,0,0,5.48,2.46,7.28,7.28,0,0,0,5.73-2.35,9.72,9.72,0,0,0,1.83-3.44,12.54,12.54,0,0,0,.74,1.76,7.21,7.21,0,0,0,6.52,4,7.43,7.43,0,0,0,5.75-2.27,8.6,8.6,0,0,0,1.57-2.65,7.28,7.28,0,0,0,1.44,2.55,7.47,7.47,0,0,0,5.88,2.37,7.79,7.79,0,0,0,5.94-2.25,8.45,8.45,0,0,0,2-6,64.3,64.3,0,0,1,.33-6.85c.24-2.11.55-4.37.93-6.72a45.91,45.91,0,0,0,.72-6.53,7.44,7.44,0,0,0-7.9-7.9,12.61,12.61,0,0,0-6.32,1.89,16.12,16.12,0,0,0-2.37,1.68,6.18,6.18,0,0,0-.92-1.29,7.59,7.59,0,0,0-5.93-2.28,12,12,0,0,0-6.7,2.27q-.26.17-.51.36a4.91,4.91,0,0,0-1.64-1.72,7,7,0,0,0-3.81-.91,10.08,10.08,0,0,0-5.65,1.47,8.1,8.1,0,0,0-3,3.57,10.65,10.65,0,0,0-1.47-1.82,11.52,11.52,0,0,0-8.39-3.22,16.13,16.13,0,0,0-9.24,2.79,17.78,17.78,0,0,0-4.43,4.31,7.26,7.26,0,0,0-7.05-7.07c.29-.5.57-1,.83-1.47a30.37,30.37,0,0,0,4-14.48A14.19,14.19,0,0,0,162.31,76a9.2,9.2,0,0,0-7.71-4Zm-26.54,42.14h3.44a19.76,19.76,0,0,0,2.91-.2c-.09,1.67-.13,3.33-.13,5v.66a21.71,21.71,0,0,1-2,1.84,3.17,3.17,0,0,1-2.08.7c-.88,0-1-.24-1.2-.53s-.92-2-.92-6.75v-.68Z"/><path class="cls-1" d="M330,135.06a5.73,5.73,0,0,1-4.29-1.63,7.19,7.19,0,0,1-1.19-1.72,10.27,10.27,0,0,1-7.6,3,9.61,9.61,0,0,1-7.3-3.14q-.51.41-1,.75a13.62,13.62,0,0,1-7.88,2.39,7.77,7.77,0,0,1-6.13-2.45,9.49,9.49,0,0,1-2.05-6.45,38.25,38.25,0,0,1,.87-6.38l0-.13c-.39.74-.79,1.57-1.19,2.46a40.38,40.38,0,0,0-2.25,6.63,10.85,10.85,0,0,1-2,4.65,5.36,5.36,0,0,1-4.23,1.67,5.09,5.09,0,0,1-4.52-2.53l0,0a10.84,10.84,0,0,1-6.55,2.51,7.61,7.61,0,0,1-4.9-1.8,9.37,9.37,0,0,1-1.51-1.57,10.12,10.12,0,0,1-7.57,3.37,9.23,9.23,0,0,1-7.49-3.43,12.8,12.8,0,0,1-2.67-8.35,21.58,21.58,0,0,1,2.44-10,21,21,0,0,1,6.53-7.61,15.33,15.33,0,0,1,9-3,4.12,4.12,0,0,1,3.27,1.19,4.08,4.08,0,0,1,.62,1c.42,0,.84,0,1.27,0,3.64,0,4.94,2.12,4.94,4.1a39.72,39.72,0,0,1-.94,6.37,60.55,60.55,0,0,0-1.34,9,6.57,6.57,0,0,0,1-.79,33.31,33.31,0,0,0,2.33-2.41A50.11,50.11,0,0,1,280,107.2a6.41,6.41,0,0,1,2.58-3.62,8,8,0,0,1,4.55-1.14,5.07,5.07,0,0,1,2.73.6,3.16,3.16,0,0,1,1.43,2.84,9.08,9.08,0,0,1-.2,1.62,16.68,16.68,0,0,1,4-3.41,10.8,10.8,0,0,1,5.36-1.65c3.69,0,5.9,2.21,5.9,5.9a49.14,49.14,0,0,1-1.37,8.88,37.87,37.87,0,0,0-1.09,6.48,2.82,2.82,0,0,0,0,.31,4.74,4.74,0,0,0,1.24-.87c.41-.36.89-.84,1.44-1.42a21.25,21.25,0,0,1,2.22-8.63,20.29,20.29,0,0,1,6.18-7.41,18.49,18.49,0,0,1,7.28-3.26,77.2,77.2,0,0,1,4.31-18.73C329,77.26,332.54,74,337,74a7.13,7.13,0,0,1,5.9,3.16c1.41,1.93,2.1,4.63,2.1,8.26a47.89,47.89,0,0,1-3.37,16.11,123.83,123.83,0,0,1-8.38,17.89,77.2,77.2,0,0,0,1.78,8.81,7.51,7.51,0,0,1,.3,2.13C335.33,133.3,333.35,135.06,330,135.06Zm-8.42-21.36a9.44,9.44,0,0,0-1.71,2.07,11.76,11.76,0,0,0-1.86,6.49c0,2.38.66,2.38,1,2.38a1.61,1.61,0,0,0,1.06-.45,12.74,12.74,0,0,0,2-2.43A70.29,70.29,0,0,1,321.62,113.7Zm-56.84-1a7.12,7.12,0,0,0-.73.56,10.81,10.81,0,0,0-2.85,4.08,14.44,14.44,0,0,0-1.1,5.59,2.47,2.47,0,0,0,.28,1.48c.06.07.15.18.54.18.12,0,.46-.16.93-.78a8.23,8.23,0,0,0,1.37-3.33Zm70.83-24.62c-.18.83-.37,1.81-.57,3-.24,1.38-.46,2.8-.66,4.24A37.8,37.8,0,0,0,335.61,88.13Z"/><path class="cls-2" d="M337,76a5.15,5.15,0,0,1,4.29,2.34c1.13,1.56,1.71,3.92,1.71,7.08a45.51,45.51,0,0,1-3.25,15.42A121.16,121.16,0,0,1,331.17,119a82.27,82.27,0,0,0,1.92,9.72,5.48,5.48,0,0,1,.24,1.62c0,1.8-1.1,2.7-3.29,2.7a3.76,3.76,0,0,1-2.85-1,9.73,9.73,0,0,1-1.83-3.84l-.07-.24a14.61,14.61,0,0,1-4.1,3.78,9,9,0,0,1-4.23,1,7.64,7.64,0,0,1-6-2.73,9.29,9.29,0,0,1-.93-1.3,24,24,0,0,1-2.48,2,11.64,11.64,0,0,1-6.75,2,5.82,5.82,0,0,1-4.62-1.77,7.48,7.48,0,0,1-1.56-5.13,36.3,36.3,0,0,1,.84-6,32.17,32.17,0,0,0,.78-5.22q0-1-.66-1t-2.19,2a32.22,32.22,0,0,0-2.88,5.31,41.3,41.3,0,0,0-2.37,7,9.5,9.5,0,0,1-1.53,3.81,3.45,3.45,0,0,1-2.73,1,3.27,3.27,0,0,1-3.21-2.4,10.61,10.61,0,0,1-.44-1.51,27,27,0,0,1-2.11,1.81,8.9,8.9,0,0,1-5.34,2.1,5.6,5.6,0,0,1-3.63-1.35,8.23,8.23,0,0,1-2.49-3.69q-3.12,5-7.86,5a7.3,7.3,0,0,1-5.94-2.7,10.79,10.79,0,0,1-2.22-7.08,19.51,19.51,0,0,1,2.22-9.09,19,19,0,0,1,5.91-6.9,13.33,13.33,0,0,1,7.83-2.61,2.34,2.34,0,0,1,1.77.51,4.31,4.31,0,0,1,.75,1.83,14.09,14.09,0,0,1,2.64-.24q2.94,0,2.94,2.1a45,45,0,0,1-.9,6,58.23,58.23,0,0,0-1.38,9.6,2.18,2.18,0,0,0,.45,1.44,1.45,1.45,0,0,0,1.17.54,4.56,4.56,0,0,0,2.76-1.47,38.35,38.35,0,0,0,2.95-3.11,48.51,48.51,0,0,1,2.21-13.72,4.51,4.51,0,0,1,1.77-2.55,6.22,6.22,0,0,1,3.45-.81,3.38,3.38,0,0,1,1.68.3,1.26,1.26,0,0,1,.48,1.14,22.87,22.87,0,0,1-.9,4.32q-.6,2.4-1,4.2a43,43,0,0,0-.6,4.44,33.78,33.78,0,0,1,4.44-8.4,17.41,17.41,0,0,1,4.83-4.62,8.78,8.78,0,0,1,4.35-1.38q3.9,0,3.9,3.9A48.22,48.22,0,0,1,303,116.8a41.64,41.64,0,0,0-1.14,6.9c0,1.6.57,2.4,1.74,2.4a4.71,4.71,0,0,0,2.85-1.47c.58-.52,1.28-1.22,2.07-2.09a19.65,19.65,0,0,1,2-8.56,18.39,18.39,0,0,1,5.58-6.69,16.58,16.58,0,0,1,7.92-3.15,76.59,76.59,0,0,1,4.36-19.74Q331.65,76,337,76m-6,34.08q6.66-14.4,6.66-23.4a12.47,12.47,0,0,0-.4-3.54c-.26-.84-.56-1.26-.93-1.26q-1.74,0-3.26,8.88A161.89,161.89,0,0,0,331,110.08m-70.08,16.56a3.29,3.29,0,0,0,2.52-1.56,10.12,10.12,0,0,0,1.74-4.14l2.22-11a7.27,7.27,0,0,0-4.65,1.89,12.73,12.73,0,0,0-3.39,4.83A16.26,16.26,0,0,0,258.1,123a4.25,4.25,0,0,0,.75,2.76,2.55,2.55,0,0,0,2.07.9m58.13,0a3.67,3.67,0,0,0,2.32-.9,17.36,17.36,0,0,0,2.84-3.48,66.73,66.73,0,0,1-.59-9.06c0-1.24,0-2.2.05-2.88a9.65,9.65,0,0,0-5.46,4.38,13.87,13.87,0,0,0-2.16,7.56q0,4.38,3,4.38M337,72c-3.7,0-8.83,1.9-12.29,11a78.25,78.25,0,0,0-4.26,17.83,20.73,20.73,0,0,0-6.65,3.27,22.14,22.14,0,0,0-5.53,5.92c.06-.63.09-1.17.09-1.65,0-4.8-3.11-7.9-7.9-7.9a12.82,12.82,0,0,0-6.37,1.92c-.46.28-.93.58-1.39.92a4.88,4.88,0,0,0-1.76-1.93,7,7,0,0,0-3.8-.91,10.11,10.11,0,0,0-5.66,1.47,8.31,8.31,0,0,0-3.26,4.32c-.84-2.12-2.94-3.81-6.5-3.81h-.2l-.19-.23a6.06,6.06,0,0,0-4.77-1.87,17.28,17.28,0,0,0-10.14,3.34,23,23,0,0,0-7.16,8.33,23.56,23.56,0,0,0-2.66,10.93,14.68,14.68,0,0,0,3.13,9.62,11.28,11.28,0,0,0,9,4.16,11.92,11.92,0,0,0,7.44-2.57l.37.32a9.71,9.71,0,0,0,6.17,2.25,12,12,0,0,0,6.2-1.85,7.06,7.06,0,0,0,4.9,1.85,7.28,7.28,0,0,0,5.73-2.35,10.12,10.12,0,0,0,1.87-3.56,9.41,9.41,0,0,0,1.7,2.79,9.69,9.69,0,0,0,7.62,3.12,15.6,15.6,0,0,0,8.74-2.56A11.68,11.68,0,0,0,317,136.7a13,13,0,0,0,6.08-1.42,10.42,10.42,0,0,0,1.09-.65l.19.2a7.69,7.69,0,0,0,5.72,2.23c5.38,0,7.29-3.61,7.29-6.7a9.78,9.78,0,0,0-.38-2.7,75,75,0,0,1-1.62-7.86,125.07,125.07,0,0,0,8.18-17.58A49.93,49.93,0,0,0,347,85.42c0-4.07-.82-7.16-2.48-9.44A9.1,9.1,0,0,0,337,72Z"/><path class="cls-1" d="M414.69,161.7a8.77,8.77,0,0,1-6.38-2.46,8.61,8.61,0,0,1-2.52-6.38,16.25,16.25,0,0,1,1.46-6.56,27.59,27.59,0,0,1,5.16-7.3,58.73,58.73,0,0,1,4.46-4.3,7.12,7.12,0,0,1-5.7-3.08l-.95.69a13.63,13.63,0,0,1-7.89,2.39,6.56,6.56,0,0,1-5.93-3.18,5.76,5.76,0,0,1-.38-.69,11.05,11.05,0,0,1-.86,1,7.9,7.9,0,0,1-5.85,2.83,7.14,7.14,0,0,1-6.05-3.36,12.69,12.69,0,0,1-2.07-7.34c0-.2,0-.39,0-.59-.32,0-.64.07-1,.09a17.08,17.08,0,0,1-4.72,7.61,12.63,12.63,0,0,1-8.71,3.59c-4.77,0-8.32-1.88-10.53-5.59-2-3.43-3-8.14-3-14.41a84.28,84.28,0,0,1,2-17.24A55,55,0,0,1,361,81.39c2.83-4.9,6.37-7.39,10.52-7.39a7.22,7.22,0,0,1,6.08,3.21,12.4,12.4,0,0,1,2,7.31,29.29,29.29,0,0,1-2,10.49,37.06,37.06,0,0,1-4.56,8.22,11,11,0,0,1,4.59,3.32,15.18,15.18,0,0,1,3.14,6.56c.47-.06,1-.15,1.47-.24a56.26,56.26,0,0,1,1.55-5.69,7,7,0,0,1,2.41-3.58,7.73,7.73,0,0,1,4.59-1.16,4.77,4.77,0,0,1,3.1.87,3.49,3.49,0,0,1,1.24,2.81,18.07,18.07,0,0,1-.71,3.7c-.4,1.5-.72,2.81-.94,4-.73,3.78-1,5.91-1.12,7.1a26.19,26.19,0,0,0,2.5-4.84,71.26,71.26,0,0,0,2.88-8.75,5.86,5.86,0,0,1,6.37-4.84,5.69,5.69,0,0,1,3,.62,3.25,3.25,0,0,1,1.49,2.94c0,.8-.17,2.51-1.54,8.66-1.42,6.48-1.64,8.45-1.64,9a2.41,2.41,0,0,0,0,.31,4.74,4.74,0,0,0,1.24-.87,30,30,0,0,0,2.26-2.31,51,51,0,0,1,.55-5.4,53.06,53.06,0,0,1,2-8.25A7,7,0,0,1,414,103.6a7.73,7.73,0,0,1,4.59-1.16,4.77,4.77,0,0,1,3.1.87,3.49,3.49,0,0,1,1.24,2.81,18.07,18.07,0,0,1-.71,3.7c-.4,1.5-.72,2.81-.94,4-.32,1.59-.59,3.15-.83,4.64-.15,1-.25,1.78-.3,2.48a26.08,26.08,0,0,0,2.51-4.86,71.26,71.26,0,0,0,2.88-8.75,5.86,5.86,0,0,1,6.37-4.84,5.28,5.28,0,0,1,3,.7,3.26,3.26,0,0,1,1.43,2.86c0,.75-.18,2.63-1.59,10.61-.91,5.6-1.45,8.93-1.61,10-1.49,10.39-3.6,18.78-6.26,24.92C424,158.27,419.86,161.7,414.69,161.7Zm3.89-16.27a17.31,17.31,0,0,0-1.15,1.58,9.28,9.28,0,0,0-1.75,4.43,12.06,12.06,0,0,0,1.27-2A25.78,25.78,0,0,0,418.58,145.43Zm-52.12-32a6.35,6.35,0,0,0-.42.54,9.54,9.54,0,0,0-1.31,5.39,7.14,7.14,0,0,0,.92,4.05c.69,1,1.21,1,1.4,1a2.33,2.33,0,0,0,1.83-.92,5.49,5.49,0,0,0,1.18-2.33,10.26,10.26,0,0,1-2.43-3.24A11.53,11.53,0,0,1,366.46,113.39Zm3.38-28.12c-.13.27-.27.6-.42,1a55.87,55.87,0,0,0-2.5,9.34c-.12.59-.23,1.19-.34,1.8.38-.82.74-1.62,1.07-2.4a23.81,23.81,0,0,0,2.2-9.08C369.85,85.67,369.85,85.46,369.84,85.27Z"/><path class="cls-2" d="M371.55,76A5.2,5.2,0,0,1,376,78.37a10.4,10.4,0,0,1,1.68,6.15,27.18,27.18,0,0,1-1.86,9.78,38.38,38.38,0,0,1-6.18,10.2,9,9,0,0,1,6.54,3.33,13.68,13.68,0,0,1,3,7.47,32.38,32.38,0,0,0,4.84-.74,55,55,0,0,1,1.76-6.76,5,5,0,0,1,1.68-2.58,5.91,5.91,0,0,1,3.42-.78,3,3,0,0,1,1.83.42,1.54,1.54,0,0,1,.51,1.26,24.91,24.91,0,0,1-.66,3.24q-.6,2.22-1,4a56.75,56.75,0,0,0-1.2,8.4,3.74,3.74,0,0,0,.3,1.77,1,1,0,0,0,1,.51q.9,0,2.25-1.8a26.45,26.45,0,0,0,2.88-5.46,73,73,0,0,0,3-9,3.9,3.9,0,0,1,4.44-3.36,4,4,0,0,1,1.92.33,1.32,1.32,0,0,1,.54,1.23,58.12,58.12,0,0,1-1.5,8.22,66.51,66.51,0,0,0-1.68,9.48,2.87,2.87,0,0,0,.48,1.77,1.51,1.51,0,0,0,1.26.63,4.69,4.69,0,0,0,2.85-1.47,35,35,0,0,0,2.9-3,49.45,49.45,0,0,1,.55-5.87,51.79,51.79,0,0,1,2-8,5,5,0,0,1,1.68-2.58,5.91,5.91,0,0,1,3.42-.78,3,3,0,0,1,1.83.42,1.54,1.54,0,0,1,.51,1.26,24.91,24.91,0,0,1-.66,3.24q-.6,2.22-1,4-.48,2.46-.84,4.71a24.3,24.3,0,0,0-.36,3.69q0,2.28,1.26,2.28.9,0,2.25-1.8a26.45,26.45,0,0,0,2.88-5.46,73,73,0,0,0,3-9,3.9,3.9,0,0,1,4.44-3.36,3.68,3.68,0,0,1,1.92.36,1.33,1.33,0,0,1,.54,1.2q0,1.44-1.56,10.26-1.38,8.46-1.62,10Q429,141.7,425.07,150.7t-10.38,9a6.8,6.8,0,0,1-5-1.89,6.64,6.64,0,0,1-1.92-4.95,14.27,14.27,0,0,1,1.29-5.76,26.07,26.07,0,0,1,4.8-6.75,79.52,79.52,0,0,1,9.93-8.73l.18-1.38q.42-2.22,1-6.36a15.24,15.24,0,0,1-3.36,6.57A6.32,6.32,0,0,1,417,132.7a5.16,5.16,0,0,1-4.41-2.49,9.65,9.65,0,0,1-.88-1.69,24,24,0,0,1-2.66,2.14,11.64,11.64,0,0,1-6.75,2,4.59,4.59,0,0,1-4.23-2.22,12,12,0,0,1-1.35-6.24,14.05,14.05,0,0,1-3.06,6.27,6,6,0,0,1-4.38,2.19,5.16,5.16,0,0,1-4.41-2.49,10.72,10.72,0,0,1-1.71-6.21c0-1,0-2,.08-3a29.89,29.89,0,0,1-4.58.55,15.61,15.61,0,0,1-4.52,8,10.67,10.67,0,0,1-7.36,3.06q-6.06,0-8.82-4.62t-2.76-13.38a81.81,81.81,0,0,1,1.92-16.83,52.6,52.6,0,0,1,5.61-15.48Q366.45,76,371.55,76m-8.4,32.58q4-7.26,6.33-12.81a25.6,25.6,0,0,0,2.37-9.87A7.54,7.54,0,0,0,371.4,83q-.45-1-1.23-1-1.2,0-2.61,3.57A57.42,57.42,0,0,0,365,95.2a122,122,0,0,0-1.8,13.38m3.9,17.76a4.38,4.38,0,0,0,3.3-1.56,8.51,8.51,0,0,0,1.92-4.5,8.28,8.28,0,0,1-2.85-3.3,9.77,9.77,0,0,1-1-4.32,14.69,14.69,0,0,1,.24-2.28h-.18a4.85,4.85,0,0,0-4.11,2.43,11.41,11.41,0,0,0-1.65,6.51,8.9,8.9,0,0,0,1.29,5.22,3.7,3.7,0,0,0,3,1.8m48.3,27.54q1.5,0,3.36-3.48t3.72-11.58a34.15,34.15,0,0,0-6.69,7.11,10.81,10.81,0,0,0-2.07,5.61,3.26,3.26,0,0,0,.39,1.68,1.38,1.38,0,0,0,1.29.66M371.55,72c-3.38,0-8.25,1.46-12.25,8.39A56.83,56.83,0,0,0,353.24,97a86.25,86.25,0,0,0-2,17.66c0,6.64,1.09,11.69,3.33,15.43,1.79,3,5.37,6.57,12.25,6.57a14.54,14.54,0,0,0,10.06-4.11,18.55,18.55,0,0,0,3-3.63,13.12,13.12,0,0,0,1.7,3.51,9,9,0,0,0,7.7,4.23,9.59,9.59,0,0,0,6.5-2.66,8.71,8.71,0,0,0,6.52,2.66,15.6,15.6,0,0,0,8.53-2.42,9.43,9.43,0,0,0,2,1.41c-.69.67-1.32,1.32-1.9,1.95a29.69,29.69,0,0,0-5.52,7.85,18.31,18.31,0,0,0-1.63,7.37,10.64,10.64,0,0,0,3.12,7.8,10.82,10.82,0,0,0,7.78,3c4.16,0,10-2,14.05-11.41,2.73-6.3,4.89-14.86,6.41-25.44.16-1,.7-4.34,1.61-9.92,1.42-8,1.61-10,1.61-10.93a5.32,5.32,0,0,0-2.32-4.53,7.21,7.21,0,0,0-4.14-1,8.56,8.56,0,0,0-5.44,1.64,7.34,7.34,0,0,0-1.83,2.14,5.39,5.39,0,0,0-1.67-2.45,6.62,6.62,0,0,0-4.38-1.33,9.57,9.57,0,0,0-5.75,1.53,8,8,0,0,0-2.33,2.69,5,5,0,0,0-2.31-3.3,7.42,7.42,0,0,0-4-.92,8.56,8.56,0,0,0-5.44,1.64,7.34,7.34,0,0,0-1.83,2.14,5.39,5.39,0,0,0-1.67-2.45,6.6,6.6,0,0,0-4.38-1.33,9.57,9.57,0,0,0-5.75,1.53,8.93,8.93,0,0,0-3.14,4.57c-.22.66-.43,1.33-.62,2a16.92,16.92,0,0,0-2.11-3.25,13.61,13.61,0,0,0-3.19-2.8,37.13,37.13,0,0,0,3.49-6.74,31.32,31.32,0,0,0,2.12-11.21,14.35,14.35,0,0,0-2.41-8.46A9.13,9.13,0,0,0,371.55,72Zm-4.28,50.21a4,4,0,0,1-.49-1.84,10.3,10.3,0,0,0,1,1.22,2.78,2.78,0,0,1-.32.48l-.15.14Z"/><path class="cls-1" d="M603.93,136a9,9,0,0,1-6.08-1.93,6.25,6.25,0,0,1-2.34-4.63,25,25,0,0,1-3.55,2.86,14.35,14.35,0,0,1-8.13,2.38c-5,0-8.86-2-11.26-5.86a26.82,26.82,0,0,1-4.08,3.47,13.62,13.62,0,0,1-7.88,2.39,6.58,6.58,0,0,1-5.94-3.18c-.13-.22-.26-.45-.38-.69a11,11,0,0,1-.85,1,7.9,7.9,0,0,1-5.85,2.83,7.08,7.08,0,0,1-5.86-3.08q-.48.36-1,.69a13.62,13.62,0,0,1-7.88,2.39,7.74,7.74,0,0,1-6.12-2.45,9.49,9.49,0,0,1-2.06-6.45,38.58,38.58,0,0,1,.88-6.38.59.59,0,0,0,0-.13c-.39.75-.78,1.57-1.18,2.46a39.18,39.18,0,0,0-2.26,6.63,10.73,10.73,0,0,1-2,4.65A5.33,5.33,0,0,1,516,134.7,5.26,5.26,0,0,1,510.9,131a22.71,22.71,0,0,1-1.06-7.63l-1.06.11a16.54,16.54,0,0,1-4.73,7.66,13.07,13.07,0,0,1-9,3.54,12.57,12.57,0,0,1-7.27-2.09,12.77,12.77,0,0,1-2-1.71c-.54.46-1.09.89-1.64,1.29a11.89,11.89,0,0,1-7,2.51,8.72,8.72,0,0,1-7.29-3.9,14.32,14.32,0,0,1-3.08,2.56,10.77,10.77,0,0,1-5.41,1.34,9.59,9.59,0,0,1-7.54-3.42,12.42,12.42,0,0,1-2.86-8.42,21.87,21.87,0,0,1,2.25-9.8,20.23,20.23,0,0,1,6.22-7.44,18.31,18.31,0,0,1,7.37-3.22,75.78,75.78,0,0,1,4.31-18.88C473.58,77.2,477,74,481.41,74a7.14,7.14,0,0,1,5.91,3.16c1.41,1.93,2.09,4.63,2.09,8.26A48.93,48.93,0,0,1,486,101.83a119.26,119.26,0,0,1-8.65,18.25,9.69,9.69,0,0,0,.76,3.57,1.24,1.24,0,0,0,.35.46,3.33,3.33,0,0,0,2-1,19.2,19.2,0,0,0,1.43-1.38,16.11,16.11,0,0,1-.09-1.66,20.41,20.41,0,0,1,1.95-9,15.69,15.69,0,0,1,5.49-6.37,14.16,14.16,0,0,1,7.88-2.34,11.33,11.33,0,0,1,8.85,3.82,15.12,15.12,0,0,1,3.45,6.91c.43-.06.88-.14,1.35-.22a48.29,48.29,0,0,1,1.43-5.69,6.44,6.44,0,0,1,2.57-3.62,8.06,8.06,0,0,1,4.55-1.14,5.09,5.09,0,0,1,2.74.6,3.18,3.18,0,0,1,1.42,2.84,8.19,8.19,0,0,1-.2,1.62,16.53,16.53,0,0,1,4-3.41,10.8,10.8,0,0,1,5.35-1.65c3.7,0,5.9,2.21,5.9,5.9a48.85,48.85,0,0,1-1.36,8.88,37.4,37.4,0,0,0-1.1,6.48c0,.12,0,.23,0,.31a4.58,4.58,0,0,0,1.25-.87,30,30,0,0,0,2.26-2.31,51,51,0,0,1,.55-5.4,53.06,53.06,0,0,1,2-8.25,7,7,0,0,1,2.41-3.58,7.68,7.68,0,0,1,4.59-1.16,4.77,4.77,0,0,1,3.1.87,3.49,3.49,0,0,1,1.24,2.81,18.07,18.07,0,0,1-.71,3.7c-.41,1.5-.72,2.81-.95,4-.72,3.78-1,5.91-1.11,7.1a26.19,26.19,0,0,0,2.5-4.84,71.26,71.26,0,0,0,2.88-8.75,5.84,5.84,0,0,1,6.37-4.84,5.69,5.69,0,0,1,3,.62l.32.23a4.78,4.78,0,0,1,3.31-1.27h1.73a58.88,58.88,0,0,1,2.94-10.78,29.15,29.15,0,0,1,5.47-9.33c2.36-2.58,5-3.89,7.86-3.89a6.48,6.48,0,0,1,5.64,3.13,12.07,12.07,0,0,1,1.76,6.67,22,22,0,0,1-5.11,14.2h2a3.81,3.81,0,0,1,2.79,1,4,4,0,0,1,1,3c0,2.29-1.14,6.14-8.78,6.14H581c0,1.07,0,2,0,2.68,0,4.71.65,6.82,1.2,7.75a3,3,0,0,0,2.92,1.53,5.16,5.16,0,0,0,3.32-1.13,22.54,22.54,0,0,0,2-1.81c1.62-2.06,2.88-3.79,3.73-5.13a39,39,0,0,0,2.07-3.91c.73-1.58,1.67-3.7,2.89-6.5.75-1.75,2.51-3.84,6.57-3.84a7.76,7.76,0,0,1,3.17.48,3,3,0,0,1,1.83,2.78,5.94,5.94,0,0,1-.33,1.73,10.49,10.49,0,0,1-.81,1.92,6.42,6.42,0,0,0-.84,2.71,2.12,2.12,0,0,0,.36,1,20.19,20.19,0,0,0,1.77,2.45,40.71,40.71,0,0,1,3.11,4.57,9.89,9.89,0,0,1,1.24,4.85,12.27,12.27,0,0,1-1.39,5.69,11.58,11.58,0,0,1-3.95,4.38A10.51,10.51,0,0,1,603.93,136ZM466.05,113.77a10.39,10.39,0,0,0-1.71,2,11.47,11.47,0,0,0-1.87,6.44c0,2.38.65,2.38,1,2.38a1.72,1.72,0,0,0,1-.48,12.82,12.82,0,0,0,2-2.38A44.25,44.25,0,0,1,466,115C466,114.66,466,114.25,466.05,113.77Zm28.94-.2a4.67,4.67,0,0,0-.5.61,9.61,9.61,0,0,0-1.24,5.38,6.6,6.6,0,0,0,.9,3.85c.69.93,1.22.93,1.42.93a2.36,2.36,0,0,0,1.85-.9,5.62,5.62,0,0,0,1.16-2.35,10.44,10.44,0,0,1-2.44-3.24A11.84,11.84,0,0,1,495,113.57Zm71.11-2.24c-.19.93-.43,2-.72,3.33-1.42,6.48-1.63,8.45-1.63,9a2.41,2.41,0,0,0,0,.31,4.74,4.74,0,0,0,1.24-.87,47.5,47.5,0,0,0,4.21-4.56,4,4,0,0,1,.45-.47c0-.87-.08-1.74-.08-2.63,0-1.1,0-2.22.07-3.34h-.23A5.88,5.88,0,0,1,566.1,111.33Zm35.54,10.24c-.45.74-.89,1.44-1.34,2.09a8.42,8.42,0,0,1,1.71-.16l.81,0A13.41,13.41,0,0,0,601.64,121.57ZM480,87.83a78.38,78.38,0,0,0-1.42,8.1A37.69,37.69,0,0,0,480,87.83ZM584.74,90a36.79,36.79,0,0,0-1.46,4.73c-.07.3-.15.61-.22.92l.13-.26A15.93,15.93,0,0,0,584.74,90Z"/><path class="cls-2" d="M481.41,76a5.14,5.14,0,0,1,4.29,2.34q1.71,2.34,1.71,7.08,0,6.72-3.3,15.72a116.77,116.77,0,0,1-8.82,18.48,13.1,13.1,0,0,0,1,5,2.38,2.38,0,0,0,2.07,1.5,5.13,5.13,0,0,0,3.3-1.44,29.94,29.94,0,0,0,2.24-2.21,15.1,15.1,0,0,1-.2-2.35,18.32,18.32,0,0,1,1.74-8.13,13.67,13.67,0,0,1,4.8-5.58,12.09,12.09,0,0,1,6.78-2,9.34,9.34,0,0,1,7.35,3.15,13.49,13.49,0,0,1,3.27,7.77,31.27,31.27,0,0,0,4.77-.73,47.94,47.94,0,0,1,1.59-6.77,4.51,4.51,0,0,1,1.77-2.55,6.24,6.24,0,0,1,3.45-.81,3.38,3.38,0,0,1,1.68.3,1.24,1.24,0,0,1,.48,1.14,22.87,22.87,0,0,1-.9,4.32q-.6,2.4-1,4.2a43,43,0,0,0-.6,4.44,34.12,34.12,0,0,1,4.44-8.4,17.41,17.41,0,0,1,4.83-4.62,8.78,8.78,0,0,1,4.35-1.38q3.9,0,3.9,3.9a48.22,48.22,0,0,1-1.32,8.46,41.64,41.64,0,0,0-1.14,6.9q0,2.4,1.74,2.4a4.69,4.69,0,0,0,2.85-1.47,35,35,0,0,0,2.9-3,49.45,49.45,0,0,1,.55-5.87,51.79,51.79,0,0,1,2-8,5,5,0,0,1,1.68-2.58,5.91,5.91,0,0,1,3.42-.78,3,3,0,0,1,1.83.42,1.54,1.54,0,0,1,.51,1.26,24.91,24.91,0,0,1-.66,3.24q-.6,2.22-1,4a56.75,56.75,0,0,0-1.2,8.4,3.74,3.74,0,0,0,.3,1.77,1,1,0,0,0,1,.51q.9,0,2.25-1.8a26.45,26.45,0,0,0,2.88-5.46,73,73,0,0,0,3-9,3.9,3.9,0,0,1,4.44-3.36,4,4,0,0,1,1.92.33,1.32,1.32,0,0,1,.54,1.23,58.12,58.12,0,0,1-1.5,8.22,66.51,66.51,0,0,0-1.68,9.48,2.87,2.87,0,0,0,.48,1.77,1.51,1.51,0,0,0,1.26.63,4.69,4.69,0,0,0,2.85-1.47,48.15,48.15,0,0,0,4.41-4.77,2.44,2.44,0,0,1,1-.72c-.1-1.15-.16-2.36-.16-3.66q0-2.64.18-5.34h-2.34a3.37,3.37,0,0,1-2.43-.66,3,3,0,0,1-.63-2.1q0-3.36,2.7-3.36h3.42A58.39,58.39,0,0,1,575.61,92a27.21,27.21,0,0,1,5.07-8.7q3-3.24,6.39-3.24a4.49,4.49,0,0,1,4,2.22,10.06,10.06,0,0,1,1.44,5.58q0,9.3-7.8,16.2h6.72a1.9,1.9,0,0,1,1.38.42,2.21,2.21,0,0,1,.42,1.56q0,4.14-6.78,4.14h-7.32q-.12,3-.12,4.68,0,6.24,1.47,8.76a5,5,0,0,0,4.65,2.52,7.16,7.16,0,0,0,4.56-1.56,25.75,25.75,0,0,0,2.26-2.05c1.67-2.12,3-3.93,3.92-5.39A38.76,38.76,0,0,0,598,113q1.11-2.4,2.91-6.54,1.14-2.64,4.74-2.64a6.29,6.29,0,0,1,2.34.3,1,1,0,0,1,.66,1,4.42,4.42,0,0,1-.24,1.14,8.67,8.67,0,0,1-.66,1.56,8.56,8.56,0,0,0-1.08,3.66,4,4,0,0,0,.63,2,22.47,22.47,0,0,0,1.95,2.7,38.12,38.12,0,0,1,2.91,4.29,7.79,7.79,0,0,1,1,3.87A10.2,10.2,0,0,1,612,129a9.53,9.53,0,0,1-3.27,3.63,8.54,8.54,0,0,1-4.8,1.38,7,7,0,0,1-4.77-1.44,4.24,4.24,0,0,1-1.65-3.24,3.69,3.69,0,0,1,1.14-2.7A4.56,4.56,0,0,1,602,125.5a13.17,13.17,0,0,1,1.83.15l1.59.21a7.72,7.72,0,0,0-.69-2.94,14.69,14.69,0,0,0-1.59-2.67q-1-1.29-1.8-2.25a39.2,39.2,0,0,1-3.69,5.88l-.64.77a4.36,4.36,0,0,1-.53.79,25.52,25.52,0,0,1-5.64,5.22,12.36,12.36,0,0,1-7,2q-8,0-10.79-7.45a2.14,2.14,0,0,1-.13.19,26.55,26.55,0,0,1-5.55,5.22,11.64,11.64,0,0,1-6.75,2,4.59,4.59,0,0,1-4.23-2.22,12,12,0,0,1-1.35-6.24,14.05,14.05,0,0,1-3.06,6.27,6,6,0,0,1-4.38,2.19,5.16,5.16,0,0,1-4.41-2.49,9.65,9.65,0,0,1-.88-1.69,24,24,0,0,1-2.66,2.14,11.64,11.64,0,0,1-6.75,2,5.83,5.83,0,0,1-4.62-1.77,7.53,7.53,0,0,1-1.56-5.13,37.46,37.46,0,0,1,.84-6,31.05,31.05,0,0,0,.78-5.22q0-1-.66-1t-2.19,2a32.22,32.22,0,0,0-2.88,5.31,41.3,41.3,0,0,0-2.37,7,9.36,9.36,0,0,1-1.53,3.81,3.45,3.45,0,0,1-2.73,1,3.28,3.28,0,0,1-3.21-2.4,23,23,0,0,1-.93-7.68c0-.53,0-1.06,0-1.58a29.58,29.58,0,0,1-4.65.56,15,15,0,0,1-4.5,8.07,11.07,11.07,0,0,1-7.62,3,10.65,10.65,0,0,1-6.15-1.74,11,11,0,0,1-2.92-3,27.31,27.31,0,0,1-3,2.57,9.91,9.91,0,0,1-5.82,2.13q-4.56,0-7-5.34a17.24,17.24,0,0,1-4.41,4.26,8.73,8.73,0,0,1-4.41,1.08,7.63,7.63,0,0,1-6-2.73,10.46,10.46,0,0,1-2.37-7.11,19.76,19.76,0,0,1,2-8.91,18.2,18.2,0,0,1,5.61-6.72,16.31,16.31,0,0,1,8-3.09A75.44,75.44,0,0,1,473,84.25Q476.19,76,481.41,76m-6.06,34.2q6.72-14.64,6.72-23.52a12.53,12.53,0,0,0-.39-3.54q-.39-1.26-.93-1.26-1.14,0-2.28,4.05a73.94,73.94,0,0,0-2,10.59q-.81,6.54-1.17,13.68m104.34-7.08A20.49,20.49,0,0,0,585,96.25a16.66,16.66,0,0,0,1.77-6.93q0-3.54-1.32-3.54-.9,0-2,2.25a32,32,0,0,0-2.1,6.24,83.64,83.64,0,0,0-1.65,8.85M463.47,126.64a3.61,3.61,0,0,0,2.28-.93,17.58,17.58,0,0,0,2.88-3.45A40.05,40.05,0,0,1,468,115q0-1.44.12-4.68a10.05,10.05,0,0,0-5.49,4.41,13.59,13.59,0,0,0-2.19,7.53q0,4.38,3,4.38m32.1-.3a4.35,4.35,0,0,0,3.33-1.56,8.66,8.66,0,0,0,1.89-4.5,8.28,8.28,0,0,1-2.85-3.3,9.77,9.77,0,0,1-1-4.32,10.4,10.4,0,0,1,.18-1.92h-.3a4.71,4.71,0,0,0-4,2.31,11.39,11.39,0,0,0-1.59,6.51,8.37,8.37,0,0,0,1.29,5,3.72,3.72,0,0,0,3,1.74M481.41,72c-5.28,0-9.37,3.63-12.15,10.8a76,76,0,0,0-4.28,18,20.59,20.59,0,0,0-6.72,3.24,22.35,22.35,0,0,0-6.83,8.17A23.84,23.84,0,0,0,449,122.86a14.38,14.38,0,0,0,3.35,9.73,11.64,11.64,0,0,0,9.05,4.11,12.7,12.7,0,0,0,6.4-1.61,12.39,12.39,0,0,0,1.94-1.39,10.38,10.38,0,0,0,7.44,3,13.85,13.85,0,0,0,8.17-2.89l.38-.28c.32.26.65.5,1,.73a14.57,14.57,0,0,0,8.4,2.44,15,15,0,0,0,10.3-4.06,17.21,17.21,0,0,0,2.94-3.43,14.06,14.06,0,0,0,.7,2.54,7.65,7.65,0,0,0,12.68,2.6,10.12,10.12,0,0,0,1.87-3.56,9.38,9.38,0,0,0,1.69,2.79,9.73,9.73,0,0,0,7.62,3.12,15.62,15.62,0,0,0,8.53-2.42,8.87,8.87,0,0,0,6.17,2.42,9.61,9.61,0,0,0,6.5-2.66,8.71,8.71,0,0,0,6.52,2.66,15.64,15.64,0,0,0,9-2.74,28.56,28.56,0,0,0,2.67-2.1c2.75,3.19,6.66,4.84,11.53,4.84a16.35,16.35,0,0,0,9.24-2.71c.46-.31.92-.63,1.36-1a9.07,9.07,0,0,0,2.1,2.58,10.92,10.92,0,0,0,7.4,2.43,12.46,12.46,0,0,0,7-2,13.56,13.56,0,0,0,4.62-5.12,14.18,14.18,0,0,0,1.62-6.62,11.74,11.74,0,0,0-1.5-5.82,40.51,40.51,0,0,0-3.22-4.76l0-.06,0,0a17.2,17.2,0,0,1-1.59-2.19.52.52,0,0,1-.07-.12,6.17,6.17,0,0,1,.62-1.67,13.09,13.09,0,0,0,.92-2.21,7.88,7.88,0,0,0,.42-2.32,5,5,0,0,0-3-4.6,9.48,9.48,0,0,0-4-.66c-5.42,0-7.6,3.17-8.41,5l-.12.27a5.48,5.48,0,0,0-1.54-3.48,5.27,5.27,0,0,0-2.53-1.4,23.72,23.72,0,0,0,3.4-12.4,14.07,14.07,0,0,0-2.08-7.76,8.53,8.53,0,0,0-7.32-4c-3.44,0-6.58,1.53-9.34,4.54a31.18,31.18,0,0,0-5.85,10,59.59,59.59,0,0,0-2.74,9.5h-.07a7,7,0,0,0-3.48.9,10,10,0,0,0-8.56,1.16,7.19,7.19,0,0,0-1.83,2.14,5.39,5.39,0,0,0-1.67-2.45,6.64,6.64,0,0,0-4.38-1.33,9.62,9.62,0,0,0-5.76,1.53,8.87,8.87,0,0,0-3.08,4.42c-.74-3.67-3.6-6-7.72-6a12.76,12.76,0,0,0-6.36,1.92c-.47.28-.93.58-1.39.92a4.88,4.88,0,0,0-1.76-1.93,7,7,0,0,0-3.81-.91,10.08,10.08,0,0,0-5.65,1.47,8.41,8.41,0,0,0-3.39,4.7c-.17.55-.33,1.09-.49,1.65a16.49,16.49,0,0,0-2.32-3.38,13.43,13.43,0,0,0-10.35-4.5,16.05,16.05,0,0,0-9,2.67,5.72,5.72,0,0,0-.57.39c.11-.31.23-.62.34-.92a50.87,50.87,0,0,0,3.54-17.1c0-4.07-.81-7.16-2.48-9.44a9.08,9.08,0,0,0-7.52-4ZM583,114.14h3.43c3.52,0,5.9-.77,7.5-1.85a30.72,30.72,0,0,1-1.48,2.7c-.78,1.23-2,2.87-3.52,4.84-.65.64-1.23,1.17-1.73,1.57a3.2,3.2,0,0,1-2.09.7c-.88,0-1-.24-1.19-.53s-.93-2-.93-6.75c0-.21,0-.44,0-.68Zm-16.38,4.42c.2-1,.44-2.12.74-3.48.08-.38.16-.74.24-1.09h0c0,.49,0,1,0,1.48s0,1.26,0,1.88c-.37.44-.71.84-1,1.2Zm-87.21,2,.36-.64v.22c0,.3,0,.6,0,.91l-.28.27c0-.22-.08-.47-.11-.76Zm16.39,1.73,0,0a3.73,3.73,0,0,1-.48-1.88,12.12,12.12,0,0,0,1,1.26,2.24,2.24,0,0,1-.33.5,1,1,0,0,1-.15.15Z"/></g></g></svg>