<svg width="46" height="46" viewBox="0 0 46 46" fill="none" xmlns="http://www.w3.org/2000/svg">
<path fill-rule="evenodd" clip-rule="evenodd" d="M5 16.25H9.49951C9.50015 17.0747 9.9559 17.8685 10.7438 18.2625C11.8552 18.8182 13.2067 18.3677 13.7625 17.2562L14.2656 16.25H31.7344L32.2375 17.2562C32.7933 18.3677 34.1448 18.8182 35.2562 18.2625C36.0441 17.8685 36.4998 17.0747 36.5005 16.25H41V20.75H5V16.25ZM34.5156 11.75H41C43.4853 11.75 45.5 13.7647 45.5 16.25V20.75C45.5 22.64 44.3348 24.2579 42.6835 24.9245C42.6912 25.032 42.6951 25.1405 42.6951 25.25C42.6951 25.5783 42.6592 25.9057 42.588 26.2262L39.088 41.9762C38.6304 44.0351 36.8043 45.5 34.6951 45.5H11.3049C9.19574 45.5 7.36958 44.0351 6.91204 41.9762L3.41204 26.2262C3.31463 25.7878 3.28476 25.3502 3.31552 24.9241C1.66477 24.2573 0.5 22.6397 0.5 20.75V16.25C0.5 13.7647 2.51472 11.75 5 11.75H11.4844L16.4875 1.74377C17.0433 0.632322 18.3948 0.181818 19.5062 0.737543C20.6177 1.29327 21.0682 2.64478 20.5125 3.75624L16.5156 11.75H29.4844L25.4875 3.75624C24.9318 2.64478 25.3823 1.29327 26.4938 0.737543C27.6052 0.181818 28.9567 0.632322 29.5125 1.74377L34.5156 11.75ZM7.80489 25.25H38.1951L34.6951 41H11.3049L7.80489 25.25Z" fill="#FF6161"/>
</svg>
