<svg xmlns="http://www.w3.org/2000/svg" viewBox="0 0 139.56 86.36"><defs><style>.cls-1,.cls-4{fill:#ff437b;}.cls-2{fill:#fafafa;}.cls-3,.cls-4{font-size:15px;font-family:Inter_FXH-Bold, Inter_FXH;font-weight:700;}.cls-3{fill:#fff;}</style></defs><title>buyAPieceAsset 6</title><g id="Layer_2" data-name="Layer 2"><g id="Layer_1-2" data-name="Layer 1"><rect class="cls-1" y="22.6" width="139.56" height="45.32" rx="22.66"/><polygon class="cls-1" points="108.09 77.25 102.23 81.57 99.07 58.33 120.35 68.21 114.48 72.54 119.71 79.63 113.33 84.34 108.09 77.25"/><path class="cls-2" d="M100.86,60.75l16.66,7.75-5.07,3.73,5.23,7.1-2,1.49-2,1.5-5.23-7.1L103.33,79l-2.47-18.21M97.28,55.9,98,61.14l2.47,18.21.66,4.84,3.93-2.9,2.74-2L111.3,84,113,86.36l2.33-1.71,2-1.5,2-1.49,2.33-1.72L120,77.61l-3.52-4.77,2.74-2,3.93-2.9-4.43-2.06-16.66-7.74-4.8-2.23Z"/><text class="cls-3" transform="translate(28.06 49.35)">buy a piece</text><text class="cls-4" transform="translate(28.14 12.95)">Click or tap</text></g></g></svg>