<svg xmlns="http://www.w3.org/2000/svg" viewBox="0 0 235.12 183.82"><defs><style>.cls-1{fill:#ffd2d2;stroke:#fff;stroke-miterlimit:10;stroke-width:1.97px;}.cls-2{fill:#ff8f8f;}.cls-3{font-size:18px;font-family:Inter_FXH-Regular, Inter_FXH;}.cls-3,.cls-4{fill:#fff;}</style></defs><title>buyAPieceAsset 1</title><g id="Layer_2" data-name="Layer 2"><g id="Layer_1-2" data-name="Layer 1"><path class="cls-1" d="M178.22,5a39.41,39.41,0,0,0-41,4A153,153,0,0,1,101,29.26a151.44,151.44,0,0,1-42.64,10A40.18,40.18,0,0,0,24.92,63.92,184.65,184.65,0,0,1,8.44,94.5c-.12.19-.25.38-.38.56-13.87,20.61-6.64,49,15.49,59.8,4.68,2.29,9.45,4.78,14.27,7.47,8,4.49,15.45,9.11,22.26,13.73a39.49,39.49,0,0,0,33.38,5.15,457.24,457.24,0,0,1,82.92-16.28q6.41-.65,12.61-1.1a40.54,40.54,0,0,0,37.3-40.42A253.47,253.47,0,0,1,233,67.06,40.87,40.87,0,0,0,211.23,21Z"/><rect class="cls-2" x="42.91" y="73.51" width="144.58" height="46.95" rx="5"/><text class="cls-3" transform="translate(66.11 101.88)">buy a piece</text><polygon class="cls-2" points="162.32 131.65 156.24 136.13 152.97 112.05 175.01 122.29 168.94 126.77 174.35 134.12 167.74 139 162.32 131.65"/><path class="cls-4" d="M154.83,114.56l17.26,8-5.25,3.87,5.41,7.34-2.09,1.55-2.1,1.55-5.42-7.35-5.25,3.87-2.56-18.86m-3.71-5,.74,5.44,2.56,18.85.68,5,4.07-3,2.83-2.09,3.64,4.93,1.78,2.42,2.42-1.78,2.1-1.55,2.1-1.55,2.41-1.78L174.67,132,171,127.09l2.84-2.09,4.07-3-4.59-2.14-17.26-8-5-2.31Z"/><rect class="cls-2" x="22.96" y="114.56" width="11.15" height="3.64"/><path class="cls-4" d="M33.61,115.06v2.63H23.46v-2.63H33.61m1-1H22.46v4.63H34.61v-4.63Z"/><rect class="cls-2" x="26.87" y="125.62" width="10.95" height="3.64" transform="translate(-54.24 28.49) rotate(-26.95)"/><path class="cls-4" d="M36.18,124l1.19,2.35-8.86,4.51-1.2-2.35L36.18,124m.44-1.34-.9.45-8.86,4.51-.89.45.45.89,1.2,2.35.45.9.89-.46,8.87-4.5.89-.46-.46-.89-1.19-2.35-.45-.89Z"/><rect class="cls-2" x="38.06" y="132.36" width="10.46" height="3.64" transform="translate(-95.63 158.25) rotate(-81.95)"/><path class="cls-4" d="M42.65,129.31l2.61.37-1.32,9.37-2.62-.37,1.33-9.37m-.85-1.13-.14,1-1.33,9.37-.14,1,1,.14,2.62.37,1,.14.14-1,1.32-9.37.14-1-1-.14-2.61-.37-1-.14Z"/><rect class="cls-2" x="196.62" y="75.14" width="11.64" height="3.58" transform="translate(-5.78 17.39) rotate(-4.85)"/><path class="cls-4" d="M207.63,75.2l.22,2.56-10.6.9L197,76.1l10.6-.9m.92-1.08-1,.08-10.61.9-1,.09.08,1,.22,2.57.08,1,1-.09,10.61-.9,1-.08-.08-1-.22-2.57-.08-1Z"/><polygon class="cls-2" points="192.48 66.95 202.68 62.12 204.42 65.3 194.21 70.13 192.48 66.95"/><path class="cls-4" d="M202.47,62.78l1.25,2.29-9.3,4.4-1.25-2.29,9.3-4.4m.43-1.31-.86.4-9.3,4.4-1,.46.5.93L193.55,70l.45.83.85-.4,9.3-4.4,1-.46-.51-.93-1.25-2.29-.45-.83Z"/><polygon class="cls-2" points="184.32 64.37 185.86 54.23 189.6 54.72 188.06 64.86 184.32 64.37"/><path class="cls-4" d="M186.29,54.79l2.74.36-1.39,9.15-2.74-.36,1.39-9.15m-.85-1.12-.14,1-1.39,9.15-.16,1,1,.13,2.74.37,1,.12.14-1L190,55.3l.16-1-1-.13-2.74-.36-1-.13Z"/></g></g></svg>