<svg xmlns="http://www.w3.org/2000/svg" viewBox="0 0 139.56 63.76"><defs><style>.cls-1{fill:#fb3371;}.cls-2{fill:#ff437b;}.cls-3{fill:#fafafa;}.cls-4{font-size:15px;fill:#fff;font-family:Inter_FXH-Bold, Inter_FXH;font-weight:700;}.cls-5{letter-spacing:-0.02em;}</style></defs><title>buyADozenAsset 5</title><g id="Layer_2" data-name="Layer 2"><g id="Layer_1-2" data-name="Layer 1"><rect class="cls-1" width="139.56" height="45.32" rx="22.66"/><polygon class="cls-2" points="106.75 54.64 100.88 58.97 97.73 35.72 119 45.61 113.13 49.94 118.36 57.03 111.98 61.74 106.75 54.64"/><path class="cls-3" d="M99.52,38.15l16.66,7.74-5.07,3.74,5.23,7.09-2,1.5-2,1.49-5.23-7.09L102,56.35l-2.47-18.2m-3.58-4.86.71,5.25,2.47,18.2.65,4.84,3.94-2.9,2.73-2L110,61.43l1.72,2.33L114,62l2-1.49,2-1.5,2.33-1.72L118.67,55l-3.51-4.76,2.73-2,3.94-2.9-4.43-2-16.66-7.75-4.8-2.23Z"/><text class="cls-4" transform="translate(25.44 26.74)">buy a do<tspan class="cls-5" x="62.04" y="0">z</tspan><tspan x="70.38" y="0">en</tspan></text></g></g></svg>