<svg xmlns="http://www.w3.org/2000/svg" viewBox="0 0 139.56 84.94"><defs><style>.cls-1{fill:#fb3371;}.cls-2{fill:#ff437b;}.cls-3{fill:#fafafa;}.cls-4{fill:#fff;}</style></defs><title>buyADozenAsset 9</title><g id="Layer_2" data-name="Layer 2"><g id="Layer_1-2" data-name="Layer 1"><path class="cls-1" d="M38.71,4.44H36.38A2.15,2.15,0,0,0,35.61,3,2.44,2.44,0,0,0,34,2.51a2.49,2.49,0,0,0-2,.93,4.05,4.05,0,0,0-.77,2.64A4,4,0,0,0,32,8.73a2.72,2.72,0,0,0,3.57.43,2.1,2.1,0,0,0,.81-1.36h2.33A4.33,4.33,0,0,1,38,9.7a4.38,4.38,0,0,1-1.61,1.43,4.93,4.93,0,0,1-2.41.55A5.11,5.11,0,0,1,31.37,11a4.64,4.64,0,0,1-1.81-1.91,6.46,6.46,0,0,1-.67-3,6.35,6.35,0,0,1,.68-3,4.66,4.66,0,0,1,1.82-1.91A5.09,5.09,0,0,1,34,.47a5.36,5.36,0,0,1,2.27.47,4.24,4.24,0,0,1,1.67,1.35A4.48,4.48,0,0,1,38.71,4.44Z"/><path class="cls-1" d="M42.59.62V11.53H40.33V.62Z"/><path class="cls-1" d="M45.55,2.3A1.25,1.25,0,0,1,44.68,2a1.09,1.09,0,0,1-.36-.81,1.06,1.06,0,0,1,.36-.81,1.27,1.27,0,0,1,1.73,0,1.07,1.07,0,0,1,.37.81,1.1,1.1,0,0,1-.37.81A1.24,1.24,0,0,1,45.55,2.3Zm-1.14,9.23V3.35h2.26v8.18Z"/><path class="cls-1" d="M52.18,11.69A4.22,4.22,0,0,1,50,11.16a3.61,3.61,0,0,1-1.38-1.49,4.85,4.85,0,0,1-.49-2.2,4.79,4.79,0,0,1,.49-2.2A3.64,3.64,0,0,1,50,3.78a4.07,4.07,0,0,1,2.14-.54,4.27,4.27,0,0,1,1.88.39,3.15,3.15,0,0,1,1.27,1.09,3.32,3.32,0,0,1,.52,1.66H53.69a1.71,1.71,0,0,0-.47-1,1.41,1.41,0,0,0-1-.38,1.5,1.5,0,0,0-1.27.64,2.91,2.91,0,0,0-.48,1.79,3,3,0,0,0,.48,1.81,1.51,1.51,0,0,0,1.27.65,1.39,1.39,0,0,0,1-.36,1.55,1.55,0,0,0,.5-1h2.15a3.41,3.41,0,0,1-.51,1.65,3,3,0,0,1-1.26,1.11A4.12,4.12,0,0,1,52.18,11.69Z"/><path class="cls-1" d="M57.3,11.53V.62h2.26V6.46h.13l2.62-3.11h2.6l-3,3.54,3.19,4.64H62.41L60.18,8.24l-.62.69v2.6Z"/><path class="cls-1" d="M73.2,11.69a4.11,4.11,0,0,1-2.15-.53,3.55,3.55,0,0,1-1.39-1.48,4.71,4.71,0,0,1-.49-2.21,4.78,4.78,0,0,1,.49-2.22,3.67,3.67,0,0,1,1.39-1.48,4.61,4.61,0,0,1,4.29,0,3.61,3.61,0,0,1,1.39,1.48,4.78,4.78,0,0,1,.49,2.22,4.71,4.71,0,0,1-.49,2.21,3.49,3.49,0,0,1-1.39,1.48A4.1,4.1,0,0,1,73.2,11.69Zm0-1.76a1.4,1.4,0,0,0,1.27-.7,3.32,3.32,0,0,0,.44-1.77,3.33,3.33,0,0,0-.44-1.78A1.4,1.4,0,0,0,73.21,5a1.44,1.44,0,0,0-1.3.71,3.33,3.33,0,0,0-.43,1.78,3.32,3.32,0,0,0,.43,1.77A1.43,1.43,0,0,0,73.21,9.93Z"/><path class="cls-1" d="M78.7,11.53V3.35h2.2V4.78H81a2.12,2.12,0,0,1,.75-1.15A1.94,1.94,0,0,1,83,3.23a3.31,3.31,0,0,1,.72.08v2a2,2,0,0,0-.44-.09,5.13,5.13,0,0,0-.52,0,1.69,1.69,0,0,0-1.24.48A1.61,1.61,0,0,0,81,6.9v4.63Z"/><path class="cls-1" d="M92.67,3.35v1.7H91.13V9a.77.77,0,0,0,.21.63.88.88,0,0,0,.55.17,1.66,1.66,0,0,0,.32,0l.25,0,.35,1.69-.47.13a4.93,4.93,0,0,1-.76.08,2.89,2.89,0,0,1-2-.53,2.1,2.1,0,0,1-.74-1.79V5.05H87.74V3.35h1.12v-2h2.27v2Z"/><path class="cls-1" d="M96.47,11.69a3,3,0,0,1-1.94-.62,2.15,2.15,0,0,1-.77-1.82,2.19,2.19,0,0,1,.43-1.44A2.54,2.54,0,0,1,95.32,7a6.52,6.52,0,0,1,1.51-.31,10.64,10.64,0,0,0,1.52-.23A.51.51,0,0,0,98.81,6V6a1,1,0,0,0-.31-.78,1.33,1.33,0,0,0-.9-.28,1.61,1.61,0,0,0-1,.27,1.24,1.24,0,0,0-.48.67L94,5.67A2.84,2.84,0,0,1,95.21,3.9a4.05,4.05,0,0,1,2.4-.66,5,5,0,0,1,1.7.29,2.77,2.77,0,0,1,1.28.9A2.43,2.43,0,0,1,101.08,6v5.52H98.93V10.4h-.06a2.36,2.36,0,0,1-.9.93A2.82,2.82,0,0,1,96.47,11.69Zm.65-1.57a1.76,1.76,0,0,0,1.23-.43,1.4,1.4,0,0,0,.48-1.08V7.74a1.52,1.52,0,0,1-.41.16,5.31,5.31,0,0,1-.6.12l-.57.09a2.22,2.22,0,0,0-1,.33.84.84,0,0,0-.36.73.81.81,0,0,0,.33.71A1.48,1.48,0,0,0,97.12,10.12Z"/><path class="cls-1" d="M102.84,14.6V3.35h2.24V4.72h.1a3.49,3.49,0,0,1,.44-.67,2.25,2.25,0,0,1,.74-.57,2.51,2.51,0,0,1,1.15-.24,3.07,3.07,0,0,1,1.65.47,3.35,3.35,0,0,1,1.21,1.4,5.36,5.36,0,0,1,.45,2.34,5.35,5.35,0,0,1-.44,2.31,3.24,3.24,0,0,1-1.19,1.42,3.06,3.06,0,0,1-1.68.49,2.71,2.71,0,0,1-1.13-.22,2.51,2.51,0,0,1-.75-.55,3.33,3.33,0,0,1-.45-.68h-.07V14.6Zm2.23-7.16a3.19,3.19,0,0,0,.44,1.76,1.47,1.47,0,0,0,1.28.66,1.44,1.44,0,0,0,1.27-.67,3.09,3.09,0,0,0,.45-1.75,3.13,3.13,0,0,0-.44-1.73,1.45,1.45,0,0,0-1.28-.66,1.48,1.48,0,0,0-1.28.65A3,3,0,0,0,105.07,7.44Z"/><rect class="cls-1" y="21.18" width="139.56" height="45.32" rx="22.66"/><polygon class="cls-2" points="106.75 75.82 100.88 80.15 97.73 56.9 119 66.79 113.13 71.12 118.36 78.21 111.98 82.92 106.75 75.82"/><path class="cls-3" d="M99.52,59.33l16.66,7.74-5.07,3.74,5.23,7.09-2,1.5-2,1.49-5.23-7.09L102,77.53l-2.47-18.2m-3.58-4.86.71,5.25,2.47,18.2.65,4.84,3.94-2.89,2.73-2L110,82.61l1.72,2.33L114,83.22l2-1.49,2-1.49,2.33-1.72-1.72-2.33-3.51-4.77,2.73-2,3.94-2.9-4.43-2.06-16.66-7.74-4.8-2.24Z"/><path class="cls-4" d="M26.39,47.92V37h2.27v4.11h.07a2.9,2.9,0,0,1,.44-.68,2.15,2.15,0,0,1,.74-.57,2.48,2.48,0,0,1,1.15-.23,3.07,3.07,0,0,1,1.65.46,3.35,3.35,0,0,1,1.21,1.4,6.3,6.3,0,0,1,0,4.65,3.33,3.33,0,0,1-1.19,1.43,3.08,3.08,0,0,1-1.69.48,2.69,2.69,0,0,1-1.12-.22,2.39,2.39,0,0,1-.75-.55,3.08,3.08,0,0,1-.45-.68h-.1v1.31Zm2.22-4.09a3.08,3.08,0,0,0,.45,1.76,1.46,1.46,0,0,0,1.27.66,1.43,1.43,0,0,0,1.28-.67,3.09,3.09,0,0,0,.44-1.75,3.13,3.13,0,0,0-.43-1.73,1.58,1.58,0,0,0-2.56,0A3,3,0,0,0,28.61,43.83Z"/><path class="cls-4" d="M41.13,44.44v-4.7h2.26v8.18H41.22V46.44h-.09a2.36,2.36,0,0,1-.92,1.15,2.73,2.73,0,0,1-1.56.44,2.59,2.59,0,0,1-2-.82A3.19,3.19,0,0,1,35.88,45V39.74h2.27v4.81a1.61,1.61,0,0,0,.39,1.14,1.31,1.31,0,0,0,1,.42,1.54,1.54,0,0,0,1.57-1.67Z"/><path class="cls-4" d="M46.61,51a5.13,5.13,0,0,1-.81-.06,3.18,3.18,0,0,1-.62-.17l.51-1.7a2.1,2.1,0,0,0,1,.1.91.91,0,0,0,.65-.66l.13-.34-2.93-8.42h2.38l1.7,6h.08l1.71-6h2.4l-3.18,9.06a3.52,3.52,0,0,1-1.06,1.59A3.05,3.05,0,0,1,46.61,51Z"/><path class="cls-4" d="M59.81,48.08a3.11,3.11,0,0,1-2-.61,2.59,2.59,0,0,1-.34-3.27,2.49,2.49,0,0,1,1.13-.76,6,6,0,0,1,1.51-.32,13.48,13.48,0,0,0,1.53-.22.51.51,0,0,0,.45-.52v0a1,1,0,0,0-.31-.78,1.29,1.29,0,0,0-.9-.28,1.57,1.57,0,0,0-1,.27,1.21,1.21,0,0,0-.48.68l-2.1-.18a2.78,2.78,0,0,1,1.16-1.77,4.05,4.05,0,0,1,2.4-.65,5,5,0,0,1,1.71.28,2.9,2.9,0,0,1,1.28.9,2.51,2.51,0,0,1,.48,1.59v5.51H62.26V46.79H62.2a2.4,2.4,0,0,1-.89.93A2.87,2.87,0,0,1,59.81,48.08Zm.65-1.57a1.75,1.75,0,0,0,1.22-.43A1.4,1.4,0,0,0,62.16,45v-.87a1.25,1.25,0,0,1-.41.16,5.31,5.31,0,0,1-.6.12l-.57.09a2.47,2.47,0,0,0-1,.33.84.84,0,0,0-.36.73.8.8,0,0,0,.34.71A1.43,1.43,0,0,0,60.46,46.51Z"/><path class="cls-4" d="M72.67,48.06A3.05,3.05,0,0,1,71,47.58a3.42,3.42,0,0,1-1.2-1.43,5.44,5.44,0,0,1-.44-2.31,5.28,5.28,0,0,1,.46-2.34A3.22,3.22,0,0,1,71,40.1a3.07,3.07,0,0,1,1.65-.46,2.44,2.44,0,0,1,1.14.23,2.19,2.19,0,0,1,.75.57,2.85,2.85,0,0,1,.43.68h.07V37h2.27V47.92H75.09V46.61H75a2.71,2.71,0,0,1-.44.68,2.44,2.44,0,0,1-.76.55A2.69,2.69,0,0,1,72.67,48.06Zm.72-1.81a1.44,1.44,0,0,0,1.27-.66,3.08,3.08,0,0,0,.45-1.76,3,3,0,0,0-.45-1.74,1.46,1.46,0,0,0-1.27-.65,1.44,1.44,0,0,0-1.28.66,3.13,3.13,0,0,0-.44,1.73,3.17,3.17,0,0,0,.44,1.75A1.44,1.44,0,0,0,73.39,46.25Z"/><path class="cls-4" d="M82.88,48.08a4.07,4.07,0,0,1-2.14-.53,3.57,3.57,0,0,1-1.4-1.48,5.23,5.23,0,0,1,0-4.42,3.57,3.57,0,0,1,1.4-1.48,4.07,4.07,0,0,1,2.14-.53,4.13,4.13,0,0,1,2.15.53,3.55,3.55,0,0,1,1.39,1.48,5.23,5.23,0,0,1,0,4.42A3.55,3.55,0,0,1,85,47.55,4.13,4.13,0,0,1,82.88,48.08Zm0-1.75a1.42,1.42,0,0,0,1.28-.71,3.88,3.88,0,0,0,0-3.55,1.53,1.53,0,0,0-2.57,0,3.8,3.8,0,0,0,0,3.55A1.42,1.42,0,0,0,82.89,46.33Z"/><path class="cls-4" d="M88.35,47.92V46.57l4-5v-.06H88.49V39.74h6.6v1.48l-3.77,4.83v.06h3.9v1.81Z"/><path class="cls-4" d="M100.46,48.08a4.38,4.38,0,0,1-2.17-.51,3.46,3.46,0,0,1-1.4-1.46,5.32,5.32,0,0,1,0-4.46,3.65,3.65,0,0,1,1.38-1.48,4,4,0,0,1,2.1-.53,4.18,4.18,0,0,1,1.95.45,3.36,3.36,0,0,1,1.38,1.39,4.59,4.59,0,0,1,.52,2.31v.62H98.64a2,2,0,0,0,.5,1.44,1.81,1.81,0,0,0,1.36.53,1.9,1.9,0,0,0,1-.24,1.3,1.3,0,0,0,.59-.71l2.1.14A2.87,2.87,0,0,1,103,47.4,4.21,4.21,0,0,1,100.46,48.08ZM98.64,43h3.44a1.67,1.67,0,0,0-.47-1.21,1.79,1.79,0,0,0-2.44,0A1.77,1.77,0,0,0,98.64,43Z"/><path class="cls-4" d="M108,43.19v4.73H105.7V39.74h2.16v1.45h.1a2.28,2.28,0,0,1,.91-1.14,2.74,2.74,0,0,1,1.55-.41,2.68,2.68,0,0,1,2,.82,3.18,3.18,0,0,1,.77,2.25v5.21H111v-4.8a1.69,1.69,0,0,0-.38-1.18,1.39,1.39,0,0,0-1.07-.42,1.51,1.51,0,0,0-1.12.44A1.68,1.68,0,0,0,108,43.19Z"/></g></g></svg>