<svg xmlns="http://www.w3.org/2000/svg" viewBox="0 0 246.47 174.56"><defs><style>.cls-1{fill:#ffd2d2;}.cls-2{fill:#fb7071;}.cls-3{font-size:18px;font-family:Inter_FXH-Regular, Inter_FXH;}.cls-3,.cls-6{fill:#fff;}.cls-4{letter-spacing:-0.02em;}.cls-5{fill:#ff8f8f;}</style></defs><title>buyADozenAsset 3</title><g id="Layer_2" data-name="Layer 2"><g id="Layer_1-2" data-name="Layer 1"><path class="cls-1" d="M35.45,22.75A55.57,55.57,0,0,1,83.79,5.11,159.87,159.87,0,0,0,115.12,6a158.14,158.14,0,0,0,27-4.3,56.57,56.57,0,0,1,57.35,18.91q2.06,2.55,4.38,5.12a124.18,124.18,0,0,0,19.81,17.64c15.28,10.91,24.08,28.32,22.7,46.43a103.49,103.49,0,0,0-.13,13.59c0,.35.05.69.07,1,1.77,26.14-16.66,49.56-43.45,54.77l-2.79.55A266.38,266.38,0,0,0,160.77,171a57.33,57.33,0,0,1-44.38-1.91,261.83,261.83,0,0,0-48.07-17.23c-6.73-1.7-13.26-3.06-19.54-4.14C23.93,143.42,5.35,123.5,3.22,99.46c0-.2,0-.4-.05-.6a105.94,105.94,0,0,0-2-12.75C-3.32,66,5.46,45.53,23,33.67a68.11,68.11,0,0,0,6.22-4.76A66.84,66.84,0,0,0,35.45,22.75Z"/><rect class="cls-2" x="57.17" y="63.8" width="144.58" height="46.95" rx="5"/><text class="cls-3" transform="translate(77.29 92.18)">buy a do<tspan class="cls-4" x="73.85" y="0">z</tspan><tspan x="83.31" y="0">en</tspan></text><polygon class="cls-5" points="175.04 121.95 168.96 126.43 165.69 102.35 187.73 112.59 181.65 117.07 187.07 124.42 180.46 129.29 175.04 121.95"/><path class="cls-6" d="M167.55,104.86l17.26,8-5.25,3.87L185,124.1l-2.1,1.55-2.1,1.55-5.41-7.35-5.25,3.87-2.56-18.86m-3.71-5,.74,5.44,2.55,18.85.68,5,4.08-3,2.83-2.09,3.64,4.94,1.78,2.41,2.41-1.78,2.1-1.55,2.1-1.54,2.42-1.78-1.78-2.42-3.64-4.93,2.84-2.09,4.07-3-4.59-2.13-17.26-8-5-2.31Z"/><rect class="cls-5" x="35.68" y="104.85" width="11.15" height="3.64"/><path class="cls-6" d="M46.33,105.35V108H36.18v-2.64H46.33m1-1H35.18V109H47.33v-4.64Z"/><rect class="cls-5" x="39.59" y="115.92" width="10.95" height="3.64" transform="translate(-48.47 33.21) rotate(-26.95)"/><path class="cls-6" d="M48.9,114.31l1.19,2.35-8.86,4.51L40,118.82l8.87-4.51m.43-1.34-.89.45-8.86,4.51-.89.45.45.89,1.19,2.35.46.89.89-.45,8.86-4.51.9-.45-.46-.89-1.19-2.35-.46-.89Z"/><rect class="cls-5" x="50.78" y="122.66" width="10.46" height="3.64" transform="translate(-75.08 162.5) rotate(-81.95)"/><path class="cls-6" d="M55.37,119.6,58,120l-1.33,9.37L54,129l1.33-9.38m-.85-1.13-.14,1-1.33,9.38-.14,1,1,.14,2.61.36,1,.14.14-1L59,120.11l.14-1-1-.14-2.61-.37-1-.14Z"/><rect class="cls-5" x="209.34" y="65.44" width="11.64" height="3.58" transform="translate(-4.91 18.43) rotate(-4.85)"/><path class="cls-6" d="M220.35,65.5l.22,2.56L210,69l-.21-2.56,10.6-.9m.91-1.09-1,.09-10.61.9-1,.08.08,1,.22,2.57.08,1,1-.08,10.6-.9,1-.09-.08-1-.22-2.57-.09-1Z"/><polygon class="cls-5" points="205.2 57.25 215.4 52.42 217.14 55.59 206.93 60.42 205.2 57.25"/><path class="cls-6" d="M215.19,53.07l1.25,2.3-9.3,4.4-1.25-2.3,9.3-4.4m.43-1.3-.86.4-9.3,4.4-1,.45L205,58l1.26,2.3.45.83.85-.41,9.3-4.4,1-.45-.51-.93-1.25-2.3-.45-.82Z"/><polygon class="cls-5" points="197.04 54.67 198.58 44.53 202.32 45.02 200.78 55.16 197.04 54.67"/><path class="cls-6" d="M199,45.09l2.74.36-1.39,9.15-2.74-.36L199,45.09M198.16,44l-.14,1-1.39,9.15-.16,1,1,.13,2.74.36,1,.13.14-1,1.39-9.15.16-1-1-.13-2.74-.36-1-.13Z"/></g></g></svg>