<svg xmlns="http://www.w3.org/2000/svg" viewBox="0 0 235.15 183.85"><defs><style>.cls-1{fill:#ffd2d2;stroke:#fff;stroke-miterlimit:10;stroke-width:2px;}.cls-2{fill:#ff8f8f;}.cls-3{font-size:17.38px;}.cls-3,.cls-4,.cls-5{fill:#fff;}.cls-3,.cls-5{font-family:Inter_FXH-Regular, Inter_FXH;}.cls-5{font-size:12.05px;}</style></defs><title>buyAPieceAsset 1</title><g id="Layer_2" data-name="Layer 2"><g id="Layer_1-2" data-name="Layer 1"><path class="cls-1" d="M178.23,5a39.43,39.43,0,0,0-41,4,152.7,152.7,0,0,1-36.16,20.3,151.57,151.57,0,0,1-42.65,10A40.22,40.22,0,0,0,24.94,63.93,183.86,183.86,0,0,1,8.46,94.51l-.38.57c-13.88,20.6-6.64,49,15.48,59.79,4.69,2.3,9.45,4.78,14.27,7.48,8,4.48,15.45,9.11,22.26,13.73a39.49,39.49,0,0,0,33.38,5.14,458.22,458.22,0,0,1,82.93-16.28q6.39-.65,12.61-1.1c20.91-1.53,37.15-19.09,37.29-40.41a253.65,253.65,0,0,1,6.75-56.36A40.87,40.87,0,0,0,211.25,21Z"/><rect class="cls-2" x="45.45" y="74.33" width="139.56" height="45.32" rx="5"/><text class="cls-3" transform="translate(67.84 101.72)">buy a piece</text><polygon class="cls-2" points="160.72 130.46 154.85 134.78 151.7 111.54 172.97 121.43 167.1 125.75 172.33 132.85 165.95 137.55 160.72 130.46"/><path class="cls-4" d="M153.49,114l16.65,7.74-5.06,3.74,5.23,7.09-2,1.49-2,1.5-5.23-7.1L156,132.17,153.49,114m-3.59-4.86.72,5.25,2.47,18.2.65,4.84,3.93-2.9,2.74-2,3.51,4.77,1.72,2.33,2.33-1.72,2-1.49,2-1.5,2.33-1.72-1.72-2.33-3.51-4.76,2.73-2,3.93-2.9-4.43-2.06-16.65-7.74-4.81-2.23Z"/><rect class="cls-2" x="26.19" y="113.96" width="10.76" height="3.51"/><path class="cls-4" d="M36.47,114.44V117H26.68v-2.55h9.79m1-1H25.71V118H37.44v-4.47Z"/><rect class="cls-2" x="29.96" y="124.64" width="10.57" height="3.51" transform="translate(-53.45 29.7) rotate(-26.95)"/><path class="cls-4" d="M39,123.09l1.15,2.27-8.56,4.35-1.15-2.27L39,123.09m.42-1.3-.86.44L30,126.58l-.86.43.44.87,1.15,2.27.44.86.86-.44,8.56-4.35.86-.44-.44-.86-1.15-2.27-.44-.86Z"/><rect class="cls-2" x="40.77" y="131.14" width="10.1" height="3.51" transform="translate(-92.19 159.65) rotate(-81.95)"/><path class="cls-4" d="M45.2,128.2l2.52.35-1.28,9-2.52-.36,1.28-9m-.82-1.09-.14,1L43,137.11l-.13,1,1,.13,2.52.36,1,.13.13-.95,1.28-9.05.14-1-1-.13-2.52-.36-.95-.13Z"/><rect class="cls-2" x="193.82" y="75.91" width="11.24" height="3.45" transform="translate(-5.85 17.16) rotate(-4.85)"/><path class="cls-4" d="M204.46,76l.21,2.47-10.24.87-.21-2.48L204.46,76m.88-1-1,.08-10.24.87-1,.08.08,1,.21,2.47.08,1,1-.09,10.24-.86,1-.09-.08-1-.21-2.48-.08-1Z"/><polygon class="cls-2" points="189.83 68.01 199.68 63.34 201.35 66.41 191.5 71.07 189.83 68.01"/><path class="cls-4" d="M199.47,64l1.22,2.21-9,4.25-1.21-2.22,9-4.24m.42-1.27-.83.39-9,4.25-.92.44.49.9,1.21,2.21.44.8.82-.39,9-4.25.92-.43-.49-.9-1.21-2.22-.43-.8Z"/><polygon class="cls-2" points="181.96 65.52 183.44 55.73 187.05 56.2 185.56 65.99 181.96 65.52"/><path class="cls-4" d="M183.85,56.27l2.65.35-1.35,8.83-2.64-.35,1.34-8.83M183,55.19l-.14.93L181.55,65l-.14,1,1,.13,2.65.35.94.12.14-.94,1.34-8.83.15-1-1-.13L184,55.31l-.94-.12Z"/><text class="cls-5" transform="translate(85.43 67.21)">Click or tap</text></g></g></svg>