<svg xmlns="http://www.w3.org/2000/svg" viewBox="0 0 139.56 84.94"><defs><style>.cls-1{fill:#ff437b;}.cls-2{fill:#fafafa;}.cls-3{fill:#fff;}</style></defs><title>buyAPieceAsset 8</title><g id="Layer_2" data-name="Layer 2"><g id="Layer_1-2" data-name="Layer 1"><rect class="cls-1" y="21.18" width="139.56" height="45.32" rx="22.66"/><polygon class="cls-1" points="108.09 75.82 102.23 80.15 99.07 56.9 120.35 66.79 114.48 71.12 119.71 78.21 113.33 82.92 108.09 75.82"/><path class="cls-2" d="M100.86,59.33l16.66,7.74-5.07,3.74,5.23,7.09-2,1.5-2,1.49L108.4,73.8l-5.07,3.73-2.47-18.2m-3.58-4.86L98,59.72l2.47,18.2.66,4.84,3.93-2.89,2.74-2,3.51,4.76L113,84.94l2.33-1.72,2-1.49,2-1.49,2.33-1.72L120,76.19l-3.52-4.77,2.74-2,3.93-2.9-4.43-2.06-16.66-7.74-4.8-2.24Z"/><path class="cls-3" d="M29,47.92V37h2.27v4.11h.07a3.26,3.26,0,0,1,.44-.68,2.19,2.19,0,0,1,.75-.57,2.44,2.44,0,0,1,1.14-.23,3.07,3.07,0,0,1,1.65.46,3.35,3.35,0,0,1,1.21,1.4A5.42,5.42,0,0,1,37,43.84a5.29,5.29,0,0,1-.44,2.31,3.33,3.33,0,0,1-1.19,1.43,3.05,3.05,0,0,1-1.68.48,2.71,2.71,0,0,1-1.13-.22,2.51,2.51,0,0,1-.75-.55,3.08,3.08,0,0,1-.45-.68h-.1v1.31Zm2.23-4.09a3.08,3.08,0,0,0,.45,1.76,1.44,1.44,0,0,0,1.27.66,1.42,1.42,0,0,0,1.27-.67,3.09,3.09,0,0,0,.45-1.75,3.13,3.13,0,0,0-.44-1.73A1.45,1.45,0,0,0,33,41.44a1.48,1.48,0,0,0-1.28.65A3,3,0,0,0,31.23,43.83Z"/><path class="cls-3" d="M43.74,44.44v-4.7H46v8.18H43.83V46.44h-.09a2.36,2.36,0,0,1-.92,1.15,2.7,2.7,0,0,1-1.56.44,2.6,2.6,0,0,1-2-.82A3.19,3.19,0,0,1,38.49,45V39.74h2.27v4.81a1.61,1.61,0,0,0,.39,1.14,1.32,1.32,0,0,0,1,.42,1.6,1.6,0,0,0,1.09-.42A1.62,1.62,0,0,0,43.74,44.44Z"/><path class="cls-3" d="M49.22,51a5.13,5.13,0,0,1-.81-.06,3.18,3.18,0,0,1-.62-.17l.51-1.7a2.13,2.13,0,0,0,1,.1c.28,0,.49-.27.64-.66l.13-.34-2.93-8.42h2.38l1.7,6h.08l1.71-6h2.41l-3.18,9.06A3.54,3.54,0,0,1,51.2,50.4,3,3,0,0,1,49.22,51Z"/><path class="cls-3" d="M62.42,48.08a3.11,3.11,0,0,1-2-.61,2.21,2.21,0,0,1-.77-1.83,2.25,2.25,0,0,1,.43-1.44,2.47,2.47,0,0,1,1.14-.76,6,6,0,0,1,1.51-.32,13.22,13.22,0,0,0,1.52-.22.52.52,0,0,0,.46-.52v0a1,1,0,0,0-.32-.78,1.29,1.29,0,0,0-.9-.28,1.57,1.57,0,0,0-1,.27,1.26,1.26,0,0,0-.48.68L60,42.06a2.82,2.82,0,0,1,1.16-1.77,4.05,4.05,0,0,1,2.4-.65,5,5,0,0,1,1.71.28,2.9,2.9,0,0,1,1.28.9A2.51,2.51,0,0,1,67,42.41v5.51H64.87V46.79h-.06a2.4,2.4,0,0,1-.89.93A2.87,2.87,0,0,1,62.42,48.08Zm.65-1.57a1.73,1.73,0,0,0,1.22-.43A1.4,1.4,0,0,0,64.77,45v-.87a1.16,1.16,0,0,1-.41.16,4.9,4.9,0,0,1-.6.12l-.56.09a2.46,2.46,0,0,0-1,.33.84.84,0,0,0-.36.73.8.8,0,0,0,.34.71A1.43,1.43,0,0,0,63.07,46.51Z"/><path class="cls-3" d="M72.27,51V39.74H74.5v1.38h.11a2.85,2.85,0,0,1,.43-.68,2.19,2.19,0,0,1,.75-.57,2.47,2.47,0,0,1,1.14-.23,3.12,3.12,0,0,1,1.66.46,3.27,3.27,0,0,1,1.2,1.4,5.28,5.28,0,0,1,.46,2.34,5.44,5.44,0,0,1-.44,2.31,3.42,3.42,0,0,1-1.2,1.43,3.05,3.05,0,0,1-1.68.48,2.66,2.66,0,0,1-1.12-.22,2.28,2.28,0,0,1-.75-.55,2.5,2.5,0,0,1-.45-.68h-.07V51Zm2.22-7.16a3.08,3.08,0,0,0,.45,1.76,1.55,1.55,0,0,0,2.55,0,3.17,3.17,0,0,0,.44-1.75,3.13,3.13,0,0,0-.44-1.73,1.57,1.57,0,0,0-2.55,0A3,3,0,0,0,74.49,43.83Z"/><path class="cls-3" d="M82.89,38.69a1.24,1.24,0,0,1-.86-.34,1.09,1.09,0,0,1-.36-.81,1.06,1.06,0,0,1,.36-.81,1.27,1.27,0,0,1,1.73,0,1.06,1.06,0,0,1,.36.81,1.09,1.09,0,0,1-.36.81A1.25,1.25,0,0,1,82.89,38.69Zm-1.14,9.23V39.74H84v8.18Z"/><path class="cls-3" d="M89.56,48.08a4.34,4.34,0,0,1-2.16-.51A3.48,3.48,0,0,1,86,46.11a5.32,5.32,0,0,1,0-4.46,3.61,3.61,0,0,1,1.39-1.48,3.94,3.94,0,0,1,2.09-.53,4.25,4.25,0,0,1,2,.45,3.36,3.36,0,0,1,1.38,1.39,4.7,4.7,0,0,1,.51,2.31v.62H87.75a2,2,0,0,0,.5,1.44,1.77,1.77,0,0,0,1.35.53,2,2,0,0,0,1-.24,1.32,1.32,0,0,0,.58-.71l2.1.14a2.86,2.86,0,0,1-1.21,1.82A4.22,4.22,0,0,1,89.56,48.08ZM87.75,43h3.43a1.67,1.67,0,0,0-.47-1.21,1.61,1.61,0,0,0-1.2-.47,1.66,1.66,0,0,0-1.24.49A1.76,1.76,0,0,0,87.75,43Z"/><path class="cls-3" d="M98.5,48.08a4.12,4.12,0,0,1-2.16-.53A3.51,3.51,0,0,1,95,46.06a4.83,4.83,0,0,1-.48-2.19A4.71,4.71,0,0,1,95,41.66a3.55,3.55,0,0,1,1.38-1.49,4.11,4.11,0,0,1,2.15-.53,4.36,4.36,0,0,1,1.87.38,3.13,3.13,0,0,1,1.28,1.1,3.19,3.19,0,0,1,.51,1.65H100a1.66,1.66,0,0,0-.48-1,1.39,1.39,0,0,0-1-.38,1.51,1.51,0,0,0-1.26.64,2.91,2.91,0,0,0-.48,1.79,3,3,0,0,0,.47,1.82,1.52,1.52,0,0,0,1.27.64,1.44,1.44,0,0,0,1-.36,1.65,1.65,0,0,0,.5-1h2.14a3.38,3.38,0,0,1-.51,1.66,3.14,3.14,0,0,1-1.25,1.11A4.31,4.31,0,0,1,98.5,48.08Z"/><path class="cls-3" d="M107.34,48.08a4.38,4.38,0,0,1-2.17-.51,3.46,3.46,0,0,1-1.4-1.46,5.32,5.32,0,0,1,0-4.46,3.65,3.65,0,0,1,1.38-1.48,4,4,0,0,1,2.1-.53,4.18,4.18,0,0,1,2,.45,3.36,3.36,0,0,1,1.38,1.39,4.7,4.7,0,0,1,.51,2.31v.62h-5.57a2,2,0,0,0,.5,1.44,1.81,1.81,0,0,0,1.36.53,1.92,1.92,0,0,0,1-.24,1.34,1.34,0,0,0,.59-.71l2.1.14a2.87,2.87,0,0,1-1.22,1.82A4.21,4.21,0,0,1,107.34,48.08ZM105.52,43H109a1.71,1.71,0,0,0-.47-1.21,1.63,1.63,0,0,0-1.2-.47,1.68,1.68,0,0,0-1.25.49A1.81,1.81,0,0,0,105.52,43Z"/><path class="cls-1" d="M38.71,4.44H36.38A2.15,2.15,0,0,0,35.61,3,2.44,2.44,0,0,0,34,2.51a2.49,2.49,0,0,0-2,.93,4.05,4.05,0,0,0-.77,2.64A4,4,0,0,0,32,8.73a2.72,2.72,0,0,0,3.57.43,2.1,2.1,0,0,0,.81-1.36h2.33A4.33,4.33,0,0,1,38,9.7a4.38,4.38,0,0,1-1.61,1.43,5,5,0,0,1-2.41.55A5.11,5.11,0,0,1,31.37,11a4.64,4.64,0,0,1-1.81-1.91,6.34,6.34,0,0,1-.67-3,6.47,6.47,0,0,1,.67-3,4.75,4.75,0,0,1,1.83-1.91A5.09,5.09,0,0,1,34,.47a5.36,5.36,0,0,1,2.27.47,4.14,4.14,0,0,1,1.66,1.35A4.39,4.39,0,0,1,38.71,4.44Z"/><path class="cls-1" d="M42.59.62V11.53H40.32V.62Z"/><path class="cls-1" d="M45.54,2.3A1.24,1.24,0,0,1,44.68,2a1.09,1.09,0,0,1-.36-.81,1.06,1.06,0,0,1,.36-.81,1.27,1.27,0,0,1,1.73,0,1.06,1.06,0,0,1,.36.81,1.09,1.09,0,0,1-.36.81A1.25,1.25,0,0,1,45.54,2.3ZM44.4,11.53V3.35h2.27v8.18Z"/><path class="cls-1" d="M52.18,11.69A4.22,4.22,0,0,1,50,11.16a3.61,3.61,0,0,1-1.38-1.49,4.72,4.72,0,0,1-.49-2.2,4.79,4.79,0,0,1,.49-2.2A3.64,3.64,0,0,1,50,3.78a4.07,4.07,0,0,1,2.14-.54,4.3,4.3,0,0,1,1.88.39,3.15,3.15,0,0,1,1.27,1.09,3.32,3.32,0,0,1,.52,1.66H53.69a1.71,1.71,0,0,0-.47-1,1.41,1.41,0,0,0-1-.38,1.5,1.5,0,0,0-1.27.64,2.91,2.91,0,0,0-.48,1.79,3,3,0,0,0,.48,1.81,1.51,1.51,0,0,0,1.27.65,1.39,1.39,0,0,0,1-.36,1.55,1.55,0,0,0,.5-1h2.15a3.41,3.41,0,0,1-.51,1.65,3.08,3.08,0,0,1-1.26,1.11A4.12,4.12,0,0,1,52.18,11.69Z"/><path class="cls-1" d="M57.3,11.53V.62h2.26V6.46h.13l2.62-3.11h2.6l-3,3.54,3.19,4.64H62.41L60.18,8.24l-.62.69v2.6Z"/><path class="cls-1" d="M73.2,11.69a4.11,4.11,0,0,1-2.15-.53,3.55,3.55,0,0,1-1.39-1.48,4.71,4.71,0,0,1-.49-2.21,4.78,4.78,0,0,1,.49-2.22,3.67,3.67,0,0,1,1.39-1.48,4.61,4.61,0,0,1,4.29,0,3.61,3.61,0,0,1,1.39,1.48,4.78,4.78,0,0,1,.49,2.22,4.71,4.71,0,0,1-.49,2.21,3.49,3.49,0,0,1-1.39,1.48A4.1,4.1,0,0,1,73.2,11.69Zm0-1.76a1.4,1.4,0,0,0,1.27-.7,3.32,3.32,0,0,0,.44-1.77,3.33,3.33,0,0,0-.44-1.78A1.4,1.4,0,0,0,73.21,5a1.43,1.43,0,0,0-1.3.71,3.33,3.33,0,0,0-.43,1.78,3.32,3.32,0,0,0,.43,1.77A1.42,1.42,0,0,0,73.21,9.93Z"/><path class="cls-1" d="M78.7,11.53V3.35h2.2V4.78H81a2.12,2.12,0,0,1,.75-1.15A1.94,1.94,0,0,1,83,3.23a3.31,3.31,0,0,1,.72.08v2a2,2,0,0,0-.44-.09,5.13,5.13,0,0,0-.52,0,1.69,1.69,0,0,0-1.24.48A1.61,1.61,0,0,0,81,6.9v4.63Z"/><path class="cls-1" d="M92.66,3.35v1.7H91.13V9a.77.77,0,0,0,.21.63.88.88,0,0,0,.55.17,1.66,1.66,0,0,0,.32,0l.25,0,.35,1.69a4.89,4.89,0,0,1-.48.13,4.65,4.65,0,0,1-.75.08,2.89,2.89,0,0,1-2-.53,2.1,2.1,0,0,1-.74-1.79V5.05H87.74V3.35h1.12v-2h2.27v2Z"/><path class="cls-1" d="M96.47,11.69a3,3,0,0,1-1.94-.62,2.15,2.15,0,0,1-.77-1.82,2.19,2.19,0,0,1,.43-1.44A2.54,2.54,0,0,1,95.32,7a6.52,6.52,0,0,1,1.51-.31,10.64,10.64,0,0,0,1.52-.23A.51.51,0,0,0,98.81,6V6a.94.94,0,0,0-.32-.78,1.28,1.28,0,0,0-.89-.28,1.61,1.61,0,0,0-1,.27,1.24,1.24,0,0,0-.48.67L94,5.67A2.84,2.84,0,0,1,95.21,3.9a4.05,4.05,0,0,1,2.4-.66,5,5,0,0,1,1.7.29,2.77,2.77,0,0,1,1.28.9A2.43,2.43,0,0,1,101.08,6v5.52H98.93V10.4h-.07a2.27,2.27,0,0,1-.89.93A2.82,2.82,0,0,1,96.47,11.69Zm.65-1.57a1.76,1.76,0,0,0,1.23-.43,1.4,1.4,0,0,0,.48-1.08V7.74a1.47,1.47,0,0,1-.42.16,4.72,4.72,0,0,1-.59.12l-.57.09a2.22,2.22,0,0,0-1,.33.84.84,0,0,0-.37.73.82.82,0,0,0,.34.71A1.46,1.46,0,0,0,97.12,10.12Z"/><path class="cls-1" d="M102.84,14.6V3.35h2.24V4.72h.1a3.08,3.08,0,0,1,.44-.67,2.25,2.25,0,0,1,.74-.57,2.51,2.51,0,0,1,1.15-.24,3.07,3.07,0,0,1,1.65.47,3.35,3.35,0,0,1,1.21,1.4,5.36,5.36,0,0,1,.45,2.34,5.35,5.35,0,0,1-.44,2.31,3.24,3.24,0,0,1-1.19,1.42,3.07,3.07,0,0,1-1.69.49,2.69,2.69,0,0,1-1.12-.22,2.51,2.51,0,0,1-.75-.55,3.33,3.33,0,0,1-.45-.68h-.07V14.6Zm2.22-7.16a3.1,3.1,0,0,0,.45,1.76,1.46,1.46,0,0,0,1.28.66,1.44,1.44,0,0,0,1.27-.67,3.09,3.09,0,0,0,.45-1.75,3.13,3.13,0,0,0-.44-1.73,1.58,1.58,0,0,0-2.56,0A3,3,0,0,0,105.06,7.44Z"/></g></g></svg>