<svg xmlns="http://www.w3.org/2000/svg" viewBox="0 0 246.56 191.72"><defs><style>.cls-1{fill:#ffd2d2;stroke:#fff;stroke-miterlimit:10;stroke-width:2px;}.cls-2{fill:#ff8f8f;}.cls-3{font-size:16.05px;}.cls-3,.cls-5,.cls-6{fill:#fff;}.cls-3,.cls-5{font-family:Inter_FXH-Regular, Inter_FXH;}.cls-4{letter-spacing:-0.02em;}.cls-5{font-size:12.48px;}</style></defs><title>buyADozenAsset 2</title><g id="Layer_2" data-name="Layer 2"><g id="Layer_1-2" data-name="Layer 1"><path class="cls-1" d="M13.43,83.45c4.36-17.3,17.42-31.63,34.64-38.05A159.34,159.34,0,0,0,76.22,31.64a157.84,157.84,0,0,0,21.9-16.31C114.46.8,138-3,157.7,5.48c2,.87,4.1,1.71,6.26,2.5a123.31,123.31,0,0,0,25.73,6.44C208.29,17,224.16,28.34,231.34,45a102.09,102.09,0,0,0,6.19,12.1c.18.3.35.59.54.89,13.68,22.34,8.22,51.63-13.1,68.67l-2.21,1.79a264.26,264.26,0,0,0-29.56,28.19A57.37,57.37,0,0,1,153,175.56a262.47,262.47,0,0,0-50.57,7C95.67,184.2,89.25,186,83.18,188c-24,7.73-49.69-1.31-62.73-21.62l-.33-.5a103.37,103.37,0,0,0-7.7-10.37c-13.31-15.78-15-37.94-5-56.56a68.5,68.5,0,0,0,3.31-7.11A67.59,67.59,0,0,0,13.43,83.45Z"/><rect class="cls-2" x="58.87" y="79.83" width="128.93" height="41.87" rx="5"/><text class="cls-3" transform="translate(76.81 105.13)">buy a do<tspan class="cls-4" x="65.86" y="0">z</tspan><tspan x="74.29" y="0">en</tspan></text><text class="cls-5" transform="translate(87.51 73.25)">Click or tap</text><polygon class="cls-2" points="171.53 137.36 165.12 142.08 161.68 116.71 184.9 127.5 178.49 132.22 184.2 139.96 177.23 145.1 171.53 137.36"/><path class="cls-6" d="M163.64,119.36l18.17,8.45-5.53,4.08,5.71,7.74-2.21,1.63-2.21,1.63-5.71-7.74-5.53,4.08-2.69-19.87m-3.91-5.3.77,5.73,2.7,19.86.71,5.28,4.3-3.16,3-2.2,3.83,5.2,1.88,2.54,2.54-1.87,2.22-1.64,2.21-1.63,2.54-1.87-1.87-2.55-3.84-5.19,3-2.21,4.29-3.16-4.83-2.25L165,116.5l-5.24-2.44Z"/><rect class="cls-2" x="39.71" y="116.44" width="9.94" height="3.24"/><path class="cls-6" d="M49.2,116.88v2.36H40.15v-2.36H49.2m.89-.89H39.26v4.14H50.09V116Z"/><rect class="cls-2" x="43.19" y="126.31" width="9.76" height="3.24" transform="translate(-52.76 35.68) rotate(-26.95)"/><path class="cls-6" d="M51.49,124.87l1.07,2.1-7.91,4-1.07-2.1,7.91-4m.39-1.2-.79.41-7.91,4-.79.41.4.79,1.07,2.1.4.8.79-.41,7.91-4,.8-.4-.41-.8-1.06-2.09-.41-.8Z"/><rect class="cls-2" x="53.17" y="132.31" width="9.33" height="3.24" transform="translate(-82.88 172.43) rotate(-81.95)"/><path class="cls-6" d="M57.26,129.59l2.33.33-1.18,8.36L56.08,138l1.18-8.36m-.76-1-.12.89-1.18,8.35-.13.89.89.12,2.32.33.89.13.12-.89,1.18-8.35.13-.89-.88-.12-2.33-.33-.89-.13Z"/><rect class="cls-2" x="194.56" y="81.29" width="10.38" height="3.19" transform="translate(-6.29 17.19) rotate(-4.85)"/><path class="cls-6" d="M204.39,81.34l.19,2.29-9.46.8-.19-2.29,9.46-.8m.81-1-.89.07-9.46.8-.88.08.07.89.19,2.29.08.89.89-.08,9.46-.8.89-.08-.08-.89-.19-2.28-.08-.89Z"/><polygon class="cls-2" points="190.87 73.99 199.97 69.68 201.52 72.51 192.42 76.82 190.87 73.99"/><path class="cls-6" d="M199.78,70.26l1.12,2-8.29,3.93-1.12-2,8.29-3.93m.38-1.16-.76.36-8.29,3.92-.86.41.46.83,1.12,2,.4.74L193,77l8.29-3.92.86-.41-.46-.83-1.11-2-.41-.74Z"/><polygon class="cls-2" points="183.6 71.69 184.97 62.65 188.3 63.08 186.93 72.13 183.6 71.69"/><path class="cls-6" d="M185.35,63.14l2.44.33-1.24,8.16-2.44-.33,1.24-8.16m-.75-1-.13.86-1.24,8.16-.14.9.9.12,2.45.32.86.11.14-.86,1.24-8.16.13-.9-.9-.12-2.44-.32-.87-.11Z"/></g></g></svg>