<svg xmlns="http://www.w3.org/2000/svg" viewBox="0 0 139.56 63.76"><defs><style>.cls-1{fill:#ff437b;}.cls-2{fill:#fafafa;}.cls-3{font-size:15px;fill:#fff;font-family:Inter_FXH-Bold, Inter_FXH;font-weight:700;}</style></defs><title>buyAPieceAsset 4</title><g id="Layer_2" data-name="Layer 2"><g id="Layer_1-2" data-name="Layer 1"><rect class="cls-1" width="139.56" height="45.32" rx="22.66"/><polygon class="cls-1" points="108.01 54.64 102.15 58.97 98.99 35.72 120.27 45.61 114.4 49.94 119.63 57.03 113.24 61.74 108.01 54.64"/><path class="cls-2" d="M100.78,38.15l16.66,7.74-5.07,3.74,5.23,7.09-2,1.5-2,1.49-5.23-7.09-5.07,3.73-2.47-18.2M97.2,33.29l.71,5.25,2.47,18.2.66,4.84,3.93-2.9,2.74-2,3.51,4.76,1.72,2.33L115.27,62l2-1.49,2-1.5,2.33-1.72L119.93,55l-3.51-4.76,2.74-2,3.93-2.9-4.43-2L102,35.52l-4.8-2.23Z"/><text class="cls-3" transform="translate(27.97 26.74)">buy a piece</text></g></g></svg>