<svg xmlns="http://www.w3.org/2000/svg" viewBox="0 0 139.56 86.36"><defs><style>.cls-1,.cls-5{font-size:15px;font-family:Inter_FXH-Bold, Inter_FXH;font-weight:700;}.cls-1,.cls-2{fill:#fb3371;}.cls-3{fill:#ff437b;}.cls-4{fill:#fafafa;}.cls-5{fill:#fff;}.cls-6{letter-spacing:-0.02em;}</style></defs><title>buyADozenAsset 7</title><g id="Layer_2" data-name="Layer 2"><g id="Layer_1-2" data-name="Layer 1"><text class="cls-1" transform="translate(28.14 12.95)">Click or tap</text><rect class="cls-2" y="22.6" width="139.56" height="45.32" rx="22.66"/><polygon class="cls-3" points="106.75 77.25 100.88 81.57 97.73 58.33 119 68.21 113.13 72.54 118.36 79.63 111.98 84.34 106.75 77.25"/><path class="cls-4" d="M99.52,60.75l16.66,7.75-5.07,3.73,5.23,7.1-2,1.49-2,1.5-5.23-7.1L102,79,99.52,60.75M95.94,55.9l.71,5.24,2.47,18.21.65,4.84,3.94-2.9,2.73-2L110,84l1.72,2.33L114,84.65l2-1.5,2-1.49,2.33-1.72-1.72-2.33-3.51-4.77,2.73-2,3.94-2.9-4.43-2.06-16.66-7.74-4.8-2.23Z"/><text class="cls-5" transform="translate(25.44 49.35)">buy a do<tspan class="cls-6" x="62.04" y="0">z</tspan><tspan x="70.38" y="0">en</tspan></text></g></g></svg>