<svg xmlns="http://www.w3.org/2000/svg" viewBox="0 0 61.22 38.83"><defs><style>.cls-1{isolation:isolate;}.cls-2{mix-blend-mode:multiply;}.cls-3,.cls-4{fill:none;stroke-linecap:round;stroke-miterlimit:10;stroke-width:2.31px;}.cls-3{stroke:#000;}.cls-4{stroke:#d4145a;}</style></defs><title>Asset 5</title><g class="cls-1"><g id="Layer_2" data-name="Layer 2"><g id="Layer_1-2" data-name="Layer 1"><g class="cls-2"><path class="cls-3" d="M2.16,16s8.41.2,11.93,11.94S-.39,42.18,4.7,27.9,20.6,16.69,21.53,8.62c.51-6-7.63-9.36-9.37-3.16a7.63,7.63,0,0,0,.45,5.15C17.65,21.89,27,24.2,27.89,29.22c1,5.28-8.52,6.26-8.17.34.23-4.53,7.46-9,10.7-12.3A3.85,3.85,0,0,0,30,11.38c-1.38-.91-3.15-.74-4.23,2.09C24,20.22,38.54,23.37,39.12,26.11s-4.3,3.92-6.84.79S37.36,19.47,40.1,20a41.89,41.89,0,0,1,7.54,3,15.32,15.32,0,0,0,8.09,1.53,10.57,10.57,0,0,0,4.33-1.3"/></g><path class="cls-4" d="M1.16,15s8.41.2,11.93,11.94-14.48,14.28-9.39,0S19.6,15.69,20.53,7.62c.51-6-7.63-9.36-9.37-3.16a7.63,7.63,0,0,0,.45,5.15C16.65,20.89,26,23.2,26.89,28.22c1,5.28-8.52,6.26-8.17.34.23-4.53,7.46-9,10.7-12.3A3.85,3.85,0,0,0,29,10.38c-1.38-.91-3.15-.74-4.23,2.09C23,19.22,37.54,22.37,38.12,25.11s-4.3,3.92-6.84.79S36.36,18.47,39.1,19a41.89,41.89,0,0,1,7.54,3,15.32,15.32,0,0,0,8.09,1.53,10.57,10.57,0,0,0,4.33-1.3"/></g></g></g></svg>