<svg xmlns="http://www.w3.org/2000/svg" viewBox="0 0 61.21 38.83"><defs><style>.cls-1{isolation:isolate;}.cls-2{mix-blend-mode:multiply;}.cls-3,.cls-4{fill:none;stroke-linecap:round;stroke-miterlimit:10;stroke-width:2.31px;}.cls-3{stroke:#000;}.cls-4{stroke:#d4145a;}</style></defs><title>Asset 4</title><g class="cls-1"><g id="Layer_2" data-name="Layer 2"><g id="Layer_1-2" data-name="Layer 1"><g class="cls-2"><path class="cls-3" d="M60.06,16s-8.42.2-11.94,11.94,14.48,14.28,9.39,0S41.62,16.69,40.69,8.62c-.52-6,7.62-9.36,9.37-3.16a7.63,7.63,0,0,1-.46,5.15c-5,11.28-14.34,13.59-15.27,18.61-1,5.28,8.51,6.26,8.17.34-.23-4.53-7.47-9-10.7-12.3a3.85,3.85,0,0,1,.46-5.88c1.37-.91,3.15-.74,4.22,2.09,1.76,6.75-12.8,9.9-13.39,12.64s4.31,3.92,6.85.79S24.85,19.47,22.11,20a41.82,41.82,0,0,0-7.53,3,15.36,15.36,0,0,1-8.1,1.53,10.48,10.48,0,0,1-4.32-1.3"/></g><path class="cls-4" d="M59.06,15s-8.42.2-11.94,11.94,14.48,14.28,9.39,0S40.62,15.69,39.69,7.62c-.52-6,7.62-9.36,9.37-3.16a7.63,7.63,0,0,1-.46,5.15c-5,11.28-14.34,13.59-15.27,18.61-1,5.28,8.51,6.26,8.17.34-.23-4.53-7.47-9-10.7-12.3a3.85,3.85,0,0,1,.46-5.88c1.37-.91,3.15-.74,4.22,2.09,1.76,6.75-12.8,9.9-13.39,12.64s4.31,3.92,6.85.79S23.85,18.47,21.11,19a41.82,41.82,0,0,0-7.53,3,15.36,15.36,0,0,1-8.1,1.53,10.48,10.48,0,0,1-4.32-1.3"/></g></g></g></svg>