<svg xmlns="http://www.w3.org/2000/svg" viewBox="0 0 146.57 132.99"><defs><style>.cls-1{fill:#ffdec2;}.cls-2{fill:#fb3371;}.cls-3{fill:#f98ff9;}.cls-4{fill:#ff3e3e;}.cls-5{fill:#fff;}.cls-6{fill:lime;}.cls-7{fill:#ff0;}.cls-8{fill:#fcf0de;stroke:#fb3371;stroke-miterlimit:10;stroke-width:7px;}</style></defs><title>chardyBasketAsset 10</title><g id="Layer_2" data-name="Layer 2"><g id="Layer_1-2" data-name="Layer 1"><path class="cls-1" d="M72.49,129.43a63,63,0,1,1,63-63A63,63,0,0,1,72.49,129.43Zm.79-75.6A12.64,12.64,0,1,0,85.91,66.47,12.65,12.65,0,0,0,73.28,53.83Z"/><path class="cls-2" d="M72.49,7A59.47,59.47,0,1,1,13,66.47,59.47,59.47,0,0,1,72.49,7m.79,75.6A16.14,16.14,0,1,0,57.15,66.47,16.13,16.13,0,0,0,73.28,82.6M72.49,0A66.47,66.47,0,1,0,139,66.47,66.55,66.55,0,0,0,72.49,0Zm.79,75.6a9.14,9.14,0,1,1,9.13-9.13,9.15,9.15,0,0,1-9.13,9.13Z"/><path class="cls-3" d="M19.25,64.53a39.67,39.67,0,0,1,6-25.86c2.06-3.17,3.77-7.51,8.16-11.44a55.7,55.7,0,0,1,10.3-7.3A41.67,41.67,0,0,1,72,12.62a44.73,44.73,0,0,1,14.6.91,48.06,48.06,0,0,1,15.79,7A54.56,54.56,0,0,1,112,28.4a54.23,54.23,0,0,1,7.43,10.05A54.18,54.18,0,0,1,126,52.14a47.59,47.59,0,0,1,2,12.79H94.29c-1.43-2.86-2.53-5.21-3.26-6.8-1.81-3.93-2.16-5-3.52-6.39A14,14,0,0,0,82,48.62a24.68,24.68,0,0,0-9-1.56A15.43,15.43,0,0,0,57.9,54.23a28.81,28.81,0,0,0-2.61,4.7,29.32,29.32,0,0,0-1.83,5.74Z"/><rect class="cls-4" x="30.08" y="57.27" width="9.78" height="1.76" transform="translate(14.72 -6.62) rotate(13.66)"/><rect class="cls-5" x="45.86" y="50.97" width="4.96" height="1.76" transform="translate(-21.27 38.43) rotate(-36.09)"/><rect class="cls-6" x="27.71" y="46.02" width="4.96" height="1.76" transform="translate(15.49 -6.9) rotate(17.49)"/><rect class="cls-4" x="42.54" y="27.91" width="4.96" height="1.76" transform="translate(39.6 -24.37) rotate(51.58)"/><rect class="cls-6" x="60.81" y="38.76" width="4.96" height="1.76" transform="translate(107.65 -20.44) rotate(94.38)"/><rect class="cls-4" x="70.01" y="20.97" width="4.96" height="1.76" transform="translate(62.13 -53.15) rotate(65.36)"/><rect class="cls-7" x="73.31" y="37.79" width="4.96" height="1.76" transform="translate(1.48 -2.77) rotate(2.11)"/><rect class="cls-4" x="91.45" y="31.16" width="4.96" height="1.76" transform="translate(22.87 -37.24) rotate(25.44)"/><rect class="cls-5" x="90.41" y="43.36" width="4.96" height="1.76" transform="translate(-8.51 26.81) rotate(-15.71)"/><rect class="cls-4" x="103.2" y="46.02" width="4.96" height="1.76" transform="translate(19.09 -29.72) rotate(17.57)"/><rect class="cls-7" x="37.9" y="40.43" width="9.78" height="1.76" transform="translate(26.39 -15.86) rotate(30)"/><rect class="cls-5" x="53.16" y="23.56" width="9.78" height="1.76" transform="translate(3.13 -6.39) rotate(6.48)"/><rect class="cls-6" x="81.73" y="22.93" width="9.78" height="1.76" transform="translate(-3.21 24.35) rotate(-15.71)"/><rect class="cls-7" x="103.42" y="35.71" width="9.78" height="1.76" transform="translate(16.1 -30.99) rotate(17.57)"/><rect class="cls-6" x="105.77" y="55.83" width="9.78" height="1.76" transform="translate(-12.51 39.62) rotate(-19.23)"/><rect class="cls-8" x="3.5" y="66.46" width="139.57" height="63.03" rx="7.39"/></g></g></svg>