<svg xmlns="http://www.w3.org/2000/svg" viewBox="0 0 146.57 132.99"><defs><style>.cls-1{fill:#ffdec2;}.cls-2{fill:#d4145a;}.cls-3{fill:#f98ff9;}.cls-4{fill:#ff3e3e;}.cls-5{fill:#fff;}.cls-6{fill:lime;}.cls-7{fill:#ff0;}.cls-8{fill:#fcf0de;stroke:#d4145a;stroke-miterlimit:10;stroke-width:7px;}</style></defs><title>chardyBasketAsset 9</title><g id="Layer_2" data-name="Layer 2"><g id="Layer_1-2" data-name="Layer 1"><path class="cls-1" d="M72.49,129.43a63,63,0,1,1,63-63A63,63,0,0,1,72.49,129.43Zm.79-75.6A12.64,12.64,0,1,0,85.91,66.47,12.65,12.65,0,0,0,73.28,53.83Z"/><path class="cls-2" d="M72.49,7A59.47,59.47,0,1,1,13,66.47,59.47,59.47,0,0,1,72.49,7m.79,75.6A16.14,16.14,0,1,0,57.15,66.47,16.13,16.13,0,0,0,73.28,82.6M72.49,0A66.47,66.47,0,1,0,139,66.47,66.55,66.55,0,0,0,72.49,0Zm.79,75.6a9.14,9.14,0,1,1,9.13-9.13,9.15,9.15,0,0,1-9.13,9.13Z"/><path class="cls-3" d="M18.58,64.53c-.29-3.12.31-6.91,1.43-12.09,1.31-6,4.47-10.91,6.26-13.77,2.07-3.17,3.32-6.86,7.71-10.79,3.7-3.31,5.73-6.31,8.7-7.95A41.67,41.67,0,0,1,71,12.62a44.73,44.73,0,0,1,14.6.91,48.06,48.06,0,0,1,15.79,7A54.56,54.56,0,0,1,111,28.4a54.23,54.23,0,0,1,7.43,10.05A54.18,54.18,0,0,1,125,52.14a47.59,47.59,0,0,1,2,12.79H93.29c-1.43-2.86-2.53-5.21-3.26-6.8-1.81-3.93-2.16-5-3.52-6.39A14,14,0,0,0,81,48.62a24.68,24.68,0,0,0-9-1.56A15.43,15.43,0,0,0,56.9,54.23a28.81,28.81,0,0,0-2.61,4.7,29.32,29.32,0,0,0-1.83,5.74Z"/><rect class="cls-4" x="29.08" y="57.27" width="9.78" height="1.76" transform="translate(14.69 -6.38) rotate(13.66)"/><rect class="cls-5" x="44.86" y="50.97" width="4.96" height="1.76" transform="translate(-21.46 37.84) rotate(-36.09)"/><rect class="cls-6" x="26.71" y="46.02" width="4.96" height="1.76" transform="translate(15.44 -6.6) rotate(17.49)"/><rect class="cls-4" x="41.54" y="27.91" width="4.96" height="1.76" transform="translate(39.22 -23.59) rotate(51.58)"/><rect class="cls-6" x="59.81" y="38.76" width="4.96" height="1.76" transform="translate(106.57 -19.44) rotate(94.38)"/><rect class="cls-4" x="69.01" y="20.97" width="4.96" height="1.76" transform="translate(61.54 -52.24) rotate(65.36)"/><rect class="cls-7" x="72.31" y="37.79" width="4.96" height="1.76" transform="translate(1.48 -2.73) rotate(2.11)"/><rect class="cls-4" x="90.45" y="31.16" width="4.96" height="1.76" transform="translate(22.77 -36.81) rotate(25.44)"/><rect class="cls-5" x="89.41" y="43.36" width="4.96" height="1.76" transform="translate(-8.55 26.54) rotate(-15.71)"/><rect class="cls-4" x="102.2" y="46.02" width="4.96" height="1.76" transform="translate(19.05 -29.41) rotate(17.57)"/><rect class="cls-7" x="36.9" y="40.43" width="9.78" height="1.76" transform="translate(26.26 -15.36) rotate(30)"/><rect class="cls-5" x="52.16" y="23.56" width="9.78" height="1.76" transform="translate(3.12 -6.28) rotate(6.48)"/><rect class="cls-6" x="80.73" y="22.93" width="9.78" height="1.76" transform="translate(-3.25 24.08) rotate(-15.71)"/><rect class="cls-7" x="102.42" y="35.71" width="9.78" height="1.76" transform="translate(16.06 -30.69) rotate(17.57)"/><rect class="cls-6" x="104.77" y="55.83" width="9.78" height="1.76" transform="translate(-12.56 39.29) rotate(-19.23)"/><rect class="cls-8" x="3.5" y="66.46" width="139.57" height="63.03" rx="7.39"/></g></g></svg>