<svg xmlns="http://www.w3.org/2000/svg" viewBox="0 0 144.57 125.99"><defs><style>.cls-1{fill:#ffdec2;stroke:#edcfbc;stroke-width:2px;}.cls-1,.cls-7{stroke-miterlimit:10;}.cls-2{fill:#f98ff9;}.cls-3{fill:#ff3e3e;}.cls-4{fill:#fff;}.cls-5{fill:lime;}.cls-6{fill:#ff0;}.cls-7{fill:#fcf0de;stroke:#b7b7b7;stroke-width:5px;}</style></defs><title>Asset 7</title><g id="Layer_2" data-name="Layer 2"><g id="Layer_1-2" data-name="Layer 1"><path class="cls-1" d="M71.49,1A59.47,59.47,0,1,0,131,60.47,59.47,59.47,0,0,0,71.49,1Zm.79,75.6A16.14,16.14,0,1,1,88.41,60.47,16.13,16.13,0,0,1,72.28,76.6Z"/><path class="cls-2" d="M16.59,58.53a42.28,42.28,0,0,1,.79-12.78,41.81,41.81,0,0,1,5.48-13.43A55.77,55.77,0,0,1,42.68,13.93,41.67,41.67,0,0,1,71,6.62a44.73,44.73,0,0,1,14.6.91,48.06,48.06,0,0,1,15.79,7.05A54.56,54.56,0,0,1,111,22.4a54.23,54.23,0,0,1,7.43,10.05A54.18,54.18,0,0,1,125,46.14a47.59,47.59,0,0,1,2,12.79H93.29c-1.43-2.86-2.53-5.21-3.26-6.8-1.81-3.93-2.16-5-3.52-6.39A14,14,0,0,0,81,42.62a24.68,24.68,0,0,0-9-1.56A15.43,15.43,0,0,0,56.9,48.23a28.81,28.81,0,0,0-2.61,4.7,29.32,29.32,0,0,0-1.83,5.74Z"/><rect class="cls-3" x="29.08" y="51.27" width="9.78" height="1.76" transform="translate(13.28 -6.55) rotate(13.66)"/><rect class="cls-4" x="44.86" y="44.97" width="4.96" height="1.76" transform="translate(-17.93 36.69) rotate(-36.09)"/><rect class="cls-5" x="26.71" y="40.02" width="4.96" height="1.76" transform="translate(13.64 -6.88) rotate(17.49)"/><rect class="cls-3" x="41.54" y="21.91" width="4.96" height="1.76" transform="translate(34.52 -25.86) rotate(51.58)"/><rect class="cls-5" x="59.81" y="32.76" width="4.96" height="1.76" transform="translate(100.59 -25.9) rotate(94.38)"/><rect class="cls-3" x="69.01" y="14.97" width="4.96" height="1.76" transform="translate(56.09 -55.74) rotate(65.36)"/><rect class="cls-6" x="72.31" y="31.79" width="4.96" height="1.76" transform="translate(1.25 -2.73) rotate(2.11)"/><rect class="cls-3" x="90.45" y="25.16" width="4.96" height="1.76" transform="translate(20.19 -37.39) rotate(25.44)"/><rect class="cls-4" x="89.41" y="37.36" width="4.96" height="1.76" transform="translate(-6.92 26.32) rotate(-15.71)"/><rect class="cls-3" x="102.2" y="40.02" width="4.96" height="1.76" transform="translate(17.23 -29.69) rotate(17.57)"/><rect class="cls-6" x="36.9" y="34.43" width="9.78" height="1.76" transform="translate(23.26 -16.17) rotate(30)"/><rect class="cls-4" x="52.16" y="17.56" width="9.78" height="1.76" transform="translate(2.45 -6.32) rotate(6.48)"/><rect class="cls-5" x="80.73" y="16.93" width="9.78" height="1.76" transform="translate(-1.62 23.85) rotate(-15.71)"/><rect class="cls-6" x="102.42" y="29.71" width="9.78" height="1.76" transform="translate(14.24 -30.97) rotate(17.57)"/><rect class="cls-5" x="104.77" y="49.83" width="9.78" height="1.76" transform="translate(-10.59 38.96) rotate(-19.23)"/><rect class="cls-7" x="2.5" y="60.46" width="139.57" height="63.03" rx="7.39"/></g></g></svg>