<svg xmlns="http://www.w3.org/2000/svg" viewBox="0 0 145.57 128.56"><defs><style>.cls-1{fill:#ffdec2;stroke:#edcfbc;stroke-width:6.14px;}.cls-1,.cls-3,.cls-4,.cls-5,.cls-6,.cls-7{stroke-miterlimit:10;}.cls-2{fill:#f98ff9;stroke-linejoin:round;stroke-width:3px;}.cls-2,.cls-3,.cls-4,.cls-5,.cls-6{stroke:#878787;}.cls-3{fill:#ff3e3e;}.cls-3,.cls-4,.cls-5,.cls-6{stroke-width:0.25px;}.cls-4{fill:#fff;}.cls-5{fill:lime;}.cls-6{fill:#ff0;}.cls-7{fill:#fcf0de;stroke:#b7b7b7;stroke-width:6px;}</style></defs><g id="Layer_2" data-name="Layer 2"><g id="Layer_1-2" data-name="Layer 1"><path class="cls-1" d="M72,3.07a59.47,59.47,0,1,0,59.46,59.47A59.47,59.47,0,0,0,72,3.07Zm.79,75.6A16.14,16.14,0,1,1,88.91,62.54,16.13,16.13,0,0,1,72.78,78.67Z"/><path class="cls-2" d="M20.23,61a22.49,22.49,0,0,1,7.43-24.85,37.33,37.33,0,0,1,20-17.61,32.91,32.91,0,0,1,24.26-6.45,45.91,45.91,0,0,1,29,8,61.23,61.23,0,0,1,16.24,17.41,34.6,34.6,0,0,1,7.05,23.68L93.79,61a17.22,17.22,0,0,0-5.48-15.66,18.46,18.46,0,0,0-15.85-5.48,19.33,19.33,0,0,0-17.41,8.61,10.76,10.76,0,0,0-4.69,6.06A10.57,10.57,0,0,0,50.55,61Z"/><rect class="cls-3" x="29.58" y="53.34" width="9.78" height="1.76" transform="translate(13.78 -6.61) rotate(13.66)"/><rect class="cls-4" x="40.25" y="47.04" width="4.96" height="1.76" transform="translate(-20.03 34.37) rotate(-36.09)"/><rect class="cls-5" x="29.14" y="44.87" width="4.96" height="1.76" transform="translate(15.21 -7.39) rotate(17.49)"/><rect class="cls-3" x="43.84" y="27.69" width="4.96" height="1.76" transform="translate(39.92 -25.47) rotate(51.58)"/><rect class="cls-5" x="56.66" y="33.13" width="4.96" height="1.76" transform="translate(97.57 -22.35) rotate(94.38)"/><rect class="cls-3" x="65.66" y="19.63" width="4.96" height="1.76" transform="translate(58.38 -49.97) rotate(65.36)"/><rect class="cls-6" x="72.47" y="30.31" width="4.96" height="1.76" transform="translate(1.2 -2.74) rotate(2.11)"/><rect class="cls-3" x="90.95" y="27.23" width="4.96" height="1.76" transform="translate(21.13 -37.4) rotate(25.44)"/><rect class="cls-4" x="89.05" y="36.36" width="4.96" height="1.76" transform="matrix(0.96, -0.27, 0.27, 0.96, -6.67, 26.18)"/><rect class="cls-3" x="101.14" y="45.02" width="4.96" height="1.76" transform="translate(18.69 -29.14) rotate(17.57)"/><rect class="cls-6" x="37.4" y="36.5" width="9.78" height="1.76" transform="translate(24.36 -16.14) rotate(30)"/><rect class="cls-4" x="52.66" y="23.98" width="9.78" height="1.76" transform="translate(3.17 -6.34) rotate(6.48)"/><rect class="cls-5" x="78" y="21.14" width="9.78" height="1.76" transform="matrix(0.96, -0.27, 0.27, 0.96, -2.87, 23.27)"/><rect class="cls-6" x="98.38" y="35.62" width="9.78" height="1.76" transform="translate(15.84 -29.48) rotate(17.57)"/><rect class="cls-5" x="105.27" y="51.9" width="9.78" height="1.76" transform="translate(-11.24 39.24) rotate(-19.23)"/><rect class="cls-7" x="3" y="62.53" width="139.57" height="63.03" rx="7.39"/></g></g></svg>