<svg xmlns="http://www.w3.org/2000/svg" viewBox="0 0 917.74 808.31"><defs><style>.cls-1{fill:#fb3371;}.cls-2,.cls-3{fill:none;stroke:#fb3371;stroke-width:15px;}.cls-2{stroke-linecap:round;stroke-linejoin:round;}.cls-3{stroke-miterlimit:10;}.cls-4{fill:#666;}</style></defs><title>checkoutItemNotExistAssetAsset 4</title><g id="Layer_2" data-name="Layer 2"><g id="Layer_1-2" data-name="Layer 1"><path class="cls-1" d="M535.2,0a255.78,255.78,0,0,0-52.75,5.48l3.1,14.67,1.5-.31h0l.1,0h0l.09,0h0l.09,0h.29l.09,0h0l.07,0h0l.08,0h0l.07,0h0l.07,0h.4l.06,0h0l.06,0h.4l.28-.06h0l.08,0h0l.08,0h.83l.06,0h.31l.07,0h.3l.07,0h.47l.09,0h0l.08,0h.09l1.47-.27h0l.18,0h0l.19,0h0l.18,0h0l.18,0h0l.18,0h0a239.76,239.76,0,0,1,25.63-3h.48l2.29-.13h1.82l1,0h2.5l.85,0h6.3V0ZM432,21.81a254.61,254.61,0,0,0-46,26.48l8.8,12.14a239.27,239.27,0,0,1,43.24-24.91L432,21.81ZM346.54,83.68a255.68,255.68,0,0,0-31.33,42.79l13,7.55q4.18-7.17,8.85-14h0l.05-.08h0l.05-.07h0l.4-.59h0l0-.06h0l0-.06,0,0,0-.06,0,0,0-.05,0,0,0-.05v0l0,0,0,0,0,0,0,0,0-.06h0l.11-.18,0,0,0,0,0,0,0,0,0,0,0,0,0,0,0,0,0,0,0,0,0,0,0,0,0,0,0,0,0-.05,0,0,0,0v0l0-.06h0l.11-.16h0l.05-.07h0l.05-.07h0l0-.07h0l.05-.07h0l0-.07h0l.05-.07h0l.05-.07h0l0-.06v0a241,241,0,0,1,18.5-23.14L346.54,83.68Zm-53.11,91.16a253.81,253.81,0,0,0-11.21,51.85l14.91,1.62c.11-1,.22-2,.34-3h0v-.09h0v-.09h0v-.28h0v-.09h0v-.58h0l0-.29h0v-1.4c.06-.5.13-1,.2-1.48h0a237.69,237.69,0,0,1,9.64-41.46l-14.25-4.69Zm3.45,103.39L282,279.69a254.35,254.35,0,0,0,10.68,52l14.3-4.55a238.11,238.11,0,0,1-6.07-23h0l0-.09h0l0-.09h0l0-.08h0l0-.08v0l0-.08h0l0-.09h0l0-.09h0l0-.09h0c-.07-.32-.13-.63-.2-.95h0l0-.08h0l0-.09h0V302h0v-.29l0-.07v0l0-.07v0l0-.08h0l0-.09h0l0-.08h0v-.09h0V301h0l0-.19h0c0-.13-.05-.26-.08-.38v0l0-.07V299l0-.07v-.22l0-.09V297l0-.06v-.12l-.06-.33v-.1h0v-.56l0-.07v-.68l0-.07v-.1h0l0-.09h0c0-.22-.07-.43-.11-.64h0v-.09l0-.08h0v-.1l0-.08h0v-.1l0-.07v-.56h0V293h0v-.08h0v-.08h0l-.12-.73h0l0-.09h0v-.08h0v-.09h0v-.08h0v-.08h0v-.09h0v-.08h0l0-.08v-.1h0l0-.08V291h0c-.05-.37-.11-.73-.16-1.1h0l0-.08h0v-.09h0v-.08h0l0-.08v-.1h0v-.08h0l0-.18h0L298,287.6h0l0-.1h0v-.08h0v-.09h0v-.09h0v-.09h0V287h0v-.09h0c-.06-.4-.11-.8-.16-1.21h0l0-.09h0v-.09h0v-.09h0v-.09h0v-.09h0l0-.09h0v-.08h0v-.18h0v-.09h0c-.05-.37-.1-.74-.14-1.12h0v-.09h0v-.46h0V283h0v-.09h0v-.08h0v-.09h0v-.08h0v-.09h0c0-.31-.07-.62-.1-.93h0v-.08h0v-.09h0v-1.12h0l-.06-.54v-1.51ZM327,372.83l-13,7.42a255.74,255.74,0,0,0,30.9,43.1l11.21-10a239.88,239.88,0,0,1-16.44-20.72h0l-.11-.15h0l-.41-.58h0l-.05-.07h0l0-.07h0l0-.06h0l-.05-.07h0l-.41-.59h0l-.05-.07h0l0-.06v0l0-.05v0l0-.06v0l0-.06h0l0-.06v0l0-.06h0l0-.06h0l-.2-.29h0l-.05-.07h0l0-.07h0l0-.06v0l0-.05,0,0,0-.05v0l0-.06v0l0-.05,0,0,0-.05,0,0,0-.05h0l-.14-.21h0l0-.06v0l0-.05v0l0-.06,0,0,0-.05,0,0,0,0,0,0,0-.05,0,0,0-.06v0l0-.05,0,0,0,0,0,0,0,0,0,0v0l-.06-.08h0l-.05-.07,0,0,0,0,0,0,0,0,0,0,0,0,0,0,0,0,0,0,0-.05,0,0,0,0,0,0,0,0,0,0,0,0,0,0,0,0,0,0,0-.06h0l-.05-.08,0,0,0-.06,0,0,0-.06v0l0-.06,0,0,0-.06,0,0,0-.06,0,0,0-.06v0l0,0,0,0,0-.06v0l0-.06v0l-.16-.24h0l-.05-.08h0l-.05-.07h0l0-.07v0l0-.06v0l0-.06h0l-.05-.07h0l0-.07h0l-.05-.08h0l-.32-.49h0l-.05-.07h0l-.05-.07h0l-.05-.08h0l-.06-.08h0l0-.08h0q-3.84-5.91-7.33-12Zm65.9,74.26-8.93,12.05a255.08,255.08,0,0,0,45.68,26.95l6.23-13.65c-2.85-1.3-5.69-2.67-8.48-4.08h0l-.08,0h0l-1-.49h0l-.17-.09h0l-.08,0h0l-.07,0h0l-.07,0h0l-.43-.23h0l-.08,0h0l-.06,0,0,0-.07,0h0l-.06,0,0,0-.06,0h0l-.06,0h0l-.07,0h0l-.06,0h0l-.06,0h0l-.07,0h0l-.17-.09h0l-.07,0,0,0-.06,0h0l-.06,0,0,0-.05,0,0,0,0,0,0,0-.05,0,0,0-.05,0h0l-.06,0,0,0-.07,0h0l-.07,0h0l-.16-.09h0l-.06,0,0,0-.05,0,0,0,0,0,0,0-.05,0,0,0-.05,0,0,0,0,0,0,0-.05,0,0,0-.05,0,0,0,0,0h0l-.05,0,0,0-.06,0h0l-.08-.05h0l-.08,0,0,0-.06,0h0l-.05,0,0,0-.05,0,0,0-.05,0,0,0,0,0,0,0,0,0,0,0-.05,0,0,0,0,0,0,0,0,0,0,0-.05,0,0,0-.09-.05h0l-.08,0h0l-.06,0h0l-.06,0h0l-.06,0h0l-.05,0,0,0,0,0,0,0-.05,0,0,0-.05,0,0,0,0,0,0,0,0,0,0,0h0l-.06,0h0l-.22-.12h0l-.06,0h0l-.05,0,0,0-.05,0,0,0,0,0,0,0-.05,0h0l-.05,0,0,0-.05,0h0l0,0h0l-.06,0h0l-.07,0h0l-.31-.18h0l-.06,0h0l-.06,0h0l-.06,0h0l-.06,0,0,0,0,0,0,0-.05,0,0,0-.05,0,0,0-.05,0h0l-.05,0h0l-.29-.17h0l-.06,0,0,0-.05,0h0l-.06,0h0l-.07,0h0l-.05,0h0l-.06,0,0,0-.05,0h0l-.06,0,0,0-.06,0,0,0-.28-.15h0l-.06,0h0l-.05,0h0l0,0,0,0-.05,0,0,0-.05,0,0,0,0,0,0,0-.06,0h0l-.06,0h0l-.06,0h0l-.07,0h0l-.21-.11h0l-.05,0,0,0-.05,0,0,0-.05,0h0l-.05,0h0l0,0,0,0-.05,0h0l-.05,0,0,0-.05,0,0,0,0,0h0l-.06,0h0l-.07,0h0l-.29-.17,0,0-.06,0h0l-.05,0,0,0-.05,0,0,0-.05,0h0l-.05,0,0,0-.06,0,0,0-.06,0h0l-.06,0h0l-.44-.26h0l-.07,0h0l-.06,0h0l-.05,0,0,0-.06,0h0l-.06,0h0l-.06,0,0,0-.06,0h0l-.06,0h0l-.29-.18h0l-.07,0h0l-.06,0h0l-.06,0h0l-.06,0,0,0-.06,0,0,0-.05,0,0,0,0,0,0,0-.05,0,0,0-.06,0h0l-.06,0h0l-.29-.18h0l-.06,0,0,0-.05,0h0l-.05,0h0l-.05,0,0,0-.05,0,0,0-.05,0,0,0,0,0,0,0,0,0,0,0-.05,0h0l-.08,0h0l-.13-.09h0l-.07,0h0l-.05,0,0,0-.05,0,0,0-.05,0,0,0-.05,0,0,0-.05,0,0,0-.05,0,0,0,0,0,0,0-.05,0,0,0-.05,0h0l-.06,0h0l-.23-.14h0l-.06,0h0l-.05,0,0,0-.05,0,0,0-.05,0,0,0-.05,0,0,0-.05,0,0,0,0,0h0l-.05,0,0,0-.06,0h0l-.06,0h0l-.21-.13h0l-.05,0,0,0-.05,0,0,0-.06,0,0,0-.06,0h0l-.05,0h0l-.05,0h0l-.05,0h0l-.05,0h0l-.05,0,0,0-.05,0,0,0-.27-.17h0l-.05,0,0,0,0,0,0,0,0,0,0,0,0,0,0,0-.05,0,0,0-.05,0,0,0,0,0,0,0-.05,0h0l-.06,0h0l-.06,0h0l-.2-.12,0,0-.05,0,0,0,0,0,0,0,0,0,0,0,0,0,0,0-.05,0,0,0,0,0,0,0-.05,0,0,0,0,0,0,0-.05,0,0,0-.05,0h0l-.28-.18h0l-.05,0,0,0-.05,0h0l-.05,0h0l-.06,0,0,0-.06,0h0l-.05,0h0l-.05,0h0l-.06,0,0,0-.05,0h0l-.35-.23h0l-.06,0h0l-.06,0h0l-.05,0h0l-.06,0h0l-.06,0h0l-.06,0h0l-.06,0h0l-.07,0h0l-.37-.25h0l-.06,0h0l-.07,0h0l-.07,0h0l-.06,0h0l-.07,0h0l-.07-.05h0l-.07,0h0l-.59-.39h0l-.07,0h0l-.06,0h0l-.06,0h0l-.07,0h0l-.06-.05h0l-.07-.05h0l-.51-.35h0l-.06,0h0l-.07,0h0l-.06-.05h0l-.07,0h0l-.07-.05h0l-.89-.61h0q-3.67-2.52-7.25-5.16Zm90.31,41.2-3.24,14.65a256,256,0,0,0,52.68,6l.15-15c-2.4,0-4.78-.08-7.15-.18H522.1a240.4,240.4,0,0,1-35.25-4.53h0l-.07,0h0l-.06,0h-.91l-.06,0h0l-.07,0h0l-.06,0h0l-.06,0h0l-.07,0h0l-.07,0h0l-.07,0h0l-.07,0h0l-.08,0h0l-.09,0h0l-.19,0h0l-1.5-.33ZM630.1,474.42h0l0,0-.06,0-.08,0h0l-.07,0h0l-.07,0h0l-.06,0h0l-.06,0h0l0,0,0,0-.05,0h0l-.05,0h0l-.06,0h0l-.07,0h0l-.07,0h0l-.07,0h0l-.08,0h0l-.08,0h0l-.08,0h0l-.7.3h0l-.08,0h0l-.08,0h0l-.08,0h0l-.08,0h0a238.85,238.85,0,0,1-28.67,9.91h0l-1.13.3h0l-.09,0h0l-.08,0h0l-.08,0h0l-.07,0h0l-.07,0h0l-.07,0h0l-.08,0h0l-.08,0h0l-.08,0h0l-.56.15h0l-.07,0h-.13l-.06,0h-.18l0,0h-.19l-.05,0h-.19l0,0h-.18l-.06,0h0l-.09,0h0l-.08,0-.05,0h-.13l-.06,0h0l-.06,0h-.13l0,0h0l0,0h-.13l-.06,0h0l-.06,0H594l-.07,0h0l-.07,0h0l-.08,0h0l-.61.16h0l-.08,0h0l-.07,0h-.11l-.07,0h0l-.07,0h0l-.08,0h0l-.08,0h0l-.09,0h0q-4.92,1.2-9.89,2.2L585.4,504a253.68,253.68,0,0,0,50.65-15.82l-5.95-13.77Zm81-57.42a241,241,0,0,1-36.78,32.43h0l-.07.06h0l-.07.05h0l-.07.05h0l-.08.05h0l-.08.06h0l-.24.17h0l-.06,0h0l8.68,12.24a255.93,255.93,0,0,0,39.83-35l-11-10.18Zm50.85-85.26A238.54,238.54,0,0,1,741,377l12.88,7.68a253.8,253.8,0,0,0,22.28-48.14l-14.2-4.84Zm26.74-99.9-14.94,1.32c0,.38.07.76.1,1.14h0v.25h0l0,.21v1h0v.09h0l0,.19h0v.09h0v.08h0v.08h0q.45,5.94.6,12h0l0,1.35h0v.19h0c0,.13,0,.26,0,.38h0v.09h0v.09h0c0,.13,0,.25,0,.38v.29h0v.09h0v.48h0v.08h0V252h0v1.25h0v1.25h0v1.36h0v.67h0v1.91h0v1.23h0v.56h0v.1h0v.22h0v.1h0v.23c0,.11,0,.22,0,.33h0v.1h0v.1h0v.1h0c0,.11,0,.22,0,.34h0v.11h0v.11h0c0,.19,0,.37,0,.56h0Q774.18,273,773,283.07l14.89,1.77a258,258,0,0,0,1.8-30.36c0-7.55-.34-15.16-1-22.64ZM757.74,131l-13.11,7.29c2.58,4.64,5,9.35,7.27,14.17h0c.17.35.33.71.5,1.06h0l0,.08h0l.53,1.14h0l0,.08h0l0,.07v0l0,.07v0l0,.07h0l0,.09h0c.15.32.3.64.44,1h0l0,.08h0l0,.09h0l.48,1.07h0a238.71,238.71,0,0,1,10,26.79l14.34-4.4A253.71,253.71,0,0,0,757.74,131ZM688.53,51.37l-9,12,.57.44h0l.5.38h0l.06,0,0,0,.05,0h0l0,0,0,0,0,0,0,0,0,0,0,0,0,0,0,0,0,0,0,0,0,0,0,0,0,0,.15.12h0l.06,0,0,0,0,0,0,0,.06,0v0l.06,0,0,0,.06,0h0l0,0h0l.06,0h0l.07,0h0c.21.16.41.31.61.48h0A240.4,240.4,0,0,1,716,97.4l11.32-9.85a256.31,256.31,0,0,0-38.75-36.18ZM593,6.6,589.6,21.21l1.12.26h0l.08,0h0l.08,0h.1l.08,0h0l.08,0h0l.08,0h0l.07,0h0l.07,0h0l.08,0h0l.53.13h.1l.07,0h0l.07,0h0l.06,0h.12l.07,0h0l.07,0h.21l.06,0h0l.07,0h0l.35.09h0l.07,0h0l.06,0h.22l.06,0h.22l0,0h.23l0,0h.18l0,0h.1l.08,0h.09l.05,0h.13l.06,0h.18l0,0h.18l.05,0h.18l.05,0H596l.06,0h0l.09,0h0l.18.05h0l.08,0h0l.06,0h.13l0,0h.14l.05,0h.13l.06,0h.13l.05,0h.13l.07,0h0l.08,0h0l.29.08h0l.09,0h0l.07,0h.12l.07,0h.12l.06,0h.12l.07,0h.12l.06,0h0l.08,0h0l.1,0h0l.47.13h0l.08,0h0l.08,0h0l.08,0h0l.08,0h0l.07,0h0l.08,0h0l.07,0h0l.07,0h0l.09,0h0l.66.19h0l.09,0h0l.09,0h0l.08,0h0l.08,0h0l.08,0h0l.08,0h0l.07,0h0l.08,0h0l.09,0h0l.66.19h0l.09,0h0l.09,0h0l.09,0h0l.09,0h0l.09,0h0l1.41.42h0l.09,0h0q7.19,2.18,14.16,4.77h0l.09,0h0l.09,0h0l1.28.48h0l.18.06h0l.09,0h0l.91.35h0l.09,0h0l.08,0h0l.09,0h0l.09,0h0l.09,0h0l.08,0h0l.82.32h0l.09,0h0l.09,0h0l.08,0h0l.09,0h0l.08,0h0l.08,0h0l.08,0h0l.09,0h0L624,32h0l.07,0h0l.07,0h0l.07,0h0l.07,0h0l.07,0h0l.07,0h0l.06,0h0l.06,0h0l.07,0h0l.07,0h0l.08,0h0l.27.11h0l.08,0h0l.07,0h0l.06,0h0l.07,0h0l.07,0h0l.06,0h0l.06,0h0l.06,0h0l.06,0h0l.06,0,0,0,.07,0h0l.07,0h0l.17.07h0l.18.07h0l.08,0h0l.05,0,0,0,0,0h0l.06,0h0l.06,0h0l0,0,0,0,0,0h0l.05,0,0,0,.06,0h0l0,0,0,0,0,0,0,0,0,0h0l.06,0h0l0,0,.07,0,0,0,0,0,.05,0h0l0,0h0l0,0,0,0,0,0,0,0,0,0h0l0,0,0,0,0,0,0,0h0l.05,0h0l.05,0,0,0,0,0h0l0,0h0l.05,0,0,0,0,0h0l.21.09h0l.06,0h0l.06,0h0l.06,0h0l.06,0,0,0,.06,0h0l0,0h0l.06,0,0,0,.05,0h0l.06,0h0l.07,0h0l.07,0h0l.07,0h0l.65.29h0l.08,0h0l.07,0h0l.07,0h0l.07,0h0l.07,0h0l.08,0h0l1.16.52h0c1.35.6,2.68,1.21,4,1.83L643.13,24A253,253,0,0,0,593,6.6ZM535.2,0V15h1.46l2.88,0h.53l.3-15c-1.72,0-3.46,0-5.17,0ZM498.11,331.19l-6.54,13.5,1.24.59h0l.08,0h0l.08,0h0l.47.22h0l.07,0h0l.07,0h0l.38.18h0l.07,0h0l.07,0h0l.06,0h0l.08,0h0l.23.11h0l.07,0h0l.06,0h0l.06,0h0l.06,0h0l.08,0h0l.23.1h0l.06,0h0l.05,0h0l.05,0h0l.06,0h0l.06,0h0l.16.06h0l.06,0h0l.06,0h0l.05,0h0l0,0h0l.06,0h0l.15.07h0l.07,0h0l.05,0h0l.05,0,0,0h0l0,0,0,0h0l.05,0h0l.05,0h0l.08,0h0l.05,0,0,0,.05,0h0l0,0h0l0,0h0l.05,0h0l0,0h0l.05,0,.05,0h0l0,0h0l0,0h0l0,0,0,0h.07l0,0,0,0H498l.05,0h0l.11,0h0l0,0h0l0,0h0l0,0h0l0,0h0l0,0h0l.05,0h0l.18.07h0l.05,0h0l0,0h0l0,0h0l.05,0h0l.06,0h0l.27.1h0l.06,0h0l0,0h0l.06,0h0l.06,0h0l.33.13h0l.05,0h0l.06,0h0l.05,0h0l.06,0h0l.27.1h0l.06,0h0l.06,0h0l.06,0h0l.06,0h0l.07,0h0l.29.1h0l.06,0h0l.07,0h0l.07,0h0l.06,0h0l.43.16h0l.07,0h0l.07,0h0l.57.2h0l.58.19h0a98.84,98.84,0,0,0,16.27,4h0l.77.12h0l.62.09h.08l.54.07h.16l.47.06h.24l.46.05h.24l.39.05h.32l.38.05h.34l.29,0h.41l.23,0H526l.3,0h.42l.28,0h8.21v-15a84.37,84.37,0,0,1-37.09-8.47Zm-47.47-66.3-14.89,1.81a99.84,99.84,0,0,0,3.63,17.13h0l.09.29h0l0,.07h0l.09.29h0l0,.07h0l.09.28h0l.09.29h0l0,.07h0l.09.28h0l0,.07h0l.07.22h0l0,.07h0l0,.07h0c0,.07.05.14.07.21h0l0,.06h0l.09.28v0l0,.06h0l.07.2h0l0,.06v0l0,.06h0l.06.2v0l0,.06v0l.07.2h0l0,.06v0l0,.06v0l.07.19v0l0,.06v0l0,.06h0c0,.07.05.13.07.19v0l0,.06v0l0,.06h0l0,.12v0l0,.05v0l0,.05v0l.06.17v0l0,.05v0l0,.05v0l0,.1v0l0,.05v0l0,0v0l0,0v0l0,.09v0l0,0v0l0,0v0l0,.11h0l0,0,0,0v0l0,0V290l0,0,0,.07,0,0,0,0v0l0,0v0l0,.05,0,0,0,.07,0,0,0,0v0l0,0v.05l0,0,0,.07v0l0,0,0,0v0l0,0,0,.05,0,0,0,.06v0l0,0,0,0v.05l0,0,0,.08v0l0,.06,0,0v0l0,0,0,.05v0l0,.08v0l0,.05,0,0,0,.05v0l0,.07v0l0,.08v0l0,.06v0l0,.06v0l0,.08v0l0,.06v0l0,.06v0l0,.06v0l0,.08v0l0,.06v0l0,.06v0l.07.17v0l0,.06v0l0,.07v0l.08.16v0l0,.07v0l0,.07h0l0,.09h0l0,.07v0l0,.07h0l.07.17h0l0,.08h0l0,.08h0l.08.18h0l0,.07v0l.08.17h0l0,.08h0l0,.08h0c0,.06.05.11.07.17h0l0,.08h0l0,.08h0l.08.17h0l0,.08h0l.12.26h0l0,.08h0l.08.17h0l0,.08h0l.12.26h0l0,.08h0l.13.26h0c.05.12.11.23.16.35h0a100.12,100.12,0,0,0,9.21,15.67l12.19-8.74a85.13,85.13,0,0,1-15.28-39.17Zm20.41-87.35a100.36,100.36,0,0,0-29,40.07L456,223.14a85.68,85.68,0,0,1,24.7-34.09l-9.61-11.51Zm64.15-23.23h-4l-1,0h-.8a101.32,101.32,0,0,0-13.71,1.74l2.91,14.71a86,86,0,0,1,42,2.25l4.47-14.32a100,100,0,0,0-20.74-4.13h0l-.47,0h0l-.23,0h0l-.23,0h0l-.23,0h-8Zm72,30.55-10.78,10.42a85.39,85.39,0,0,1,20.89,36.52l14.46-4a100.23,100.23,0,0,0-5.47-15h0l-.12-.26h0l-.13-.26h0l0-.09h0l-.12-.26h0c0-.09-.09-.17-.13-.26h0l0-.09h0a2.1,2.1,0,0,0-.13-.26h0l0-.08h0l-.08-.18h0l-.05-.09h0l-.12-.26h0l-.12-.25h0l0-.08h0s0-.11-.08-.17h0l0-.08h0l0-.08h0l-.08-.17h0l0-.08h0l-.09-.17h0l0-.08h0c-.05-.09-.09-.17-.13-.26h0l0-.08h0l-.09-.17h0l0-.08h0l0-.08h0l-.08-.16h0l0-.08h0l-.09-.17h0l0-.08h0l-.13-.25h0l-.05-.08h0l-.09-.17h0l0-.07h0a2,2,0,0,0-.13-.25v0l0-.07h0l-.09-.16h0l0-.08h0c0-.08-.09-.16-.13-.25h0l0-.08h0l-.09-.16h0l0-.08h0l-.14-.24h0l0-.08h0l-.09-.17h0l0-.07h0l-.14-.25h0l0-.08h0l-.1-.17h0l0-.07h0l-.09-.16h0l-.05-.07h0l0-.08h0l-.09-.17h0l0-.07h0l-.1-.17h0l0-.08h0l-.14-.25h0l0-.07h0l-.09-.16h0l0-.08h0l-.15-.25h0l-.05-.08h0l-.1-.16h0l-.05-.08h0l-.15-.24h0l-.2-.33h0a100.82,100.82,0,0,0-13.71-17.77Zm10.94,89a85.14,85.14,0,0,1-19.41,37.31l11.19,10h0l.06-.06h0l.06-.07h0l.05-.06h0l.06-.06h0l.12-.14h0l0-.06h0l.06-.07h0l.12-.14h0l.06-.06h0l.13-.15h0l.06-.07h0L611,320h0l.06-.07h0l.13-.15h0l.06-.07h0c.06-.08.13-.15.19-.22h0a100.19,100.19,0,0,0,13.62-20.67h0c.06-.11.11-.23.17-.35h0c0-.09.09-.17.13-.26h0l0-.09h0c0-.09.09-.17.13-.26h0l.12-.26h0l0-.08h0l.12-.27h0c0-.09.09-.18.13-.26h0l0-.08h0l.08-.18h0l0-.08h0l.12-.26h0l0-.08h0l.08-.18h0l0-.09h0l.12-.27h0l0-.08h0l.12-.26h0l0-.08h0l.08-.18h0l0-.08h0l.08-.18h0l0-.09h0l.11-.27h0l0-.09h0l.08-.18h0l0-.08h0l0-.09h0c0-.06.05-.12.07-.17v0l0-.07h0l.12-.27h0l.11-.27h0l0-.09h0l.11-.27h0l0-.08h0l.07-.18h0l0-.08h0l.08-.18h0l0-.08h0l0-.09h0l.07-.18h0l0-.08h0l.07-.18h0l0-.08h0l0-.08h0l.07-.18h0l0-.09h0l.07-.18h0l0-.09h0l0-.08h0l.07-.18h0l0-.09h0c0-.09.06-.18.1-.27h0l0-.09h0l.06-.18h0l0-.09h0c0-.09.07-.18.1-.26h0l0-.09h0l.07-.18h0l0-.08h0c0-.09.07-.18.1-.27h0c0-.09.07-.18.1-.27h0l0-.09h0c0-.09.06-.18.1-.27h0c0-.09.06-.18.1-.27h0l0-.09h0c.08-.21.15-.43.23-.65h0a100.76,100.76,0,0,0,2.89-10l-14.61-3.4Zm-54.3,60.83a84.83,84.83,0,0,1-28.65,4.94v15h9.32l.25,0H545l.19,0h.21l.33,0h.15l.26,0h.2l.33,0h.14l.33,0h.08l.39-.05h.08l.86-.11h0a99.64,99.64,0,0,0,20.35-4.93l-5-14.13Z"/><line class="cls-2" x1="236.8" y1="284.72" x2="171.2" y2="284.68"/><polyline class="cls-2" points="7.5 222.82 140.15 222.82 305.62 552.54 755.28 552.54 910.24 284.72 827.67 284.72"/><circle class="cls-3" cx="353.98" cy="640.35" r="43.94"/><circle class="cls-3" cx="718.25" cy="640.35" r="43.94"/><path class="cls-4" d="M237.84,785.11h-7.47a6.87,6.87,0,0,0-2.46-4.52,7.74,7.74,0,0,0-5.06-1.65,8,8,0,0,0-6.5,3q-2.44,3-2.45,8.43c0,3.72.82,6.56,2.47,8.49a8.69,8.69,0,0,0,11.43,1.37,6.8,6.8,0,0,0,2.57-4.34l7.47,0a13.9,13.9,0,0,1-2.29,6,14.12,14.12,0,0,1-5.14,4.58,16,16,0,0,1-7.73,1.76,16.42,16.42,0,0,1-8.34-2.12,14.89,14.89,0,0,1-5.8-6.11,20.56,20.56,0,0,1-2.12-9.7,20.35,20.35,0,0,1,2.15-9.72,15,15,0,0,1,5.83-6.11,16.4,16.4,0,0,1,8.28-2.11,17.18,17.18,0,0,1,7.29,1.5,13.31,13.31,0,0,1,5.32,4.33A14.29,14.29,0,0,1,237.84,785.11Z"/><path class="cls-4" d="M250.26,792.66V807.8H243V772.89h7.06v13.35h.3a7.55,7.55,0,0,1,2.87-3.64,8.75,8.75,0,0,1,5-1.32,8.65,8.65,0,0,1,6.58,2.62,10,10,0,0,1,2.47,7.23V807.8H260V792.43a5.33,5.33,0,0,0-1.22-3.77,4.46,4.46,0,0,0-3.45-1.35,4.91,4.91,0,0,0-3.63,1.41A5.41,5.41,0,0,0,250.26,792.66Z"/><path class="cls-4" d="M284.9,808.31a13.94,13.94,0,0,1-6.94-1.64,11.15,11.15,0,0,1-4.48-4.67,17,17,0,0,1,0-14.26A11.55,11.55,0,0,1,277.9,783a12.89,12.89,0,0,1,6.71-1.7,13.26,13.26,0,0,1,6.24,1.46,10.74,10.74,0,0,1,4.43,4.43,15.15,15.15,0,0,1,1.63,7.4v2H279.08v0a6.41,6.41,0,0,0,1.61,4.61,5.66,5.66,0,0,0,4.33,1.69,6.23,6.23,0,0,0,3.15-.76,4.23,4.23,0,0,0,1.88-2.27l6.71.44a9.2,9.2,0,0,1-3.89,5.83A13.52,13.52,0,0,1,284.9,808.31Zm-5.82-16.24h11a5.32,5.32,0,0,0-1.5-3.85,5.11,5.11,0,0,0-3.85-1.52,5.35,5.35,0,0,0-4,1.57A5.66,5.66,0,0,0,279.08,792.07Z"/><path class="cls-4" d="M313.48,808.31a13.34,13.34,0,0,1-6.91-1.71,11.38,11.38,0,0,1-4.43-4.76,16.79,16.79,0,0,1,0-14.09A11.53,11.53,0,0,1,306.6,783a13.17,13.17,0,0,1,6.85-1.71,13.73,13.73,0,0,1,6,1.24,9.94,9.94,0,0,1,4.07,3.5,10.33,10.33,0,0,1,1.65,5.28h-6.86a5.34,5.34,0,0,0-1.52-3.16,4.45,4.45,0,0,0-3.23-1.2,4.81,4.81,0,0,0-4.06,2,9.36,9.36,0,0,0-1.53,5.74,9.53,9.53,0,0,0,1.52,5.8,4.82,4.82,0,0,0,4.07,2.06,4.59,4.59,0,0,0,3.15-1.13,5.22,5.22,0,0,0,1.6-3.24h6.86a10.88,10.88,0,0,1-1.63,5.29,9.78,9.78,0,0,1-4,3.55A13.39,13.39,0,0,1,313.48,808.31Z"/><path class="cls-4" d="M329.85,807.8V772.89h7.26v18.67h.39l8.39-9.94h8.33L344.5,793l10.21,14.85h-8.5l-7.14-10.55-2,2.23v8.32Z"/><path class="cls-4" d="M368.5,808.31a13.34,13.34,0,0,1-6.86-1.69,11.44,11.44,0,0,1-4.45-4.74,16.77,16.77,0,0,1,0-14.17,11.56,11.56,0,0,1,4.45-4.74,14.79,14.79,0,0,1,13.73,0,11.56,11.56,0,0,1,4.45,4.74,16.77,16.77,0,0,1,0,14.17,11.44,11.44,0,0,1-4.45,4.74A13.36,13.36,0,0,1,368.5,808.31Zm0-5.62a4.5,4.5,0,0,0,4.08-2.25,12.3,12.3,0,0,0,0-11.36,4.49,4.49,0,0,0-4.08-2.26,4.55,4.55,0,0,0-4.14,2.26,12.22,12.22,0,0,0,0,11.36A4.56,4.56,0,0,0,368.54,802.69Z"/><path class="cls-4" d="M402.92,796.65v-15h7.26V807.8h-7v-4.75h-.27a7.73,7.73,0,0,1-2.94,3.69,8.64,8.64,0,0,1-5,1.4,8.35,8.35,0,0,1-6.4-2.63,10.25,10.25,0,0,1-2.46-7.22V781.62h7.26V797a5.34,5.34,0,0,0,1.24,3.67,4.24,4.24,0,0,0,3.29,1.35,5.09,5.09,0,0,0,3.49-1.37A5,5,0,0,0,402.92,796.65Z"/><path class="cls-4" d="M429.9,781.62v5.45H425v12.69a2.42,2.42,0,0,0,.68,2,2.74,2.74,0,0,0,1.77.53,5.86,5.86,0,0,0,1-.09l.79-.15,1.14,5.41c-.36.11-.88.24-1.53.4a12.89,12.89,0,0,1-2.41.28,9.35,9.35,0,0,1-6.35-1.71,6.84,6.84,0,0,1-2.38-5.74V787.07h-3.58v-5.45h3.58v-6.27H425v6.27Z"/><path class="cls-4" d="M449.4,778.24a3.9,3.9,0,0,1-2.76-1.08,3.48,3.48,0,0,1,0-5.19,4.12,4.12,0,0,1,5.54,0,3.48,3.48,0,0,1,0,5.19A3.93,3.93,0,0,1,449.4,778.24Zm-3.65,29.56V781.62H453V807.8Z"/><path class="cls-4" d="M472.74,781.62v5.45h-4.93v12.69a2.45,2.45,0,0,0,.68,2,2.78,2.78,0,0,0,1.77.53,5.89,5.89,0,0,0,1-.09l.78-.15,1.14,5.41c-.36.11-.87.24-1.53.4a12.78,12.78,0,0,1-2.4.28,9.34,9.34,0,0,1-6.35-1.71,6.81,6.81,0,0,1-2.38-5.74V787.07H457v-5.45h3.58v-6.27h7.26v6.27Z"/><path class="cls-4" d="M489.12,808.31a13.94,13.94,0,0,1-6.94-1.64A11.15,11.15,0,0,1,477.7,802a17,17,0,0,1,0-14.26,11.55,11.55,0,0,1,4.42-4.76,12.89,12.89,0,0,1,6.71-1.7,13.26,13.26,0,0,1,6.24,1.46,10.74,10.74,0,0,1,4.43,4.43,15.15,15.15,0,0,1,1.63,7.4v2H483.3v0a6.41,6.41,0,0,0,1.61,4.61,5.66,5.66,0,0,0,4.33,1.69,6.23,6.23,0,0,0,3.15-.76,4.17,4.17,0,0,0,1.87-2.27l6.72.44a9.2,9.2,0,0,1-3.89,5.83A13.54,13.54,0,0,1,489.12,808.31Zm-5.82-16.24h11a5.32,5.32,0,0,0-1.5-3.85A5.11,5.11,0,0,0,489,786.7a5.35,5.35,0,0,0-4,1.57A5.66,5.66,0,0,0,483.3,792.07Z"/><path class="cls-4" d="M505.87,807.8V781.62h6.92v4.62h.31a7.14,7.14,0,0,1,2.74-3.64,8.52,8.52,0,0,1,9.14,0,6.38,6.38,0,0,1,2.52,3.62h.28a7,7,0,0,1,2.9-3.61,9.07,9.07,0,0,1,5-1.35,8,8,0,0,1,6,2.33,9,9,0,0,1,2.29,6.58V807.8h-7.25V791.63a4.27,4.27,0,0,0-1.16-3.28,4.07,4.07,0,0,0-2.89-1.09,3.9,3.9,0,0,0-3.09,1.26,4.8,4.8,0,0,0-1.11,3.29v16h-7V791.47a4.22,4.22,0,0,0-1.1-3.07,3.82,3.82,0,0,0-2.89-1.14,4,4,0,0,0-3,1.32,4.94,4.94,0,0,0-1.23,3.51V807.8Z"/><path class="cls-4" d="M570.42,808.23a9.8,9.8,0,0,1-5.38-1.54,10.52,10.52,0,0,1-3.82-4.56,19.94,19.94,0,0,1,0-14.88,10.46,10.46,0,0,1,3.87-4.48,9.89,9.89,0,0,1,5.28-1.49,8.19,8.19,0,0,1,3.67.74,7.32,7.32,0,0,1,2.38,1.83,9,9,0,0,1,1.39,2.17h.23V772.89h7.24V807.8h-7.16v-4.19h-.31a8.55,8.55,0,0,1-1.43,2.15,7.26,7.26,0,0,1-2.41,1.77A8.42,8.42,0,0,1,570.42,808.23Zm2.3-5.78a4.65,4.65,0,0,0,4.07-2.12,9.86,9.86,0,0,0,1.44-5.62,9.69,9.69,0,0,0-1.43-5.58,4.68,4.68,0,0,0-4.08-2.07,4.61,4.61,0,0,0-4.1,2.12,9.9,9.9,0,0,0-1.4,5.53,10,10,0,0,0,1.41,5.58A4.6,4.6,0,0,0,572.72,802.45Z"/><path class="cls-4" d="M603.1,808.31a13.29,13.29,0,0,1-6.86-1.69,11.46,11.46,0,0,1-4.46-4.74,16.77,16.77,0,0,1,0-14.17,11.58,11.58,0,0,1,4.46-4.74A14.77,14.77,0,0,1,610,783a11.65,11.65,0,0,1,4.46,4.74,16.87,16.87,0,0,1,0,14.17,11.53,11.53,0,0,1-4.46,4.74A13.32,13.32,0,0,1,603.1,808.31Zm0-5.62a4.49,4.49,0,0,0,4.08-2.25,12.3,12.3,0,0,0,0-11.36,4.48,4.48,0,0,0-4.08-2.26,4.55,4.55,0,0,0-4.14,2.26,12.22,12.22,0,0,0,0,11.36A4.56,4.56,0,0,0,603.13,802.69Z"/><path class="cls-4" d="M632.65,808.31a13.93,13.93,0,0,1-6.93-1.64,11.17,11.17,0,0,1-4.49-4.67,17.07,17.07,0,0,1,0-14.26,11.57,11.57,0,0,1,4.43-4.76,12.89,12.89,0,0,1,6.71-1.7,13.29,13.29,0,0,1,6.24,1.46,10.8,10.8,0,0,1,4.43,4.43,15.15,15.15,0,0,1,1.63,7.4v2H626.84v0a6.45,6.45,0,0,0,1.6,4.61,5.69,5.69,0,0,0,4.33,1.69,6.24,6.24,0,0,0,3.16-.76,4.21,4.21,0,0,0,1.87-2.27l6.72.44a9.2,9.2,0,0,1-3.89,5.83A13.57,13.57,0,0,1,632.65,808.31Zm-5.81-16.24h11a5.32,5.32,0,0,0-1.5-3.85,5.14,5.14,0,0,0-3.86-1.52,5.34,5.34,0,0,0-4,1.57A5.66,5.66,0,0,0,626.84,792.07Z"/><path class="cls-4" d="M671.19,789.09l-6.64.4a3.8,3.8,0,0,0-1.38-2.16,4.63,4.63,0,0,0-3-.9,5.44,5.44,0,0,0-2.86.7,2.1,2.1,0,0,0-1.15,1.89,2,2,0,0,0,.74,1.58,6.08,6.08,0,0,0,2.58,1l4.74,1q7.56,1.54,7.57,7.09a7.11,7.11,0,0,1-1.51,4.51,9.75,9.75,0,0,1-4.13,3,15.73,15.73,0,0,1-6,1.08,14.1,14.1,0,0,1-8.28-2.17,8.32,8.32,0,0,1-3.6-5.92l7.14-.38a3.7,3.7,0,0,0,1.58,2.42,6.64,6.64,0,0,0,6.26.07,2.27,2.27,0,0,0,1.18-1.91q0-1.93-3.36-2.61l-4.53-.9q-7.6-1.51-7.57-7.48a6.92,6.92,0,0,1,3-6,13.56,13.56,0,0,1,8.07-2.18,12.93,12.93,0,0,1,7.81,2.1A8,8,0,0,1,671.19,789.09Z"/><path class="cls-1" d="M694.77,792.66V807.8h-7.26V781.62h6.92v4.62h.3a7.51,7.51,0,0,1,2.93-3.62,8.84,8.84,0,0,1,5-1.34,8.59,8.59,0,0,1,6.56,2.63,10.12,10.12,0,0,1,2.47,7.22V807.8h-7.26V792.43a5.32,5.32,0,0,0-1.22-3.76,4.42,4.42,0,0,0-3.43-1.36,4.74,4.74,0,0,0-3.57,1.41A5.44,5.44,0,0,0,694.77,792.66Z"/><path class="cls-1" d="M729.18,808.31a13.34,13.34,0,0,1-6.86-1.69,11.44,11.44,0,0,1-4.45-4.74,16.77,16.77,0,0,1,0-14.17,11.56,11.56,0,0,1,4.45-4.74A14.77,14.77,0,0,1,736,783a11.52,11.52,0,0,1,4.46,4.74,16.77,16.77,0,0,1,0,14.17,11.4,11.4,0,0,1-4.46,4.74A13.29,13.29,0,0,1,729.18,808.31Zm0-5.62a4.51,4.51,0,0,0,4.08-2.25,12.3,12.3,0,0,0,0-11.36,4.5,4.5,0,0,0-4.08-2.26,4.55,4.55,0,0,0-4.14,2.26,12.22,12.22,0,0,0,0,11.36A4.56,4.56,0,0,0,729.22,802.69Z"/><path class="cls-1" d="M760.73,781.62v5.45h-4.92v12.69a2.45,2.45,0,0,0,.68,2,2.76,2.76,0,0,0,1.77.53,6.06,6.06,0,0,0,1-.09l.78-.15,1.14,5.41c-.36.11-.87.24-1.53.4a12.79,12.79,0,0,1-2.41.28,9.37,9.37,0,0,1-6.35-1.71,6.84,6.84,0,0,1-2.37-5.74V787.07H745v-5.45h3.58v-6.27h7.26v6.27Z"/><path class="cls-1" d="M788.52,808.31a14,14,0,0,1-6.94-1.64A11.15,11.15,0,0,1,777.1,802a17,17,0,0,1,0-14.26,11.55,11.55,0,0,1,4.42-4.76,12.89,12.89,0,0,1,6.71-1.7,13.3,13.3,0,0,1,6.25,1.46,10.78,10.78,0,0,1,4.42,4.43,15.14,15.14,0,0,1,1.64,7.4v2H782.71v0a6.4,6.4,0,0,0,1.6,4.61,5.67,5.67,0,0,0,4.33,1.69,6.23,6.23,0,0,0,3.15-.76,4.23,4.23,0,0,0,1.88-2.27l6.71.44a9.18,9.18,0,0,1-3.88,5.83A13.57,13.57,0,0,1,788.52,808.31Zm-5.81-16.24h11a5.32,5.32,0,0,0-1.5-3.85,5.11,5.11,0,0,0-3.85-1.52,5.31,5.31,0,0,0-4,1.57A5.62,5.62,0,0,0,782.71,792.07Z"/><path class="cls-1" d="M810.9,781.62l4.81,9.15,4.92-9.15h7.45l-7.58,13.09,7.79,13.09h-7.42l-5.16-9-5.08,9h-7.5l7.77-13.09-7.5-13.09Z"/><path class="cls-1" d="M836,778.24a3.92,3.92,0,0,1-2.76-1.08,3.48,3.48,0,0,1,0-5.19,4.12,4.12,0,0,1,5.54,0,3.48,3.48,0,0,1,0,5.19A3.93,3.93,0,0,1,836,778.24Zm-3.64,29.56V781.62h7.26V807.8Z"/><path class="cls-1" d="M867.22,789.09l-6.65.4a3.75,3.75,0,0,0-1.38-2.16,4.63,4.63,0,0,0-3-.9,5.44,5.44,0,0,0-2.86.7,2.1,2.1,0,0,0-1.15,1.89,2,2,0,0,0,.74,1.58,6.07,6.07,0,0,0,2.59,1l4.73,1q7.56,1.54,7.57,7.09a7.11,7.11,0,0,1-1.51,4.51,9.75,9.75,0,0,1-4.13,3,15.69,15.69,0,0,1-6,1.08,14.13,14.13,0,0,1-8.28-2.17,8.32,8.32,0,0,1-3.6-5.92l7.15-.38a3.65,3.65,0,0,0,1.57,2.42,6.64,6.64,0,0,0,6.26.07,2.25,2.25,0,0,0,1.18-1.91q0-1.93-3.36-2.61l-4.53-.9q-7.6-1.51-7.57-7.48a6.92,6.92,0,0,1,3-6,13.6,13.6,0,0,1,8.07-2.18q5,0,7.81,2.1A8.08,8.08,0,0,1,867.22,789.09Z"/><path class="cls-1" d="M886.33,781.62v5.45H881.4v12.69a2.45,2.45,0,0,0,.68,2,2.78,2.78,0,0,0,1.77.53,6,6,0,0,0,1-.09l.78-.15,1.14,5.41c-.36.11-.87.24-1.53.4a12.79,12.79,0,0,1-2.41.28,9.32,9.32,0,0,1-6.34-1.71,6.81,6.81,0,0,1-2.38-5.74V787.07h-3.58v-5.45h3.58v-6.27h7.26v6.27Z"/></g></g></svg>