<svg xmlns="http://www.w3.org/2000/svg" viewBox="0 0 917.74 823.14"><defs><style>.cls-1,.cls-8,.cls-9{fill:#fb3371;}.cls-2,.cls-3{fill:none;stroke:#fb3371;stroke-width:15px;}.cls-2{stroke-linecap:round;stroke-linejoin:round;}.cls-3{stroke-miterlimit:10;}.cls-4{font-size:48px;fill:#666;font-family:Inter_FXH-Bold, Inter_FXH;font-weight:700;}.cls-5{letter-spacing:-0.02em;}.cls-6{letter-spacing:0em;}.cls-7{letter-spacing:-0.01em;}.cls-8{letter-spacing:0em;}.cls-9{letter-spacing:-0.01em;}</style></defs><title>checkoutItemNotExistAsset 2</title><g id="Layer_2" data-name="Layer 2"><g id="Layer_1-2" data-name="Layer 1"><path class="cls-1" d="M535.2,0a255.78,255.78,0,0,0-52.75,5.48l3.1,14.67,1.5-.31h0l.1,0h0l.09,0h0l.09,0h.29l.09,0h0l.07,0h0l.08,0h0l.07,0h0l.07,0h.4l.06,0h0l.06,0h.4l.28-.06h0l.08,0h0l.08,0h.83l.06,0h.31l.07,0h.3l.07,0h.47l.09,0h0l.08,0h.09l1.47-.27h0l.18,0h0l.19,0h0l.18,0h0l.18,0h0l.18,0h0a239.76,239.76,0,0,1,25.63-3h.48l2.29-.13h1.82l1,0h2.5l.85,0h6.3V0ZM432,21.81a254.61,254.61,0,0,0-46,26.48l8.8,12.14a239.27,239.27,0,0,1,43.24-24.91L432,21.81ZM346.54,83.68a255.68,255.68,0,0,0-31.33,42.79l13,7.55q4.18-7.17,8.85-14h0l.05-.08h0l.05-.07h0l.4-.59h0l0-.06h0l0-.06,0,0,0-.06,0,0,0-.05,0,0,0-.05v0l0,0,0,0,0,0,0,0,0-.06h0l.11-.18,0,0,0,0,0,0,0,0,0,0,0,0,0,0,0,0,0,0,0,0,0,0,0,0,0,0,0,0,0-.05,0,0,0,0v0l0-.06h0l.11-.16h0l.05-.07h0l.05-.07h0l0-.07h0l.05-.07h0l0-.07h0l.05-.07h0l.05-.07h0l0-.06v0a241,241,0,0,1,18.5-23.14L346.54,83.68Zm-53.11,91.16a253.81,253.81,0,0,0-11.21,51.85l14.91,1.62c.11-1,.22-2,.34-3h0v-.09h0v-.09h0v-.28h0v-.09h0v-.58h0l0-.29h0v-1.4c.06-.5.13-1,.2-1.48h0a237.69,237.69,0,0,1,9.64-41.46l-14.25-4.69Zm3.45,103.39L282,279.69a254.35,254.35,0,0,0,10.68,52l14.3-4.55a238.11,238.11,0,0,1-6.07-23h0l0-.09h0l0-.09h0l0-.08h0l0-.08v0l0-.08h0l0-.09h0l0-.09h0l0-.09h0c-.07-.32-.13-.63-.2-.95h0l0-.08h0l0-.09h0V302h0v-.29l0-.07v0l0-.07v0l0-.08h0l0-.09h0l0-.08h0v-.09h0V301h0l0-.19h0c0-.13-.05-.26-.08-.38v0l0-.07V299l0-.07v-.22l0-.09V297l0-.06v-.12l-.06-.33v-.1h0v-.56l0-.07v-.68l0-.07v-.1h0l0-.09h0c0-.22-.07-.43-.11-.64h0v-.09l0-.08h0v-.1l0-.08h0v-.1l0-.07v-.56h0V293h0v-.08h0v-.08h0l-.12-.73h0l0-.09h0v-.08h0v-.09h0v-.08h0v-.08h0v-.09h0v-.08h0l0-.08v-.1h0l0-.08V291h0c-.05-.37-.11-.73-.16-1.1h0l0-.08h0v-.09h0v-.08h0l0-.08v-.1h0v-.08h0l0-.18h0L298,287.6h0l0-.1h0v-.08h0v-.09h0v-.09h0v-.09h0V287h0v-.09h0c-.06-.4-.11-.8-.16-1.21h0l0-.09h0v-.09h0v-.09h0v-.09h0v-.09h0l0-.09h0v-.08h0v-.18h0v-.09h0c-.05-.37-.1-.74-.14-1.12h0v-.09h0v-.46h0V283h0v-.09h0v-.08h0v-.09h0v-.08h0v-.09h0c0-.31-.07-.62-.1-.93h0v-.08h0v-.09h0v-1.12h0l-.06-.54v-1.51ZM327,372.83l-13,7.42a255.74,255.74,0,0,0,30.9,43.1l11.21-10a239.88,239.88,0,0,1-16.44-20.72h0l-.11-.15h0l-.41-.58h0l-.05-.07h0l0-.07h0l0-.06h0l-.05-.07h0l-.41-.59h0l-.05-.07h0l0-.06v0l0-.05v0l0-.06v0l0-.06h0l0-.06v0l0-.06h0l0-.06h0l-.2-.29h0l-.05-.07h0l0-.07h0l0-.06v0l0-.05,0,0,0-.05v0l0-.06v0l0-.05,0,0,0-.05,0,0,0-.05h0l-.14-.21h0l0-.06v0l0-.05v0l0-.06,0,0,0-.05,0,0,0,0,0,0,0-.05,0,0,0-.06v0l0-.05,0,0,0,0,0,0,0,0,0,0v0l-.06-.08h0l-.05-.07,0,0,0,0,0,0,0,0,0,0,0,0,0,0,0,0,0,0,0-.05,0,0,0,0,0,0,0,0,0,0,0,0,0,0,0,0,0,0,0-.06h0l-.05-.08,0,0,0-.06,0,0,0-.06v0l0-.06,0,0,0-.06,0,0,0-.06,0,0,0-.06v0l0,0,0,0,0-.06v0l0-.06v0l-.16-.24h0l-.05-.08h0l-.05-.07h0l0-.07v0l0-.06v0l0-.06h0l-.05-.07h0l0-.07h0l-.05-.08h0l-.32-.49h0l-.05-.07h0l-.05-.07h0l-.05-.08h0l-.06-.08h0l0-.08h0q-3.84-5.91-7.33-12Zm65.9,74.26-8.93,12.05a255.08,255.08,0,0,0,45.68,26.95l6.23-13.65c-2.85-1.3-5.69-2.67-8.48-4.08h0l-.08,0h0l-1-.49h0l-.17-.09h0l-.08,0h0l-.07,0h0l-.07,0h0l-.43-.23h0l-.08,0h0l-.06,0,0,0-.07,0h0l-.06,0,0,0-.06,0h0l-.06,0h0l-.07,0h0l-.06,0h0l-.06,0h0l-.07,0h0l-.17-.09h0l-.07,0,0,0-.06,0h0l-.06,0,0,0-.05,0,0,0,0,0,0,0-.05,0,0,0-.05,0h0l-.06,0,0,0-.07,0h0l-.07,0h0l-.16-.09h0l-.06,0,0,0-.05,0,0,0,0,0,0,0-.05,0,0,0-.05,0,0,0,0,0,0,0-.05,0,0,0-.05,0,0,0,0,0h0l-.05,0,0,0-.06,0h0l-.08-.05h0l-.08,0,0,0-.06,0h0l-.05,0,0,0-.05,0,0,0-.05,0,0,0,0,0,0,0,0,0,0,0-.05,0,0,0,0,0,0,0,0,0,0,0-.05,0,0,0-.09-.05h0l-.08,0h0l-.06,0h0l-.06,0h0l-.06,0h0l-.05,0,0,0,0,0,0,0-.05,0,0,0-.05,0,0,0,0,0,0,0,0,0,0,0h0l-.06,0h0l-.22-.12h0l-.06,0h0l-.05,0,0,0-.05,0,0,0,0,0,0,0-.05,0h0l-.05,0,0,0-.05,0h0l0,0h0l-.06,0h0l-.07,0h0l-.31-.18h0l-.06,0h0l-.06,0h0l-.06,0h0l-.06,0,0,0,0,0,0,0-.05,0,0,0-.05,0,0,0-.05,0h0l-.05,0h0l-.29-.17h0l-.06,0,0,0-.05,0h0l-.06,0h0l-.07,0h0l-.05,0h0l-.06,0,0,0-.05,0h0l-.06,0,0,0-.06,0,0,0-.28-.15h0l-.06,0h0l-.05,0h0l0,0,0,0-.05,0,0,0-.05,0,0,0,0,0,0,0-.06,0h0l-.06,0h0l-.06,0h0l-.07,0h0l-.21-.11h0l-.05,0,0,0-.05,0,0,0-.05,0h0l-.05,0h0l0,0,0,0-.05,0h0l-.05,0,0,0-.05,0,0,0,0,0h0l-.06,0h0l-.07,0h0l-.29-.17,0,0-.06,0h0l-.05,0,0,0-.05,0,0,0-.05,0h0l-.05,0,0,0-.06,0,0,0-.06,0h0l-.06,0h0l-.44-.26h0l-.07,0h0l-.06,0h0l-.05,0,0,0-.06,0h0l-.06,0h0l-.06,0,0,0-.06,0h0l-.06,0h0l-.29-.18h0l-.07,0h0l-.06,0h0l-.06,0h0l-.06,0,0,0-.06,0,0,0-.05,0,0,0,0,0,0,0-.05,0,0,0-.06,0h0l-.06,0h0l-.29-.18h0l-.06,0,0,0-.05,0h0l-.05,0h0l-.05,0,0,0-.05,0,0,0-.05,0,0,0,0,0,0,0,0,0,0,0-.05,0h0l-.08,0h0l-.13-.09h0l-.07,0h0l-.05,0,0,0-.05,0,0,0-.05,0,0,0-.05,0,0,0-.05,0,0,0-.05,0,0,0,0,0,0,0-.05,0,0,0-.05,0h0l-.06,0h0l-.23-.14h0l-.06,0h0l-.05,0,0,0-.05,0,0,0-.05,0,0,0-.05,0,0,0-.05,0,0,0,0,0h0l-.05,0,0,0-.06,0h0l-.06,0h0l-.21-.13h0l-.05,0,0,0-.05,0,0,0-.06,0,0,0-.06,0h0l-.05,0h0l-.05,0h0l-.05,0h0l-.05,0h0l-.05,0,0,0-.05,0,0,0-.27-.17h0l-.05,0,0,0,0,0,0,0,0,0,0,0,0,0,0,0-.05,0,0,0-.05,0,0,0,0,0,0,0-.05,0h0l-.06,0h0l-.06,0h0l-.2-.12,0,0-.05,0,0,0,0,0,0,0,0,0,0,0,0,0,0,0-.05,0,0,0,0,0,0,0-.05,0,0,0,0,0,0,0-.05,0,0,0-.05,0h0l-.28-.18h0l-.05,0,0,0-.05,0h0l-.05,0h0l-.06,0,0,0-.06,0h0l-.05,0h0l-.05,0h0l-.06,0,0,0-.05,0h0l-.35-.23h0l-.06,0h0l-.06,0h0l-.05,0h0l-.06,0h0l-.06,0h0l-.06,0h0l-.06,0h0l-.07,0h0l-.37-.25h0l-.06,0h0l-.07,0h0l-.07,0h0l-.06,0h0l-.07,0h0l-.07-.05h0l-.07,0h0l-.59-.39h0l-.07,0h0l-.06,0h0l-.06,0h0l-.07,0h0l-.06-.05h0l-.07-.05h0l-.51-.35h0l-.06,0h0l-.07,0h0l-.06-.05h0l-.07,0h0l-.07-.05h0l-.89-.61h0q-3.67-2.52-7.25-5.16Zm90.31,41.2-3.24,14.65a256,256,0,0,0,52.68,6l.15-15c-2.4,0-4.78-.08-7.15-.18H522.1a240.4,240.4,0,0,1-35.25-4.53h0l-.07,0h0l-.06,0h-.91l-.06,0h0l-.07,0h0l-.06,0h0l-.06,0h0l-.07,0h0l-.07,0h0l-.07,0h0l-.07,0h0l-.08,0h0l-.09,0h0l-.19,0h0l-1.5-.33ZM630.1,474.42h0l0,0-.06,0-.08,0h0l-.07,0h0l-.07,0h0l-.06,0h0l-.06,0h0l0,0,0,0-.05,0h0l-.05,0h0l-.06,0h0l-.07,0h0l-.07,0h0l-.07,0h0l-.08,0h0l-.08,0h0l-.08,0h0l-.7.3h0l-.08,0h0l-.08,0h0l-.08,0h0l-.08,0h0a238.85,238.85,0,0,1-28.67,9.91h0l-1.13.3h0l-.09,0h0l-.08,0h0l-.08,0h0l-.07,0h0l-.07,0h0l-.07,0h0l-.08,0h0l-.08,0h0l-.08,0h0l-.56.15h0l-.07,0h-.13l-.06,0h-.18l0,0h-.19l-.05,0h-.19l0,0h-.18l-.06,0h0l-.09,0h0l-.08,0-.05,0h-.13l-.06,0h0l-.06,0h-.13l0,0h0l0,0h-.13l-.06,0h0l-.06,0H594l-.07,0h0l-.07,0h0l-.08,0h0l-.61.16h0l-.08,0h0l-.07,0h-.11l-.07,0h0l-.07,0h0l-.08,0h0l-.08,0h0l-.09,0h0q-4.92,1.2-9.89,2.2L585.4,504a253.68,253.68,0,0,0,50.65-15.82l-5.95-13.77Zm81-57.42a241,241,0,0,1-36.78,32.43h0l-.07.06h0l-.07.05h0l-.07.05h0l-.08.05h0l-.08.06h0l-.24.17h0l-.06,0h0l8.68,12.24a255.93,255.93,0,0,0,39.83-35l-11-10.18Zm50.85-85.26A238.54,238.54,0,0,1,741,377l12.88,7.68a253.8,253.8,0,0,0,22.28-48.14l-14.2-4.84Zm26.74-99.9-14.94,1.32c0,.38.07.76.1,1.14h0v.25h0l0,.21v1h0v.09h0l0,.19h0v.09h0v.08h0v.08h0q.45,5.94.6,12h0l0,1.35h0v.19h0c0,.13,0,.26,0,.38h0v.09h0v.09h0c0,.13,0,.25,0,.38v.29h0v.09h0v.48h0v.08h0V252h0v1.25h0v1.25h0v1.36h0v.67h0v1.91h0v1.23h0v.56h0v.1h0v.22h0v.1h0v.23c0,.11,0,.22,0,.33h0v.1h0v.1h0v.1h0c0,.11,0,.22,0,.34h0v.11h0v.11h0c0,.19,0,.37,0,.56h0Q774.18,273,773,283.07l14.89,1.77a258,258,0,0,0,1.8-30.36c0-7.55-.34-15.16-1-22.64ZM757.74,131l-13.11,7.29c2.58,4.64,5,9.35,7.27,14.17h0c.17.35.33.71.5,1.06h0l0,.08h0l.53,1.14h0l0,.08h0l0,.07v0l0,.07v0l0,.07h0l0,.09h0c.15.32.3.64.44,1h0l0,.08h0l0,.09h0l.48,1.07h0a238.71,238.71,0,0,1,10,26.79l14.34-4.4A253.71,253.71,0,0,0,757.74,131ZM688.53,51.37l-9,12,.57.44h0l.5.38h0l.06,0,0,0,.05,0h0l0,0,0,0,0,0,0,0,0,0,0,0,0,0,0,0,0,0,0,0,0,0,0,0,0,0,.15.12h0l.06,0,0,0,0,0,0,0,.06,0v0l.06,0,0,0,.06,0h0l0,0h0l.06,0h0l.07,0h0c.21.16.41.31.61.48h0A240.4,240.4,0,0,1,716,97.4l11.32-9.85a256.31,256.31,0,0,0-38.75-36.18ZM593,6.6,589.6,21.21l1.12.26h0l.08,0h0l.08,0h.1l.08,0h0l.08,0h0l.08,0h0l.07,0h0l.07,0h0l.08,0h0l.53.13h.1l.07,0h0l.07,0h0l.06,0h.12l.07,0h0l.07,0h.21l.06,0h0l.07,0h0l.35.09h0l.07,0h0l.06,0h.22l.06,0h.22l0,0h.23l0,0h.18l0,0h.1l.08,0h.09l.05,0h.13l.06,0h.18l0,0h.18l.05,0h.18l.05,0H596l.06,0h0l.09,0h0l.18.05h0l.08,0h0l.06,0h.13l0,0h.14l.05,0h.13l.06,0h.13l.05,0h.13l.07,0h0l.08,0h0l.29.08h0l.09,0h0l.07,0h.12l.07,0h.12l.06,0h.12l.07,0h.12l.06,0h0l.08,0h0l.1,0h0l.47.13h0l.08,0h0l.08,0h0l.08,0h0l.08,0h0l.07,0h0l.08,0h0l.07,0h0l.07,0h0l.09,0h0l.66.19h0l.09,0h0l.09,0h0l.08,0h0l.08,0h0l.08,0h0l.08,0h0l.07,0h0l.08,0h0l.09,0h0l.66.19h0l.09,0h0l.09,0h0l.09,0h0l.09,0h0l.09,0h0l1.41.42h0l.09,0h0q7.19,2.18,14.16,4.77h0l.09,0h0l.09,0h0l1.28.48h0l.18.06h0l.09,0h0l.91.35h0l.09,0h0l.08,0h0l.09,0h0l.09,0h0l.09,0h0l.08,0h0l.82.32h0l.09,0h0l.09,0h0l.08,0h0l.09,0h0l.08,0h0l.08,0h0l.08,0h0l.09,0h0L624,32h0l.07,0h0l.07,0h0l.07,0h0l.07,0h0l.07,0h0l.07,0h0l.06,0h0l.06,0h0l.07,0h0l.07,0h0l.08,0h0l.27.11h0l.08,0h0l.07,0h0l.06,0h0l.07,0h0l.07,0h0l.06,0h0l.06,0h0l.06,0h0l.06,0h0l.06,0,0,0,.07,0h0l.07,0h0l.17.07h0l.18.07h0l.08,0h0l.05,0,0,0,0,0h0l.06,0h0l.06,0h0l0,0,0,0,0,0h0l.05,0,0,0,.06,0h0l0,0,0,0,0,0,0,0,0,0h0l.06,0h0l0,0,.07,0,0,0,0,0,.05,0h0l0,0h0l0,0,0,0,0,0,0,0,0,0h0l0,0,0,0,0,0,0,0h0l.05,0h0l.05,0,0,0,0,0h0l0,0h0l.05,0,0,0,0,0h0l.21.09h0l.06,0h0l.06,0h0l.06,0h0l.06,0,0,0,.06,0h0l0,0h0l.06,0,0,0,.05,0h0l.06,0h0l.07,0h0l.07,0h0l.07,0h0l.65.29h0l.08,0h0l.07,0h0l.07,0h0l.07,0h0l.07,0h0l.08,0h0l1.16.52h0c1.35.6,2.68,1.21,4,1.83L643.13,24A253,253,0,0,0,593,6.6ZM535.2,0V15h1.46l2.88,0h.53l.3-15c-1.72,0-3.46,0-5.17,0ZM498.11,331.19l-6.54,13.5,1.24.59h0l.08,0h0l.08,0h0l.47.22h0l.07,0h0l.07,0h0l.38.18h0l.07,0h0l.07,0h0l.06,0h0l.08,0h0l.23.11h0l.07,0h0l.06,0h0l.06,0h0l.06,0h0l.08,0h0l.23.1h0l.06,0h0l.05,0h0l.05,0h0l.06,0h0l.06,0h0l.16.06h0l.06,0h0l.06,0h0l.05,0h0l0,0h0l.06,0h0l.15.07h0l.07,0h0l.05,0h0l.05,0,0,0h0l0,0,0,0h0l.05,0h0l.05,0h0l.08,0h0l.05,0,0,0,.05,0h0l0,0h0l0,0h0l.05,0h0l0,0h0l.05,0,.05,0h0l0,0h0l0,0h0l0,0,0,0h.07l0,0,0,0H498l.05,0h0l.11,0h0l0,0h0l0,0h0l0,0h0l0,0h0l0,0h0l.05,0h0l.18.07h0l.05,0h0l0,0h0l0,0h0l.05,0h0l.06,0h0l.27.1h0l.06,0h0l0,0h0l.06,0h0l.06,0h0l.33.13h0l.05,0h0l.06,0h0l.05,0h0l.06,0h0l.27.1h0l.06,0h0l.06,0h0l.06,0h0l.06,0h0l.07,0h0l.29.1h0l.06,0h0l.07,0h0l.07,0h0l.06,0h0l.43.16h0l.07,0h0l.07,0h0l.57.2h0l.58.19h0a98.84,98.84,0,0,0,16.27,4h0l.77.12h0l.62.09h.08l.54.07h.16l.47.06h.24l.46.05h.24l.39.05h.32l.38.05h.34l.29,0h.41l.23,0H526l.3,0h.42l.28,0h8.21v-15a84.37,84.37,0,0,1-37.09-8.47Zm-47.47-66.3-14.89,1.81a99.84,99.84,0,0,0,3.63,17.13h0l.09.29h0l0,.07h0l.09.29h0l0,.07h0l.09.28h0l.09.29h0l0,.07h0l.09.28h0l0,.07h0l.07.22h0l0,.07h0l0,.07h0c0,.07.05.14.07.21h0l0,.06h0l.09.28v0l0,.06h0l.07.2h0l0,.06v0l0,.06h0l.06.2v0l0,.06v0l.07.2h0l0,.06v0l0,.06v0l.07.19v0l0,.06v0l0,.06h0c0,.07.05.13.07.19v0l0,.06v0l0,.06h0l0,.12v0l0,.05v0l0,.05v0l.06.17v0l0,.05v0l0,.05v0l0,.1v0l0,.05v0l0,0v0l0,0v0l0,.09v0l0,0v0l0,0v0l0,.11h0l0,0,0,0v0l0,0V290l0,0,0,.07,0,0,0,0v0l0,0v0l0,.05,0,0,0,.07,0,0,0,0v0l0,0v.05l0,0,0,.07v0l0,0,0,0v0l0,0,0,.05,0,0,0,.06v0l0,0,0,0v.05l0,0,0,.08v0l0,.06,0,0v0l0,0,0,.05v0l0,.08v0l0,.05,0,0,0,.05v0l0,.07v0l0,.08v0l0,.06v0l0,.06v0l0,.08v0l0,.06v0l0,.06v0l0,.06v0l0,.08v0l0,.06v0l0,.06v0l.07.17v0l0,.06v0l0,.07v0l.08.16v0l0,.07v0l0,.07h0l0,.09h0l0,.07v0l0,.07h0l.07.17h0l0,.08h0l0,.08h0l.08.18h0l0,.07v0l.08.17h0l0,.08h0l0,.08h0c0,.06.05.11.07.17h0l0,.08h0l0,.08h0l.08.17h0l0,.08h0l.12.26h0l0,.08h0l.08.17h0l0,.08h0l.12.26h0l0,.08h0l.13.26h0c.05.12.11.23.16.35h0a100.12,100.12,0,0,0,9.21,15.67l12.19-8.74a85.13,85.13,0,0,1-15.28-39.17Zm20.41-87.35a100.36,100.36,0,0,0-29,40.07L456,223.14a85.68,85.68,0,0,1,24.7-34.09l-9.61-11.51Zm64.15-23.23h-4l-1,0h-.8a101.32,101.32,0,0,0-13.71,1.74l2.91,14.71a86,86,0,0,1,42,2.25l4.47-14.32a100,100,0,0,0-20.74-4.13h0l-.47,0h0l-.23,0h0l-.23,0h0l-.23,0h-8Zm72,30.55-10.78,10.42a85.39,85.39,0,0,1,20.89,36.52l14.46-4a100.23,100.23,0,0,0-5.47-15h0l-.12-.26h0l-.13-.26h0l0-.09h0l-.12-.26h0c0-.09-.09-.17-.13-.26h0l0-.09h0a2.1,2.1,0,0,0-.13-.26h0l0-.08h0l-.08-.18h0l-.05-.09h0l-.12-.26h0l-.12-.25h0l0-.08h0s0-.11-.08-.17h0l0-.08h0l0-.08h0l-.08-.17h0l0-.08h0l-.09-.17h0l0-.08h0c-.05-.09-.09-.17-.13-.26h0l0-.08h0l-.09-.17h0l0-.08h0l0-.08h0l-.08-.16h0l0-.08h0l-.09-.17h0l0-.08h0l-.13-.25h0l-.05-.08h0l-.09-.17h0l0-.07h0a2,2,0,0,0-.13-.25v0l0-.07h0l-.09-.16h0l0-.08h0c0-.08-.09-.16-.13-.25h0l0-.08h0l-.09-.16h0l0-.08h0l-.14-.24h0l0-.08h0l-.09-.17h0l0-.07h0l-.14-.25h0l0-.08h0l-.1-.17h0l0-.07h0l-.09-.16h0l-.05-.07h0l0-.08h0l-.09-.17h0l0-.07h0l-.1-.17h0l0-.08h0l-.14-.25h0l0-.07h0l-.09-.16h0l0-.08h0l-.15-.25h0l-.05-.08h0l-.1-.16h0l-.05-.08h0l-.15-.24h0l-.2-.33h0a100.82,100.82,0,0,0-13.71-17.77Zm10.94,89a85.14,85.14,0,0,1-19.41,37.31l11.19,10h0l.06-.06h0l.06-.07h0l.05-.06h0l.06-.06h0l.12-.14h0l0-.06h0l.06-.07h0l.12-.14h0l.06-.06h0l.13-.15h0l.06-.07h0L611,320h0l.06-.07h0l.13-.15h0l.06-.07h0c.06-.08.13-.15.19-.22h0a100.19,100.19,0,0,0,13.62-20.67h0c.06-.11.11-.23.17-.35h0c0-.09.09-.17.13-.26h0l0-.09h0c0-.09.09-.17.13-.26h0l.12-.26h0l0-.08h0l.12-.27h0c0-.09.09-.18.13-.26h0l0-.08h0l.08-.18h0l0-.08h0l.12-.26h0l0-.08h0l.08-.18h0l0-.09h0l.12-.27h0l0-.08h0l.12-.26h0l0-.08h0l.08-.18h0l0-.08h0l.08-.18h0l0-.09h0l.11-.27h0l0-.09h0l.08-.18h0l0-.08h0l0-.09h0c0-.06.05-.12.07-.17v0l0-.07h0l.12-.27h0l.11-.27h0l0-.09h0l.11-.27h0l0-.08h0l.07-.18h0l0-.08h0l.08-.18h0l0-.08h0l0-.09h0l.07-.18h0l0-.08h0l.07-.18h0l0-.08h0l0-.08h0l.07-.18h0l0-.09h0l.07-.18h0l0-.09h0l0-.08h0l.07-.18h0l0-.09h0c0-.09.06-.18.1-.27h0l0-.09h0l.06-.18h0l0-.09h0c0-.09.07-.18.1-.26h0l0-.09h0l.07-.18h0l0-.08h0c0-.09.07-.18.1-.27h0c0-.09.07-.18.1-.27h0l0-.09h0c0-.09.06-.18.1-.27h0c0-.09.06-.18.1-.27h0l0-.09h0c.08-.21.15-.43.23-.65h0a100.76,100.76,0,0,0,2.89-10l-14.61-3.4Zm-54.3,60.83a84.83,84.83,0,0,1-28.65,4.94v15h9.32l.25,0H545l.19,0h.21l.33,0h.15l.26,0h.2l.33,0h.14l.33,0h.08l.39-.05h.08l.86-.11h0a99.64,99.64,0,0,0,20.35-4.93l-5-14.13Z"/><line class="cls-2" x1="236.8" y1="284.72" x2="171.2" y2="284.68"/><polyline class="cls-2" points="7.5 222.82 140.15 222.82 305.62 552.54 755.28 552.54 910.24 284.72 827.67 284.72"/><circle class="cls-3" cx="353.98" cy="640.35" r="43.94"/><circle class="cls-3" cx="718.25" cy="640.35" r="43.94"/><text class="cls-4" transform="translate(204 807.8)">Chec<tspan class="cls-5" x="122.95" y="0">k</tspan><tspan class="cls-6" x="149.78" y="0">out i</tspan><tspan class="cls-7" x="251.91" y="0">t</tspan><tspan x="270.29" y="0">em does</tspan><tspan class="cls-8" x="469.48" y="0" xml:space="preserve"> not </tspan><tspan class="cls-9" x="569.69" y="0">e</tspan><tspan class="cls-1" x="597.93" y="0">xist</tspan></text></g></g></svg>