<svg width="183" height="62" viewBox="0 0 183 62" fill="none" xmlns="http://www.w3.org/2000/svg">
<g clip-path="url(#clip0_101_74)">
<path d="M12.4011 45.0016C9.61852 44.4556 7.06855 43.0513 5.09756 40.9795C3.24893 38.9112 2.13071 36.2748 1.91977 33.4873C1.46431 29.5509 2.08314 25.563 3.70839 21.9609C5.3027 18.4715 7.76986 15.4695 10.8629 13.2554C14.0514 10.9517 17.7276 9.44298 21.5946 8.8511C25.315 8.24444 28.1887 8.56597 30.2039 9.76714C31.1572 10.327 31.9516 11.1288 32.5096 12.0942C33.0676 13.0596 33.3701 14.1557 33.3876 15.2756C33.5332 16.7208 33.242 18.1769 32.5529 19.4493C32.2344 19.9961 31.7957 20.4603 31.2713 20.8056C30.7468 21.1508 30.1508 21.3677 29.5301 21.4392C28.7751 21.5925 27.9925 21.5209 27.2765 21.2329C27.0041 21.1057 26.7727 20.9025 26.6092 20.647C26.4456 20.3914 26.3566 20.094 26.3524 19.7891C26.3424 19.3238 26.3764 18.8585 26.4537 18.3998C26.5795 17.7344 26.6355 17.0572 26.6207 16.3797C26.4478 13.9106 24.7009 12.9399 21.374 13.4859C19.055 13.8959 16.874 14.8908 15.0304 16.3797C13.0214 17.9635 11.4551 20.0551 10.4873 22.4462C9.39931 25.1973 9.00775 28.1823 9.34852 31.1274C9.65855 34.5186 11.0358 36.9634 13.4564 38.4073C15.877 39.8511 19.2575 40.2272 23.5919 39.4507C25.814 39.0561 27.9941 38.4466 30.1025 37.6307C32.5625 36.6765 34.9689 35.5849 37.3107 34.3609C37.7083 34.1674 38.1324 34.0365 38.5687 33.9726C38.787 33.9261 39.0133 33.9349 39.2275 33.9984C39.4417 34.0619 39.6372 34.1781 39.7968 34.3366C40.0995 34.6997 40.2682 35.1588 40.2738 35.6349C40.3752 37.4123 39.3557 38.8744 37.2332 40.027C34.9408 41.2686 32.547 42.3058 30.0787 43.127C27.7387 43.9037 25.348 44.5118 22.9242 44.947C19.4536 45.6638 15.8787 45.6823 12.4011 45.0016Z" fill="#283328"/>
<path d="M64.8137 30.3327C65.0959 30.7424 65.2402 31.234 65.2251 31.7341C65.2743 32.2323 65.2258 32.7354 65.0825 33.2145C64.9393 33.6935 64.704 34.1388 64.3904 34.5247C63.0348 36.078 61.5198 37.4792 59.8712 38.7045C58.292 39.8488 56.4377 40.5364 54.5053 40.6943C52.8359 40.8561 51.5541 40.5467 50.6598 39.7662C49.7654 38.9856 49.2785 37.7723 49.199 36.1262C49.2186 34.6393 49.3824 33.1579 49.6879 31.7037C49.9471 30.4538 50.0968 29.1829 50.1351 27.9061C50.1351 27.4511 49.9205 27.2388 49.5389 27.2994C49.1573 27.3601 48.5134 27.9061 47.7503 28.9253C46.87 30.1966 46.1321 31.5639 45.5503 33.002C44.8231 34.7068 44.2639 36.4809 43.8809 38.2981C43.3741 40.7247 41.9074 42.1078 39.4391 42.4354C38.4494 42.5689 37.7817 42.3384 37.4299 41.7438C37.0781 41.1493 36.8337 40.027 36.7502 38.389C36.6906 37.4487 36.6608 36.7026 36.6608 36.1444C36.5952 34.7491 36.5654 34.0515 36.4998 32.6683C36.2296 28.0674 36.4857 23.4501 37.263 18.9094C37.8793 14.6931 39.2752 10.6337 41.3768 6.94619C43.3145 3.69453 45.7708 1.9413 48.7161 1.65011C49.4118 1.55135 50.1203 1.60879 50.7919 1.8184C51.4635 2.02801 52.0818 2.3847 52.6034 2.86341C53.1244 3.36558 53.5395 3.97038 53.8234 4.64099C54.1073 5.31161 54.2541 6.034 54.2549 6.7642C54.3622 9.45167 53.4739 12.3515 51.6196 15.5121C49.7654 18.6728 46.6711 22.4947 42.4559 27.1356C42.4559 28.6219 42.4559 30.1689 42.5573 31.7341C43.3563 29.4604 44.4858 27.3214 45.908 25.3885C46.9622 23.9435 48.27 22.7094 49.7654 21.7485C50.8484 21.0478 52.0697 20.5984 53.3427 20.4321C55.5188 20.2319 56.6457 21.0388 56.7113 22.8587C56.753 23.9507 56.4668 25.9648 55.8527 28.9253C55.4447 30.5832 55.1971 32.2778 55.1134 33.9847C55.1611 35.1435 55.6619 35.6834 56.6159 35.5984C57.4938 35.4255 58.2976 34.9805 58.9172 34.3245C60.1584 33.1476 61.3328 31.9 62.4349 30.5875C62.6045 30.3866 62.8125 30.2229 63.0461 30.1061C63.2798 29.9893 63.5343 29.9219 63.7942 29.908C63.9856 29.8853 64.1795 29.9123 64.3578 29.9866C64.5361 30.0608 64.693 30.1799 64.8137 30.3327ZM45.908 7.92291C45.0872 9.79767 44.4579 11.7533 44.0299 13.7589C43.415 16.4192 42.9788 19.119 42.7242 21.8395C44.6216 19.6698 46.2477 17.2695 47.5654 14.6932C48.8175 12.2059 49.4137 10.0462 49.3541 8.1777C49.361 7.49929 49.2011 6.82989 48.889 6.23034C48.791 6.03734 48.6375 5.87934 48.4489 5.77745C48.2604 5.67556 48.0458 5.63462 47.8337 5.66009C47.2137 5.72075 46.5718 6.47503 45.908 7.92291Z" fill="#283328"/>
<path d="M62.6018 38.0008C61.958 37.3374 61.4495 36.551 61.1057 35.6868C60.7619 34.8227 60.5895 33.8978 60.5985 32.9656C60.5165 30.6315 61.076 28.3205 62.2143 26.2924C63.3607 24.1906 64.999 22.409 66.9839 21.1055C68.9098 19.797 71.1512 19.0501 73.4647 18.9458C73.9771 18.8601 74.5028 18.9611 74.9492 19.2309C75.2669 19.5835 75.4888 20.0143 75.5932 20.4806C76.3171 20.3404 77.0506 20.2572 77.7872 20.2319C79.4208 20.1773 80.2436 20.6444 80.2555 21.6212C80.139 23.0535 79.9077 24.4737 79.5639 25.8677C78.8723 29.1437 78.5086 31.4975 78.5265 32.8018C78.52 32.9922 78.5509 33.1821 78.6175 33.3602C78.684 33.5384 78.7848 33.7012 78.914 33.8392C79.0391 33.9662 79.1895 34.0645 79.3551 34.1273C79.5207 34.1901 79.6976 34.216 79.8739 34.2032C80.7239 34.0764 81.5128 33.6793 82.1276 33.0687C83.3833 31.9623 84.5776 30.7856 85.7048 29.5441C85.874 29.356 86.0793 29.2051 86.3079 29.1008C86.5366 28.9965 86.7838 28.9409 87.0344 28.9374C87.2316 28.9304 87.4274 28.9733 87.6043 29.0622C87.7812 29.1511 87.9336 29.2834 88.0479 29.447C88.3208 29.8663 88.4526 30.3645 88.4235 30.8666C88.4542 31.3579 88.3889 31.8505 88.2313 32.316C88.0737 32.7814 87.827 33.2105 87.5054 33.5783C86.2345 35.0197 84.8109 36.3137 83.2604 37.4366C82.0082 38.4152 80.5009 38.9975 78.926 39.111C77.8633 39.1524 76.8165 38.8392 75.9449 38.2192C75.0144 37.5673 74.2895 36.6549 73.8582 35.5924C72.2067 38.1343 70.1021 39.4992 67.5205 39.657C66.6317 39.7602 65.7314 39.6656 64.882 39.3796C64.0327 39.0936 63.2547 38.6232 62.6018 38.0008ZM71.2051 33.8452C71.8911 32.9439 72.357 31.8898 72.5644 30.7695C73.2322 27.5482 73.566 25.9587 74.2398 22.8223C72.8406 22.9137 71.5035 23.4435 70.4121 24.339C69.2389 25.2885 68.3083 26.5122 67.6994 27.9061C67.0381 29.3666 66.7216 30.9642 66.7752 32.5713C66.7385 33.2909 66.9803 33.9965 67.449 34.5368C67.6798 34.7486 67.9523 34.9079 68.2484 35.0041C68.5445 35.1004 68.8573 35.1313 69.166 35.0949C69.5742 35.0451 69.9674 34.908 70.3199 34.6926C70.6723 34.4773 70.976 34.1885 71.211 33.8452H71.2051Z" fill="#283328"/>
<path d="M85.3352 37.1757C84.8225 36.0049 84.5482 34.1425 84.5303 31.5824C84.4713 27.9761 85.0655 24.3896 86.2832 21.0024C86.531 20.2303 87.0544 19.581 87.7498 19.1824C88.6425 18.7443 89.6273 18.536 90.6176 18.5757C91.0938 18.5395 91.5721 18.6099 92.0187 18.782C92.1537 18.8594 92.2635 18.9753 92.3345 19.1154C92.4055 19.2556 92.4346 19.4139 92.4181 19.5706C92.2711 20.6054 92.0194 21.6219 91.6669 22.6039C91.333 23.7141 91.0707 24.7211 90.8799 25.5705C90.6517 26.6168 90.4864 27.6764 90.3851 28.7433C91.2888 26.567 92.5287 24.5517 94.0577 22.7738C95.181 21.4523 96.5483 20.3682 98.0821 19.5828C99.2094 19.0068 100.452 18.7017 101.713 18.691C103.877 18.7395 104.95 19.6798 104.927 21.4998C104.838 22.394 104.674 23.2789 104.438 24.1448C104.249 24.8397 104.107 25.5472 104.014 26.262C104.014 27.257 104.408 27.7665 105.207 27.7969C106.131 27.7969 107.329 27.2388 108.784 26.0436C109.16 25.7145 109.642 25.5375 110.137 25.5462C110.335 25.5497 110.529 25.6004 110.704 25.6941C110.879 25.7879 111.03 25.9222 111.145 26.0861C111.398 26.477 111.518 26.9418 111.485 27.4086C111.498 27.8659 111.412 28.3205 111.233 28.74C111.054 29.1594 110.785 29.5334 110.447 29.8352C109.456 30.6596 108.354 31.3357 107.174 31.8433C105.936 32.3882 104.594 32.6492 103.245 32.6076C101.504 32.5591 100.187 32.1405 99.2865 31.3397C98.8441 30.9471 98.4947 30.4577 98.2645 29.9083C98.0343 29.3589 97.9291 28.7636 97.9569 28.1669C97.9718 27.7345 98.0237 27.3041 98.1119 26.8808C98.1811 26.5006 98.2171 26.1149 98.2192 25.7282C98.2192 25.2732 98.0404 25.0427 97.6767 25.0366C97.1818 25.0366 96.526 25.4977 95.7092 26.444C94.7674 27.6058 93.9667 28.8788 93.3244 30.2356C92.5181 31.8518 91.8749 33.547 91.4046 35.2951C91.2103 36.3175 90.7836 37.2794 90.1585 38.1039C89.8561 38.3723 89.5043 38.577 89.1236 38.7061C88.7429 38.8352 88.3408 38.8862 87.9406 38.8562C87.3882 38.8883 86.8398 38.7434 86.3725 38.442C85.9052 38.1406 85.5424 37.6978 85.3352 37.1757Z" fill="#283328"/>
<path d="M136.043 31.8311C136.287 32.2781 136.391 32.7904 136.341 33.2992C136.351 33.7854 136.261 34.2684 136.076 34.7168C135.892 35.1652 135.616 35.5689 135.268 35.9018C133.873 37.1949 132.324 38.3055 130.659 39.208C129.192 40.0581 127.514 40.4545 125.83 40.3486C123.343 40.1362 121.495 38.6621 120.267 35.9624C119.209 37.1399 117.956 38.1193 116.565 38.8562C115.423 39.3481 114.182 39.556 112.946 39.4628C112.025 39.4413 111.118 39.2309 110.279 38.8441C109.44 38.4574 108.686 37.9023 108.063 37.2122C107.426 36.5033 106.934 35.6727 106.616 34.7687C106.298 33.8647 106.159 32.9054 106.208 31.9464C106.218 29.7096 106.837 27.5193 107.997 25.619C109.167 23.7093 110.813 22.1481 112.767 21.0934C114.837 19.9596 117.147 19.3539 119.498 19.328C120.297 13.9895 121.65 9.62155 123.594 6.09082C125.537 2.5601 128 0.982801 130.975 1.2376C131.664 1.28701 132.337 1.47806 132.952 1.7992C133.566 2.12034 134.111 2.56491 134.552 3.10609C135.482 4.2284 135.894 5.8239 135.792 7.95932C135.655 10.9441 134.552 14.3777 132.519 18.3331C130.241 22.67 127.61 26.8056 124.655 30.6967C124.636 31.9616 124.886 33.2158 125.388 34.373C125.54 34.7024 125.772 34.9869 126.062 35.1993C126.352 35.4117 126.691 35.5449 127.046 35.5863C128.028 35.6336 128.998 35.35 129.806 34.7795C131.166 33.8376 132.459 32.7997 133.676 31.6734C133.86 31.5027 134.077 31.373 134.313 31.2926C134.549 31.2121 134.799 31.1827 135.047 31.2063C135.25 31.2231 135.446 31.2884 135.619 31.397C135.792 31.5056 135.937 31.6544 136.043 31.8311ZM116.66 34.5125C117.568 33.8347 118.388 33.0417 119.098 32.1527C118.803 30.4226 118.688 28.6658 118.753 26.9112C118.753 26.2257 118.842 25.1215 118.955 23.6049C117.123 23.9549 115.476 24.965 114.317 26.4501C113.088 27.9389 112.403 29.8144 112.379 31.7583C112.331 33.8695 113.13 34.9857 114.764 35.0767C115.439 35.1018 116.104 34.9039 116.66 34.5125ZM128.185 7.55893C127.325 9.8238 126.684 12.1685 126.271 14.5597C125.704 17.502 125.263 20.6262 124.941 23.9628C127.577 19.1885 130.903 13.9288 131.219 8.32938C131.295 7.52684 131.216 6.71694 130.987 5.94523C130.79 5.33857 130.54 5.06558 130.236 5.04131C129.586 4.98065 128.9 5.81783 128.185 7.55893Z" fill="#283328"/>
<path d="M152.116 23.2166C152.258 23.3145 152.37 23.4501 152.44 23.6085C152.511 23.7669 152.537 23.9419 152.516 24.1145C152.468 24.7879 151.83 27.1477 150.727 31.1759C149.678 35.0585 149.1 37.4912 148.939 38.2313C147.347 44.2978 145.814 50.4068 142.816 55.9335C140.431 60.3014 137.545 62.3397 134.093 61.9515C132.591 61.846 131.182 61.1705 130.146 60.0587C129.659 59.5126 129.286 58.8709 129.051 58.173C128.817 57.4751 128.725 56.7357 128.781 56.0002C128.861 54.4716 129.283 52.9817 130.015 51.6444C131.095 49.8209 132.496 48.2149 134.147 46.9065C136.772 44.7607 139.607 42.8945 142.607 41.3374L142.816 40.3364C143.108 39.2748 143.459 37.746 143.877 35.7744C143.281 37.5177 142.227 39.0618 140.83 40.2393C139.76 41.1432 138.382 41.5793 136.997 41.4526C136.28 41.3749 135.591 41.1331 134.979 40.7454C134.368 40.3577 133.851 39.8342 133.467 39.2141C132.576 37.8237 132.157 36.1743 132.275 34.5186C132.345 32.5349 132.6 30.5625 133.038 28.628C133.494 26.748 134.133 24.919 134.946 23.1681C135.237 22.4571 135.764 21.873 136.436 21.518C137.366 21.1881 138.365 21.1107 139.334 21.2935C139.873 21.3065 140.398 21.4679 140.854 21.7607C140.989 21.8708 141.094 22.0134 141.16 22.1755C141.227 22.3376 141.253 22.514 141.236 22.6888C141.083 23.4437 140.857 24.1813 140.562 24.891C140.198 25.8859 139.852 26.8141 139.608 27.6391C139.28 28.7675 139.012 29.8656 138.738 30.9211C138.513 31.7792 138.368 32.6565 138.302 33.5419C138.243 34.646 138.565 35.2344 139.256 35.3194C139.751 35.38 140.395 35.016 141.188 34.2335C142.21 33.1403 143.087 31.9168 143.799 30.5935C144.893 28.6437 145.848 26.6163 146.655 24.527C146.885 23.8277 147.367 23.2426 148.003 22.889C148.812 22.58 149.69 22.5106 150.536 22.6888C151.094 22.7462 151.634 22.9263 152.116 23.2166ZM137.664 55.0478C138.755 53.3673 139.924 50.51 141.158 46.5546C139.004 47.8038 137.07 49.4091 135.435 51.3047C134.242 52.8153 133.61 54.1984 133.55 55.4421C133.514 55.9038 133.6 56.3671 133.801 56.7828C133.907 56.9633 134.056 57.1136 134.234 57.2197C134.412 57.3258 134.614 57.3842 134.82 57.3894C135.619 57.5229 136.567 56.7221 137.664 55.0478Z" fill="#283328"/>
<path d="M159.396 18.2542C159.185 18.0916 159.018 17.8757 158.914 17.6279C158.809 17.38 158.77 17.1087 158.8 16.8407C158.829 16.554 158.901 16.2736 159.015 16.0096C159.445 14.9302 159.813 13.8263 160.118 12.7034C160.398 11.5776 160.577 10.4283 160.654 9.26969C160.654 8.71184 160.785 8.16201 161.036 7.66604C161.287 7.17006 161.651 6.74231 162.097 6.41842C163.06 5.81775 164.214 5.62193 165.316 5.87243C166.361 5.96857 167.348 6.40465 168.131 7.11607C168.421 7.40503 168.643 7.75708 168.78 8.14583C168.917 8.53457 168.966 8.94991 168.923 9.36069C168.718 10.6236 168.242 11.825 167.528 12.8793C166.659 14.3389 165.661 15.7155 164.547 16.9924C164.028 17.6455 163.426 18.2268 162.759 18.7214C162.272 18.994 161.704 19.078 161.161 18.958C160.523 18.8818 159.915 18.6394 159.396 18.2542Z" fill="#283328"/>
<path d="M170.647 46.6578C170.266 46.3288 169.962 45.9184 169.756 45.4559C169.55 44.9934 169.447 44.4902 169.454 43.9824C169.48 43.6089 169.596 43.2476 169.792 42.9302C169.987 42.6129 170.256 42.3493 170.575 42.1625C171.471 41.7058 172.504 41.6105 173.467 41.8955C173.983 42.0052 174.493 42.147 174.993 42.3202C175.589 42.5143 176.012 42.6599 176.311 42.7509C176.345 41.9761 176.217 41.2026 175.935 40.482C175.624 39.7049 175.234 38.9628 174.772 38.2677C174.295 37.5398 173.836 36.8967 173.407 36.3386C172.363 37.6623 171.197 38.8812 169.925 39.9785C168.792 40.9414 167.595 41.8232 166.342 42.6174C165.768 43.0205 165.063 43.1814 164.374 43.0664C163.879 42.9902 163.43 42.7231 163.122 42.3202C162.819 41.9426 162.674 41.459 162.717 40.9734C162.744 40.6779 162.833 40.3916 162.977 40.1334C163.121 39.8751 163.317 39.6507 163.552 39.475L164.255 38.8683C165.85 37.5875 167.379 36.2227 168.834 34.7795C169.594 33.9625 170.297 33.0929 170.939 32.1769C171.66 31.1638 172.62 29.7503 173.818 28.0456C174.574 26.9415 175.977 26.5977 178.028 27.0143C178.715 27.1174 179.384 27.3217 180.013 27.621C180.164 27.6884 180.291 27.8 180.379 27.9416C180.468 28.0831 180.512 28.2482 180.508 28.4157C180.46 28.6816 180.365 28.9364 180.228 29.1679C180.042 29.5182 179.818 29.8459 179.56 30.1446C178.941 30.8028 178.526 31.6321 178.367 32.5288C178.351 33.0652 178.49 33.5948 178.767 34.0515C179.21 34.8697 179.71 35.6543 180.263 36.3992C181.068 37.5615 181.795 38.7776 182.44 40.0392C182.905 40.9756 183.096 42.0287 182.988 43.0724C182.871 44.2776 182.404 45.4201 181.647 46.3544C180.867 47.322 179.833 48.0437 178.666 48.4352C177.338 48.866 175.921 48.9247 174.564 48.6051C173.093 48.3773 171.727 47.6978 170.647 46.6578Z" fill="#283328"/>
<path d="M10.6542 44.128C7.87005 43.6016 5.3133 42.2139 3.33279 40.1544C1.47575 38.1037 0.348414 35.4784 0.131156 32.6986C-0.326193 28.7837 0.28652 24.8163 1.90189 21.2329C3.49959 17.7441 5.96598 14.7409 9.05639 12.5213C12.245 10.211 15.9199 8.69041 19.7881 8.08063C23.5204 7.47398 26.3941 7.76517 28.4212 8.96028C29.386 9.50197 30.195 10.2907 30.768 11.2484C31.3411 12.206 31.6584 13.2994 31.6884 14.4202C31.8385 15.8618 31.547 17.3153 30.8537 18.5818C30.536 19.1292 30.0974 19.5939 29.5728 19.9392C29.0482 20.2846 28.4519 20.5011 27.831 20.5716C27.07 20.7366 26.2783 20.6713 25.5535 20.3836C25.28 20.2605 25.047 20.0602 24.8822 19.8064C24.7173 19.5526 24.6275 19.256 24.6234 18.9519C24.6132 18.4883 24.6491 18.0249 24.7307 17.5687C24.8514 16.9067 24.9053 16.2338 24.8917 15.5607C24.7128 13.0977 22.958 12.1432 19.6271 12.6973C17.3054 13.1028 15.1204 14.0934 13.2716 15.5789C11.2568 17.1745 9.69 19.2813 8.72847 21.6879C7.63597 24.425 7.24018 27.3985 7.57779 30.3327C7.89378 33.7117 9.28294 36.1384 11.7035 37.6125C14.1242 39.0867 17.5285 39.3718 21.8987 38.6014C24.124 38.2035 26.3077 37.5941 28.4212 36.7814C30.8852 35.8183 33.2955 34.7186 35.6413 33.4873C36.0279 33.2788 36.4444 33.1334 36.8754 33.0566C37.0928 33.0068 37.3189 33.013 37.5333 33.0744C37.7477 33.1358 37.9437 33.2506 38.1036 33.4084C38.4055 33.7696 38.5741 34.2265 38.5806 34.7006C38.6879 36.472 37.6684 37.9341 35.5399 39.0928C33.2478 40.34 30.8541 41.3832 28.3854 42.211C26.0356 43.0108 23.6328 43.6392 21.1952 44.0916C17.7174 44.8024 14.1366 44.8148 10.6542 44.128Z" fill="#FA4445"/>
<path d="M63.1622 29.2953C63.4436 29.7031 63.5879 30.1925 63.5736 30.6906C63.6183 31.1852 63.5659 31.6839 63.4195 32.1578C63.2732 32.6316 63.0357 33.0712 62.721 33.4509C61.3642 34.9975 59.8492 36.3926 58.2018 37.6125C56.6231 38.7606 54.7694 39.4542 52.8359 39.6205C51.1625 39.7904 49.8787 39.4871 48.9844 38.7106C48.0901 37.934 47.6012 36.7207 47.5177 35.0706C47.5319 33.588 47.6917 32.1105 47.9947 30.6603C48.2655 29.4137 48.4231 28.1446 48.4657 26.8687C48.4657 26.4137 48.2511 26.2074 47.8695 26.262C47.4879 26.3166 46.844 26.8687 46.0809 27.8879C45.203 29.1607 44.4653 30.5278 43.8809 31.9646C43.1592 33.6668 42.6021 35.4365 42.2174 37.2485C41.7166 39.6751 40.244 41.0522 37.7757 41.392C36.786 41.5254 36.1123 41.301 35.7605 40.7125C35.4088 40.1241 35.1643 39.0018 35.0749 37.3699C35.0153 36.4356 34.9854 35.6894 34.9795 35.1374C34.9139 33.7421 34.8781 33.0505 34.8125 31.6673C34.5364 27.0812 34.7865 22.478 35.5578 17.9509C36.1706 13.762 37.5584 9.7293 39.6478 6.06653C41.5795 2.81486 44.0418 1.06164 46.9871 0.758308C47.6816 0.653316 48.3903 0.703681 49.0637 0.905894C49.7371 1.10811 50.3591 1.4573 50.8863 1.92915C51.407 2.43181 51.8207 3.03796 52.1017 3.71001C52.3827 4.38205 52.5251 5.10567 52.5199 5.836C52.6332 8.49314 51.7508 11.4051 49.8966 14.5597C48.0424 17.7143 44.9779 21.5423 40.7567 26.1892C40.7567 27.6695 40.7567 29.1922 40.8641 30.7695C41.6661 28.4978 42.7975 26.361 44.2207 24.4299C45.2791 22.9866 46.5885 21.7529 48.0841 20.79C49.1682 20.0894 50.3886 19.6362 51.6614 19.4614C53.8435 19.2552 54.9703 20.064 55.0419 21.8881C55.0836 22.98 54.7974 24.9881 54.1893 27.9546C53.7847 29.6091 53.5372 31.2993 53.45 33.0019C53.5037 34.1607 54.0045 34.6945 54.9584 34.6035C55.8378 34.4299 56.6433 33.9851 57.2657 33.3295C58.5097 32.1535 59.6843 30.9036 60.7833 29.5865C60.9466 29.3866 61.147 29.2216 61.3731 29.1008C61.5992 28.98 61.8466 28.9059 62.101 28.8828C62.2978 28.8528 62.4989 28.8751 62.6848 28.9473C62.8707 29.0196 63.0352 29.1394 63.1622 29.2953ZM44.1551 7.01897C43.3348 8.89125 42.7074 10.845 42.283 12.8489C41.6844 15.4925 41.2602 18.1738 41.0131 20.8749C42.9111 18.7079 44.5373 16.3095 45.8543 13.7346C47.1004 11.2473 47.6966 9.0998 47.6072 7.2313C47.6146 6.56661 47.4611 5.91029 47.16 5.32034C47.0582 5.12965 46.9029 4.97414 46.7139 4.87365C46.5249 4.77316 46.3107 4.73226 46.0988 4.75616C45.4866 4.82087 44.8388 5.57514 44.1551 7.01897Z" fill="#FA4445"/>
<path d="M60.9622 36.927C60.3183 36.2684 59.8092 35.4864 59.4643 34.6263C59.1195 33.7662 58.9457 32.845 58.953 31.9161C58.8648 29.5829 59.4203 27.2713 60.5568 25.2429C61.7047 23.1405 63.3425 21.3572 65.3265 20.0499C67.2553 18.7403 69.4972 17.9876 71.8132 17.872C72.3256 17.7863 72.8513 17.8873 73.2978 18.1571C73.6165 18.5096 73.835 18.9437 73.9297 19.4129C74.6555 19.2701 75.391 19.1849 76.1297 19.1581C77.7634 19.0975 78.5861 19.5565 78.598 20.5352C78.4885 21.9676 78.2612 23.3881 77.9184 24.7818C77.2268 28.0517 76.869 30.3934 76.8869 31.6977C76.878 32.0799 77.0172 32.4503 77.2745 32.729C77.402 32.8538 77.5539 32.9502 77.7202 33.0118C77.8865 33.0735 78.0637 33.099 78.2403 33.0869C79.0874 32.9561 79.8732 32.5595 80.488 31.9525C81.7438 30.846 82.938 29.6693 84.0653 28.4278C84.2356 28.2411 84.441 28.0912 84.6694 27.987C84.8979 27.8828 85.1445 27.8264 85.3948 27.8211C85.5925 27.8124 85.7891 27.8539 85.9671 27.9418C86.1451 28.0297 86.2988 28.1613 86.4143 28.3247C86.6879 28.7377 86.8257 29.2283 86.8078 29.726C86.8386 30.2169 86.7726 30.7091 86.614 31.1737C86.4553 31.6383 86.207 32.066 85.8837 32.4317C84.6163 33.8744 83.1944 35.1685 81.6447 36.29C80.3916 37.2728 78.8822 37.8593 77.3043 37.9765C76.2437 38.0228 75.1972 37.7161 74.3232 37.1029C73.3918 36.4583 72.6647 35.552 72.2305 34.4943C70.5791 37.0362 68.4744 38.4012 65.8869 38.571C64.9981 38.6747 64.0977 38.5815 63.2476 38.2977C62.3976 38.0139 61.6179 37.5463 60.9622 36.927ZM69.5715 32.7593C70.2667 31.8592 70.7391 30.8023 70.9487 29.6775C71.6045 26.4622 71.9384 24.8789 72.6121 21.7546C71.2092 21.8466 69.8693 22.381 68.7785 23.2834C67.5956 24.2321 66.6617 25.4638 66.0598 26.8687C65.4081 28.3191 65.0958 29.9035 65.1476 31.4975C65.1134 32.216 65.3574 32.9195 65.8273 33.457C66.0595 33.6659 66.3326 33.8226 66.6285 33.9167C66.9244 34.0108 67.2365 34.0402 67.5444 34.0029C67.9484 33.9496 68.3372 33.8115 68.6861 33.5975C69.035 33.3834 69.3365 33.098 69.5715 32.7593Z" fill="#FA4445"/>
<path d="M83.7254 36.011C83.2067 34.8462 82.9385 32.9777 82.9086 30.4358C82.847 26.8412 83.4414 23.2662 84.6615 19.8922C84.9074 19.1209 85.4286 18.4715 86.1222 18.0722C87.0169 17.6339 88.0037 17.4255 88.9959 17.4656C89.4717 17.4282 89.9498 17.4965 90.397 17.6658C90.5326 17.7429 90.6432 17.8586 90.7152 17.9986C90.7872 18.1387 90.8175 18.2971 90.8024 18.4544C90.6591 19.4893 90.4093 20.506 90.0572 21.4877C89.7173 22.5979 89.461 23.5989 89.2702 24.4482C89.0442 25.4906 88.8809 26.5461 88.7813 27.6088C89.6715 25.4442 90.8974 23.439 92.4122 21.6697C93.5349 20.3461 94.9023 19.2598 96.4366 18.4726C97.5725 17.8983 98.8229 17.5973 100.091 17.593C102.262 17.6375 103.335 18.5656 103.311 20.3775C103.228 21.2697 103.069 22.1528 102.834 23.0165C102.643 23.7068 102.501 24.4103 102.411 25.1216C102.411 26.1165 102.804 26.6261 103.603 26.6503C104.529 26.6746 105.722 26.0882 107.18 24.891C107.554 24.5628 108.034 24.3858 108.528 24.3936C108.726 24.3943 108.92 24.4424 109.097 24.5341C109.273 24.6258 109.425 24.7585 109.541 24.9214C109.798 25.3084 109.92 25.772 109.887 26.2378C109.901 26.6952 109.816 27.15 109.636 27.5697C109.457 27.9893 109.188 28.3632 108.85 28.6644C107.858 29.4907 106.756 30.1689 105.576 30.6785C104.338 31.2314 102.994 31.4966 101.641 31.455C99.9006 31.4105 98.581 31.0061 97.6827 30.2417C97.2387 29.8524 96.8874 29.3657 96.655 28.8182C96.4227 28.2707 96.3154 27.6768 96.3412 27.081C96.3564 26.6506 96.4083 26.2223 96.4962 25.801C96.5625 25.4224 96.5984 25.0389 96.6035 24.6544C96.6035 24.1994 96.4187 23.975 96.055 23.9689C95.5602 23.9689 94.9043 24.43 94.0935 25.3763C93.151 26.5354 92.3502 27.8065 91.7087 29.1619C90.9064 30.7749 90.2652 32.4658 89.7948 34.2092C89.6063 35.2232 89.1923 36.1798 88.5845 37.0059C87.9705 37.5465 87.1706 37.8171 86.3607 37.7581C85.7954 37.7929 85.2341 37.6418 84.7596 37.3272C84.2851 37.0126 83.9226 36.5512 83.7254 36.011Z" fill="#FA4445"/>
<path d="M134.475 30.4844C134.725 30.927 134.831 31.4386 134.779 31.9464C134.788 32.4309 134.698 32.9121 134.514 33.3592C134.331 33.8063 134.057 34.2095 133.712 34.5429C132.315 35.8361 130.767 36.9487 129.103 37.8552C127.636 38.7059 125.959 39.1062 124.274 39.0078C121.781 38.8016 119.933 37.3456 118.693 34.6581C117.636 35.8362 116.385 36.8175 114.997 37.5579C113.852 38.0476 112.61 38.2555 111.372 38.1646C110.452 38.1439 109.546 37.9363 108.706 37.5539C107.867 37.1716 107.111 36.6222 106.483 35.9382C105.846 35.2351 105.353 34.4101 105.033 33.5113C104.712 32.6125 104.571 31.6577 104.617 30.7028C104.626 28.4715 105.245 26.2869 106.405 24.3936C107.576 22.4846 109.222 20.9236 111.175 19.8679C113.246 18.7292 115.558 18.1173 117.912 18.0844C118.645 12.7397 120.017 8.39004 121.948 4.85325C123.88 1.31645 126.348 -0.248711 129.323 1.65799e-05C130.022 0.0432785 130.705 0.231952 131.33 0.554376C131.954 0.876801 132.507 1.32612 132.954 1.87458C133.884 2.98475 134.302 4.58025 134.206 6.67321C134.069 9.64581 132.972 13.0673 130.951 17.0227C128.668 21.3516 126.033 25.479 123.075 29.3621C123.061 30.616 123.315 31.8582 123.82 33.002C123.972 33.3326 124.205 33.6179 124.496 33.8304C124.787 34.0429 125.128 34.1755 125.484 34.2153C126.467 34.2603 127.437 33.9746 128.244 33.4024C129.601 32.4718 130.892 31.4461 132.108 30.3327C132.29 30.1601 132.507 30.0291 132.744 29.9485C132.98 29.868 133.231 29.8397 133.479 29.8656C133.681 29.8807 133.877 29.9448 134.05 30.0524C134.224 30.16 134.369 30.3081 134.475 30.4844ZM115.068 33.2325C115.977 32.558 116.797 31.7668 117.507 30.8787C117.209 29.155 117.092 27.4042 117.155 25.6554C117.155 24.9759 117.238 23.8718 117.346 22.3613C115.515 22.7179 113.869 23.7293 112.707 25.2125C111.483 26.6985 110.803 28.5699 110.781 30.5086C110.74 32.6137 111.539 33.7178 113.166 33.8028C113.844 33.8261 114.511 33.6261 115.068 33.2325ZM126.557 6.33955C125.702 8.60676 125.067 10.9535 124.661 13.3464C124.105 16.2745 123.669 19.3968 123.355 22.7131C125.979 17.9509 129.317 12.7033 129.604 7.11606C129.679 6.30991 129.602 5.4966 129.377 4.71978C129.174 4.11313 128.924 3.8462 128.614 3.82193C127.964 3.76734 127.278 4.59845 126.569 6.33955H126.557Z" fill="#FA4445"/>
<path d="M150.537 21.8396C150.678 21.9377 150.79 22.0731 150.862 22.2312C150.933 22.3894 150.961 22.5644 150.942 22.7374C150.894 23.4047 150.262 25.7343 149.153 29.7746C148.104 33.645 147.532 36.0656 147.365 36.8057C145.779 42.8298 144.258 48.9388 141.277 54.4533C138.893 58.8151 136.013 60.8595 132.555 60.4834C131.058 60.373 129.656 59.6955 128.626 58.5846C128.143 58.0497 127.772 57.4207 127.535 56.7355C127.299 56.0504 127.201 55.3235 127.249 54.5989C127.316 53.0794 127.724 51.5957 128.441 50.2613C129.527 48.4293 130.933 46.8153 132.591 45.4991C135.216 43.3517 138.051 41.4836 141.051 39.9239C141.128 39.5235 141.17 39.3173 141.254 38.9229C141.546 37.8674 141.891 36.3447 142.303 34.3791C141.71 36.1157 140.66 37.6537 139.268 38.8259C138.198 39.7291 136.82 40.1652 135.435 40.0392C134.719 39.9651 134.03 39.7274 133.418 39.344C132.805 38.9605 132.286 38.4412 131.899 37.8249C131.006 36.4445 130.586 34.802 130.707 33.1537C130.766 31.1829 131.012 29.2225 131.44 27.2995C131.894 25.4197 132.531 23.5907 133.342 21.8396C133.629 21.1279 134.155 20.5431 134.826 20.1895C135.762 19.8791 136.76 19.8206 137.724 20.0196C138.264 20.0352 138.79 20.1941 139.25 20.4807C139.384 20.5899 139.489 20.7315 139.556 20.8925C139.623 21.0535 139.649 21.2289 139.632 21.4028C139.479 22.1576 139.253 22.8952 138.958 23.6049C138.594 24.5877 138.255 25.5159 138.016 26.3409C137.688 27.4632 137.42 28.5613 137.146 29.6108C136.926 30.4676 136.782 31.3426 136.716 32.2255C136.663 33.3235 136.985 33.912 137.676 33.9908C138.171 34.0454 138.815 33.6814 139.608 32.9049C140.626 31.8102 141.502 30.5869 142.213 29.265C143.3 27.3238 144.251 25.3067 145.057 23.2288C145.285 22.5302 145.765 21.9451 146.399 21.5908C147.207 21.2798 148.086 21.2083 148.933 21.3846C149.493 21.4172 150.04 21.5724 150.537 21.8396ZM136.144 53.5979C137.235 51.9235 138.398 49.0783 139.626 45.1472C137.476 46.4001 135.545 48.005 133.908 49.8973C132.716 51.4079 132.12 52.791 132.03 54.0286C131.992 54.4891 132.081 54.9512 132.287 55.3633C132.39 55.5449 132.537 55.6962 132.715 55.8025C132.892 55.9089 133.094 55.9665 133.3 55.9699C134.105 56.0791 135.053 55.2722 136.144 53.5979Z" fill="#FA4445"/>
<path d="M157.81 16.8832C157.599 16.7219 157.433 16.5071 157.328 16.2602C157.223 16.0133 157.184 15.7429 157.214 15.4757C157.242 15.1909 157.315 14.9124 157.429 14.6507C157.854 13.5729 158.219 12.471 158.52 11.3505C158.8 10.2291 158.978 9.0837 159.05 7.92896C159.048 7.37221 159.177 6.82304 159.427 6.32784C159.677 5.83263 160.041 5.40593 160.487 5.08375C161.449 4.48195 162.603 4.28197 163.707 4.52563C164.734 4.62164 165.704 5.04642 166.479 5.73894C166.769 6.02456 166.991 6.37326 167.13 6.75886C167.268 7.14447 167.319 7.55695 167.278 7.96536C167.087 9.24038 166.621 10.4565 165.913 11.5264C165.041 12.983 164.043 14.3575 162.932 15.6335C162.414 16.2882 161.812 16.8696 161.143 17.3624C160.66 17.6399 160.093 17.7263 159.551 17.6051C158.92 17.5188 158.321 17.2703 157.81 16.8832Z" fill="#FA4445"/>
<path d="M169.12 45.1229C168.741 44.797 168.438 44.3897 168.231 43.9303C168.025 43.4709 167.922 42.9708 167.928 42.4658C167.953 42.092 168.068 41.7302 168.264 41.4127C168.459 41.0952 168.729 40.8318 169.049 40.6458C169.944 40.1869 170.976 40.0873 171.94 40.3668C172.457 40.4741 172.967 40.6139 173.467 40.7853L174.784 41.21C174.82 40.4385 174.69 39.6683 174.403 38.9533C174.093 38.1794 173.703 37.4412 173.24 36.7511C172.757 36.0231 172.298 35.3861 171.863 34.8341C170.825 36.1588 169.663 37.3779 168.393 38.474C167.259 39.426 166.064 40.2996 164.816 41.0887C164.242 41.4923 163.536 41.6533 162.848 41.5376C162.35 41.4764 161.894 41.2248 161.572 40.8339C161.272 40.4575 161.128 39.9761 161.173 39.4932C161.198 39.1993 161.285 38.9142 161.426 38.657C161.568 38.3997 161.762 38.176 161.996 38.0008L162.705 37.3942C164.297 36.1138 165.821 34.7489 167.272 33.3053C168.03 32.4906 168.731 31.623 169.371 30.7088C170.092 29.6896 171.046 28.2822 172.238 26.5836C172.996 25.4795 174.397 25.1276 176.448 25.5401C177.135 25.6412 177.804 25.8457 178.433 26.1468C178.584 26.2105 178.713 26.3193 178.803 26.459C178.892 26.5987 178.938 26.7627 178.934 26.9294C178.881 27.1939 178.786 27.4479 178.654 27.6816C178.47 28.0332 178.246 28.3611 177.986 28.6583C177.379 29.3193 176.975 30.1456 176.823 31.0364C176.81 31.5714 176.951 32.0986 177.229 32.5531C177.667 33.3397 178.157 34.0957 178.695 34.8159C179.498 35.9677 180.223 37.1737 180.866 38.4255C181.325 39.3488 181.518 40.386 181.42 41.4163C181.306 42.6164 180.843 43.7548 180.09 44.6861C179.31 45.6542 178.277 46.3777 177.109 46.773C175.782 47.2025 174.367 47.2653 173.008 46.955C171.561 46.752 170.208 46.114 169.12 45.1229Z" fill="#FA4445"/>
</g>
<defs>
<clipPath id="clip0_101_74">
<rect width="183" height="62" fill="white"/>
</clipPath>
</defs>
</svg>
