<svg xmlns="http://www.w3.org/2000/svg" viewBox="0 0 306.94 102.2"><defs><style>.cls-1{fill:#161c16;}.cls-2{fill:#d4145a;}</style></defs><g id="Layer_2" data-name="Layer 2"><g id="Layer_1-2" data-name="Layer 1"><path class="cls-1" d="M20.8,74.18A23.15,23.15,0,0,1,8.55,67.55,20.72,20.72,0,0,1,3.22,55.2a35.57,35.57,0,0,1,3-19,36.21,36.21,0,0,1,12-14.35,41.84,41.84,0,0,1,18-7.26c6.24-1,11.06-.47,14.44,1.51A10.68,10.68,0,0,1,56,25.18a11.77,11.77,0,0,1-1.4,6.88,6.78,6.78,0,0,1-5.07,3.28A6.71,6.71,0,0,1,45.75,35a2.66,2.66,0,0,1-1.55-2.38,12,12,0,0,1,.17-2.29A15.77,15.77,0,0,0,44.65,27c-.29-4.07-3.22-5.67-8.8-4.77A23.62,23.62,0,0,0,25.21,27,24.41,24.41,0,0,0,17.59,37a29.19,29.19,0,0,0-1.91,14.31c.52,5.59,2.83,9.62,6.89,12s9.73,3,17,1.72a59.5,59.5,0,0,0,10.92-3,120.06,120.06,0,0,0,12.09-5.39A7.3,7.3,0,0,1,64.69,56a2.28,2.28,0,0,1,2.06.6,3.37,3.37,0,0,1,.8,2.14c.17,2.93-1.54,5.34-5.1,7.24a75.43,75.43,0,0,1-12,5.11,88,88,0,0,1-12,3A45.51,45.51,0,0,1,20.8,74.18Z"/><path class="cls-1" d="M108.71,50a3.82,3.82,0,0,1,.69,2.31A6.24,6.24,0,0,1,108,56.91a48,48,0,0,1-7.58,6.89,18,18,0,0,1-9,3.28q-4.2.4-6.45-1.53t-2.45-6a37.26,37.26,0,0,1,.82-7.29A35.58,35.58,0,0,0,84.09,46c0-.75-.36-1.1-1-1s-1.72,1-3,2.68a34.42,34.42,0,0,0-3.69,6.72,46.33,46.33,0,0,0-2.8,8.73c-.85,4-3.31,6.28-7.45,6.82-1.66.22-2.78-.16-3.37-1.14s-1-2.83-1.14-5.53c-.1-1.55-.15-2.78-.15-3.7-.11-2.3-.16-3.45-.27-5.73a98.08,98.08,0,0,1,1.28-22.68A55.62,55.62,0,0,1,69.4,11.45c3.25-5.36,7.37-8.25,12.31-8.73a8.07,8.07,0,0,1,6.52,2A8.87,8.87,0,0,1,91,11.15c.18,4.43-1.31,9.21-4.42,14.42S78.28,37.08,71.21,44.73c0,2.45,0,5,.17,7.58A39.83,39.83,0,0,1,77,41.85a24.05,24.05,0,0,1,6.47-6,14.66,14.66,0,0,1,6-2.17c3.65-.33,5.54,1,5.65,4,.07,1.8-.41,5.12-1.44,10a43.2,43.2,0,0,0-1.24,8.34c.08,1.91.92,2.8,2.52,2.66a7.27,7.27,0,0,0,3.86-2.1,75.09,75.09,0,0,0,5.9-6.16A3.23,3.23,0,0,1,107,49.3,1.91,1.91,0,0,1,108.71,50ZM77,13.06a49.4,49.4,0,0,0-3.15,9.62A99.29,99.29,0,0,0,71.66,36a58,58,0,0,0,8.12-11.78c2.1-4.1,3.1-7.66,3-10.74A6.71,6.71,0,0,0,82,10.27a1.76,1.76,0,0,0-1.77-.94Q78.67,9.48,77,13.06Z"/><path class="cls-1" d="M105,62.64a11.65,11.65,0,0,1-3.36-8.3,20.69,20.69,0,0,1,2.71-11,24.09,24.09,0,0,1,8-8.55,21.27,21.27,0,0,1,10.87-3.56,3.7,3.7,0,0,1,2.49.47,4.54,4.54,0,0,1,1.08,2.06,24,24,0,0,1,3.68-.41c2.74-.09,4.12.68,4.14,2.29a43.51,43.51,0,0,1-1.16,7c-1.16,5.4-1.77,9.28-1.74,11.43a2.36,2.36,0,0,0,.65,1.71,2.07,2.07,0,0,0,1.61.6,6.83,6.83,0,0,0,3.78-1.87,75.09,75.09,0,0,0,6-5.81,3.08,3.08,0,0,1,2.23-1,2,2,0,0,1,1.7.84,3.83,3.83,0,0,1,.63,2.34,6.14,6.14,0,0,1-1.54,4.47,43.29,43.29,0,0,1-7.12,6.36,13.5,13.5,0,0,1-7.27,2.76,8.18,8.18,0,0,1-5-1.47,9.8,9.8,0,0,1-3.5-4.33c-2.77,4.19-6.3,6.44-10.63,6.7A10.35,10.35,0,0,1,105,62.64Zm14.43-6.85a11.87,11.87,0,0,0,2.28-5.07c1.12-5.31,1.68-7.93,2.81-13.1a11.39,11.39,0,0,0-6.42,2.5A15.62,15.62,0,0,0,113.55,46,17,17,0,0,0,112,53.69a4.54,4.54,0,0,0,1.13,3.24,3.67,3.67,0,0,0,2.88.92A4.89,4.89,0,0,0,119.44,55.79Z"/><path class="cls-1" d="M143.13,61.28c-.86-1.93-1.32-5-1.35-9.22a48.42,48.42,0,0,1,2.94-17.44,5.35,5.35,0,0,1,2.46-3,10.15,10.15,0,0,1,4.81-1,5.48,5.48,0,0,1,2.35.34,1.33,1.33,0,0,1,.67,1.3,25,25,0,0,1-1.26,5c-.56,1.83-1,3.49-1.32,4.89a43.43,43.43,0,0,0-.83,5.23,36.54,36.54,0,0,1,6.16-9.84,22,22,0,0,1,6.75-5.26,13.83,13.83,0,0,1,6.09-1.47c3.63.08,5.43,1.63,5.39,4.63a26.07,26.07,0,0,1-.82,4.36,25.66,25.66,0,0,0-.71,3.49c0,1.64.66,2.48,2,2.53,1.55,0,3.56-.92,6-2.89a3.39,3.39,0,0,1,2.27-.82,2.12,2.12,0,0,1,1.69.89,3.51,3.51,0,0,1,.57,2.18,5.12,5.12,0,0,1-1.74,4,22.58,22.58,0,0,1-5.49,3.31,15.43,15.43,0,0,1-6.59,1.26c-2.92-.08-5.13-.77-6.64-2.09a6.53,6.53,0,0,1-2.23-5.23,12.29,12.29,0,0,1,.26-2.12,10.77,10.77,0,0,0,.18-1.9c0-.75-.3-1.13-.91-1.14-.83,0-1.93.76-3.3,2.32a30.89,30.89,0,0,0-4,6.25,44.22,44.22,0,0,0-3.22,8.34,11,11,0,0,1-2.09,4.63,5.09,5.09,0,0,1-3.72,1.24A4.44,4.44,0,0,1,143.13,61.28Z"/><path class="cls-1" d="M228.18,52.47a4.13,4.13,0,0,1,.5,2.42,5.71,5.71,0,0,1-1.8,4.29,38,38,0,0,1-7.73,5.45,14.55,14.55,0,0,1-8.1,1.88c-4.17-.35-7.27-2.78-9.33-7.23a22.49,22.49,0,0,1-6.21,4.77,13.09,13.09,0,0,1-6.07,1,11.48,11.48,0,0,1-8.19-3.71,11.94,11.94,0,0,1-3.11-8.68,19.94,19.94,0,0,1,3-10.43,21.06,21.06,0,0,1,8-7.46,24.38,24.38,0,0,1,11.29-2.91c1.34-8.8,3.61-16,6.87-21.82s7.39-8.42,12.38-8a8.58,8.58,0,0,1,6,3.08c1.56,1.85,2.25,4.48,2.08,8-.23,4.92-2.08,10.58-5.49,17.1a145.48,145.48,0,0,1-13.19,20.38,14.44,14.44,0,0,0,1.23,6.06,3.51,3.51,0,0,0,2.78,2,7.5,7.5,0,0,0,4.63-1.33,58.92,58.92,0,0,0,6.49-5.12,3,3,0,0,1,2.3-.77A2.16,2.16,0,0,1,228.18,52.47Zm-32.51,4.42A22.2,22.2,0,0,0,199.76,53a41.41,41.41,0,0,1-.58-8.64c0-1.13.15-2.95.34-5.45a13,13,0,0,0-7.78,4.69,13.88,13.88,0,0,0-3.25,8.75c-.08,3.48,1.26,5.32,4,5.47A5.25,5.25,0,0,0,195.67,56.89ZM215,12.46A61.67,61.67,0,0,0,211.79,24c-.95,4.85-1.69,10-2.23,15.5,4.42-7.87,10-16.54,10.53-25.77a10.2,10.2,0,0,0-.39-3.93c-.33-1-.75-1.45-1.26-1.49C217.35,8.21,216.2,9.59,215,12.46Z"/><path class="cls-1" d="M255.14,38.27a1.56,1.56,0,0,1,.67,1.48c-.08,1.11-1.15,5-3,11.64-1.76,6.4-2.73,10.41-3,11.63-2.67,10-5.24,20.07-10.27,29.18-4,7.2-8.84,10.56-14.63,9.92A10.08,10.08,0,0,1,218.29,99,8.92,8.92,0,0,1,216,92.31a16.56,16.56,0,0,1,2.07-7.18A28.65,28.65,0,0,1,225,77.32a82.6,82.6,0,0,1,14.19-9.18l.35-1.65c.49-1.75,1.08-4.27,1.78-7.52a16.67,16.67,0,0,1-5.11,7.36,8.83,8.83,0,0,1-6.43,2,8,8,0,0,1-5.92-3.69,12.51,12.51,0,0,1-2-7.74,51.6,51.6,0,0,1,1.28-9.71,48,48,0,0,1,3.2-9,5.41,5.41,0,0,1,2.5-2.72,9.5,9.5,0,0,1,4.86-.37,5,5,0,0,1,2.55.77,1.74,1.74,0,0,1,.64,1.53,19.31,19.31,0,0,1-1.13,3.63c-.61,1.64-1.19,3.17-1.6,4.53-.55,1.86-1,3.67-1.46,5.41a23.77,23.77,0,0,0-.73,4.32c-.1,1.82.44,2.79,1.6,2.93.83.1,1.91-.5,3.24-1.79a28.72,28.72,0,0,0,4.38-6,77.08,77.08,0,0,0,4.79-10,4.82,4.82,0,0,1,2.26-2.7,7.67,7.67,0,0,1,4.25-.33A6.49,6.49,0,0,1,255.14,38.27ZM230.9,90.74c1.83-2.77,3.79-7.48,5.86-14a37.46,37.46,0,0,0-9.6,7.83c-2,2.49-3.06,4.77-3.16,6.82a4.23,4.23,0,0,0,.42,2.21,2.05,2.05,0,0,0,1.71,1C227.47,94.82,229.06,93.5,230.9,90.74Z"/><path class="cls-1" d="M267.35,30.09a2.56,2.56,0,0,1-1-2.33,4.57,4.57,0,0,1,.36-1.37,49.55,49.55,0,0,0,1.85-5.45,31.81,31.81,0,0,0,.9-5.66,5.77,5.77,0,0,1,2.42-4.7,7.29,7.29,0,0,1,5.4-.9A8.19,8.19,0,0,1,282,11.73a4.51,4.51,0,0,1,1.33,3.7,14.36,14.36,0,0,1-2.34,5.8,46.7,46.7,0,0,1-5,6.78,15.9,15.9,0,0,1-3,2.85,3.86,3.86,0,0,1-2.68.39A6.26,6.26,0,0,1,267.35,30.09Z"/><path class="cls-1" d="M286.22,76.91a5.68,5.68,0,0,1-2-4.41,3.77,3.77,0,0,1,1.88-3,6.67,6.67,0,0,1,4.85-.44,21.68,21.68,0,0,1,2.56.7c1,.32,1.71.56,2.21.71a9,9,0,0,0-.63-3.74,19.93,19.93,0,0,0-1.95-3.65c-.8-1.2-1.57-2.26-2.29-3.18a43.76,43.76,0,0,1-5.84,6A53.53,53.53,0,0,1,279,70.25a4.52,4.52,0,0,1-3.3.74,3.28,3.28,0,0,1-2.1-1.23,3.07,3.07,0,0,1-.68-2.22,3.47,3.47,0,0,1,1.4-2.47l1.18-1a97.81,97.81,0,0,0,7.68-6.74,40.11,40.11,0,0,0,3.53-4.29c1.21-1.67,2.82-4,4.83-6.81q1.9-2.73,7.06-1.7a12,12,0,0,1,3.33,1,1.39,1.39,0,0,1,.83,1.31,3.7,3.7,0,0,1-.47,1.24,8.66,8.66,0,0,1-1.12,1.61,7.64,7.64,0,0,0-2,3.93,4.51,4.51,0,0,0,.67,2.51A32,32,0,0,0,302.35,60,52.25,52.25,0,0,1,306,66a9,9,0,0,1,.92,5,10.06,10.06,0,0,1-2.25,5.41,10.86,10.86,0,0,1-5,3.43,13,13,0,0,1-6.88.28A12.24,12.24,0,0,1,286.22,76.91Z"/><path class="cls-2" d="M17.87,72.74A23.08,23.08,0,0,1,5.59,66.19,20.54,20.54,0,0,1,.22,53.9,35.33,35.33,0,0,1,3.19,35a36.39,36.39,0,0,1,12-14.36,42.16,42.16,0,0,1,18-7.32c6.26-1,11.08-.52,14.48,1.45a10.61,10.61,0,0,1,5.48,9,11.59,11.59,0,0,1-1.4,6.86,6.76,6.76,0,0,1-5.07,3.28,6.68,6.68,0,0,1-3.82-.31,2.62,2.62,0,0,1-1.56-2.36,11.32,11.32,0,0,1,.18-2.28,16.3,16.3,0,0,0,.27-3.31q-.45-6.09-8.83-4.72a23.66,23.66,0,0,0-10.66,4.75,24.41,24.41,0,0,0-7.62,10.07A28.93,28.93,0,0,0,12.71,50c.53,5.57,2.86,9.57,6.92,12s9.77,2.9,17.1,1.63a60.63,60.63,0,0,0,10.94-3,121.25,121.25,0,0,0,12.11-5.43,7,7,0,0,1,2.07-.71,2.25,2.25,0,0,1,2.06.58,3.36,3.36,0,0,1,.8,2.13c.18,2.92-1.53,5.33-5.1,7.24a75.66,75.66,0,0,1-12,5.14,87.51,87.51,0,0,1-12.06,3.1A45.66,45.66,0,0,1,17.87,72.74Z"/><path class="cls-2" d="M105.94,48.29a3.81,3.81,0,0,1,.69,2.3,6.18,6.18,0,0,1-1.43,4.55A48.09,48.09,0,0,1,97.62,62a18.1,18.1,0,0,1-9,3.31q-4.21.42-6.46-1.5t-2.46-6a36.67,36.67,0,0,1,.8-7.27,34.36,34.36,0,0,0,.79-6.25c0-.75-.36-1.09-1-1s-1.72,1-3,2.68a35,35,0,0,0-3.69,6.72,47.08,47.08,0,0,0-2.79,8.71c-.84,4-3.31,6.27-7.45,6.83-1.66.22-2.79-.15-3.38-1.12s-1-2.82-1.15-5.51c-.1-1.54-.15-2.77-.16-3.68-.11-2.3-.17-3.44-.28-5.72a97.48,97.48,0,0,1,1.25-22.61A55.22,55.22,0,0,1,66.5,10c3.24-5.36,7.37-8.25,12.31-8.75a8.1,8.1,0,0,1,6.54,1.93,8.79,8.79,0,0,1,2.74,6.44C88.28,14,86.8,18.8,83.69,24S75.44,35.51,68.36,43.17c0,2.44,0,4.95.18,7.55a39.91,39.91,0,0,1,5.63-10.45,24.29,24.29,0,0,1,6.48-6,14.91,14.91,0,0,1,6-2.19q5.49-.51,5.67,4c.07,1.8-.41,5.11-1.43,10a43.92,43.92,0,0,0-1.24,8.32c.09,1.91.93,2.79,2.53,2.64a7.32,7.32,0,0,0,3.87-2.1,72.27,72.27,0,0,0,5.9-6.17,3.25,3.25,0,0,1,2.21-1.16A1.94,1.94,0,0,1,105.94,48.29ZM74.06,11.57a48.9,48.9,0,0,0-3.14,9.61,100.35,100.35,0,0,0-2.13,13.23,57.79,57.79,0,0,0,8.12-11.77C79,18.54,80,15,79.85,11.92a6.67,6.67,0,0,0-.75-3.15,1.8,1.8,0,0,0-1.78-.93Q75.78,8,74.06,11.57Z"/><path class="cls-2" d="M102.25,60.87a11.58,11.58,0,0,1-3.37-8.26,20.61,20.61,0,0,1,2.69-11,24.2,24.2,0,0,1,8-8.56,21.5,21.5,0,0,1,10.88-3.59,3.7,3.7,0,0,1,2.49.47A4.35,4.35,0,0,1,124,32a23.92,23.92,0,0,1,3.69-.42q4.11-.15,4.14,2.27a42.37,42.37,0,0,1-1.14,7c-1.16,5.39-1.76,9.25-1.73,11.4a2.4,2.4,0,0,0,.65,1.7,2.13,2.13,0,0,0,1.62.59A6.9,6.9,0,0,0,135,52.67a75.09,75.09,0,0,0,6-5.81,3.13,3.13,0,0,1,2.23-1,2,2,0,0,1,1.71.83A3.88,3.88,0,0,1,145.6,49a6.09,6.09,0,0,1-1.55,4.46,42.84,42.84,0,0,1-7.11,6.36,13.54,13.54,0,0,1-7.28,2.78,8.19,8.19,0,0,1-5-1.44,9.74,9.74,0,0,1-3.51-4.3c-2.77,4.19-6.3,6.44-10.64,6.72A10.4,10.4,0,0,1,102.25,60.87ZM116.69,54A11.77,11.77,0,0,0,119,48.92c1.1-5.3,1.66-7.91,2.79-13.06a11.35,11.35,0,0,0-6.43,2.52,15.32,15.32,0,0,0-4.56,5.91,17,17,0,0,0-1.53,7.63,4.53,4.53,0,0,0,1.14,3.23,3.69,3.69,0,0,0,2.88.9A4.94,4.94,0,0,0,116.69,54Z"/><path class="cls-2" d="M140.43,59.36c-.87-1.92-1.32-5-1.37-9.19A47.91,47.91,0,0,1,142,32.79a5.34,5.34,0,0,1,2.45-3,10.18,10.18,0,0,1,4.82-1,5.52,5.52,0,0,1,2.35.33,1.34,1.34,0,0,1,.68,1.3,24.59,24.59,0,0,1-1.25,5c-.57,1.83-1,3.48-1.32,4.88a43.24,43.24,0,0,0-.82,5.21A36.15,36.15,0,0,1,155,35.72a22,22,0,0,1,6.75-5.27A13.88,13.88,0,0,1,167.88,29q5.46.11,5.4,4.59a25.13,25.13,0,0,1-.8,4.35,24.31,24.31,0,0,0-.71,3.47c0,1.64.66,2.48,2,2.52q2.33.06,6-2.9a3.38,3.38,0,0,1,2.26-.82,2.11,2.11,0,0,1,1.7.87,3.44,3.44,0,0,1,.58,2.17,5.1,5.1,0,0,1-1.74,4,22.61,22.61,0,0,1-5.49,3.32,15.28,15.28,0,0,1-6.6,1.28q-4.38-.11-6.64-2a6.5,6.5,0,0,1-2.25-5.21,12.29,12.29,0,0,1,.26-2.11,11.68,11.68,0,0,0,.18-1.89c0-.75-.31-1.12-.92-1.13-.83,0-1.93.76-3.29,2.32a30.65,30.65,0,0,0-4,6.24,44.53,44.53,0,0,0-3.21,8.32A11.15,11.15,0,0,1,148.58,61a5.14,5.14,0,0,1-3.73,1.24A4.43,4.43,0,0,1,140.43,59.36Z"/><path class="cls-2" d="M225.55,50.25a4,4,0,0,1,.51,2.41,5.74,5.74,0,0,1-1.79,4.28,38.4,38.4,0,0,1-7.73,5.46,14.66,14.66,0,0,1-8.1,1.9c-4.18-.34-7.28-2.74-9.36-7.17a22.6,22.6,0,0,1-6.2,4.78,13.23,13.23,0,0,1-6.08,1,11.57,11.57,0,0,1-8.2-3.67,11.88,11.88,0,0,1-3.13-8.63,19.81,19.81,0,0,1,3-10.4,21.1,21.1,0,0,1,8-7.46,24.48,24.48,0,0,1,11.3-2.94C199,21,201.3,13.83,204.54,8s7.38-8.41,12.37-8A8.59,8.59,0,0,1,223,3.09c1.56,1.83,2.26,4.46,2.1,7.91-.23,4.9-2.07,10.54-5.46,17.06A145.56,145.56,0,0,1,206.43,48.4a14.23,14.23,0,0,0,1.25,6,3.5,3.5,0,0,0,2.79,2,7.51,7.51,0,0,0,4.63-1.34A59,59,0,0,0,221.58,50a2.94,2.94,0,0,1,2.3-.77A2.14,2.14,0,0,1,225.55,50.25ZM193,54.78a21.92,21.92,0,0,0,4.09-3.88,41.08,41.08,0,0,1-.59-8.61c0-1.12.14-2.94.32-5.43a13.1,13.1,0,0,0-7.78,4.7,13.83,13.83,0,0,0-3.23,8.73c-.07,3.47,1.27,5.29,4,5.43A5.28,5.28,0,0,0,193,54.78Zm19.27-44.33A61.45,61.45,0,0,0,209.09,22q-1.4,7.24-2.19,15.44c4.4-7.85,10-16.5,10.48-25.71A10.49,10.49,0,0,0,217,7.78c-.34-1-.76-1.44-1.28-1.48C214.63,6.21,213.48,7.58,212.29,10.45Z"/><path class="cls-2" d="M252.49,36a1.58,1.58,0,0,1,.68,1.48c-.08,1.1-1.14,4.94-3,11.6-1.76,6.38-2.72,10.37-3,11.59-2.66,9.93-5.21,20-10.21,29.09-4,7.19-8.83,10.56-14.63,9.94a10.06,10.06,0,0,1-6.59-3.13A8.84,8.84,0,0,1,213.43,90a16.44,16.44,0,0,1,2-7.15A28.87,28.87,0,0,1,222.39,75a82.77,82.77,0,0,1,14.19-9.19c.13-.66.2-1,.34-1.65.49-1.74,1.07-4.25,1.76-7.49A16.58,16.58,0,0,1,233.59,64a8.84,8.84,0,0,1-6.43,2,8,8,0,0,1-5.93-3.65,12.34,12.34,0,0,1-2-7.7A50.75,50.75,0,0,1,220.46,45a48,48,0,0,1,3.19-9,5.35,5.35,0,0,1,2.49-2.72A9.55,9.55,0,0,1,231,33a5.19,5.19,0,0,1,2.56.76,1.73,1.73,0,0,1,.64,1.52,19.31,19.31,0,0,1-1.13,3.63c-.61,1.62-1.18,3.15-1.58,4.51-.55,1.85-1,3.66-1.46,5.39a24.43,24.43,0,0,0-.72,4.31c-.09,1.81.45,2.78,1.61,2.91.83.09,1.91-.51,3.24-1.79a29,29,0,0,0,4.37-6,78,78,0,0,0,4.77-9.95,4.81,4.81,0,0,1,2.25-2.7,7.67,7.67,0,0,1,4.25-.34A6.55,6.55,0,0,1,252.49,36ZM228.35,88.35c1.83-2.76,3.78-7.45,5.84-13.93a37.8,37.8,0,0,0-9.59,7.83c-2,2.49-3,4.77-3.15,6.81a4.1,4.1,0,0,0,.43,2.2,2,2,0,0,0,1.7,1C224.93,92.44,226.52,91.11,228.35,88.35Z"/><path class="cls-2" d="M264.69,27.83a2.54,2.54,0,0,1-1-2.32,4.45,4.45,0,0,1,.36-1.36,49.76,49.76,0,0,0,1.83-5.44,30.87,30.87,0,0,0,.89-5.64,5.72,5.72,0,0,1,2.41-4.69,7.34,7.34,0,0,1,5.4-.92,8.18,8.18,0,0,1,4.65,2,4.48,4.48,0,0,1,1.34,3.67A14.4,14.4,0,0,1,278.28,19a47.21,47.21,0,0,1-5,6.77,15.57,15.57,0,0,1-3,2.85,3.78,3.78,0,0,1-2.67.4A6.29,6.29,0,0,1,264.69,27.83Z"/><path class="cls-2" d="M283.66,74.38a5.64,5.64,0,0,1-2-4.38,3.75,3.75,0,0,1,1.88-3,6.7,6.7,0,0,1,4.85-.46,21.43,21.43,0,0,1,2.56.69l2.21.7a8.76,8.76,0,0,0-.64-3.72,19.47,19.47,0,0,0-1.95-3.63c-.81-1.2-1.58-2.25-2.31-3.16a43.13,43.13,0,0,1-5.82,6,55.07,55.07,0,0,1-6,4.31,4.51,4.51,0,0,1-3.3.74A3.31,3.31,0,0,1,271,67.31a3.05,3.05,0,0,1-.67-2.21,3.43,3.43,0,0,1,1.38-2.46l1.19-1a96.87,96.87,0,0,0,7.66-6.74,39.72,39.72,0,0,0,3.52-4.28c1.21-1.68,2.81-4,4.81-6.8,1.27-1.82,3.62-2.4,7.06-1.72a11.77,11.77,0,0,1,3.33,1,1.36,1.36,0,0,1,.84,1.29,4.12,4.12,0,0,1-.47,1.24,8.21,8.21,0,0,1-1.12,1.61,7.67,7.67,0,0,0-1.95,3.92,4.52,4.52,0,0,0,.68,2.5,33.46,33.46,0,0,0,2.46,3.73,51.43,51.43,0,0,1,3.64,5.95,9,9,0,0,1,.93,4.93,10,10,0,0,1-2.23,5.39,10.93,10.93,0,0,1-5,3.44,13.18,13.18,0,0,1-6.88.3A12.29,12.29,0,0,1,283.66,74.38Z"/></g></g></svg>