<svg xmlns="http://www.w3.org/2000/svg" viewBox="0 0 926.68 865.91"><defs><style>.cls-1{fill:#ffdec2;}.cls-2{fill:#fb3371;}.cls-3{fill:#f98ff9;}.cls-4{fill:red;}.cls-5{fill:#fff;}.cls-6{fill:lime;}.cls-7{fill:#ff0;}.cls-8,.cls-9{fill:none;stroke:#fb3371;stroke-width:15px;}.cls-8{stroke-linecap:round;stroke-linejoin:round;}.cls-9{stroke-miterlimit:10;}.cls-10{fill:#666;}</style></defs><title>noCheckoutItemAssetAsset 5</title><g id="Layer_2" data-name="Layer 2"><g id="Layer_1-2" data-name="Layer 1"><path class="cls-1" d="M535.2,501.46A247,247,0,0,1,360.55,79.84,247,247,0,1,1,709.84,429.12,245.36,245.36,0,0,1,535.2,501.46Zm0-339.65a92.68,92.68,0,1,0,92.67,92.67A92.78,92.78,0,0,0,535.2,161.81Z"/><path class="cls-2" d="M535.2,15c132.26,0,239.48,107.22,239.48,239.48S667.46,494,535.2,494,295.72,386.74,295.72,254.48,402.94,15,535.2,15m0,339.66A100.18,100.18,0,1,0,435,254.48,100.18,100.18,0,0,0,535.2,354.66M535.2,0a254.55,254.55,0,0,0-99.06,489A254.54,254.54,0,0,0,634.25,20a252.94,252.94,0,0,0-99-20Zm0,339.66a85.18,85.18,0,1,1,85.17-85.18,85.27,85.27,0,0,1-85.17,85.18Z"/><path class="cls-3" d="M753.56,189.56a118.09,118.09,0,0,0-19.12-40.75L697,97.64a113.7,113.7,0,0,0-47.8-37.84L587.78,34.12a110.08,110.08,0,0,0-63.87-6.47l-55.37,11a111.85,111.85,0,0,0-54.13,27.61l-54.74,50.47a117.13,117.13,0,0,0-33.94,57.13l-17.88,70a58,58,0,0,0-1.8,13.26,211.19,211.19,0,0,0,25.71,106.18c28.72,52.24,71.46,76.3,87.26,84.92,5.17,2.82,115.2,60.48,221.48,3.52,0,0,65.81-35.28,107.21-122.48,10.14-21.35,15.58-46.32,16-48.52,4.37-20.53,4.62-40.48.79-47.65ZM621.32,319.82c-25.31,32.61-75.65,48.56-119,36.78-8.69-2.36-41.78-11.36-61.44-44.22-15.72-26.26-13.76-52.58-12.66-61.72q3.45-18.12,6.91-36.23A64.13,64.13,0,0,1,461.7,173.5l12.16-8.35a85.89,85.89,0,0,1,42.21-14.91l24.65-1.85a88.28,88.28,0,0,1,54.21,13.75L605,168.61a93,93,0,0,1,40.66,59.67q1.13,5.43,2.24,10.87C649.32,248.21,644.23,290.31,621.32,319.82Z"/><rect class="cls-4" x="347.73" y="272.49" width="5.98" height="51.42" transform="translate(-20.36 570.65) rotate(-76.66)"/><rect class="cls-5" x="385.24" y="166.76" width="7.86" height="37.22" transform="translate(-37.66 245.6) rotate(-33.5)"/><rect class="cls-6" x="381.27" y="246.56" width="43.42" height="9.17" transform="translate(-1.75 499.47) rotate(-63.46)"/><rect class="cls-7" x="349.47" y="206.16" width="9.78" height="46.29" transform="translate(79.79 549.87) rotate(-82.33)"/><rect class="cls-4" x="721.06" y="224.73" width="6.14" height="52.84" transform="translate(-28.07 398.25) rotate(-30.19)"/><rect class="cls-5" x="655.46" y="339.55" width="8.84" height="41.83" transform="translate(-89.34 424.11) rotate(-33.5)"/><rect class="cls-6" x="651.76" y="280.13" width="44.61" height="9.42" transform="translate(118.08 760.64) rotate(-63.46)"/><rect class="cls-7" x="689.91" y="314.2" width="43.83" height="9.26" transform="translate(-57.5 190.46) rotate(-14.65)"/><rect class="cls-4" x="451.63" y="377.36" width="51.42" height="5.98" transform="translate(-84.12 141) rotate(-15.46)"/><rect class="cls-5" x="369.21" y="343.86" width="37.22" height="7.86" transform="translate(-29.79 36.4) rotate(-5.18)"/><rect class="cls-6" x="459.68" y="405.23" width="9.17" height="43.42" transform="translate(-161.12 345.01) rotate(-35.14)"/><rect class="cls-7" x="386.83" y="394.4" width="46.29" height="9.78" transform="matrix(0.59, -0.81, 0.81, 0.59, -154.03, 496.28)"/><rect class="cls-4" x="578.24" y="81.08" width="52.84" height="6.14" transform="translate(-2.42 19.74) rotate(-1.87)"/><rect class="cls-5" x="649.48" y="188.16" width="41.83" height="8.84" transform="translate(-14.64 61.25) rotate(-5.18)"/><rect class="cls-6" x="605.84" y="121.91" width="9.42" height="44.61" transform="translate(28.26 377.68) rotate(-35.14)"/><rect class="cls-7" x="636.48" y="122.47" width="43.83" height="9.26" transform="translate(379.28 736.8) rotate(-76.33)"/><rect class="cls-4" x="634.39" y="376.5" width="5.98" height="51.42" transform="translate(189.21 1008.16) rotate(-85.77)"/><rect class="cls-5" x="502.15" y="423" width="37.22" height="7.86" transform="translate(-89.83 710.92) rotate(-64.29)"/><rect class="cls-6" x="548.5" y="376.82" width="43.42" height="9.17" transform="translate(-26.71 43.32) rotate(-4.25)"/><rect class="cls-7" x="571.44" y="411.21" width="9.78" height="46.29" transform="translate(-124.25 261.12) rotate(-23.11)"/><rect class="cls-4" x="426.88" y="145.08" width="52.84" height="6.14" transform="translate(103.85 472.67) rotate(-60.98)"/><rect class="cls-5" x="511.71" y="100.33" width="41.83" height="8.84" transform="translate(207.18 539.2) rotate(-64.29)"/><rect class="cls-6" x="392.7" y="112.2" width="44.61" height="9.42" transform="translate(-7.53 31.09) rotate(-4.25)"/><rect class="cls-7" x="465.63" y="59.52" width="9.26" height="43.83" transform="translate(82.29 359.38) rotate(-45.44)"/><line class="cls-8" x1="236.8" y1="284.72" x2="171.2" y2="284.68"/><polyline class="cls-8" points="7.5 222.82 140.15 222.82 305.62 552.54 755.28 552.54 910.24 284.72 827.67 284.72"/><circle class="cls-9" cx="353.98" cy="640.35" r="43.94"/><circle class="cls-9" cx="718.25" cy="640.35" r="43.94"/><path class="cls-2" d="M207,807.8V772.89h14q5.78,0,8.69,2.52a8.13,8.13,0,0,1,2.9,6.43,7,7,0,0,1-1.79,5,8.69,8.69,0,0,1-4.52,2.51v.34a7.88,7.88,0,0,1,3.75,1.13,8,8,0,0,1,2.83,2.89,8.64,8.64,0,0,1,1.1,4.45,9.05,9.05,0,0,1-1.38,5,9.21,9.21,0,0,1-4.05,3.44A15.56,15.56,0,0,1,222,807.8Zm7.38-20.3h5.48a5.87,5.87,0,0,0,3.76-1.18,3.92,3.92,0,0,0,1.5-3.25,3.81,3.81,0,0,0-1.34-3.05,5.56,5.56,0,0,0-3.79-1.16h-5.61Zm0,14.27h6a6.89,6.89,0,0,0,4.51-1.2,3.91,3.91,0,0,0,1.41-3.15,4.54,4.54,0,0,0-1.55-3.54,6,6,0,0,0-4.2-1.39h-6.19Z"/><path class="cls-2" d="M255.41,796.65v-15h7.26V807.8h-7v-4.75h-.27a7.8,7.8,0,0,1-3,3.69,8.58,8.58,0,0,1-5,1.4,8.35,8.35,0,0,1-6.4-2.63,10.25,10.25,0,0,1-2.46-7.22V781.62h7.26V797a5.34,5.34,0,0,0,1.24,3.67,4.24,4.24,0,0,0,3.29,1.35,5.09,5.09,0,0,0,3.49-1.37A5,5,0,0,0,255.41,796.65Z"/><path class="cls-2" d="M273,817.62a15,15,0,0,1-2.58-.21,9.81,9.81,0,0,1-2-.54l1.64-5.42a6.8,6.8,0,0,0,3.27.31,2.93,2.93,0,0,0,2.06-2.1l.43-1.11-9.39-26.93H274l5.42,19.23h.27l5.48-19.23,7.68,0-10.17,29a11.28,11.28,0,0,1-3.4,5.08A9.66,9.66,0,0,1,273,817.62Z"/><path class="cls-2" d="M307.72,817.62v-36h7.16V786h.32a10.06,10.06,0,0,1,1.4-2.17A7.26,7.26,0,0,1,319,782a8.2,8.2,0,0,1,3.66-.74,9.9,9.9,0,0,1,5.29,1.49,10.51,10.51,0,0,1,3.86,4.48,17.1,17.1,0,0,1,1.45,7.49,17.3,17.3,0,0,1-1.41,7.39,10.59,10.59,0,0,1-3.82,4.56,9.83,9.83,0,0,1-5.39,1.54,8.4,8.4,0,0,1-3.58-.7,7.16,7.16,0,0,1-2.41-1.77,9.19,9.19,0,0,1-1.44-2.15H315v14Zm7.11-22.91a9.86,9.86,0,0,0,1.44,5.62,4.63,4.63,0,0,0,4.06,2.12,4.58,4.58,0,0,0,4.09-2.16,9.93,9.93,0,0,0,1.42-5.58,9.82,9.82,0,0,0-1.41-5.53,4.59,4.59,0,0,0-4.1-2.12,4.65,4.65,0,0,0-4.07,2.07A9.69,9.69,0,0,0,314.83,794.71Z"/><path class="cls-2" d="M350,808.31a14,14,0,0,1-6.94-1.64,11.15,11.15,0,0,1-4.48-4.67,17,17,0,0,1,0-14.26A11.55,11.55,0,0,1,343,783a12.92,12.92,0,0,1,6.71-1.7,13.3,13.3,0,0,1,6.25,1.46,10.78,10.78,0,0,1,4.42,4.43,15.14,15.14,0,0,1,1.64,7.4v2H344.2v0a6.4,6.4,0,0,0,1.6,4.61,5.67,5.67,0,0,0,4.33,1.69,6.2,6.2,0,0,0,3.15-.76,4.23,4.23,0,0,0,1.88-2.27l6.71.44a9.18,9.18,0,0,1-3.88,5.83A13.57,13.57,0,0,1,350,808.31Zm-5.81-16.24h11a5.32,5.32,0,0,0-1.5-3.85,5.11,5.11,0,0,0-3.85-1.52,5.33,5.33,0,0,0-4,1.57A5.62,5.62,0,0,0,344.2,792.07Z"/><path class="cls-2" d="M366.77,807.8V781.62h7v4.57h.28a6.75,6.75,0,0,1,2.4-3.69,6.33,6.33,0,0,1,3.89-1.26,9.83,9.83,0,0,1,2.28.26v6.44a8.47,8.47,0,0,0-1.41-.28,14.72,14.72,0,0,0-1.66-.11,5.51,5.51,0,0,0-4,1.51A5.21,5.21,0,0,0,374,793V807.8Z"/><path class="cls-2" d="M397.51,817.62v-36h7.16V786H405a10,10,0,0,1,1.39-2.17,7.37,7.37,0,0,1,2.39-1.83,8.22,8.22,0,0,1,3.67-.74,9.84,9.84,0,0,1,5.28,1.49,10.51,10.51,0,0,1,3.86,4.48,19.94,19.94,0,0,1,0,14.88,10.52,10.52,0,0,1-3.82,4.56,9.8,9.8,0,0,1-5.38,1.54,8.42,8.42,0,0,1-3.59-.7,7.21,7.21,0,0,1-2.4-1.77,9.19,9.19,0,0,1-1.44-2.15h-.22v14Zm7.11-22.91a9.86,9.86,0,0,0,1.44,5.62,5,5,0,0,0,8.16,0,10,10,0,0,0,1.41-5.58,9.9,9.9,0,0,0-1.4-5.53,4.61,4.61,0,0,0-4.1-2.12,4.68,4.68,0,0,0-4.08,2.07A9.69,9.69,0,0,0,404.62,794.71Z"/><path class="cls-2" d="M431.52,778.24a3.9,3.9,0,0,1-2.76-1.08,3.48,3.48,0,0,1,0-5.19,3.94,3.94,0,0,1,2.76-1.07A4,4,0,0,1,434.3,772a3.48,3.48,0,0,1,0,5.19A4,4,0,0,1,431.52,778.24Zm-3.65,29.56V781.62h7.26V807.8Z"/><path class="cls-2" d="M452.86,808.31a14,14,0,0,1-6.94-1.64,11.15,11.15,0,0,1-4.48-4.67,17,17,0,0,1,0-14.26,11.55,11.55,0,0,1,4.42-4.76,12.92,12.92,0,0,1,6.71-1.7,13.3,13.3,0,0,1,6.25,1.46,10.78,10.78,0,0,1,4.42,4.43,15.14,15.14,0,0,1,1.64,7.4v2H447.05v0a6.4,6.4,0,0,0,1.6,4.61,5.67,5.67,0,0,0,4.33,1.69,6.2,6.2,0,0,0,3.15-.76,4.23,4.23,0,0,0,1.88-2.27l6.71.44a9.18,9.18,0,0,1-3.88,5.83A13.57,13.57,0,0,1,452.86,808.31Zm-5.81-16.24h11a5.32,5.32,0,0,0-1.5-3.85,5.11,5.11,0,0,0-3.85-1.52,5.33,5.33,0,0,0-4,1.57A5.62,5.62,0,0,0,447.05,792.07Z"/><path class="cls-2" d="M481.44,808.31a13.34,13.34,0,0,1-6.91-1.71,11.44,11.44,0,0,1-4.43-4.76,16.79,16.79,0,0,1,0-14.09,11.53,11.53,0,0,1,4.44-4.76,13.17,13.17,0,0,1,6.85-1.71,13.7,13.7,0,0,1,6,1.24,9.94,9.94,0,0,1,4.07,3.5,10.24,10.24,0,0,1,1.65,5.28h-6.85a5.4,5.4,0,0,0-1.53-3.16,4.43,4.43,0,0,0-3.23-1.2,4.84,4.84,0,0,0-4.06,2,9.36,9.36,0,0,0-1.53,5.74,9.6,9.6,0,0,0,1.52,5.8,4.83,4.83,0,0,0,4.07,2.06,4.59,4.59,0,0,0,3.15-1.13,5.23,5.23,0,0,0,1.61-3.24h6.85a10.88,10.88,0,0,1-1.63,5.29,9.81,9.81,0,0,1-4,3.55A13.47,13.47,0,0,1,481.44,808.31Z"/><path class="cls-2" d="M509.74,808.31a14,14,0,0,1-6.94-1.64,11.15,11.15,0,0,1-4.48-4.67,17,17,0,0,1,0-14.26,11.55,11.55,0,0,1,4.42-4.76,12.92,12.92,0,0,1,6.71-1.7,13.3,13.3,0,0,1,6.25,1.46,10.72,10.72,0,0,1,4.42,4.43,15.14,15.14,0,0,1,1.64,7.4v2H503.93v0a6.4,6.4,0,0,0,1.6,4.61,5.67,5.67,0,0,0,4.33,1.69,6.2,6.2,0,0,0,3.15-.76,4.23,4.23,0,0,0,1.88-2.27l6.71.44a9.18,9.18,0,0,1-3.88,5.83A13.57,13.57,0,0,1,509.74,808.31Zm-5.81-16.24h11a5.32,5.32,0,0,0-1.5-3.85,5.11,5.11,0,0,0-3.85-1.52,5.33,5.33,0,0,0-4,1.57A5.62,5.62,0,0,0,503.93,792.07Z"/><path class="cls-10" d="M549.46,808.31a13.29,13.29,0,0,1-6.86-1.69,11.4,11.4,0,0,1-4.46-4.74,16.77,16.77,0,0,1,0-14.17A11.52,11.52,0,0,1,542.6,783a14.77,14.77,0,0,1,13.72,0,11.56,11.56,0,0,1,4.45,4.74,16.77,16.77,0,0,1,0,14.17,11.44,11.44,0,0,1-4.45,4.74A13.34,13.34,0,0,1,549.46,808.31Zm0-5.62a4.49,4.49,0,0,0,4.08-2.25,12.3,12.3,0,0,0,0-11.36,4.48,4.48,0,0,0-4.08-2.26,4.55,4.55,0,0,0-4.14,2.26,12.22,12.22,0,0,0,0,11.36A4.56,4.56,0,0,0,549.49,802.69Z"/><path class="cls-10" d="M567.08,807.8V781.62h7v4.57h.27a6.76,6.76,0,0,1,2.41-3.69,6.31,6.31,0,0,1,3.88-1.26,9.92,9.92,0,0,1,2.29.26v6.44a8.63,8.63,0,0,0-1.42-.28,14.4,14.4,0,0,0-1.65-.11,5.51,5.51,0,0,0-4,1.51,5.21,5.21,0,0,0-1.58,3.93V807.8Z"/><path class="cls-2" d="M598,807.8V772.89h7.26V786h.22a9.69,9.69,0,0,1,1.4-2.17,7.22,7.22,0,0,1,2.38-1.83,8.22,8.22,0,0,1,3.67-.74,9.84,9.84,0,0,1,5.28,1.49,10.51,10.51,0,0,1,3.86,4.48,19.94,19.94,0,0,1,0,14.88,10.57,10.57,0,0,1-3.81,4.56,9.85,9.85,0,0,1-5.39,1.54,8.45,8.45,0,0,1-3.59-.7,7.21,7.21,0,0,1-2.4-1.77,9.19,9.19,0,0,1-1.44-2.15h-.33v4.19Zm7.1-13.09a9.86,9.86,0,0,0,1.44,5.62,4.65,4.65,0,0,0,4.07,2.12,4.59,4.59,0,0,0,4.09-2.16,10,10,0,0,0,1.41-5.58,9.82,9.82,0,0,0-1.4-5.53,5,5,0,0,0-8.17,0A9.61,9.61,0,0,0,605.07,794.71Z"/><path class="cls-2" d="M645.11,796.65v-15h7.26V807.8h-7v-4.75h-.27a7.73,7.73,0,0,1-2.94,3.69,8.63,8.63,0,0,1-5,1.4,8.34,8.34,0,0,1-6.4-2.63,10.26,10.26,0,0,1-2.47-7.22V781.62h7.26V797a5.34,5.34,0,0,0,1.25,3.67,4.22,4.22,0,0,0,3.29,1.35,4.94,4.94,0,0,0,5-5.36Z"/><path class="cls-2" d="M662.65,817.62a15,15,0,0,1-2.58-.21,10.2,10.2,0,0,1-2-.54l1.64-5.42a6.81,6.81,0,0,0,3.27.31,2.94,2.94,0,0,0,2.07-2.1l.42-1.11-9.39-26.93h7.64l5.42,19.23h.27l5.47-19.23,7.69,0-10.18,29a11.28,11.28,0,0,1-3.4,5.08A9.64,9.64,0,0,1,662.65,817.62Z"/><path class="cls-2" d="M697.42,817.62v-36h7.16V786h.33a9.69,9.69,0,0,1,1.4-2.17,7.22,7.22,0,0,1,2.38-1.83,8.22,8.22,0,0,1,3.67-.74,9.84,9.84,0,0,1,5.28,1.49,10.51,10.51,0,0,1,3.86,4.48,19.94,19.94,0,0,1,0,14.88,10.57,10.57,0,0,1-3.81,4.56,9.85,9.85,0,0,1-5.39,1.54,8.42,8.42,0,0,1-3.59-.7,7.21,7.21,0,0,1-2.4-1.77,9.19,9.19,0,0,1-1.44-2.15h-.22v14Zm7.11-22.91a9.86,9.86,0,0,0,1.44,5.62,4.65,4.65,0,0,0,4.07,2.12,4.59,4.59,0,0,0,4.09-2.16,10,10,0,0,0,1.41-5.58,9.82,9.82,0,0,0-1.4-5.53,4.61,4.61,0,0,0-4.1-2.12,4.68,4.68,0,0,0-4.08,2.07A9.69,9.69,0,0,0,704.53,794.71Z"/><path class="cls-2" d="M739.71,808.31a13.93,13.93,0,0,1-6.93-1.64,11.17,11.17,0,0,1-4.49-4.67,17.07,17.07,0,0,1,0-14.26,11.57,11.57,0,0,1,4.43-4.76,12.88,12.88,0,0,1,6.7-1.7,13.3,13.3,0,0,1,6.25,1.46,10.72,10.72,0,0,1,4.42,4.43,15,15,0,0,1,1.64,7.4v2H733.9v0a6.45,6.45,0,0,0,1.6,4.61,5.69,5.69,0,0,0,4.33,1.69,6.24,6.24,0,0,0,3.16-.76,4.21,4.21,0,0,0,1.87-2.27l6.72.44a9.2,9.2,0,0,1-3.89,5.83A13.57,13.57,0,0,1,739.71,808.31Zm-5.81-16.24h11a5.4,5.4,0,0,0-1.5-3.85,5.14,5.14,0,0,0-3.86-1.52,5.34,5.34,0,0,0-4,1.57A5.66,5.66,0,0,0,733.9,792.07Z"/><path class="cls-2" d="M756.47,807.8V781.62h7v4.57h.27a6.76,6.76,0,0,1,2.41-3.69,6.31,6.31,0,0,1,3.88-1.26,9.92,9.92,0,0,1,2.29.26v6.44a8.63,8.63,0,0,0-1.42-.28,14.4,14.4,0,0,0-1.65-.11,5.51,5.51,0,0,0-4,1.51,5.21,5.21,0,0,0-1.58,3.93V807.8Z"/><path class="cls-2" d="M796.87,808.23a9.83,9.83,0,0,1-5.39-1.54,10.65,10.65,0,0,1-3.82-4.56,17.3,17.3,0,0,1-1.41-7.39,17.1,17.1,0,0,1,1.45-7.49,10.59,10.59,0,0,1,3.87-4.48,9.89,9.89,0,0,1,5.28-1.49,8.16,8.16,0,0,1,3.67.74,7.37,7.37,0,0,1,2.39,1.83A9.29,9.29,0,0,1,804.3,786h.22V772.89h7.24V807.8h-7.15v-4.19h-.31a8.83,8.83,0,0,1-1.43,2.15,7.3,7.3,0,0,1-2.42,1.77A8.37,8.37,0,0,1,796.87,808.23Zm2.3-5.78a4.63,4.63,0,0,0,4.06-2.12,9.86,9.86,0,0,0,1.44-5.62,9.61,9.61,0,0,0-1.43-5.58,4.65,4.65,0,0,0-4.07-2.07,4.6,4.6,0,0,0-4.1,2.12,9.82,9.82,0,0,0-1.41,5.53,9.93,9.93,0,0,0,1.42,5.58A4.58,4.58,0,0,0,799.17,802.45Z"/><path class="cls-2" d="M829.54,808.31a13.32,13.32,0,0,1-6.86-1.69,11.53,11.53,0,0,1-4.46-4.74,16.87,16.87,0,0,1,0-14.17,11.65,11.65,0,0,1,4.46-4.74,14.77,14.77,0,0,1,13.72,0,11.52,11.52,0,0,1,4.46,4.74,16.77,16.77,0,0,1,0,14.17,11.4,11.4,0,0,1-4.46,4.74A13.29,13.29,0,0,1,829.54,808.31Zm0-5.62a4.51,4.51,0,0,0,4.08-2.25,12.3,12.3,0,0,0,0-11.36,4.5,4.5,0,0,0-4.08-2.26,4.58,4.58,0,0,0-4.15,2.26,12.3,12.3,0,0,0,0,11.36A4.59,4.59,0,0,0,829.58,802.69Z"/><path class="cls-2" d="M847,807.8v-4.33l12.82-15.87v-.19H847.47v-5.79h21.12v4.72l-12,15.48V802H869v5.79Z"/><path class="cls-2" d="M885.79,808.31a14,14,0,0,1-6.94-1.64,11.21,11.21,0,0,1-4.48-4.67,17,17,0,0,1,0-14.26,11.62,11.62,0,0,1,4.42-4.76,12.92,12.92,0,0,1,6.71-1.7,13.3,13.3,0,0,1,6.25,1.46,10.72,10.72,0,0,1,4.42,4.43,15.14,15.14,0,0,1,1.64,7.4v2H880v0a6.4,6.4,0,0,0,1.6,4.61,5.67,5.67,0,0,0,4.33,1.69,6.24,6.24,0,0,0,3.16-.76,4.21,4.21,0,0,0,1.87-2.27l6.72.44a9.24,9.24,0,0,1-3.89,5.83A13.57,13.57,0,0,1,885.79,808.31ZM880,792.07h11a5.32,5.32,0,0,0-1.5-3.85,5.1,5.1,0,0,0-3.85-1.52,5.33,5.33,0,0,0-4,1.57A5.66,5.66,0,0,0,880,792.07Z"/><path class="cls-2" d="M909.81,792.66V807.8h-7.26V781.62h6.92v4.62h.31a7.43,7.43,0,0,1,2.92-3.62,8.84,8.84,0,0,1,4.95-1.34,8.57,8.57,0,0,1,6.56,2.63,10.12,10.12,0,0,1,2.47,7.22V807.8h-7.26V792.43a5.28,5.28,0,0,0-1.22-3.76,4.42,4.42,0,0,0-3.43-1.36,4.74,4.74,0,0,0-3.57,1.41A5.44,5.44,0,0,0,909.81,792.66Z"/><path class="cls-10" d="M220.82,839.22v5.45H215.9v12.69a2.42,2.42,0,0,0,.68,2,2.74,2.74,0,0,0,1.77.53,5.86,5.86,0,0,0,1-.09l.79-.15,1.14,5.41c-.36.11-.87.24-1.53.4a12.79,12.79,0,0,1-2.41.28,9.37,9.37,0,0,1-6.35-1.71,6.81,6.81,0,0,1-2.37-5.74V844.67h-3.58v-5.45h3.58V833h7.26v6.27Z"/><path class="cls-10" d="M237.1,865.91a13.32,13.32,0,0,1-6.86-1.69,11.46,11.46,0,0,1-4.46-4.74,16.87,16.87,0,0,1,0-14.17,11.46,11.46,0,0,1,4.46-4.74,14.77,14.77,0,0,1,13.72,0,11.46,11.46,0,0,1,4.46,4.74,16.77,16.77,0,0,1,0,14.17,11.46,11.46,0,0,1-4.46,4.74A13.29,13.29,0,0,1,237.1,865.91Zm0-5.62a4.51,4.51,0,0,0,4.08-2.25,12.3,12.3,0,0,0,0-11.36,4.5,4.5,0,0,0-4.08-2.26,4.58,4.58,0,0,0-4.15,2.26A12.3,12.3,0,0,0,233,858,4.59,4.59,0,0,0,237.14,860.29Z"/><path class="cls-10" d="M273.12,850.26V865.4h-7.26V830.49h7.05v13.35h.31a7.55,7.55,0,0,1,2.87-3.64,8.75,8.75,0,0,1,5-1.32,8.62,8.62,0,0,1,6.57,2.62,10,10,0,0,1,2.48,7.23V865.4h-7.27V850a5.28,5.28,0,0,0-1.21-3.77,4.47,4.47,0,0,0-3.46-1.35,4.91,4.91,0,0,0-3.62,1.41A5.37,5.37,0,0,0,273.12,850.26Z"/><path class="cls-10" d="M303.29,865.9a9.74,9.74,0,0,1-6.22-2A8.24,8.24,0,0,1,296,853.49,7.9,7.9,0,0,1,299.6,851a20.28,20.28,0,0,1,4.83-1,37.56,37.56,0,0,0,4.88-.72c1-.25,1.46-.79,1.46-1.64v-.1a3.15,3.15,0,0,0-1-2.5,4.25,4.25,0,0,0-2.87-.89,5.13,5.13,0,0,0-3.12.85,4,4,0,0,0-1.54,2.17l-6.71-.55a8.92,8.92,0,0,1,3.72-5.67,13,13,0,0,1,7.68-2.1,16,16,0,0,1,5.45.92,9,9,0,0,1,4.1,2.87,7.87,7.87,0,0,1,1.56,5.07V865.4h-6.88v-3.63h-.21a7.45,7.45,0,0,1-2.85,3A9.12,9.12,0,0,1,303.29,865.9Zm2.08-5a5.6,5.6,0,0,0,3.92-1.39,4.45,4.45,0,0,0,1.53-3.45v-2.78a4,4,0,0,1-1.32.52c-.59.14-1.23.27-1.91.38l-1.81.28a7.26,7.26,0,0,0-3.08,1.07,2.67,2.67,0,0,0-1.17,2.34,2.59,2.59,0,0,0,1.09,2.27A4.65,4.65,0,0,0,305.37,860.88Z"/><path class="cls-10" d="M347.13,839.22,338,865.4h-8.19l-9.15-26.18h7.67L333.75,858H334l5.42-18.73Z"/><path class="cls-10" d="M361.91,865.91a14,14,0,0,1-6.94-1.64,11.15,11.15,0,0,1-4.48-4.67,17,17,0,0,1,0-14.26,11.55,11.55,0,0,1,4.42-4.76,12.89,12.89,0,0,1,6.71-1.7,13.3,13.3,0,0,1,6.25,1.46,10.78,10.78,0,0,1,4.42,4.43,15.14,15.14,0,0,1,1.64,7.4v2H356.1v0a6.4,6.4,0,0,0,1.6,4.61,5.67,5.67,0,0,0,4.33,1.69,6.23,6.23,0,0,0,3.15-.76,4.23,4.23,0,0,0,1.88-2.27l6.71.44a9.18,9.18,0,0,1-3.88,5.83A13.57,13.57,0,0,1,361.91,865.91Zm-5.81-16.24h11a5.32,5.32,0,0,0-1.5-3.85,5.11,5.11,0,0,0-3.85-1.52,5.31,5.31,0,0,0-4,1.57A5.62,5.62,0,0,0,356.1,849.67Z"/><path class="cls-10" d="M397.26,865.9a9.74,9.74,0,0,1-6.22-2A8.24,8.24,0,0,1,390,853.49a8,8,0,0,1,3.62-2.45,20.38,20.38,0,0,1,4.83-1,37.28,37.28,0,0,0,4.88-.72c1-.25,1.46-.79,1.46-1.64v-.1a3.12,3.12,0,0,0-1-2.5,4.23,4.23,0,0,0-2.87-.89,5.13,5.13,0,0,0-3.12.85,4,4,0,0,0-1.54,2.17l-6.71-.55a8.92,8.92,0,0,1,3.72-5.67,13,13,0,0,1,7.68-2.1,16,16,0,0,1,5.46.92,9.07,9.07,0,0,1,4.1,2.87,7.87,7.87,0,0,1,1.56,5.07V865.4h-6.89v-3.63h-.21a7.38,7.38,0,0,1-2.85,3A9.12,9.12,0,0,1,397.26,865.9Zm2.08-5a5.6,5.6,0,0,0,3.92-1.39A4.46,4.46,0,0,0,404.8,856v-2.78a4.21,4.21,0,0,1-1.33.52c-.59.14-1.23.27-1.91.38l-1.81.28a7.26,7.26,0,0,0-3.08,1.07,2.66,2.66,0,0,0-1.16,2.34,2.61,2.61,0,0,0,1.08,2.27A4.65,4.65,0,0,0,399.34,860.88Z"/><path class="cls-10" d="M440.61,865.91a13.31,13.31,0,0,1-6.91-1.71,11.4,11.4,0,0,1-4.44-4.76,16.79,16.79,0,0,1,0-14.09,11.53,11.53,0,0,1,4.44-4.76,13.19,13.19,0,0,1,6.85-1.71,13.67,13.67,0,0,1,6,1.24,10,10,0,0,1,4.08,3.5,10.33,10.33,0,0,1,1.64,5.28h-6.85a5.35,5.35,0,0,0-1.53-3.16,4.43,4.43,0,0,0-3.23-1.2,4.81,4.81,0,0,0-4.05,2,9.29,9.29,0,0,0-1.54,5.74,9.55,9.55,0,0,0,1.53,5.8,4.8,4.8,0,0,0,4.06,2.06,4.6,4.6,0,0,0,3.16-1.14,5.22,5.22,0,0,0,1.6-3.23h6.85a10.78,10.78,0,0,1-1.63,5.29,9.81,9.81,0,0,1-4,3.55A13.42,13.42,0,0,1,440.61,865.91Z"/><path class="cls-10" d="M464.23,850.26V865.4H457V830.49H464v13.35h.3a7.57,7.57,0,0,1,2.88-3.64,9.72,9.72,0,0,1,11.53,1.3,10,10,0,0,1,2.47,7.23V865.4H474V850a5.33,5.33,0,0,0-1.22-3.77,4.45,4.45,0,0,0-3.45-1.35,4.87,4.87,0,0,0-3.62,1.41A5.37,5.37,0,0,0,464.23,850.26Z"/><path class="cls-10" d="M498.87,865.91a14,14,0,0,1-6.94-1.64,11.15,11.15,0,0,1-4.48-4.67,17,17,0,0,1,0-14.26,11.55,11.55,0,0,1,4.42-4.76,12.89,12.89,0,0,1,6.71-1.7,13.3,13.3,0,0,1,6.25,1.46,10.78,10.78,0,0,1,4.42,4.43,15.14,15.14,0,0,1,1.64,7.4v2H493.06v0a6.4,6.4,0,0,0,1.6,4.61,5.67,5.67,0,0,0,4.33,1.69,6.23,6.23,0,0,0,3.15-.76,4.23,4.23,0,0,0,1.88-2.27l6.71.44a9.18,9.18,0,0,1-3.88,5.83A13.57,13.57,0,0,1,498.87,865.91Zm-5.81-16.24h11a5.32,5.32,0,0,0-1.5-3.85,5.11,5.11,0,0,0-3.85-1.52,5.31,5.31,0,0,0-4,1.57A5.62,5.62,0,0,0,493.06,849.67Z"/><path class="cls-10" d="M527.45,865.91a13.34,13.34,0,0,1-6.91-1.71,11.44,11.44,0,0,1-4.43-4.76,16.79,16.79,0,0,1,0-14.09,11.53,11.53,0,0,1,4.44-4.76,13.17,13.17,0,0,1,6.85-1.71,13.7,13.7,0,0,1,6,1.24,9.94,9.94,0,0,1,4.07,3.5,10.33,10.33,0,0,1,1.65,5.28h-6.86a5.34,5.34,0,0,0-1.52-3.16,4.43,4.43,0,0,0-3.23-1.2,4.83,4.83,0,0,0-4.06,2,9.36,9.36,0,0,0-1.53,5.74,9.62,9.62,0,0,0,1.52,5.8,4.83,4.83,0,0,0,4.07,2.06,4.55,4.55,0,0,0,3.15-1.14,5.17,5.17,0,0,0,1.6-3.23h6.86a10.88,10.88,0,0,1-1.63,5.29,9.78,9.78,0,0,1-4,3.55A13.39,13.39,0,0,1,527.45,865.91Z"/><path class="cls-10" d="M543.82,865.4V830.49h7.26v18.67h.39l8.39-9.94h8.33l-9.71,11.33,10.21,14.85h-8.51L553,854.85l-2,2.23v8.32Z"/><path class="cls-10" d="M582.48,865.91a13.29,13.29,0,0,1-6.86-1.69,11.4,11.4,0,0,1-4.46-4.74,16.77,16.77,0,0,1,0-14.17,11.4,11.4,0,0,1,4.46-4.74,14.77,14.77,0,0,1,13.72,0,11.44,11.44,0,0,1,4.45,4.74,16.77,16.77,0,0,1,0,14.17,11.44,11.44,0,0,1-4.45,4.74A13.34,13.34,0,0,1,582.48,865.91Zm0-5.62a4.49,4.49,0,0,0,4.08-2.25,12.3,12.3,0,0,0,0-11.36,4.48,4.48,0,0,0-4.08-2.26,4.55,4.55,0,0,0-4.14,2.26,12.22,12.22,0,0,0,0,11.36A4.56,4.56,0,0,0,582.51,860.29Z"/><path class="cls-10" d="M616.89,854.25v-15h7.26V865.4h-7v-4.75h-.27a7.73,7.73,0,0,1-2.94,3.69,8.64,8.64,0,0,1-5,1.4,8.35,8.35,0,0,1-6.4-2.63,10.25,10.25,0,0,1-2.46-7.22V839.22h7.26v15.37a5.29,5.29,0,0,0,1.25,3.67,4.22,4.22,0,0,0,3.29,1.35,4.94,4.94,0,0,0,5-5.36Z"/><path class="cls-10" d="M643.87,839.22v5.45H639v12.69a2.42,2.42,0,0,0,.68,2,2.74,2.74,0,0,0,1.77.53,5.86,5.86,0,0,0,1-.09l.79-.15,1.14,5.41c-.36.11-.87.24-1.53.4a12.79,12.79,0,0,1-2.41.28,9.37,9.37,0,0,1-6.35-1.71,6.81,6.81,0,0,1-2.37-5.74V844.67h-3.58v-5.45h3.58V833H639v6.27Z"/><path class="cls-10" d="M663.37,835.84a3.9,3.9,0,0,1-2.76-1.08,3.48,3.48,0,0,1,0-5.19,4.12,4.12,0,0,1,5.54,0,3.48,3.48,0,0,1,0,5.19A3.93,3.93,0,0,1,663.37,835.84Zm-3.64,29.56V839.22H667V865.4Z"/><path class="cls-10" d="M686.71,839.22v5.45h-4.93v12.69a2.45,2.45,0,0,0,.68,2,2.79,2.79,0,0,0,1.78.53,5.86,5.86,0,0,0,1-.09l.78-.15,1.14,5.41c-.36.11-.87.24-1.53.4a12.78,12.78,0,0,1-2.4.28,9.34,9.34,0,0,1-6.35-1.71,6.81,6.81,0,0,1-2.38-5.74V844.67h-3.58v-5.45h3.58V833h7.26v6.27Z"/><path class="cls-10" d="M703.09,865.91a14,14,0,0,1-6.94-1.64,11.15,11.15,0,0,1-4.48-4.67,17,17,0,0,1,0-14.26,11.55,11.55,0,0,1,4.42-4.76,12.89,12.89,0,0,1,6.71-1.7,13.3,13.3,0,0,1,6.25,1.46,10.78,10.78,0,0,1,4.42,4.43,15.14,15.14,0,0,1,1.64,7.4v2H697.28v0a6.4,6.4,0,0,0,1.6,4.61,5.67,5.67,0,0,0,4.33,1.69,6.23,6.23,0,0,0,3.15-.76,4.23,4.23,0,0,0,1.88-2.27l6.71.44a9.18,9.18,0,0,1-3.88,5.83A13.57,13.57,0,0,1,703.09,865.91Zm-5.81-16.24h11a5.32,5.32,0,0,0-1.5-3.85,5.11,5.11,0,0,0-3.85-1.52,5.31,5.31,0,0,0-4,1.57A5.62,5.62,0,0,0,697.28,849.67Z"/><path class="cls-10" d="M719.84,865.4V839.22h6.92v4.62h.31a7.2,7.2,0,0,1,2.74-3.64,7.85,7.85,0,0,1,4.56-1.32,7.67,7.67,0,0,1,4.58,1.34,6.38,6.38,0,0,1,2.52,3.62h.28a7,7,0,0,1,2.9-3.61,9.07,9.07,0,0,1,5-1.35,8,8,0,0,1,6,2.32,9,9,0,0,1,2.29,6.59V865.4h-7.24V849.23a4.31,4.31,0,0,0-1.16-3.28,4.11,4.11,0,0,0-2.9-1.09,3.9,3.9,0,0,0-3.09,1.26,4.79,4.79,0,0,0-1.1,3.29v16h-7V849.07a4.26,4.26,0,0,0-1.1-3.07,3.85,3.85,0,0,0-2.89-1.14,4,4,0,0,0-3,1.32,4.94,4.94,0,0,0-1.22,3.51V865.4Z"/></g></g></svg>