<svg xmlns="http://www.w3.org/2000/svg" viewBox="0 0 929.5 880.74"><defs><style>.cls-1{fill:#ffdec2;}.cls-10,.cls-2{fill:#fb3371;}.cls-3{fill:#f98ff9;}.cls-4{fill:red;}.cls-5{fill:#fff;}.cls-6{fill:lime;}.cls-7{fill:#ff0;}.cls-8,.cls-9{fill:none;stroke:#fb3371;stroke-width:15px;}.cls-8{stroke-linecap:round;stroke-linejoin:round;}.cls-9{stroke-miterlimit:10;}.cls-10{font-size:48px;font-family:Inter_FXH-Bold, Inter_FXH;font-weight:700;}.cls-11{letter-spacing:0em;}.cls-11,.cls-13{fill:#000;}.cls-12,.cls-15{fill:#666;}.cls-12,.cls-13{letter-spacing:0em;}.cls-14{letter-spacing:-0.02em;}.cls-16{letter-spacing:-0.01em;}.cls-17{letter-spacing:-0.02em;}.cls-18{letter-spacing:-0.02em;}.cls-19{letter-spacing:-0.02em;}.cls-20{letter-spacing:-0.01em;}</style></defs><title>noCheckoutItemAsset 1</title><g id="Layer_2" data-name="Layer 2"><g id="Layer_1-2" data-name="Layer 1"><path class="cls-1" d="M535.2,501.46A247,247,0,0,1,360.56,79.84,247,247,0,1,1,709.84,429.12,245.36,245.36,0,0,1,535.2,501.46Zm0-339.65a92.68,92.68,0,1,0,92.67,92.67A92.78,92.78,0,0,0,535.2,161.81Z"/><path class="cls-2" d="M535.2,15c132.26,0,239.48,107.22,239.48,239.48S667.46,494,535.2,494,295.72,386.74,295.72,254.48,402.94,15,535.2,15m0,339.66A100.18,100.18,0,1,0,435,254.48,100.18,100.18,0,0,0,535.2,354.66M535.2,0a254.55,254.55,0,0,0-99.06,489A254.54,254.54,0,0,0,634.25,20a252.94,252.94,0,0,0-99-20Zm0,339.66a85.18,85.18,0,1,1,85.17-85.18,85.27,85.27,0,0,1-85.17,85.18Z"/><path class="cls-3" d="M753.56,189.56a118.09,118.09,0,0,0-19.12-40.75L697,97.64a113.7,113.7,0,0,0-47.8-37.84L587.78,34.12a110.08,110.08,0,0,0-63.87-6.47l-55.37,11a111.85,111.85,0,0,0-54.13,27.61l-54.74,50.47a117.13,117.13,0,0,0-33.94,57.13l-17.88,70a58,58,0,0,0-1.8,13.26,211.19,211.19,0,0,0,25.71,106.18c28.72,52.24,71.46,76.3,87.26,84.92,5.17,2.82,115.2,60.48,221.48,3.52,0,0,65.81-35.28,107.21-122.48,10.14-21.35,15.58-46.32,16-48.52,4.37-20.53,4.62-40.48.79-47.65ZM621.32,319.82c-25.31,32.61-75.65,48.56-119,36.78-8.69-2.36-41.78-11.36-61.44-44.22-15.72-26.26-13.76-52.58-12.66-61.72q3.45-18.12,6.91-36.23A64.13,64.13,0,0,1,461.7,173.5l12.16-8.35a85.89,85.89,0,0,1,42.21-14.91l24.65-1.85a88.28,88.28,0,0,1,54.21,13.75L605,168.61a93,93,0,0,1,40.66,59.67q1.13,5.43,2.24,10.87C649.32,248.21,644.23,290.31,621.32,319.82Z"/><rect class="cls-4" x="347.73" y="272.49" width="5.98" height="51.42" transform="translate(-20.36 570.65) rotate(-76.66)"/><rect class="cls-5" x="385.24" y="166.76" width="7.86" height="37.22" transform="translate(-37.66 245.6) rotate(-33.5)"/><rect class="cls-6" x="381.27" y="246.56" width="43.42" height="9.17" transform="translate(-1.75 499.47) rotate(-63.46)"/><rect class="cls-7" x="349.47" y="206.16" width="9.78" height="46.29" transform="translate(79.79 549.87) rotate(-82.33)"/><rect class="cls-4" x="721.06" y="224.73" width="6.14" height="52.84" transform="translate(-28.07 398.25) rotate(-30.19)"/><rect class="cls-5" x="655.46" y="339.55" width="8.84" height="41.83" transform="translate(-89.34 424.11) rotate(-33.5)"/><rect class="cls-6" x="651.76" y="280.13" width="44.61" height="9.42" transform="translate(118.08 760.64) rotate(-63.46)"/><rect class="cls-7" x="689.91" y="314.2" width="43.83" height="9.26" transform="translate(-57.5 190.46) rotate(-14.65)"/><rect class="cls-4" x="451.63" y="377.36" width="51.42" height="5.98" transform="translate(-84.12 141) rotate(-15.46)"/><rect class="cls-5" x="369.21" y="343.86" width="37.22" height="7.86" transform="translate(-29.79 36.4) rotate(-5.18)"/><rect class="cls-6" x="459.68" y="405.23" width="9.17" height="43.42" transform="translate(-161.12 345.01) rotate(-35.14)"/><rect class="cls-7" x="386.83" y="394.4" width="46.29" height="9.78" transform="matrix(0.59, -0.81, 0.81, 0.59, -154.03, 496.28)"/><rect class="cls-4" x="578.24" y="81.08" width="52.84" height="6.14" transform="translate(-2.42 19.74) rotate(-1.87)"/><rect class="cls-5" x="649.48" y="188.16" width="41.83" height="8.84" transform="translate(-14.64 61.25) rotate(-5.18)"/><rect class="cls-6" x="605.84" y="121.91" width="9.42" height="44.61" transform="translate(28.26 377.68) rotate(-35.14)"/><rect class="cls-7" x="636.48" y="122.47" width="43.83" height="9.26" transform="translate(379.28 736.8) rotate(-76.33)"/><rect class="cls-4" x="634.39" y="376.5" width="5.98" height="51.42" transform="translate(189.21 1008.16) rotate(-85.77)"/><rect class="cls-5" x="502.15" y="423" width="37.22" height="7.86" transform="translate(-89.83 710.92) rotate(-64.29)"/><rect class="cls-6" x="548.5" y="376.82" width="43.42" height="9.17" transform="translate(-26.71 43.32) rotate(-4.25)"/><rect class="cls-7" x="571.44" y="411.21" width="9.78" height="46.29" transform="translate(-124.25 261.12) rotate(-23.11)"/><rect class="cls-4" x="426.88" y="145.08" width="52.84" height="6.14" transform="translate(103.85 472.67) rotate(-60.98)"/><rect class="cls-5" x="511.71" y="100.33" width="41.83" height="8.84" transform="translate(207.18 539.2) rotate(-64.29)"/><rect class="cls-6" x="392.7" y="112.2" width="44.61" height="9.42" transform="translate(-7.53 31.09) rotate(-4.25)"/><rect class="cls-7" x="465.63" y="59.52" width="9.26" height="43.83" transform="translate(82.29 359.38) rotate(-45.44)"/><line class="cls-8" x1="236.8" y1="284.72" x2="171.2" y2="284.68"/><polyline class="cls-8" points="7.5 222.82 140.15 222.82 305.62 552.54 755.28 552.54 910.24 284.72 827.67 284.72"/><circle class="cls-9" cx="353.98" cy="640.35" r="43.94"/><circle class="cls-9" cx="718.25" cy="640.35" r="43.94"/><text class="cls-10" transform="translate(204 807.8)">Buy per piece<tspan class="cls-11" x="319.6" y="0"> </tspan><tspan class="cls-12" x="330.73" y="0">or</tspan><tspan class="cls-13" x="379.8" y="0"> </tspan><tspan x="390.93" y="0">buy per do</tspan><tspan class="cls-14" x="640.27" y="0">z</tspan><tspan x="666.96" y="0">en</tspan><tspan class="cls-15"><tspan class="cls-16" x="0" y="57.6">t</tspan><tspan x="18.38" y="57.6">o h</tspan><tspan class="cls-17" x="88.93" y="57.6">a</tspan><tspan class="cls-18" x="115.82" y="57.6">v</tspan><tspan x="143.08" y="57.6">e a chec</tspan><tspan class="cls-19" x="336.92" y="57.6">k</tspan><tspan x="363.75" y="57.6">out i</tspan><tspan class="cls-20" x="465.88" y="57.6">t</tspan><tspan x="484.26" y="57.6">em</tspan></tspan></text></g></g></svg>