<svg xmlns="http://www.w3.org/2000/svg" viewBox="0 0 973.39 566.13"><defs><style>.cls-1{fill:#ffddb0;}.cls-1,.cls-10,.cls-2,.cls-7,.cls-8,.cls-9{stroke:#fb3371;stroke-miterlimit:10;}.cls-1,.cls-10,.cls-2,.cls-7,.cls-9{stroke-width:10px;}.cls-2{fill:#8e5817;}.cls-3{fill:red;}.cls-4{fill:#fff;}.cls-5{fill:#ff0;}.cls-6{fill:lime;}.cls-7{fill:#f95353;}.cls-10,.cls-8{fill:none;stroke-linecap:round;}.cls-8{stroke-width:8px;}.cls-9{fill:#f98ff9;}.cls-11{font-size:48px;font-family:MyriadPro-Bold, Myriad Pro;font-weight:700;}.cls-11,.cls-17,.cls-18{fill:#d4145a;}.cls-12{letter-spacing:-0.01em;}.cls-13{letter-spacing:-0.01em;}.cls-14{letter-spacing:0em;}.cls-15{fill:#666;}.cls-16{letter-spacing:-0.01em;}.cls-18{letter-spacing:-0.01em;}.cls-19{letter-spacing:0em;}</style></defs><title>noPurchasesAsset 6</title><g id="Layer_2" data-name="Layer 2"><g id="Layer_1-2" data-name="Layer 1"><path class="cls-1" d="M943.28,96.09a80.57,80.57,0,0,1-7.15,34.22,92.26,92.26,0,0,1-24.28,32.05c-19.45,16.67-46.29,27-76,27H520.67c-45.69,0-84.73-24.51-100.24-59.05a80.49,80.49,0,0,1-7.16-33.13c0-25.45,12-48.5,31.46-65.18S491,5,520.67,5H834.5C893.55,5,942.59,45.41,943.28,96.09Z"/><path class="cls-2" d="M943.28,96.09a80.57,80.57,0,0,1-7.15,34.22h0c-16.31-12.24-38.94-16.15-59.5-10.29l-18.4,5.24a70.6,70.6,0,0,1-35.68.75l-47.88-11.45a70.81,70.81,0,0,0-33.38.13l-45.38,11.25a70.79,70.79,0,0,1-35.15-.31L624,115.79a70.63,70.63,0,0,0-38.84.71l-23.46,7.23a70.58,70.58,0,0,1-42.54-.39l-16.93-5.57a70.67,70.67,0,0,0-43.83,0l-37.92,12.52a80.49,80.49,0,0,1-7.16-33.13c0-25.45,12-48.5,31.46-65.18S491,5,520.67,5H834.5C893.55,5,942.59,45.41,943.28,96.09Z"/><polygon class="cls-3" points="481.43 43.43 467.23 51.89 469.06 54.16 483.26 45.7 481.43 43.43"/><polygon class="cls-4" points="515.49 35.73 504.17 24.51 501.74 26.32 513.05 37.54 515.49 35.73"/><polygon class="cls-3" points="563.41 34.23 576.04 24.09 573.84 22.08 561.21 32.21 563.41 34.23"/><polygon class="cls-5" points="598.38 52.35 584.87 43.09 582.87 45.24 596.38 54.5 598.38 52.35"/><polygon class="cls-5" points="651.37 41.71 644.34 28.15 641.4 29.27 648.43 42.83 651.37 41.71"/><polygon class="cls-5" points="481.43 90.27 467.23 98.74 469.06 101 483.26 92.54 481.43 90.27"/><polygon class="cls-6" points="529.23 72.36 517.92 61.15 515.49 62.95 526.8 74.17 529.23 72.36"/><polygon class="cls-4" points="563.41 81.07 576.04 70.94 573.84 68.92 561.21 79.05 563.41 81.07"/><polygon class="cls-3" points="531 92.91 544.09 102.61 546.19 100.52 533.11 90.82 531 92.91"/><polygon class="cls-3" points="618.08 89.09 606.77 77.87 604.34 79.67 615.65 90.89 618.08 89.09"/><polygon class="cls-5" points="697.31 77.57 690.28 64.02 687.34 65.14 694.38 78.69 697.31 77.57"/><polygon class="cls-6" points="646.38 85.81 659.46 95.51 661.57 93.42 648.49 83.72 646.38 85.81"/><polygon class="cls-4" points="711.51 91.81 697.31 100.27 699.15 102.54 713.35 94.08 711.51 91.81"/><polygon class="cls-5" points="741.13 67.56 754.21 77.26 756.32 75.17 743.23 65.47 741.13 67.56"/><polygon class="cls-6" points="804.52 99.06 791.01 89.8 789 91.96 802.51 101.22 804.52 99.06"/><polygon class="cls-4" points="840.26 92.29 828.95 81.07 826.51 82.88 837.83 94.09 840.26 92.29"/><polygon class="cls-5" points="910.38 81.21 903.35 67.66 900.41 68.78 907.44 82.33 910.38 81.21"/><polygon class="cls-3" points="866.92 71.19 880 80.89 882.11 78.8 869.02 69.1 866.92 71.19"/><polygon class="cls-3" points="701.54 30.96 687.34 39.42 689.18 41.69 703.38 33.23 701.54 30.96"/><polygon class="cls-6" points="743.62 34.52 732.3 23.3 729.87 25.11 741.19 36.32 743.62 34.52"/><polygon class="cls-6" points="791.54 33.01 804.17 22.88 801.98 20.86 789.35 31 791.54 33.01"/><polygon class="cls-4" points="777.79 54.26 790.87 63.96 792.97 61.87 779.89 52.17 777.79 54.26"/><polygon class="cls-5" points="826.51 51.13 813.01 41.87 811 44.03 824.51 53.29 826.51 51.13"/><polygon class="cls-3" points="859 34.52 847.68 23.3 845.25 25.11 856.57 36.32 859 34.52"/><path class="cls-1" d="M943.28,280.44a80.62,80.62,0,0,1-7.15,34.23,92.32,92.32,0,0,1-24.28,32c-19.45,16.68-46.29,27-76,27H520.67c-45.69,0-84.73-24.5-100.24-59a80.49,80.49,0,0,1-7.16-33.13c0-25.46,12-48.51,31.46-65.18s46.28-27,75.94-27H834.5C893.55,189.36,942.59,229.76,943.28,280.44Z"/><path class="cls-7" d="M943.28,280.44a80.62,80.62,0,0,1-7.15,34.23h0c-16.31-12.24-38.94-16.16-59.5-10.3l-18.4,5.25a70.83,70.83,0,0,1-35.68.75l-47.88-11.46a70.81,70.81,0,0,0-33.38.14L695.91,310.3a70.91,70.91,0,0,1-35.15-.31L624,300.14a70.72,70.72,0,0,0-38.84.72l-23.46,7.23a70.66,70.66,0,0,1-42.54-.39l-16.93-5.57a70.53,70.53,0,0,0-43.83,0l-37.92,12.52a80.49,80.49,0,0,1-7.16-33.13c0-25.46,12-48.51,31.46-65.18s46.28-27,75.94-27H834.5C893.55,189.36,942.59,229.76,943.28,280.44Z"/><polygon class="cls-3" points="481.43 226.06 467.23 234.52 469.06 236.79 483.26 228.33 481.43 226.06"/><polygon class="cls-4" points="515.49 218.36 504.17 207.14 501.74 208.95 513.05 220.17 515.49 218.36"/><polygon class="cls-3" points="563.41 216.86 576.04 206.72 573.84 204.71 561.21 214.84 563.41 216.86"/><polygon class="cls-5" points="598.38 234.97 584.87 225.72 582.87 227.88 596.38 237.13 598.38 234.97"/><polygon class="cls-5" points="651.37 224.34 644.34 210.78 641.4 211.91 648.43 225.46 651.37 224.34"/><polygon class="cls-5" points="481.43 272.9 467.23 281.37 469.06 283.63 483.26 275.17 481.43 272.9"/><polygon class="cls-6" points="529.23 254.99 517.92 243.77 515.49 245.58 526.8 256.8 529.23 254.99"/><polygon class="cls-4" points="563.41 263.7 576.04 253.57 573.84 251.55 561.21 261.68 563.41 263.7"/><polygon class="cls-3" points="531 275.54 544.09 285.24 546.19 283.15 533.11 273.45 531 275.54"/><polygon class="cls-3" points="618.08 271.72 606.77 260.5 604.34 262.3 615.65 273.52 618.08 271.72"/><polygon class="cls-5" points="697.31 260.2 690.28 246.65 687.34 247.77 694.38 261.32 697.31 260.2"/><polygon class="cls-6" points="646.38 268.44 659.46 278.14 661.57 276.05 648.49 266.35 646.38 268.44"/><polygon class="cls-4" points="711.51 274.44 697.31 282.9 699.15 285.17 713.35 276.71 711.51 274.44"/><polygon class="cls-5" points="741.13 250.19 754.21 259.89 756.32 257.8 743.23 248.1 741.13 250.19"/><polygon class="cls-6" points="804.52 281.69 791.01 272.43 789 274.59 802.51 283.85 804.52 281.69"/><polygon class="cls-4" points="840.26 274.92 828.95 263.7 826.51 265.51 837.83 276.73 840.26 274.92"/><polygon class="cls-5" points="910.38 263.84 903.35 250.29 900.41 251.41 907.44 264.96 910.38 263.84"/><polygon class="cls-3" points="866.92 253.82 880 263.52 882.11 261.43 869.02 251.73 866.92 253.82"/><polygon class="cls-3" points="701.54 213.59 687.34 222.05 689.18 224.32 703.38 215.86 701.54 213.59"/><polygon class="cls-6" points="743.62 217.15 732.3 205.93 729.87 207.73 741.19 218.95 743.62 217.15"/><polygon class="cls-6" points="791.54 215.64 804.17 205.51 801.98 203.49 789.35 213.63 791.54 215.64"/><polygon class="cls-4" points="777.79 236.89 790.87 246.59 792.97 244.5 779.89 234.8 777.79 236.89"/><polygon class="cls-5" points="826.51 233.76 813.01 224.5 811 226.66 824.51 235.92 826.51 233.76"/><polygon class="cls-3" points="859 217.15 847.68 205.93 845.25 207.73 856.57 218.95 859 217.15"/><line class="cls-8" x1="576.04" y1="152.19" x2="781.05" y2="152.19"/><line class="cls-8" x1="551.79" y1="152.19" x2="486.6" y2="152.19"/><line class="cls-8" x1="486.6" y1="336.54" x2="725.55" y2="336.54"/><path class="cls-1" d="M943.28,464.8A80.65,80.65,0,0,1,936.13,499a92.32,92.32,0,0,1-24.28,32c-19.45,16.68-46.29,27-76,27H520.67c-45.69,0-84.73-24.51-100.24-59a80.56,80.56,0,0,1-7.16-33.13c0-25.46,12-48.51,31.46-65.19s46.28-27,75.94-27H834.5C893.55,373.71,942.59,414.12,943.28,464.8Z"/><path class="cls-9" d="M943.28,464.8A80.65,80.65,0,0,1,936.13,499h0c-16.31-12.25-38.94-16.16-59.5-10.3L858.23,494a70.72,70.72,0,0,1-35.68.74l-47.88-11.45a70.81,70.81,0,0,0-33.38.13l-45.38,11.25a70.68,70.68,0,0,1-35.15-.31L624,484.5a70.72,70.72,0,0,0-38.84.71l-23.46,7.23a70.58,70.58,0,0,1-42.54-.39l-16.93-5.57a70.67,70.67,0,0,0-43.83,0L420.43,499a80.56,80.56,0,0,1-7.16-33.13c0-25.46,12-48.51,31.46-65.19s46.28-27,75.94-27H834.5C893.55,373.71,942.59,414.12,943.28,464.8Z"/><polygon class="cls-3" points="481.43 413.97 467.23 422.43 469.06 424.7 483.26 416.24 481.43 413.97"/><polygon class="cls-4" points="515.49 406.27 504.17 395.05 501.74 396.86 513.05 408.07 515.49 406.27"/><polygon class="cls-3" points="563.41 404.76 576.04 394.63 573.84 392.62 561.21 402.75 563.41 404.76"/><polygon class="cls-5" points="598.38 422.88 584.87 413.63 582.87 415.78 596.38 425.04 598.38 422.88"/><polygon class="cls-5" points="651.37 412.25 644.34 398.69 641.4 399.81 648.43 413.37 651.37 412.25"/><polygon class="cls-5" points="481.43 460.81 467.23 469.27 469.06 471.54 483.26 463.08 481.43 460.81"/><polygon class="cls-6" points="529.23 442.9 517.92 431.68 515.49 433.49 526.8 444.71 529.23 442.9"/><polygon class="cls-4" points="563.41 451.61 576.04 441.48 573.84 439.46 561.21 449.59 563.41 451.61"/><polygon class="cls-3" points="531 463.45 544.09 473.14 546.19 471.06 533.11 461.36 531 463.45"/><polygon class="cls-3" points="618.08 459.62 606.77 448.4 604.34 450.21 615.65 461.43 618.08 459.62"/><polygon class="cls-5" points="697.31 448.11 690.28 434.55 687.34 435.68 694.38 449.23 697.31 448.11"/><polygon class="cls-6" points="646.38 456.35 659.46 466.05 661.57 463.96 648.49 454.26 646.38 456.35"/><polygon class="cls-4" points="711.51 462.35 697.31 470.81 699.15 473.08 713.35 464.62 711.51 462.35"/><polygon class="cls-5" points="741.13 438.1 754.21 447.8 756.32 445.71 743.23 436.01 741.13 438.1"/><polygon class="cls-6" points="804.52 469.6 791.01 460.34 789 462.49 802.51 471.75 804.52 469.6"/><polygon class="cls-4" points="840.26 462.82 828.95 451.61 826.51 453.41 837.83 464.63 840.26 462.82"/><polygon class="cls-5" points="910.38 451.75 903.35 438.19 900.41 439.32 907.44 452.87 910.38 451.75"/><polygon class="cls-3" points="866.92 441.73 880 451.43 882.11 449.34 869.02 439.64 866.92 441.73"/><polygon class="cls-3" points="701.54 401.5 687.34 409.96 689.18 412.22 703.38 403.76 701.54 401.5"/><polygon class="cls-6" points="743.62 405.05 732.3 393.83 729.87 395.64 741.19 406.86 743.62 405.05"/><polygon class="cls-6" points="791.54 403.55 804.17 393.42 801.98 391.4 789.35 401.53 791.54 403.55"/><polygon class="cls-4" points="777.79 424.8 790.87 434.5 792.97 432.41 779.89 422.71 777.79 424.8"/><polygon class="cls-5" points="826.51 421.67 813.01 412.41 811 414.57 824.51 423.83 826.51 421.67"/><polygon class="cls-3" points="859 405.05 847.68 393.83 845.25 395.64 856.57 406.86 859 405.05"/><line class="cls-8" x1="486.6" y1="520.9" x2="703.38" y2="520.9"/><line class="cls-8" x1="728.91" y1="520.9" x2="811" y2="520.9"/><line class="cls-10" x1="968.39" y1="561.13" x2="5" y2="561.13"/><text class="cls-11" transform="translate(58.22 403.55)">Pla<tspan class="cls-12" x="66.43" y="0">c</tspan><tspan x="87.55" y="0">e o</tspan><tspan class="cls-13" x="150.29" y="0">r</tspan><tspan class="cls-14" x="168.14" y="0">der</tspan><tspan class="cls-4" x="240.33" y="0"> </tspan><tspan class="cls-15"><tspan x="0" y="57.6">f</tspan><tspan class="cls-16" x="16.37" y="57.6">r</tspan><tspan x="34.22" y="57.6">om</tspan><tspan class="cls-4" x="103.2" y="57.6"> </tspan><tspan class="cls-17" x="112.89" y="57.6">chec</tspan><tspan class="cls-18" x="209.66" y="57.6">k</tspan><tspan class="cls-17" x="235" y="57.6">out</tspan><tspan class="cls-4" x="308.3" y="57.6"> </tspan><tspan class="cls-19" x="0" y="115.2">t</tspan><tspan x="17.38" y="115.2">o pu</tspan><tspan class="cls-13" x="111.46" y="115.2">r</tspan><tspan x="129.31" y="115.2">chase</tspan></tspan></text></g></g></svg>