<svg xmlns="http://www.w3.org/2000/svg" viewBox="0 0 973.39 566.13"><defs><style>.cls-1{fill:#ffddb0;}.cls-1,.cls-10,.cls-2,.cls-7,.cls-8,.cls-9{stroke:#fb3371;stroke-miterlimit:10;}.cls-1,.cls-10,.cls-2,.cls-7,.cls-9{stroke-width:10px;}.cls-2{fill:#8e5817;}.cls-3{fill:red;}.cls-4{fill:#fff;}.cls-5{fill:#ff0;}.cls-6{fill:lime;}.cls-7{fill:#f95353;}.cls-10,.cls-8{fill:none;stroke-linecap:round;}.cls-8{stroke-width:8px;}.cls-9{fill:#f98ff9;}.cls-11{fill:#d4145a;}.cls-12{fill:#666;}</style></defs><title>noPurchasesAssetAsset 7</title><g id="Layer_2" data-name="Layer 2"><g id="Layer_1-2" data-name="Layer 1"><path class="cls-1" d="M943.28,96.09a80.57,80.57,0,0,1-7.15,34.22,92.26,92.26,0,0,1-24.28,32.05c-19.45,16.67-46.29,27-76,27H520.67c-45.69,0-84.73-24.51-100.24-59.05a80.49,80.49,0,0,1-7.16-33.13c0-25.45,12-48.5,31.46-65.18S491,5,520.67,5H834.5C893.55,5,942.59,45.41,943.28,96.09Z"/><path class="cls-2" d="M943.28,96.09a80.57,80.57,0,0,1-7.15,34.22h0c-16.31-12.24-38.94-16.15-59.5-10.29l-18.4,5.24a70.6,70.6,0,0,1-35.68.75l-47.88-11.45a70.81,70.81,0,0,0-33.38.13l-45.38,11.25a70.79,70.79,0,0,1-35.15-.31L624,115.79a70.63,70.63,0,0,0-38.84.71l-23.46,7.23a70.58,70.58,0,0,1-42.54-.39l-16.93-5.57a70.67,70.67,0,0,0-43.83,0l-37.92,12.52a80.49,80.49,0,0,1-7.16-33.13c0-25.45,12-48.5,31.46-65.18S491,5,520.67,5H834.5C893.55,5,942.59,45.41,943.28,96.09Z"/><polygon class="cls-3" points="481.43 43.43 467.23 51.89 469.06 54.16 483.26 45.7 481.43 43.43"/><polygon class="cls-4" points="515.49 35.73 504.17 24.51 501.74 26.32 513.05 37.54 515.49 35.73"/><polygon class="cls-3" points="563.41 34.23 576.04 24.09 573.84 22.08 561.21 32.21 563.41 34.23"/><polygon class="cls-5" points="598.38 52.35 584.87 43.09 582.87 45.24 596.38 54.5 598.38 52.35"/><polygon class="cls-5" points="651.37 41.71 644.34 28.15 641.4 29.27 648.43 42.83 651.37 41.71"/><polygon class="cls-5" points="481.43 90.27 467.23 98.74 469.06 101 483.26 92.54 481.43 90.27"/><polygon class="cls-6" points="529.23 72.36 517.92 61.15 515.49 62.95 526.8 74.17 529.23 72.36"/><polygon class="cls-4" points="563.41 81.07 576.04 70.94 573.84 68.92 561.21 79.05 563.41 81.07"/><polygon class="cls-3" points="531 92.91 544.09 102.61 546.19 100.52 533.11 90.82 531 92.91"/><polygon class="cls-3" points="618.08 89.09 606.77 77.87 604.34 79.67 615.65 90.89 618.08 89.09"/><polygon class="cls-5" points="697.31 77.57 690.28 64.02 687.34 65.14 694.38 78.69 697.31 77.57"/><polygon class="cls-6" points="646.38 85.81 659.46 95.51 661.57 93.42 648.49 83.72 646.38 85.81"/><polygon class="cls-4" points="711.51 91.81 697.31 100.27 699.15 102.54 713.35 94.08 711.51 91.81"/><polygon class="cls-5" points="741.13 67.56 754.21 77.26 756.32 75.17 743.23 65.47 741.13 67.56"/><polygon class="cls-6" points="804.52 99.06 791.01 89.8 789 91.96 802.51 101.22 804.52 99.06"/><polygon class="cls-4" points="840.26 92.29 828.95 81.07 826.51 82.88 837.83 94.09 840.26 92.29"/><polygon class="cls-5" points="910.38 81.21 903.35 67.66 900.41 68.78 907.44 82.33 910.38 81.21"/><polygon class="cls-3" points="866.92 71.19 880 80.89 882.11 78.8 869.02 69.1 866.92 71.19"/><polygon class="cls-3" points="701.54 30.96 687.34 39.42 689.18 41.69 703.38 33.23 701.54 30.96"/><polygon class="cls-6" points="743.62 34.52 732.3 23.3 729.87 25.11 741.19 36.32 743.62 34.52"/><polygon class="cls-6" points="791.54 33.01 804.17 22.88 801.98 20.86 789.35 31 791.54 33.01"/><polygon class="cls-4" points="777.79 54.26 790.87 63.96 792.97 61.87 779.89 52.17 777.79 54.26"/><polygon class="cls-5" points="826.51 51.13 813.01 41.87 811 44.03 824.51 53.29 826.51 51.13"/><polygon class="cls-3" points="859 34.52 847.68 23.3 845.25 25.11 856.57 36.32 859 34.52"/><path class="cls-1" d="M943.28,280.44a80.62,80.62,0,0,1-7.15,34.23,92.32,92.32,0,0,1-24.28,32c-19.45,16.68-46.29,27-76,27H520.67c-45.69,0-84.73-24.5-100.24-59a80.49,80.49,0,0,1-7.16-33.13c0-25.46,12-48.51,31.46-65.18s46.28-27,75.94-27H834.5C893.55,189.36,942.59,229.76,943.28,280.44Z"/><path class="cls-7" d="M943.28,280.44a80.62,80.62,0,0,1-7.15,34.23h0c-16.31-12.24-38.94-16.16-59.5-10.3l-18.4,5.25a70.83,70.83,0,0,1-35.68.75l-47.88-11.46a70.81,70.81,0,0,0-33.38.14L695.91,310.3a70.91,70.91,0,0,1-35.15-.31L624,300.14a70.72,70.72,0,0,0-38.84.72l-23.46,7.23a70.66,70.66,0,0,1-42.54-.39l-16.93-5.57a70.53,70.53,0,0,0-43.83,0l-37.92,12.52a80.49,80.49,0,0,1-7.16-33.13c0-25.46,12-48.51,31.46-65.18s46.28-27,75.94-27H834.5C893.55,189.36,942.59,229.76,943.28,280.44Z"/><polygon class="cls-3" points="481.43 226.06 467.23 234.52 469.06 236.79 483.26 228.33 481.43 226.06"/><polygon class="cls-4" points="515.49 218.36 504.17 207.14 501.74 208.95 513.05 220.17 515.49 218.36"/><polygon class="cls-3" points="563.41 216.86 576.04 206.72 573.84 204.71 561.21 214.84 563.41 216.86"/><polygon class="cls-5" points="598.38 234.97 584.87 225.72 582.87 227.88 596.38 237.13 598.38 234.97"/><polygon class="cls-5" points="651.37 224.34 644.34 210.78 641.4 211.91 648.43 225.46 651.37 224.34"/><polygon class="cls-5" points="481.43 272.9 467.23 281.37 469.06 283.63 483.26 275.17 481.43 272.9"/><polygon class="cls-6" points="529.23 254.99 517.92 243.77 515.49 245.58 526.8 256.8 529.23 254.99"/><polygon class="cls-4" points="563.41 263.7 576.04 253.57 573.84 251.55 561.21 261.68 563.41 263.7"/><polygon class="cls-3" points="531 275.54 544.09 285.24 546.19 283.15 533.11 273.45 531 275.54"/><polygon class="cls-3" points="618.08 271.72 606.77 260.5 604.34 262.3 615.65 273.52 618.08 271.72"/><polygon class="cls-5" points="697.31 260.2 690.28 246.65 687.34 247.77 694.38 261.32 697.31 260.2"/><polygon class="cls-6" points="646.38 268.44 659.46 278.14 661.57 276.05 648.49 266.35 646.38 268.44"/><polygon class="cls-4" points="711.51 274.44 697.31 282.9 699.15 285.17 713.35 276.71 711.51 274.44"/><polygon class="cls-5" points="741.13 250.19 754.21 259.89 756.32 257.8 743.23 248.1 741.13 250.19"/><polygon class="cls-6" points="804.52 281.69 791.01 272.43 789 274.59 802.51 283.85 804.52 281.69"/><polygon class="cls-4" points="840.26 274.92 828.95 263.7 826.51 265.51 837.83 276.73 840.26 274.92"/><polygon class="cls-5" points="910.38 263.84 903.35 250.29 900.41 251.41 907.44 264.96 910.38 263.84"/><polygon class="cls-3" points="866.92 253.82 880 263.52 882.11 261.43 869.02 251.73 866.92 253.82"/><polygon class="cls-3" points="701.54 213.59 687.34 222.05 689.18 224.32 703.38 215.86 701.54 213.59"/><polygon class="cls-6" points="743.62 217.15 732.3 205.93 729.87 207.73 741.19 218.95 743.62 217.15"/><polygon class="cls-6" points="791.54 215.64 804.17 205.51 801.98 203.49 789.35 213.63 791.54 215.64"/><polygon class="cls-4" points="777.79 236.89 790.87 246.59 792.97 244.5 779.89 234.8 777.79 236.89"/><polygon class="cls-5" points="826.51 233.76 813.01 224.5 811 226.66 824.51 235.92 826.51 233.76"/><polygon class="cls-3" points="859 217.15 847.68 205.93 845.25 207.73 856.57 218.95 859 217.15"/><line class="cls-8" x1="576.04" y1="152.19" x2="781.05" y2="152.19"/><line class="cls-8" x1="551.79" y1="152.19" x2="486.6" y2="152.19"/><line class="cls-8" x1="486.6" y1="336.54" x2="725.55" y2="336.54"/><path class="cls-1" d="M943.28,464.8A80.65,80.65,0,0,1,936.13,499a92.32,92.32,0,0,1-24.28,32c-19.45,16.68-46.29,27-76,27H520.67c-45.69,0-84.73-24.51-100.24-59a80.56,80.56,0,0,1-7.16-33.13c0-25.46,12-48.51,31.46-65.19s46.28-27,75.94-27H834.5C893.55,373.71,942.59,414.12,943.28,464.8Z"/><path class="cls-9" d="M943.28,464.8A80.65,80.65,0,0,1,936.13,499h0c-16.31-12.25-38.94-16.16-59.5-10.3L858.23,494a70.72,70.72,0,0,1-35.68.74l-47.88-11.45a70.81,70.81,0,0,0-33.38.13l-45.38,11.25a70.68,70.68,0,0,1-35.15-.31L624,484.5a70.72,70.72,0,0,0-38.84.71l-23.46,7.23a70.58,70.58,0,0,1-42.54-.39l-16.93-5.57a70.67,70.67,0,0,0-43.83,0L420.43,499a80.56,80.56,0,0,1-7.16-33.13c0-25.46,12-48.51,31.46-65.19s46.28-27,75.94-27H834.5C893.55,373.71,942.59,414.12,943.28,464.8Z"/><polygon class="cls-3" points="481.43 413.97 467.23 422.43 469.06 424.7 483.26 416.24 481.43 413.97"/><polygon class="cls-4" points="515.49 406.27 504.17 395.05 501.74 396.86 513.05 408.07 515.49 406.27"/><polygon class="cls-3" points="563.41 404.76 576.04 394.63 573.84 392.62 561.21 402.75 563.41 404.76"/><polygon class="cls-5" points="598.38 422.88 584.87 413.63 582.87 415.78 596.38 425.04 598.38 422.88"/><polygon class="cls-5" points="651.37 412.25 644.34 398.69 641.4 399.81 648.43 413.37 651.37 412.25"/><polygon class="cls-5" points="481.43 460.81 467.23 469.27 469.06 471.54 483.26 463.08 481.43 460.81"/><polygon class="cls-6" points="529.23 442.9 517.92 431.68 515.49 433.49 526.8 444.71 529.23 442.9"/><polygon class="cls-4" points="563.41 451.61 576.04 441.48 573.84 439.46 561.21 449.59 563.41 451.61"/><polygon class="cls-3" points="531 463.45 544.09 473.14 546.19 471.06 533.11 461.36 531 463.45"/><polygon class="cls-3" points="618.08 459.62 606.77 448.4 604.34 450.21 615.65 461.43 618.08 459.62"/><polygon class="cls-5" points="697.31 448.11 690.28 434.55 687.34 435.68 694.38 449.23 697.31 448.11"/><polygon class="cls-6" points="646.38 456.35 659.46 466.05 661.57 463.96 648.49 454.26 646.38 456.35"/><polygon class="cls-4" points="711.51 462.35 697.31 470.81 699.15 473.08 713.35 464.62 711.51 462.35"/><polygon class="cls-5" points="741.13 438.1 754.21 447.8 756.32 445.71 743.23 436.01 741.13 438.1"/><polygon class="cls-6" points="804.52 469.6 791.01 460.34 789 462.49 802.51 471.75 804.52 469.6"/><polygon class="cls-4" points="840.26 462.82 828.95 451.61 826.51 453.41 837.83 464.63 840.26 462.82"/><polygon class="cls-5" points="910.38 451.75 903.35 438.19 900.41 439.32 907.44 452.87 910.38 451.75"/><polygon class="cls-3" points="866.92 441.73 880 451.43 882.11 449.34 869.02 439.64 866.92 441.73"/><polygon class="cls-3" points="701.54 401.5 687.34 409.96 689.18 412.22 703.38 403.76 701.54 401.5"/><polygon class="cls-6" points="743.62 405.05 732.3 393.83 729.87 395.64 741.19 406.86 743.62 405.05"/><polygon class="cls-6" points="791.54 403.55 804.17 393.42 801.98 391.4 789.35 401.53 791.54 403.55"/><polygon class="cls-4" points="777.79 424.8 790.87 434.5 792.97 432.41 779.89 422.71 777.79 424.8"/><polygon class="cls-5" points="826.51 421.67 813.01 412.41 811 414.57 824.51 423.83 826.51 421.67"/><polygon class="cls-3" points="859 405.05 847.68 393.83 845.25 395.64 856.57 406.86 859 405.05"/><line class="cls-8" x1="486.6" y1="520.9" x2="703.38" y2="520.9"/><line class="cls-8" x1="728.91" y1="520.9" x2="811" y2="520.9"/><line class="cls-10" x1="968.39" y1="561.13" x2="5" y2="561.13"/><path class="cls-11" d="M61.39,371.63a59.14,59.14,0,0,1,9.88-.67c4.52,0,7.73.86,9.89,2.59A9.44,9.44,0,0,1,84.62,381a10.36,10.36,0,0,1-3,7.68c-2.49,2.35-6.19,3.41-10.51,3.41a17.84,17.84,0,0,1-2.5-.15v11.57H61.39Zm7.24,14.69a11.55,11.55,0,0,0,2.45.19c3.89,0,6.29-2,6.29-5.28,0-3-2.06-4.75-5.71-4.75a12.87,12.87,0,0,0-3,.28Z"/><path class="cls-11" d="M89,369.47h7.3v34.08H89Z"/><path class="cls-11" d="M115.58,403.55l-.43-2.35H115a8.45,8.45,0,0,1-6.72,2.88,7.19,7.19,0,0,1-7.58-7.2c0-6.1,5.47-9,13.77-9v-.34c0-1.24-.67-3-4.27-3a13.21,13.21,0,0,0-6.48,1.78l-1.34-4.71a19.41,19.41,0,0,1,9.12-2.06c7.82,0,10.32,4.61,10.32,10.13v8.16a35.16,35.16,0,0,0,.34,5.71Zm-.87-11.09c-3.84,0-6.81.87-6.81,3.7a2.62,2.62,0,0,0,2.88,2.78,4,4,0,0,0,3.79-2.69,5,5,0,0,0,.14-1.25Z"/><path class="cls-11" d="M145.2,403a17.74,17.74,0,0,1-6.53,1.06c-7.59,0-12.44-4.61-12.44-12,0-6.87,4.71-12.48,13.44-12.48a16.81,16.81,0,0,1,5.57.91l-1.15,5.42a10,10,0,0,0-4.08-.72c-3.84,0-6.34,2.74-6.29,6.58,0,4.32,2.88,6.58,6.43,6.58a11.3,11.3,0,0,0,4.18-.72Z"/><path class="cls-11" d="M154.31,394.14c.24,3,3.22,4.47,6.63,4.47a20.83,20.83,0,0,0,6.48-1l1,4.94a23.18,23.18,0,0,1-8.5,1.44c-8,0-12.53-4.61-12.53-11.95,0-6,3.7-12.53,11.86-12.53,7.58,0,10.47,5.9,10.47,11.71a18,18,0,0,1-.24,2.88Zm8.6-5c0-1.78-.77-4.75-4.13-4.75-3.07,0-4.32,2.78-4.51,4.75Z"/><path class="cls-11" d="M206.92,391.55c0,8.59-6.09,12.53-12.38,12.53-6.87,0-12.15-4.51-12.15-12.1s5-12.43,12.53-12.43C202.12,379.55,206.92,384.49,206.92,391.55Zm-17,.24c0,4,1.68,7.06,4.8,7.06,2.83,0,4.66-2.84,4.66-7.06,0-3.51-1.35-7.06-4.66-7.06C191.23,384.73,189.93,388.33,189.93,391.79Z"/><path class="cls-11" d="M211.43,387.8c0-3.45-.09-5.71-.19-7.72h6.29l.24,4.32H218a6.89,6.89,0,0,1,6.34-4.85,7.92,7.92,0,0,1,1.53.09v6.87a10,10,0,0,0-2-.19c-2.69,0-4.52,1.44-5,3.69a9.17,9.17,0,0,0-.14,1.63v11.91h-7.3Z"/><path class="cls-11" d="M252,369.47v27.07c0,2.64.1,5.43.19,7h-6.48l-.33-3.46h-.1a8.2,8.2,0,0,1-7.34,4c-5.57,0-10-4.75-10-12.05,0-7.92,4.9-12.48,10.52-12.48,2.88,0,5.13,1,6.19,2.64h.1V369.47ZM244.75,390a11.2,11.2,0,0,0-.1-1.29,4.38,4.38,0,0,0-4.27-3.6c-3.31,0-5,3-5,6.67,0,4,2,6.48,5,6.48a4.27,4.27,0,0,0,4.22-3.51,5.89,5.89,0,0,0,.2-1.67Z"/><path class="cls-11" d="M263.51,394.14c.24,3,3.22,4.47,6.63,4.47a20.83,20.83,0,0,0,6.48-1l1,4.94a23.18,23.18,0,0,1-8.5,1.44c-8,0-12.53-4.61-12.53-11.95,0-6,3.7-12.53,11.86-12.53,7.58,0,10.46,5.9,10.46,11.71a16.9,16.9,0,0,1-.24,2.88Zm8.6-5c0-1.78-.77-4.75-4.13-4.75-3.08,0-4.32,2.78-4.52,4.75Z"/><path class="cls-11" d="M283.24,387.8c0-3.45-.1-5.71-.19-7.72h6.29l.24,4.32h.19a6.89,6.89,0,0,1,6.33-4.85,8,8,0,0,1,1.54.09v6.87a10.16,10.16,0,0,0-2-.19c-2.69,0-4.51,1.44-5,3.69a8.32,8.32,0,0,0-.14,1.63v11.91h-7.3Z"/><path class="cls-12" d="M62,461.15v-18.1H58.89v-5.37H62v-.92c0-2.83.87-5.95,3-7.87a9.49,9.49,0,0,1,6.48-2.35,14,14,0,0,1,3.89.48L75,432.63a8,8,0,0,0-2.35-.33c-2.4,0-3.41,1.87-3.41,4.18v1.2H74v5.37H69.31v18.1Z"/><path class="cls-12" d="M77.51,445.4c0-3.45-.09-5.71-.19-7.72h6.29l.24,4.32H84a6.89,6.89,0,0,1,6.34-4.85,7.92,7.92,0,0,1,1.53.09v6.87a10,10,0,0,0-2-.19c-2.69,0-4.52,1.44-5,3.69a9.17,9.17,0,0,0-.14,1.63v11.91h-7.3Z"/><path class="cls-12" d="M118.55,449.15c0,8.59-6.09,12.53-12.38,12.53-6.87,0-12.15-4.51-12.15-12.1s5-12.43,12.53-12.43C113.75,437.15,118.55,442.09,118.55,449.15Zm-17,.24c0,4,1.68,7.06,4.8,7.06,2.83,0,4.66-2.84,4.66-7.06,0-3.51-1.35-7.06-4.66-7.06C102.86,442.33,101.56,445.93,101.56,449.39Z"/><path class="cls-12" d="M123.06,445.16c0-2.92-.09-5.42-.19-7.48H129l.33,3.16h.15a8.14,8.14,0,0,1,7.1-3.69,6.63,6.63,0,0,1,6.43,4h.1a10.46,10.46,0,0,1,3-2.83,8.48,8.48,0,0,1,4.47-1.15c4.51,0,7.92,3.17,7.92,10.17v13.83h-7.11V448.38c0-3.41-1.1-5.38-3.45-5.38a3.58,3.58,0,0,0-3.36,2.55,6.14,6.14,0,0,0-.29,1.87v13.73h-7.1V448c0-3-1.06-5-3.36-5a3.71,3.71,0,0,0-3.41,2.64,4.87,4.87,0,0,0-.29,1.83v13.68h-7.11Z"/><path class="cls-11" d="M191.66,460.57a17.74,17.74,0,0,1-6.53,1.06c-7.59,0-12.43-4.61-12.43-12,0-6.87,4.7-12.48,13.44-12.48a16.75,16.75,0,0,1,5.56.91l-1.15,5.42a10,10,0,0,0-4.08-.72c-3.84,0-6.33,2.74-6.29,6.58,0,4.32,2.88,6.58,6.44,6.58a11.28,11.28,0,0,0,4.17-.72Z"/><path class="cls-11" d="M195.69,427.07H203v13.39h.1a8.73,8.73,0,0,1,2.88-2.4,8.16,8.16,0,0,1,3.79-.91c4.66,0,8.21,3.21,8.21,10.27v13.73h-7.3V448.24c0-3.08-1-5.19-3.79-5.19a3.89,3.89,0,0,0-3.65,2.55,4.67,4.67,0,0,0-.24,1.63v13.92h-7.29Z"/><path class="cls-11" d="M229.43,451.74c.24,3,3.22,4.47,6.63,4.47a20.83,20.83,0,0,0,6.48-1l1,4.94a23.18,23.18,0,0,1-8.5,1.44c-8,0-12.53-4.61-12.53-11.95,0-6,3.7-12.53,11.86-12.53,7.58,0,10.46,5.9,10.46,11.71a16.9,16.9,0,0,1-.24,2.88Zm8.59-5c0-1.78-.76-4.75-4.12-4.75-3.08,0-4.32,2.78-4.52,4.75Z"/><path class="cls-11" d="M266.78,460.57a17.74,17.74,0,0,1-6.53,1.06c-7.59,0-12.44-4.61-12.44-12,0-6.87,4.71-12.48,13.45-12.48a16.75,16.75,0,0,1,5.56.91l-1.15,5.42a10,10,0,0,0-4.08-.72c-3.84,0-6.34,2.74-6.29,6.58,0,4.32,2.88,6.58,6.44,6.58a11.28,11.28,0,0,0,4.17-.72Z"/><path class="cls-11" d="M278.1,447.56h.1c.53-1,1.1-1.92,1.68-2.83l4.75-7.05h8.79l-8.4,9.5,9.6,14h-9L280,451.5l-1.87,2.3v7.35h-7.29V427.07h7.29Z"/><path class="cls-11" d="M319.34,449.15c0,8.59-6.1,12.53-12.39,12.53-6.86,0-12.14-4.51-12.14-12.1s5-12.43,12.52-12.43C314.53,437.15,319.34,442.09,319.34,449.15Zm-17,.24c0,4,1.68,7.06,4.8,7.06,2.83,0,4.66-2.84,4.66-7.06,0-3.51-1.35-7.06-4.66-7.06C303.64,442.33,302.34,445.93,302.34,449.39Z"/><path class="cls-11" d="M346,453.61c0,3.07.09,5.57.19,7.54h-6.34l-.34-3.31h-.14a8.37,8.37,0,0,1-7.34,3.84c-4.76,0-8.26-3-8.26-10.23V437.68h7.34V450.3c0,3.41,1.11,5.47,3.65,5.47a3.93,3.93,0,0,0,3.65-2.54,4.13,4.13,0,0,0,.24-1.59v-14H346Z"/><path class="cls-11" d="M360,431v6.72h5.23v5.37H360v8.5c0,2.83.67,4.13,2.88,4.13a12.56,12.56,0,0,0,2.16-.19l.05,5.52a14.44,14.44,0,0,1-4.75.62,7.61,7.61,0,0,1-5.48-2c-1.34-1.39-2-3.65-2-7v-9.6h-3.12v-5.37h3.12v-5.09Z"/><path class="cls-12" d="M69.31,488.56v6.72h5.23v5.37H69.31v8.5c0,2.83.67,4.13,2.88,4.13a12.56,12.56,0,0,0,2.16-.19l0,5.52a14.4,14.4,0,0,1-4.75.62,7.59,7.59,0,0,1-5.47-2c-1.34-1.39-2-3.64-2-7v-9.6H59v-5.37h3.12v-5.09Z"/><path class="cls-12" d="M101.71,506.75c0,8.59-6.1,12.53-12.39,12.53-6.86,0-12.14-4.51-12.14-12.1s5-12.43,12.53-12.43C96.91,494.75,101.71,499.69,101.71,506.75Zm-17,.24c0,4,1.68,7.06,4.8,7.06,2.84,0,4.66-2.84,4.66-7.06,0-3.51-1.34-7.06-4.66-7.06C86,499.93,84.71,503.53,84.71,507Z"/><path class="cls-12" d="M115.91,503.15c0-3.07-.09-5.71-.19-7.87h6.34l.33,3.26h.1a9,9,0,0,1,7.82-3.79c5.14,0,9.75,4.46,9.75,11.95,0,8.55-5.43,12.58-10.66,12.58a7.26,7.26,0,0,1-6.09-2.69h-.1v11.66h-7.3Zm7.3,5.52a7.78,7.78,0,0,0,.14,1.54,4.42,4.42,0,0,0,4.28,3.45c3.16,0,5-2.64,5-6.62,0-3.75-1.68-6.58-4.95-6.58a4.59,4.59,0,0,0-4.37,3.7,5.93,5.93,0,0,0-.14,1.29Z"/><path class="cls-12" d="M166.75,511.21c0,3.08.09,5.57.19,7.54H160.6l-.33-3.31h-.15a8.37,8.37,0,0,1-7.34,3.84c-4.76,0-8.26-3-8.26-10.23V495.28h7.35V507.9c0,3.41,1.1,5.47,3.64,5.47a3.93,3.93,0,0,0,3.65-2.54,4.1,4.1,0,0,0,.24-1.58v-14h7.35Z"/><path class="cls-12" d="M172.6,503c0-3.45-.1-5.71-.19-7.72h6.29l.24,4.32h.19a6.89,6.89,0,0,1,6.34-4.85,8,8,0,0,1,1.53.09v6.87a10.16,10.16,0,0,0-2-.19c-2.68,0-4.51,1.44-5,3.69a9.17,9.17,0,0,0-.14,1.63v11.91h-7.3Z"/><path class="cls-12" d="M208.07,518.17a17.66,17.66,0,0,1-6.53,1.06c-7.58,0-12.43-4.61-12.43-12,0-6.87,4.71-12.48,13.44-12.48a16.81,16.81,0,0,1,5.57.91L207,501.09a9.84,9.84,0,0,0-4.08-.73c-3.84,0-6.34,2.74-6.29,6.58,0,4.32,2.88,6.58,6.43,6.58a11.3,11.3,0,0,0,4.18-.72Z"/><path class="cls-12" d="M212.1,484.67h7.3v13.39h.1a8.53,8.53,0,0,1,2.88-2.4,8.13,8.13,0,0,1,3.79-.91c4.66,0,8.21,3.21,8.21,10.27v13.73h-7.3V505.84c0-3.08-1.05-5.19-3.79-5.19a3.89,3.89,0,0,0-3.65,2.55,4.67,4.67,0,0,0-.24,1.63v13.92h-7.3Z"/><path class="cls-12" d="M253.58,518.75l-.44-2.35H253a8.47,8.47,0,0,1-6.72,2.88,7.19,7.19,0,0,1-7.58-7.2c0-6.1,5.47-9,13.77-9v-.34c0-1.24-.67-3-4.27-3a13.21,13.21,0,0,0-6.48,1.78l-1.34-4.71a19.37,19.37,0,0,1,9.12-2.06c7.82,0,10.32,4.61,10.32,10.13V513a36.54,36.54,0,0,0,.33,5.71Zm-.87-11.09c-3.84-.05-6.81.87-6.81,3.7a2.61,2.61,0,0,0,2.88,2.78,4,4,0,0,0,3.79-2.69,5.48,5.48,0,0,0,.14-1.24Z"/><path class="cls-12" d="M265.53,512.37a14.33,14.33,0,0,0,6.29,1.77c2.2,0,3.12-.77,3.12-2s-.72-1.77-3.46-2.68c-4.85-1.64-6.72-4.28-6.67-7.06,0-4.37,3.74-7.68,9.55-7.68a15.72,15.72,0,0,1,6.62,1.34l-1.29,5a11.62,11.62,0,0,0-5.09-1.34c-1.78,0-2.78.72-2.78,1.92s.91,1.68,3.79,2.69c4.46,1.53,6.34,3.79,6.38,7.25,0,4.36-3.45,7.58-10.17,7.58a16.64,16.64,0,0,1-7.59-1.63Z"/><path class="cls-12" d="M292,509.34c.24,3,3.22,4.47,6.63,4.47a20.83,20.83,0,0,0,6.48-1l1,4.94a23.18,23.18,0,0,1-8.5,1.44c-8,0-12.53-4.61-12.53-12,0-6,3.7-12.53,11.86-12.53,7.58,0,10.46,5.9,10.46,11.71a16.9,16.9,0,0,1-.24,2.88Zm8.6-5c0-1.78-.77-4.75-4.13-4.75-3.08,0-4.32,2.78-4.52,4.75Z"/></g></g></svg>