<svg xmlns="http://www.w3.org/2000/svg" viewBox="0 0 924.48 566.13"><defs><style>.cls-1{fill:#ffddb0;}.cls-1,.cls-10,.cls-2,.cls-7,.cls-8,.cls-9{stroke:#fb3371;stroke-miterlimit:10;}.cls-1,.cls-10,.cls-2,.cls-7,.cls-9{stroke-width:10px;}.cls-2{fill:#8e5817;}.cls-3{fill:red;}.cls-16,.cls-4{fill:#fff;}.cls-5{fill:#ff0;}.cls-6{fill:lime;}.cls-7{fill:#f95353;}.cls-10,.cls-8{fill:none;stroke-linecap:round;}.cls-8{stroke-width:8px;}.cls-9{fill:#f98ff9;}.cls-11{font-size:48px;font-family:MyriadPro-Regular, Myriad Pro;}.cls-11,.cls-18{fill:#d4145a;}.cls-12{letter-spacing:0em;}.cls-13{letter-spacing:-0.01em;}.cls-14,.cls-16{letter-spacing:0em;}.cls-15{letter-spacing:-0.01em;}.cls-17{fill:#666;}.cls-19{letter-spacing:-0.01em;}</style></defs><title>noPurchasesAsset 5</title><g id="Layer_2" data-name="Layer 2"><g id="Layer_1-2" data-name="Layer 1"><path class="cls-1" d="M894.37,96.09a80.57,80.57,0,0,1-7.15,34.22,92.29,92.29,0,0,1-24.29,32.05c-19.44,16.67-46.28,27-75.94,27H471.76c-45.7,0-84.74-24.51-100.24-59.05a80.49,80.49,0,0,1-7.16-33.13c0-25.45,12-48.5,31.46-65.18S442.1,5,471.76,5H785.59C844.64,5,893.68,45.41,894.37,96.09Z"/><path class="cls-2" d="M894.37,96.09a80.57,80.57,0,0,1-7.15,34.22h0c-16.31-12.24-39-16.15-59.51-10.29l-18.39,5.24a70.64,70.64,0,0,1-35.69.75l-47.88-11.45a70.77,70.77,0,0,0-33.37.13L647,125.94a70.76,70.76,0,0,1-35.14-.31L575,115.79a70.59,70.59,0,0,0-38.83.71l-23.46,7.23a70.58,70.58,0,0,1-42.54-.39l-16.94-5.57a70.64,70.64,0,0,0-43.82,0l-37.92,12.52a80.49,80.49,0,0,1-7.16-33.13c0-25.45,12-48.5,31.46-65.18S442.1,5,471.76,5H785.59C844.64,5,893.68,45.41,894.37,96.09Z"/><polygon class="cls-3" points="432.52 43.43 418.32 51.89 420.15 54.16 434.35 45.7 432.52 43.43"/><polygon class="cls-4" points="466.57 35.73 455.26 24.51 452.83 26.32 464.14 37.54 466.57 35.73"/><polygon class="cls-3" points="514.5 34.23 527.13 24.09 524.93 22.08 512.3 32.21 514.5 34.23"/><polygon class="cls-5" points="549.47 52.35 535.96 43.09 533.96 45.24 547.46 54.5 549.47 52.35"/><polygon class="cls-5" points="602.45 41.71 595.42 28.15 592.49 29.27 599.52 42.83 602.45 41.71"/><polygon class="cls-5" points="432.52 90.27 418.32 98.74 420.15 101 434.35 92.54 432.52 90.27"/><polygon class="cls-6" points="480.32 72.36 469.01 61.15 466.57 62.95 477.89 74.17 480.32 72.36"/><polygon class="cls-4" points="514.5 81.07 527.13 70.94 524.93 68.92 512.3 79.05 514.5 81.07"/><polygon class="cls-3" points="482.09 92.91 495.17 102.61 497.27 100.52 484.19 90.82 482.09 92.91"/><polygon class="cls-3" points="569.17 89.09 557.86 77.87 555.42 79.67 566.74 90.89 569.17 89.09"/><polygon class="cls-5" points="648.4 77.57 641.37 64.02 638.43 65.14 645.46 78.69 648.4 77.57"/><polygon class="cls-6" points="597.47 85.81 610.55 95.51 612.65 93.42 599.57 83.72 597.47 85.81"/><polygon class="cls-4" points="662.6 91.81 648.4 100.27 650.23 102.54 664.43 94.08 662.6 91.81"/><polygon class="cls-5" points="692.22 67.56 705.3 77.26 707.4 75.17 694.32 65.47 692.22 67.56"/><polygon class="cls-6" points="755.6 99.06 742.09 89.8 740.09 91.96 753.6 101.22 755.6 99.06"/><polygon class="cls-4" points="791.35 92.29 780.03 81.07 777.6 82.88 788.92 94.09 791.35 92.29"/><polygon class="cls-5" points="861.46 81.21 854.43 67.66 851.49 68.78 858.52 82.33 861.46 81.21"/><polygon class="cls-3" points="818.01 71.19 831.09 80.89 833.19 78.8 820.11 69.1 818.01 71.19"/><polygon class="cls-3" points="652.63 30.96 638.43 39.42 640.26 41.69 654.47 33.23 652.63 30.96"/><polygon class="cls-6" points="694.71 34.52 683.39 23.3 680.96 25.11 692.27 36.32 694.71 34.52"/><polygon class="cls-6" points="742.63 33.01 755.26 22.88 753.06 20.86 740.43 31 742.63 33.01"/><polygon class="cls-4" points="728.88 54.26 741.96 63.96 744.06 61.87 730.98 52.17 728.88 54.26"/><polygon class="cls-5" points="777.6 51.13 764.09 41.87 762.09 44.03 775.6 53.29 777.6 51.13"/><polygon class="cls-3" points="810.09 34.52 798.77 23.3 796.34 25.11 807.65 36.32 810.09 34.52"/><path class="cls-1" d="M894.37,280.44a80.62,80.62,0,0,1-7.15,34.23,92.35,92.35,0,0,1-24.29,32c-19.44,16.68-46.28,27-75.94,27H471.76c-45.7,0-84.74-24.5-100.24-59a80.49,80.49,0,0,1-7.16-33.13c0-25.46,12-48.51,31.46-65.18s46.28-27,75.94-27H785.59C844.64,189.36,893.68,229.76,894.37,280.44Z"/><path class="cls-7" d="M894.37,280.44a80.62,80.62,0,0,1-7.15,34.23h0c-16.31-12.24-39-16.16-59.51-10.3l-18.39,5.25a70.86,70.86,0,0,1-35.69.75l-47.88-11.46a70.77,70.77,0,0,0-33.37.14L647,310.3a70.87,70.87,0,0,1-35.14-.31L575,300.14a70.69,70.69,0,0,0-38.83.72l-23.46,7.23a70.66,70.66,0,0,1-42.54-.39l-16.94-5.57a70.5,70.5,0,0,0-43.82,0l-37.92,12.52a80.49,80.49,0,0,1-7.16-33.13c0-25.46,12-48.51,31.46-65.18s46.28-27,75.94-27H785.59C844.64,189.36,893.68,229.76,894.37,280.44Z"/><polygon class="cls-3" points="432.52 226.06 418.32 234.52 420.15 236.79 434.35 228.33 432.52 226.06"/><polygon class="cls-4" points="466.57 218.36 455.26 207.14 452.83 208.95 464.14 220.17 466.57 218.36"/><polygon class="cls-3" points="514.5 216.86 527.13 206.72 524.93 204.71 512.3 214.84 514.5 216.86"/><polygon class="cls-5" points="549.47 234.97 535.96 225.72 533.96 227.88 547.46 237.13 549.47 234.97"/><polygon class="cls-5" points="602.45 224.34 595.42 210.78 592.49 211.91 599.52 225.46 602.45 224.34"/><polygon class="cls-5" points="432.52 272.9 418.32 281.37 420.15 283.63 434.35 275.17 432.52 272.9"/><polygon class="cls-6" points="480.32 254.99 469.01 243.77 466.57 245.58 477.89 256.8 480.32 254.99"/><polygon class="cls-4" points="514.5 263.7 527.13 253.57 524.93 251.55 512.3 261.68 514.5 263.7"/><polygon class="cls-3" points="482.09 275.54 495.17 285.24 497.27 283.15 484.19 273.45 482.09 275.54"/><polygon class="cls-3" points="569.17 271.72 557.86 260.5 555.42 262.3 566.74 273.52 569.17 271.72"/><polygon class="cls-5" points="648.4 260.2 641.37 246.65 638.43 247.77 645.46 261.32 648.4 260.2"/><polygon class="cls-6" points="597.47 268.44 610.55 278.14 612.65 276.05 599.57 266.35 597.47 268.44"/><polygon class="cls-4" points="662.6 274.44 648.4 282.9 650.23 285.17 664.43 276.71 662.6 274.44"/><polygon class="cls-5" points="692.22 250.19 705.3 259.89 707.4 257.8 694.32 248.1 692.22 250.19"/><polygon class="cls-6" points="755.6 281.69 742.09 272.43 740.09 274.59 753.6 283.85 755.6 281.69"/><polygon class="cls-4" points="791.35 274.92 780.03 263.7 777.6 265.51 788.92 276.73 791.35 274.92"/><polygon class="cls-5" points="861.46 263.84 854.43 250.29 851.49 251.41 858.52 264.96 861.46 263.84"/><polygon class="cls-3" points="818.01 253.82 831.09 263.52 833.19 261.43 820.11 251.73 818.01 253.82"/><polygon class="cls-3" points="652.63 213.59 638.43 222.05 640.26 224.32 654.47 215.86 652.63 213.59"/><polygon class="cls-6" points="694.71 217.15 683.39 205.93 680.96 207.73 692.27 218.95 694.71 217.15"/><polygon class="cls-6" points="742.63 215.64 755.26 205.51 753.06 203.49 740.43 213.63 742.63 215.64"/><polygon class="cls-4" points="728.88 236.89 741.96 246.59 744.06 244.5 730.98 234.8 728.88 236.89"/><polygon class="cls-5" points="777.6 233.76 764.09 224.5 762.09 226.66 775.6 235.92 777.6 233.76"/><polygon class="cls-3" points="810.09 217.15 798.77 205.93 796.34 207.73 807.65 218.95 810.09 217.15"/><line class="cls-8" x1="527.13" y1="152.19" x2="732.14" y2="152.19"/><line class="cls-8" x1="502.88" y1="152.19" x2="437.69" y2="152.19"/><line class="cls-8" x1="437.69" y1="336.54" x2="676.63" y2="336.54"/><path class="cls-1" d="M894.37,464.8A80.65,80.65,0,0,1,887.22,499a92.35,92.35,0,0,1-24.29,32c-19.44,16.68-46.28,27-75.94,27H471.76c-45.7,0-84.74-24.51-100.24-59a80.56,80.56,0,0,1-7.16-33.13c0-25.46,12-48.51,31.46-65.19s46.28-27,75.94-27H785.59C844.64,373.71,893.68,414.12,894.37,464.8Z"/><path class="cls-9" d="M894.37,464.8A80.65,80.65,0,0,1,887.22,499h0c-16.31-12.25-39-16.16-59.51-10.3L809.32,494a70.75,70.75,0,0,1-35.69.74l-47.88-11.45a70.77,70.77,0,0,0-33.37.13L647,494.65a70.64,70.64,0,0,1-35.14-.31L575,484.5a70.69,70.69,0,0,0-38.83.71l-23.46,7.23a70.58,70.58,0,0,1-42.54-.39l-16.94-5.57a70.64,70.64,0,0,0-43.82,0L371.52,499a80.56,80.56,0,0,1-7.16-33.13c0-25.46,12-48.51,31.46-65.19s46.28-27,75.94-27H785.59C844.64,373.71,893.68,414.12,894.37,464.8Z"/><polygon class="cls-3" points="432.52 413.97 418.32 422.43 420.15 424.7 434.35 416.24 432.52 413.97"/><polygon class="cls-4" points="466.57 406.27 455.26 395.05 452.83 396.86 464.14 408.07 466.57 406.27"/><polygon class="cls-3" points="514.5 404.76 527.13 394.63 524.93 392.62 512.3 402.75 514.5 404.76"/><polygon class="cls-5" points="549.47 422.88 535.96 413.63 533.96 415.78 547.46 425.04 549.47 422.88"/><polygon class="cls-5" points="602.45 412.25 595.42 398.69 592.49 399.81 599.52 413.37 602.45 412.25"/><polygon class="cls-5" points="432.52 460.81 418.32 469.27 420.15 471.54 434.35 463.08 432.52 460.81"/><polygon class="cls-6" points="480.32 442.9 469.01 431.68 466.57 433.49 477.89 444.71 480.32 442.9"/><polygon class="cls-4" points="514.5 451.61 527.13 441.48 524.93 439.46 512.3 449.59 514.5 451.61"/><polygon class="cls-3" points="482.09 463.45 495.17 473.14 497.27 471.06 484.19 461.36 482.09 463.45"/><polygon class="cls-3" points="569.17 459.62 557.86 448.4 555.42 450.21 566.74 461.43 569.17 459.62"/><polygon class="cls-5" points="648.4 448.11 641.37 434.55 638.43 435.68 645.46 449.23 648.4 448.11"/><polygon class="cls-6" points="597.47 456.35 610.55 466.05 612.65 463.96 599.57 454.26 597.47 456.35"/><polygon class="cls-4" points="662.6 462.35 648.4 470.81 650.23 473.08 664.43 464.62 662.6 462.35"/><polygon class="cls-5" points="692.22 438.1 705.3 447.8 707.4 445.71 694.32 436.01 692.22 438.1"/><polygon class="cls-6" points="755.6 469.6 742.09 460.34 740.09 462.49 753.6 471.75 755.6 469.6"/><polygon class="cls-4" points="791.35 462.82 780.03 451.61 777.6 453.41 788.92 464.63 791.35 462.82"/><polygon class="cls-5" points="861.46 451.75 854.43 438.19 851.49 439.32 858.52 452.87 861.46 451.75"/><polygon class="cls-3" points="818.01 441.73 831.09 451.43 833.19 449.34 820.11 439.64 818.01 441.73"/><polygon class="cls-3" points="652.63 401.5 638.43 409.96 640.26 412.22 654.47 403.76 652.63 401.5"/><polygon class="cls-6" points="694.71 405.05 683.39 393.83 680.96 395.64 692.27 406.86 694.71 405.05"/><polygon class="cls-6" points="742.63 403.55 755.26 393.42 753.06 391.4 740.43 401.53 742.63 403.55"/><polygon class="cls-4" points="728.88 424.8 741.96 434.5 744.06 432.41 730.98 422.71 728.88 424.8"/><polygon class="cls-5" points="777.6 421.67 764.09 412.41 762.09 414.57 775.6 423.83 777.6 421.67"/><polygon class="cls-3" points="810.09 405.05 798.77 393.83 796.34 395.64 807.65 406.86 810.09 405.05"/><line class="cls-8" x1="437.69" y1="520.9" x2="654.47" y2="520.9"/><line class="cls-8" x1="680" y1="520.9" x2="762.09" y2="520.9"/><line class="cls-10" x1="919.48" y1="561.13" x2="5" y2="561.13"/><text class="cls-11" transform="translate(40.61 400.35)"><tspan class="cls-12">P</tspan><tspan x="25.3" y="0">la</tspan><tspan class="cls-13" x="59.76" y="0">c</tspan><tspan class="cls-14" x="80.98" y="0">e o</tspan><tspan class="cls-15" x="141.55" y="0">r</tspan><tspan class="cls-14" x="156.77" y="0">der</tspan><tspan class="cls-16" x="223.58" y="0"> </tspan><tspan class="cls-17"><tspan x="0" y="57.6">f</tspan><tspan class="cls-15" x="14.02" y="57.6">r</tspan><tspan x="29.23" y="57.6">om</tspan><tspan class="cls-4" x="95.62" y="57.6"> </tspan><tspan class="cls-18" x="105.79" y="57.6">checkout</tspan><tspan class="cls-4" x="290.69" y="57.6"> </tspan><tspan class="cls-13" x="0" y="115.2">t</tspan><tspan class="cls-14" x="15.6" y="115.2">o pu</tspan><tspan class="cls-19" x="105.89" y="115.2">r</tspan><tspan x="121.1" y="115.2">chase</tspan></tspan></text></g></g></svg>