<svg xmlns="http://www.w3.org/2000/svg" viewBox="0 0 1055.17 731.5"><defs><style>.cls-1{fill:#ffd2d2;}.cls-10,.cls-2{fill:#ffddb0;}.cls-10,.cls-11,.cls-2,.cls-3,.cls-8,.cls-9{stroke:#000;stroke-miterlimit:10;}.cls-2,.cls-8{stroke-width:4px;}.cls-3{fill:#8e5817;}.cls-10,.cls-11,.cls-3,.cls-9{stroke-width:3px;}.cls-4{fill:red;}.cls-17,.cls-5{fill:#fff;}.cls-6{fill:#ff0;}.cls-7{fill:lime;}.cls-12,.cls-18,.cls-8{fill:#f95353;}.cls-9{fill:none;}.cls-11{fill:#f98ff9;}.cls-12{font-size:48px;font-family:MyriadPro-Regular, Myriad Pro;}.cls-13{letter-spacing:0em;}.cls-14{letter-spacing:-0.01em;}.cls-15,.cls-17{letter-spacing:0em;}.cls-16{letter-spacing:-0.01em;}.cls-19{letter-spacing:-0.01em;}</style></defs><title>noPurchase2Asset 2</title><g id="Layer_2" data-name="Layer 2"><g id="Layer_1-2" data-name="Layer 1"><path class="cls-1" d="M381.77,50.28l172.16-30a137.14,137.14,0,0,1,69.5,5.88l233.65,83c4.22,1.5,8.52,2.8,12.87,3.88l53.5,13.28A137.17,137.17,0,0,1,1026,239l27.61,183.61a137.13,137.13,0,0,1-4.66,61.14l-36.44,117.13a137.17,137.17,0,0,1-111.62,95l-240,34.2a137.17,137.17,0,0,1-50.79-2.28L285.45,651.39a136.25,136.25,0,0,0-18.29-3h0a137.18,137.18,0,0,1-124-132.82l-4.69-173a137.17,137.17,0,0,1,32.38-92.29L300.62,96.82A137.15,137.15,0,0,1,381.77,50.28Z"/><path class="cls-1" d="M40.4,598.63l28.58-5a22.76,22.76,0,0,1,11.54,1l38.8,13.79c.7.25,1.41.46,2.13.64l8.89,2.21a22.76,22.76,0,0,1,17,18.71L152,660.45a22.79,22.79,0,0,1-.77,10.15l-6.05,19.45a22.77,22.77,0,0,1-18.54,15.78l-39.85,5.68a22.84,22.84,0,0,1-8.44-.38l-53.9-12.7a23.93,23.93,0,0,0-3-.5h0a22.77,22.77,0,0,1-20.58-22L0,647.15a22.82,22.82,0,0,1,5.37-15.33l21.54-25.46A22.73,22.73,0,0,1,40.4,598.63Z"/><path class="cls-1" d="M908,3.71,927.94.24a15.85,15.85,0,0,1,8,.68l27,9.6a13.4,13.4,0,0,0,1.49.45l6.19,1.54a15.86,15.86,0,0,1,11.88,13l3.19,21.25a15.81,15.81,0,0,1-.54,7.07L981,67.43a15.87,15.87,0,0,1-12.91,11l-27.78,3.95a15.94,15.94,0,0,1-5.88-.26l-37.56-8.85a17,17,0,0,0-2.12-.35h0a15.87,15.87,0,0,1-14.34-15.37l-.55-20a15.9,15.9,0,0,1,3.75-10.68l15-17.75A15.92,15.92,0,0,1,908,3.71Z"/><path class="cls-1" d="M64.66,507.38l9.16-1.6a7.39,7.39,0,0,1,3.7.31L90,510.51c.22.08.45.15.68.21l2.85.71a7.29,7.29,0,0,1,5.46,6l1.47,9.77a7.3,7.3,0,0,1-.25,3.25l-1.94,6.24a7.31,7.31,0,0,1-5.94,5.06l-12.78,1.82a7.21,7.21,0,0,1-2.7-.12l-17.28-4.07a6.54,6.54,0,0,0-1-.16h0a7.31,7.31,0,0,1-6.6-7.07l-.25-9.21A7.29,7.29,0,0,1,53.43,518l6.91-8.16A7.29,7.29,0,0,1,64.66,507.38Z"/><path class="cls-2" d="M903.41,242.23a54.69,54.69,0,0,1-4.84,23.2,62.6,62.6,0,0,1-16.46,21.72c-13.18,11.3-31.37,18.3-51.47,18.3H617c-31,0-57.43-16.61-67.94-40A54.58,54.58,0,0,1,544.2,243c0-17.26,8.15-32.88,21.32-44.18s31.37-18.3,51.47-18.3h212.7C869.71,180.5,903,207.89,903.41,242.23Z"/><path class="cls-3" d="M903.41,242.23a54.69,54.69,0,0,1-4.84,23.2h0c-11.06-8.3-26.4-11-40.33-7L845.77,262a48,48,0,0,1-24.19.51l-32.45-7.77a48.05,48.05,0,0,0-22.62.09l-30.76,7.63a48,48,0,0,1-23.82-.21L687,255.58a47.86,47.86,0,0,0-26.32.49l-15.9,4.9a47.91,47.91,0,0,1-28.83-.26l-11.48-3.78a47.85,47.85,0,0,0-29.7,0l-25.7,8.49A54.58,54.58,0,0,1,544.2,243c0-17.26,8.15-32.88,21.32-44.18s31.37-18.3,51.47-18.3h212.7C869.71,180.5,903,207.89,903.41,242.23Z"/><polygon class="cls-4" points="590.39 206.54 580.77 212.28 582.01 213.82 591.63 208.08 590.39 206.54"/><polygon class="cls-5" points="613.47 201.33 605.8 193.72 604.16 194.95 611.83 202.55 613.47 201.33"/><polygon class="cls-4" points="645.95 200.31 654.51 193.44 653.02 192.07 644.46 198.94 645.95 200.31"/><polygon class="cls-6" points="669.66 212.59 660.5 206.31 659.14 207.78 668.3 214.05 669.66 212.59"/><polygon class="cls-6" points="705.57 205.38 700.8 196.19 698.81 196.95 703.58 206.14 705.57 205.38"/><polygon class="cls-6" points="590.39 238.29 580.77 244.03 582.01 245.56 591.63 239.83 590.39 238.29"/><polygon class="cls-7" points="622.79 226.15 615.12 218.55 613.47 219.78 621.14 227.38 622.79 226.15"/><polygon class="cls-5" points="645.95 232.06 654.51 225.19 653.02 223.82 644.46 230.69 645.95 232.06"/><polygon class="cls-4" points="623.99 240.08 632.86 246.65 634.28 245.24 625.41 238.66 623.99 240.08"/><polygon class="cls-4" points="683.01 237.49 675.34 229.88 673.69 231.11 681.36 238.71 683.01 237.49"/><polygon class="cls-6" points="736.71 229.68 731.94 220.5 729.95 221.26 734.72 230.44 736.71 229.68"/><polygon class="cls-7" points="702.19 235.27 711.05 241.84 712.48 240.43 703.61 233.85 702.19 235.27"/><polygon class="cls-5" points="746.33 239.34 736.71 245.07 737.95 246.61 747.57 240.87 746.33 239.34"/><polygon class="cls-6" points="766.4 222.9 775.27 229.47 776.7 228.06 767.83 221.48 766.4 222.9"/><polygon class="cls-7" points="809.36 244.25 800.21 237.97 798.85 239.43 808 245.71 809.36 244.25"/><polygon class="cls-5" points="833.59 239.66 825.92 232.06 824.27 233.28 831.94 240.88 833.59 239.66"/><polygon class="cls-6" points="881.11 232.15 876.35 222.97 874.35 223.73 879.12 232.91 881.11 232.15"/><polygon class="cls-4" points="851.66 225.36 860.53 231.93 861.95 230.52 853.08 223.94 851.66 225.36"/><polygon class="cls-4" points="739.57 198.09 729.95 203.83 731.19 205.36 740.82 199.63 739.57 198.09"/><polygon class="cls-7" points="768.09 200.5 760.42 192.9 758.77 194.13 766.44 201.73 768.09 200.5"/><polygon class="cls-7" points="800.57 199.48 809.13 192.62 807.64 191.25 799.08 198.12 800.57 199.48"/><polygon class="cls-5" points="791.25 213.88 800.12 220.46 801.54 219.04 792.67 212.47 791.25 213.88"/><polygon class="cls-6" points="824.27 211.76 815.12 205.49 813.76 206.95 822.91 213.23 824.27 211.76"/><polygon class="cls-4" points="846.29 200.5 838.62 192.9 836.97 194.13 844.64 201.73 846.29 200.5"/><path class="cls-2" d="M903.41,367.18a54.72,54.72,0,0,1-4.84,23.2,62.57,62.57,0,0,1-16.46,21.71c-13.18,11.31-31.37,18.3-51.47,18.3H617c-31,0-57.43-16.61-67.94-40a54.59,54.59,0,0,1-4.85-22.46c0-17.25,8.15-32.87,21.32-44.17s31.37-18.3,51.47-18.3h212.7C869.71,305.45,903,332.83,903.41,367.18Z"/><path class="cls-8" d="M903.41,367.18a54.72,54.72,0,0,1-4.84,23.2h0c-11.06-8.3-26.4-10.95-40.33-7L845.77,387a48,48,0,0,1-24.19.5l-32.45-7.76a48.05,48.05,0,0,0-22.62.09l-30.76,7.63a48,48,0,0,1-23.82-.22L687,380.53a47.86,47.86,0,0,0-26.32.49l-15.9,4.9a47.83,47.83,0,0,1-28.83-.27l-11.48-3.77a47.85,47.85,0,0,0-29.7,0l-25.7,8.49a54.59,54.59,0,0,1-4.85-22.46c0-17.25,8.15-32.87,21.32-44.17s31.37-18.3,51.47-18.3h212.7C869.71,305.45,903,332.83,903.41,367.18Z"/><polygon class="cls-4" points="590.39 330.32 580.77 336.06 582.01 337.6 591.63 331.86 590.39 330.32"/><polygon class="cls-5" points="613.47 325.1 605.8 317.5 604.16 318.73 611.83 326.33 613.47 325.1"/><polygon class="cls-4" points="645.95 324.08 654.51 317.22 653.02 315.85 644.46 322.72 645.95 324.08"/><polygon class="cls-6" points="669.66 336.37 660.5 330.09 659.14 331.55 668.3 337.83 669.66 336.37"/><polygon class="cls-6" points="705.57 329.15 700.8 319.97 698.81 320.73 703.58 329.92 705.57 329.15"/><polygon class="cls-6" points="590.39 362.07 580.77 367.81 582.01 369.34 591.63 363.61 590.39 362.07"/><polygon class="cls-7" points="622.79 349.93 615.12 342.33 613.47 343.55 621.14 351.16 622.79 349.93"/><polygon class="cls-5" points="645.95 355.83 654.51 348.97 653.02 347.6 644.46 354.47 645.95 355.83"/><polygon class="cls-4" points="623.99 363.86 632.86 370.43 634.28 369.01 625.41 362.44 623.99 363.86"/><polygon class="cls-4" points="683.01 361.27 675.34 353.66 673.69 354.89 681.36 362.49 683.01 361.27"/><polygon class="cls-6" points="736.71 353.46 731.94 344.27 729.95 345.04 734.72 354.22 736.71 353.46"/><polygon class="cls-7" points="702.19 359.04 711.05 365.62 712.48 364.2 703.61 357.63 702.19 359.04"/><polygon class="cls-5" points="746.33 363.11 736.71 368.85 737.95 370.39 747.57 364.65 746.33 363.11"/><polygon class="cls-6" points="766.4 346.68 775.27 353.25 776.7 351.83 767.83 345.26 766.4 346.68"/><polygon class="cls-7" points="809.36 368.02 800.21 361.75 798.85 363.21 808 369.49 809.36 368.02"/><polygon class="cls-5" points="833.59 363.44 825.92 355.83 824.27 357.06 831.94 364.66 833.59 363.44"/><polygon class="cls-6" points="881.11 355.93 876.35 346.74 874.35 347.5 879.12 356.69 881.11 355.93"/><polygon class="cls-4" points="851.66 349.14 860.53 355.71 861.95 354.3 853.08 347.72 851.66 349.14"/><polygon class="cls-4" points="739.57 321.87 729.95 327.6 731.19 329.14 740.82 323.41 739.57 321.87"/><polygon class="cls-7" points="768.09 324.28 760.42 316.68 758.77 317.9 766.44 325.5 768.09 324.28"/><polygon class="cls-7" points="800.57 323.26 809.13 316.39 807.64 315.03 799.08 321.89 800.57 323.26"/><polygon class="cls-5" points="791.25 337.66 800.12 344.24 801.54 342.82 792.67 336.25 791.25 337.66"/><polygon class="cls-6" points="824.27 335.54 815.12 329.27 813.76 330.73 822.91 337 824.27 335.54"/><polygon class="cls-4" points="846.29 324.28 838.62 316.68 836.97 317.9 844.64 325.5 846.29 324.28"/><line class="cls-9" x1="654.51" y1="280.26" x2="793.46" y2="280.26"/><line class="cls-9" x1="638.08" y1="280.26" x2="593.9" y2="280.26"/><line class="cls-9" x1="593.9" y1="405.2" x2="755.84" y2="405.2"/><path class="cls-10" d="M903.41,492.13a54.72,54.72,0,0,1-4.84,23.2A62.57,62.57,0,0,1,882.11,537c-13.18,11.31-31.37,18.3-51.47,18.3H617c-31,0-57.43-16.61-67.94-40a54.59,54.59,0,0,1-4.85-22.46c0-17.25,8.15-32.87,21.32-44.18s31.37-18.3,51.47-18.3h212.7C869.71,430.39,903,457.78,903.41,492.13Z"/><path class="cls-11" d="M903.41,492.13a54.72,54.72,0,0,1-4.84,23.2h0c-11.06-8.3-26.4-11-40.33-7l-12.47,3.55a48,48,0,0,1-24.19.51l-32.45-7.76a47.92,47.92,0,0,0-22.62.09l-30.76,7.62a47.92,47.92,0,0,1-23.82-.21L687,505.48a48,48,0,0,0-26.32.48l-15.9,4.9a47.83,47.83,0,0,1-28.83-.26l-11.48-3.78a47.85,47.85,0,0,0-29.7,0l-25.7,8.49a54.59,54.59,0,0,1-4.85-22.46c0-17.25,8.15-32.87,21.32-44.18s31.37-18.3,51.47-18.3h212.7C869.71,430.39,903,457.78,903.41,492.13Z"/><polygon class="cls-4" points="590.39 457.68 580.77 463.41 582.01 464.95 591.63 459.21 590.39 457.68"/><polygon class="cls-5" points="613.47 452.46 605.8 444.86 604.16 446.08 611.83 453.68 613.47 452.46"/><polygon class="cls-4" points="645.95 451.44 654.51 444.57 653.02 443.21 644.46 450.07 645.95 451.44"/><polygon class="cls-6" points="669.66 463.72 660.5 457.45 659.14 458.91 668.3 465.18 669.66 463.72"/><polygon class="cls-6" points="705.57 456.51 700.8 447.32 698.81 448.08 703.58 457.27 705.57 456.51"/><polygon class="cls-6" points="590.39 489.43 580.77 495.16 582.01 496.7 591.63 490.96 590.39 489.43"/><polygon class="cls-7" points="622.79 477.29 615.12 469.68 613.47 470.91 621.14 478.51 622.79 477.29"/><polygon class="cls-5" points="645.95 483.19 654.51 476.32 653.02 474.95 644.46 481.82 645.95 483.19"/><polygon class="cls-4" points="623.99 491.21 632.86 497.79 634.28 496.37 625.41 489.8 623.99 491.21"/><polygon class="cls-4" points="683.01 488.62 675.34 481.02 673.69 482.24 681.36 489.85 683.01 488.62"/><polygon class="cls-6" points="736.71 480.82 731.94 471.63 729.95 472.39 734.72 481.58 736.71 480.82"/><polygon class="cls-7" points="702.19 486.4 711.05 492.97 712.48 491.56 703.61 484.98 702.19 486.4"/><polygon class="cls-5" points="746.33 490.47 736.71 496.2 737.95 497.74 747.57 492.01 746.33 490.47"/><polygon class="cls-6" points="766.4 474.03 775.27 480.61 776.7 479.19 767.83 472.62 766.4 474.03"/><polygon class="cls-7" points="809.36 495.38 800.21 489.11 798.85 490.57 808 496.84 809.36 495.38"/><polygon class="cls-5" points="833.59 490.79 825.92 483.19 824.27 484.41 831.94 492.02 833.59 490.79"/><polygon class="cls-6" points="881.11 483.28 876.35 474.1 874.35 474.86 879.12 484.05 881.11 483.28"/><polygon class="cls-4" points="851.66 476.49 860.53 483.07 861.95 481.65 853.08 475.08 851.66 476.49"/><polygon class="cls-4" points="739.57 449.23 729.95 454.96 731.19 456.5 740.82 450.76 739.57 449.23"/><polygon class="cls-7" points="768.09 451.64 760.42 444.03 758.77 445.26 766.44 452.86 768.09 451.64"/><polygon class="cls-7" points="800.57 450.62 809.13 443.75 807.64 442.38 799.08 449.25 800.57 450.62"/><polygon class="cls-5" points="791.25 465.02 800.12 471.59 801.54 470.18 792.67 463.6 791.25 465.02"/><polygon class="cls-6" points="824.27 462.9 815.12 456.62 813.76 458.08 822.91 464.36 824.27 462.9"/><polygon class="cls-4" points="846.29 451.64 838.62 444.03 836.97 445.26 844.64 452.86 846.29 451.64"/><line class="cls-9" x1="593.9" y1="530.15" x2="740.82" y2="530.15"/><line class="cls-9" x1="758.12" y1="530.15" x2="813.76" y2="530.15"/><line class="cls-9" x1="948.04" y1="555.34" x2="233.45" y2="555.34"/><text class="cls-12" transform="translate(222.1 374.84)"><tspan class="cls-13">P</tspan><tspan x="25.3" y="0">la</tspan><tspan class="cls-14" x="59.76" y="0">c</tspan><tspan class="cls-15" x="80.98" y="0">e o</tspan><tspan class="cls-16" x="141.55" y="0">r</tspan><tspan class="cls-15" x="156.77" y="0">der</tspan><tspan class="cls-17" x="223.58" y="0"> </tspan><tspan class="cls-5"><tspan x="0" y="57.6">f</tspan><tspan class="cls-16" x="14.02" y="57.6">r</tspan><tspan x="29.23" y="57.6">om </tspan><tspan class="cls-18" x="105.79" y="57.6">checkout</tspan><tspan x="290.69" y="57.6"> </tspan><tspan class="cls-14" x="0" y="115.2">t</tspan><tspan class="cls-15" x="15.6" y="115.2">o pu</tspan><tspan class="cls-19" x="105.89" y="115.2">r</tspan><tspan x="121.1" y="115.2">chase</tspan></tspan></text></g></g></svg>