<svg xmlns="http://www.w3.org/2000/svg" viewBox="0 0 750.31 378.34"><defs><style>.cls-1,.cls-9{fill:#ffddb0;}.cls-1,.cls-10,.cls-2,.cls-7,.cls-8,.cls-9{stroke:#000;stroke-miterlimit:10;}.cls-1,.cls-7{stroke-width:4px;}.cls-2{fill:#8e5817;}.cls-10,.cls-2,.cls-8,.cls-9{stroke-width:3px;}.cls-3{fill:red;}.cls-16,.cls-4{fill:#fff;}.cls-5{fill:#ff0;}.cls-6{fill:lime;}.cls-7{fill:#f95353;}.cls-8{fill:none;stroke-linecap:round;}.cls-10{fill:#f98ff9;}.cls-11{font-size:48px;font-family:MyriadPro-Regular, Myriad Pro;}.cls-11,.cls-18{fill:#d4145a;}.cls-12{letter-spacing:0em;}.cls-13{letter-spacing:-0.01em;}.cls-14,.cls-16{letter-spacing:0em;}.cls-15{letter-spacing:-0.01em;}.cls-17{fill:#666;}.cls-19{letter-spacing:-0.01em;}</style></defs><title>noPurchasesAsset 3</title><g id="Layer_2" data-name="Layer 2"><g id="Layer_1-2" data-name="Layer 1"><path class="cls-1" d="M704.18,63.74a54.38,54.38,0,0,1-4.84,23.19,62.6,62.6,0,0,1-16.46,21.72C669.7,120,651.51,127,631.41,127H417.76c-31,0-57.43-16.61-67.94-40A54.58,54.58,0,0,1,345,64.48c0-17.25,8.15-32.88,21.32-44.18S397.66,2,417.76,2h212.7C670.48,2,703.72,29.39,704.18,63.74Z"/><path class="cls-2" d="M704.18,63.74a54.38,54.38,0,0,1-4.84,23.19h0c-11.05-8.29-26.4-11-40.33-7l-12.47,3.56a48,48,0,0,1-24.18.51l-32.45-7.77a48.09,48.09,0,0,0-22.63.09L536.53,84a48,48,0,0,1-23.82-.21l-25-6.67a48,48,0,0,0-26.32.48l-15.9,4.9a47.83,47.83,0,0,1-28.83-.26l-11.48-3.78a47.78,47.78,0,0,0-29.7,0l-25.7,8.48A54.58,54.58,0,0,1,345,64.48c0-17.25,8.15-32.88,21.32-44.18S397.66,2,417.76,2h212.7C670.48,2,703.72,29.39,704.18,63.74Z"/><polygon class="cls-3" points="391.16 28.05 381.54 33.78 382.78 35.32 392.41 29.58 391.16 28.05"/><polygon class="cls-4" points="414.25 22.83 406.58 15.22 404.93 16.45 412.6 24.05 414.25 22.83"/><polygon class="cls-3" points="446.73 21.81 455.29 14.94 453.8 13.57 445.24 20.44 446.73 21.81"/><polygon class="cls-5" points="470.43 34.09 461.27 27.81 459.91 29.28 469.07 35.55 470.43 34.09"/><polygon class="cls-5" points="506.34 26.88 501.57 17.69 499.58 18.45 504.35 27.64 506.34 26.88"/><polygon class="cls-5" points="391.16 59.8 381.54 65.53 382.78 67.07 392.41 61.33 391.16 59.8"/><polygon class="cls-6" points="423.56 47.66 415.89 40.05 414.25 41.28 421.91 48.88 423.56 47.66"/><polygon class="cls-4" points="446.73 53.56 455.29 46.69 453.8 45.32 445.24 52.19 446.73 53.56"/><polygon class="cls-3" points="424.76 61.58 433.63 68.15 435.05 66.74 426.19 60.16 424.76 61.58"/><polygon class="cls-3" points="483.78 58.99 476.11 51.39 474.46 52.61 482.13 60.21 483.78 58.99"/><polygon class="cls-5" points="537.48 51.19 532.71 42 530.72 42.76 535.49 51.95 537.48 51.19"/><polygon class="cls-6" points="502.96 56.77 511.83 63.34 513.25 61.93 504.38 55.35 502.96 56.77"/><polygon class="cls-4" points="547.1 60.84 537.48 66.57 538.72 68.11 548.35 62.38 547.1 60.84"/><polygon class="cls-5" points="567.18 44.4 576.04 50.97 577.47 49.56 568.6 42.98 567.18 44.4"/><polygon class="cls-6" points="610.14 65.75 600.98 59.47 599.62 60.94 608.78 67.21 610.14 65.75"/><polygon class="cls-4" points="634.36 61.16 626.69 53.56 625.05 54.78 632.71 62.38 634.36 61.16"/><polygon class="cls-5" points="681.88 53.65 677.12 44.47 675.13 45.23 679.89 54.41 681.88 53.65"/><polygon class="cls-3" points="652.43 46.86 661.3 53.44 662.72 52.02 653.86 45.45 652.43 46.86"/><polygon class="cls-3" points="540.35 19.59 530.72 25.33 531.97 26.86 541.59 21.13 540.35 19.59"/><polygon class="cls-6" points="568.86 22 561.19 14.4 559.55 15.63 567.21 23.23 568.86 22"/><polygon class="cls-6" points="601.34 20.98 609.9 14.12 608.41 12.75 599.85 19.62 601.34 20.98"/><polygon class="cls-4" points="592.02 35.39 600.89 41.96 602.31 40.54 593.45 33.97 592.02 35.39"/><polygon class="cls-5" points="625.05 33.27 615.89 26.99 614.53 28.45 623.69 34.73 625.05 33.27"/><polygon class="cls-3" points="647.06 22 639.39 14.4 637.74 15.63 645.41 23.23 647.06 22"/><path class="cls-1" d="M704.18,188.68a54.39,54.39,0,0,1-4.84,23.2,62.6,62.6,0,0,1-16.46,21.72c-13.18,11.3-31.37,18.3-51.47,18.3H417.76c-31,0-57.43-16.61-67.94-40A54.58,54.58,0,0,1,345,189.43c0-17.26,8.15-32.88,21.32-44.18S397.66,127,417.76,127h212.7C670.48,127,703.72,154.34,704.18,188.68Z"/><path class="cls-7" d="M704.18,188.68a54.39,54.39,0,0,1-4.84,23.2h0c-11.05-8.3-26.4-10.95-40.33-7l-12.47,3.56a48,48,0,0,1-24.18.5l-32.45-7.76a48.09,48.09,0,0,0-22.63.09l-30.75,7.63a48,48,0,0,1-23.82-.21l-25-6.68a47.86,47.86,0,0,0-26.32.49l-15.9,4.9a47.83,47.83,0,0,1-28.83-.27l-11.48-3.77a47.85,47.85,0,0,0-29.7,0l-25.7,8.49A54.58,54.58,0,0,1,345,189.43c0-17.26,8.15-32.88,21.32-44.18S397.66,127,417.76,127h212.7C670.48,127,703.72,154.34,704.18,188.68Z"/><polygon class="cls-3" points="391.16 151.82 381.54 157.56 382.78 159.1 392.41 153.36 391.16 151.82"/><polygon class="cls-4" points="414.25 146.6 406.58 139 404.93 140.23 412.6 147.83 414.25 146.6"/><polygon class="cls-3" points="446.73 145.59 455.29 138.72 453.8 137.35 445.24 144.22 446.73 145.59"/><polygon class="cls-5" points="470.43 157.87 461.27 151.59 459.91 153.05 469.07 159.33 470.43 157.87"/><polygon class="cls-5" points="506.34 150.66 501.57 141.47 499.58 142.23 504.35 151.42 506.34 150.66"/><polygon class="cls-5" points="391.16 183.57 381.54 189.31 382.78 190.84 392.41 185.11 391.16 183.57"/><polygon class="cls-6" points="423.56 171.43 415.89 163.83 414.25 165.06 421.91 172.66 423.56 171.43"/><polygon class="cls-4" points="446.73 177.34 455.29 170.47 453.8 169.1 445.24 175.97 446.73 177.34"/><polygon class="cls-3" points="424.76 185.36 433.63 191.93 435.05 190.52 426.19 183.94 424.76 185.36"/><polygon class="cls-3" points="483.78 182.77 476.11 175.16 474.46 176.39 482.13 183.99 483.78 182.77"/><polygon class="cls-5" points="537.48 174.96 532.71 165.78 530.72 166.54 535.49 175.72 537.48 174.96"/><polygon class="cls-6" points="502.96 180.55 511.83 187.12 513.25 185.7 504.38 179.13 502.96 180.55"/><polygon class="cls-4" points="547.1 184.62 537.48 190.35 538.72 191.89 548.35 186.15 547.1 184.62"/><polygon class="cls-5" points="567.18 168.18 576.04 174.75 577.47 173.34 568.6 166.76 567.18 168.18"/><polygon class="cls-6" points="610.14 189.53 600.98 183.25 599.62 184.71 608.78 190.99 610.14 189.53"/><polygon class="cls-4" points="634.36 184.94 626.69 177.34 625.05 178.56 632.71 186.16 634.36 184.94"/><polygon class="cls-5" points="681.88 177.43 677.12 168.24 675.13 169 679.89 178.19 681.88 177.43"/><polygon class="cls-3" points="652.43 170.64 661.3 177.21 662.72 175.8 653.86 169.22 652.43 170.64"/><polygon class="cls-3" points="540.35 143.37 530.72 149.11 531.97 150.64 541.59 144.91 540.35 143.37"/><polygon class="cls-6" points="568.86 145.78 561.19 138.18 559.55 139.4 567.21 147.01 568.86 145.78"/><polygon class="cls-6" points="601.34 144.76 609.9 137.9 608.41 136.53 599.85 143.4 601.34 144.76"/><polygon class="cls-4" points="592.02 159.16 600.89 165.74 602.31 164.32 593.45 157.75 592.02 159.16"/><polygon class="cls-5" points="625.05 157.04 615.89 150.77 614.53 152.23 623.69 158.51 625.05 157.04"/><polygon class="cls-3" points="647.06 145.78 639.39 138.18 637.74 139.4 645.41 147.01 647.06 145.78"/><line class="cls-8" x1="455.28" y1="101.76" x2="594.23" y2="101.76"/><line class="cls-8" x1="438.85" y1="101.76" x2="394.67" y2="101.76"/><line class="cls-8" x1="394.67" y1="226.7" x2="556.61" y2="226.7"/><path class="cls-9" d="M704.18,313.63a54.42,54.42,0,0,1-4.84,23.2,62.57,62.57,0,0,1-16.46,21.71c-13.18,11.31-31.37,18.3-51.47,18.3H417.76c-31,0-57.43-16.61-67.94-40A54.59,54.59,0,0,1,345,314.37c0-17.25,8.15-32.87,21.32-44.18s31.37-18.29,51.47-18.29h212.7C670.48,251.9,703.72,279.28,704.18,313.63Z"/><path class="cls-10" d="M704.18,313.63a54.42,54.42,0,0,1-4.84,23.2h0c-11.05-8.3-26.4-10.95-40.33-7l-12.47,3.56a48,48,0,0,1-24.18.5l-32.45-7.76a48.09,48.09,0,0,0-22.63.09l-30.75,7.63a48,48,0,0,1-23.82-.22l-25-6.67a48,48,0,0,0-26.32.48l-15.9,4.91a47.91,47.91,0,0,1-28.83-.27l-11.48-3.77a47.78,47.78,0,0,0-29.7,0l-25.7,8.49A54.59,54.59,0,0,1,345,314.37c0-17.25,8.15-32.87,21.32-44.18s31.37-18.29,51.47-18.29h212.7C670.48,251.9,703.72,279.28,704.18,313.63Z"/><polygon class="cls-3" points="391.16 279.18 381.54 284.91 382.78 286.45 392.41 280.72 391.16 279.18"/><polygon class="cls-4" points="414.25 273.96 406.58 266.36 404.93 267.58 412.6 275.19 414.25 273.96"/><polygon class="cls-3" points="446.73 272.94 455.29 266.07 453.8 264.71 445.24 271.57 446.73 272.94"/><polygon class="cls-5" points="470.43 285.22 461.27 278.95 459.91 280.41 469.07 286.68 470.43 285.22"/><polygon class="cls-5" points="506.34 278.01 501.57 268.82 499.58 269.59 504.35 278.77 506.34 278.01"/><polygon class="cls-5" points="391.16 310.93 381.54 316.66 382.78 318.2 392.41 312.46 391.16 310.93"/><polygon class="cls-6" points="423.56 298.79 415.89 291.19 414.25 292.41 421.91 300.01 423.56 298.79"/><polygon class="cls-4" points="446.73 304.69 455.29 297.82 453.8 296.46 445.24 303.32 446.73 304.69"/><polygon class="cls-3" points="424.76 312.71 433.63 319.29 435.05 317.87 426.19 311.3 424.76 312.71"/><polygon class="cls-3" points="483.78 310.12 476.11 302.52 474.46 303.74 482.13 311.35 483.78 310.12"/><polygon class="cls-5" points="537.48 302.32 532.71 293.13 530.72 293.89 535.49 303.08 537.48 302.32"/><polygon class="cls-6" points="502.96 307.9 511.83 314.48 513.25 313.06 504.38 306.49 502.96 307.9"/><polygon class="cls-4" points="547.1 311.97 537.48 317.7 538.72 319.24 548.35 313.51 547.1 311.97"/><polygon class="cls-5" points="567.18 295.53 576.04 302.11 577.47 300.69 568.6 294.12 567.18 295.53"/><polygon class="cls-6" points="610.14 316.88 600.98 310.61 599.62 312.07 608.78 318.34 610.14 316.88"/><polygon class="cls-4" points="634.36 312.29 626.69 304.69 625.05 305.91 632.71 313.52 634.36 312.29"/><polygon class="cls-5" points="681.88 304.79 677.12 295.6 675.13 296.36 679.89 305.55 681.88 304.79"/><polygon class="cls-3" points="652.43 297.99 661.3 304.57 662.72 303.15 653.86 296.58 652.43 297.99"/><polygon class="cls-3" points="540.35 270.73 530.72 276.46 531.97 278 541.59 272.26 540.35 270.73"/><polygon class="cls-6" points="568.86 273.14 561.19 265.53 559.55 266.76 567.21 274.36 568.86 273.14"/><polygon class="cls-6" points="601.34 272.12 609.9 265.25 608.41 263.88 599.85 270.75 601.34 272.12"/><polygon class="cls-4" points="592.02 286.52 600.89 293.09 602.31 291.68 593.45 285.1 592.02 286.52"/><polygon class="cls-5" points="625.05 284.4 615.89 278.12 614.53 279.59 623.69 285.86 625.05 284.4"/><polygon class="cls-3" points="647.06 273.14 639.39 265.53 637.74 266.76 645.41 274.36 647.06 273.14"/><line class="cls-8" x1="394.67" y1="351.65" x2="541.59" y2="351.65"/><line class="cls-8" x1="558.89" y1="351.65" x2="614.53" y2="351.65"/><line class="cls-8" x1="748.81" y1="376.84" x2="1.5" y2="376.84"/><text class="cls-11" transform="translate(22.88 196.34)"><tspan class="cls-12">P</tspan><tspan x="25.3" y="0">la</tspan><tspan class="cls-13" x="59.76" y="0">c</tspan><tspan class="cls-14" x="80.98" y="0">e o</tspan><tspan class="cls-15" x="141.55" y="0">r</tspan><tspan class="cls-14" x="156.77" y="0">der</tspan><tspan class="cls-16" x="223.58" y="0"> </tspan><tspan class="cls-17"><tspan x="0" y="57.6">f</tspan><tspan class="cls-15" x="14.02" y="57.6">r</tspan><tspan x="29.23" y="57.6">om</tspan><tspan class="cls-4" x="95.62" y="57.6"> </tspan><tspan class="cls-18" x="105.79" y="57.6">checkout</tspan><tspan class="cls-4" x="290.69" y="57.6"> </tspan><tspan class="cls-13" x="0" y="115.2">t</tspan><tspan class="cls-14" x="15.6" y="115.2">o pu</tspan><tspan class="cls-19" x="105.89" y="115.2">r</tspan><tspan x="121.1" y="115.2">chase</tspan></tspan></text></g></g></svg>