<svg xmlns="http://www.w3.org/2000/svg" viewBox="0 0 280.22 82.79"><defs><style>.cls-1{fill:#333;}.cls-2{fill:#e6e6e6;}.cls-3{fill:#ffdec2;}.cls-4{fill:#fb3371;}.cls-5{fill:#f98ff9;}.cls-6{fill:red;}.cls-7{fill:#fff;}.cls-8{fill:lime;}.cls-9{fill:#ff0;}.cls-10,.cls-11,.cls-14{fill:none;stroke-linecap:round;}.cls-10,.cls-11{stroke:#d3d3d3;}.cls-10,.cls-11,.cls-12,.cls-14{stroke-miterlimit:10;}.cls-10{stroke-width:2px;}.cls-11{stroke-width:2.5px;}.cls-12{fill:#fff5ee;stroke:#fb3371;stroke-width:0.64px;}.cls-13{fill:#d4145a;}.cls-14{stroke:#e6e6e6;}</style></defs><title>Asset 1</title><g id="Layer_2" data-name="Layer 2"><g id="Layer_1-2" data-name="Layer 1"><path class="cls-1" d="M4.08,68.67H280.22a0,0,0,0,1,0,0V80.56a0,0,0,0,1,0,0H1a0,0,0,0,1,0,0V71.75A3.08,3.08,0,0,1,4.08,68.67Z"/><rect class="cls-2" x="3.3" y="69.97" width="275.18" height="1.88" rx="0.94"/><path class="cls-3" d="M88,77.31A38.08,38.08,0,1,1,126,39.23,38.12,38.12,0,0,1,88,77.31ZM88,25a14.29,14.29,0,1,0,14.28,14.28A14.3,14.3,0,0,0,88,25Z"/><path class="cls-4" d="M88,2.31A36.93,36.93,0,1,1,51,39.23,36.92,36.92,0,0,1,88,2.31m0,52.37A15.45,15.45,0,1,0,72.5,39.23,15.45,15.45,0,0,0,88,54.68M88,0a39.24,39.24,0,1,0,39.23,39.23A39.28,39.28,0,0,0,88,0Zm0,52.37a13.14,13.14,0,1,1,13.13-13.14A13.15,13.15,0,0,1,88,52.37Z"/><path class="cls-5" d="M121.61,29.23a18,18,0,0,0-3-6.29l-5.77-7.89a17.5,17.5,0,0,0-7.37-5.83l-9.47-4a17,17,0,0,0-9.84-1L77.67,6a17.34,17.34,0,0,0-8.35,4.26L60.88,18a18.07,18.07,0,0,0-5.23,8.81L52.89,37.59a8.86,8.86,0,0,0-.27,2,32.58,32.58,0,0,0,4,16.37A33,33,0,0,0,70,69.1c.8.43,17.77,9.32,34.15.54,0,0,10.15-5.44,16.53-18.88a38.25,38.25,0,0,0,2.47-7.48c.68-3.17.72-6.24.13-7.35ZM101.22,49.31c-3.9,5-11.66,7.49-18.34,5.67a15.5,15.5,0,0,1-9.47-6.82,15.17,15.17,0,0,1-2-9.51q.53-2.8,1.07-5.59a9.89,9.89,0,0,1,4.08-6.31l1.88-1.29A13.31,13.31,0,0,1,85,23.16l3.8-.28A13.61,13.61,0,0,1,97.16,25l1.55,1A14.3,14.3,0,0,1,105,35.2c.12.55.23,1.11.35,1.67C105.54,38.27,104.76,44.76,101.22,49.31Z"/><rect class="cls-6" x="59.04" y="42.01" width="0.92" height="7.93" transform="translate(1.04 93.27) rotate(-76.66)"/><rect class="cls-7" x="64.83" y="25.71" width="1.21" height="5.74" transform="matrix(0.83, -0.55, 0.55, 0.83, -4.9, 40.86)"/><rect class="cls-8" x="64.21" y="38.01" width="6.69" height="1.41" transform="translate(2.74 81.86) rotate(-63.46)"/><rect class="cls-9" x="59.31" y="31.79" width="1.51" height="7.14" transform="translate(17.01 90.16) rotate(-82.33)"/><rect class="cls-6" x="116.6" y="34.65" width="0.95" height="8.15" transform="matrix(0.86, -0.5, 0.5, 0.86, -3.59, 64.13)"/><rect class="cls-7" x="106.49" y="52.35" width="1.36" height="6.45" transform="translate(-12.87 68.38) rotate(-33.5)"/><rect class="cls-8" x="105.92" y="43.19" width="6.88" height="1.45" transform="translate(21.21 122.13) rotate(-63.46)"/><rect class="cls-9" x="111.8" y="48.44" width="6.76" height="1.43" transform="translate(-8.69 30.74) rotate(-14.65)"/><rect class="cls-6" x="75.06" y="58.18" width="7.93" height="0.92" transform="translate(-12.77 23.19) rotate(-15.46)"/><rect class="cls-7" x="62.35" y="53.01" width="5.74" height="1.21" transform="translate(-4.57 6.1) rotate(-5.18)"/><rect class="cls-8" x="76.3" y="62.48" width="1.41" height="6.69" transform="translate(-23.85 56.32) rotate(-35.14)"/><rect class="cls-9" x="65.07" y="60.81" width="7.14" height="1.51" transform="translate(-21.51 80.91) rotate(-54)"/><rect class="cls-6" x="94.58" y="12.5" width="8.15" height="0.95" transform="translate(-0.37 3.22) rotate(-1.87)"/><rect class="cls-7" x="105.57" y="29.01" width="6.45" height="1.36" transform="translate(-2.23 9.93) rotate(-5.18)"/><rect class="cls-8" x="98.84" y="18.8" width="1.45" height="6.88" transform="translate(5.35 61.36) rotate(-35.14)"/><rect class="cls-9" x="103.56" y="18.88" width="6.76" height="1.43" transform="translate(62.62 118.87) rotate(-76.33)"/><rect class="cls-6" x="103.24" y="58.05" width="0.92" height="7.93" transform="translate(34.2 160.85) rotate(-85.77)"/><rect class="cls-7" x="82.85" y="65.22" width="5.74" height="1.21" transform="translate(-10.77 114.5) rotate(-64.29)"/><rect class="cls-8" x="90" y="58.1" width="6.69" height="1.41" transform="translate(-4.1 7.08) rotate(-4.25)"/><rect class="cls-9" x="93.53" y="63.4" width="1.51" height="7.14" transform="translate(-18.72 42.39) rotate(-23.11)"/><rect class="cls-6" x="71.25" y="22.37" width="8.15" height="0.95" transform="translate(18.81 77.62) rotate(-60.98)"/><rect class="cls-7" x="84.32" y="15.47" width="6.45" height="1.36" transform="translate(35.02 88.02) rotate(-64.29)"/><rect class="cls-8" x="65.98" y="17.3" width="6.88" height="1.45" transform="matrix(1, -0.07, 0.07, 1, -1.15, 5.2)"/><rect class="cls-9" x="77.22" y="9.18" width="1.43" height="6.76" transform="translate(14.31 59.28) rotate(-45.44)"/><line class="cls-10" x1="44.83" y1="25.46" x2="1" y2="25.46"/><line class="cls-11" x1="40.91" y1="33.11" x2="14.3" y2="33.11"/><line class="cls-10" x1="40.91" y1="40.51" x2="27.61" y2="40.51"/><line class="cls-10" x1="40.91" y1="47.85" x2="11.17" y2="47.85"/><line class="cls-11" x1="44.83" y1="55.58" x2="26.04" y2="55.58"/><path class="cls-12" d="M222.85,78.45a2.84,2.84,0,0,1-2.25,1.11h-3a2.84,2.84,0,0,1-2.25-1.11c-5.14-6.67-7.09-22.28-.91-34.58.25-.51.52-1,.8-1.5a6.79,6.79,0,0,0,.72-2.08,9.61,9.61,0,0,0,.17-2.5,6.68,6.68,0,0,0-.26-1.51c-.22-.71-.43-1.4-.61-2.07-1.86-7-1.46-12.37,2.88-12.37h1.91c4.33,0,4.73,5.35,2.87,12.37q-.27,1-.6,2.07a6.17,6.17,0,0,0-.26,1.51,9.6,9.6,0,0,0,.16,2.5,6.54,6.54,0,0,0,.73,2.08c.28.49.54,1,.79,1.5C229.94,56.17,228,71.78,222.85,78.45Z"/><path class="cls-13" d="M222.94,34.21q-.27,1-.6,2.07a6.17,6.17,0,0,0-.26,1.51h-5.93a6.68,6.68,0,0,0-.26-1.51c-.22-.71-.43-1.4-.61-2.07Z"/><path class="cls-13" d="M223.76,43.87h-9.3c.25-.51.52-1,.8-1.5a6.79,6.79,0,0,0,.72-2.08h6.26a6.54,6.54,0,0,0,.73,2.08C223.25,42.86,223.51,43.36,223.76,43.87Z"/><path class="cls-14" d="M218.61,23s-2.83-.34-3.13,3.43"/><path class="cls-14" d="M215.28,47.15s-3.76,9.68-2.1,17.61"/><path class="cls-12" d="M245.89,78.45a2.84,2.84,0,0,1-2.25,1.11h-3a2.84,2.84,0,0,1-2.25-1.11c-5.14-6.67-7.09-22.28-.91-34.58.25-.51.52-1,.8-1.5a6.79,6.79,0,0,0,.72-2.08,9.6,9.6,0,0,0,.16-2.5,6.17,6.17,0,0,0-.26-1.51c-.21-.71-.42-1.4-.6-2.07-1.86-7-1.46-12.37,2.88-12.37h1.9c4.34,0,4.74,5.35,2.88,12.37-.18.67-.39,1.36-.6,2.07a6.17,6.17,0,0,0-.26,1.51,9.6,9.6,0,0,0,.16,2.5,6.79,6.79,0,0,0,.72,2.08c.28.49.55,1,.8,1.5C253,56.17,251,71.78,245.89,78.45Z"/><path class="cls-13" d="M246,34.21c-.18.67-.39,1.36-.6,2.07a6.17,6.17,0,0,0-.26,1.51h-5.94a6.17,6.17,0,0,0-.26-1.51c-.21-.71-.42-1.4-.6-2.07Z"/><path class="cls-13" d="M246.8,43.87h-9.3c.25-.51.52-1,.8-1.5a6.79,6.79,0,0,0,.72-2.08h6.26a6.79,6.79,0,0,0,.72,2.08C246.28,42.86,246.55,43.36,246.8,43.87Z"/><path class="cls-14" d="M241.65,23s-2.83-.34-3.13,3.43"/><path class="cls-14" d="M238.32,47.15s-3.76,9.68-2.1,17.61"/><path class="cls-12" d="M268.93,78.45a2.84,2.84,0,0,1-2.25,1.11h-3a2.84,2.84,0,0,1-2.25-1.11c-5.15-6.67-7.09-22.28-.91-34.58.25-.51.51-1,.8-1.5a6.79,6.79,0,0,0,.72-2.08,9.6,9.6,0,0,0,.16-2.5,6.17,6.17,0,0,0-.26-1.51q-.33-1.06-.6-2.07c-1.86-7-1.46-12.37,2.87-12.37h1.91c4.34,0,4.74,5.35,2.88,12.37-.18.67-.39,1.36-.6,2.07a6.67,6.67,0,0,0-.27,1.51,9.61,9.61,0,0,0,.17,2.5,6.79,6.79,0,0,0,.72,2.08c.28.49.55,1,.8,1.5C276,56.17,274.07,71.78,268.93,78.45Z"/><path class="cls-13" d="M269,34.21c-.18.67-.39,1.36-.6,2.07a6.67,6.67,0,0,0-.27,1.51h-5.93a6.17,6.17,0,0,0-.26-1.51q-.33-1.06-.6-2.07Z"/><path class="cls-13" d="M269.84,43.87h-9.3c.25-.51.51-1,.8-1.5a6.79,6.79,0,0,0,.72-2.08h6.26a6.79,6.79,0,0,0,.72,2.08C269.32,42.86,269.59,43.36,269.84,43.87Z"/><path class="cls-14" d="M264.69,23s-2.84-.34-3.13,3.43"/><path class="cls-14" d="M261.36,47.15s-3.76,9.68-2.1,17.61"/><rect class="cls-3" x="1" y="80.56" width="279.22" height="2.23"/></g></g></svg>