<svg xmlns="http://www.w3.org/2000/svg" viewBox="0 0 530.57 382.59"><defs><style>.cls-1{fill:#ffdec2;}.cls-2{fill:#fff;}.cls-3{fill:#f98ff9;}.cls-4{fill:red;}.cls-5{fill:lime;}.cls-6{fill:#ff0;}.cls-7{fill:#8e5817;}.cls-8{fill:#f95353;}</style></defs><title>perDozenAsset 7</title><g id="Layer_2" data-name="Layer 2"><g id="Layer_1-2" data-name="Layer 1"><path class="cls-1" d="M66.41,125.78C30.62,125.78,1.5,97.9,1.5,63.64S30.62,1.5,66.41,1.5s64.92,27.88,64.92,62.14S102.21,125.78,66.41,125.78Zm0-86c-13.8,0-25,10.7-25,23.86s11.22,23.87,25,23.87,25-10.71,25-23.87S80.21,39.78,66.41,39.78Z"/><path class="cls-2" d="M66.41,3c35,0,63.42,27.15,63.42,60.64s-28.39,60.64-63.42,60.64S3,97.13,3,63.64,31.39,3,66.41,3m0,86c14.65,0,26.53-11.36,26.53-25.37S81.06,38.28,66.41,38.28,39.89,49.63,39.89,63.64,51.76,89,66.41,89m0-89C29.79,0,0,28.55,0,63.64s29.79,63.64,66.41,63.64,66.42-28.55,66.42-63.64S103,0,66.41,0Zm0,86c-13,0-23.52-10-23.52-22.37S53.44,41.28,66.41,41.28s23.53,10,23.53,22.36S79.39,86,66.41,86Z"/><path class="cls-3" d="M124.24,47.2a29.43,29.43,0,0,0-5.07-10.32l-9.91-13a29.84,29.84,0,0,0-12.65-9.58L80.34,7.84A30.43,30.43,0,0,0,63.43,6.2L48.76,9a30.05,30.05,0,0,0-14.33,7L19.94,28.75a29.4,29.4,0,0,0-9,14.46L6.21,60.94a14.18,14.18,0,0,0-.47,3.36,51.49,51.49,0,0,0,6.81,26.88,55.62,55.62,0,0,0,23.1,21.51c1.37.71,30.51,15.31,58.65.89,0,0,17.43-8.93,28.39-31a61.63,61.63,0,0,0,4.25-12.28c1.16-5.2,1.22-10.25.21-12.07Zm-35,33c-6.7,8.25-20,12.29-31.5,9.31-2.3-.6-11.06-2.88-16.27-11.2A24,24,0,0,1,38.1,62.67l1.83-9.17a16.19,16.19,0,0,1,7-10.36L50.17,41a23.34,23.34,0,0,1,11.18-3.77l6.53-.47a24.23,24.23,0,0,1,14.35,3.48l2.68,1.64A23.54,23.54,0,0,1,95.68,57c.2.91.39,1.83.59,2.75C96.64,62.05,95.29,72.71,89.22,80.19Z"/><polygon class="cls-4" points="11.11 54.53 17.28 60.69 18.03 60 11.86 53.85 11.11 54.53"/><polygon class="cls-2" points="23.22 39 25.92 42.91 26.79 42.37 24.08 38.46 23.22 39"/><polygon class="cls-5" points="31.02 50.55 28.83 54.75 29.76 55.19 31.95 51 31.02 50.55"/><polygon class="cls-4" points="33.33 39.5 30.34 43.22 31.16 43.82 34.15 40.11 33.33 39.5"/><polygon class="cls-6" points="24.42 50.3 19.56 49.67 19.42 50.66 24.28 51.28 24.42 50.3"/><polygon class="cls-5" points="56.33 12.93 53.34 16.65 54.16 17.25 57.15 13.54 56.33 12.93"/><polygon class="cls-4" points="47.43 23.73 42.56 23.1 42.43 24.09 47.29 24.71 47.43 23.73"/><polygon class="cls-5" points="33.29 24.92 28.91 27.02 29.37 27.91 33.76 25.81 33.29 24.92"/><polygon class="cls-6" points="72.27 17.57 72.04 22.26 73.08 22.3 73.3 17.62 72.27 17.57"/><polygon class="cls-5" points="71.44 31.3 67.08 33.45 67.56 34.34 71.92 32.18 71.44 31.3"/><polygon class="cls-4" points="104.68 25.61 100.69 28.33 101.29 29.14 105.28 26.42 104.68 25.61"/><polygon class="cls-4" points="92.88 33.46 88.42 31.51 87.99 32.41 92.44 34.36 92.88 33.46"/><polygon class="cls-6" points="113.71 45.89 108.92 46.9 109.14 47.86 113.93 46.85 113.71 45.89"/><polygon class="cls-2" points="99.63 48.7 96.32 45.23 95.56 45.9 98.86 49.37 99.63 48.7"/><polygon class="cls-2" points="50.72 30.58 46.7 33.27 47.29 34.08 51.31 31.4 50.72 30.58"/><polygon class="cls-2" points="74.15 25.78 77.12 29.51 77.95 28.91 74.98 25.18 74.15 25.78"/><polygon class="cls-5" points="86.46 17.02 82.54 19.83 83.16 20.62 87.08 17.81 86.46 17.02"/><polygon class="cls-5" points="100.73 36.38 98.15 40.38 99.04 40.9 101.61 36.9 100.73 36.38"/><polygon class="cls-5" points="118.75 54.66 115.3 57.99 116.04 58.69 119.48 55.35 118.75 54.66"/><polygon class="cls-6" points="37.73 28.49 32.88 35.63 33.75 36.17 38.6 29.03 37.73 28.49"/><polygon class="cls-6" points="45.61 14.14 50.5 21.27 51.37 20.73 46.48 13.6 45.61 14.14"/><polygon class="cls-4" points="63.63 25.95 59.64 33.57 60.56 34.02 64.56 26.4 63.63 25.95"/><polygon class="cls-4" points="68.06 13.05 76.79 14.73 77 13.76 68.26 12.08 68.06 13.05"/><polygon class="cls-6" points="82.65 34.7 89.04 40.64 89.76 39.93 83.37 33.99 82.65 34.7"/><polygon class="cls-2" points="99.41 17.36 93.13 23.41 93.87 24.11 100.14 18.06 99.41 17.36"/><polygon class="cls-4" points="106.27 53.38 101.08 60.31 101.92 60.89 107.11 53.96 106.27 53.38"/><polygon class="cls-2" points="111.74 37.2 116.44 44.44 117.32 43.91 112.62 36.67 111.74 37.2"/><polygon class="cls-4" points="120.98 71.63 114.81 65.47 114.06 66.16 120.23 72.31 120.98 71.63"/><polygon class="cls-2" points="108.88 87.16 106.17 83.25 105.3 83.79 108.01 87.7 108.88 87.16"/><polygon class="cls-5" points="101.07 75.61 103.26 71.41 102.33 70.97 100.14 75.16 101.07 75.61"/><polygon class="cls-4" points="98.76 86.66 101.76 82.94 100.94 82.34 97.94 86.05 98.76 86.66"/><polygon class="cls-6" points="107.67 75.86 112.53 76.49 112.67 75.51 107.81 74.88 107.67 75.86"/><polygon class="cls-5" points="75.76 113.23 78.75 109.51 77.93 108.91 74.94 112.62 75.76 113.23"/><polygon class="cls-4" points="84.67 102.43 89.53 103.06 89.66 102.08 84.8 101.45 84.67 102.43"/><polygon class="cls-5" points="98.8 101.24 103.19 99.14 102.72 98.25 98.34 100.35 98.8 101.24"/><polygon class="cls-6" points="59.82 108.59 60.05 103.9 59.02 103.86 58.79 108.54 59.82 108.59"/><polygon class="cls-5" points="60.65 94.86 65.01 92.71 64.53 91.83 60.17 93.98 60.65 94.86"/><polygon class="cls-4" points="27.41 100.55 31.4 97.83 30.8 97.02 26.81 99.74 27.41 100.55"/><polygon class="cls-4" points="39.21 92.7 43.67 94.65 44.1 93.75 39.65 91.8 39.21 92.7"/><polygon class="cls-6" points="18.38 80.27 23.17 79.27 22.95 78.3 18.16 79.31 18.38 80.27"/><polygon class="cls-2" points="32.46 77.46 35.77 80.93 36.53 80.26 33.23 76.79 32.46 77.46"/><polygon class="cls-2" points="81.37 95.58 85.39 92.9 84.8 92.08 80.78 94.76 81.37 95.58"/><polygon class="cls-2" points="57.94 100.38 54.97 96.65 54.14 97.25 57.11 100.98 57.94 100.38"/><polygon class="cls-5" points="45.63 109.14 49.55 106.33 48.93 105.54 45.01 108.35 45.63 109.14"/><polygon class="cls-5" points="31.36 89.78 33.94 85.79 33.05 85.27 30.48 89.26 31.36 89.78"/><polygon class="cls-5" points="13.34 71.5 16.79 68.17 16.05 67.47 12.61 70.81 13.34 71.5"/><polygon class="cls-6" points="94.36 97.67 99.21 90.53 98.34 89.99 93.49 97.13 94.36 97.67"/><polygon class="cls-6" points="86.48 112.02 81.59 104.89 80.72 105.44 85.61 112.56 86.48 112.02"/><polygon class="cls-4" points="68.46 100.21 72.45 92.59 71.53 92.14 67.54 99.76 68.46 100.21"/><polygon class="cls-4" points="64.03 113.11 55.3 111.43 55.09 112.4 63.83 114.08 64.03 113.11"/><polygon class="cls-6" points="49.44 91.46 43.05 85.52 42.33 86.23 48.72 92.17 49.44 91.46"/><polygon class="cls-2" points="32.69 108.8 38.96 102.75 38.23 102.05 31.95 108.1 32.69 108.8"/><polygon class="cls-4" points="25.82 72.78 31.01 65.85 30.17 65.27 24.98 72.2 25.82 72.78"/><polygon class="cls-2" points="20.35 88.96 15.65 81.72 14.77 82.25 19.47 89.49 20.35 88.96"/><path class="cls-1" d="M199,125.78c-35.79,0-64.91-27.88-64.91-62.14S163.2,1.5,199,1.5s64.92,27.88,64.92,62.14S234.79,125.78,199,125.78Zm0-86c-13.8,0-25,10.7-25,23.86s11.22,23.87,25,23.87,25-10.71,25-23.87S212.79,39.78,199,39.78Z"/><path class="cls-2" d="M199,3c35,0,63.42,27.15,63.42,60.64S234,124.28,199,124.28s-63.41-27.15-63.41-60.64S164,3,199,3m0,86c14.65,0,26.53-11.36,26.53-25.37S213.64,38.28,199,38.28s-26.52,11.35-26.52,25.36S184.34,89,199,89m0-89c-36.62,0-66.41,28.55-66.41,63.64s29.79,63.64,66.41,63.64,66.42-28.55,66.42-63.64S235.62,0,199,0Zm0,86c-13,0-23.52-10-23.52-22.37S186,41.28,199,41.28s23.53,10,23.53,22.36S212,86,199,86Z"/><path class="cls-7" d="M256.82,47.2a29.58,29.58,0,0,0-5.06-10.32l-9.92-13a29.84,29.84,0,0,0-12.65-9.58L212.92,7.84A30.43,30.43,0,0,0,196,6.2L181.35,9A30,30,0,0,0,167,16L152.52,28.75a29.4,29.4,0,0,0-9,14.46l-4.74,17.73a14.18,14.18,0,0,0-.47,3.36,51.49,51.49,0,0,0,6.81,26.88,55.62,55.62,0,0,0,23.1,21.51c1.37.71,30.51,15.31,58.65.89,0,0,17.43-8.93,28.39-31a61.63,61.63,0,0,0,4.25-12.28c1.16-5.2,1.22-10.25.21-12.07Zm-35,33c-6.7,8.25-20,12.29-31.5,9.31-2.3-.6-11.06-2.88-16.27-11.2a24,24,0,0,1-3.35-15.63l1.83-9.17a16.19,16.19,0,0,1,7-10.36L182.75,41a23.38,23.38,0,0,1,11.18-3.77l6.53-.47a24.23,24.23,0,0,1,14.35,3.48l2.68,1.64A23.54,23.54,0,0,1,228.26,57c.2.91.39,1.83.59,2.75C229.22,62.05,227.87,72.71,221.8,80.19Z"/><polygon class="cls-4" points="143.69 54.53 149.86 60.69 150.61 60 144.44 53.85 143.69 54.53"/><polygon class="cls-2" points="155.8 39 158.5 42.91 159.37 42.37 156.66 38.46 155.8 39"/><polygon class="cls-5" points="163.6 50.55 161.41 54.75 162.34 55.19 164.53 51 163.6 50.55"/><polygon class="cls-4" points="165.91 39.5 162.91 43.22 163.74 43.82 166.73 40.11 165.91 39.5"/><polygon class="cls-6" points="157 50.3 152.14 49.67 152 50.66 156.87 51.28 157 50.3"/><polygon class="cls-5" points="188.91 12.93 185.92 16.65 186.74 17.25 189.73 13.54 188.91 12.93"/><polygon class="cls-4" points="180.01 23.73 175.15 23.1 175.01 24.09 179.87 24.71 180.01 23.73"/><polygon class="cls-5" points="165.87 24.92 161.49 27.02 161.95 27.91 166.34 25.81 165.87 24.92"/><polygon class="cls-6" points="204.85 17.57 204.62 22.26 205.66 22.3 205.88 17.62 204.85 17.57"/><polygon class="cls-5" points="204.02 31.3 199.66 33.45 200.14 34.34 204.5 32.18 204.02 31.3"/><polygon class="cls-4" points="237.26 25.61 233.27 28.33 233.87 29.14 237.87 26.42 237.26 25.61"/><polygon class="cls-4" points="225.46 33.46 221 31.51 220.57 32.41 225.03 34.36 225.46 33.46"/><polygon class="cls-6" points="246.29 45.89 241.5 46.9 241.72 47.86 246.51 46.85 246.29 45.89"/><polygon class="cls-2" points="232.21 48.7 228.9 45.23 228.14 45.9 231.44 49.37 232.21 48.7"/><polygon class="cls-2" points="183.3 30.58 179.28 33.27 179.87 34.08 183.9 31.4 183.3 30.58"/><polygon class="cls-2" points="206.73 25.78 209.7 29.51 210.53 28.91 207.56 25.18 206.73 25.78"/><polygon class="cls-5" points="219.04 17.02 215.12 19.83 215.74 20.62 219.67 17.81 219.04 17.02"/><polygon class="cls-5" points="233.31 36.38 230.73 40.38 231.62 40.9 234.19 36.9 233.31 36.38"/><polygon class="cls-5" points="251.33 54.66 247.88 57.99 248.62 58.69 252.06 55.35 251.33 54.66"/><polygon class="cls-6" points="170.31 28.49 165.46 35.63 166.33 36.17 171.18 29.03 170.31 28.49"/><polygon class="cls-6" points="178.19 14.14 183.08 21.27 183.95 20.73 179.06 13.6 178.19 14.14"/><polygon class="cls-4" points="196.21 25.95 192.22 33.57 193.14 34.02 197.14 26.4 196.21 25.95"/><polygon class="cls-4" points="200.64 13.05 209.37 14.73 209.58 13.76 200.84 12.08 200.64 13.05"/><polygon class="cls-6" points="215.23 34.7 221.62 40.64 222.34 39.93 215.95 33.99 215.23 34.7"/><polygon class="cls-2" points="231.99 17.36 225.71 23.41 226.45 24.11 232.72 18.06 231.99 17.36"/><polygon class="cls-4" points="238.85 53.38 233.66 60.31 234.5 60.89 239.69 53.96 238.85 53.38"/><polygon class="cls-2" points="244.32 37.2 249.02 44.44 249.9 43.91 245.2 36.67 244.32 37.2"/><polygon class="cls-4" points="253.56 71.63 247.39 65.47 246.64 66.16 252.81 72.31 253.56 71.63"/><polygon class="cls-2" points="241.46 87.16 238.75 83.25 237.88 83.79 240.59 87.7 241.46 87.16"/><polygon class="cls-5" points="233.65 75.61 235.84 71.41 234.91 70.97 232.72 75.16 233.65 75.61"/><polygon class="cls-4" points="231.34 86.66 234.34 82.94 233.52 82.34 230.52 86.05 231.34 86.66"/><polygon class="cls-6" points="240.25 75.86 245.11 76.49 245.25 75.51 240.39 74.88 240.25 75.86"/><polygon class="cls-5" points="208.34 113.23 211.33 109.51 210.51 108.91 207.52 112.62 208.34 113.23"/><polygon class="cls-4" points="217.25 102.43 222.11 103.06 222.24 102.08 217.38 101.45 217.25 102.43"/><polygon class="cls-5" points="231.38 101.24 235.77 99.14 235.3 98.25 230.92 100.35 231.38 101.24"/><polygon class="cls-6" points="192.4 108.59 192.63 103.9 191.6 103.86 191.37 108.54 192.4 108.59"/><polygon class="cls-5" points="193.23 94.86 197.59 92.71 197.11 91.83 192.75 93.98 193.23 94.86"/><polygon class="cls-4" points="159.99 100.55 163.98 97.83 163.38 97.02 159.39 99.74 159.99 100.55"/><polygon class="cls-4" points="171.79 92.7 176.25 94.65 176.69 93.75 172.23 91.8 171.79 92.7"/><polygon class="cls-6" points="150.96 80.27 155.75 79.27 155.53 78.3 150.74 79.31 150.96 80.27"/><polygon class="cls-2" points="165.04 77.46 168.35 80.93 169.11 80.26 165.81 76.79 165.04 77.46"/><polygon class="cls-2" points="213.95 95.58 217.97 92.9 217.38 92.08 213.36 94.76 213.95 95.58"/><polygon class="cls-2" points="190.52 100.38 187.55 96.65 186.72 97.25 189.69 100.98 190.52 100.38"/><polygon class="cls-5" points="178.21 109.14 182.13 106.33 181.51 105.54 177.59 108.35 178.21 109.14"/><polygon class="cls-5" points="163.94 89.78 166.52 85.79 165.64 85.27 163.06 89.26 163.94 89.78"/><polygon class="cls-5" points="145.92 71.5 149.37 68.17 148.63 67.47 145.19 70.81 145.92 71.5"/><polygon class="cls-6" points="226.94 97.67 231.79 90.53 230.92 89.99 226.07 97.13 226.94 97.67"/><polygon class="cls-6" points="219.06 112.02 214.17 104.89 213.31 105.44 218.19 112.56 219.06 112.02"/><polygon class="cls-4" points="201.04 100.21 205.03 92.59 204.11 92.14 200.12 99.76 201.04 100.21"/><polygon class="cls-4" points="196.61 113.11 187.88 111.43 187.67 112.4 196.41 114.08 196.61 113.11"/><polygon class="cls-6" points="182.02 91.46 175.63 85.52 174.91 86.23 181.3 92.17 182.02 91.46"/><polygon class="cls-2" points="165.27 108.8 171.54 102.75 170.81 102.05 164.53 108.1 165.27 108.8"/><polygon class="cls-4" points="158.4 72.78 163.59 65.85 162.75 65.27 157.56 72.2 158.4 72.78"/><polygon class="cls-2" points="152.94 88.96 148.24 81.72 147.35 82.25 152.06 89.49 152.94 88.96"/><path class="cls-1" d="M331.58,125.78c-35.8,0-64.92-27.88-64.92-62.14S295.78,1.5,331.58,1.5s64.91,27.88,64.91,62.14S367.37,125.78,331.58,125.78Zm0-86c-13.8,0-25,10.7-25,23.86s11.23,23.87,25,23.87,25-10.71,25-23.87S345.37,39.78,331.58,39.78Z"/><path class="cls-2" d="M331.58,3C366.6,3,395,30.15,395,63.64s-28.39,60.64-63.41,60.64-63.42-27.15-63.42-60.64S296.55,3,331.58,3m0,86c14.64,0,26.52-11.36,26.52-25.37s-11.88-25.36-26.52-25.36-26.53,11.35-26.53,25.36S316.92,89,331.58,89m0-89C295,0,265.16,28.55,265.16,63.64s29.79,63.64,66.42,63.64S398,98.73,398,63.64,368.2,0,331.58,0Zm0,86c-13,0-23.53-10-23.53-22.37s10.55-22.36,23.53-22.36,23.52,10,23.52,22.36S344.55,86,331.58,86Z"/><path class="cls-8" d="M389.4,47.2a29.58,29.58,0,0,0-5.06-10.32l-9.92-13a29.84,29.84,0,0,0-12.65-9.58L345.5,7.84A30.43,30.43,0,0,0,328.59,6.2L313.93,9a30,30,0,0,0-14.34,7L285.1,28.75a29.4,29.4,0,0,0-9,14.46l-4.74,17.73a14.18,14.18,0,0,0-.47,3.36,51.49,51.49,0,0,0,6.81,26.88,55.62,55.62,0,0,0,23.1,21.51c1.37.71,30.51,15.31,58.65.89,0,0,17.43-8.93,28.39-31a60.93,60.93,0,0,0,4.25-12.28c1.16-5.2,1.22-10.25.21-12.07Zm-35,33c-6.7,8.25-20,12.29-31.5,9.31-2.3-.6-11.06-2.88-16.27-11.2a24,24,0,0,1-3.35-15.63l1.83-9.17a16.22,16.22,0,0,1,7-10.36L315.33,41a23.38,23.38,0,0,1,11.18-3.77l6.53-.47a24.23,24.23,0,0,1,14.35,3.48l2.68,1.64A23.54,23.54,0,0,1,360.84,57c.2.91.39,1.83.59,2.75C361.8,62.05,360.45,72.71,354.38,80.19Z"/><polygon class="cls-4" points="276.27 54.53 282.44 60.69 283.19 60 277.02 53.85 276.27 54.53"/><polygon class="cls-2" points="288.38 39 291.08 42.91 291.95 42.37 289.24 38.46 288.38 39"/><polygon class="cls-5" points="296.18 50.55 293.99 54.75 294.92 55.19 297.11 51 296.18 50.55"/><polygon class="cls-4" points="298.49 39.5 295.5 43.22 296.32 43.82 299.31 40.11 298.49 39.5"/><polygon class="cls-6" points="289.58 50.3 284.72 49.67 284.58 50.66 289.44 51.28 289.58 50.3"/><polygon class="cls-5" points="321.49 12.93 318.5 16.65 319.32 17.25 322.31 13.54 321.49 12.93"/><polygon class="cls-4" points="312.59 23.73 307.73 23.1 307.59 24.09 312.45 24.71 312.59 23.73"/><polygon class="cls-5" points="298.45 24.92 294.07 27.02 294.53 27.91 298.92 25.81 298.45 24.92"/><polygon class="cls-6" points="337.43 17.57 337.2 22.26 338.24 22.3 338.46 17.62 337.43 17.57"/><polygon class="cls-5" points="336.6 31.3 332.24 33.45 332.72 34.34 337.08 32.18 336.6 31.3"/><polygon class="cls-4" points="369.85 25.61 365.85 28.33 366.45 29.14 370.45 26.42 369.85 25.61"/><polygon class="cls-4" points="358.04 33.46 353.58 31.51 353.15 32.41 357.61 34.36 358.04 33.46"/><polygon class="cls-6" points="378.87 45.89 374.08 46.9 374.3 47.86 379.09 46.85 378.87 45.89"/><polygon class="cls-2" points="364.79 48.7 361.48 45.23 360.72 45.9 364.03 49.37 364.79 48.7"/><polygon class="cls-2" points="315.88 30.58 311.86 33.27 312.45 34.08 316.48 31.4 315.88 30.58"/><polygon class="cls-2" points="339.31 25.78 342.28 29.51 343.11 28.91 340.14 25.18 339.31 25.78"/><polygon class="cls-5" points="351.63 17.02 347.7 19.83 348.32 20.62 352.25 17.81 351.63 17.02"/><polygon class="cls-5" points="365.89 36.38 363.31 40.38 364.2 40.9 366.77 36.9 365.89 36.38"/><polygon class="cls-5" points="383.91 54.66 380.46 57.99 381.2 58.69 384.64 55.35 383.91 54.66"/><polygon class="cls-6" points="302.9 28.49 298.04 35.63 298.91 36.17 303.76 29.03 302.9 28.49"/><polygon class="cls-6" points="310.77 14.14 315.66 21.27 316.53 20.73 311.64 13.6 310.77 14.14"/><polygon class="cls-4" points="328.79 25.95 324.8 33.57 325.73 34.02 329.72 26.4 328.79 25.95"/><polygon class="cls-4" points="333.22 13.05 341.95 14.73 342.16 13.76 333.42 12.08 333.22 13.05"/><polygon class="cls-6" points="347.81 34.7 354.2 40.64 354.92 39.93 348.53 33.99 347.81 34.7"/><polygon class="cls-2" points="364.57 17.36 358.29 23.41 359.03 24.11 365.3 18.06 364.57 17.36"/><polygon class="cls-4" points="371.43 53.38 366.24 60.31 367.08 60.89 372.27 53.96 371.43 53.38"/><polygon class="cls-2" points="376.9 37.2 381.6 44.44 382.48 43.91 377.78 36.67 376.9 37.2"/><polygon class="cls-4" points="386.14 71.63 379.97 65.47 379.22 66.16 385.39 72.31 386.14 71.63"/><polygon class="cls-2" points="374.04 87.16 371.33 83.25 370.46 83.79 373.17 87.7 374.04 87.16"/><polygon class="cls-5" points="366.23 75.61 368.42 71.41 367.49 70.97 365.3 75.16 366.23 75.61"/><polygon class="cls-4" points="363.92 86.66 366.92 82.94 366.1 82.34 363.1 86.05 363.92 86.66"/><polygon class="cls-6" points="372.83 75.86 377.69 76.49 377.83 75.51 372.97 74.88 372.83 75.86"/><polygon class="cls-5" points="340.92 113.23 343.91 109.51 343.09 108.91 340.1 112.62 340.92 113.23"/><polygon class="cls-4" points="349.83 102.43 354.69 103.06 354.82 102.08 349.96 101.45 349.83 102.43"/><polygon class="cls-5" points="363.96 101.24 368.35 99.14 367.88 98.25 363.5 100.35 363.96 101.24"/><polygon class="cls-6" points="324.98 108.59 325.21 103.9 324.18 103.86 323.95 108.54 324.98 108.59"/><polygon class="cls-5" points="325.81 94.86 330.17 92.71 329.69 91.83 325.33 93.98 325.81 94.86"/><polygon class="cls-4" points="292.57 100.55 296.56 97.83 295.96 97.02 291.97 99.74 292.57 100.55"/><polygon class="cls-4" points="304.38 92.7 308.83 94.65 309.27 93.75 304.81 91.8 304.38 92.7"/><polygon class="cls-6" points="283.54 80.27 288.33 79.27 288.11 78.3 283.32 79.31 283.54 80.27"/><polygon class="cls-2" points="297.62 77.46 300.93 80.93 301.69 80.26 298.39 76.79 297.62 77.46"/><polygon class="cls-2" points="346.53 95.58 350.55 92.9 349.96 92.08 345.94 94.76 346.53 95.58"/><polygon class="cls-2" points="323.1 100.38 320.13 96.65 319.31 97.25 322.27 100.98 323.1 100.38"/><polygon class="cls-5" points="310.79 109.14 314.71 106.33 314.09 105.54 310.17 108.35 310.79 109.14"/><polygon class="cls-5" points="296.52 89.78 299.1 85.79 298.22 85.27 295.64 89.26 296.52 89.78"/><polygon class="cls-5" points="278.5 71.5 281.95 68.17 281.21 67.47 277.77 70.81 278.5 71.5"/><polygon class="cls-6" points="359.52 97.67 364.37 90.53 363.5 89.99 358.65 97.13 359.52 97.67"/><polygon class="cls-6" points="351.64 112.02 346.75 104.89 345.89 105.44 350.77 112.56 351.64 112.02"/><polygon class="cls-4" points="333.62 100.21 337.61 92.59 336.69 92.14 332.7 99.76 333.62 100.21"/><polygon class="cls-4" points="329.19 113.11 320.46 111.43 320.25 112.4 328.99 114.08 329.19 113.11"/><polygon class="cls-6" points="314.6 91.46 308.21 85.52 307.49 86.23 313.88 92.17 314.6 91.46"/><polygon class="cls-2" points="297.85 108.8 304.12 102.75 303.39 102.05 297.11 108.1 297.85 108.8"/><polygon class="cls-4" points="290.98 72.78 296.17 65.85 295.33 65.27 290.14 72.2 290.98 72.78"/><polygon class="cls-2" points="285.51 88.96 280.81 81.72 279.94 82.25 284.63 89.49 285.51 88.96"/><path class="cls-1" d="M464.16,125.78c-35.8,0-64.92-27.88-64.92-62.14S428.36,1.5,464.16,1.5s64.91,27.88,64.91,62.14S500,125.78,464.16,125.78Zm0-86c-13.8,0-25,10.7-25,23.86s11.23,23.87,25,23.87,25-10.71,25-23.87S478,39.78,464.16,39.78Z"/><path class="cls-2" d="M464.16,3c35,0,63.41,27.15,63.41,60.64s-28.39,60.64-63.41,60.64-63.42-27.15-63.42-60.64S429.13,3,464.16,3m0,86c14.64,0,26.52-11.36,26.52-25.37S478.8,38.28,464.16,38.28s-26.53,11.35-26.53,25.36S449.5,89,464.16,89m0-89c-36.63,0-66.42,28.55-66.42,63.64s29.79,63.64,66.42,63.64,66.41-28.55,66.41-63.64S500.78,0,464.16,0Zm0,86c-13,0-23.53-10-23.53-22.37s10.55-22.36,23.53-22.36,23.52,10,23.52,22.36S477.13,86,464.16,86Z"/><path class="cls-3" d="M522,47.2a29.58,29.58,0,0,0-5.06-10.32l-9.92-13a29.84,29.84,0,0,0-12.65-9.58L478.08,7.84A30.43,30.43,0,0,0,461.17,6.2L446.51,9a30,30,0,0,0-14.34,7L417.68,28.75a29.4,29.4,0,0,0-9,14.46L404,60.94a13.7,13.7,0,0,0-.48,3.36,51.49,51.49,0,0,0,6.81,26.88,55.62,55.62,0,0,0,23.1,21.51c1.37.71,30.51,15.31,58.65.89,0,0,17.43-8.93,28.39-31a60.25,60.25,0,0,0,4.25-12.28c1.16-5.2,1.22-10.25.21-12.07Zm-35,33c-6.7,8.25-20,12.29-31.5,9.31-2.3-.6-11.06-2.88-16.26-11.2a24,24,0,0,1-3.36-15.63l1.83-9.17a16.22,16.22,0,0,1,7-10.36L447.91,41a23.38,23.38,0,0,1,11.18-3.77l6.53-.47A24.23,24.23,0,0,1,480,40.26l2.68,1.64A23.54,23.54,0,0,1,493.42,57c.2.91.4,1.83.59,2.75C494.38,62.05,493,72.71,487,80.19Z"/><polygon class="cls-4" points="408.86 54.53 415.02 60.69 415.77 60 409.6 53.85 408.86 54.53"/><polygon class="cls-2" points="420.96 39 423.66 42.91 424.53 42.37 421.82 38.46 420.96 39"/><polygon class="cls-5" points="428.76 50.55 426.57 54.75 427.5 55.19 429.69 51 428.76 50.55"/><polygon class="cls-4" points="431.07 39.5 428.08 43.22 428.9 43.82 431.89 40.11 431.07 39.5"/><polygon class="cls-6" points="422.16 50.3 417.3 49.67 417.17 50.66 422.03 51.28 422.16 50.3"/><polygon class="cls-5" points="454.07 12.93 451.08 16.65 451.9 17.25 454.89 13.54 454.07 12.93"/><polygon class="cls-4" points="445.17 23.73 440.31 23.1 440.17 24.09 445.03 24.71 445.17 23.73"/><polygon class="cls-5" points="431.03 24.92 426.65 27.02 427.11 27.91 431.5 25.81 431.03 24.92"/><polygon class="cls-6" points="470.01 17.57 469.78 22.26 470.82 22.3 471.04 17.62 470.01 17.57"/><polygon class="cls-5" points="469.18 31.3 464.82 33.45 465.3 34.34 469.66 32.18 469.18 31.3"/><polygon class="cls-4" points="502.43 25.61 498.43 28.33 499.03 29.14 503.03 26.42 502.43 25.61"/><polygon class="cls-4" points="490.62 33.46 486.16 31.51 485.73 32.41 490.19 34.36 490.62 33.46"/><polygon class="cls-6" points="511.45 45.89 506.66 46.9 506.88 47.86 511.67 46.85 511.45 45.89"/><polygon class="cls-2" points="497.37 48.7 494.06 45.23 493.3 45.9 496.61 49.37 497.37 48.7"/><polygon class="cls-2" points="448.46 30.58 444.44 33.27 445.03 34.08 449.06 31.4 448.46 30.58"/><polygon class="cls-2" points="471.89 25.78 474.86 29.51 475.69 28.91 472.72 25.18 471.89 25.78"/><polygon class="cls-5" points="484.21 17.02 480.28 19.83 480.9 20.62 484.83 17.81 484.21 17.02"/><polygon class="cls-5" points="498.47 36.38 495.89 40.38 496.78 40.9 499.35 36.9 498.47 36.38"/><polygon class="cls-5" points="516.49 54.66 513.04 57.99 513.78 58.69 517.23 55.35 516.49 54.66"/><polygon class="cls-6" points="435.48 28.49 430.62 35.63 431.49 36.17 436.35 29.03 435.48 28.49"/><polygon class="cls-6" points="443.35 14.14 448.24 21.27 449.11 20.73 444.22 13.6 443.35 14.14"/><polygon class="cls-4" points="461.37 25.95 457.38 33.57 458.31 34.02 462.3 26.4 461.37 25.95"/><polygon class="cls-4" points="465.8 13.05 474.53 14.73 474.74 13.76 466 12.08 465.8 13.05"/><polygon class="cls-6" points="480.39 34.7 486.78 40.64 487.5 39.93 481.11 33.99 480.39 34.7"/><polygon class="cls-2" points="497.15 17.36 490.87 23.41 491.61 24.11 497.88 18.06 497.15 17.36"/><polygon class="cls-4" points="504.01 53.38 498.82 60.31 499.67 60.89 504.85 53.96 504.01 53.38"/><polygon class="cls-2" points="509.48 37.2 514.18 44.44 515.06 43.91 510.36 36.67 509.48 37.2"/><polygon class="cls-4" points="518.72 71.63 512.55 65.47 511.81 66.16 517.97 72.31 518.72 71.63"/><polygon class="cls-2" points="506.62 87.16 503.91 83.25 503.05 83.79 505.75 87.7 506.62 87.16"/><polygon class="cls-5" points="498.81 75.61 501 71.41 500.07 70.97 497.88 75.16 498.81 75.61"/><polygon class="cls-4" points="496.5 86.66 499.5 82.94 498.68 82.34 495.68 86.05 496.5 86.66"/><polygon class="cls-6" points="505.41 75.86 510.27 76.49 510.41 75.51 505.55 74.88 505.41 75.86"/><polygon class="cls-5" points="473.5 113.23 476.5 109.51 475.67 108.91 472.68 112.62 473.5 113.23"/><polygon class="cls-4" points="482.41 102.43 487.27 103.06 487.4 102.08 482.55 101.45 482.41 102.43"/><polygon class="cls-5" points="496.54 101.24 500.93 99.14 500.46 98.25 496.08 100.35 496.54 101.24"/><polygon class="cls-6" points="457.56 108.59 457.79 103.9 456.76 103.86 456.53 108.54 457.56 108.59"/><polygon class="cls-5" points="458.39 94.86 462.75 92.71 462.27 91.83 457.92 93.98 458.39 94.86"/><polygon class="cls-4" points="425.15 100.55 429.14 97.83 428.54 97.02 424.55 99.74 425.15 100.55"/><polygon class="cls-4" points="436.96 92.7 441.42 94.65 441.85 93.75 437.39 91.8 436.96 92.7"/><polygon class="cls-6" points="416.13 80.27 420.91 79.27 420.69 78.3 415.9 79.31 416.13 80.27"/><polygon class="cls-2" points="430.2 77.46 433.51 80.93 434.27 80.26 430.97 76.79 430.2 77.46"/><polygon class="cls-2" points="479.11 95.58 483.13 92.9 482.54 92.08 478.52 94.76 479.11 95.58"/><polygon class="cls-2" points="455.68 100.38 452.71 96.65 451.88 97.25 454.85 100.98 455.68 100.38"/><polygon class="cls-5" points="443.37 109.14 447.29 106.33 446.67 105.54 442.75 108.35 443.37 109.14"/><polygon class="cls-5" points="429.1 89.78 431.68 85.79 430.8 85.27 428.22 89.26 429.1 89.78"/><polygon class="cls-5" points="411.08 71.5 414.53 68.17 413.79 67.47 410.35 70.81 411.08 71.5"/><polygon class="cls-6" points="492.1 97.67 496.95 90.53 496.08 89.99 491.23 97.13 492.1 97.67"/><polygon class="cls-6" points="484.22 112.02 479.33 104.89 478.47 105.44 483.36 112.56 484.22 112.02"/><polygon class="cls-4" points="466.2 100.21 470.19 92.59 469.27 92.14 465.28 99.76 466.2 100.21"/><polygon class="cls-4" points="461.77 113.11 453.04 111.43 452.83 112.4 461.57 114.08 461.77 113.11"/><polygon class="cls-6" points="447.18 91.46 440.79 85.52 440.07 86.23 446.46 92.17 447.18 91.46"/><polygon class="cls-2" points="430.43 108.8 436.7 102.75 435.97 102.05 429.69 108.1 430.43 108.8"/><polygon class="cls-4" points="423.56 72.78 428.75 65.85 427.91 65.27 422.72 72.2 423.56 72.78"/><polygon class="cls-2" points="418.1 88.96 413.4 81.72 412.51 82.25 417.22 89.49 418.1 88.96"/><path class="cls-1" d="M66.41,253.44c-35.79,0-64.91-27.88-64.91-62.15s29.12-62.14,64.91-62.14,64.92,27.88,64.92,62.14S102.21,253.44,66.41,253.44Zm0-86c-13.8,0-25,10.71-25,23.86s11.22,23.87,25,23.87,25-10.71,25-23.87S80.21,167.43,66.41,167.43Z"/><path class="cls-2" d="M66.41,130.65c35,0,63.42,27.15,63.42,60.64s-28.39,60.65-63.42,60.65S3,224.78,3,191.29s28.39-60.64,63.41-60.64m0,86c14.65,0,26.53-11.36,26.53-25.37s-11.88-25.36-26.53-25.36-26.52,11.36-26.52,25.36,11.87,25.37,26.52,25.37m0-89C29.79,127.65,0,156.2,0,191.29s29.79,63.65,66.41,63.65,66.42-28.55,66.42-63.65S103,127.65,66.41,127.65Zm0,86c-13,0-23.52-10-23.52-22.37s10.55-22.36,23.52-22.36,23.53,10,23.53,22.36-10.55,22.37-23.53,22.37Z"/><path class="cls-8" d="M124.24,174.86a29.27,29.27,0,0,0-5.07-10.32l-9.91-13A29.92,29.92,0,0,0,96.61,142l-16.27-6.5a30.25,30.25,0,0,0-16.91-1.64l-14.67,2.77a30.14,30.14,0,0,0-14.33,7L19.94,156.4a29.38,29.38,0,0,0-9,14.47L6.21,188.59A14.25,14.25,0,0,0,5.74,192a51.53,51.53,0,0,0,6.81,26.89,55.58,55.58,0,0,0,23.1,21.5c1.37.72,30.51,15.32,58.65.89,0,0,17.43-8.93,28.39-31a61.85,61.85,0,0,0,4.25-12.29c1.16-5.2,1.22-10.25.21-12.06Zm-35,33c-6.7,8.26-20,12.3-31.5,9.31-2.3-.59-11.06-2.87-16.27-11.19a24,24,0,0,1-3.35-15.63l1.83-9.18a16.24,16.24,0,0,1,7-10.36l3.22-2.11a23.46,23.46,0,0,1,11.18-3.78l6.53-.47a24.23,24.23,0,0,1,14.35,3.48l2.68,1.64a23.54,23.54,0,0,1,10.77,15.11c.2.92.39,1.84.59,2.75C96.64,189.71,95.29,200.37,89.22,207.84Z"/><polygon class="cls-4" points="11.11 182.19 17.28 188.34 18.03 187.65 11.86 181.5 11.11 182.19"/><polygon class="cls-2" points="23.22 166.66 25.92 170.57 26.79 170.02 24.08 166.11 23.22 166.66"/><polygon class="cls-5" points="31.02 178.21 28.83 182.41 29.76 182.85 31.95 178.65 31.02 178.21"/><polygon class="cls-4" points="33.33 167.16 30.34 170.87 31.16 171.47 34.15 167.76 33.33 167.16"/><polygon class="cls-6" points="24.42 177.95 19.56 177.33 19.42 178.31 24.28 178.94 24.42 177.95"/><polygon class="cls-5" points="56.33 140.59 53.34 144.3 54.16 144.91 57.15 141.19 56.33 140.59"/><polygon class="cls-4" points="47.43 151.38 42.56 150.76 42.43 151.74 47.29 152.37 47.43 151.38"/><polygon class="cls-5" points="33.29 152.57 28.91 154.67 29.37 155.56 33.76 153.46 33.29 152.57"/><polygon class="cls-6" points="72.27 145.23 72.04 149.91 73.08 149.96 73.3 145.27 72.27 145.23"/><polygon class="cls-5" points="71.44 158.96 67.08 161.11 67.56 161.99 71.92 159.84 71.44 158.96"/><polygon class="cls-4" points="104.68 153.26 100.69 155.98 101.29 156.79 105.28 154.07 104.68 153.26"/><polygon class="cls-4" points="92.88 161.11 88.42 159.16 87.99 160.06 92.44 162.01 92.88 161.11"/><polygon class="cls-6" points="113.71 173.54 108.92 174.55 109.14 175.52 113.93 174.51 113.71 173.54"/><polygon class="cls-2" points="99.63 176.35 96.32 172.89 95.56 173.56 98.86 177.02 99.63 176.35"/><polygon class="cls-2" points="50.72 158.24 46.7 160.92 47.29 161.73 51.31 159.05 50.72 158.24"/><polygon class="cls-2" points="74.15 153.43 77.12 157.16 77.95 156.56 74.98 152.83 74.15 153.43"/><polygon class="cls-5" points="86.46 144.67 82.54 147.48 83.16 148.28 87.08 145.47 86.46 144.67"/><polygon class="cls-5" points="100.73 164.04 98.15 168.03 99.04 168.55 101.61 164.56 100.73 164.04"/><polygon class="cls-5" points="118.75 182.31 115.3 185.65 116.04 186.34 119.48 183 118.75 182.31"/><polygon class="cls-6" points="37.73 156.14 32.88 163.29 33.75 163.83 38.6 156.68 37.73 156.14"/><polygon class="cls-6" points="45.61 141.8 50.5 148.92 51.37 148.38 46.48 141.25 45.61 141.8"/><polygon class="cls-4" points="63.63 153.61 59.64 161.23 60.56 161.67 64.56 154.05 63.63 153.61"/><polygon class="cls-4" points="68.06 140.7 76.79 142.38 77 141.41 68.26 139.73 68.06 140.7"/><polygon class="cls-6" points="82.65 162.36 89.04 168.3 89.76 167.59 83.37 161.65 82.65 162.36"/><polygon class="cls-2" points="99.41 145.02 93.13 151.07 93.87 151.76 100.14 145.72 99.41 145.02"/><polygon class="cls-4" points="106.27 181.04 101.08 187.96 101.92 188.54 107.11 181.61 106.27 181.04"/><polygon class="cls-2" points="111.74 164.85 116.44 172.09 117.32 171.57 112.62 164.33 111.74 164.85"/><polygon class="cls-4" points="120.98 199.28 114.81 193.13 114.06 193.81 120.23 199.97 120.98 199.28"/><polygon class="cls-2" points="108.88 214.81 106.17 210.9 105.3 211.45 108.01 215.36 108.88 214.81"/><polygon class="cls-5" points="101.07 203.26 103.26 199.06 102.33 198.62 100.14 202.82 101.07 203.26"/><polygon class="cls-4" points="98.76 214.31 101.76 210.6 100.94 209.99 97.94 213.71 98.76 214.31"/><polygon class="cls-6" points="107.67 203.51 112.53 204.14 112.67 203.16 107.81 202.53 107.67 203.51"/><polygon class="cls-5" points="75.76 240.88 78.75 237.17 77.93 236.56 74.94 240.28 75.76 240.88"/><polygon class="cls-4" points="84.67 230.08 89.53 230.71 89.66 229.73 84.8 229.1 84.67 230.08"/><polygon class="cls-5" points="98.8 228.89 103.19 226.79 102.72 225.91 98.34 228.01 98.8 228.89"/><polygon class="cls-6" points="59.82 236.24 60.05 231.56 59.02 231.51 58.79 236.19 59.82 236.24"/><polygon class="cls-5" points="60.65 222.51 65.01 220.36 64.53 219.48 60.17 221.63 60.65 222.51"/><polygon class="cls-4" points="27.41 228.2 31.4 225.49 30.8 224.68 26.81 227.4 27.41 228.2"/><polygon class="cls-4" points="39.21 220.35 43.67 222.31 44.1 221.4 39.65 219.45 39.21 220.35"/><polygon class="cls-6" points="18.38 207.93 23.17 206.92 22.95 205.95 18.16 206.96 18.38 207.93"/><polygon class="cls-2" points="32.46 205.12 35.77 208.58 36.53 207.91 33.23 204.45 32.46 205.12"/><polygon class="cls-2" points="81.37 223.23 85.39 220.55 84.8 219.74 80.78 222.42 81.37 223.23"/><polygon class="cls-2" points="57.94 228.04 54.97 224.3 54.14 224.9 57.11 228.64 57.94 228.04"/><polygon class="cls-5" points="45.63 236.79 49.55 233.98 48.93 233.19 45.01 236 45.63 236.79"/><polygon class="cls-5" points="31.36 217.43 33.94 213.44 33.05 212.92 30.48 216.91 31.36 217.43"/><polygon class="cls-5" points="13.34 199.16 16.79 195.82 16.05 195.12 12.61 198.46 13.34 199.16"/><polygon class="cls-6" points="94.36 225.33 99.21 218.18 98.34 217.64 93.49 224.79 94.36 225.33"/><polygon class="cls-6" points="86.48 239.67 81.59 232.54 80.72 233.09 85.61 240.21 86.48 239.67"/><polygon class="cls-4" points="68.46 227.86 72.45 220.24 71.53 219.8 67.54 227.42 68.46 227.86"/><polygon class="cls-4" points="64.03 240.76 55.3 239.08 55.09 240.05 63.83 241.74 64.03 240.76"/><polygon class="cls-6" points="49.44 219.11 43.05 213.17 42.33 213.88 48.72 219.82 49.44 219.11"/><polygon class="cls-2" points="32.69 236.45 38.96 230.4 38.23 229.7 31.95 235.75 32.69 236.45"/><polygon class="cls-4" points="25.82 200.43 31.01 193.5 30.17 192.93 24.98 199.85 25.82 200.43"/><polygon class="cls-2" points="20.35 216.62 15.65 209.38 14.77 209.9 19.47 217.14 20.35 216.62"/><path class="cls-1" d="M199,253.44c-35.79,0-64.91-27.88-64.91-62.15S163.2,129.15,199,129.15s64.92,27.88,64.92,62.14S234.79,253.44,199,253.44Zm0-86c-13.8,0-25,10.71-25,23.86s11.22,23.87,25,23.87,25-10.71,25-23.87S212.79,167.43,199,167.43Z"/><path class="cls-2" d="M199,130.65c35,0,63.42,27.15,63.42,60.64S234,251.94,199,251.94s-63.41-27.16-63.41-60.65S164,130.65,199,130.65m0,86c14.65,0,26.53-11.36,26.53-25.37S213.64,165.93,199,165.93s-26.52,11.36-26.52,25.36,11.87,25.37,26.52,25.37m0-89c-36.62,0-66.41,28.55-66.41,63.64s29.79,63.65,66.41,63.65,66.42-28.55,66.42-63.65S235.62,127.65,199,127.65Zm0,86c-13,0-23.52-10-23.52-22.37S186,168.93,199,168.93s23.53,10,23.53,22.36S212,213.66,199,213.66Z"/><path class="cls-3" d="M256.82,174.86a29.41,29.41,0,0,0-5.06-10.32l-9.92-13A29.92,29.92,0,0,0,229.19,142l-16.27-6.5A30.25,30.25,0,0,0,196,133.86l-14.66,2.77a30.13,30.13,0,0,0-14.34,7L152.52,156.4a29.38,29.38,0,0,0-9,14.47l-4.74,17.72a14.25,14.25,0,0,0-.47,3.36,51.53,51.53,0,0,0,6.81,26.89,55.58,55.58,0,0,0,23.1,21.5c1.37.72,30.51,15.32,58.65.89,0,0,17.43-8.93,28.39-31a61.85,61.85,0,0,0,4.25-12.29c1.16-5.2,1.22-10.25.21-12.06Zm-35,33c-6.7,8.26-20,12.3-31.5,9.31-2.3-.59-11.06-2.87-16.27-11.19a24,24,0,0,1-3.35-15.63l1.83-9.18a16.24,16.24,0,0,1,7-10.36l3.22-2.11a23.5,23.5,0,0,1,11.18-3.78l6.53-.47a24.23,24.23,0,0,1,14.35,3.48l2.68,1.64a23.54,23.54,0,0,1,10.77,15.11c.2.92.39,1.84.59,2.75C229.22,189.71,227.87,200.37,221.8,207.84Z"/><polygon class="cls-4" points="143.69 182.19 149.86 188.34 150.61 187.65 144.44 181.5 143.69 182.19"/><polygon class="cls-2" points="155.8 166.66 158.5 170.57 159.37 170.02 156.66 166.11 155.8 166.66"/><polygon class="cls-5" points="163.6 178.21 161.41 182.41 162.34 182.85 164.53 178.65 163.6 178.21"/><polygon class="cls-4" points="165.91 167.16 162.91 170.87 163.74 171.47 166.73 167.76 165.91 167.16"/><polygon class="cls-6" points="157 177.95 152.14 177.33 152 178.31 156.87 178.94 157 177.95"/><polygon class="cls-5" points="188.91 140.59 185.92 144.3 186.74 144.91 189.73 141.19 188.91 140.59"/><polygon class="cls-4" points="180.01 151.38 175.15 150.76 175.01 151.74 179.87 152.37 180.01 151.38"/><polygon class="cls-5" points="165.87 152.57 161.49 154.67 161.95 155.56 166.34 153.46 165.87 152.57"/><polygon class="cls-6" points="204.85 145.23 204.62 149.91 205.66 149.96 205.88 145.27 204.85 145.23"/><polygon class="cls-5" points="204.02 158.96 199.66 161.11 200.14 161.99 204.5 159.84 204.02 158.96"/><polygon class="cls-4" points="237.26 153.26 233.27 155.98 233.87 156.79 237.87 154.07 237.26 153.26"/><polygon class="cls-4" points="225.46 161.11 221 159.16 220.57 160.06 225.03 162.01 225.46 161.11"/><polygon class="cls-6" points="246.29 173.54 241.5 174.55 241.72 175.52 246.51 174.51 246.29 173.54"/><polygon class="cls-2" points="232.21 176.35 228.9 172.89 228.14 173.56 231.44 177.02 232.21 176.35"/><polygon class="cls-2" points="183.3 158.24 179.28 160.92 179.87 161.73 183.9 159.05 183.3 158.24"/><polygon class="cls-2" points="206.73 153.43 209.7 157.16 210.53 156.56 207.56 152.83 206.73 153.43"/><polygon class="cls-5" points="219.04 144.67 215.12 147.48 215.74 148.28 219.67 145.47 219.04 144.67"/><polygon class="cls-5" points="233.31 164.04 230.73 168.03 231.62 168.55 234.19 164.56 233.31 164.04"/><polygon class="cls-5" points="251.33 182.31 247.88 185.65 248.62 186.34 252.06 183 251.33 182.31"/><polygon class="cls-6" points="170.31 156.14 165.46 163.29 166.33 163.83 171.18 156.68 170.31 156.14"/><polygon class="cls-6" points="178.19 141.8 183.08 148.92 183.95 148.38 179.06 141.25 178.19 141.8"/><polygon class="cls-4" points="196.21 153.61 192.22 161.23 193.14 161.67 197.14 154.05 196.21 153.61"/><polygon class="cls-4" points="200.64 140.7 209.37 142.38 209.58 141.41 200.84 139.73 200.64 140.7"/><polygon class="cls-6" points="215.23 162.36 221.62 168.3 222.34 167.59 215.95 161.65 215.23 162.36"/><polygon class="cls-2" points="231.99 145.02 225.71 151.07 226.45 151.76 232.72 145.72 231.99 145.02"/><polygon class="cls-4" points="238.85 181.04 233.66 187.96 234.5 188.54 239.69 181.61 238.85 181.04"/><polygon class="cls-2" points="244.32 164.85 249.02 172.09 249.9 171.57 245.2 164.33 244.32 164.85"/><polygon class="cls-4" points="253.56 199.28 247.39 193.13 246.64 193.81 252.81 199.97 253.56 199.28"/><polygon class="cls-2" points="241.46 214.81 238.75 210.9 237.88 211.45 240.59 215.36 241.46 214.81"/><polygon class="cls-5" points="233.65 203.26 235.84 199.06 234.91 198.62 232.72 202.82 233.65 203.26"/><polygon class="cls-4" points="231.34 214.31 234.34 210.6 233.52 209.99 230.52 213.71 231.34 214.31"/><polygon class="cls-6" points="240.25 203.51 245.11 204.14 245.25 203.16 240.39 202.53 240.25 203.51"/><polygon class="cls-5" points="208.34 240.88 211.33 237.17 210.51 236.56 207.52 240.28 208.34 240.88"/><polygon class="cls-4" points="217.25 230.08 222.11 230.71 222.24 229.73 217.38 229.1 217.25 230.08"/><polygon class="cls-5" points="231.38 228.89 235.77 226.79 235.3 225.91 230.92 228.01 231.38 228.89"/><polygon class="cls-6" points="192.4 236.24 192.63 231.56 191.6 231.51 191.37 236.19 192.4 236.24"/><polygon class="cls-5" points="193.23 222.51 197.59 220.36 197.11 219.48 192.75 221.63 193.23 222.51"/><polygon class="cls-4" points="159.99 228.2 163.98 225.49 163.38 224.68 159.39 227.4 159.99 228.2"/><polygon class="cls-4" points="171.79 220.35 176.25 222.31 176.69 221.4 172.23 219.45 171.79 220.35"/><polygon class="cls-6" points="150.96 207.93 155.75 206.92 155.53 205.95 150.74 206.96 150.96 207.93"/><polygon class="cls-2" points="165.04 205.12 168.35 208.58 169.11 207.91 165.81 204.45 165.04 205.12"/><polygon class="cls-2" points="213.95 223.23 217.97 220.55 217.38 219.74 213.36 222.42 213.95 223.23"/><polygon class="cls-2" points="190.52 228.04 187.55 224.3 186.72 224.9 189.69 228.64 190.52 228.04"/><polygon class="cls-5" points="178.21 236.79 182.13 233.98 181.51 233.19 177.59 236 178.21 236.79"/><polygon class="cls-5" points="163.94 217.43 166.52 213.44 165.64 212.92 163.06 216.91 163.94 217.43"/><polygon class="cls-5" points="145.92 199.16 149.37 195.82 148.63 195.12 145.19 198.46 145.92 199.16"/><polygon class="cls-6" points="226.94 225.33 231.79 218.18 230.92 217.64 226.07 224.79 226.94 225.33"/><polygon class="cls-6" points="219.06 239.67 214.17 232.54 213.31 233.09 218.19 240.21 219.06 239.67"/><polygon class="cls-4" points="201.04 227.86 205.03 220.24 204.11 219.8 200.12 227.42 201.04 227.86"/><polygon class="cls-4" points="196.61 240.76 187.88 239.08 187.67 240.05 196.41 241.74 196.61 240.76"/><polygon class="cls-6" points="182.02 219.11 175.63 213.17 174.91 213.88 181.3 219.82 182.02 219.11"/><polygon class="cls-2" points="165.27 236.45 171.54 230.4 170.81 229.7 164.53 235.75 165.27 236.45"/><polygon class="cls-4" points="158.4 200.43 163.59 193.5 162.75 192.93 157.56 199.85 158.4 200.43"/><polygon class="cls-2" points="152.94 216.62 148.24 209.38 147.35 209.9 152.06 217.14 152.94 216.62"/><path class="cls-1" d="M331.58,253.44c-35.8,0-64.92-27.88-64.92-62.15s29.12-62.14,64.92-62.14,64.91,27.88,64.91,62.14S367.37,253.44,331.58,253.44Zm0-86c-13.8,0-25,10.71-25,23.86s11.23,23.87,25,23.87,25-10.71,25-23.87S345.37,167.43,331.58,167.43Z"/><path class="cls-2" d="M331.58,130.65c35,0,63.41,27.15,63.41,60.64s-28.39,60.65-63.41,60.65-63.42-27.16-63.42-60.65,28.39-60.64,63.42-60.64m0,86c14.64,0,26.52-11.36,26.52-25.37s-11.88-25.36-26.52-25.36-26.53,11.36-26.53,25.36,11.87,25.37,26.53,25.37m0-89c-36.63,0-66.42,28.55-66.42,63.64s29.79,63.65,66.42,63.65S398,226.39,398,191.29s-29.79-63.64-66.41-63.64Zm0,86c-13,0-23.53-10-23.53-22.37s10.55-22.36,23.53-22.36,23.52,10,23.52,22.36-10.55,22.37-23.52,22.37Z"/><path class="cls-7" d="M389.4,174.86a29.41,29.41,0,0,0-5.06-10.32l-9.92-13A29.92,29.92,0,0,0,361.77,142l-16.27-6.5a30.25,30.25,0,0,0-16.91-1.64l-14.66,2.77a30.13,30.13,0,0,0-14.34,7L285.1,156.4a29.38,29.38,0,0,0-9,14.47l-4.74,17.72a14.25,14.25,0,0,0-.47,3.36,51.53,51.53,0,0,0,6.81,26.89,55.58,55.58,0,0,0,23.1,21.5c1.37.72,30.51,15.32,58.65.89,0,0,17.43-8.93,28.39-31a61.15,61.15,0,0,0,4.25-12.29c1.16-5.2,1.22-10.25.21-12.06Zm-35,33c-6.7,8.26-20,12.3-31.5,9.31-2.3-.59-11.06-2.87-16.27-11.19a24,24,0,0,1-3.35-15.63l1.83-9.18a16.27,16.27,0,0,1,7-10.36l3.22-2.11a23.5,23.5,0,0,1,11.18-3.78l6.53-.47a24.23,24.23,0,0,1,14.35,3.48l2.68,1.64a23.54,23.54,0,0,1,10.77,15.11c.2.92.39,1.84.59,2.75C361.8,189.71,360.45,200.37,354.38,207.84Z"/><polygon class="cls-4" points="276.27 182.19 282.44 188.34 283.19 187.65 277.02 181.5 276.27 182.19"/><polygon class="cls-2" points="288.38 166.66 291.08 170.57 291.95 170.02 289.24 166.11 288.38 166.66"/><polygon class="cls-5" points="296.18 178.21 293.99 182.41 294.92 182.85 297.11 178.65 296.18 178.21"/><polygon class="cls-4" points="298.49 167.16 295.5 170.87 296.32 171.47 299.31 167.76 298.49 167.16"/><polygon class="cls-6" points="289.58 177.95 284.72 177.33 284.58 178.31 289.44 178.94 289.58 177.95"/><polygon class="cls-5" points="321.49 140.59 318.5 144.3 319.32 144.91 322.31 141.19 321.49 140.59"/><polygon class="cls-4" points="312.59 151.38 307.73 150.76 307.59 151.74 312.45 152.37 312.59 151.38"/><polygon class="cls-5" points="298.45 152.57 294.07 154.67 294.53 155.56 298.92 153.46 298.45 152.57"/><polygon class="cls-6" points="337.43 145.23 337.2 149.91 338.24 149.96 338.46 145.27 337.43 145.23"/><polygon class="cls-5" points="336.6 158.96 332.24 161.11 332.72 161.99 337.08 159.84 336.6 158.96"/><polygon class="cls-4" points="369.85 153.26 365.85 155.98 366.45 156.79 370.45 154.07 369.85 153.26"/><polygon class="cls-4" points="358.04 161.11 353.58 159.16 353.15 160.06 357.61 162.01 358.04 161.11"/><polygon class="cls-6" points="378.87 173.54 374.08 174.55 374.3 175.52 379.09 174.51 378.87 173.54"/><polygon class="cls-2" points="364.79 176.35 361.48 172.89 360.72 173.56 364.03 177.02 364.79 176.35"/><polygon class="cls-2" points="315.88 158.24 311.86 160.92 312.45 161.73 316.48 159.05 315.88 158.24"/><polygon class="cls-2" points="339.31 153.43 342.28 157.16 343.11 156.56 340.14 152.83 339.31 153.43"/><polygon class="cls-5" points="351.63 144.67 347.7 147.48 348.32 148.28 352.25 145.47 351.63 144.67"/><polygon class="cls-5" points="365.89 164.04 363.31 168.03 364.2 168.55 366.77 164.56 365.89 164.04"/><polygon class="cls-5" points="383.91 182.31 380.46 185.65 381.2 186.34 384.64 183 383.91 182.31"/><polygon class="cls-6" points="302.9 156.14 298.04 163.29 298.91 163.83 303.76 156.68 302.9 156.14"/><polygon class="cls-6" points="310.77 141.8 315.66 148.92 316.53 148.38 311.64 141.25 310.77 141.8"/><polygon class="cls-4" points="328.79 153.61 324.8 161.23 325.73 161.67 329.72 154.05 328.79 153.61"/><polygon class="cls-4" points="333.22 140.7 341.95 142.38 342.16 141.41 333.42 139.73 333.22 140.7"/><polygon class="cls-6" points="347.81 162.36 354.2 168.3 354.92 167.59 348.53 161.65 347.81 162.36"/><polygon class="cls-2" points="364.57 145.02 358.29 151.07 359.03 151.76 365.3 145.72 364.57 145.02"/><polygon class="cls-4" points="371.43 181.04 366.24 187.96 367.08 188.54 372.27 181.61 371.43 181.04"/><polygon class="cls-2" points="376.9 164.85 381.6 172.09 382.48 171.57 377.78 164.33 376.9 164.85"/><polygon class="cls-4" points="386.14 199.28 379.97 193.13 379.22 193.81 385.39 199.97 386.14 199.28"/><polygon class="cls-2" points="374.04 214.81 371.33 210.9 370.46 211.45 373.17 215.36 374.04 214.81"/><polygon class="cls-5" points="366.23 203.26 368.42 199.06 367.49 198.62 365.3 202.82 366.23 203.26"/><polygon class="cls-4" points="363.92 214.31 366.92 210.6 366.1 209.99 363.1 213.71 363.92 214.31"/><polygon class="cls-6" points="372.83 203.51 377.69 204.14 377.83 203.16 372.97 202.53 372.83 203.51"/><polygon class="cls-5" points="340.92 240.88 343.91 237.17 343.09 236.56 340.1 240.28 340.92 240.88"/><polygon class="cls-4" points="349.83 230.08 354.69 230.71 354.82 229.73 349.96 229.1 349.83 230.08"/><polygon class="cls-5" points="363.96 228.89 368.35 226.79 367.88 225.91 363.5 228.01 363.96 228.89"/><polygon class="cls-6" points="324.98 236.24 325.21 231.56 324.18 231.51 323.95 236.19 324.98 236.24"/><polygon class="cls-5" points="325.81 222.51 330.17 220.36 329.69 219.48 325.33 221.63 325.81 222.51"/><polygon class="cls-4" points="292.57 228.2 296.56 225.49 295.96 224.68 291.97 227.4 292.57 228.2"/><polygon class="cls-4" points="304.38 220.35 308.83 222.31 309.27 221.4 304.81 219.45 304.38 220.35"/><polygon class="cls-6" points="283.54 207.93 288.33 206.92 288.11 205.95 283.32 206.96 283.54 207.93"/><polygon class="cls-2" points="297.62 205.12 300.93 208.58 301.69 207.91 298.39 204.45 297.62 205.12"/><polygon class="cls-2" points="346.53 223.23 350.55 220.55 349.96 219.74 345.94 222.42 346.53 223.23"/><polygon class="cls-2" points="323.1 228.04 320.13 224.3 319.31 224.9 322.27 228.64 323.1 228.04"/><polygon class="cls-5" points="310.79 236.79 314.71 233.98 314.09 233.19 310.17 236 310.79 236.79"/><polygon class="cls-5" points="296.52 217.43 299.1 213.44 298.22 212.92 295.64 216.91 296.52 217.43"/><polygon class="cls-5" points="278.5 199.16 281.95 195.82 281.21 195.12 277.77 198.46 278.5 199.16"/><polygon class="cls-6" points="359.52 225.33 364.37 218.18 363.5 217.64 358.65 224.79 359.52 225.33"/><polygon class="cls-6" points="351.64 239.67 346.75 232.54 345.89 233.09 350.77 240.21 351.64 239.67"/><polygon class="cls-4" points="333.62 227.86 337.61 220.24 336.69 219.8 332.7 227.42 333.62 227.86"/><polygon class="cls-4" points="329.19 240.76 320.46 239.08 320.25 240.05 328.99 241.74 329.19 240.76"/><polygon class="cls-6" points="314.6 219.11 308.21 213.17 307.49 213.88 313.88 219.82 314.6 219.11"/><polygon class="cls-2" points="297.85 236.45 304.12 230.4 303.39 229.7 297.11 235.75 297.85 236.45"/><polygon class="cls-4" points="290.98 200.43 296.17 193.5 295.33 192.93 290.14 199.85 290.98 200.43"/><polygon class="cls-2" points="285.51 216.62 280.81 209.38 279.94 209.9 284.63 217.14 285.51 216.62"/><path class="cls-1" d="M464.16,253.44c-35.8,0-64.92-27.88-64.92-62.15s29.12-62.14,64.92-62.14,64.91,27.88,64.91,62.14S500,253.44,464.16,253.44Zm0-86c-13.8,0-25,10.71-25,23.86s11.23,23.87,25,23.87,25-10.71,25-23.87S478,167.43,464.16,167.43Z"/><path class="cls-2" d="M464.16,130.65c35,0,63.41,27.15,63.41,60.64s-28.39,60.65-63.41,60.65-63.42-27.16-63.42-60.65,28.39-60.64,63.42-60.64m0,86c14.64,0,26.52-11.36,26.52-25.37s-11.88-25.36-26.52-25.36-26.53,11.36-26.53,25.36,11.87,25.37,26.53,25.37m0-89c-36.63,0-66.42,28.55-66.42,63.64s29.79,63.65,66.42,63.65,66.41-28.55,66.41-63.65-29.79-63.64-66.41-63.64Zm0,86c-13,0-23.53-10-23.53-22.37s10.55-22.36,23.53-22.36,23.52,10,23.52,22.36-10.55,22.37-23.52,22.37Z"/><path class="cls-8" d="M522,174.86a29.41,29.41,0,0,0-5.06-10.32l-9.92-13A29.92,29.92,0,0,0,494.35,142l-16.27-6.5a30.25,30.25,0,0,0-16.91-1.64l-14.66,2.77a30.13,30.13,0,0,0-14.34,7L417.68,156.4a29.38,29.38,0,0,0-9,14.47L404,188.59a13.77,13.77,0,0,0-.48,3.36,51.53,51.53,0,0,0,6.81,26.89,55.58,55.58,0,0,0,23.1,21.5c1.37.72,30.51,15.32,58.65.89,0,0,17.43-8.93,28.39-31a60.46,60.46,0,0,0,4.25-12.29c1.16-5.2,1.22-10.25.21-12.06Zm-35,33c-6.7,8.26-20,12.3-31.5,9.31-2.3-.59-11.06-2.87-16.26-11.19a24,24,0,0,1-3.36-15.63l1.83-9.18a16.27,16.27,0,0,1,7-10.36l3.22-2.11a23.5,23.5,0,0,1,11.18-3.78l6.53-.47A24.23,24.23,0,0,1,480,167.91l2.68,1.64a23.54,23.54,0,0,1,10.77,15.11c.2.92.4,1.84.59,2.75C494.38,189.71,493,200.37,487,207.84Z"/><polygon class="cls-4" points="408.86 182.19 415.02 188.34 415.77 187.65 409.6 181.5 408.86 182.19"/><polygon class="cls-2" points="420.96 166.66 423.66 170.57 424.53 170.02 421.82 166.11 420.96 166.66"/><polygon class="cls-5" points="428.76 178.21 426.57 182.41 427.5 182.85 429.69 178.65 428.76 178.21"/><polygon class="cls-4" points="431.07 167.16 428.08 170.87 428.9 171.47 431.89 167.76 431.07 167.16"/><polygon class="cls-6" points="422.16 177.95 417.3 177.33 417.17 178.31 422.03 178.94 422.16 177.95"/><polygon class="cls-5" points="454.07 140.59 451.08 144.3 451.9 144.91 454.89 141.19 454.07 140.59"/><polygon class="cls-4" points="445.17 151.38 440.31 150.76 440.17 151.74 445.03 152.37 445.17 151.38"/><polygon class="cls-5" points="431.03 152.57 426.65 154.67 427.11 155.56 431.5 153.46 431.03 152.57"/><polygon class="cls-6" points="470.01 145.23 469.78 149.91 470.82 149.96 471.04 145.27 470.01 145.23"/><polygon class="cls-5" points="469.18 158.96 464.82 161.11 465.3 161.99 469.66 159.84 469.18 158.96"/><polygon class="cls-4" points="502.43 153.26 498.43 155.98 499.03 156.79 503.03 154.07 502.43 153.26"/><polygon class="cls-4" points="490.62 161.11 486.16 159.16 485.73 160.06 490.19 162.01 490.62 161.11"/><polygon class="cls-6" points="511.45 173.54 506.66 174.55 506.88 175.52 511.67 174.51 511.45 173.54"/><polygon class="cls-2" points="497.37 176.35 494.06 172.89 493.3 173.56 496.61 177.02 497.37 176.35"/><polygon class="cls-2" points="448.46 158.24 444.44 160.92 445.03 161.73 449.06 159.05 448.46 158.24"/><polygon class="cls-2" points="471.89 153.43 474.86 157.16 475.69 156.56 472.72 152.83 471.89 153.43"/><polygon class="cls-5" points="484.21 144.67 480.28 147.48 480.9 148.28 484.83 145.47 484.21 144.67"/><polygon class="cls-5" points="498.47 164.04 495.89 168.03 496.78 168.55 499.35 164.56 498.47 164.04"/><polygon class="cls-5" points="516.49 182.31 513.04 185.65 513.78 186.34 517.23 183 516.49 182.31"/><polygon class="cls-6" points="435.48 156.14 430.62 163.29 431.49 163.83 436.35 156.68 435.48 156.14"/><polygon class="cls-6" points="443.35 141.8 448.24 148.92 449.11 148.38 444.22 141.25 443.35 141.8"/><polygon class="cls-4" points="461.37 153.61 457.38 161.23 458.31 161.67 462.3 154.05 461.37 153.61"/><polygon class="cls-4" points="465.8 140.7 474.53 142.38 474.74 141.41 466 139.73 465.8 140.7"/><polygon class="cls-6" points="480.39 162.36 486.78 168.3 487.5 167.59 481.11 161.65 480.39 162.36"/><polygon class="cls-2" points="497.15 145.02 490.87 151.07 491.61 151.76 497.88 145.72 497.15 145.02"/><polygon class="cls-4" points="504.01 181.04 498.82 187.96 499.67 188.54 504.85 181.61 504.01 181.04"/><polygon class="cls-2" points="509.48 164.85 514.18 172.09 515.06 171.57 510.36 164.33 509.48 164.85"/><polygon class="cls-4" points="518.72 199.28 512.55 193.13 511.81 193.81 517.97 199.97 518.72 199.28"/><polygon class="cls-2" points="506.62 214.81 503.91 210.9 503.05 211.45 505.75 215.36 506.62 214.81"/><polygon class="cls-5" points="498.81 203.26 501 199.06 500.07 198.62 497.88 202.82 498.81 203.26"/><polygon class="cls-4" points="496.5 214.31 499.5 210.6 498.68 209.99 495.68 213.71 496.5 214.31"/><polygon class="cls-6" points="505.41 203.51 510.27 204.14 510.41 203.16 505.55 202.53 505.41 203.51"/><polygon class="cls-5" points="473.5 240.88 476.5 237.17 475.67 236.56 472.68 240.28 473.5 240.88"/><polygon class="cls-4" points="482.41 230.08 487.27 230.71 487.4 229.73 482.55 229.1 482.41 230.08"/><polygon class="cls-5" points="496.54 228.89 500.93 226.79 500.46 225.91 496.08 228.01 496.54 228.89"/><polygon class="cls-6" points="457.56 236.24 457.79 231.56 456.76 231.51 456.53 236.19 457.56 236.24"/><polygon class="cls-5" points="458.39 222.51 462.75 220.36 462.27 219.48 457.92 221.63 458.39 222.51"/><polygon class="cls-4" points="425.15 228.2 429.14 225.49 428.54 224.68 424.55 227.4 425.15 228.2"/><polygon class="cls-4" points="436.96 220.35 441.42 222.31 441.85 221.4 437.39 219.45 436.96 220.35"/><polygon class="cls-6" points="416.13 207.93 420.91 206.92 420.69 205.95 415.9 206.96 416.13 207.93"/><polygon class="cls-2" points="430.2 205.12 433.51 208.58 434.27 207.91 430.97 204.45 430.2 205.12"/><polygon class="cls-2" points="479.11 223.23 483.13 220.55 482.54 219.74 478.52 222.42 479.11 223.23"/><polygon class="cls-2" points="455.68 228.04 452.71 224.3 451.88 224.9 454.85 228.64 455.68 228.04"/><polygon class="cls-5" points="443.37 236.79 447.29 233.98 446.67 233.19 442.75 236 443.37 236.79"/><polygon class="cls-5" points="429.1 217.43 431.68 213.44 430.8 212.92 428.22 216.91 429.1 217.43"/><polygon class="cls-5" points="411.08 199.16 414.53 195.82 413.79 195.12 410.35 198.46 411.08 199.16"/><polygon class="cls-6" points="492.1 225.33 496.95 218.18 496.08 217.64 491.23 224.79 492.1 225.33"/><polygon class="cls-6" points="484.22 239.67 479.33 232.54 478.47 233.09 483.36 240.21 484.22 239.67"/><polygon class="cls-4" points="466.2 227.86 470.19 220.24 469.27 219.8 465.28 227.42 466.2 227.86"/><polygon class="cls-4" points="461.77 240.76 453.04 239.08 452.83 240.05 461.57 241.74 461.77 240.76"/><polygon class="cls-6" points="447.18 219.11 440.79 213.17 440.07 213.88 446.46 219.82 447.18 219.11"/><polygon class="cls-2" points="430.43 236.45 436.7 230.4 435.97 229.7 429.69 235.75 430.43 236.45"/><polygon class="cls-4" points="423.56 200.43 428.75 193.5 427.91 192.93 422.72 199.85 423.56 200.43"/><polygon class="cls-2" points="418.1 216.62 413.4 209.38 412.51 209.9 417.22 217.14 418.1 216.62"/><path class="cls-1" d="M66.41,381.09C30.62,381.09,1.5,353.21,1.5,319s29.12-62.14,64.91-62.14,64.92,27.87,64.92,62.14S102.21,381.09,66.41,381.09Zm0-86c-13.8,0-25,10.71-25,23.87s11.22,23.87,25,23.87,25-10.71,25-23.87S80.21,295.08,66.41,295.08Z"/><path class="cls-2" d="M66.41,258.31c35,0,63.42,27.15,63.42,60.64s-28.39,60.64-63.42,60.64S3,352.44,3,319s28.39-60.64,63.41-60.64m0,86c14.65,0,26.53-11.36,26.53-25.37s-11.88-25.37-26.53-25.37S39.89,304.94,39.89,319s11.87,25.37,26.52,25.37m0-89C29.79,255.31,0,283.86,0,319s29.79,63.64,66.41,63.64S132.83,354,132.83,319,103,255.31,66.41,255.31Zm0,86c-13,0-23.52-10-23.52-22.37s10.55-22.37,23.52-22.37,23.53,10,23.53,22.37-10.55,22.37-23.53,22.37Z"/><path class="cls-7" d="M124.24,302.51a29.35,29.35,0,0,0-5.07-10.32l-9.91-13a29.92,29.92,0,0,0-12.65-9.58l-16.27-6.5a30.43,30.43,0,0,0-16.91-1.64l-14.67,2.77a30.16,30.16,0,0,0-14.33,7L19.94,284.06a29.4,29.4,0,0,0-9,14.46L6.21,316.25a14.17,14.17,0,0,0-.47,3.35,51.52,51.52,0,0,0,6.81,26.89A55.58,55.58,0,0,0,35.65,368c1.37.72,30.51,15.32,58.65.9,0,0,17.43-8.94,28.39-31a61.85,61.85,0,0,0,4.25-12.28c1.16-5.2,1.22-10.25.21-12.07Zm-35,33c-6.7,8.26-20,12.3-31.5,9.32-2.3-.6-11.06-2.88-16.27-11.2A24,24,0,0,1,38.1,318l1.83-9.17a16.23,16.23,0,0,1,7-10.37l3.22-2.11a23.46,23.46,0,0,1,11.18-3.78l6.53-.47a24.16,24.16,0,0,1,14.35,3.49l2.68,1.63a23.56,23.56,0,0,1,10.77,15.11c.2.92.39,1.84.59,2.76C96.64,317.36,95.29,328,89.22,335.49Z"/><polygon class="cls-4" points="11.11 309.84 17.28 315.99 18.03 315.31 11.86 309.15 11.11 309.84"/><polygon class="cls-2" points="23.22 294.31 25.92 298.22 26.79 297.68 24.08 293.76 23.22 294.31"/><polygon class="cls-5" points="31.02 305.86 28.83 310.06 29.76 310.5 31.95 306.31 31.02 305.86"/><polygon class="cls-4" points="33.33 294.81 30.34 298.52 31.16 299.13 34.15 295.41 33.33 294.81"/><polygon class="cls-6" points="24.42 305.61 19.56 304.98 19.42 305.96 24.28 306.59 24.42 305.61"/><polygon class="cls-5" points="56.33 268.24 53.34 271.95 54.16 272.56 57.15 268.84 56.33 268.24"/><polygon class="cls-4" points="47.43 279.04 42.56 278.41 42.43 279.39 47.29 280.02 47.43 279.04"/><polygon class="cls-5" points="33.29 280.23 28.91 282.33 29.37 283.21 33.76 281.11 33.29 280.23"/><polygon class="cls-6" points="72.27 272.88 72.04 277.56 73.08 277.61 73.3 272.93 72.27 272.88"/><polygon class="cls-5" points="71.44 286.61 67.08 288.76 67.56 289.64 71.92 287.49 71.44 286.61"/><polygon class="cls-4" points="104.68 280.92 100.69 283.64 101.29 284.44 105.28 281.72 104.68 280.92"/><polygon class="cls-4" points="92.88 288.77 88.42 286.82 87.99 287.72 92.44 289.67 92.88 288.77"/><polygon class="cls-6" points="113.71 301.19 108.92 302.2 109.14 303.17 113.93 302.16 113.71 301.19"/><polygon class="cls-2" points="99.63 304 96.32 300.54 95.56 301.21 98.86 304.67 99.63 304"/><polygon class="cls-2" points="50.72 285.89 46.7 288.57 47.29 289.38 51.31 286.7 50.72 285.89"/><polygon class="cls-2" points="74.15 281.08 77.12 284.82 77.95 284.22 74.98 280.48 74.15 281.08"/><polygon class="cls-5" points="86.46 272.33 82.54 275.14 83.16 275.93 87.08 273.12 86.46 272.33"/><polygon class="cls-5" points="100.73 291.69 98.15 295.68 99.04 296.2 101.61 292.21 100.73 291.69"/><polygon class="cls-5" points="118.75 309.96 115.3 313.3 116.04 314 119.48 310.66 118.75 309.96"/><polygon class="cls-6" points="37.73 283.79 32.88 290.94 33.75 291.48 38.6 284.33 37.73 283.79"/><polygon class="cls-6" points="45.61 269.45 50.5 276.58 51.37 276.03 46.48 268.91 45.61 269.45"/><polygon class="cls-4" points="63.63 281.26 59.64 288.88 60.56 289.32 64.56 281.7 63.63 281.26"/><polygon class="cls-4" points="68.06 268.36 76.79 270.04 77 269.07 68.26 267.39 68.06 268.36"/><polygon class="cls-6" points="82.65 290.01 89.04 295.95 89.76 295.24 83.37 289.3 82.65 290.01"/><polygon class="cls-2" points="99.41 272.67 93.13 278.72 93.87 279.42 100.14 273.37 99.41 272.67"/><polygon class="cls-4" points="106.27 308.69 101.08 315.62 101.92 316.19 107.11 309.27 106.27 308.69"/><polygon class="cls-2" points="111.74 292.5 116.44 299.74 117.32 299.22 112.62 291.98 111.74 292.5"/><polygon class="cls-4" points="120.98 326.93 114.81 320.78 114.06 321.47 120.23 327.62 120.98 326.93"/><polygon class="cls-2" points="108.88 342.46 106.17 338.55 105.3 339.1 108.01 343.01 108.88 342.46"/><polygon class="cls-5" points="101.07 330.91 103.26 326.72 102.33 326.27 100.14 330.47 101.07 330.91"/><polygon class="cls-4" points="98.76 341.97 101.76 338.25 100.94 337.65 97.94 341.36 98.76 341.97"/><polygon class="cls-6" points="107.67 331.17 112.53 331.8 112.67 330.81 107.81 330.19 107.67 331.17"/><polygon class="cls-5" points="75.76 368.54 78.75 364.82 77.93 364.22 74.94 367.93 75.76 368.54"/><polygon class="cls-4" points="84.67 357.74 89.53 358.36 89.66 357.38 84.8 356.75 84.67 357.74"/><polygon class="cls-5" points="98.8 356.55 103.19 354.45 102.72 353.56 98.34 355.66 98.8 356.55"/><polygon class="cls-6" points="59.82 363.89 60.05 359.21 59.02 359.16 58.79 363.85 59.82 363.89"/><polygon class="cls-5" points="60.65 350.16 65.01 348.01 64.53 347.13 60.17 349.28 60.65 350.16"/><polygon class="cls-4" points="27.41 355.86 31.4 353.14 30.8 352.33 26.81 355.05 27.41 355.86"/><polygon class="cls-4" points="39.21 348.01 43.67 349.96 44.1 349.06 39.65 347.11 39.21 348.01"/><polygon class="cls-6" points="18.38 335.58 23.17 334.57 22.95 333.6 18.16 334.61 18.38 335.58"/><polygon class="cls-2" points="32.46 332.77 35.77 336.23 36.53 335.56 33.23 332.1 32.46 332.77"/><polygon class="cls-2" points="81.37 350.88 85.39 348.2 84.8 347.39 80.78 350.07 81.37 350.88"/><polygon class="cls-2" points="57.94 355.69 54.97 351.96 54.14 352.56 57.11 356.29 57.94 355.69"/><polygon class="cls-5" points="45.63 364.45 49.55 361.64 48.93 360.84 45.01 363.65 45.63 364.45"/><polygon class="cls-5" points="31.36 345.08 33.94 341.09 33.05 340.57 30.48 344.56 31.36 345.08"/><polygon class="cls-5" points="13.34 326.81 16.79 323.47 16.05 322.78 12.61 326.12 13.34 326.81"/><polygon class="cls-6" points="94.36 352.98 99.21 345.83 98.34 345.29 93.49 352.44 94.36 352.98"/><polygon class="cls-6" points="86.48 367.32 81.59 360.2 80.72 360.74 85.61 367.87 86.48 367.32"/><polygon class="cls-4" points="68.46 355.51 72.45 347.89 71.53 347.45 67.54 355.07 68.46 355.51"/><polygon class="cls-4" points="64.03 368.42 55.3 366.74 55.09 367.71 63.83 369.39 64.03 368.42"/><polygon class="cls-6" points="49.44 346.76 43.05 340.82 42.33 341.54 48.72 347.47 49.44 346.76"/><polygon class="cls-2" points="32.69 364.1 38.96 358.05 38.23 357.36 31.95 363.41 32.69 364.1"/><polygon class="cls-4" points="25.82 328.08 31.01 321.16 30.17 320.58 24.98 327.51 25.82 328.08"/><polygon class="cls-2" points="20.35 344.27 15.65 337.03 14.77 337.55 19.47 344.79 20.35 344.27"/><path class="cls-1" d="M199,381.09c-35.79,0-64.91-27.88-64.91-62.14S163.2,256.81,199,256.81s64.92,27.87,64.92,62.14S234.79,381.09,199,381.09Zm0-86c-13.8,0-25,10.71-25,23.87s11.22,23.87,25,23.87,25-10.71,25-23.87S212.79,295.08,199,295.08Z"/><path class="cls-2" d="M199,258.31c35,0,63.42,27.15,63.42,60.64S234,379.59,199,379.59,135.58,352.44,135.58,319,164,258.31,199,258.31m0,86c14.65,0,26.53-11.36,26.53-25.37S213.64,293.58,199,293.58,172.47,304.94,172.47,319s11.87,25.37,26.52,25.37m0-89c-36.62,0-66.41,28.55-66.41,63.64s29.79,63.64,66.41,63.64S265.41,354,265.41,319,235.62,255.31,199,255.31Zm0,86c-13,0-23.52-10-23.52-22.37S186,296.58,199,296.58s23.53,10,23.53,22.37S212,341.32,199,341.32Z"/><path class="cls-8" d="M256.82,302.51a29.5,29.5,0,0,0-5.06-10.32l-9.92-13a29.92,29.92,0,0,0-12.65-9.58l-16.27-6.5A30.43,30.43,0,0,0,196,261.51l-14.66,2.77a30.15,30.15,0,0,0-14.34,7l-14.49,12.78a29.4,29.4,0,0,0-9,14.46l-4.74,17.73a14.17,14.17,0,0,0-.47,3.35,51.52,51.52,0,0,0,6.81,26.89,55.58,55.58,0,0,0,23.1,21.5c1.37.72,30.51,15.32,58.65.9,0,0,17.43-8.94,28.39-31a61.85,61.85,0,0,0,4.25-12.28c1.16-5.2,1.22-10.25.21-12.07Zm-35,33c-6.7,8.26-20,12.3-31.5,9.32-2.3-.6-11.06-2.88-16.27-11.2A24,24,0,0,1,170.68,318l1.83-9.17a16.23,16.23,0,0,1,7-10.37l3.22-2.11a23.5,23.5,0,0,1,11.18-3.78l6.53-.47a24.16,24.16,0,0,1,14.35,3.49l2.68,1.63a23.56,23.56,0,0,1,10.77,15.11c.2.92.39,1.84.59,2.76C229.22,317.36,227.87,328,221.8,335.49Z"/><polygon class="cls-4" points="143.69 309.84 149.86 315.99 150.61 315.31 144.44 309.15 143.69 309.84"/><polygon class="cls-2" points="155.8 294.31 158.5 298.22 159.37 297.68 156.66 293.76 155.8 294.31"/><polygon class="cls-5" points="163.6 305.86 161.41 310.06 162.34 310.5 164.53 306.31 163.6 305.86"/><polygon class="cls-4" points="165.91 294.81 162.91 298.52 163.74 299.13 166.73 295.41 165.91 294.81"/><polygon class="cls-6" points="157 305.61 152.14 304.98 152 305.96 156.87 306.59 157 305.61"/><polygon class="cls-5" points="188.91 268.24 185.92 271.95 186.74 272.56 189.73 268.84 188.91 268.24"/><polygon class="cls-4" points="180.01 279.04 175.15 278.41 175.01 279.39 179.87 280.02 180.01 279.04"/><polygon class="cls-5" points="165.87 280.23 161.49 282.33 161.95 283.21 166.34 281.11 165.87 280.23"/><polygon class="cls-6" points="204.85 272.88 204.62 277.56 205.66 277.61 205.88 272.93 204.85 272.88"/><polygon class="cls-5" points="204.02 286.61 199.66 288.76 200.14 289.64 204.5 287.49 204.02 286.61"/><polygon class="cls-4" points="237.26 280.92 233.27 283.64 233.87 284.44 237.87 281.72 237.26 280.92"/><polygon class="cls-4" points="225.46 288.77 221 286.82 220.57 287.72 225.03 289.67 225.46 288.77"/><polygon class="cls-6" points="246.29 301.19 241.5 302.2 241.72 303.17 246.51 302.16 246.29 301.19"/><polygon class="cls-2" points="232.21 304 228.9 300.54 228.14 301.21 231.44 304.67 232.21 304"/><polygon class="cls-2" points="183.3 285.89 179.28 288.57 179.87 289.38 183.9 286.7 183.3 285.89"/><polygon class="cls-2" points="206.73 281.08 209.7 284.82 210.53 284.22 207.56 280.48 206.73 281.08"/><polygon class="cls-5" points="219.04 272.33 215.12 275.14 215.74 275.93 219.67 273.12 219.04 272.33"/><polygon class="cls-5" points="233.31 291.69 230.73 295.68 231.62 296.2 234.19 292.21 233.31 291.69"/><polygon class="cls-5" points="251.33 309.96 247.88 313.3 248.62 314 252.06 310.66 251.33 309.96"/><polygon class="cls-6" points="170.31 283.79 165.46 290.94 166.33 291.48 171.18 284.33 170.31 283.79"/><polygon class="cls-6" points="178.19 269.45 183.08 276.58 183.95 276.03 179.06 268.91 178.19 269.45"/><polygon class="cls-4" points="196.21 281.26 192.22 288.88 193.14 289.32 197.14 281.7 196.21 281.26"/><polygon class="cls-4" points="200.64 268.36 209.37 270.04 209.58 269.07 200.84 267.39 200.64 268.36"/><polygon class="cls-6" points="215.23 290.01 221.62 295.95 222.34 295.24 215.95 289.3 215.23 290.01"/><polygon class="cls-2" points="231.99 272.67 225.71 278.72 226.45 279.42 232.72 273.37 231.99 272.67"/><polygon class="cls-4" points="238.85 308.69 233.66 315.62 234.5 316.19 239.69 309.27 238.85 308.69"/><polygon class="cls-2" points="244.32 292.5 249.02 299.74 249.9 299.22 245.2 291.98 244.32 292.5"/><polygon class="cls-4" points="253.56 326.93 247.39 320.78 246.64 321.47 252.81 327.62 253.56 326.93"/><polygon class="cls-2" points="241.46 342.46 238.75 338.55 237.88 339.1 240.59 343.01 241.46 342.46"/><polygon class="cls-5" points="233.65 330.91 235.84 326.72 234.91 326.27 232.72 330.47 233.65 330.91"/><polygon class="cls-4" points="231.34 341.97 234.34 338.25 233.52 337.65 230.52 341.36 231.34 341.97"/><polygon class="cls-6" points="240.25 331.17 245.11 331.8 245.25 330.81 240.39 330.19 240.25 331.17"/><polygon class="cls-5" points="208.34 368.54 211.33 364.82 210.51 364.22 207.52 367.93 208.34 368.54"/><polygon class="cls-4" points="217.25 357.74 222.11 358.36 222.24 357.38 217.38 356.75 217.25 357.74"/><polygon class="cls-5" points="231.38 356.55 235.77 354.45 235.3 353.56 230.92 355.66 231.38 356.55"/><polygon class="cls-6" points="192.4 363.89 192.63 359.21 191.6 359.16 191.37 363.85 192.4 363.89"/><polygon class="cls-5" points="193.23 350.16 197.59 348.01 197.11 347.13 192.75 349.28 193.23 350.16"/><polygon class="cls-4" points="159.99 355.86 163.98 353.14 163.38 352.33 159.39 355.05 159.99 355.86"/><polygon class="cls-4" points="171.79 348.01 176.25 349.96 176.69 349.06 172.23 347.11 171.79 348.01"/><polygon class="cls-6" points="150.96 335.58 155.75 334.57 155.53 333.6 150.74 334.61 150.96 335.58"/><polygon class="cls-2" points="165.04 332.77 168.35 336.23 169.11 335.56 165.81 332.1 165.04 332.77"/><polygon class="cls-2" points="213.95 350.88 217.97 348.2 217.38 347.39 213.36 350.07 213.95 350.88"/><polygon class="cls-2" points="190.52 355.69 187.55 351.96 186.72 352.56 189.69 356.29 190.52 355.69"/><polygon class="cls-5" points="178.21 364.45 182.13 361.64 181.51 360.84 177.59 363.65 178.21 364.45"/><polygon class="cls-5" points="163.94 345.08 166.52 341.09 165.64 340.57 163.06 344.56 163.94 345.08"/><polygon class="cls-5" points="145.92 326.81 149.37 323.47 148.63 322.78 145.19 326.12 145.92 326.81"/><polygon class="cls-6" points="226.94 352.98 231.79 345.83 230.92 345.29 226.07 352.44 226.94 352.98"/><polygon class="cls-6" points="219.06 367.32 214.17 360.2 213.31 360.74 218.19 367.87 219.06 367.32"/><polygon class="cls-4" points="201.04 355.51 205.03 347.89 204.11 347.45 200.12 355.07 201.04 355.51"/><polygon class="cls-4" points="196.61 368.42 187.88 366.74 187.67 367.71 196.41 369.39 196.61 368.42"/><polygon class="cls-6" points="182.02 346.76 175.63 340.82 174.91 341.54 181.3 347.47 182.02 346.76"/><polygon class="cls-2" points="165.27 364.1 171.54 358.05 170.81 357.36 164.53 363.41 165.27 364.1"/><polygon class="cls-4" points="158.4 328.08 163.59 321.16 162.75 320.58 157.56 327.51 158.4 328.08"/><polygon class="cls-2" points="152.94 344.27 148.24 337.03 147.35 337.55 152.06 344.79 152.94 344.27"/><path class="cls-1" d="M331.58,381.09c-35.8,0-64.92-27.88-64.92-62.14s29.12-62.14,64.92-62.14,64.91,27.87,64.91,62.14S367.37,381.09,331.58,381.09Zm0-86c-13.8,0-25,10.71-25,23.87s11.23,23.87,25,23.87,25-10.71,25-23.87S345.37,295.08,331.58,295.08Z"/><path class="cls-2" d="M331.58,258.31c35,0,63.41,27.15,63.41,60.64s-28.39,60.64-63.41,60.64S268.16,352.44,268.16,319s28.39-60.64,63.42-60.64m0,86c14.64,0,26.52-11.36,26.52-25.37s-11.88-25.37-26.52-25.37S305.05,304.94,305.05,319s11.87,25.37,26.53,25.37m0-89c-36.63,0-66.42,28.55-66.42,63.64s29.79,63.64,66.42,63.64S398,354,398,319s-29.79-63.64-66.41-63.64Zm0,86c-13,0-23.53-10-23.53-22.37s10.55-22.37,23.53-22.37,23.52,10,23.52,22.37-10.55,22.37-23.52,22.37Z"/><path class="cls-3" d="M389.4,302.51a29.5,29.5,0,0,0-5.06-10.32l-9.92-13a29.92,29.92,0,0,0-12.65-9.58l-16.27-6.5a30.43,30.43,0,0,0-16.91-1.64l-14.66,2.77a30.15,30.15,0,0,0-14.34,7L285.1,284.06a29.4,29.4,0,0,0-9,14.46l-4.74,17.73a14.17,14.17,0,0,0-.47,3.35,51.52,51.52,0,0,0,6.81,26.89,55.58,55.58,0,0,0,23.1,21.5c1.37.72,30.51,15.32,58.65.9,0,0,17.43-8.94,28.39-31a61.15,61.15,0,0,0,4.25-12.28c1.16-5.2,1.22-10.25.21-12.07Zm-35,33c-6.7,8.26-20,12.3-31.5,9.32-2.3-.6-11.06-2.88-16.27-11.2A24,24,0,0,1,303.26,318l1.83-9.17a16.27,16.27,0,0,1,7-10.37l3.22-2.11a23.5,23.5,0,0,1,11.18-3.78l6.53-.47a24.16,24.16,0,0,1,14.35,3.49l2.68,1.63a23.56,23.56,0,0,1,10.77,15.11c.2.92.39,1.84.59,2.76C361.8,317.36,360.45,328,354.38,335.49Z"/><polygon class="cls-4" points="276.27 309.84 282.44 315.99 283.19 315.31 277.02 309.15 276.27 309.84"/><polygon class="cls-2" points="288.38 294.31 291.08 298.22 291.95 297.68 289.24 293.76 288.38 294.31"/><polygon class="cls-5" points="296.18 305.86 293.99 310.06 294.92 310.5 297.11 306.31 296.18 305.86"/><polygon class="cls-4" points="298.49 294.81 295.5 298.52 296.32 299.13 299.31 295.41 298.49 294.81"/><polygon class="cls-6" points="289.58 305.61 284.72 304.98 284.58 305.96 289.44 306.59 289.58 305.61"/><polygon class="cls-5" points="321.49 268.24 318.5 271.95 319.32 272.56 322.31 268.84 321.49 268.24"/><polygon class="cls-4" points="312.59 279.04 307.73 278.41 307.59 279.39 312.45 280.02 312.59 279.04"/><polygon class="cls-5" points="298.45 280.23 294.07 282.33 294.53 283.21 298.92 281.11 298.45 280.23"/><polygon class="cls-6" points="337.43 272.88 337.2 277.56 338.24 277.61 338.46 272.93 337.43 272.88"/><polygon class="cls-5" points="336.6 286.61 332.24 288.76 332.72 289.64 337.08 287.49 336.6 286.61"/><polygon class="cls-4" points="369.85 280.92 365.85 283.64 366.45 284.44 370.45 281.72 369.85 280.92"/><polygon class="cls-4" points="358.04 288.77 353.58 286.82 353.15 287.72 357.61 289.67 358.04 288.77"/><polygon class="cls-6" points="378.87 301.19 374.08 302.2 374.3 303.17 379.09 302.16 378.87 301.19"/><polygon class="cls-2" points="364.79 304 361.48 300.54 360.72 301.21 364.03 304.67 364.79 304"/><polygon class="cls-2" points="315.88 285.89 311.86 288.57 312.45 289.38 316.48 286.7 315.88 285.89"/><polygon class="cls-2" points="339.31 281.08 342.28 284.82 343.11 284.22 340.14 280.48 339.31 281.08"/><polygon class="cls-5" points="351.63 272.33 347.7 275.14 348.32 275.93 352.25 273.12 351.63 272.33"/><polygon class="cls-5" points="365.89 291.69 363.31 295.68 364.2 296.2 366.77 292.21 365.89 291.69"/><polygon class="cls-5" points="383.91 309.96 380.46 313.3 381.2 314 384.64 310.66 383.91 309.96"/><polygon class="cls-6" points="302.9 283.79 298.04 290.94 298.91 291.48 303.76 284.33 302.9 283.79"/><polygon class="cls-6" points="310.77 269.45 315.66 276.58 316.53 276.03 311.64 268.91 310.77 269.45"/><polygon class="cls-4" points="328.79 281.26 324.8 288.88 325.73 289.32 329.72 281.7 328.79 281.26"/><polygon class="cls-4" points="333.22 268.36 341.95 270.04 342.16 269.07 333.42 267.39 333.22 268.36"/><polygon class="cls-6" points="347.81 290.01 354.2 295.95 354.92 295.24 348.53 289.3 347.81 290.01"/><polygon class="cls-2" points="364.57 272.67 358.29 278.72 359.03 279.42 365.3 273.37 364.57 272.67"/><polygon class="cls-4" points="371.43 308.69 366.24 315.62 367.08 316.19 372.27 309.27 371.43 308.69"/><polygon class="cls-2" points="376.9 292.5 381.6 299.74 382.48 299.22 377.78 291.98 376.9 292.5"/><polygon class="cls-4" points="386.14 326.93 379.97 320.78 379.22 321.47 385.39 327.62 386.14 326.93"/><polygon class="cls-2" points="374.04 342.46 371.33 338.55 370.46 339.1 373.17 343.01 374.04 342.46"/><polygon class="cls-5" points="366.23 330.91 368.42 326.72 367.49 326.27 365.3 330.47 366.23 330.91"/><polygon class="cls-4" points="363.92 341.97 366.92 338.25 366.1 337.65 363.1 341.36 363.92 341.97"/><polygon class="cls-6" points="372.83 331.17 377.69 331.8 377.83 330.81 372.97 330.19 372.83 331.17"/><polygon class="cls-5" points="340.92 368.54 343.91 364.82 343.09 364.22 340.1 367.93 340.92 368.54"/><polygon class="cls-4" points="349.83 357.74 354.69 358.36 354.82 357.38 349.96 356.75 349.83 357.74"/><polygon class="cls-5" points="363.96 356.55 368.35 354.45 367.88 353.56 363.5 355.66 363.96 356.55"/><polygon class="cls-6" points="324.98 363.89 325.21 359.21 324.18 359.16 323.95 363.85 324.98 363.89"/><polygon class="cls-5" points="325.81 350.16 330.17 348.01 329.69 347.13 325.33 349.28 325.81 350.16"/><polygon class="cls-4" points="292.57 355.86 296.56 353.14 295.96 352.33 291.97 355.05 292.57 355.86"/><polygon class="cls-4" points="304.38 348.01 308.83 349.96 309.27 349.06 304.81 347.11 304.38 348.01"/><polygon class="cls-6" points="283.54 335.58 288.33 334.57 288.11 333.6 283.32 334.61 283.54 335.58"/><polygon class="cls-2" points="297.62 332.77 300.93 336.23 301.69 335.56 298.39 332.1 297.62 332.77"/><polygon class="cls-2" points="346.53 350.88 350.55 348.2 349.96 347.39 345.94 350.07 346.53 350.88"/><polygon class="cls-2" points="323.1 355.69 320.13 351.96 319.31 352.56 322.27 356.29 323.1 355.69"/><polygon class="cls-5" points="310.79 364.45 314.71 361.64 314.09 360.84 310.17 363.65 310.79 364.45"/><polygon class="cls-5" points="296.52 345.08 299.1 341.09 298.22 340.57 295.64 344.56 296.52 345.08"/><polygon class="cls-5" points="278.5 326.81 281.95 323.47 281.21 322.78 277.77 326.12 278.5 326.81"/><polygon class="cls-6" points="359.52 352.98 364.37 345.83 363.5 345.29 358.65 352.44 359.52 352.98"/><polygon class="cls-6" points="351.64 367.32 346.75 360.2 345.89 360.74 350.77 367.87 351.64 367.32"/><polygon class="cls-4" points="333.62 355.51 337.61 347.89 336.69 347.45 332.7 355.07 333.62 355.51"/><polygon class="cls-4" points="329.19 368.42 320.46 366.74 320.25 367.71 328.99 369.39 329.19 368.42"/><polygon class="cls-6" points="314.6 346.76 308.21 340.82 307.49 341.54 313.88 347.47 314.6 346.76"/><polygon class="cls-2" points="297.85 364.1 304.12 358.05 303.39 357.36 297.11 363.41 297.85 364.1"/><polygon class="cls-4" points="290.98 328.08 296.17 321.16 295.33 320.58 290.14 327.51 290.98 328.08"/><polygon class="cls-2" points="285.51 344.27 280.81 337.03 279.94 337.55 284.63 344.79 285.51 344.27"/><path class="cls-1" d="M464.16,381.09c-35.8,0-64.92-27.88-64.92-62.14s29.12-62.14,64.92-62.14,64.91,27.87,64.91,62.14S500,381.09,464.16,381.09Zm0-86c-13.8,0-25,10.71-25,23.87s11.23,23.87,25,23.87,25-10.71,25-23.87S478,295.08,464.16,295.08Z"/><path class="cls-2" d="M464.16,258.31c35,0,63.41,27.15,63.41,60.64s-28.39,60.64-63.41,60.64S400.74,352.44,400.74,319s28.39-60.64,63.42-60.64m0,86c14.64,0,26.52-11.36,26.52-25.37s-11.88-25.37-26.52-25.37S437.63,304.94,437.63,319s11.87,25.37,26.53,25.37m0-89c-36.63,0-66.42,28.55-66.42,63.64s29.79,63.64,66.42,63.64S530.57,354,530.57,319s-29.79-63.64-66.41-63.64Zm0,86c-13,0-23.53-10-23.53-22.37s10.55-22.37,23.53-22.37,23.52,10,23.52,22.37-10.55,22.37-23.52,22.37Z"/><path class="cls-7" d="M522,302.51a29.5,29.5,0,0,0-5.06-10.32l-9.92-13a29.92,29.92,0,0,0-12.65-9.58l-16.27-6.5a30.43,30.43,0,0,0-16.91-1.64l-14.66,2.77a30.15,30.15,0,0,0-14.34,7l-14.49,12.78a29.4,29.4,0,0,0-9,14.46L404,316.25a13.69,13.69,0,0,0-.48,3.35,51.52,51.52,0,0,0,6.81,26.89,55.58,55.58,0,0,0,23.1,21.5c1.37.72,30.51,15.32,58.65.9,0,0,17.43-8.94,28.39-31a60.46,60.46,0,0,0,4.25-12.28c1.16-5.2,1.22-10.25.21-12.07Zm-35,33c-6.7,8.26-20,12.3-31.5,9.32-2.3-.6-11.06-2.88-16.26-11.2A24,24,0,0,1,435.84,318l1.83-9.17a16.27,16.27,0,0,1,7-10.37l3.22-2.11a23.5,23.5,0,0,1,11.18-3.78l6.53-.47A24.16,24.16,0,0,1,480,295.57l2.68,1.63a23.56,23.56,0,0,1,10.77,15.11c.2.92.4,1.84.59,2.76C494.38,317.36,493,328,487,335.49Z"/><polygon class="cls-4" points="408.86 309.84 415.02 315.99 415.77 315.31 409.6 309.15 408.86 309.84"/><polygon class="cls-2" points="420.96 294.31 423.66 298.22 424.53 297.68 421.82 293.76 420.96 294.31"/><polygon class="cls-5" points="428.76 305.86 426.57 310.06 427.5 310.5 429.69 306.31 428.76 305.86"/><polygon class="cls-4" points="431.07 294.81 428.08 298.52 428.9 299.13 431.89 295.41 431.07 294.81"/><polygon class="cls-6" points="422.16 305.61 417.3 304.98 417.17 305.96 422.03 306.59 422.16 305.61"/><polygon class="cls-5" points="454.07 268.24 451.08 271.95 451.9 272.56 454.89 268.84 454.07 268.24"/><polygon class="cls-4" points="445.17 279.04 440.31 278.41 440.17 279.39 445.03 280.02 445.17 279.04"/><polygon class="cls-5" points="431.03 280.23 426.65 282.33 427.11 283.21 431.5 281.11 431.03 280.23"/><polygon class="cls-6" points="470.01 272.88 469.78 277.56 470.82 277.61 471.04 272.93 470.01 272.88"/><polygon class="cls-5" points="469.18 286.61 464.82 288.76 465.3 289.64 469.66 287.49 469.18 286.61"/><polygon class="cls-4" points="502.43 280.92 498.43 283.64 499.03 284.44 503.03 281.72 502.43 280.92"/><polygon class="cls-4" points="490.62 288.77 486.16 286.82 485.73 287.72 490.19 289.67 490.62 288.77"/><polygon class="cls-6" points="511.45 301.19 506.66 302.2 506.88 303.17 511.67 302.16 511.45 301.19"/><polygon class="cls-2" points="497.37 304 494.06 300.54 493.3 301.21 496.61 304.67 497.37 304"/><polygon class="cls-2" points="448.46 285.89 444.44 288.57 445.03 289.38 449.06 286.7 448.46 285.89"/><polygon class="cls-2" points="471.89 281.08 474.86 284.82 475.69 284.22 472.72 280.48 471.89 281.08"/><polygon class="cls-5" points="484.21 272.33 480.28 275.14 480.9 275.93 484.83 273.12 484.21 272.33"/><polygon class="cls-5" points="498.47 291.69 495.89 295.68 496.78 296.2 499.35 292.21 498.47 291.69"/><polygon class="cls-5" points="516.49 309.96 513.04 313.3 513.78 314 517.23 310.66 516.49 309.96"/><polygon class="cls-6" points="435.48 283.79 430.62 290.94 431.49 291.48 436.35 284.33 435.48 283.79"/><polygon class="cls-6" points="443.35 269.45 448.24 276.58 449.11 276.03 444.22 268.91 443.35 269.45"/><polygon class="cls-4" points="461.37 281.26 457.38 288.88 458.31 289.32 462.3 281.7 461.37 281.26"/><polygon class="cls-4" points="465.8 268.36 474.53 270.04 474.74 269.07 466 267.39 465.8 268.36"/><polygon class="cls-6" points="480.39 290.01 486.78 295.95 487.5 295.24 481.11 289.3 480.39 290.01"/><polygon class="cls-2" points="497.15 272.67 490.87 278.72 491.61 279.42 497.88 273.37 497.15 272.67"/><polygon class="cls-4" points="504.01 308.69 498.82 315.62 499.67 316.19 504.85 309.27 504.01 308.69"/><polygon class="cls-2" points="509.48 292.5 514.18 299.74 515.06 299.22 510.36 291.98 509.48 292.5"/><polygon class="cls-4" points="518.72 326.93 512.55 320.78 511.81 321.47 517.97 327.62 518.72 326.93"/><polygon class="cls-2" points="506.62 342.46 503.91 338.55 503.05 339.1 505.75 343.01 506.62 342.46"/><polygon class="cls-5" points="498.81 330.91 501 326.72 500.07 326.27 497.88 330.47 498.81 330.91"/><polygon class="cls-4" points="496.5 341.97 499.5 338.25 498.68 337.65 495.68 341.36 496.5 341.97"/><polygon class="cls-6" points="505.41 331.17 510.27 331.8 510.41 330.81 505.55 330.19 505.41 331.17"/><polygon class="cls-5" points="473.5 368.54 476.5 364.82 475.67 364.22 472.68 367.93 473.5 368.54"/><polygon class="cls-4" points="482.41 357.74 487.27 358.36 487.4 357.38 482.55 356.75 482.41 357.74"/><polygon class="cls-5" points="496.54 356.55 500.93 354.45 500.46 353.56 496.08 355.66 496.54 356.55"/><polygon class="cls-6" points="457.56 363.89 457.79 359.21 456.76 359.16 456.53 363.85 457.56 363.89"/><polygon class="cls-5" points="458.39 350.16 462.75 348.01 462.27 347.13 457.92 349.28 458.39 350.16"/><polygon class="cls-4" points="425.15 355.86 429.14 353.14 428.54 352.33 424.55 355.05 425.15 355.86"/><polygon class="cls-4" points="436.96 348.01 441.42 349.96 441.85 349.06 437.39 347.11 436.96 348.01"/><polygon class="cls-6" points="416.13 335.58 420.91 334.57 420.69 333.6 415.9 334.61 416.13 335.58"/><polygon class="cls-2" points="430.2 332.77 433.51 336.23 434.27 335.56 430.97 332.1 430.2 332.77"/><polygon class="cls-2" points="479.11 350.88 483.13 348.2 482.54 347.39 478.52 350.07 479.11 350.88"/><polygon class="cls-2" points="455.68 355.69 452.71 351.96 451.88 352.56 454.85 356.29 455.68 355.69"/><polygon class="cls-5" points="443.37 364.45 447.29 361.64 446.67 360.84 442.75 363.65 443.37 364.45"/><polygon class="cls-5" points="429.1 345.08 431.68 341.09 430.8 340.57 428.22 344.56 429.1 345.08"/><polygon class="cls-5" points="411.08 326.81 414.53 323.47 413.79 322.78 410.35 326.12 411.08 326.81"/><polygon class="cls-6" points="492.1 352.98 496.95 345.83 496.08 345.29 491.23 352.44 492.1 352.98"/><polygon class="cls-6" points="484.22 367.32 479.33 360.2 478.47 360.74 483.36 367.87 484.22 367.32"/><polygon class="cls-4" points="466.2 355.51 470.19 347.89 469.27 347.45 465.28 355.07 466.2 355.51"/><polygon class="cls-4" points="461.77 368.42 453.04 366.74 452.83 367.71 461.57 369.39 461.77 368.42"/><polygon class="cls-6" points="447.18 346.76 440.79 340.82 440.07 341.54 446.46 347.47 447.18 346.76"/><polygon class="cls-2" points="430.43 364.1 436.7 358.05 435.97 357.36 429.69 363.41 430.43 364.1"/><polygon class="cls-4" points="423.56 328.08 428.75 321.16 427.91 320.58 422.72 327.51 423.56 328.08"/><polygon class="cls-2" points="418.1 344.27 413.4 337.03 412.51 337.55 417.22 344.79 418.1 344.27"/></g></g></svg>