<svg xmlns="http://www.w3.org/2000/svg" viewBox="0 0 602.75 509.31"><defs><style>.cls-1{fill:#ffdec2;}.cls-2{fill:#fb3371;}.cls-3{fill:#f98ff9;}.cls-4{fill:red;}.cls-5{fill:#fff;}.cls-6{fill:lime;}.cls-7{fill:#ff0;}.cls-8{font-size:72px;fill:#fafafa;font-family:Inter_FXH-Regular, Inter_FXH;}</style></defs><title>perDozen2Asset 9</title><g id="Layer_2" data-name="Layer 2"><g id="Layer_1-2" data-name="Layer 1"><path class="cls-1" d="M254.48,501.81A247,247,0,0,1,79.84,80.19,247,247,0,1,1,429.12,429.47,245.36,245.36,0,0,1,254.48,501.81Zm0-339.65a92.68,92.68,0,1,0,92.67,92.67A92.78,92.78,0,0,0,254.48,162.16Z"/><path class="cls-2" d="M254.48,15.35C386.74,15.35,494,122.57,494,254.83S386.74,494.31,254.48,494.31,15,387.09,15,254.83,122.22,15.35,254.48,15.35m0,339.66A100.18,100.18,0,1,0,154.3,254.83,100.18,100.18,0,0,0,254.48,355m0-354.66A254.39,254.39,0,0,0,74.54,434.77a254.48,254.48,0,1,0,279-414.42,253,253,0,0,0-99.06-20Zm0,339.66a85.18,85.18,0,1,1,85.17-85.18A85.27,85.27,0,0,1,254.48,340Z"/><path class="cls-3" d="M472.85,189.91a118.09,118.09,0,0,0-19.12-40.75L416.3,98a113.7,113.7,0,0,0-47.8-37.84L307.07,34.47A110.08,110.08,0,0,0,243.2,28L187.83,39A111.85,111.85,0,0,0,133.7,66.56L79,117A117.13,117.13,0,0,0,45,174.16l-17.88,70a58,58,0,0,0-1.8,13.26A211.19,211.19,0,0,0,51.05,363.6c28.72,52.24,71.46,76.3,87.26,84.92,5.17,2.82,115.2,60.48,221.48,3.52,0,0,65.81-35.28,107.21-122.48,10.14-21.35,15.58-46.32,16.05-48.52,4.37-20.53,4.62-40.48.79-47.65ZM340.61,320.17C315.3,352.78,265,368.73,221.66,357c-8.69-2.36-41.78-11.36-61.44-44.22-15.72-26.26-13.76-52.58-12.66-61.72q3.45-18.12,6.91-36.23A64.13,64.13,0,0,1,181,173.85l12.16-8.35a85.89,85.89,0,0,1,42.21-14.91L260,148.74a88.28,88.28,0,0,1,54.21,13.75L324.33,169A93,93,0,0,1,365,228.63q1.13,5.43,2.24,10.87C368.61,248.56,363.52,290.66,340.61,320.17Z"/><rect class="cls-4" x="67.01" y="272.84" width="5.98" height="51.42" transform="translate(-236.64 297.78) rotate(-76.66)"/><rect class="cls-5" x="104.53" y="167.1" width="7.86" height="37.22" transform="translate(-84.49 90.72) rotate(-33.5)"/><rect class="cls-6" x="100.55" y="246.91" width="43.42" height="9.17" transform="translate(-157.36 248.52) rotate(-63.46)"/><rect class="cls-7" x="68.75" y="206.51" width="9.78" height="46.29" transform="translate(-163.79 271.97) rotate(-82.33)"/><rect class="cls-4" x="440.35" y="225.08" width="6.14" height="52.84" transform="translate(-66.33 257.12) rotate(-30.19)"/><rect class="cls-5" x="374.75" y="339.9" width="8.84" height="41.83" transform="translate(-136.17 269.22) rotate(-33.5)"/><rect class="cls-6" x="371.04" y="280.48" width="44.61" height="9.42" transform="translate(-37.53 509.69) rotate(-63.46)"/><rect class="cls-7" x="409.2" y="314.55" width="43.83" height="9.26" transform="translate(-66.72 119.45) rotate(-14.65)"/><rect class="cls-4" x="170.92" y="377.71" width="51.42" height="5.98" transform="translate(-94.37 66.19) rotate(-15.46)"/><rect class="cls-5" x="88.49" y="344.21" width="37.22" height="7.86" transform="translate(-30.97 11.08) rotate(-5.18)"/><rect class="cls-6" x="178.97" y="405.57" width="9.17" height="43.42" transform="translate(-212.47 183.51) rotate(-35.14)"/><rect class="cls-7" x="106.11" y="394.75" width="46.29" height="9.78" transform="translate(-270.03 269.31) rotate(-54)"/><rect class="cls-4" x="297.52" y="81.43" width="52.84" height="6.14" transform="translate(-2.58 10.6) rotate(-1.87)"/><rect class="cls-5" x="368.77" y="188.51" width="41.83" height="8.84" transform="translate(-15.81 35.94) rotate(-5.18)"/><rect class="cls-6" x="325.13" y="122.26" width="9.42" height="44.61" transform="translate(-23.1 216.18) rotate(-35.14)"/><rect class="cls-7" x="355.76" y="122.82" width="43.83" height="9.26" transform="translate(164.57 464.3) rotate(-76.33)"/><rect class="cls-4" x="353.67" y="376.85" width="5.98" height="51.42" transform="translate(-71.13 728.53) rotate(-85.77)"/><rect class="cls-5" x="221.44" y="423.35" width="37.22" height="7.86" transform="translate(-249.07 458.19) rotate(-64.29)"/><rect class="cls-6" x="267.78" y="377.17" width="43.42" height="9.17" transform="translate(-27.51 22.51) rotate(-4.25)"/><rect class="cls-7" x="290.73" y="411.55" width="9.78" height="46.29" transform="translate(-146.92 150.95) rotate(-23.11)"/><rect class="cls-4" x="146.17" y="145.42" width="52.84" height="6.14" transform="translate(-40.99 227.38) rotate(-60.98)"/><rect class="cls-5" x="230.99" y="100.68" width="41.83" height="8.84" transform="translate(47.93 286.47) rotate(-64.29)"/><rect class="cls-6" x="111.99" y="112.54" width="44.61" height="9.42" transform="translate(-8.32 10.28) rotate(-4.25)"/><rect class="cls-7" x="184.92" y="59.87" width="9.26" height="43.83" transform="translate(-1.72 159.46) rotate(-45.44)"/><circle class="cls-2" cx="537.36" cy="65.4" r="65.4"/><text class="cls-8" transform="translate(498.85 92.98)">12</text></g></g></svg>