<svg xmlns="http://www.w3.org/2000/svg" viewBox="0 0 524.57 376.59"><defs><style>.cls-1{fill:#ffdec2;}.cls-2{fill:#f98ff9;}.cls-3{fill:red;}.cls-4{fill:#fff;}.cls-5{fill:lime;}.cls-6{fill:#ff0;}.cls-7{fill:#8e5817;}.cls-8{fill:#f95353;}</style></defs><title>perDozen2Asset 6</title><g id="Layer_2" data-name="Layer 2"><g id="Layer_1-2" data-name="Layer 1"><path class="cls-1" d="M63.41,0C28.39,0,0,27.15,0,60.64s28.39,60.64,63.41,60.64,63.42-27.15,63.42-60.64S98.44,0,63.41,0Zm0,86C48.76,86,36.89,74.65,36.89,60.64S48.76,35.28,63.41,35.28,89.94,46.63,89.94,60.64,78.06,86,63.41,86Z"/><path class="cls-2" d="M121.24,44.2a29.43,29.43,0,0,0-5.07-10.32l-9.91-13a29.84,29.84,0,0,0-12.65-9.58L77.34,4.84A30.43,30.43,0,0,0,60.43,3.2L45.76,6a30.05,30.05,0,0,0-14.33,7L16.94,25.75A29.4,29.4,0,0,0,8,40.21L3.21,57.94a14.18,14.18,0,0,0-.47,3.36A51.49,51.49,0,0,0,9.55,88.18a55.62,55.62,0,0,0,23.1,21.51c1.37.71,30.51,15.31,58.65.89,0,0,17.43-8.93,28.39-31a61.63,61.63,0,0,0,4.25-12.28c1.16-5.2,1.22-10.25.21-12.07Zm-35,33c-6.7,8.25-20,12.29-31.5,9.31-2.3-.6-11.06-2.88-16.27-11.2A24,24,0,0,1,35.1,59.67l1.83-9.17a16.19,16.19,0,0,1,7-10.36L47.17,38a23.34,23.34,0,0,1,11.18-3.77l6.53-.47a24.23,24.23,0,0,1,14.35,3.48l2.68,1.64A23.54,23.54,0,0,1,92.68,54c.2.91.39,1.83.59,2.75C93.64,59.05,92.29,69.71,86.22,77.19Z"/><polygon class="cls-3" points="8.11 51.53 14.28 57.69 15.03 57 8.86 50.85 8.11 51.53"/><polygon class="cls-4" points="20.22 36 22.92 39.91 23.79 39.37 21.08 35.46 20.22 36"/><polygon class="cls-5" points="28.02 47.55 25.83 51.75 26.76 52.19 28.95 48 28.02 47.55"/><polygon class="cls-3" points="30.33 36.5 27.34 40.22 28.16 40.82 31.15 37.11 30.33 36.5"/><polygon class="cls-6" points="21.42 47.3 16.56 46.67 16.42 47.66 21.28 48.28 21.42 47.3"/><polygon class="cls-5" points="53.33 9.93 50.34 13.65 51.16 14.25 54.15 10.54 53.33 9.93"/><polygon class="cls-3" points="44.43 20.73 39.56 20.1 39.43 21.09 44.29 21.71 44.43 20.73"/><polygon class="cls-5" points="30.29 21.92 25.91 24.02 26.37 24.91 30.75 22.81 30.29 21.92"/><polygon class="cls-6" points="69.27 14.57 69.04 19.26 70.08 19.3 70.3 14.62 69.27 14.57"/><polygon class="cls-5" points="68.44 28.3 64.08 30.45 64.56 31.34 68.92 29.18 68.44 28.3"/><polygon class="cls-3" points="101.68 22.61 97.69 25.33 98.29 26.14 102.28 23.42 101.68 22.61"/><polygon class="cls-3" points="89.88 30.46 85.42 28.51 84.99 29.41 89.44 31.36 89.88 30.46"/><polygon class="cls-6" points="110.71 42.89 105.92 43.9 106.14 44.86 110.93 43.85 110.71 42.89"/><polygon class="cls-4" points="96.63 45.7 93.32 42.23 92.56 42.9 95.86 46.37 96.63 45.7"/><polygon class="cls-4" points="47.72 27.58 43.7 30.27 44.29 31.08 48.31 28.4 47.72 27.58"/><polygon class="cls-4" points="71.15 22.78 74.12 26.51 74.95 25.91 71.98 22.18 71.15 22.78"/><polygon class="cls-5" points="83.46 14.02 79.54 16.83 80.16 17.62 84.08 14.81 83.46 14.02"/><polygon class="cls-5" points="97.73 33.38 95.15 37.38 96.04 37.9 98.61 33.9 97.73 33.38"/><polygon class="cls-5" points="115.75 51.66 112.3 54.99 113.04 55.69 116.48 52.35 115.75 51.66"/><polygon class="cls-6" points="34.73 25.49 29.88 32.63 30.75 33.17 35.6 26.03 34.73 25.49"/><polygon class="cls-6" points="42.61 11.14 47.5 18.27 48.37 17.73 43.48 10.6 42.61 11.14"/><polygon class="cls-3" points="60.63 22.95 56.64 30.57 57.56 31.02 61.55 23.4 60.63 22.95"/><polygon class="cls-3" points="65.06 10.05 73.79 11.73 74 10.76 65.26 9.08 65.06 10.05"/><polygon class="cls-6" points="79.65 31.7 86.04 37.64 86.76 36.93 80.37 30.99 79.65 31.7"/><polygon class="cls-4" points="96.41 14.36 90.13 20.41 90.87 21.11 97.14 15.06 96.41 14.36"/><polygon class="cls-3" points="103.27 50.38 98.08 57.31 98.92 57.89 104.11 50.96 103.27 50.38"/><polygon class="cls-4" points="108.74 34.2 113.44 41.44 114.32 40.91 109.62 33.67 108.74 34.2"/><polygon class="cls-3" points="117.98 68.63 111.81 62.48 111.06 63.16 117.23 69.31 117.98 68.63"/><polygon class="cls-4" points="105.88 84.16 103.17 80.25 102.3 80.79 105.01 84.7 105.88 84.16"/><polygon class="cls-5" points="98.07 72.61 100.26 68.41 99.33 67.97 97.14 72.16 98.07 72.61"/><polygon class="cls-3" points="95.76 83.66 98.76 79.94 97.94 79.34 94.94 83.05 95.76 83.66"/><polygon class="cls-6" points="104.67 72.86 109.53 73.49 109.67 72.51 104.81 71.88 104.67 72.86"/><polygon class="cls-5" points="72.76 110.23 75.75 106.51 74.93 105.91 71.94 109.62 72.76 110.23"/><polygon class="cls-3" points="81.67 99.43 86.53 100.06 86.66 99.08 81.8 98.45 81.67 99.43"/><polygon class="cls-5" points="95.8 98.24 100.19 96.14 99.72 95.25 95.34 97.35 95.8 98.24"/><polygon class="cls-6" points="56.82 105.59 57.05 100.9 56.02 100.86 55.79 105.54 56.82 105.59"/><polygon class="cls-5" points="57.65 91.86 62.01 89.71 61.53 88.83 57.17 90.98 57.65 91.86"/><polygon class="cls-3" points="24.41 97.55 28.4 94.83 27.8 94.02 23.81 96.74 24.41 97.55"/><polygon class="cls-3" points="36.21 89.7 40.67 91.65 41.1 90.75 36.65 88.8 36.21 89.7"/><polygon class="cls-6" points="15.38 77.27 20.17 76.27 19.95 75.3 15.16 76.31 15.38 77.27"/><polygon class="cls-4" points="29.46 74.46 32.77 77.93 33.53 77.26 30.23 73.79 29.46 74.46"/><polygon class="cls-4" points="78.37 92.58 82.39 89.9 81.8 89.08 77.78 91.76 78.37 92.58"/><polygon class="cls-4" points="54.94 97.38 51.97 93.65 51.14 94.25 54.11 97.98 54.94 97.38"/><polygon class="cls-5" points="42.63 106.14 46.55 103.33 45.93 102.54 42.01 105.35 42.63 106.14"/><polygon class="cls-5" points="28.36 86.78 30.94 82.79 30.05 82.27 27.48 86.26 28.36 86.78"/><polygon class="cls-5" points="10.34 68.5 13.79 65.17 13.05 64.47 9.61 67.81 10.34 68.5"/><polygon class="cls-6" points="91.36 94.67 96.21 87.53 95.34 86.99 90.49 94.13 91.36 94.67"/><polygon class="cls-6" points="83.48 109.02 78.59 101.89 77.72 102.44 82.61 109.56 83.48 109.02"/><polygon class="cls-3" points="65.46 97.21 69.45 89.59 68.53 89.14 64.54 96.76 65.46 97.21"/><polygon class="cls-3" points="61.03 110.11 52.3 108.43 52.09 109.4 60.83 111.08 61.03 110.11"/><polygon class="cls-6" points="46.44 88.46 40.05 82.52 39.33 83.23 45.72 89.17 46.44 88.46"/><polygon class="cls-4" points="29.69 105.8 35.96 99.75 35.23 99.05 28.95 105.1 29.69 105.8"/><polygon class="cls-3" points="22.82 69.78 28.01 62.85 27.17 62.27 21.98 69.2 22.82 69.78"/><polygon class="cls-4" points="17.35 85.96 12.65 78.72 11.77 79.25 16.47 86.49 17.35 85.96"/><path class="cls-1" d="M196,0c-35,0-63.41,27.15-63.41,60.64S161,121.28,196,121.28s63.42-27.15,63.42-60.64S231,0,196,0Zm0,86c-14.65,0-26.52-11.36-26.52-25.37S181.34,35.28,196,35.28s26.53,11.35,26.53,25.36S210.64,86,196,86Z"/><path class="cls-7" d="M253.82,44.2a29.58,29.58,0,0,0-5.06-10.32l-9.92-13a29.84,29.84,0,0,0-12.65-9.58L209.92,4.84A30.43,30.43,0,0,0,193,3.2L178.35,6A30,30,0,0,0,164,13L149.52,25.75a29.4,29.4,0,0,0-9,14.46l-4.74,17.73a14.18,14.18,0,0,0-.47,3.36,51.49,51.49,0,0,0,6.81,26.88,55.62,55.62,0,0,0,23.1,21.51c1.37.71,30.51,15.31,58.65.89,0,0,17.43-8.93,28.39-31a61.63,61.63,0,0,0,4.25-12.28c1.16-5.2,1.22-10.25.21-12.07Zm-35,33c-6.7,8.25-20,12.29-31.5,9.31-2.3-.6-11.06-2.88-16.27-11.2a24,24,0,0,1-3.35-15.63l1.83-9.17a16.19,16.19,0,0,1,7-10.36L179.75,38a23.38,23.38,0,0,1,11.18-3.77l6.53-.47a24.23,24.23,0,0,1,14.35,3.48l2.68,1.64A23.54,23.54,0,0,1,225.26,54c.2.91.39,1.83.59,2.75C226.22,59.05,224.87,69.71,218.8,77.19Z"/><polygon class="cls-3" points="140.69 51.53 146.86 57.69 147.61 57 141.44 50.85 140.69 51.53"/><polygon class="cls-4" points="152.8 36 155.5 39.91 156.37 39.37 153.66 35.46 152.8 36"/><polygon class="cls-5" points="160.6 47.55 158.41 51.75 159.34 52.19 161.53 48 160.6 47.55"/><polygon class="cls-3" points="162.91 36.5 159.91 40.22 160.74 40.82 163.73 37.11 162.91 36.5"/><polygon class="cls-6" points="154 47.3 149.14 46.67 149 47.66 153.87 48.28 154 47.3"/><polygon class="cls-5" points="185.91 9.93 182.92 13.65 183.74 14.25 186.73 10.54 185.91 9.93"/><polygon class="cls-3" points="177.01 20.73 172.15 20.1 172.01 21.09 176.87 21.71 177.01 20.73"/><polygon class="cls-5" points="162.87 21.92 158.49 24.02 158.95 24.91 163.34 22.81 162.87 21.92"/><polygon class="cls-6" points="201.85 14.57 201.62 19.26 202.66 19.3 202.88 14.62 201.85 14.57"/><polygon class="cls-5" points="201.02 28.3 196.66 30.45 197.14 31.34 201.5 29.18 201.02 28.3"/><polygon class="cls-3" points="234.26 22.61 230.27 25.33 230.87 26.14 234.87 23.42 234.26 22.61"/><polygon class="cls-3" points="222.46 30.46 218 28.51 217.57 29.41 222.03 31.36 222.46 30.46"/><polygon class="cls-6" points="243.29 42.89 238.5 43.9 238.72 44.86 243.51 43.85 243.29 42.89"/><polygon class="cls-4" points="229.21 45.7 225.9 42.23 225.14 42.9 228.44 46.37 229.21 45.7"/><polygon class="cls-4" points="180.3 27.58 176.28 30.27 176.87 31.08 180.9 28.4 180.3 27.58"/><polygon class="cls-4" points="203.73 22.78 206.7 26.51 207.53 25.91 204.56 22.18 203.73 22.78"/><polygon class="cls-5" points="216.04 14.02 212.12 16.83 212.74 17.62 216.67 14.81 216.04 14.02"/><polygon class="cls-5" points="230.31 33.38 227.73 37.38 228.62 37.9 231.19 33.9 230.31 33.38"/><polygon class="cls-5" points="248.33 51.66 244.88 54.99 245.62 55.69 249.06 52.35 248.33 51.66"/><polygon class="cls-6" points="167.31 25.49 162.46 32.63 163.33 33.17 168.18 26.03 167.31 25.49"/><polygon class="cls-6" points="175.19 11.14 180.08 18.27 180.95 17.73 176.06 10.6 175.19 11.14"/><polygon class="cls-3" points="193.21 22.95 189.22 30.57 190.14 31.02 194.14 23.4 193.21 22.95"/><polygon class="cls-3" points="197.64 10.05 206.37 11.73 206.58 10.76 197.84 9.08 197.64 10.05"/><polygon class="cls-6" points="212.23 31.7 218.62 37.64 219.34 36.93 212.95 30.99 212.23 31.7"/><polygon class="cls-4" points="228.99 14.36 222.71 20.41 223.45 21.11 229.72 15.06 228.99 14.36"/><polygon class="cls-3" points="235.85 50.38 230.66 57.31 231.5 57.89 236.69 50.96 235.85 50.38"/><polygon class="cls-4" points="241.32 34.2 246.02 41.44 246.9 40.91 242.2 33.67 241.32 34.2"/><polygon class="cls-3" points="250.56 68.63 244.39 62.48 243.64 63.16 249.81 69.31 250.56 68.63"/><polygon class="cls-4" points="238.46 84.16 235.75 80.25 234.88 80.79 237.59 84.7 238.46 84.16"/><polygon class="cls-5" points="230.65 72.61 232.84 68.41 231.91 67.97 229.72 72.16 230.65 72.61"/><polygon class="cls-3" points="228.34 83.66 231.34 79.94 230.52 79.34 227.52 83.05 228.34 83.66"/><polygon class="cls-6" points="237.25 72.86 242.11 73.49 242.25 72.51 237.39 71.88 237.25 72.86"/><polygon class="cls-5" points="205.34 110.23 208.33 106.51 207.51 105.91 204.52 109.62 205.34 110.23"/><polygon class="cls-3" points="214.25 99.43 219.11 100.06 219.24 99.08 214.38 98.45 214.25 99.43"/><polygon class="cls-5" points="228.38 98.24 232.77 96.14 232.3 95.25 227.92 97.35 228.38 98.24"/><polygon class="cls-6" points="189.4 105.59 189.63 100.9 188.6 100.86 188.37 105.54 189.4 105.59"/><polygon class="cls-5" points="190.23 91.86 194.59 89.71 194.11 88.83 189.75 90.98 190.23 91.86"/><polygon class="cls-3" points="156.99 97.55 160.98 94.83 160.38 94.02 156.39 96.74 156.99 97.55"/><polygon class="cls-3" points="168.79 89.7 173.25 91.65 173.69 90.75 169.23 88.8 168.79 89.7"/><polygon class="cls-6" points="147.96 77.27 152.75 76.27 152.53 75.3 147.74 76.31 147.96 77.27"/><polygon class="cls-4" points="162.04 74.46 165.35 77.93 166.11 77.26 162.81 73.79 162.04 74.46"/><polygon class="cls-4" points="210.95 92.58 214.97 89.9 214.38 89.08 210.36 91.76 210.95 92.58"/><polygon class="cls-4" points="187.52 97.38 184.55 93.65 183.72 94.25 186.69 97.98 187.52 97.38"/><polygon class="cls-5" points="175.21 106.14 179.13 103.33 178.51 102.54 174.59 105.35 175.21 106.14"/><polygon class="cls-5" points="160.94 86.78 163.52 82.79 162.64 82.27 160.06 86.26 160.94 86.78"/><polygon class="cls-5" points="142.92 68.5 146.37 65.17 145.63 64.47 142.19 67.81 142.92 68.5"/><polygon class="cls-6" points="223.94 94.67 228.79 87.53 227.92 86.99 223.07 94.13 223.94 94.67"/><polygon class="cls-6" points="216.06 109.02 211.17 101.89 210.31 102.44 215.19 109.56 216.06 109.02"/><polygon class="cls-3" points="198.04 97.21 202.03 89.59 201.11 89.14 197.12 96.76 198.04 97.21"/><polygon class="cls-3" points="193.61 110.11 184.88 108.43 184.67 109.4 193.41 111.08 193.61 110.11"/><polygon class="cls-6" points="179.02 88.46 172.63 82.52 171.91 83.23 178.3 89.17 179.02 88.46"/><polygon class="cls-4" points="162.27 105.8 168.54 99.75 167.81 99.05 161.53 105.1 162.27 105.8"/><polygon class="cls-3" points="155.4 69.78 160.59 62.85 159.75 62.27 154.56 69.2 155.4 69.78"/><polygon class="cls-4" points="149.94 85.96 145.24 78.72 144.35 79.25 149.06 86.49 149.94 85.96"/><path class="cls-1" d="M328.58,0c-35,0-63.42,27.15-63.42,60.64s28.39,60.64,63.42,60.64S392,94.13,392,60.64,363.6,0,328.58,0Zm0,86c-14.66,0-26.53-11.36-26.53-25.37s11.87-25.36,26.53-25.36S355.1,46.63,355.1,60.64,343.22,86,328.58,86Z"/><path class="cls-8" d="M386.4,44.2a29.58,29.58,0,0,0-5.06-10.32l-9.92-13a29.84,29.84,0,0,0-12.65-9.58L342.5,4.84A30.43,30.43,0,0,0,325.59,3.2L310.93,6a30,30,0,0,0-14.34,7L282.1,25.75a29.4,29.4,0,0,0-9,14.46l-4.74,17.73a14.18,14.18,0,0,0-.47,3.36,51.49,51.49,0,0,0,6.81,26.88,55.62,55.62,0,0,0,23.1,21.51c1.37.71,30.51,15.31,58.65.89,0,0,17.43-8.93,28.39-31a60.93,60.93,0,0,0,4.25-12.28c1.16-5.2,1.22-10.25.21-12.07Zm-35,33c-6.7,8.25-20,12.29-31.5,9.31-2.3-.6-11.06-2.88-16.27-11.2a24,24,0,0,1-3.35-15.63l1.83-9.17a16.22,16.22,0,0,1,7-10.36L312.33,38a23.38,23.38,0,0,1,11.18-3.77l6.53-.47a24.23,24.23,0,0,1,14.35,3.48l2.68,1.64A23.54,23.54,0,0,1,357.84,54c.2.91.39,1.83.59,2.75C358.8,59.05,357.45,69.71,351.38,77.19Z"/><polygon class="cls-3" points="273.27 51.53 279.44 57.69 280.19 57 274.02 50.85 273.27 51.53"/><polygon class="cls-4" points="285.38 36 288.08 39.91 288.95 39.37 286.24 35.46 285.38 36"/><polygon class="cls-5" points="293.18 47.55 290.99 51.75 291.92 52.19 294.11 48 293.18 47.55"/><polygon class="cls-3" points="295.49 36.5 292.5 40.22 293.32 40.82 296.31 37.11 295.49 36.5"/><polygon class="cls-6" points="286.58 47.3 281.72 46.67 281.58 47.66 286.44 48.28 286.58 47.3"/><polygon class="cls-5" points="318.49 9.93 315.5 13.65 316.32 14.25 319.31 10.54 318.49 9.93"/><polygon class="cls-3" points="309.59 20.73 304.73 20.1 304.59 21.09 309.45 21.71 309.59 20.73"/><polygon class="cls-5" points="295.45 21.92 291.07 24.02 291.53 24.91 295.92 22.81 295.45 21.92"/><polygon class="cls-6" points="334.43 14.57 334.2 19.26 335.24 19.3 335.46 14.62 334.43 14.57"/><polygon class="cls-5" points="333.6 28.3 329.24 30.45 329.72 31.34 334.08 29.18 333.6 28.3"/><polygon class="cls-3" points="366.85 22.61 362.85 25.33 363.45 26.14 367.45 23.42 366.85 22.61"/><polygon class="cls-3" points="355.04 30.46 350.58 28.51 350.15 29.41 354.61 31.36 355.04 30.46"/><polygon class="cls-6" points="375.87 42.89 371.08 43.9 371.3 44.86 376.09 43.85 375.87 42.89"/><polygon class="cls-4" points="361.79 45.7 358.48 42.23 357.72 42.9 361.03 46.37 361.79 45.7"/><polygon class="cls-4" points="312.88 27.58 308.86 30.27 309.45 31.08 313.48 28.4 312.88 27.58"/><polygon class="cls-4" points="336.31 22.78 339.28 26.51 340.11 25.91 337.14 22.18 336.31 22.78"/><polygon class="cls-5" points="348.63 14.02 344.7 16.83 345.32 17.62 349.25 14.81 348.63 14.02"/><polygon class="cls-5" points="362.89 33.38 360.31 37.38 361.2 37.9 363.77 33.9 362.89 33.38"/><polygon class="cls-5" points="380.91 51.66 377.46 54.99 378.2 55.69 381.64 52.35 380.91 51.66"/><polygon class="cls-6" points="299.9 25.49 295.04 32.63 295.91 33.17 300.76 26.03 299.9 25.49"/><polygon class="cls-6" points="307.77 11.14 312.66 18.27 313.53 17.73 308.64 10.6 307.77 11.14"/><polygon class="cls-3" points="325.79 22.95 321.8 30.57 322.73 31.02 326.72 23.4 325.79 22.95"/><polygon class="cls-3" points="330.22 10.05 338.95 11.73 339.16 10.76 330.42 9.08 330.22 10.05"/><polygon class="cls-6" points="344.81 31.7 351.2 37.64 351.92 36.93 345.53 30.99 344.81 31.7"/><polygon class="cls-4" points="361.57 14.36 355.29 20.41 356.03 21.11 362.3 15.06 361.57 14.36"/><polygon class="cls-3" points="368.43 50.38 363.24 57.31 364.08 57.89 369.27 50.96 368.43 50.38"/><polygon class="cls-4" points="373.9 34.2 378.6 41.44 379.48 40.91 374.78 33.67 373.9 34.2"/><polygon class="cls-3" points="383.14 68.63 376.97 62.48 376.22 63.16 382.39 69.31 383.14 68.63"/><polygon class="cls-4" points="371.04 84.16 368.33 80.25 367.46 80.79 370.17 84.7 371.04 84.16"/><polygon class="cls-5" points="363.23 72.61 365.42 68.41 364.49 67.97 362.3 72.16 363.23 72.61"/><polygon class="cls-3" points="360.92 83.66 363.92 79.94 363.1 79.34 360.1 83.05 360.92 83.66"/><polygon class="cls-6" points="369.83 72.86 374.69 73.49 374.83 72.51 369.97 71.88 369.83 72.86"/><polygon class="cls-5" points="337.92 110.23 340.91 106.51 340.09 105.91 337.1 109.62 337.92 110.23"/><polygon class="cls-3" points="346.83 99.43 351.69 100.06 351.82 99.08 346.96 98.45 346.83 99.43"/><polygon class="cls-5" points="360.96 98.24 365.35 96.14 364.88 95.25 360.5 97.35 360.96 98.24"/><polygon class="cls-6" points="321.98 105.59 322.21 100.9 321.18 100.86 320.95 105.54 321.98 105.59"/><polygon class="cls-5" points="322.81 91.86 327.17 89.71 326.69 88.83 322.33 90.98 322.81 91.86"/><polygon class="cls-3" points="289.57 97.55 293.56 94.83 292.96 94.02 288.97 96.74 289.57 97.55"/><polygon class="cls-3" points="301.38 89.7 305.83 91.65 306.27 90.75 301.81 88.8 301.38 89.7"/><polygon class="cls-6" points="280.54 77.27 285.33 76.27 285.11 75.3 280.32 76.31 280.54 77.27"/><polygon class="cls-4" points="294.62 74.46 297.93 77.93 298.69 77.26 295.39 73.79 294.62 74.46"/><polygon class="cls-4" points="343.53 92.58 347.55 89.9 346.96 89.08 342.94 91.76 343.53 92.58"/><polygon class="cls-4" points="320.1 97.38 317.13 93.65 316.31 94.25 319.27 97.98 320.1 97.38"/><polygon class="cls-5" points="307.79 106.14 311.71 103.33 311.09 102.54 307.17 105.35 307.79 106.14"/><polygon class="cls-5" points="293.52 86.78 296.1 82.79 295.22 82.27 292.64 86.26 293.52 86.78"/><polygon class="cls-5" points="275.5 68.5 278.95 65.17 278.21 64.47 274.77 67.81 275.5 68.5"/><polygon class="cls-6" points="356.52 94.67 361.37 87.53 360.5 86.99 355.65 94.13 356.52 94.67"/><polygon class="cls-6" points="348.64 109.02 343.75 101.89 342.89 102.44 347.77 109.56 348.64 109.02"/><polygon class="cls-3" points="330.62 97.21 334.61 89.59 333.69 89.14 329.7 96.76 330.62 97.21"/><polygon class="cls-3" points="326.19 110.11 317.46 108.43 317.25 109.4 325.99 111.08 326.19 110.11"/><polygon class="cls-6" points="311.6 88.46 305.21 82.52 304.49 83.23 310.88 89.17 311.6 88.46"/><polygon class="cls-4" points="294.85 105.8 301.12 99.75 300.39 99.05 294.11 105.1 294.85 105.8"/><polygon class="cls-3" points="287.98 69.78 293.17 62.85 292.33 62.27 287.14 69.2 287.98 69.78"/><polygon class="cls-4" points="282.51 85.96 277.81 78.72 276.94 79.25 281.63 86.49 282.51 85.96"/><path class="cls-1" d="M461.16,0c-35,0-63.42,27.15-63.42,60.64s28.39,60.64,63.42,60.64,63.41-27.15,63.41-60.64S496.18,0,461.16,0Zm0,86c-14.66,0-26.53-11.36-26.53-25.37s11.87-25.36,26.53-25.36,26.52,11.35,26.52,25.36S475.8,86,461.16,86Z"/><path class="cls-2" d="M519,44.2a29.58,29.58,0,0,0-5.06-10.32l-9.92-13a29.84,29.84,0,0,0-12.65-9.58L475.08,4.84A30.43,30.43,0,0,0,458.17,3.2L443.51,6a30,30,0,0,0-14.34,7L414.68,25.75a29.4,29.4,0,0,0-9,14.46L401,57.94a13.7,13.7,0,0,0-.48,3.36,51.49,51.49,0,0,0,6.81,26.88,55.62,55.62,0,0,0,23.1,21.51c1.37.71,30.51,15.31,58.65.89,0,0,17.43-8.93,28.39-31a60.25,60.25,0,0,0,4.25-12.28c1.16-5.2,1.22-10.25.21-12.07Zm-35,33c-6.7,8.25-20,12.29-31.5,9.31-2.3-.6-11.06-2.88-16.26-11.2a24,24,0,0,1-3.36-15.63l1.83-9.17a16.22,16.22,0,0,1,7-10.36L444.91,38a23.38,23.38,0,0,1,11.18-3.77l6.53-.47A24.23,24.23,0,0,1,477,37.26l2.68,1.64A23.54,23.54,0,0,1,490.42,54c.2.91.4,1.83.59,2.75C491.38,59.05,490,69.71,484,77.19Z"/><polygon class="cls-3" points="405.86 51.53 412.02 57.69 412.77 57 406.6 50.85 405.86 51.53"/><polygon class="cls-4" points="417.96 36 420.66 39.91 421.53 39.37 418.82 35.46 417.96 36"/><polygon class="cls-5" points="425.76 47.55 423.57 51.75 424.5 52.19 426.69 48 425.76 47.55"/><polygon class="cls-3" points="428.07 36.5 425.08 40.22 425.9 40.82 428.89 37.11 428.07 36.5"/><polygon class="cls-6" points="419.16 47.3 414.3 46.67 414.17 47.66 419.03 48.28 419.16 47.3"/><polygon class="cls-5" points="451.07 9.93 448.08 13.65 448.9 14.25 451.89 10.54 451.07 9.93"/><polygon class="cls-3" points="442.17 20.73 437.31 20.1 437.17 21.09 442.03 21.71 442.17 20.73"/><polygon class="cls-5" points="428.03 21.92 423.65 24.02 424.11 24.91 428.5 22.81 428.03 21.92"/><polygon class="cls-6" points="467.01 14.57 466.78 19.26 467.82 19.3 468.04 14.62 467.01 14.57"/><polygon class="cls-5" points="466.18 28.3 461.82 30.45 462.3 31.34 466.66 29.18 466.18 28.3"/><polygon class="cls-3" points="499.43 22.61 495.43 25.33 496.03 26.14 500.03 23.42 499.43 22.61"/><polygon class="cls-3" points="487.62 30.46 483.16 28.51 482.73 29.41 487.19 31.36 487.62 30.46"/><polygon class="cls-6" points="508.45 42.89 503.66 43.9 503.88 44.86 508.67 43.85 508.45 42.89"/><polygon class="cls-4" points="494.37 45.7 491.06 42.23 490.3 42.9 493.61 46.37 494.37 45.7"/><polygon class="cls-4" points="445.46 27.58 441.44 30.27 442.03 31.08 446.06 28.4 445.46 27.58"/><polygon class="cls-4" points="468.89 22.78 471.86 26.51 472.69 25.91 469.72 22.18 468.89 22.78"/><polygon class="cls-5" points="481.21 14.02 477.28 16.83 477.9 17.62 481.83 14.81 481.21 14.02"/><polygon class="cls-5" points="495.47 33.38 492.89 37.38 493.78 37.9 496.35 33.9 495.47 33.38"/><polygon class="cls-5" points="513.49 51.66 510.04 54.99 510.78 55.69 514.23 52.35 513.49 51.66"/><polygon class="cls-6" points="432.48 25.49 427.62 32.63 428.49 33.17 433.35 26.03 432.48 25.49"/><polygon class="cls-6" points="440.35 11.14 445.24 18.27 446.11 17.73 441.22 10.6 440.35 11.14"/><polygon class="cls-3" points="458.37 22.95 454.38 30.57 455.31 31.02 459.3 23.4 458.37 22.95"/><polygon class="cls-3" points="462.8 10.05 471.53 11.73 471.74 10.76 463 9.08 462.8 10.05"/><polygon class="cls-6" points="477.39 31.7 483.78 37.64 484.5 36.93 478.11 30.99 477.39 31.7"/><polygon class="cls-4" points="494.15 14.36 487.87 20.41 488.61 21.11 494.88 15.06 494.15 14.36"/><polygon class="cls-3" points="501.01 50.38 495.82 57.31 496.67 57.89 501.85 50.96 501.01 50.38"/><polygon class="cls-4" points="506.48 34.2 511.18 41.44 512.06 40.91 507.36 33.67 506.48 34.2"/><polygon class="cls-3" points="515.72 68.63 509.55 62.48 508.81 63.16 514.97 69.31 515.72 68.63"/><polygon class="cls-4" points="503.62 84.16 500.91 80.25 500.05 80.79 502.75 84.7 503.62 84.16"/><polygon class="cls-5" points="495.81 72.61 498 68.41 497.07 67.97 494.88 72.16 495.81 72.61"/><polygon class="cls-3" points="493.5 83.66 496.5 79.94 495.68 79.34 492.68 83.05 493.5 83.66"/><polygon class="cls-6" points="502.41 72.86 507.27 73.49 507.41 72.51 502.55 71.88 502.41 72.86"/><polygon class="cls-5" points="470.5 110.23 473.5 106.51 472.67 105.91 469.68 109.62 470.5 110.23"/><polygon class="cls-3" points="479.41 99.43 484.27 100.06 484.4 99.08 479.55 98.45 479.41 99.43"/><polygon class="cls-5" points="493.54 98.24 497.93 96.14 497.46 95.25 493.08 97.35 493.54 98.24"/><polygon class="cls-6" points="454.56 105.59 454.79 100.9 453.76 100.86 453.53 105.54 454.56 105.59"/><polygon class="cls-5" points="455.39 91.86 459.75 89.71 459.27 88.83 454.92 90.98 455.39 91.86"/><polygon class="cls-3" points="422.15 97.55 426.14 94.83 425.54 94.02 421.55 96.74 422.15 97.55"/><polygon class="cls-3" points="433.96 89.7 438.42 91.65 438.85 90.75 434.39 88.8 433.96 89.7"/><polygon class="cls-6" points="413.13 77.27 417.91 76.27 417.69 75.3 412.9 76.31 413.13 77.27"/><polygon class="cls-4" points="427.2 74.46 430.51 77.93 431.27 77.26 427.97 73.79 427.2 74.46"/><polygon class="cls-4" points="476.11 92.58 480.13 89.9 479.54 89.08 475.52 91.76 476.11 92.58"/><polygon class="cls-4" points="452.68 97.38 449.71 93.65 448.88 94.25 451.85 97.98 452.68 97.38"/><polygon class="cls-5" points="440.37 106.14 444.29 103.33 443.67 102.54 439.75 105.35 440.37 106.14"/><polygon class="cls-5" points="426.1 86.78 428.68 82.79 427.8 82.27 425.22 86.26 426.1 86.78"/><polygon class="cls-5" points="408.08 68.5 411.53 65.17 410.79 64.47 407.35 67.81 408.08 68.5"/><polygon class="cls-6" points="489.1 94.67 493.95 87.53 493.08 86.99 488.23 94.13 489.1 94.67"/><polygon class="cls-6" points="481.22 109.02 476.33 101.89 475.47 102.44 480.36 109.56 481.22 109.02"/><polygon class="cls-3" points="463.2 97.21 467.19 89.59 466.27 89.14 462.28 96.76 463.2 97.21"/><polygon class="cls-3" points="458.77 110.11 450.04 108.43 449.83 109.4 458.57 111.08 458.77 110.11"/><polygon class="cls-6" points="444.18 88.46 437.79 82.52 437.07 83.23 443.46 89.17 444.18 88.46"/><polygon class="cls-4" points="427.43 105.8 433.7 99.75 432.97 99.05 426.69 105.1 427.43 105.8"/><polygon class="cls-3" points="420.56 69.78 425.75 62.85 424.91 62.27 419.72 69.2 420.56 69.78"/><polygon class="cls-4" points="415.1 85.96 410.4 78.72 409.51 79.25 414.22 86.49 415.1 85.96"/><path class="cls-1" d="M63.41,127.65C28.39,127.65,0,154.8,0,188.29s28.39,60.65,63.41,60.65,63.42-27.16,63.42-60.65S98.44,127.65,63.41,127.65Zm0,86c-14.65,0-26.52-11.36-26.52-25.37s11.87-25.36,26.52-25.36,26.53,11.36,26.53,25.36S78.06,213.66,63.41,213.66Z"/><path class="cls-8" d="M121.24,171.86a29.27,29.27,0,0,0-5.07-10.32l-9.91-13A29.92,29.92,0,0,0,93.61,139l-16.27-6.5a30.25,30.25,0,0,0-16.91-1.64l-14.67,2.77a30.14,30.14,0,0,0-14.33,7L16.94,153.4a29.38,29.38,0,0,0-9,14.47L3.21,185.59A14.25,14.25,0,0,0,2.74,189a51.53,51.53,0,0,0,6.81,26.89,55.58,55.58,0,0,0,23.1,21.5c1.37.72,30.51,15.32,58.65.89,0,0,17.43-8.93,28.39-31a61.85,61.85,0,0,0,4.25-12.29c1.16-5.2,1.22-10.25.21-12.06Zm-35,33c-6.7,8.26-20,12.3-31.5,9.31-2.3-.59-11.06-2.87-16.27-11.19a24,24,0,0,1-3.35-15.63l1.83-9.18a16.24,16.24,0,0,1,7-10.36l3.22-2.11a23.46,23.46,0,0,1,11.18-3.78l6.53-.47a24.23,24.23,0,0,1,14.35,3.48l2.68,1.64a23.54,23.54,0,0,1,10.77,15.11c.2.92.39,1.84.59,2.75C93.64,186.71,92.29,197.37,86.22,204.84Z"/><polygon class="cls-3" points="8.11 179.19 14.28 185.34 15.03 184.65 8.86 178.5 8.11 179.19"/><polygon class="cls-4" points="20.22 163.66 22.92 167.57 23.79 167.02 21.08 163.11 20.22 163.66"/><polygon class="cls-5" points="28.02 175.21 25.83 179.41 26.76 179.85 28.95 175.65 28.02 175.21"/><polygon class="cls-3" points="30.33 164.16 27.34 167.87 28.16 168.47 31.15 164.76 30.33 164.16"/><polygon class="cls-6" points="21.42 174.95 16.56 174.33 16.42 175.31 21.28 175.94 21.42 174.95"/><polygon class="cls-5" points="53.33 137.59 50.34 141.3 51.16 141.91 54.15 138.19 53.33 137.59"/><polygon class="cls-3" points="44.43 148.38 39.56 147.76 39.43 148.74 44.29 149.37 44.43 148.38"/><polygon class="cls-5" points="30.29 149.57 25.91 151.67 26.37 152.56 30.75 150.46 30.29 149.57"/><polygon class="cls-6" points="69.27 142.23 69.04 146.91 70.08 146.96 70.3 142.27 69.27 142.23"/><polygon class="cls-5" points="68.44 155.96 64.08 158.11 64.56 158.99 68.92 156.84 68.44 155.96"/><polygon class="cls-3" points="101.68 150.26 97.69 152.98 98.29 153.79 102.28 151.07 101.68 150.26"/><polygon class="cls-3" points="89.88 158.11 85.42 156.16 84.99 157.06 89.44 159.01 89.88 158.11"/><polygon class="cls-6" points="110.71 170.54 105.92 171.55 106.14 172.52 110.93 171.51 110.71 170.54"/><polygon class="cls-4" points="96.63 173.35 93.32 169.89 92.56 170.56 95.86 174.02 96.63 173.35"/><polygon class="cls-4" points="47.72 155.24 43.7 157.92 44.29 158.73 48.31 156.05 47.72 155.24"/><polygon class="cls-4" points="71.15 150.43 74.12 154.16 74.95 153.56 71.98 149.83 71.15 150.43"/><polygon class="cls-5" points="83.46 141.67 79.54 144.48 80.16 145.28 84.08 142.47 83.46 141.67"/><polygon class="cls-5" points="97.73 161.04 95.15 165.03 96.04 165.55 98.61 161.56 97.73 161.04"/><polygon class="cls-5" points="115.75 179.31 112.3 182.65 113.04 183.34 116.48 180 115.75 179.31"/><polygon class="cls-6" points="34.73 153.14 29.88 160.29 30.75 160.83 35.6 153.68 34.73 153.14"/><polygon class="cls-6" points="42.61 138.8 47.5 145.92 48.37 145.38 43.48 138.25 42.61 138.8"/><polygon class="cls-3" points="60.63 150.61 56.64 158.23 57.56 158.67 61.55 151.05 60.63 150.61"/><polygon class="cls-3" points="65.06 137.7 73.79 139.38 74 138.41 65.26 136.73 65.06 137.7"/><polygon class="cls-6" points="79.65 159.36 86.04 165.3 86.76 164.59 80.37 158.65 79.65 159.36"/><polygon class="cls-4" points="96.41 142.02 90.13 148.07 90.87 148.76 97.14 142.72 96.41 142.02"/><polygon class="cls-3" points="103.27 178.04 98.08 184.97 98.92 185.54 104.11 178.61 103.27 178.04"/><polygon class="cls-4" points="108.74 161.85 113.44 169.09 114.32 168.57 109.62 161.33 108.74 161.85"/><polygon class="cls-3" points="117.98 196.28 111.81 190.13 111.06 190.81 117.23 196.97 117.98 196.28"/><polygon class="cls-4" points="105.88 211.81 103.17 207.9 102.3 208.45 105.01 212.36 105.88 211.81"/><polygon class="cls-5" points="98.07 200.26 100.26 196.06 99.33 195.62 97.14 199.82 98.07 200.26"/><polygon class="cls-3" points="95.76 211.31 98.76 207.6 97.94 206.99 94.94 210.71 95.76 211.31"/><polygon class="cls-6" points="104.67 200.51 109.53 201.14 109.67 200.16 104.81 199.53 104.67 200.51"/><polygon class="cls-5" points="72.76 237.88 75.75 234.17 74.93 233.56 71.94 237.28 72.76 237.88"/><polygon class="cls-3" points="81.67 227.08 86.53 227.71 86.66 226.73 81.8 226.1 81.67 227.08"/><polygon class="cls-5" points="95.8 225.89 100.19 223.79 99.72 222.91 95.34 225.01 95.8 225.89"/><polygon class="cls-6" points="56.82 233.24 57.05 228.56 56.02 228.51 55.79 233.19 56.82 233.24"/><polygon class="cls-5" points="57.65 219.51 62.01 217.36 61.53 216.48 57.17 218.63 57.65 219.51"/><polygon class="cls-3" points="24.41 225.21 28.4 222.49 27.8 221.68 23.81 224.4 24.41 225.21"/><polygon class="cls-3" points="36.21 217.35 40.67 219.31 41.1 218.4 36.65 216.45 36.21 217.35"/><polygon class="cls-6" points="15.38 204.93 20.17 203.92 19.95 202.95 15.16 203.96 15.38 204.93"/><polygon class="cls-4" points="29.46 202.12 32.77 205.58 33.53 204.91 30.23 201.45 29.46 202.12"/><polygon class="cls-4" points="78.37 220.23 82.39 217.55 81.8 216.74 77.78 219.42 78.37 220.23"/><polygon class="cls-4" points="54.94 225.04 51.97 221.3 51.14 221.9 54.11 225.64 54.94 225.04"/><polygon class="cls-5" points="42.63 233.79 46.55 230.98 45.93 230.19 42.01 233 42.63 233.79"/><polygon class="cls-5" points="28.36 214.43 30.94 210.44 30.05 209.92 27.48 213.91 28.36 214.43"/><polygon class="cls-5" points="10.34 196.16 13.79 192.82 13.05 192.12 9.61 195.46 10.34 196.16"/><polygon class="cls-6" points="91.36 222.33 96.21 215.18 95.34 214.64 90.49 221.79 91.36 222.33"/><polygon class="cls-6" points="83.48 236.67 78.59 229.54 77.72 230.09 82.61 237.21 83.48 236.67"/><polygon class="cls-3" points="65.46 224.86 69.45 217.24 68.53 216.8 64.54 224.42 65.46 224.86"/><polygon class="cls-3" points="61.03 237.76 52.3 236.08 52.09 237.05 60.83 238.74 61.03 237.76"/><polygon class="cls-6" points="46.44 216.11 40.05 210.17 39.33 210.88 45.72 216.82 46.44 216.11"/><polygon class="cls-4" points="29.69 233.45 35.96 227.4 35.23 226.7 28.95 232.75 29.69 233.45"/><polygon class="cls-3" points="22.82 197.43 28.01 190.5 27.17 189.93 21.98 196.85 22.82 197.43"/><polygon class="cls-4" points="17.35 213.62 12.65 206.38 11.77 206.9 16.47 214.14 17.35 213.62"/><path class="cls-1" d="M196,127.65c-35,0-63.41,27.15-63.41,60.64S161,248.94,196,248.94s63.42-27.16,63.42-60.65S231,127.65,196,127.65Zm0,86c-14.65,0-26.52-11.36-26.52-25.37s11.87-25.36,26.52-25.36,26.53,11.36,26.53,25.36S210.64,213.66,196,213.66Z"/><path class="cls-2" d="M253.82,171.86a29.41,29.41,0,0,0-5.06-10.32l-9.92-13A29.92,29.92,0,0,0,226.19,139l-16.27-6.5A30.25,30.25,0,0,0,193,130.86l-14.66,2.77a30.13,30.13,0,0,0-14.34,7L149.52,153.4a29.38,29.38,0,0,0-9,14.47l-4.74,17.72a14.25,14.25,0,0,0-.47,3.36,51.53,51.53,0,0,0,6.81,26.89,55.58,55.58,0,0,0,23.1,21.5c1.37.72,30.51,15.32,58.65.89,0,0,17.43-8.93,28.39-31a61.85,61.85,0,0,0,4.25-12.29c1.16-5.2,1.22-10.25.21-12.06Zm-35,33c-6.7,8.26-20,12.3-31.5,9.31-2.3-.59-11.06-2.87-16.27-11.19a24,24,0,0,1-3.35-15.63l1.83-9.18a16.24,16.24,0,0,1,7-10.36l3.22-2.11a23.5,23.5,0,0,1,11.18-3.78l6.53-.47a24.23,24.23,0,0,1,14.35,3.48l2.68,1.64a23.54,23.54,0,0,1,10.77,15.11c.2.92.39,1.84.59,2.75C226.22,186.71,224.87,197.37,218.8,204.84Z"/><polygon class="cls-3" points="140.69 179.19 146.86 185.34 147.61 184.65 141.44 178.5 140.69 179.19"/><polygon class="cls-4" points="152.8 163.66 155.5 167.57 156.37 167.02 153.66 163.11 152.8 163.66"/><polygon class="cls-5" points="160.6 175.21 158.41 179.41 159.34 179.85 161.53 175.65 160.6 175.21"/><polygon class="cls-3" points="162.91 164.16 159.91 167.87 160.74 168.47 163.73 164.76 162.91 164.16"/><polygon class="cls-6" points="154 174.95 149.14 174.33 149 175.31 153.87 175.94 154 174.95"/><polygon class="cls-5" points="185.91 137.59 182.92 141.3 183.74 141.91 186.73 138.19 185.91 137.59"/><polygon class="cls-3" points="177.01 148.38 172.15 147.76 172.01 148.74 176.87 149.37 177.01 148.38"/><polygon class="cls-5" points="162.87 149.57 158.49 151.67 158.95 152.56 163.34 150.46 162.87 149.57"/><polygon class="cls-6" points="201.85 142.23 201.62 146.91 202.66 146.96 202.88 142.27 201.85 142.23"/><polygon class="cls-5" points="201.02 155.96 196.66 158.11 197.14 158.99 201.5 156.84 201.02 155.96"/><polygon class="cls-3" points="234.26 150.26 230.27 152.98 230.87 153.79 234.87 151.07 234.26 150.26"/><polygon class="cls-3" points="222.46 158.11 218 156.16 217.57 157.06 222.03 159.01 222.46 158.11"/><polygon class="cls-6" points="243.29 170.54 238.5 171.55 238.72 172.52 243.51 171.51 243.29 170.54"/><polygon class="cls-4" points="229.21 173.35 225.9 169.89 225.14 170.56 228.44 174.02 229.21 173.35"/><polygon class="cls-4" points="180.3 155.24 176.28 157.92 176.87 158.73 180.9 156.05 180.3 155.24"/><polygon class="cls-4" points="203.73 150.43 206.7 154.16 207.53 153.56 204.56 149.83 203.73 150.43"/><polygon class="cls-5" points="216.04 141.67 212.12 144.48 212.74 145.28 216.67 142.47 216.04 141.67"/><polygon class="cls-5" points="230.31 161.04 227.73 165.03 228.62 165.55 231.19 161.56 230.31 161.04"/><polygon class="cls-5" points="248.33 179.31 244.88 182.65 245.62 183.34 249.06 180 248.33 179.31"/><polygon class="cls-6" points="167.31 153.14 162.46 160.29 163.33 160.83 168.18 153.68 167.31 153.14"/><polygon class="cls-6" points="175.19 138.8 180.08 145.92 180.95 145.38 176.06 138.25 175.19 138.8"/><polygon class="cls-3" points="193.21 150.61 189.22 158.23 190.14 158.67 194.14 151.05 193.21 150.61"/><polygon class="cls-3" points="197.64 137.7 206.37 139.38 206.58 138.41 197.84 136.73 197.64 137.7"/><polygon class="cls-6" points="212.23 159.36 218.62 165.3 219.34 164.59 212.95 158.65 212.23 159.36"/><polygon class="cls-4" points="228.99 142.02 222.71 148.07 223.45 148.76 229.72 142.72 228.99 142.02"/><polygon class="cls-3" points="235.85 178.04 230.66 184.97 231.5 185.54 236.69 178.61 235.85 178.04"/><polygon class="cls-4" points="241.32 161.85 246.02 169.09 246.9 168.57 242.2 161.33 241.32 161.85"/><polygon class="cls-3" points="250.56 196.28 244.39 190.13 243.64 190.81 249.81 196.97 250.56 196.28"/><polygon class="cls-4" points="238.46 211.81 235.75 207.9 234.88 208.45 237.59 212.36 238.46 211.81"/><polygon class="cls-5" points="230.65 200.26 232.84 196.06 231.91 195.62 229.72 199.82 230.65 200.26"/><polygon class="cls-3" points="228.34 211.31 231.34 207.6 230.52 206.99 227.52 210.71 228.34 211.31"/><polygon class="cls-6" points="237.25 200.51 242.11 201.14 242.25 200.16 237.39 199.53 237.25 200.51"/><polygon class="cls-5" points="205.34 237.88 208.33 234.17 207.51 233.56 204.52 237.28 205.34 237.88"/><polygon class="cls-3" points="214.25 227.08 219.11 227.71 219.24 226.73 214.38 226.1 214.25 227.08"/><polygon class="cls-5" points="228.38 225.89 232.77 223.79 232.3 222.91 227.92 225.01 228.38 225.89"/><polygon class="cls-6" points="189.4 233.24 189.63 228.56 188.6 228.51 188.37 233.19 189.4 233.24"/><polygon class="cls-5" points="190.23 219.51 194.59 217.36 194.11 216.48 189.75 218.63 190.23 219.51"/><polygon class="cls-3" points="156.99 225.21 160.98 222.49 160.38 221.68 156.39 224.4 156.99 225.21"/><polygon class="cls-3" points="168.79 217.35 173.25 219.31 173.69 218.4 169.23 216.45 168.79 217.35"/><polygon class="cls-6" points="147.96 204.93 152.75 203.92 152.53 202.95 147.74 203.96 147.96 204.93"/><polygon class="cls-4" points="162.04 202.12 165.35 205.58 166.11 204.91 162.81 201.45 162.04 202.12"/><polygon class="cls-4" points="210.95 220.23 214.97 217.55 214.38 216.74 210.36 219.42 210.95 220.23"/><polygon class="cls-4" points="187.52 225.04 184.55 221.3 183.72 221.9 186.69 225.64 187.52 225.04"/><polygon class="cls-5" points="175.21 233.79 179.13 230.98 178.51 230.19 174.59 233 175.21 233.79"/><polygon class="cls-5" points="160.94 214.43 163.52 210.44 162.64 209.92 160.06 213.91 160.94 214.43"/><polygon class="cls-5" points="142.92 196.16 146.37 192.82 145.63 192.12 142.19 195.46 142.92 196.16"/><polygon class="cls-6" points="223.94 222.33 228.79 215.18 227.92 214.64 223.07 221.79 223.94 222.33"/><polygon class="cls-6" points="216.06 236.67 211.17 229.54 210.31 230.09 215.19 237.21 216.06 236.67"/><polygon class="cls-3" points="198.04 224.86 202.03 217.24 201.11 216.8 197.12 224.42 198.04 224.86"/><polygon class="cls-3" points="193.61 237.76 184.88 236.08 184.67 237.05 193.41 238.74 193.61 237.76"/><polygon class="cls-6" points="179.02 216.11 172.63 210.17 171.91 210.88 178.3 216.82 179.02 216.11"/><polygon class="cls-4" points="162.27 233.45 168.54 227.4 167.81 226.7 161.53 232.75 162.27 233.45"/><polygon class="cls-3" points="155.4 197.43 160.59 190.5 159.75 189.93 154.56 196.85 155.4 197.43"/><polygon class="cls-4" points="149.94 213.62 145.24 206.38 144.35 206.9 149.06 214.14 149.94 213.62"/><path class="cls-1" d="M328.58,127.65c-35,0-63.42,27.15-63.42,60.64s28.39,60.65,63.42,60.65S392,221.78,392,188.29,363.6,127.65,328.58,127.65Zm0,86c-14.66,0-26.53-11.36-26.53-25.37s11.87-25.36,26.53-25.36,26.52,11.36,26.52,25.36S343.22,213.66,328.58,213.66Z"/><path class="cls-7" d="M386.4,171.86a29.41,29.41,0,0,0-5.06-10.32l-9.92-13A29.92,29.92,0,0,0,358.77,139l-16.27-6.5a30.25,30.25,0,0,0-16.91-1.64l-14.66,2.77a30.13,30.13,0,0,0-14.34,7L282.1,153.4a29.38,29.38,0,0,0-9,14.47l-4.74,17.72a14.25,14.25,0,0,0-.47,3.36,51.53,51.53,0,0,0,6.81,26.89,55.58,55.58,0,0,0,23.1,21.5c1.37.72,30.51,15.32,58.65.89,0,0,17.43-8.93,28.39-31a61.15,61.15,0,0,0,4.25-12.29c1.16-5.2,1.22-10.25.21-12.06Zm-35,33c-6.7,8.26-20,12.3-31.5,9.31-2.3-.59-11.06-2.87-16.27-11.19a24,24,0,0,1-3.35-15.63l1.83-9.18a16.27,16.27,0,0,1,7-10.36l3.22-2.11a23.5,23.5,0,0,1,11.18-3.78l6.53-.47a24.23,24.23,0,0,1,14.35,3.48l2.68,1.64a23.54,23.54,0,0,1,10.77,15.11c.2.92.39,1.84.59,2.75C358.8,186.71,357.45,197.37,351.38,204.84Z"/><polygon class="cls-3" points="273.27 179.19 279.44 185.34 280.19 184.65 274.02 178.5 273.27 179.19"/><polygon class="cls-4" points="285.38 163.66 288.08 167.57 288.95 167.02 286.24 163.11 285.38 163.66"/><polygon class="cls-5" points="293.18 175.21 290.99 179.41 291.92 179.85 294.11 175.65 293.18 175.21"/><polygon class="cls-3" points="295.49 164.16 292.5 167.87 293.32 168.47 296.31 164.76 295.49 164.16"/><polygon class="cls-6" points="286.58 174.95 281.72 174.33 281.58 175.31 286.44 175.94 286.58 174.95"/><polygon class="cls-5" points="318.49 137.59 315.5 141.3 316.32 141.91 319.31 138.19 318.49 137.59"/><polygon class="cls-3" points="309.59 148.38 304.73 147.76 304.59 148.74 309.45 149.37 309.59 148.38"/><polygon class="cls-5" points="295.45 149.57 291.07 151.67 291.53 152.56 295.92 150.46 295.45 149.57"/><polygon class="cls-6" points="334.43 142.23 334.2 146.91 335.24 146.96 335.46 142.27 334.43 142.23"/><polygon class="cls-5" points="333.6 155.96 329.24 158.11 329.72 158.99 334.08 156.84 333.6 155.96"/><polygon class="cls-3" points="366.85 150.26 362.85 152.98 363.45 153.79 367.45 151.07 366.85 150.26"/><polygon class="cls-3" points="355.04 158.11 350.58 156.16 350.15 157.06 354.61 159.01 355.04 158.11"/><polygon class="cls-6" points="375.87 170.54 371.08 171.55 371.3 172.52 376.09 171.51 375.87 170.54"/><polygon class="cls-4" points="361.79 173.35 358.48 169.89 357.72 170.56 361.03 174.02 361.79 173.35"/><polygon class="cls-4" points="312.88 155.24 308.86 157.92 309.45 158.73 313.48 156.05 312.88 155.24"/><polygon class="cls-4" points="336.31 150.43 339.28 154.16 340.11 153.56 337.14 149.83 336.31 150.43"/><polygon class="cls-5" points="348.63 141.67 344.7 144.48 345.32 145.28 349.25 142.47 348.63 141.67"/><polygon class="cls-5" points="362.89 161.04 360.31 165.03 361.2 165.55 363.77 161.56 362.89 161.04"/><polygon class="cls-5" points="380.91 179.31 377.46 182.65 378.2 183.34 381.64 180 380.91 179.31"/><polygon class="cls-6" points="299.9 153.14 295.04 160.29 295.91 160.83 300.76 153.68 299.9 153.14"/><polygon class="cls-6" points="307.77 138.8 312.66 145.92 313.53 145.38 308.64 138.25 307.77 138.8"/><polygon class="cls-3" points="325.79 150.61 321.8 158.23 322.73 158.67 326.72 151.05 325.79 150.61"/><polygon class="cls-3" points="330.22 137.7 338.95 139.38 339.16 138.41 330.42 136.73 330.22 137.7"/><polygon class="cls-6" points="344.81 159.36 351.2 165.3 351.92 164.59 345.53 158.65 344.81 159.36"/><polygon class="cls-4" points="361.57 142.02 355.29 148.07 356.03 148.76 362.3 142.72 361.57 142.02"/><polygon class="cls-3" points="368.43 178.04 363.24 184.97 364.08 185.54 369.27 178.61 368.43 178.04"/><polygon class="cls-4" points="373.9 161.85 378.6 169.09 379.48 168.57 374.78 161.33 373.9 161.85"/><polygon class="cls-3" points="383.14 196.28 376.97 190.13 376.22 190.81 382.39 196.97 383.14 196.28"/><polygon class="cls-4" points="371.04 211.81 368.33 207.9 367.46 208.45 370.17 212.36 371.04 211.81"/><polygon class="cls-5" points="363.23 200.26 365.42 196.06 364.49 195.62 362.3 199.82 363.23 200.26"/><polygon class="cls-3" points="360.92 211.31 363.92 207.6 363.1 206.99 360.1 210.71 360.92 211.31"/><polygon class="cls-6" points="369.83 200.51 374.69 201.14 374.83 200.16 369.97 199.53 369.83 200.51"/><polygon class="cls-5" points="337.92 237.88 340.91 234.17 340.09 233.56 337.1 237.28 337.92 237.88"/><polygon class="cls-3" points="346.83 227.08 351.69 227.71 351.82 226.73 346.96 226.1 346.83 227.08"/><polygon class="cls-5" points="360.96 225.89 365.35 223.79 364.88 222.91 360.5 225.01 360.96 225.89"/><polygon class="cls-6" points="321.98 233.24 322.21 228.56 321.18 228.51 320.95 233.19 321.98 233.24"/><polygon class="cls-5" points="322.81 219.51 327.17 217.36 326.69 216.48 322.33 218.63 322.81 219.51"/><polygon class="cls-3" points="289.57 225.21 293.56 222.49 292.96 221.68 288.97 224.4 289.57 225.21"/><polygon class="cls-3" points="301.38 217.35 305.83 219.31 306.27 218.4 301.81 216.45 301.38 217.35"/><polygon class="cls-6" points="280.54 204.93 285.33 203.92 285.11 202.95 280.32 203.96 280.54 204.93"/><polygon class="cls-4" points="294.62 202.12 297.93 205.58 298.69 204.91 295.39 201.45 294.62 202.12"/><polygon class="cls-4" points="343.53 220.23 347.55 217.55 346.96 216.74 342.94 219.42 343.53 220.23"/><polygon class="cls-4" points="320.1 225.04 317.13 221.3 316.31 221.9 319.27 225.64 320.1 225.04"/><polygon class="cls-5" points="307.79 233.79 311.71 230.98 311.09 230.19 307.17 233 307.79 233.79"/><polygon class="cls-5" points="293.52 214.43 296.1 210.44 295.22 209.92 292.64 213.91 293.52 214.43"/><polygon class="cls-5" points="275.5 196.16 278.95 192.82 278.21 192.12 274.77 195.46 275.5 196.16"/><polygon class="cls-6" points="356.52 222.33 361.37 215.18 360.5 214.64 355.65 221.79 356.52 222.33"/><polygon class="cls-6" points="348.64 236.67 343.75 229.54 342.89 230.09 347.77 237.21 348.64 236.67"/><polygon class="cls-3" points="330.62 224.86 334.61 217.24 333.69 216.8 329.7 224.42 330.62 224.86"/><polygon class="cls-3" points="326.19 237.76 317.46 236.08 317.25 237.05 325.99 238.74 326.19 237.76"/><polygon class="cls-6" points="311.6 216.11 305.21 210.17 304.49 210.88 310.88 216.82 311.6 216.11"/><polygon class="cls-4" points="294.85 233.45 301.12 227.4 300.39 226.7 294.11 232.75 294.85 233.45"/><polygon class="cls-3" points="287.98 197.43 293.17 190.5 292.33 189.93 287.14 196.85 287.98 197.43"/><polygon class="cls-4" points="282.51 213.62 277.81 206.38 276.94 206.9 281.63 214.14 282.51 213.62"/><path class="cls-1" d="M461.16,127.65c-35,0-63.42,27.15-63.42,60.64s28.39,60.65,63.42,60.65,63.41-27.16,63.41-60.65S496.18,127.65,461.16,127.65Zm0,86c-14.66,0-26.53-11.36-26.53-25.37s11.87-25.36,26.53-25.36,26.52,11.36,26.52,25.36S475.8,213.66,461.16,213.66Z"/><path class="cls-8" d="M519,171.86a29.41,29.41,0,0,0-5.06-10.32l-9.92-13A29.92,29.92,0,0,0,491.35,139l-16.27-6.5a30.25,30.25,0,0,0-16.91-1.64l-14.66,2.77a30.13,30.13,0,0,0-14.34,7L414.68,153.4a29.38,29.38,0,0,0-9,14.47L401,185.59a13.77,13.77,0,0,0-.48,3.36,51.53,51.53,0,0,0,6.81,26.89,55.58,55.58,0,0,0,23.1,21.5c1.37.72,30.51,15.32,58.65.89,0,0,17.43-8.93,28.39-31a60.46,60.46,0,0,0,4.25-12.29c1.16-5.2,1.22-10.25.21-12.06Zm-35,33c-6.7,8.26-20,12.3-31.5,9.31-2.3-.59-11.06-2.87-16.26-11.19a24,24,0,0,1-3.36-15.63l1.83-9.18a16.27,16.27,0,0,1,7-10.36l3.22-2.11a23.5,23.5,0,0,1,11.18-3.78l6.53-.47A24.23,24.23,0,0,1,477,164.91l2.68,1.64a23.54,23.54,0,0,1,10.77,15.11c.2.92.4,1.84.59,2.75C491.38,186.71,490,197.37,484,204.84Z"/><polygon class="cls-3" points="405.86 179.19 412.02 185.34 412.77 184.65 406.6 178.5 405.86 179.19"/><polygon class="cls-4" points="417.96 163.66 420.66 167.57 421.53 167.02 418.82 163.11 417.96 163.66"/><polygon class="cls-5" points="425.76 175.21 423.57 179.41 424.5 179.85 426.69 175.65 425.76 175.21"/><polygon class="cls-3" points="428.07 164.16 425.08 167.87 425.9 168.47 428.89 164.76 428.07 164.16"/><polygon class="cls-6" points="419.16 174.95 414.3 174.33 414.17 175.31 419.03 175.94 419.16 174.95"/><polygon class="cls-5" points="451.07 137.59 448.08 141.3 448.9 141.91 451.89 138.19 451.07 137.59"/><polygon class="cls-3" points="442.17 148.38 437.31 147.76 437.17 148.74 442.03 149.37 442.17 148.38"/><polygon class="cls-5" points="428.03 149.57 423.65 151.67 424.11 152.56 428.5 150.46 428.03 149.57"/><polygon class="cls-6" points="467.01 142.23 466.78 146.91 467.82 146.96 468.04 142.27 467.01 142.23"/><polygon class="cls-5" points="466.18 155.96 461.82 158.11 462.3 158.99 466.66 156.84 466.18 155.96"/><polygon class="cls-3" points="499.43 150.26 495.43 152.98 496.03 153.79 500.03 151.07 499.43 150.26"/><polygon class="cls-3" points="487.62 158.11 483.16 156.16 482.73 157.06 487.19 159.01 487.62 158.11"/><polygon class="cls-6" points="508.45 170.54 503.66 171.55 503.88 172.52 508.67 171.51 508.45 170.54"/><polygon class="cls-4" points="494.37 173.35 491.06 169.89 490.3 170.56 493.61 174.02 494.37 173.35"/><polygon class="cls-4" points="445.46 155.24 441.44 157.92 442.03 158.73 446.06 156.05 445.46 155.24"/><polygon class="cls-4" points="468.89 150.43 471.86 154.16 472.69 153.56 469.72 149.83 468.89 150.43"/><polygon class="cls-5" points="481.21 141.67 477.28 144.48 477.9 145.28 481.83 142.47 481.21 141.67"/><polygon class="cls-5" points="495.47 161.04 492.89 165.03 493.78 165.55 496.35 161.56 495.47 161.04"/><polygon class="cls-5" points="513.49 179.31 510.04 182.65 510.78 183.34 514.23 180 513.49 179.31"/><polygon class="cls-6" points="432.48 153.14 427.62 160.29 428.49 160.83 433.35 153.68 432.48 153.14"/><polygon class="cls-6" points="440.35 138.8 445.24 145.92 446.11 145.38 441.22 138.25 440.35 138.8"/><polygon class="cls-3" points="458.37 150.61 454.38 158.23 455.31 158.67 459.3 151.05 458.37 150.61"/><polygon class="cls-3" points="462.8 137.7 471.53 139.38 471.74 138.41 463 136.73 462.8 137.7"/><polygon class="cls-6" points="477.39 159.36 483.78 165.3 484.5 164.59 478.11 158.65 477.39 159.36"/><polygon class="cls-4" points="494.15 142.02 487.87 148.07 488.61 148.76 494.88 142.72 494.15 142.02"/><polygon class="cls-3" points="501.01 178.04 495.82 184.97 496.67 185.54 501.85 178.61 501.01 178.04"/><polygon class="cls-4" points="506.48 161.85 511.18 169.09 512.06 168.57 507.36 161.33 506.48 161.85"/><polygon class="cls-3" points="515.72 196.28 509.55 190.13 508.81 190.81 514.97 196.97 515.72 196.28"/><polygon class="cls-4" points="503.62 211.81 500.91 207.9 500.05 208.45 502.75 212.36 503.62 211.81"/><polygon class="cls-5" points="495.81 200.26 498 196.06 497.07 195.62 494.88 199.82 495.81 200.26"/><polygon class="cls-3" points="493.5 211.31 496.5 207.6 495.68 206.99 492.68 210.71 493.5 211.31"/><polygon class="cls-6" points="502.41 200.51 507.27 201.14 507.41 200.16 502.55 199.53 502.41 200.51"/><polygon class="cls-5" points="470.5 237.88 473.5 234.17 472.67 233.56 469.68 237.28 470.5 237.88"/><polygon class="cls-3" points="479.41 227.08 484.27 227.71 484.4 226.73 479.55 226.1 479.41 227.08"/><polygon class="cls-5" points="493.54 225.89 497.93 223.79 497.46 222.91 493.08 225.01 493.54 225.89"/><polygon class="cls-6" points="454.56 233.24 454.79 228.56 453.76 228.51 453.53 233.19 454.56 233.24"/><polygon class="cls-5" points="455.39 219.51 459.75 217.36 459.27 216.48 454.92 218.63 455.39 219.51"/><polygon class="cls-3" points="422.15 225.21 426.14 222.49 425.54 221.68 421.55 224.4 422.15 225.21"/><polygon class="cls-3" points="433.96 217.35 438.42 219.31 438.85 218.4 434.39 216.45 433.96 217.35"/><polygon class="cls-6" points="413.13 204.93 417.91 203.92 417.69 202.95 412.9 203.96 413.13 204.93"/><polygon class="cls-4" points="427.2 202.12 430.51 205.58 431.27 204.91 427.97 201.45 427.2 202.12"/><polygon class="cls-4" points="476.11 220.23 480.13 217.55 479.54 216.74 475.52 219.42 476.11 220.23"/><polygon class="cls-4" points="452.68 225.04 449.71 221.3 448.88 221.9 451.85 225.64 452.68 225.04"/><polygon class="cls-5" points="440.37 233.79 444.29 230.98 443.67 230.19 439.75 233 440.37 233.79"/><polygon class="cls-5" points="426.1 214.43 428.68 210.44 427.8 209.92 425.22 213.91 426.1 214.43"/><polygon class="cls-5" points="408.08 196.16 411.53 192.82 410.79 192.12 407.35 195.46 408.08 196.16"/><polygon class="cls-6" points="489.1 222.33 493.95 215.18 493.08 214.64 488.23 221.79 489.1 222.33"/><polygon class="cls-6" points="481.22 236.67 476.33 229.54 475.47 230.09 480.36 237.21 481.22 236.67"/><polygon class="cls-3" points="463.2 224.86 467.19 217.24 466.27 216.8 462.28 224.42 463.2 224.86"/><polygon class="cls-3" points="458.77 237.76 450.04 236.08 449.83 237.05 458.57 238.74 458.77 237.76"/><polygon class="cls-6" points="444.18 216.11 437.79 210.17 437.07 210.88 443.46 216.82 444.18 216.11"/><polygon class="cls-4" points="427.43 233.45 433.7 227.4 432.97 226.7 426.69 232.75 427.43 233.45"/><polygon class="cls-3" points="420.56 197.43 425.75 190.5 424.91 189.93 419.72 196.85 420.56 197.43"/><polygon class="cls-4" points="415.1 213.62 410.4 206.38 409.51 206.9 414.22 214.14 415.1 213.62"/><path class="cls-1" d="M63.41,255.31C28.39,255.31,0,282.46,0,316s28.39,60.64,63.41,60.64,63.42-27.15,63.42-60.64S98.44,255.31,63.41,255.31Zm0,86C48.76,341.32,36.89,330,36.89,316s11.87-25.37,26.52-25.37S89.94,301.94,89.94,316,78.06,341.32,63.41,341.32Z"/><path class="cls-7" d="M121.24,299.51a29.35,29.35,0,0,0-5.07-10.32l-9.91-13a29.92,29.92,0,0,0-12.65-9.58l-16.27-6.5a30.43,30.43,0,0,0-16.91-1.64l-14.67,2.77a30.16,30.16,0,0,0-14.33,7L16.94,281.06a29.4,29.4,0,0,0-9,14.46L3.21,313.25a14.17,14.17,0,0,0-.47,3.35,51.52,51.52,0,0,0,6.81,26.89A55.58,55.58,0,0,0,32.65,365c1.37.72,30.51,15.32,58.65.9,0,0,17.43-8.94,28.39-31a61.85,61.85,0,0,0,4.25-12.28c1.16-5.2,1.22-10.25.21-12.07Zm-35,33c-6.7,8.26-20,12.3-31.5,9.32-2.3-.6-11.06-2.88-16.27-11.2A24,24,0,0,1,35.1,315l1.83-9.17a16.23,16.23,0,0,1,7-10.37l3.22-2.11a23.46,23.46,0,0,1,11.18-3.78l6.53-.47a24.16,24.16,0,0,1,14.35,3.49l2.68,1.63a23.56,23.56,0,0,1,10.77,15.11c.2.92.39,1.84.59,2.76C93.64,314.36,92.29,325,86.22,332.49Z"/><polygon class="cls-3" points="8.11 306.84 14.28 312.99 15.03 312.31 8.86 306.15 8.11 306.84"/><polygon class="cls-4" points="20.22 291.31 22.92 295.22 23.79 294.68 21.08 290.76 20.22 291.31"/><polygon class="cls-5" points="28.02 302.86 25.83 307.06 26.76 307.5 28.95 303.31 28.02 302.86"/><polygon class="cls-3" points="30.33 291.81 27.34 295.52 28.16 296.13 31.15 292.41 30.33 291.81"/><polygon class="cls-6" points="21.42 302.61 16.56 301.98 16.42 302.96 21.28 303.59 21.42 302.61"/><polygon class="cls-5" points="53.33 265.24 50.34 268.95 51.16 269.56 54.15 265.84 53.33 265.24"/><polygon class="cls-3" points="44.43 276.04 39.56 275.41 39.43 276.39 44.29 277.02 44.43 276.04"/><polygon class="cls-5" points="30.29 277.23 25.91 279.33 26.37 280.21 30.75 278.11 30.29 277.23"/><polygon class="cls-6" points="69.27 269.88 69.04 274.56 70.08 274.61 70.3 269.93 69.27 269.88"/><polygon class="cls-5" points="68.44 283.61 64.08 285.76 64.56 286.64 68.92 284.49 68.44 283.61"/><polygon class="cls-3" points="101.68 277.92 97.69 280.64 98.29 281.44 102.28 278.72 101.68 277.92"/><polygon class="cls-3" points="89.88 285.77 85.42 283.82 84.99 284.72 89.44 286.67 89.88 285.77"/><polygon class="cls-6" points="110.71 298.19 105.92 299.2 106.14 300.17 110.93 299.16 110.71 298.19"/><polygon class="cls-4" points="96.63 301 93.32 297.54 92.56 298.21 95.86 301.67 96.63 301"/><polygon class="cls-4" points="47.72 282.89 43.7 285.57 44.29 286.38 48.31 283.7 47.72 282.89"/><polygon class="cls-4" points="71.15 278.08 74.12 281.82 74.95 281.22 71.98 277.48 71.15 278.08"/><polygon class="cls-5" points="83.46 269.33 79.54 272.14 80.16 272.93 84.08 270.12 83.46 269.33"/><polygon class="cls-5" points="97.73 288.69 95.15 292.68 96.04 293.2 98.61 289.21 97.73 288.69"/><polygon class="cls-5" points="115.75 306.96 112.3 310.3 113.04 311 116.48 307.66 115.75 306.96"/><polygon class="cls-6" points="34.73 280.79 29.88 287.94 30.75 288.48 35.6 281.33 34.73 280.79"/><polygon class="cls-6" points="42.61 266.45 47.5 273.58 48.37 273.03 43.48 265.91 42.61 266.45"/><polygon class="cls-3" points="60.63 278.26 56.64 285.88 57.56 286.32 61.55 278.7 60.63 278.26"/><polygon class="cls-3" points="65.06 265.36 73.79 267.04 74 266.07 65.26 264.39 65.06 265.36"/><polygon class="cls-6" points="79.65 287.01 86.04 292.95 86.76 292.24 80.37 286.3 79.65 287.01"/><polygon class="cls-4" points="96.41 269.67 90.13 275.72 90.87 276.42 97.14 270.37 96.41 269.67"/><polygon class="cls-3" points="103.27 305.69 98.08 312.62 98.92 313.19 104.11 306.27 103.27 305.69"/><polygon class="cls-4" points="108.74 289.5 113.44 296.74 114.32 296.22 109.62 288.98 108.74 289.5"/><polygon class="cls-3" points="117.98 323.93 111.81 317.78 111.06 318.47 117.23 324.62 117.98 323.93"/><polygon class="cls-4" points="105.88 339.46 103.17 335.55 102.3 336.1 105.01 340.01 105.88 339.46"/><polygon class="cls-5" points="98.07 327.91 100.26 323.72 99.33 323.27 97.14 327.47 98.07 327.91"/><polygon class="cls-3" points="95.76 338.97 98.76 335.25 97.94 334.65 94.94 338.36 95.76 338.97"/><polygon class="cls-6" points="104.67 328.17 109.53 328.8 109.67 327.81 104.81 327.19 104.67 328.17"/><polygon class="cls-5" points="72.76 365.54 75.75 361.82 74.93 361.22 71.94 364.93 72.76 365.54"/><polygon class="cls-3" points="81.67 354.74 86.53 355.36 86.66 354.38 81.8 353.75 81.67 354.74"/><polygon class="cls-5" points="95.8 353.55 100.19 351.45 99.72 350.56 95.34 352.66 95.8 353.55"/><polygon class="cls-6" points="56.82 360.89 57.05 356.21 56.02 356.16 55.79 360.85 56.82 360.89"/><polygon class="cls-5" points="57.65 347.16 62.01 345.01 61.53 344.13 57.17 346.28 57.65 347.16"/><polygon class="cls-3" points="24.41 352.86 28.4 350.14 27.8 349.33 23.81 352.05 24.41 352.86"/><polygon class="cls-3" points="36.21 345.01 40.67 346.96 41.1 346.06 36.65 344.11 36.21 345.01"/><polygon class="cls-6" points="15.38 332.58 20.17 331.57 19.95 330.6 15.16 331.61 15.38 332.58"/><polygon class="cls-4" points="29.46 329.77 32.77 333.23 33.53 332.56 30.23 329.1 29.46 329.77"/><polygon class="cls-4" points="78.37 347.88 82.39 345.2 81.8 344.39 77.78 347.07 78.37 347.88"/><polygon class="cls-4" points="54.94 352.69 51.97 348.96 51.14 349.56 54.11 353.29 54.94 352.69"/><polygon class="cls-5" points="42.63 361.45 46.55 358.64 45.93 357.84 42.01 360.65 42.63 361.45"/><polygon class="cls-5" points="28.36 342.08 30.94 338.09 30.05 337.57 27.48 341.56 28.36 342.08"/><polygon class="cls-5" points="10.34 323.81 13.79 320.47 13.05 319.78 9.61 323.12 10.34 323.81"/><polygon class="cls-6" points="91.36 349.98 96.21 342.83 95.34 342.29 90.49 349.44 91.36 349.98"/><polygon class="cls-6" points="83.48 364.32 78.59 357.2 77.72 357.74 82.61 364.87 83.48 364.32"/><polygon class="cls-3" points="65.46 352.51 69.45 344.89 68.53 344.45 64.54 352.07 65.46 352.51"/><polygon class="cls-3" points="61.03 365.42 52.3 363.74 52.09 364.71 60.83 366.39 61.03 365.42"/><polygon class="cls-6" points="46.44 343.76 40.05 337.82 39.33 338.54 45.72 344.47 46.44 343.76"/><polygon class="cls-4" points="29.69 361.1 35.96 355.05 35.23 354.36 28.95 360.41 29.69 361.1"/><polygon class="cls-3" points="22.82 325.08 28.01 318.16 27.17 317.58 21.98 324.51 22.82 325.08"/><polygon class="cls-4" points="17.35 341.27 12.65 334.03 11.77 334.55 16.47 341.79 17.35 341.27"/><path class="cls-1" d="M196,255.31c-35,0-63.41,27.15-63.41,60.64S161,376.59,196,376.59s63.42-27.15,63.42-60.64S231,255.31,196,255.31Zm0,86c-14.65,0-26.52-11.36-26.52-25.37s11.87-25.37,26.52-25.37,26.53,11.36,26.53,25.37S210.64,341.32,196,341.32Z"/><path class="cls-8" d="M253.82,299.51a29.5,29.5,0,0,0-5.06-10.32l-9.92-13a29.92,29.92,0,0,0-12.65-9.58l-16.27-6.5A30.43,30.43,0,0,0,193,258.51l-14.66,2.77a30.15,30.15,0,0,0-14.34,7l-14.49,12.78a29.4,29.4,0,0,0-9,14.46l-4.74,17.73a14.17,14.17,0,0,0-.47,3.35,51.52,51.52,0,0,0,6.81,26.89,55.58,55.58,0,0,0,23.1,21.5c1.37.72,30.51,15.32,58.65.9,0,0,17.43-8.94,28.39-31a61.85,61.85,0,0,0,4.25-12.28c1.16-5.2,1.22-10.25.21-12.07Zm-35,33c-6.7,8.26-20,12.3-31.5,9.32-2.3-.6-11.06-2.88-16.27-11.2A24,24,0,0,1,167.68,315l1.83-9.17a16.23,16.23,0,0,1,7-10.37l3.22-2.11a23.5,23.5,0,0,1,11.18-3.78l6.53-.47a24.16,24.16,0,0,1,14.35,3.49l2.68,1.63a23.56,23.56,0,0,1,10.77,15.11c.2.92.39,1.84.59,2.76C226.22,314.36,224.87,325,218.8,332.49Z"/><polygon class="cls-3" points="140.69 306.84 146.86 312.99 147.61 312.31 141.44 306.15 140.69 306.84"/><polygon class="cls-4" points="152.8 291.31 155.5 295.22 156.37 294.68 153.66 290.76 152.8 291.31"/><polygon class="cls-5" points="160.6 302.86 158.41 307.06 159.34 307.5 161.53 303.31 160.6 302.86"/><polygon class="cls-3" points="162.91 291.81 159.91 295.52 160.74 296.13 163.73 292.41 162.91 291.81"/><polygon class="cls-6" points="154 302.61 149.14 301.98 149 302.96 153.87 303.59 154 302.61"/><polygon class="cls-5" points="185.91 265.24 182.92 268.95 183.74 269.56 186.73 265.84 185.91 265.24"/><polygon class="cls-3" points="177.01 276.04 172.15 275.41 172.01 276.39 176.87 277.02 177.01 276.04"/><polygon class="cls-5" points="162.87 277.23 158.49 279.33 158.95 280.21 163.34 278.11 162.87 277.23"/><polygon class="cls-6" points="201.85 269.88 201.62 274.56 202.66 274.61 202.88 269.93 201.85 269.88"/><polygon class="cls-5" points="201.02 283.61 196.66 285.76 197.14 286.64 201.5 284.49 201.02 283.61"/><polygon class="cls-3" points="234.26 277.92 230.27 280.64 230.87 281.44 234.87 278.72 234.26 277.92"/><polygon class="cls-3" points="222.46 285.77 218 283.82 217.57 284.72 222.03 286.67 222.46 285.77"/><polygon class="cls-6" points="243.29 298.19 238.5 299.2 238.72 300.17 243.51 299.16 243.29 298.19"/><polygon class="cls-4" points="229.21 301 225.9 297.54 225.14 298.21 228.44 301.67 229.21 301"/><polygon class="cls-4" points="180.3 282.89 176.28 285.57 176.87 286.38 180.9 283.7 180.3 282.89"/><polygon class="cls-4" points="203.73 278.08 206.7 281.82 207.53 281.22 204.56 277.48 203.73 278.08"/><polygon class="cls-5" points="216.04 269.33 212.12 272.14 212.74 272.93 216.67 270.12 216.04 269.33"/><polygon class="cls-5" points="230.31 288.69 227.73 292.68 228.62 293.2 231.19 289.21 230.31 288.69"/><polygon class="cls-5" points="248.33 306.96 244.88 310.3 245.62 311 249.06 307.66 248.33 306.96"/><polygon class="cls-6" points="167.31 280.79 162.46 287.94 163.33 288.48 168.18 281.33 167.31 280.79"/><polygon class="cls-6" points="175.19 266.45 180.08 273.58 180.95 273.03 176.06 265.91 175.19 266.45"/><polygon class="cls-3" points="193.21 278.26 189.22 285.88 190.14 286.32 194.14 278.7 193.21 278.26"/><polygon class="cls-3" points="197.64 265.36 206.37 267.04 206.58 266.07 197.84 264.39 197.64 265.36"/><polygon class="cls-6" points="212.23 287.01 218.62 292.95 219.34 292.24 212.95 286.3 212.23 287.01"/><polygon class="cls-4" points="228.99 269.67 222.71 275.72 223.45 276.42 229.72 270.37 228.99 269.67"/><polygon class="cls-3" points="235.85 305.69 230.66 312.62 231.5 313.19 236.69 306.27 235.85 305.69"/><polygon class="cls-4" points="241.32 289.5 246.02 296.74 246.9 296.22 242.2 288.98 241.32 289.5"/><polygon class="cls-3" points="250.56 323.93 244.39 317.78 243.64 318.47 249.81 324.62 250.56 323.93"/><polygon class="cls-4" points="238.46 339.46 235.75 335.55 234.88 336.1 237.59 340.01 238.46 339.46"/><polygon class="cls-5" points="230.65 327.91 232.84 323.72 231.91 323.27 229.72 327.47 230.65 327.91"/><polygon class="cls-3" points="228.34 338.97 231.34 335.25 230.52 334.65 227.52 338.36 228.34 338.97"/><polygon class="cls-6" points="237.25 328.17 242.11 328.8 242.25 327.81 237.39 327.19 237.25 328.17"/><polygon class="cls-5" points="205.34 365.54 208.33 361.82 207.51 361.22 204.52 364.93 205.34 365.54"/><polygon class="cls-3" points="214.25 354.74 219.11 355.36 219.24 354.38 214.38 353.75 214.25 354.74"/><polygon class="cls-5" points="228.38 353.55 232.77 351.45 232.3 350.56 227.92 352.66 228.38 353.55"/><polygon class="cls-6" points="189.4 360.89 189.63 356.21 188.6 356.16 188.37 360.85 189.4 360.89"/><polygon class="cls-5" points="190.23 347.16 194.59 345.01 194.11 344.13 189.75 346.28 190.23 347.16"/><polygon class="cls-3" points="156.99 352.86 160.98 350.14 160.38 349.33 156.39 352.05 156.99 352.86"/><polygon class="cls-3" points="168.79 345.01 173.25 346.96 173.69 346.06 169.23 344.11 168.79 345.01"/><polygon class="cls-6" points="147.96 332.58 152.75 331.57 152.53 330.6 147.74 331.61 147.96 332.58"/><polygon class="cls-4" points="162.04 329.77 165.35 333.23 166.11 332.56 162.81 329.1 162.04 329.77"/><polygon class="cls-4" points="210.95 347.88 214.97 345.2 214.38 344.39 210.36 347.07 210.95 347.88"/><polygon class="cls-4" points="187.52 352.69 184.55 348.96 183.72 349.56 186.69 353.29 187.52 352.69"/><polygon class="cls-5" points="175.21 361.45 179.13 358.64 178.51 357.84 174.59 360.65 175.21 361.45"/><polygon class="cls-5" points="160.94 342.08 163.52 338.09 162.64 337.57 160.06 341.56 160.94 342.08"/><polygon class="cls-5" points="142.92 323.81 146.37 320.47 145.63 319.78 142.19 323.12 142.92 323.81"/><polygon class="cls-6" points="223.94 349.98 228.79 342.83 227.92 342.29 223.07 349.44 223.94 349.98"/><polygon class="cls-6" points="216.06 364.32 211.17 357.2 210.31 357.74 215.19 364.87 216.06 364.32"/><polygon class="cls-3" points="198.04 352.51 202.03 344.89 201.11 344.45 197.12 352.07 198.04 352.51"/><polygon class="cls-3" points="193.61 365.42 184.88 363.74 184.67 364.71 193.41 366.39 193.61 365.42"/><polygon class="cls-6" points="179.02 343.76 172.63 337.82 171.91 338.54 178.3 344.47 179.02 343.76"/><polygon class="cls-4" points="162.27 361.1 168.54 355.05 167.81 354.36 161.53 360.41 162.27 361.1"/><polygon class="cls-3" points="155.4 325.08 160.59 318.16 159.75 317.58 154.56 324.51 155.4 325.08"/><polygon class="cls-4" points="149.94 341.27 145.24 334.03 144.35 334.55 149.06 341.79 149.94 341.27"/><path class="cls-1" d="M328.58,255.31c-35,0-63.42,27.15-63.42,60.64s28.39,60.64,63.42,60.64S392,349.44,392,316,363.6,255.31,328.58,255.31Zm0,86c-14.66,0-26.53-11.36-26.53-25.37s11.87-25.37,26.53-25.37S355.1,301.94,355.1,316,343.22,341.32,328.58,341.32Z"/><path class="cls-2" d="M386.4,299.51a29.5,29.5,0,0,0-5.06-10.32l-9.92-13a29.92,29.92,0,0,0-12.65-9.58l-16.27-6.5a30.43,30.43,0,0,0-16.91-1.64l-14.66,2.77a30.15,30.15,0,0,0-14.34,7L282.1,281.06a29.4,29.4,0,0,0-9,14.46l-4.74,17.73a14.17,14.17,0,0,0-.47,3.35,51.52,51.52,0,0,0,6.81,26.89,55.58,55.58,0,0,0,23.1,21.5c1.37.72,30.51,15.32,58.65.9,0,0,17.43-8.94,28.39-31a61.15,61.15,0,0,0,4.25-12.28c1.16-5.2,1.22-10.25.21-12.07Zm-35,33c-6.7,8.26-20,12.3-31.5,9.32-2.3-.6-11.06-2.88-16.27-11.2A24,24,0,0,1,300.26,315l1.83-9.17a16.27,16.27,0,0,1,7-10.37l3.22-2.11a23.5,23.5,0,0,1,11.18-3.78l6.53-.47a24.16,24.16,0,0,1,14.35,3.49l2.68,1.63a23.56,23.56,0,0,1,10.77,15.11c.2.92.39,1.84.59,2.76C358.8,314.36,357.45,325,351.38,332.49Z"/><polygon class="cls-3" points="273.27 306.84 279.44 312.99 280.19 312.31 274.02 306.15 273.27 306.84"/><polygon class="cls-4" points="285.38 291.31 288.08 295.22 288.95 294.68 286.24 290.76 285.38 291.31"/><polygon class="cls-5" points="293.18 302.86 290.99 307.06 291.92 307.5 294.11 303.31 293.18 302.86"/><polygon class="cls-3" points="295.49 291.81 292.5 295.52 293.32 296.13 296.31 292.41 295.49 291.81"/><polygon class="cls-6" points="286.58 302.61 281.72 301.98 281.58 302.96 286.44 303.59 286.58 302.61"/><polygon class="cls-5" points="318.49 265.24 315.5 268.95 316.32 269.56 319.31 265.84 318.49 265.24"/><polygon class="cls-3" points="309.59 276.04 304.73 275.41 304.59 276.39 309.45 277.02 309.59 276.04"/><polygon class="cls-5" points="295.45 277.23 291.07 279.33 291.53 280.21 295.92 278.11 295.45 277.23"/><polygon class="cls-6" points="334.43 269.88 334.2 274.56 335.24 274.61 335.46 269.93 334.43 269.88"/><polygon class="cls-5" points="333.6 283.61 329.24 285.76 329.72 286.64 334.08 284.49 333.6 283.61"/><polygon class="cls-3" points="366.85 277.92 362.85 280.64 363.45 281.44 367.45 278.72 366.85 277.92"/><polygon class="cls-3" points="355.04 285.77 350.58 283.82 350.15 284.72 354.61 286.67 355.04 285.77"/><polygon class="cls-6" points="375.87 298.19 371.08 299.2 371.3 300.17 376.09 299.16 375.87 298.19"/><polygon class="cls-4" points="361.79 301 358.48 297.54 357.72 298.21 361.03 301.67 361.79 301"/><polygon class="cls-4" points="312.88 282.89 308.86 285.57 309.45 286.38 313.48 283.7 312.88 282.89"/><polygon class="cls-4" points="336.31 278.08 339.28 281.82 340.11 281.22 337.14 277.48 336.31 278.08"/><polygon class="cls-5" points="348.63 269.33 344.7 272.14 345.32 272.93 349.25 270.12 348.63 269.33"/><polygon class="cls-5" points="362.89 288.69 360.31 292.68 361.2 293.2 363.77 289.21 362.89 288.69"/><polygon class="cls-5" points="380.91 306.96 377.46 310.3 378.2 311 381.64 307.66 380.91 306.96"/><polygon class="cls-6" points="299.9 280.79 295.04 287.94 295.91 288.48 300.76 281.33 299.9 280.79"/><polygon class="cls-6" points="307.77 266.45 312.66 273.58 313.53 273.03 308.64 265.91 307.77 266.45"/><polygon class="cls-3" points="325.79 278.26 321.8 285.88 322.73 286.32 326.72 278.7 325.79 278.26"/><polygon class="cls-3" points="330.22 265.36 338.95 267.04 339.16 266.07 330.42 264.39 330.22 265.36"/><polygon class="cls-6" points="344.81 287.01 351.2 292.95 351.92 292.24 345.53 286.3 344.81 287.01"/><polygon class="cls-4" points="361.57 269.67 355.29 275.72 356.03 276.42 362.3 270.37 361.57 269.67"/><polygon class="cls-3" points="368.43 305.69 363.24 312.62 364.08 313.19 369.27 306.27 368.43 305.69"/><polygon class="cls-4" points="373.9 289.5 378.6 296.74 379.48 296.22 374.78 288.98 373.9 289.5"/><polygon class="cls-3" points="383.14 323.93 376.97 317.78 376.22 318.47 382.39 324.62 383.14 323.93"/><polygon class="cls-4" points="371.04 339.46 368.33 335.55 367.46 336.1 370.17 340.01 371.04 339.46"/><polygon class="cls-5" points="363.23 327.91 365.42 323.72 364.49 323.27 362.3 327.47 363.23 327.91"/><polygon class="cls-3" points="360.92 338.97 363.92 335.25 363.1 334.65 360.1 338.36 360.92 338.97"/><polygon class="cls-6" points="369.83 328.17 374.69 328.8 374.83 327.81 369.97 327.19 369.83 328.17"/><polygon class="cls-5" points="337.92 365.54 340.91 361.82 340.09 361.22 337.1 364.93 337.92 365.54"/><polygon class="cls-3" points="346.83 354.74 351.69 355.36 351.82 354.38 346.96 353.75 346.83 354.74"/><polygon class="cls-5" points="360.96 353.55 365.35 351.45 364.88 350.56 360.5 352.66 360.96 353.55"/><polygon class="cls-6" points="321.98 360.89 322.21 356.21 321.18 356.16 320.95 360.85 321.98 360.89"/><polygon class="cls-5" points="322.81 347.16 327.17 345.01 326.69 344.13 322.33 346.28 322.81 347.16"/><polygon class="cls-3" points="289.57 352.86 293.56 350.14 292.96 349.33 288.97 352.05 289.57 352.86"/><polygon class="cls-3" points="301.38 345.01 305.83 346.96 306.27 346.06 301.81 344.11 301.38 345.01"/><polygon class="cls-6" points="280.54 332.58 285.33 331.57 285.11 330.6 280.32 331.61 280.54 332.58"/><polygon class="cls-4" points="294.62 329.77 297.93 333.23 298.69 332.56 295.39 329.1 294.62 329.77"/><polygon class="cls-4" points="343.53 347.88 347.55 345.2 346.96 344.39 342.94 347.07 343.53 347.88"/><polygon class="cls-4" points="320.1 352.69 317.13 348.96 316.31 349.56 319.27 353.29 320.1 352.69"/><polygon class="cls-5" points="307.79 361.45 311.71 358.64 311.09 357.84 307.17 360.65 307.79 361.45"/><polygon class="cls-5" points="293.52 342.08 296.1 338.09 295.22 337.57 292.64 341.56 293.52 342.08"/><polygon class="cls-5" points="275.5 323.81 278.95 320.47 278.21 319.78 274.77 323.12 275.5 323.81"/><polygon class="cls-6" points="356.52 349.98 361.37 342.83 360.5 342.29 355.65 349.44 356.52 349.98"/><polygon class="cls-6" points="348.64 364.32 343.75 357.2 342.89 357.74 347.77 364.87 348.64 364.32"/><polygon class="cls-3" points="330.62 352.51 334.61 344.89 333.69 344.45 329.7 352.07 330.62 352.51"/><polygon class="cls-3" points="326.19 365.42 317.46 363.74 317.25 364.71 325.99 366.39 326.19 365.42"/><polygon class="cls-6" points="311.6 343.76 305.21 337.82 304.49 338.54 310.88 344.47 311.6 343.76"/><polygon class="cls-4" points="294.85 361.1 301.12 355.05 300.39 354.36 294.11 360.41 294.85 361.1"/><polygon class="cls-3" points="287.98 325.08 293.17 318.16 292.33 317.58 287.14 324.51 287.98 325.08"/><polygon class="cls-4" points="282.51 341.27 277.81 334.03 276.94 334.55 281.63 341.79 282.51 341.27"/><path class="cls-1" d="M461.16,255.31c-35,0-63.42,27.15-63.42,60.64s28.39,60.64,63.42,60.64,63.41-27.15,63.41-60.64S496.18,255.31,461.16,255.31Zm0,86c-14.66,0-26.53-11.36-26.53-25.37s11.87-25.37,26.53-25.37,26.52,11.36,26.52,25.37S475.8,341.32,461.16,341.32Z"/><path class="cls-7" d="M519,299.51a29.5,29.5,0,0,0-5.06-10.32l-9.92-13a29.92,29.92,0,0,0-12.65-9.58l-16.27-6.5a30.43,30.43,0,0,0-16.91-1.64l-14.66,2.77a30.15,30.15,0,0,0-14.34,7l-14.49,12.78a29.4,29.4,0,0,0-9,14.46L401,313.25a13.69,13.69,0,0,0-.48,3.35,51.52,51.52,0,0,0,6.81,26.89,55.58,55.58,0,0,0,23.1,21.5c1.37.72,30.51,15.32,58.65.9,0,0,17.43-8.94,28.39-31a60.46,60.46,0,0,0,4.25-12.28c1.16-5.2,1.22-10.25.21-12.07Zm-35,33c-6.7,8.26-20,12.3-31.5,9.32-2.3-.6-11.06-2.88-16.26-11.2A24,24,0,0,1,432.84,315l1.83-9.17a16.27,16.27,0,0,1,7-10.37l3.22-2.11a23.5,23.5,0,0,1,11.18-3.78l6.53-.47A24.16,24.16,0,0,1,477,292.57l2.68,1.63a23.56,23.56,0,0,1,10.77,15.11c.2.92.4,1.84.59,2.76C491.38,314.36,490,325,484,332.49Z"/><polygon class="cls-3" points="405.86 306.84 412.02 312.99 412.77 312.31 406.6 306.15 405.86 306.84"/><polygon class="cls-4" points="417.96 291.31 420.66 295.22 421.53 294.68 418.82 290.76 417.96 291.31"/><polygon class="cls-5" points="425.76 302.86 423.57 307.06 424.5 307.5 426.69 303.31 425.76 302.86"/><polygon class="cls-3" points="428.07 291.81 425.08 295.52 425.9 296.13 428.89 292.41 428.07 291.81"/><polygon class="cls-6" points="419.16 302.61 414.3 301.98 414.17 302.96 419.03 303.59 419.16 302.61"/><polygon class="cls-5" points="451.07 265.24 448.08 268.95 448.9 269.56 451.89 265.84 451.07 265.24"/><polygon class="cls-3" points="442.17 276.04 437.31 275.41 437.17 276.39 442.03 277.02 442.17 276.04"/><polygon class="cls-5" points="428.03 277.23 423.65 279.33 424.11 280.21 428.5 278.11 428.03 277.23"/><polygon class="cls-6" points="467.01 269.88 466.78 274.56 467.82 274.61 468.04 269.93 467.01 269.88"/><polygon class="cls-5" points="466.18 283.61 461.82 285.76 462.3 286.64 466.66 284.49 466.18 283.61"/><polygon class="cls-3" points="499.43 277.92 495.43 280.64 496.03 281.44 500.03 278.72 499.43 277.92"/><polygon class="cls-3" points="487.62 285.77 483.16 283.82 482.73 284.72 487.19 286.67 487.62 285.77"/><polygon class="cls-6" points="508.45 298.19 503.66 299.2 503.88 300.17 508.67 299.16 508.45 298.19"/><polygon class="cls-4" points="494.37 301 491.06 297.54 490.3 298.21 493.61 301.67 494.37 301"/><polygon class="cls-4" points="445.46 282.89 441.44 285.57 442.03 286.38 446.06 283.7 445.46 282.89"/><polygon class="cls-4" points="468.89 278.08 471.86 281.82 472.69 281.22 469.72 277.48 468.89 278.08"/><polygon class="cls-5" points="481.21 269.33 477.28 272.14 477.9 272.93 481.83 270.12 481.21 269.33"/><polygon class="cls-5" points="495.47 288.69 492.89 292.68 493.78 293.2 496.35 289.21 495.47 288.69"/><polygon class="cls-5" points="513.49 306.96 510.04 310.3 510.78 311 514.23 307.66 513.49 306.96"/><polygon class="cls-6" points="432.48 280.79 427.62 287.94 428.49 288.48 433.35 281.33 432.48 280.79"/><polygon class="cls-6" points="440.35 266.45 445.24 273.58 446.11 273.03 441.22 265.91 440.35 266.45"/><polygon class="cls-3" points="458.37 278.26 454.38 285.88 455.31 286.32 459.3 278.7 458.37 278.26"/><polygon class="cls-3" points="462.8 265.36 471.53 267.04 471.74 266.07 463 264.39 462.8 265.36"/><polygon class="cls-6" points="477.39 287.01 483.78 292.95 484.5 292.24 478.11 286.3 477.39 287.01"/><polygon class="cls-4" points="494.15 269.67 487.87 275.72 488.61 276.42 494.88 270.37 494.15 269.67"/><polygon class="cls-3" points="501.01 305.69 495.82 312.62 496.67 313.19 501.85 306.27 501.01 305.69"/><polygon class="cls-4" points="506.48 289.5 511.18 296.74 512.06 296.22 507.36 288.98 506.48 289.5"/><polygon class="cls-3" points="515.72 323.93 509.55 317.78 508.81 318.47 514.97 324.62 515.72 323.93"/><polygon class="cls-4" points="503.62 339.46 500.91 335.55 500.05 336.1 502.75 340.01 503.62 339.46"/><polygon class="cls-5" points="495.81 327.91 498 323.72 497.07 323.27 494.88 327.47 495.81 327.91"/><polygon class="cls-3" points="493.5 338.97 496.5 335.25 495.68 334.65 492.68 338.36 493.5 338.97"/><polygon class="cls-6" points="502.41 328.17 507.27 328.8 507.41 327.81 502.55 327.19 502.41 328.17"/><polygon class="cls-5" points="470.5 365.54 473.5 361.82 472.67 361.22 469.68 364.93 470.5 365.54"/><polygon class="cls-3" points="479.41 354.74 484.27 355.36 484.4 354.38 479.55 353.75 479.41 354.74"/><polygon class="cls-5" points="493.54 353.55 497.93 351.45 497.46 350.56 493.08 352.66 493.54 353.55"/><polygon class="cls-6" points="454.56 360.89 454.79 356.21 453.76 356.16 453.53 360.85 454.56 360.89"/><polygon class="cls-5" points="455.39 347.16 459.75 345.01 459.27 344.13 454.92 346.28 455.39 347.16"/><polygon class="cls-3" points="422.15 352.86 426.14 350.14 425.54 349.33 421.55 352.05 422.15 352.86"/><polygon class="cls-3" points="433.96 345.01 438.42 346.96 438.85 346.06 434.39 344.11 433.96 345.01"/><polygon class="cls-6" points="413.13 332.58 417.91 331.57 417.69 330.6 412.9 331.61 413.13 332.58"/><polygon class="cls-4" points="427.2 329.77 430.51 333.23 431.27 332.56 427.97 329.1 427.2 329.77"/><polygon class="cls-4" points="476.11 347.88 480.13 345.2 479.54 344.39 475.52 347.07 476.11 347.88"/><polygon class="cls-4" points="452.68 352.69 449.71 348.96 448.88 349.56 451.85 353.29 452.68 352.69"/><polygon class="cls-5" points="440.37 361.45 444.29 358.64 443.67 357.84 439.75 360.65 440.37 361.45"/><polygon class="cls-5" points="426.1 342.08 428.68 338.09 427.8 337.57 425.22 341.56 426.1 342.08"/><polygon class="cls-5" points="408.08 323.81 411.53 320.47 410.79 319.78 407.35 323.12 408.08 323.81"/><polygon class="cls-6" points="489.1 349.98 493.95 342.83 493.08 342.29 488.23 349.44 489.1 349.98"/><polygon class="cls-6" points="481.22 364.32 476.33 357.2 475.47 357.74 480.36 364.87 481.22 364.32"/><polygon class="cls-3" points="463.2 352.51 467.19 344.89 466.27 344.45 462.28 352.07 463.2 352.51"/><polygon class="cls-3" points="458.77 365.42 450.04 363.74 449.83 364.71 458.57 366.39 458.77 365.42"/><polygon class="cls-6" points="444.18 343.76 437.79 337.82 437.07 338.54 443.46 344.47 444.18 343.76"/><polygon class="cls-4" points="427.43 361.1 433.7 355.05 432.97 354.36 426.69 360.41 427.43 361.1"/><polygon class="cls-3" points="420.56 325.08 425.75 318.16 424.91 317.58 419.72 324.51 420.56 325.08"/><polygon class="cls-4" points="415.1 341.27 410.4 334.03 409.51 334.55 414.22 341.79 415.1 341.27"/></g></g></svg>