<svg xmlns="http://www.w3.org/2000/svg" viewBox="0 0 498.96 498.96"><defs><style>.cls-1{fill:#ffdec2;}.cls-2{fill:#fff;}.cls-3{fill:#f98ff9;}.cls-4{fill:#e54e4e;}.cls-5{fill:#ededed;}.cls-6{fill:lime;}.cls-7{fill:#ff0;}</style></defs><title>perPieceAsset 8</title><g id="Layer_2" data-name="Layer 2"><g id="Layer_1-2" data-name="Layer 1"><path class="cls-1" d="M249.48,494A244.48,244.48,0,0,1,76.61,76.61,244.48,244.48,0,1,1,422.35,422.35,242.85,242.85,0,0,1,249.48,494Zm0-339.65a95.18,95.18,0,1,0,95.17,95.17A95.28,95.28,0,0,0,249.48,154.31Z"/><path class="cls-2" d="M249.48,10C381.74,10,489,117.22,489,249.48S381.74,489,249.48,489,10,381.74,10,249.48,117.22,10,249.48,10m0,339.66A100.18,100.18,0,1,0,149.3,249.48,100.18,100.18,0,0,0,249.48,349.66M249.48,0a249.54,249.54,0,0,0-97.11,479.35A249.54,249.54,0,0,0,346.59,19.61,248,248,0,0,0,249.48,0Zm0,339.66a90.18,90.18,0,1,1,90.17-90.18,90.28,90.28,0,0,1-90.17,90.18Z"/><path class="cls-3" d="M467.85,184.56a118.09,118.09,0,0,0-19.12-40.75L411.3,92.64A113.7,113.7,0,0,0,363.5,54.8L302.07,29.12a110.08,110.08,0,0,0-63.87-6.47l-55.37,11A111.85,111.85,0,0,0,128.7,61.21L74,111.68A117.13,117.13,0,0,0,40,168.81l-17.88,70a58,58,0,0,0-1.8,13.26A211.19,211.19,0,0,0,46.05,358.25c28.72,52.24,71.46,76.3,87.26,84.92,5.17,2.82,115.2,60.48,221.48,3.52,0,0,65.81-35.28,107.21-122.48,10.14-21.35,15.58-46.32,16.05-48.52,4.37-20.53,4.62-40.48.79-47.65ZM335.61,314.82c-25.31,32.61-75.65,48.56-119,36.78-8.69-2.36-41.78-11.36-61.44-44.22-15.72-26.26-13.76-52.58-12.66-61.72q3.45-18.12,6.91-36.23A64.13,64.13,0,0,1,176,168.5l12.16-8.35a85.89,85.89,0,0,1,42.21-14.91L255,143.39a88.28,88.28,0,0,1,54.21,13.75l10.11,6.47A93,93,0,0,1,360,223.28q1.13,5.43,2.24,10.87C363.61,243.21,358.52,285.31,335.61,314.82Z"/><rect class="cls-4" x="51.74" y="207.48" width="3.91" height="33.65" transform="translate(-140.28 99.53) rotate(-43.79)"/><rect class="cls-5" x="91.13" y="149.57" width="3.91" height="18.52" transform="matrix(0.83, -0.55, 0.55, 0.83, -72.2, 77.77)"/><rect class="cls-6" x="104.17" y="205.01" width="18.52" height="3.91" transform="translate(-122.4 215.98) rotate(-63.46)"/><rect class="cls-4" x="111.17" y="160.72" width="18.52" height="3.91" transform="matrix(0.61, -0.79, 0.79, 0.61, -81.93, 158.71)"/><rect class="cls-7" x="79.51" y="188.23" width="3.91" height="18.52" transform="translate(-125.14 251.86) rotate(-82.33)"/><rect class="cls-6" x="198.04" y="55.8" width="18.52" height="3.91" transform="translate(34.98 186.65) rotate(-52.36)"/><rect class="cls-4" x="166.38" y="83.31" width="3.91" height="18.52" transform="translate(54.12 247.03) rotate(-82.33)"/><rect class="cls-6" x="107.73" y="100.51" width="18.52" height="3.91" transform="translate(-33.48 63.16) rotate(-26.58)"/><rect class="cls-7" x="263.85" y="74.94" width="18.52" height="3.91" transform="translate(183.61 346.14) rotate(-87.34)"/><rect class="cls-6" x="251.87" y="125.81" width="18.52" height="3.91" transform="translate(-29.51 134) rotate(-27.3)"/><rect class="cls-4" x="378.33" y="104.3" width="18.52" height="3.91" transform="translate(10.21 244.45) rotate(-35.44)"/><rect class="cls-4" x="338.22" y="118.96" width="3.91" height="18.52" transform="translate(82.01 384.17) rotate(-65.41)"/><rect class="cls-7" x="410.2" y="181.31" width="18.52" height="3.91" transform="translate(-29.61 94.58) rotate(-12.43)"/><rect class="cls-5" x="365.27" y="175.69" width="3.91" height="18.52" transform="translate(-28.68 295.94) rotate(-42.39)"/><rect class="cls-5" x="174.48" y="123.88" width="18.52" height="3.91" transform="translate(-38.95 127.64) rotate(-34.87)"/><rect class="cls-5" x="283.91" y="96.88" width="3.91" height="18.52" transform="translate(-5.92 194.7) rotate(-37.25)"/><rect class="cls-6" x="309.7" y="70.53" width="18.52" height="3.91" transform="translate(20.19 205.62) rotate(-36.82)"/><rect class="cls-6" x="366.61" y="148.79" width="18.52" height="3.91" transform="matrix(0.52, -0.85, 0.85, 0.52, 50.24, 391.51)"/><rect class="cls-6" x="432.74" y="220.01" width="18.52" height="3.91" transform="translate(-26.44 380.7) rotate(-45.38)"/><rect class="cls-7" x="116.83" y="123.88" width="33.65" height="3.91" transform="translate(-44.67 169.41) rotate(-57.01)"/><rect class="cls-7" x="179.83" y="50.18" width="3.91" height="33.65" transform="matrix(0.84, -0.55, 0.55, 0.84, -6.96, 110.72)"/><rect class="cls-4" x="216.35" y="114.61" width="33.65" height="3.91" transform="translate(24.51 272.84) rotate(-63.39)"/><rect class="cls-4" x="270.61" y="34.27" width="3.91" height="33.65" transform="matrix(0.2, -0.98, 0.98, 0.2, 168.71, 308.22)"/><rect class="cls-7" x="322.26" y="128.7" width="3.91" height="33.65" transform="translate(-6.11 276.61) rotate(-45.82)"/><rect class="cls-5" x="346.78" y="78.09" width="33.65" height="3.91" transform="translate(50.73 281.86) rotate(-45.24)"/><rect class="cls-4" x="374.96" y="221.83" width="33.65" height="3.91" transform="translate(-18.25 412.07) rotate(-54.4)"/><rect class="cls-5" x="429.22" y="141.48" width="3.91" height="33.65" transform="matrix(0.85, -0.53, 0.53, 0.85, -18.65, 251.24)"/><rect class="cls-4" x="440.52" y="253.4" width="3.91" height="33.65" transform="translate(-63.95 381.32) rotate(-43.79)"/><rect class="cls-5" x="401.13" y="326.44" width="3.91" height="18.52" transform="translate(-118.33 278.26) rotate(-33.5)"/><rect class="cls-6" x="373.48" y="285.61" width="18.52" height="3.91" transform="translate(-45.53 501.51) rotate(-63.46)"/><rect class="cls-4" x="366.48" y="329.9" width="18.52" height="3.91" transform="translate(-116.5 426.76) rotate(-52.36)"/><rect class="cls-7" x="412.76" y="287.78" width="3.91" height="18.52" transform="translate(64.96 668.38) rotate(-82.33)"/><rect class="cls-6" x="279.61" y="434.82" width="18.52" height="3.91" transform="translate(-233.42 398.83) rotate(-52.36)"/><rect class="cls-4" x="325.89" y="392.7" width="3.91" height="18.52" transform="matrix(0.13, -0.99, 0.99, 0.13, -114.3, 673.2)"/><rect class="cls-6" x="369.93" y="390.11" width="18.52" height="3.91" transform="translate(-135.34 211.07) rotate(-26.58)"/><rect class="cls-7" x="213.8" y="415.68" width="18.52" height="3.91" transform="translate(-204.48 621.06) rotate(-87.34)"/><rect class="cls-6" x="225.78" y="364.81" width="18.52" height="3.91" transform="translate(-142.04 148.66) rotate(-27.3)"/><rect class="cls-4" x="99.32" y="386.32" width="18.52" height="3.91" transform="translate(-205.04 134.92) rotate(-35.44)"/><rect class="cls-4" x="154.04" y="357.05" width="3.91" height="18.52" transform="translate(-242.01 355.7) rotate(-65.41)"/><rect class="cls-7" x="67.46" y="309.31" width="18.52" height="3.91" transform="translate(-65.2 23.81) rotate(-12.43)"/><rect class="cls-5" x="126.99" y="300.32" width="3.91" height="18.52" transform="translate(-175.01 167.87) rotate(-42.39)"/><rect class="cls-5" x="303.17" y="366.74" width="18.52" height="3.91" transform="translate(-154.7 244.83) rotate(-34.87)"/><rect class="cls-5" x="208.35" y="379.14" width="3.91" height="18.52" transform="translate(-192.2 206.54) rotate(-37.25)"/><rect class="cls-6" x="167.96" y="420.09" width="18.52" height="3.91" transform="translate(-217.6 190.42) rotate(-36.82)"/><rect class="cls-6" x="111.04" y="341.83" width="18.52" height="3.91" transform="translate(-235.45 265.69) rotate(-58.33)"/><rect class="cls-6" x="44.91" y="270.61" width="18.52" height="3.91" transform="translate(-177.9 119.69) rotate(-45.38)"/><rect class="cls-7" x="345.7" y="366.74" width="33.65" height="3.91" transform="translate(-144.13 472) rotate(-57.01)"/><rect class="cls-7" x="312.44" y="410.7" width="3.91" height="33.65" transform="matrix(0.84, -0.55, 0.55, 0.84, -183.02, 242.58)"/><rect class="cls-4" x="246.17" y="376.01" width="33.65" height="3.91" transform="translate(-192.73 443.82) rotate(-63.39)"/><rect class="cls-4" x="221.65" y="426.61" width="3.91" height="33.65" transform="translate(-255.23 575.18) rotate(-78.62)"/><rect class="cls-7" x="170" y="332.18" width="3.91" height="33.65" transform="translate(-198.17 229.08) rotate(-45.82)"/><rect class="cls-5" x="115.74" y="412.53" width="33.65" height="3.91" transform="translate(-255.08 216.75) rotate(-45.24)"/><rect class="cls-4" x="87.57" y="268.79" width="33.65" height="3.91" transform="translate(-176.52 198.01) rotate(-54.4)"/><rect class="cls-5" x="63.04" y="319.4" width="3.91" height="33.65" transform="translate(-167.57 84.86) rotate(-31.83)"/></g></g></svg>