<svg xmlns="http://www.w3.org/2000/svg" viewBox="0 0 478.96 478.96"><defs><style>.cls-1{fill:#ffdec2;}.cls-2{fill:#f98ff9;}.cls-3{fill:#e54e4e;}.cls-4{fill:#ededed;}.cls-5{fill:lime;}.cls-6{fill:#ff0;}</style></defs><title>perPiece3Asset 4</title><g id="Layer_2" data-name="Layer 2"><g id="Layer_1-2" data-name="Layer 1"><path class="cls-1" d="M239.48,0C107.22,0,0,107.22,0,239.48S107.22,479,239.48,479,479,371.74,479,239.48,371.74,0,239.48,0Zm0,339.66A100.18,100.18,0,1,1,339.65,239.48,100.18,100.18,0,0,1,239.48,339.66Z"/><path class="cls-2" d="M457.85,174.56a118.09,118.09,0,0,0-19.12-40.75L401.3,82.64A113.7,113.7,0,0,0,353.5,44.8L292.07,19.12a110.08,110.08,0,0,0-63.87-6.47l-55.37,11A111.85,111.85,0,0,0,118.7,51.21L64,101.68A117.13,117.13,0,0,0,30,158.81l-17.88,70a58,58,0,0,0-1.8,13.26A211.19,211.19,0,0,0,36.05,348.25c28.72,52.24,71.46,76.3,87.26,84.92,5.17,2.82,115.2,60.48,221.48,3.52,0,0,65.81-35.28,107.21-122.48,10.14-21.35,15.58-46.32,16.05-48.52,4.37-20.53,4.62-40.48.79-47.65ZM325.61,304.82c-25.31,32.61-75.65,48.56-119,36.78-8.69-2.36-41.78-11.36-61.44-44.22-15.72-26.26-13.76-52.58-12.66-61.72q3.45-18.12,6.91-36.23A64.13,64.13,0,0,1,166,158.5l12.16-8.35a85.89,85.89,0,0,1,42.21-14.91L245,133.39a88.28,88.28,0,0,1,54.21,13.75l10.11,6.47A93,93,0,0,1,350,213.28q1.13,5.43,2.24,10.87C353.61,233.21,348.52,275.31,325.61,304.82Z"/><rect class="cls-3" x="41.74" y="197.48" width="3.91" height="33.65" transform="translate(-136.14 89.83) rotate(-43.79)"/><rect class="cls-4" x="81.13" y="139.57" width="3.91" height="18.52" transform="translate(-68.34 70.58) rotate(-33.5)"/><rect class="cls-5" x="94.17" y="195.01" width="18.52" height="3.91" transform="translate(-118.99 201.51) rotate(-63.46)"/><rect class="cls-3" x="101.17" y="150.72" width="18.52" height="3.91" transform="translate(-77.91 146.9) rotate(-52.36)"/><rect class="cls-6" x="69.51" y="178.23" width="3.91" height="18.52" transform="translate(-123.89 233.28) rotate(-82.33)"/><rect class="cls-5" x="188.04" y="45.8" width="18.52" height="3.91" transform="translate(39.01 174.84) rotate(-52.36)"/><rect class="cls-3" x="156.38" y="73.31" width="3.91" height="18.52" transform="matrix(0.13, -0.99, 0.99, 0.13, 55.36, 228.46)"/><rect class="cls-5" x="97.73" y="90.51" width="18.52" height="3.91" transform="translate(-30.06 57.63) rotate(-26.58)"/><rect class="cls-6" x="253.85" y="64.94" width="18.52" height="3.91" transform="translate(184.07 326.61) rotate(-87.34)"/><rect class="cls-5" x="241.87" y="115.81" width="18.52" height="3.91" transform="translate(-26.04 128.3) rotate(-27.3)"/><rect class="cls-3" x="368.33" y="94.3" width="18.52" height="3.91" transform="translate(14.15 236.8) rotate(-35.44)"/><rect class="cls-3" x="328.22" y="108.96" width="3.91" height="18.52" transform="translate(85.27 369.24) rotate(-65.41)"/><rect class="cls-6" x="400.2" y="171.31" width="18.52" height="3.91" transform="translate(-27.7 92.19) rotate(-12.43)"/><rect class="cls-4" x="355.27" y="165.69" width="3.91" height="18.52" transform="translate(-24.55 286.58) rotate(-42.39)"/><rect class="cls-4" x="164.48" y="113.88" width="18.52" height="3.91" transform="translate(-35.03 120.13) rotate(-34.87)"/><rect class="cls-4" x="273.91" y="86.88" width="3.91" height="18.52" transform="translate(-1.91 186.6) rotate(-37.25)"/><rect class="cls-5" x="299.7" y="60.53" width="18.52" height="3.91" transform="translate(24.19 197.64) rotate(-36.82)"/><rect class="cls-5" x="356.61" y="138.79" width="18.52" height="3.91" transform="translate(54 378.25) rotate(-58.33)"/><rect class="cls-5" x="422.74" y="210.01" width="18.52" height="3.91" transform="translate(-22.3 370.6) rotate(-45.38)"/><rect class="cls-6" x="106.83" y="113.88" width="33.65" height="3.91" transform="translate(-40.83 156.47) rotate(-57.01)"/><rect class="cls-6" x="169.83" y="40.18" width="3.91" height="33.65" transform="translate(-3.11 103.59) rotate(-33.27)"/><rect class="cls-3" x="206.35" y="104.61" width="33.65" height="3.91" transform="translate(27.93 258.37) rotate(-63.39)"/><rect class="cls-3" x="260.61" y="24.27" width="3.91" height="33.65" transform="translate(170.49 290.39) rotate(-78.62)"/><rect class="cls-6" x="312.26" y="118.7" width="3.91" height="33.65" transform="translate(-1.97 266.4) rotate(-45.82)"/><rect class="cls-4" x="336.78" y="68.09" width="33.65" height="3.91" transform="translate(54.87 271.8) rotate(-45.24)"/><rect class="cls-3" x="364.96" y="211.83" width="33.65" height="3.91" transform="translate(-14.3 399.76) rotate(-54.4)"/><rect class="cls-4" x="419.22" y="131.48" width="3.91" height="33.65" transform="translate(-14.88 244.46) rotate(-31.83)"/><rect class="cls-3" x="430.52" y="243.4" width="3.91" height="33.65" transform="translate(-59.81 371.62) rotate(-43.79)"/><rect class="cls-4" x="391.13" y="316.44" width="3.91" height="18.52" transform="translate(-114.47 271.07) rotate(-33.5)"/><rect class="cls-5" x="363.48" y="275.61" width="18.52" height="3.91" transform="translate(-42.12 487.04) rotate(-63.46)"/><rect class="cls-3" x="356.48" y="319.9" width="18.52" height="3.91" transform="translate(-112.47 414.95) rotate(-52.36)"/><rect class="cls-6" x="402.76" y="277.78" width="3.91" height="18.52" transform="translate(66.21 649.8) rotate(-82.33)"/><rect class="cls-5" x="269.61" y="424.82" width="18.52" height="3.91" transform="translate(-229.39 387.01) rotate(-52.36)"/><rect class="cls-3" x="315.89" y="382.7" width="3.91" height="18.52" transform="translate(-113.05 654.63) rotate(-82.33)"/><rect class="cls-5" x="359.93" y="380.11" width="18.52" height="3.91" transform="translate(-131.92 205.54) rotate(-26.58)"/><rect class="cls-6" x="203.8" y="405.68" width="18.52" height="3.91" transform="translate(-204.03 601.54) rotate(-87.34)"/><rect class="cls-5" x="215.78" y="354.81" width="18.52" height="3.91" transform="translate(-138.57 142.96) rotate(-27.3)"/><rect class="cls-3" x="89.32" y="376.32" width="18.52" height="3.91" transform="translate(-201.09 127.26) rotate(-35.44)"/><rect class="cls-3" x="144.04" y="347.05" width="3.91" height="18.52" transform="translate(-238.75 340.77) rotate(-65.41)"/><rect class="cls-6" x="57.46" y="299.31" width="18.52" height="3.91" transform="translate(-63.28 21.42) rotate(-12.43)"/><rect class="cls-4" x="116.99" y="290.32" width="3.91" height="18.52" transform="translate(-170.88 158.52) rotate(-42.39)"/><rect class="cls-4" x="293.17" y="356.74" width="18.52" height="3.91" transform="translate(-150.78 237.32) rotate(-34.87)"/><rect class="cls-4" x="198.35" y="369.14" width="3.91" height="18.52" transform="translate(-188.19 198.45) rotate(-37.25)"/><rect class="cls-5" x="157.96" y="410.09" width="18.52" height="3.91" transform="translate(-213.6 182.43) rotate(-36.82)"/><rect class="cls-5" x="101.04" y="331.83" width="18.52" height="3.91" transform="translate(-231.69 252.43) rotate(-58.33)"/><rect class="cls-5" x="34.91" y="260.61" width="18.52" height="3.91" transform="translate(-173.76 109.6) rotate(-45.38)"/><rect class="cls-6" x="335.7" y="356.74" width="33.65" height="3.91" transform="translate(-140.29 459.06) rotate(-57.01)"/><rect class="cls-6" x="302.44" y="400.7" width="3.91" height="33.65" transform="translate(-179.17 235.45) rotate(-33.27)"/><rect class="cls-3" x="236.17" y="366.01" width="33.65" height="3.91" transform="translate(-189.31 429.35) rotate(-63.39)"/><rect class="cls-3" x="211.65" y="416.61" width="3.91" height="33.65" transform="translate(-253.45 557.35) rotate(-78.62)"/><rect class="cls-6" x="160" y="322.18" width="3.91" height="33.65" transform="translate(-194.03 218.88) rotate(-45.82)"/><rect class="cls-4" x="105.74" y="402.53" width="33.65" height="3.91" transform="translate(-250.94 206.69) rotate(-45.24)"/><rect class="cls-3" x="77.57" y="258.79" width="33.65" height="3.91" transform="translate(-172.57 185.71) rotate(-54.4)"/><rect class="cls-4" x="53.04" y="309.4" width="3.91" height="33.65" transform="translate(-163.79 78.08) rotate(-31.83)"/></g></g></svg>