<svg width="30" height="30" viewBox="0 0 30 30" fill="none" xmlns="http://www.w3.org/2000/svg">
<path opacity="0.12" d="M14.3624 24.978C20.2252 24.978 24.978 20.2252 24.978 14.3624C24.978 8.4995 20.2252 3.7467 14.3624 3.7467C8.49949 3.7467 3.7467 8.4995 3.7467 14.3624C3.7467 20.2252 8.49949 24.978 14.3624 24.978Z" fill="#D4145A"/>
<path fill-rule="evenodd" clip-rule="evenodd" d="M14.3624 5.41341C9.41997 5.41341 5.41337 9.42001 5.41337 14.3624C5.41337 19.3048 9.41997 23.3114 14.3624 23.3114C16.7517 23.3114 18.9223 22.375 20.5273 20.8492C20.5727 20.7894 20.6228 20.7319 20.6774 20.6773C20.732 20.6227 20.7894 20.5727 20.8492 20.5272C22.375 18.9223 23.3113 16.7517 23.3113 14.3624C23.3113 9.42001 19.3048 5.41341 14.3624 5.41341ZM24.146 21.7889C25.714 19.7264 26.6447 17.1531 26.6447 14.3624C26.6447 7.57906 21.1457 2.08008 14.3624 2.08008C7.57902 2.08008 2.08004 7.57906 2.08004 14.3624C2.08004 21.1457 7.57902 26.6447 14.3624 26.6447C17.1531 26.6447 19.7265 25.714 21.789 24.1459L25.0484 27.4055C25.6993 28.0563 26.7545 28.0564 27.4054 27.4055C28.0563 26.7546 28.0563 25.6993 27.4054 25.0485L24.146 21.7889Z" fill="#D4145A"/>
</svg>
