<svg width="26" height="26" viewBox="0 0 26 26" fill="none" xmlns="http://www.w3.org/2000/svg">
<path fill-rule="evenodd" clip-rule="evenodd" d="M12.3624 3.41341C7.41997 3.41341 3.41337 7.42001 3.41337 12.3624C3.41337 17.3048 7.41997 21.3114 12.3624 21.3114C14.7517 21.3114 16.9223 20.375 18.5273 18.8492C18.5727 18.7894 18.6228 18.7319 18.6774 18.6773C18.732 18.6227 18.7894 18.5727 18.8492 18.5272C20.375 16.9223 21.3113 14.7517 21.3113 12.3624C21.3113 7.42001 17.3047 3.41341 12.3624 3.41341ZM22.146 19.7889C23.714 17.7264 24.6447 15.1531 24.6447 12.3624C24.6447 5.57906 19.1457 0.0800781 12.3624 0.0800781C5.57902 0.0800781 0.0800352 5.57906 0.0800352 12.3624C0.0800352 19.1457 5.57902 24.6447 12.3624 24.6447C15.1531 24.6447 17.7265 23.714 19.789 22.1459L23.0484 25.4055C23.6993 26.0563 24.7545 26.0564 25.4054 25.4055C26.0563 24.7546 26.0563 23.6993 25.4054 23.0485L22.146 19.7889Z" fill="#FF7272"/>
</svg>
