<svg xmlns="http://www.w3.org/2000/svg" viewBox="0 0 481.96 481.96"><defs><style>.cls-1{fill:#ffdec2;stroke:#a67c52;stroke-miterlimit:10;stroke-width:3px;}.cls-2{fill:#f98ff9;}.cls-3{fill:red;}.cls-4{fill:#fff;}.cls-5{fill:lime;}.cls-6{fill:#ff0;}</style></defs><title>perPieceAsset 2</title><g id="Layer_2" data-name="Layer 2"><g id="Layer_1-2" data-name="Layer 1"><path class="cls-1" d="M241,1.5C108.72,1.5,1.5,108.72,1.5,241S108.72,480.46,241,480.46,480.46,373.24,480.46,241,373.24,1.5,241,1.5Zm0,339.66A100.18,100.18,0,1,1,341.15,241,100.18,100.18,0,0,1,241,341.16Z"/><path class="cls-2" d="M459.35,176.06a118.09,118.09,0,0,0-19.12-40.75L402.8,84.14A113.7,113.7,0,0,0,355,46.3L293.57,20.62a110.08,110.08,0,0,0-63.87-6.47l-55.37,11A111.85,111.85,0,0,0,120.2,52.71L65.46,103.18a117.13,117.13,0,0,0-33.94,57.13l-17.88,70a58,58,0,0,0-1.8,13.26A211.19,211.19,0,0,0,37.55,349.75C66.27,402,109,426.05,124.81,434.67c5.17,2.82,115.2,60.48,221.48,3.52,0,0,65.81-35.28,107.21-122.48,10.14-21.35,15.58-46.32,16.05-48.52,4.37-20.53,4.62-40.48.79-47.65ZM327.11,306.32c-25.31,32.61-75.65,48.56-119,36.78-8.69-2.36-41.78-11.36-61.44-44.22C131,272.62,133,246.3,134.06,237.16Q137.51,219,141,200.93A64.13,64.13,0,0,1,167.49,160l12.16-8.35a85.89,85.89,0,0,1,42.21-14.91l24.65-1.85a88.28,88.28,0,0,1,54.21,13.75l10.11,6.47a93,93,0,0,1,40.66,59.67q1.13,5.43,2.24,10.87C355.11,234.71,350,276.81,327.11,306.32Z"/><rect class="cls-3" x="43.24" y="198.98" width="3.91" height="33.65" transform="translate(-136.76 91.28) rotate(-43.79)"/><rect class="cls-4" x="82.63" y="141.07" width="3.91" height="18.52" transform="translate(-68.92 71.66) rotate(-33.5)"/><rect class="cls-5" x="95.67" y="196.51" width="18.52" height="3.91" transform="translate(-119.5 203.68) rotate(-63.46)"/><rect class="cls-3" x="102.67" y="152.22" width="18.52" height="3.91" transform="translate(-78.51 148.67) rotate(-52.36)"/><rect class="cls-6" x="71.01" y="179.73" width="3.91" height="18.52" transform="translate(-124.08 236.07) rotate(-82.33)"/><rect class="cls-5" x="189.54" y="47.3" width="18.52" height="3.91" transform="translate(38.4 176.61) rotate(-52.36)"/><rect class="cls-3" x="157.88" y="74.81" width="3.91" height="18.52" transform="matrix(0.13, -0.99, 0.99, 0.13, 55.18, 231.25)"/><rect class="cls-5" x="99.23" y="92.01" width="18.52" height="3.91" transform="translate(-30.58 58.46) rotate(-26.58)"/><rect class="cls-6" x="255.35" y="66.44" width="18.52" height="3.91" transform="translate(184 329.54) rotate(-87.34)"/><rect class="cls-5" x="243.37" y="117.31" width="18.52" height="3.91" transform="translate(-26.56 129.16) rotate(-27.3)"/><rect class="cls-3" x="369.83" y="95.8" width="18.52" height="3.91" transform="translate(13.56 237.95) rotate(-35.44)"/><rect class="cls-3" x="329.72" y="110.46" width="3.91" height="18.52" transform="translate(84.78 371.48) rotate(-65.41)"/><rect class="cls-6" x="401.7" y="172.81" width="18.52" height="3.91" transform="translate(-27.98 92.55) rotate(-12.43)"/><rect class="cls-4" x="356.77" y="167.19" width="3.91" height="18.52" transform="translate(-25.17 287.99) rotate(-42.39)"/><rect class="cls-4" x="165.98" y="115.38" width="18.52" height="3.91" transform="translate(-35.62 121.26) rotate(-34.87)"/><rect class="cls-4" x="275.41" y="88.38" width="3.91" height="18.52" transform="translate(-2.51 187.82) rotate(-37.25)"/><rect class="cls-5" x="301.2" y="62.03" width="18.52" height="3.91" transform="translate(23.59 198.83) rotate(-36.82)"/><rect class="cls-5" x="358.11" y="140.29" width="18.52" height="3.91" transform="translate(53.44 380.24) rotate(-58.33)"/><rect class="cls-5" x="424.24" y="211.51" width="18.52" height="3.91" transform="translate(-22.92 372.12) rotate(-45.38)"/><rect class="cls-6" x="108.33" y="115.38" width="33.65" height="3.91" transform="translate(-41.41 158.41) rotate(-57.01)"/><rect class="cls-6" x="171.33" y="41.68" width="3.91" height="33.65" transform="translate(-3.69 104.66) rotate(-33.27)"/><rect class="cls-3" x="207.85" y="106.11" width="33.65" height="3.91" transform="translate(27.42 260.54) rotate(-63.39)"/><rect class="cls-3" x="262.11" y="25.77" width="3.91" height="33.65" transform="translate(170.22 293.07) rotate(-78.62)"/><rect class="cls-6" x="313.76" y="120.2" width="3.91" height="33.65" transform="translate(-2.59 267.93) rotate(-45.82)"/><rect class="cls-4" x="338.28" y="69.59" width="33.65" height="3.91" transform="translate(54.25 273.31) rotate(-45.24)"/><rect class="cls-3" x="366.46" y="213.33" width="33.65" height="3.91" transform="translate(-14.89 401.61) rotate(-54.4)"/><rect class="cls-4" x="420.72" y="132.98" width="3.91" height="33.65" transform="translate(-15.44 245.47) rotate(-31.83)"/><rect class="cls-3" x="432.02" y="244.9" width="3.91" height="33.65" transform="translate(-60.43 373.08) rotate(-43.79)"/><rect class="cls-4" x="392.63" y="317.94" width="3.91" height="18.52" transform="translate(-115.05 272.15) rotate(-33.5)"/><rect class="cls-5" x="364.98" y="277.11" width="18.52" height="3.91" transform="translate(-42.63 489.21) rotate(-63.46)"/><rect class="cls-3" x="357.98" y="321.4" width="18.52" height="3.91" transform="translate(-113.08 416.72) rotate(-52.36)"/><rect class="cls-6" x="404.26" y="279.28" width="3.91" height="18.52" transform="translate(66.02 652.59) rotate(-82.33)"/><rect class="cls-5" x="271.11" y="426.32" width="18.52" height="3.91" transform="translate(-229.99 388.79) rotate(-52.36)"/><rect class="cls-3" x="317.39" y="384.2" width="3.91" height="18.52" transform="translate(-113.24 657.41) rotate(-82.33)"/><rect class="cls-5" x="361.43" y="381.61" width="18.52" height="3.91" transform="translate(-132.44 206.37) rotate(-26.58)"/><rect class="cls-6" x="205.3" y="407.18" width="18.52" height="3.91" transform="translate(-204.1 604.47) rotate(-87.34)"/><rect class="cls-5" x="217.28" y="356.31" width="18.52" height="3.91" transform="translate(-139.09 143.81) rotate(-27.3)"/><rect class="cls-3" x="90.82" y="377.82" width="18.52" height="3.91" transform="translate(-201.69 128.41) rotate(-35.44)"/><rect class="cls-3" x="145.54" y="348.55" width="3.91" height="18.52" transform="translate(-239.24 343.01) rotate(-65.41)"/><rect class="cls-6" x="58.96" y="300.81" width="18.52" height="3.91" transform="translate(-63.57 21.78) rotate(-12.43)"/><rect class="cls-4" x="118.49" y="291.82" width="3.91" height="18.52" transform="translate(-171.5 159.92) rotate(-42.39)"/><rect class="cls-4" x="294.67" y="358.24" width="18.52" height="3.91" transform="translate(-151.36 238.44) rotate(-34.87)"/><rect class="cls-4" x="199.85" y="370.64" width="3.91" height="18.52" transform="translate(-188.79 199.66) rotate(-37.25)"/><rect class="cls-5" x="159.46" y="411.59" width="18.52" height="3.91" transform="translate(-214.2 183.62) rotate(-36.82)"/><rect class="cls-5" x="102.54" y="333.33" width="18.52" height="3.91" transform="translate(-232.26 254.42) rotate(-58.33)"/><rect class="cls-5" x="36.41" y="262.11" width="18.52" height="3.91" transform="translate(-174.38 111.11) rotate(-45.38)"/><rect class="cls-6" x="337.2" y="358.24" width="33.65" height="3.91" transform="translate(-140.87 461) rotate(-57.01)"/><rect class="cls-6" x="303.94" y="402.2" width="3.91" height="33.65" transform="translate(-179.75 236.52) rotate(-33.27)"/><rect class="cls-3" x="237.67" y="367.51" width="33.65" height="3.91" transform="translate(-189.82 431.52) rotate(-63.39)"/><rect class="cls-3" x="213.15" y="418.11" width="3.91" height="33.65" transform="translate(-253.72 560.02) rotate(-78.62)"/><rect class="cls-6" x="161.5" y="323.68" width="3.91" height="33.65" transform="translate(-194.65 220.41) rotate(-45.82)"/><rect class="cls-4" x="107.24" y="404.03" width="33.65" height="3.91" transform="translate(-251.56 208.2) rotate(-45.24)"/><rect class="cls-3" x="79.07" y="260.29" width="33.65" height="3.91" transform="translate(-173.16 187.55) rotate(-54.4)"/><rect class="cls-4" x="54.54" y="310.9" width="3.91" height="33.65" transform="translate(-164.36 79.1) rotate(-31.83)"/></g></g></svg>