<svg xmlns="http://www.w3.org/2000/svg" viewBox="0 0 508.96 508.96"><defs><style>.cls-1{fill:#ffdec2;}.cls-2{fill:#d4145a;}.cls-3{fill:#f98ff9;}.cls-4{fill:red;}.cls-5{fill:#fff;}.cls-6{fill:lime;}.cls-7{fill:#ff0;}</style></defs><title>spinnerAsset 10</title><g id="Layer_2" data-name="Layer 2"><g id="Layer_1-2" data-name="Layer 1"><path class="cls-1" d="M254.48,501.46A247,247,0,0,1,79.84,79.84,247,247,0,1,1,429.12,429.12,245.36,245.36,0,0,1,254.48,501.46Zm0-339.65a92.68,92.68,0,1,0,92.67,92.67A92.78,92.78,0,0,0,254.48,161.81Z"/><path class="cls-2" d="M254.48,15C386.74,15,494,122.22,494,254.48S386.74,494,254.48,494,15,386.74,15,254.48,122.22,15,254.48,15m0,339.66A100.18,100.18,0,1,0,154.3,254.48,100.18,100.18,0,0,0,254.48,354.66M254.48,0a254.55,254.55,0,0,0-99.06,489A254.55,254.55,0,0,0,353.54,20,253,253,0,0,0,254.48,0Zm0,339.66a85.18,85.18,0,1,1,85.17-85.18,85.27,85.27,0,0,1-85.17,85.18Z"/><path class="cls-3" d="M472.85,189.56a118.09,118.09,0,0,0-19.12-40.75L416.3,97.64A113.7,113.7,0,0,0,368.5,59.8L307.07,34.12a110.08,110.08,0,0,0-63.87-6.47l-55.37,11A111.85,111.85,0,0,0,133.7,66.21L79,116.68A117.13,117.13,0,0,0,45,173.81l-17.88,70a58,58,0,0,0-1.8,13.26A211.19,211.19,0,0,0,51.05,363.25c28.72,52.24,71.46,76.3,87.26,84.92,5.17,2.82,115.2,60.48,221.48,3.52,0,0,65.81-35.28,107.21-122.48,10.14-21.35,15.58-46.32,16.05-48.52,4.37-20.53,4.62-40.48.79-47.65ZM340.61,319.82c-25.31,32.61-75.65,48.56-119,36.78-8.69-2.36-41.78-11.36-61.44-44.22-15.72-26.26-13.76-52.58-12.66-61.72q3.45-18.12,6.91-36.23A64.13,64.13,0,0,1,181,173.5l12.16-8.35a85.89,85.89,0,0,1,42.21-14.91L260,148.39a88.28,88.28,0,0,1,54.21,13.75l10.11,6.47A93,93,0,0,1,365,228.28q1.13,5.43,2.24,10.87C368.61,248.21,363.52,290.31,340.61,319.82Z"/><rect class="cls-4" x="67.01" y="272.49" width="5.98" height="51.42" transform="translate(-236.31 297.51) rotate(-76.66)"/><rect class="cls-5" x="104.53" y="166.76" width="7.86" height="37.22" transform="translate(-84.3 90.66) rotate(-33.5)"/><rect class="cls-6" x="100.55" y="246.56" width="43.42" height="9.17" transform="translate(-157.05 248.32) rotate(-63.46)"/><rect class="cls-7" x="68.75" y="206.16" width="9.78" height="46.29" transform="translate(-163.45 271.67) rotate(-82.33)"/><rect class="cls-4" x="440.35" y="224.73" width="6.14" height="52.84" transform="translate(-66.15 257.07) rotate(-30.19)"/><rect class="cls-5" x="374.75" y="339.55" width="8.84" height="41.83" transform="translate(-135.97 269.17) rotate(-33.5)"/><rect class="cls-6" x="371.04" y="280.13" width="44.61" height="9.42" transform="translate(-37.22 509.49) rotate(-63.46)"/><rect class="cls-7" x="409.2" y="314.2" width="43.83" height="9.26" transform="matrix(0.97, -0.25, 0.25, 0.97, -66.64, 119.44)"/><rect class="cls-4" x="170.92" y="377.36" width="51.42" height="5.98" transform="translate(-94.27 66.18) rotate(-15.46)"/><rect class="cls-5" x="88.49" y="343.86" width="37.22" height="7.86" transform="translate(-30.93 11.08) rotate(-5.18)"/><rect class="cls-6" x="178.97" y="405.23" width="9.17" height="43.42" transform="translate(-212.27 183.44) rotate(-35.14)"/><rect class="cls-7" x="106.11" y="394.4" width="46.29" height="9.78" transform="translate(-269.75 269.17) rotate(-54)"/><rect class="cls-4" x="297.52" y="81.08" width="52.84" height="6.14" transform="translate(-2.57 10.6) rotate(-1.87)"/><rect class="cls-5" x="368.77" y="188.16" width="41.83" height="8.84" transform="translate(-15.78 35.93) rotate(-5.18)"/><rect class="cls-6" x="325.13" y="121.91" width="9.42" height="44.61" transform="translate(-22.89 216.12) rotate(-35.14)"/><rect class="cls-7" x="355.76" y="122.47" width="43.83" height="9.26" transform="translate(164.91 464.04) rotate(-76.33)"/><rect class="cls-4" x="353.67" y="376.5" width="5.98" height="51.42" transform="translate(-70.79 728.21) rotate(-85.77)"/><rect class="cls-5" x="221.44" y="423" width="37.22" height="7.86" transform="translate(-248.76 457.99) rotate(-64.29)"/><rect class="cls-6" x="267.78" y="376.82" width="43.42" height="9.17" transform="translate(-27.48 22.51) rotate(-4.25)"/><rect class="cls-7" x="290.73" y="411.21" width="9.78" height="46.29" transform="translate(-146.78 150.92) rotate(-23.11)"/><rect class="cls-4" x="146.17" y="145.08" width="52.84" height="6.14" transform="translate(-40.68 227.2) rotate(-60.98)"/><rect class="cls-5" x="230.99" y="100.33" width="41.83" height="8.84" transform="translate(48.25 286.27) rotate(-64.29)"/><rect class="cls-6" x="111.99" y="112.2" width="44.61" height="9.42" transform="translate(-8.3 10.28) rotate(-4.25)"/><rect class="cls-7" x="184.92" y="59.52" width="9.26" height="43.83" transform="translate(-1.47 159.36) rotate(-45.44)"/></g></g></svg>