<svg xmlns="http://www.w3.org/2000/svg" viewBox="0 0 634.13 720.02"><defs><style>.cls-1{isolation:isolate;}.cls-2{fill:#ffdec2;}.cls-20,.cls-3{fill:#d4145a;}.cls-4{fill:#f98ff9;}.cls-5{fill:red;}.cls-6{fill:#fff;}.cls-7{fill:lime;}.cls-8{fill:#ff0;}.cls-9{mix-blend-mode:multiply;}.cls-10,.cls-20{font-size:48px;font-family:Pacifico-Regular, Pacifico;}.cls-10{fill:#3a3a3a;}.cls-11{letter-spacing:0.05em;}.cls-12{letter-spacing:-0.09em;}.cls-13{letter-spacing:0.01em;}.cls-14{letter-spacing:0em;}.cls-15{letter-spacing:-0.03em;}.cls-16{letter-spacing:-0.09em;}.cls-17,.cls-18,.cls-19,.cls-21,.cls-22,.cls-23{font-size:36px;}.cls-17,.cls-21{letter-spacing:-0.02em;}.cls-18,.cls-22{letter-spacing:0em;}.cls-19,.cls-23{letter-spacing:0em;}.cls-21,.cls-22,.cls-23{fill:#ffa1c7;}.cls-24{fill:#f95353;}</style></defs><title>toReceiveAsset 4</title><g class="cls-1"><g id="Layer_2" data-name="Layer 2"><g id="Layer_1-2" data-name="Layer 1"><path class="cls-2" d="M154.52,604.85C72.08,604.85,5,537.78,5,455.33S72.08,305.8,154.52,305.8s149.53,67.08,149.53,149.53S237,604.85,154.52,604.85Zm0-205A55.46,55.46,0,1,0,210,455.33,55.51,55.51,0,0,0,154.52,399.88Z"/><path class="cls-3" d="M154.52,310.8A144.53,144.53,0,1,1,10,455.33,144.53,144.53,0,0,1,154.52,310.8m0,205a60.46,60.46,0,1,0-60.45-60.46,60.46,60.46,0,0,0,60.45,60.46m0-215a154.53,154.53,0,1,0,109.27,45.26A153.54,153.54,0,0,0,154.52,300.8Zm0,205A50.46,50.46,0,1,1,205,455.33a50.51,50.51,0,0,1-50.46,50.46Z"/><path class="cls-4" d="M286.31,416.15a71.27,71.27,0,0,0-11.54-24.59l-22.59-30.88a68.56,68.56,0,0,0-28.85-22.84l-37.07-15.49a66.37,66.37,0,0,0-38.54-3.91l-33.42,6.61a67.53,67.53,0,0,0-32.67,16.66l-33,30.46a70.63,70.63,0,0,0-20.48,34.48l-10.8,42.24a35.09,35.09,0,0,0-1.08,8A127.52,127.52,0,0,0,31.75,521c17.34,31.53,43.13,46,52.67,51.25,3.12,1.7,69.52,36.5,133.66,2.13,0,0,39.71-21.29,64.7-73.92,6.12-12.88,9.4-27.95,9.68-29.28,2.64-12.39,2.79-24.43.48-28.76ZM206.5,494.76c-15.27,19.68-45.65,29.31-71.78,22.2-5.25-1.42-25.22-6.86-37.08-26.69C88.15,474.43,89.33,458.54,90,453l4.17-21.87a38.7,38.7,0,0,1,16-24.7l7.34-5a51.94,51.94,0,0,1,25.47-9l14.88-1.11a53.22,53.22,0,0,1,32.72,8.3l6.1,3.9a56.11,56.11,0,0,1,24.54,36l1.35,6.56C223.4,451.55,220.33,477,206.5,494.76Z"/><rect class="cls-5" x="35.19" y="429.98" width="2.36" height="20.31" transform="translate(-294.45 147.56) rotate(-43.79)"/><rect class="cls-6" x="58.96" y="395.03" width="2.36" height="11.18" transform="translate(-211.13 99.75) rotate(-33.5)"/><rect class="cls-7" x="66.83" y="428.49" width="11.18" height="2.36" transform="translate(-344.34 302.5) rotate(-63.46)"/><rect class="cls-5" x="71.06" y="401.76" width="11.18" height="2.36" transform="matrix(0.61, -0.79, 0.79, 0.61, -289.25, 217.59)"/><rect class="cls-8" x="51.95" y="418.37" width="2.36" height="11.18" transform="matrix(0.13, -0.99, 0.99, 0.13, -374.13, 420)"/><rect class="cls-7" x="123.48" y="338.44" width="11.18" height="2.36" transform="translate(-218.7 234.45) rotate(-52.36)"/><rect class="cls-5" x="104.37" y="355.05" width="2.36" height="11.18" transform="matrix(0.13, -0.99, 0.99, 0.13, -265.95, 417.09)"/><rect class="cls-7" x="68.98" y="365.43" width="11.18" height="2.36" transform="translate(-156.14 72.1) rotate(-26.58)"/><rect class="cls-8" x="163.2" y="349.99" width="11.18" height="2.36" transform="translate(-189.85 503.47) rotate(-87.34)"/><rect class="cls-7" x="155.97" y="380.69" width="11.18" height="2.36" transform="translate(-157.15 116.64) rotate(-27.3)"/><rect class="cls-5" x="232.29" y="367.71" width="11.18" height="2.36" transform="translate(-169.84 206.3) rotate(-35.44)"/><rect class="cls-5" x="208.08" y="376.56" width="2.36" height="11.18" transform="translate(-225.31 413.38) rotate(-65.41)"/><rect class="cls-8" x="251.52" y="414.19" width="11.18" height="2.36" transform="translate(-83.37 65.07) rotate(-12.43)"/><rect class="cls-6" x="224.4" y="410.8" width="2.36" height="11.18" transform="translate(-221.75 260.95) rotate(-42.39)"/><rect class="cls-6" x="109.26" y="379.53" width="11.18" height="2.36" transform="translate(-197.04 134.02) rotate(-34.87)"/><rect class="cls-6" x="175.3" y="363.23" width="2.36" height="11.18" transform="translate(-187.25 182.08) rotate(-37.25)"/><rect class="cls-7" x="190.86" y="347.33" width="11.18" height="2.36" transform="translate(-169.68 187.27) rotate(-36.82)"/><rect class="cls-7" x="225.21" y="394.56" width="11.18" height="2.36" transform="matrix(0.52, -0.85, 0.85, 0.52, -227.19, 384.42)"/><rect class="cls-7" x="265.12" y="437.54" width="11.18" height="2.36" transform="translate(-231.72 323.29) rotate(-45.38)"/><rect class="cls-8" x="74.47" y="379.53" width="20.31" height="2.36" transform="translate(-280.77 244.38) rotate(-57.01)"/><rect class="cls-8" x="112.49" y="335.05" width="2.36" height="20.31" transform="translate(-170.76 118.96) rotate(-33.27)"/><rect class="cls-5" x="134.53" y="373.94" width="20.31" height="2.36" transform="translate(-255.51 336.46) rotate(-63.39)"/><rect class="cls-5" x="167.28" y="325.45" width="2.36" height="20.31" transform="translate(-193.78 434.55) rotate(-78.62)"/><rect class="cls-8" x="198.45" y="382.44" width="2.36" height="20.31" transform="translate(-221.04 262.13) rotate(-45.82)"/><rect class="cls-6" x="213.25" y="351.9" width="20.31" height="2.36" transform="translate(-184.61 263.08) rotate(-45.24)"/><rect class="cls-5" x="230.25" y="438.64" width="20.31" height="2.36" transform="translate(-257.16 379.26) rotate(-54.4)"/><rect class="cls-6" x="263" y="390.15" width="2.36" height="20.31" transform="translate(-171.41 199.55) rotate(-31.83)"/><rect class="cls-5" x="269.82" y="457.69" width="2.36" height="20.31" transform="translate(-248.38 317.62) rotate(-43.79)"/><rect class="cls-6" x="246.05" y="501.78" width="2.36" height="11.18" transform="translate(-238.97 220.74) rotate(-33.5)"/><rect class="cls-7" x="229.36" y="477.14" width="11.18" height="2.36" transform="translate(-297.95 474.82) rotate(-63.46)"/><rect class="cls-5" x="225.13" y="503.86" width="11.18" height="2.36" transform="translate(-310.11 379.36) rotate(-52.36)"/><rect class="cls-8" x="253.06" y="478.44" width="2.36" height="11.18" transform="translate(-259.4 671.37) rotate(-82.33)"/><rect class="cls-7" x="172.71" y="567.18" width="11.18" height="2.36" transform="translate(-380.67 362.49) rotate(-52.36)"/><rect class="cls-5" x="200.63" y="541.76" width="2.36" height="11.18" transform="translate(-367.58 674.28) rotate(-82.33)"/><rect class="cls-7" x="227.21" y="540.2" width="11.18" height="2.36" transform="translate(-217.61 161.36) rotate(-26.58)"/><rect class="cls-8" x="132.99" y="555.63" width="11.18" height="2.36" transform="translate(-424.06 669.38) rotate(-87.34)"/><rect class="cls-7" x="140.22" y="524.93" width="11.18" height="2.36" transform="translate(-225.06 125.48) rotate(-27.3)"/><rect class="cls-5" x="63.9" y="537.91" width="11.18" height="2.36" transform="translate(-299.74 140.2) rotate(-35.44)"/><rect class="cls-5" x="96.93" y="520.25" width="2.36" height="11.18" transform="translate(-420.86 396.2) rotate(-65.41)"/><rect class="cls-8" x="44.67" y="491.44" width="11.18" height="2.36" transform="translate(-104.85 22.36) rotate(-12.43)"/><rect class="cls-6" x="80.6" y="486.01" width="2.36" height="11.18" transform="translate(-310.05 183.67) rotate(-42.39)"/><rect class="cls-6" x="186.93" y="526.1" width="11.18" height="2.36" transform="translate(-266.89 204.74) rotate(-34.87)"/><rect class="cls-6" x="129.7" y="533.58" width="2.36" height="11.18" transform="translate(-299.67 189.23) rotate(-37.25)"/><rect class="cls-7" x="105.33" y="558.29" width="11.18" height="2.36" transform="translate(-313.19 178.09) rotate(-36.82)"/><rect class="cls-7" x="70.98" y="511.06" width="11.18" height="2.36" transform="translate(-399.6 308.49) rotate(-58.33)"/><rect class="cls-7" x="31.07" y="468.08" width="11.18" height="2.36" transform="translate(-323.13 165.77) rotate(-45.38)"/><rect class="cls-8" x="212.59" y="526.1" width="20.31" height="2.36" transform="translate(-340.8 426.99) rotate(-57.01)"/><rect class="cls-8" x="192.52" y="552.63" width="2.36" height="20.31" transform="translate(-277.01 198.54) rotate(-33.27)"/><rect class="cls-5" x="152.53" y="531.69" width="20.31" height="2.36" transform="translate(-386.61 439.65) rotate(-63.39)"/><rect class="cls-5" x="137.73" y="562.23" width="2.36" height="20.31" transform="translate(-449.63 595.65) rotate(-78.62)"/><rect class="cls-8" x="106.56" y="505.24" width="2.36" height="20.31" transform="translate(-336.95 233.45) rotate(-45.82)"/><rect class="cls-6" x="73.81" y="553.73" width="20.31" height="2.36" transform="translate(-369.17 223.78) rotate(-45.24)"/><rect class="cls-5" x="56.81" y="466.98" width="20.31" height="2.36" transform="translate(-352.68 250.08) rotate(-54.4)"/><rect class="cls-6" x="42.01" y="497.52" width="2.36" height="20.31" transform="translate(-261.28 99.15) rotate(-31.83)"/><g class="cls-9"><text class="cls-10" transform="translate(92.53 698.08)"><tspan class="cls-11">“</tspan><tspan class="cls-12" x="24.33" y="0">T</tspan><tspan x="53.47" y="0">o rece</tspan><tspan class="cls-13" x="165.16" y="0">i</tspan><tspan class="cls-14" x="177.45" y="0">v</tspan><tspan class="cls-15" x="199" y="0">e</tspan><tspan class="cls-16" x="217.29" y="0">”</tspan><tspan x="235.05" y="0"> </tspan><tspan class="cls-17" x="247.77" y="0">f</tspan><tspan class="cls-18" x="260.41" y="0">e</tspan><tspan class="cls-19" x="274.37" y="0">ature soon</tspan></text></g><text class="cls-20" transform="translate(92.53 696.08)"><tspan class="cls-11">“</tspan><tspan class="cls-12" x="24.33" y="0">T</tspan><tspan x="53.47" y="0">o rece</tspan><tspan class="cls-13" x="165.16" y="0">i</tspan><tspan class="cls-14" x="177.45" y="0">v</tspan><tspan class="cls-15" x="199" y="0">e</tspan><tspan class="cls-16" x="217.29" y="0">”</tspan><tspan class="cls-6" x="235.05" y="0"> </tspan><tspan class="cls-21" x="247.77" y="0">f</tspan><tspan class="cls-22" x="260.41" y="0">e</tspan><tspan class="cls-23" x="274.37" y="0">ature soon</tspan></text><path class="cls-2" d="M384.65,494A244.48,244.48,0,0,1,211.77,76.61,244.48,244.48,0,1,1,557.52,422.35,242.87,242.87,0,0,1,384.65,494Zm0-339.65a95.18,95.18,0,1,0,95.17,95.17A95.28,95.28,0,0,0,384.65,154.31Z"/><path class="cls-3" d="M384.65,10c132.26,0,239.48,107.22,239.48,239.48S516.91,489,384.65,489,145.17,381.74,145.17,249.48,252.39,10,384.65,10m0,339.66A100.18,100.18,0,1,0,284.47,249.48,100.18,100.18,0,0,0,384.65,349.66M384.65,0a249.54,249.54,0,0,0-97.11,479.35A249.54,249.54,0,0,0,481.76,19.61,248,248,0,0,0,384.65,0Zm0,339.66a90.18,90.18,0,1,1,90.17-90.18,90.28,90.28,0,0,1-90.17,90.18Z"/><path class="cls-24" d="M603,184.56a118.09,118.09,0,0,0-19.12-40.75L546.47,92.64a113.7,113.7,0,0,0-47.8-37.84L437.24,29.12a110.08,110.08,0,0,0-63.87-6.47L318,33.6a111.85,111.85,0,0,0-54.13,27.61l-54.74,50.47a117.13,117.13,0,0,0-33.94,57.13l-17.88,70a58,58,0,0,0-1.8,13.26,211.19,211.19,0,0,0,25.71,106.18c28.72,52.24,71.46,76.3,87.26,84.92,5.17,2.82,115.2,60.48,221.48,3.52,0,0,65.81-35.28,107.21-122.48,10.14-21.35,15.58-46.32,16.05-48.52,4.37-20.53,4.62-40.48.79-47.65ZM470.78,314.82c-25.31,32.61-75.65,48.56-118.95,36.78-8.69-2.36-41.78-11.36-61.44-44.22-15.72-26.26-13.76-52.58-12.66-61.72q3.45-18.12,6.91-36.23a64.13,64.13,0,0,1,26.52-40.93l12.16-8.35a85.89,85.89,0,0,1,42.21-14.91l24.65-1.85a88.28,88.28,0,0,1,54.21,13.75l10.11,6.47a93,93,0,0,1,40.66,59.67q1.13,5.43,2.24,10.87C498.78,243.21,493.69,285.31,470.78,314.82Z"/><rect class="cls-5" x="186.91" y="207.48" width="3.91" height="33.65" transform="translate(-102.7 193.06) rotate(-43.79)"/><rect class="cls-6" x="226.3" y="149.57" width="3.91" height="18.52" transform="translate(-49.75 152.37) rotate(-33.5)"/><rect class="cls-7" x="239.34" y="205.01" width="18.52" height="3.91" transform="translate(-47.62 336.91) rotate(-63.46)"/><rect class="cls-5" x="246.34" y="160.72" width="18.52" height="3.91" transform="translate(-29.31 265.75) rotate(-52.36)"/><rect class="cls-8" x="214.67" y="188.23" width="3.91" height="18.52" transform="translate(-8.02 385.82) rotate(-82.33)"/><rect class="cls-7" x="333.21" y="55.8" width="18.52" height="3.91" transform="translate(87.61 293.69) rotate(-52.36)"/><rect class="cls-5" x="301.54" y="83.31" width="3.91" height="18.52" transform="translate(171.24 380.99) rotate(-82.33)"/><rect class="cls-7" x="242.89" y="100.51" width="18.52" height="3.91" transform="translate(-19.2 123.64) rotate(-26.58)"/><rect class="cls-8" x="399.02" y="74.94" width="18.52" height="3.91" transform="translate(312.5 481.16) rotate(-87.34)"/><rect class="cls-7" x="387.04" y="125.81" width="18.52" height="3.91" transform="translate(-14.46 196) rotate(-27.3)"/><rect class="cls-5" x="513.5" y="104.3" width="18.52" height="3.91" transform="translate(35.26 322.84) rotate(-35.44)"/><rect class="cls-5" x="473.39" y="118.96" width="3.91" height="18.52" transform="translate(160.93 507.08) rotate(-65.41)"/><rect class="cls-8" x="545.37" y="181.31" width="18.52" height="3.91" transform="translate(-26.45 123.67) rotate(-12.43)"/><rect class="cls-6" x="500.44" y="175.69" width="3.91" height="18.52" transform="translate(6.66 387.07) rotate(-42.39)"/><rect class="cls-6" x="309.65" y="123.88" width="18.52" height="3.91" transform="translate(-14.68 204.92) rotate(-34.87)"/><rect class="cls-6" x="419.08" y="96.88" width="3.91" height="18.52" transform="translate(21.65 276.52) rotate(-37.25)"/><rect class="cls-7" x="444.86" y="70.53" width="18.52" height="3.91" transform="translate(47.16 286.64) rotate(-36.82)"/><rect class="cls-7" x="501.78" y="148.79" width="18.52" height="3.91" transform="matrix(0.52, -0.85, 0.85, 0.52, 114.45, 506.55)"/><rect class="cls-7" x="567.91" y="220.01" width="18.52" height="3.91" transform="translate(13.8 476.92) rotate(-45.38)"/><rect class="cls-8" x="251.99" y="123.88" width="33.65" height="3.91" transform="translate(16.9 282.79) rotate(-57.01)"/><rect class="cls-8" x="314.99" y="50.18" width="3.91" height="33.65" transform="matrix(0.84, -0.55, 0.55, 0.84, 15.2, 184.88)"/><rect class="cls-5" x="351.52" y="114.61" width="33.65" height="3.91" transform="translate(99.14 393.69) rotate(-63.39)"/><rect class="cls-5" x="405.78" y="34.27" width="3.91" height="33.65" transform="translate(277.21 440.74) rotate(-78.62)"/><rect class="cls-8" x="457.43" y="128.7" width="3.91" height="33.65" transform="translate(34.86 373.54) rotate(-45.82)"/><rect class="cls-6" x="481.95" y="78.09" width="33.65" height="3.91" transform="translate(90.72 377.83) rotate(-45.24)"/><rect class="cls-5" x="510.12" y="221.83" width="33.65" height="3.91" transform="translate(38.23 521.97) rotate(-54.4)"/><rect class="cls-6" x="564.39" y="141.48" width="3.91" height="33.65" transform="matrix(0.85, -0.53, 0.53, 0.85, 1.69, 322.53)"/><rect class="cls-5" x="575.69" y="253.4" width="3.91" height="33.65" transform="translate(-26.36 474.86) rotate(-43.79)"/><rect class="cls-6" x="536.3" y="326.44" width="3.91" height="18.52" transform="translate(-95.88 352.86) rotate(-33.5)"/><rect class="cls-7" x="508.65" y="285.61" width="18.52" height="3.91" transform="translate(29.25 622.44) rotate(-63.46)"/><rect class="cls-5" x="501.65" y="329.9" width="18.52" height="3.91" transform="translate(-63.87 533.81) rotate(-52.36)"/><rect class="cls-8" x="547.92" y="287.78" width="3.91" height="18.52" transform="translate(182.08 802.33) rotate(-82.33)"/><rect class="cls-7" x="414.78" y="434.82" width="18.52" height="3.91" transform="translate(-180.79 505.87) rotate(-52.36)"/><rect class="cls-5" x="461.05" y="392.7" width="3.91" height="18.52" transform="matrix(0.13, -0.99, 0.99, 0.13, 2.82, 807.16)"/><rect class="cls-7" x="505.1" y="390.11" width="18.52" height="3.91" transform="translate(-121.06 271.54) rotate(-26.58)"/><rect class="cls-8" x="348.97" y="415.68" width="18.52" height="3.91" transform="translate(-75.59 756.09) rotate(-87.34)"/><rect class="cls-7" x="360.95" y="364.81" width="18.52" height="3.91" transform="translate(-126.99 210.65) rotate(-27.3)"/><rect class="cls-5" x="234.49" y="386.32" width="18.52" height="3.91" transform="translate(-179.99 213.3) rotate(-35.44)"/><rect class="cls-5" x="289.21" y="357.05" width="3.91" height="18.52" transform="translate(-163.1 478.61) rotate(-65.41)"/><rect class="cls-8" x="202.62" y="309.31" width="18.52" height="3.91" transform="translate(-62.03 52.9) rotate(-12.43)"/><rect class="cls-6" x="262.16" y="300.32" width="3.91" height="18.52" transform="translate(-139.67 259) rotate(-42.39)"/><rect class="cls-6" x="438.34" y="366.74" width="18.52" height="3.91" transform="translate(-130.43 322.11) rotate(-34.87)"/><rect class="cls-6" x="343.52" y="379.14" width="3.91" height="18.52" transform="translate(-164.62 288.36) rotate(-37.25)"/><rect class="cls-7" x="303.13" y="420.09" width="18.52" height="3.91" transform="translate(-190.63 271.43) rotate(-36.82)"/><rect class="cls-7" x="246.21" y="341.83" width="18.52" height="3.91" transform="translate(-171.25 380.74) rotate(-58.33)"/><rect class="cls-7" x="180.08" y="270.61" width="18.52" height="3.91" transform="translate(-137.67 215.91) rotate(-45.38)"/><rect class="cls-8" x="480.86" y="366.74" width="33.65" height="3.91" transform="translate(-82.56 585.37) rotate(-57.01)"/><rect class="cls-8" x="447.6" y="410.7" width="3.91" height="33.65" transform="translate(-160.86 316.74) rotate(-33.27)"/><rect class="cls-5" x="381.34" y="376.01" width="33.65" height="3.91" transform="translate(-118.1 564.67) rotate(-63.39)"/><rect class="cls-5" x="356.82" y="426.61" width="3.91" height="33.65" transform="translate(-146.72 707.69) rotate(-78.62)"/><rect class="cls-8" x="305.17" y="332.18" width="3.91" height="33.65" transform="translate(-157.2 326.01) rotate(-45.82)"/><rect class="cls-6" x="250.91" y="412.53" width="33.65" height="3.91" transform="translate(-215.09 312.72) rotate(-45.24)"/><rect class="cls-5" x="222.73" y="268.79" width="33.65" height="3.91" transform="translate(-120.04 307.92) rotate(-54.4)"/><rect class="cls-6" x="198.21" y="319.4" width="3.91" height="33.65" transform="translate(-147.23 156.15) rotate(-31.83)"/></g></g></g></svg>