<svg xmlns="http://www.w3.org/2000/svg" viewBox="0 0 1195.76 619.33"><defs><style>.cls-1{fill:#ffd2d2;}.cls-2,.cls-8{fill:#ffdec2;stroke:#a67c52;}.cls-17,.cls-2,.cls-8{stroke-miterlimit:10;}.cls-2{stroke-width:2.36px;}.cls-3{fill:#f98ff9;}.cls-4{fill:red;}.cls-28,.cls-29,.cls-30,.cls-31,.cls-32,.cls-5{fill:#fff;}.cls-6{fill:lime;}.cls-7{fill:#ff0;}.cls-8{stroke-width:3.31px;}.cls-19,.cls-9{fill:#f95353;}.cls-10{fill:#428c42;}.cls-11{fill:#8d8dff;}.cls-12{fill:#e0b980;}.cls-13{font-size:15px;}.cls-13,.cls-19{font-family:MyriadPro-Regular, Myriad Pro;}.cls-14{letter-spacing:-0.01em;}.cls-15{letter-spacing:-0.01em;}.cls-16{letter-spacing:0em;}.cls-17{fill:none;stroke:#c69c6d;}.cls-18{fill:#537c53;}.cls-19{font-size:41px;}.cls-20{letter-spacing:0.04em;}.cls-21{letter-spacing:-0.07em;}.cls-22{letter-spacing:-0.01em;}.cls-23,.cls-28{letter-spacing:0em;}.cls-24{letter-spacing:-0.01em;}.cls-25,.cls-32{letter-spacing:-0.01em;}.cls-26{letter-spacing:-0.02em;}.cls-27{letter-spacing:-0.09em;}.cls-29{letter-spacing:-0.01em;}.cls-30{letter-spacing:0em;}.cls-31{letter-spacing:0em;}</style></defs><title>toReceiveAsset 1</title><g id="Layer_2" data-name="Layer 2"><g id="Layer_1-2" data-name="Layer 1"><path class="cls-1" d="M553,2.68,703.7,18a140.87,140.87,0,0,0,34.21-.7L808,7.21A140.7,140.7,0,0,1,920.58,40.55l119.77,104.67a140.32,140.32,0,0,1,16.51,17.09l23.6,29a140.76,140.76,0,0,1,25.07,131.32l-11.46,36.23a141.23,141.23,0,0,0-6.27,33.61l-1,16.49a140.75,140.75,0,0,1-87.38,121.52L937.77,570.3c-17.94,7.31-59,32.18-78.39,31.7l-268.13,5.35c-4.79-.12-52.92,6.11-86.1,10.48a174.18,174.18,0,0,1-61.82-2.93L340.47,591.28a49.22,49.22,0,0,0-5-.88c-42.38-5.37-127.73,8.11-157.35-17.71L73.21,481.19a142.54,142.54,0,0,0-12.47-9.7h0A140.75,140.75,0,0,1,19.23,284.72L41.86,246a140.7,140.7,0,0,1,72.6-61l190.08-70.49a140.85,140.85,0,0,0,22.34-10.59L467.52,21.33A140.76,140.76,0,0,1,553,2.68Z"/><path class="cls-2" d="M539.79,342a187.16,187.16,0,0,0-24.93-65.42q-1.18-2-2.45-3.89a189.45,189.45,0,0,0-50.62-52.32A187.89,187.89,0,0,0,354,186.58c-104.23,0-188.73,84.5-188.73,188.72H275.05a79,79,0,0,1,147.06-39.92,11.67,11.67,0,0,1,.71,1.28l.06.07a78.45,78.45,0,0,1,10.06,38.57H541.67a107.8,107.8,0,0,1,.67-12.12,0,0,0,0,1,0,0A190.57,190.57,0,0,0,539.79,342Z"/><path class="cls-3" d="M536,362a14.35,14.35,0,0,0-1.23-3.6l-8.66-34.26A93,93,0,0,0,511,292l-3.92-5.36L504.44,283l-22.92-31.33a89.21,89.21,0,0,0-37.67-29.82l-5.15-2.15-43.26-18.09a86.81,86.81,0,0,0-50.33-5.1l-43.64,8.63a88.26,88.26,0,0,0-42.66,21.76l-43.13,39.77a92.25,92.25,0,0,0-26.75,45L174.84,366.9a45.47,45.47,0,0,0-1.34,8.41h95.94c.09-1.17.2-2.18.3-3q2.72-14.28,5.44-28.55a50.56,50.56,0,0,1,20.9-32.26l9.58-6.58a67.69,67.69,0,0,1,33.27-11.75l19.42-1.46a69.51,69.51,0,0,1,40.29,9.35c.82.48,1.63,1,2.43,1.49l8,5.1c1.95,1.25,3.83,2.58,5.64,4a73.18,73.18,0,0,1,24.57,35.92h0a70,70,0,0,1,1.83,7.08c.09.45.18.89.28,1.34.49,2.4,1,4.82,1.49,7.23.32,2.09.2,6.42-.59,12.08h94.53A54,54,0,0,0,536,362Z"/><rect class="cls-4" x="198.17" y="342.21" width="3.08" height="26.52" transform="translate(-190.44 237.04) rotate(-43.79)"/><rect class="cls-5" x="229.21" y="296.57" width="3.08" height="14.6" transform="translate(-129.39 177.85) rotate(-33.5)"/><rect class="cls-6" x="239.49" y="340.26" width="14.6" height="3.08" transform="translate(-169.26 409.89) rotate(-63.46)"/><rect class="cls-4" x="245.01" y="305.36" width="14.6" height="3.08" transform="translate(-144.8 319.3) rotate(-52.36)"/><rect class="cls-7" x="220.05" y="327.04" width="3.08" height="14.6" transform="translate(-139.34 509.31) rotate(-82.33)"/><rect class="cls-6" x="313.46" y="222.67" width="14.6" height="3.08" transform="translate(-52.67 341.31) rotate(-52.36)"/><rect class="cls-4" x="288.51" y="244.36" width="3.08" height="14.6" transform="translate(1.92 505.51) rotate(-82.33)"/><rect class="cls-6" x="242.29" y="257.91" width="14.6" height="3.08" transform="translate(-89.7 139.08) rotate(-26.58)"/><rect class="cls-7" x="365.32" y="237.76" width="14.6" height="3.08" transform="translate(116.27 600.41) rotate(-87.34)"/><rect class="cls-6" x="355.89" y="277.85" width="14.6" height="3.08" transform="translate(-87.69 197.7) rotate(-27.3)"/><rect class="cls-4" x="455.54" y="260.9" width="14.6" height="3.08" transform="translate(-66.42 317.03) rotate(-35.44)"/><rect class="cls-4" x="423.93" y="272.45" width="3.08" height="14.6" transform="translate(-5.97 550.2) rotate(-65.41)"/><rect class="cls-7" x="480.65" y="321.59" width="14.6" height="3.08" transform="translate(-58.11 112.59) rotate(-12.43)"/><rect class="cls-5" x="445.25" y="317.16" width="3.08" height="14.6" transform="translate(-101.93 386.05) rotate(-42.39)"/><rect class="cls-5" x="294.89" y="276.32" width="14.6" height="3.08" transform="translate(-104.6 222.66) rotate(-34.87)"/><rect class="cls-5" x="381.14" y="255.05" width="3.08" height="14.6" transform="translate(-80.73 285.17) rotate(-37.25)"/><rect class="cls-6" x="401.45" y="234.28" width="14.6" height="3.08" transform="translate(-59.79 292.03) rotate(-36.82)"/><rect class="cls-6" x="446.3" y="295.96" width="14.6" height="3.08" transform="translate(-37.74 527.38) rotate(-58.33)"/><rect class="cls-6" x="498.42" y="352.08" width="14.6" height="3.08" transform="translate(-101.19 465.24) rotate(-45.38)"/><rect class="cls-7" x="249.46" y="276.32" width="26.52" height="3.08" transform="translate(-113.4 346.92) rotate(-57.01)"/><rect class="cls-7" x="299.11" y="218.25" width="3.08" height="26.52" transform="translate(-77.73 202.91) rotate(-33.27)"/><rect class="cls-4" x="327.89" y="269.03" width="26.52" height="3.08" transform="translate(-53.56 454.4) rotate(-63.39)"/><rect class="cls-4" x="370.65" y="205.71" width="3.08" height="26.52" transform="translate(84.11 540.65) rotate(-78.62)"/><rect class="cls-7" x="411.36" y="280.13" width="3.08" height="26.52" transform="translate(-85.27 385.01) rotate(-45.82)"/><rect class="cls-5" x="430.68" y="240.25" width="26.52" height="3.08" transform="translate(-40.34 386.75) rotate(-45.24)"/><rect class="cls-4" x="452.88" y="353.52" width="26.52" height="3.08" transform="translate(-93.91 527.38) rotate(-54.4)"/><rect class="cls-5" x="495.64" y="290.2" width="3.08" height="26.52" transform="translate(-85.28 307.89) rotate(-31.83)"/><path class="cls-8" d="M652.15,111.2a263.62,263.62,0,0,0-206.31,99.2q-3.68,4.59-7.14,9.34a263.37,263.37,0,0,0-34.12,63.41c-.4,1.05-.79,2.11-1.16,3.17h0q-2.61,7.28-4.78,14.72c-.76,2.55-1.47,5.13-2.14,7.72a264.79,264.79,0,0,0-8.45,66.53H541.67a107.8,107.8,0,0,1,.67-12.12,0,0,0,0,1,0,0A110.47,110.47,0,0,1,762.62,375.3H916.26C916.26,229.44,798,111.2,652.15,111.2Z"/><path class="cls-9" d="M905.1,351.66l-12.12-48a130.31,130.31,0,0,0-21.09-44.94l-41.28-56.43a125.43,125.43,0,0,0-52.71-41.73l-67.75-28.32a121.45,121.45,0,0,0-70.44-7.14l-61.06,12.08A123.36,123.36,0,0,0,519,167.68l-57.16,52.7-3.21,3q-2.07,1.91-4,3.9a127.14,127.14,0,0,0-11.29,13h0a128.45,128.45,0,0,0-7.86,11.7,130.14,130.14,0,0,0-11.57,25.3c-.33,1-.65,2-.95,3-.62,2-1.2,4-1.72,6.09l-2.64,10.35-.88,3.44-2.95,11.52-2.6,10.2-10.65,41.69a63.92,63.92,0,0,0-1.85,11.77H533.81c.14-1.64.29-3.05.43-4.21.58-3,1.15-6.06,1.73-9.09q1.9-10,3.82-20l2.07-10.87A70.71,70.71,0,0,1,571.1,286l13.41-9.21a94.77,94.77,0,0,1,46.55-16.44l27.19-2A97.35,97.35,0,0,1,718,273.47l11.15,7.14A102.48,102.48,0,0,1,774,346.41q1.25,6,2.48,12c.45,2.93.28,9-.82,16.91H908C908.38,364.65,907.42,356,905.1,351.66Z"/><rect class="cls-4" x="434.08" y="328.99" width="4.32" height="37.11" transform="translate(-119.19 398.51) rotate(-43.79)"/><rect class="cls-5" x="477.52" y="265.12" width="4.32" height="20.43" transform="translate(-72.28 310.5) rotate(-33.5)"/><rect class="cls-6" x="491.91" y="326.26" width="20.43" height="4.32" transform="translate(-16.03 630.92) rotate(-63.46)"/><rect class="cls-4" x="499.63" y="277.42" width="20.43" height="4.32" transform="translate(-22.89 512.6) rotate(-52.36)"/><rect class="cls-7" x="464.7" y="307.76" width="4.32" height="20.43" transform="translate(89.4 738.2) rotate(-82.33)"/><rect class="cls-6" x="595.43" y="161.71" width="20.43" height="4.32" transform="translate(106.05 543.41) rotate(-52.36)"/><rect class="cls-4" x="560.51" y="192.05" width="4.32" height="20.43" transform="translate(287.09 732.88) rotate(-82.33)"/><rect class="cls-6" x="495.83" y="211.02" width="20.43" height="4.32" transform="translate(-41.9 248.92) rotate(-26.58)"/><rect class="cls-7" x="668" y="182.82" width="20.43" height="4.32" transform="translate(461.94 853.87) rotate(-87.34)"/><rect class="cls-6" x="654.8" y="238.92" width="20.43" height="4.32" transform="translate(-36.5 331.86) rotate(-27.3)"/><rect class="cls-4" x="794.26" y="215.19" width="20.43" height="4.32" transform="translate(23.03 506.79) rotate(-35.44)"/><rect class="cls-4" x="750.02" y="231.37" width="4.32" height="20.43" transform="translate(219.47 824.98) rotate(-65.41)"/><rect class="cls-7" x="829.4" y="300.13" width="20.43" height="4.32" transform="translate(-45.38 187.79) rotate(-12.43)"/><rect class="cls-5" x="779.86" y="293.93" width="4.32" height="20.43" transform="translate(-0.6 606.75) rotate(-42.39)"/><rect class="cls-5" x="569.44" y="236.79" width="20.43" height="4.32" transform="translate(-32.53 374.31) rotate(-34.87)"/><rect class="cls-5" x="690.13" y="207.01" width="4.32" height="20.43" transform="translate(9.75 463.38) rotate(-37.25)"/><rect class="cls-6" x="718.56" y="177.95" width="20.43" height="4.32" transform="translate(37.45 472.72) rotate(-36.82)"/><rect class="cls-6" x="781.33" y="264.26" width="20.43" height="4.32" transform="translate(149.24 800.24) rotate(-58.33)"/><rect class="cls-6" x="854.26" y="342.8" width="20.43" height="4.32" transform="translate(11.76 718.04) rotate(-45.38)"/><rect class="cls-7" x="505.86" y="236.79" width="37.11" height="4.32" transform="translate(38.45 548.69) rotate(-57.01)"/><rect class="cls-7" x="575.34" y="155.51" width="4.32" height="37.11" transform="translate(-0.82 345.38) rotate(-33.27)"/><rect class="cls-4" x="615.62" y="226.57" width="37.11" height="4.32" transform="translate(145.62 693.29) rotate(-63.39)"/><rect class="cls-4" x="675.46" y="137.96" width="4.32" height="37.11" transform="translate(390.5 789.95) rotate(-78.62)"/><rect class="cls-7" x="732.42" y="242.11" width="4.32" height="37.11" transform="translate(35.69 605.78) rotate(-45.82)"/><rect class="cls-5" x="759.47" y="186.3" width="37.11" height="4.32" transform="translate(96.36 608.18) rotate(-45.24)"/><rect class="cls-4" x="790.54" y="344.82" width="37.11" height="4.32" transform="translate(55.97 802.85) rotate(-54.4)"/><rect class="cls-5" x="850.38" y="256.21" width="4.32" height="37.11" transform="translate(-16.69 491) rotate(-31.83)"/><polygon class="cls-10" points="164.42 354.31 159.39 360.5 162.8 360.5 155.97 367.33 160.8 367.33 153.24 374.89 158.83 374.89 150.08 383.64 161.79 383.64 161.79 389.71 164.42 389.71 164.42 354.31"/><polygon class="cls-10" points="164.39 354.31 169.43 360.5 166.01 360.5 172.85 367.33 168.02 367.33 175.58 374.89 169.99 374.89 178.74 383.64 167.02 383.64 167.02 389.71 164.39 389.71 164.39 354.31"/><polygon class="cls-10" points="269.91 354.31 264.87 360.5 268.29 360.5 261.45 367.33 266.28 367.33 258.72 374.89 264.31 374.89 255.56 383.64 267.28 383.64 267.28 389.71 269.91 389.71 269.91 354.31"/><polygon class="cls-10" points="269.88 354.31 274.91 360.5 271.5 360.5 278.33 367.33 273.5 367.33 281.06 374.89 275.47 374.89 284.22 383.64 272.5 383.64 272.5 389.71 269.88 389.71 269.88 354.31"/><polygon class="cls-10" points="187.95 339.92 180.87 348.63 185.67 348.63 176.06 358.24 182.85 358.24 172.22 368.86 180.09 368.86 167.77 381.18 184.25 381.18 184.25 389.71 187.95 389.71 187.95 339.92"/><polygon class="cls-10" points="187.91 339.92 194.99 348.63 190.19 348.63 199.8 358.24 193.01 358.24 203.64 368.86 195.77 368.86 208.08 381.18 191.61 381.18 191.61 389.71 187.91 389.71 187.91 339.92"/><polygon class="cls-10" points="244.83 339.92 237.75 348.63 242.55 348.63 232.94 358.24 239.73 358.24 229.1 368.86 236.97 368.86 224.66 381.18 241.13 381.18 241.13 389.71 244.83 389.71 244.83 339.92"/><polygon class="cls-10" points="244.79 339.92 251.87 348.63 247.07 348.63 256.68 358.24 249.89 358.24 260.52 368.86 252.66 368.86 264.97 381.18 248.49 381.18 248.49 389.71 244.79 389.71 244.79 339.92"/><polygon class="cls-10" points="215.91 330.09 207.43 340.52 213.18 340.52 201.67 352.02 209.8 352.02 197.07 364.75 206.49 364.75 191.75 379.49 211.48 379.49 211.48 389.71 215.91 389.71 215.91 330.09"/><polygon class="cls-10" points="215.86 330.09 224.34 340.52 218.59 340.52 230.09 352.02 221.97 352.02 234.69 364.75 225.28 364.75 240.02 379.49 220.29 379.49 220.29 389.71 215.86 389.71 215.86 330.09"/><polygon class="cls-10" points="293.28 354.31 288.25 360.5 291.66 360.5 284.83 367.33 289.66 367.33 282.1 374.89 287.69 374.89 278.94 383.64 290.65 383.64 290.65 389.71 293.28 389.71 293.28 354.31"/><polygon class="cls-10" points="293.25 354.31 298.29 360.5 294.87 360.5 301.7 367.33 296.88 367.33 304.44 374.89 298.85 374.89 307.6 383.64 295.88 383.64 295.88 389.71 293.25 389.71 293.25 354.31"/><polygon class="cls-10" points="398.76 354.31 393.73 360.5 397.14 360.5 390.31 367.33 395.14 367.33 387.58 374.89 393.17 374.89 384.42 383.64 396.14 383.64 396.14 389.71 398.76 389.71 398.76 354.31"/><polygon class="cls-10" points="398.74 354.31 403.77 360.5 400.36 360.5 407.19 367.33 402.36 367.33 409.92 374.89 404.33 374.89 413.08 383.64 401.37 383.64 401.37 389.71 398.74 389.71 398.74 354.31"/><polygon class="cls-10" points="316.81 339.92 309.73 348.63 314.53 348.63 304.92 358.24 311.71 358.24 301.08 368.86 308.94 368.86 296.63 381.18 313.11 381.18 313.11 389.71 316.81 389.71 316.81 339.92"/><polygon class="cls-10" points="316.77 339.92 323.85 348.63 319.05 348.63 328.65 358.24 321.87 358.24 332.5 368.86 324.63 368.86 336.94 381.18 320.46 381.18 320.46 389.71 316.77 389.71 316.77 339.92"/><polygon class="cls-10" points="373.69 339.92 366.61 348.63 371.41 348.63 361.8 358.24 368.59 358.24 357.96 368.86 365.83 368.86 353.51 381.18 369.99 381.18 369.99 389.71 373.69 389.71 373.69 339.92"/><polygon class="cls-10" points="373.65 339.92 380.73 348.63 375.93 348.63 385.54 358.24 378.75 358.24 389.38 368.86 381.51 368.86 393.82 381.18 377.35 381.18 377.35 389.71 373.65 389.71 373.65 339.92"/><polygon class="cls-10" points="344.77 330.09 336.29 340.52 342.04 340.52 330.53 352.02 338.66 352.02 325.93 364.75 335.35 364.75 320.61 379.49 340.34 379.49 340.34 389.71 344.77 389.71 344.77 330.09"/><polygon class="cls-10" points="344.72 330.09 353.2 340.52 347.45 340.52 358.95 352.02 350.83 352.02 363.55 364.75 354.13 364.75 368.88 379.49 349.15 379.49 349.15 389.71 344.72 389.71 344.72 330.09"/><polygon class="cls-10" points="424.64 354.31 419.61 360.5 423.02 360.5 416.19 367.33 421.01 367.33 413.46 374.89 419.05 374.89 410.3 383.64 422.01 383.64 422.01 389.71 424.64 389.71 424.64 354.31"/><polygon class="cls-10" points="424.61 354.31 429.65 360.5 426.23 360.5 433.06 367.33 428.24 367.33 435.79 374.89 430.2 374.89 438.96 383.64 427.24 383.64 427.24 389.71 424.61 389.71 424.61 354.31"/><polygon class="cls-10" points="530.12 354.31 525.09 360.5 528.5 360.5 521.67 367.33 526.5 367.33 518.94 374.89 524.53 374.89 515.78 383.64 527.49 383.64 527.49 389.71 530.12 389.71 530.12 354.31"/><polygon class="cls-10" points="530.09 354.31 535.13 360.5 531.72 360.5 538.55 367.33 533.72 367.33 541.28 374.89 535.69 374.89 544.44 383.64 532.72 383.64 532.72 389.71 530.09 389.71 530.09 354.31"/><polygon class="cls-10" points="448.17 339.92 441.09 348.63 445.89 348.63 436.28 358.24 443.07 358.24 432.44 368.86 440.3 368.86 427.99 381.18 444.47 381.18 444.47 389.71 448.17 389.71 448.17 339.92"/><polygon class="cls-10" points="448.13 339.92 455.21 348.63 450.4 348.63 460.01 358.24 453.23 358.24 463.85 368.86 455.99 368.86 468.3 381.18 451.82 381.18 451.82 389.71 448.13 389.71 448.13 339.92"/><polygon class="cls-10" points="505.05 339.92 497.97 348.63 502.77 348.63 493.16 358.24 499.95 358.24 489.32 368.86 497.19 368.86 484.87 381.18 501.35 381.18 501.35 389.71 505.05 389.71 505.05 339.92"/><polygon class="cls-10" points="505.01 339.92 512.09 348.63 507.29 348.63 516.9 358.24 510.11 358.24 520.74 368.86 512.87 368.86 525.18 381.18 508.7 381.18 508.7 389.71 505.01 389.71 505.01 339.92"/><polygon class="cls-10" points="476.13 330.09 467.65 340.52 473.4 340.52 461.89 352.02 470.02 352.02 457.29 364.75 466.71 364.75 451.97 379.49 471.7 379.49 471.7 389.71 476.13 389.71 476.13 330.09"/><polygon class="cls-10" points="476.08 330.09 484.56 340.52 478.81 340.52 490.31 352.02 482.18 352.02 494.91 364.75 485.49 364.75 500.24 379.49 480.5 379.49 480.5 389.71 476.08 389.71 476.08 330.09"/><polygon class="cls-10" points="554.76 354.31 549.72 360.5 553.14 360.5 546.31 367.33 551.13 367.33 543.58 374.89 549.17 374.89 540.41 383.64 552.13 383.64 552.13 389.71 554.76 389.71 554.76 354.31"/><polygon class="cls-10" points="554.73 354.31 559.76 360.5 556.35 360.5 563.18 367.33 558.36 367.33 565.91 374.89 560.32 374.89 569.07 383.64 557.36 383.64 557.36 389.71 554.73 389.71 554.73 354.31"/><polygon class="cls-10" points="660.24 354.31 655.21 360.5 658.62 360.5 651.79 367.33 656.61 367.33 649.06 374.89 654.65 374.89 645.9 383.64 657.61 383.64 657.61 389.71 660.24 389.71 660.24 354.31"/><polygon class="cls-10" points="660.21 354.31 665.25 360.5 661.83 360.5 668.66 367.33 663.84 367.33 671.39 374.89 665.8 374.89 674.56 383.64 662.84 383.64 662.84 389.71 660.21 389.71 660.21 354.31"/><polygon class="cls-10" points="578.28 339.92 571.2 348.63 576 348.63 566.4 358.24 573.18 358.24 562.56 368.86 570.42 368.86 558.11 381.18 574.59 381.18 574.59 389.71 578.28 389.71 578.28 339.92"/><polygon class="cls-10" points="578.24 339.92 585.32 348.63 580.52 348.63 590.13 358.24 583.34 358.24 593.97 368.86 586.11 368.86 598.42 381.18 581.94 381.18 581.94 389.71 578.24 389.71 578.24 339.92"/><polygon class="cls-10" points="635.17 339.92 628.09 348.63 632.89 348.63 623.28 358.24 630.07 358.24 619.44 368.86 627.3 368.86 614.99 381.18 631.47 381.18 631.47 389.71 635.17 389.71 635.17 339.92"/><polygon class="cls-10" points="635.13 339.92 642.21 348.63 637.4 348.63 647.01 358.24 640.23 358.24 650.85 368.86 642.99 368.86 655.3 381.18 638.82 381.18 638.82 389.71 635.13 389.71 635.13 339.92"/><polygon class="cls-10" points="606.24 330.09 597.76 340.52 603.51 340.52 592.01 352.02 600.13 352.02 587.41 364.75 596.83 364.75 582.08 379.49 601.82 379.49 601.82 389.71 606.24 389.71 606.24 330.09"/><polygon class="cls-10" points="606.19 330.09 614.67 340.52 608.92 340.52 620.43 352.02 612.3 352.02 625.03 364.75 615.61 364.75 630.35 379.49 610.62 379.49 610.62 389.71 606.19 389.71 606.19 330.09"/><polygon class="cls-10" points="683.62 354.31 678.58 360.5 682 360.5 675.17 367.33 679.99 367.33 672.43 374.89 678.03 374.89 669.27 383.64 680.99 383.64 680.99 389.71 683.62 389.71 683.62 354.31"/><polygon class="cls-10" points="683.59 354.31 688.62 360.5 685.21 360.5 692.04 367.33 687.22 367.33 694.77 374.89 689.18 374.89 697.93 383.64 686.22 383.64 686.22 389.71 683.59 389.71 683.59 354.31"/><polygon class="cls-10" points="789.1 354.31 784.07 360.5 787.48 360.5 780.65 367.33 785.47 367.33 777.92 374.89 783.51 374.89 774.76 383.64 786.47 383.64 786.47 389.71 789.1 389.71 789.1 354.31"/><polygon class="cls-10" points="789.07 354.31 794.11 360.5 790.69 360.5 797.52 367.33 792.7 367.33 800.25 374.89 794.66 374.89 803.42 383.64 791.7 383.64 791.7 389.71 789.07 389.71 789.07 354.31"/><polygon class="cls-10" points="707.14 339.92 700.06 348.63 704.86 348.63 695.26 358.24 702.04 358.24 691.42 368.86 699.28 368.86 686.97 381.18 703.45 381.18 703.45 389.71 707.14 389.71 707.14 339.92"/><polygon class="cls-10" points="707.1 339.92 714.18 348.63 709.38 348.63 718.99 358.24 712.2 358.24 722.83 368.86 714.97 368.86 727.28 381.18 710.8 381.18 710.8 389.71 707.1 389.71 707.1 339.92"/><polygon class="cls-10" points="764.03 339.92 756.95 348.63 761.75 348.63 752.14 358.24 758.92 358.24 748.3 368.86 756.16 368.86 743.85 381.18 760.33 381.18 760.33 389.71 764.03 389.71 764.03 339.92"/><polygon class="cls-10" points="763.99 339.92 771.07 348.63 766.26 348.63 775.87 358.24 769.09 358.24 779.71 368.86 771.85 368.86 784.16 381.18 767.68 381.18 767.68 389.71 763.99 389.71 763.99 339.92"/><polygon class="cls-10" points="735.1 330.09 726.62 340.52 732.37 340.52 720.87 352.02 729 352.02 716.27 364.75 725.69 364.75 710.94 379.49 730.67 379.49 730.67 389.71 735.1 389.71 735.1 330.09"/><polygon class="cls-10" points="735.05 330.09 743.53 340.52 737.78 340.52 749.29 352.02 741.16 352.02 753.89 364.75 744.47 364.75 759.21 379.49 739.48 379.49 739.48 389.71 735.05 389.71 735.05 330.09"/><polygon class="cls-10" points="814.98 354.31 809.94 360.5 813.36 360.5 806.52 367.33 811.35 367.33 803.79 374.89 809.38 374.89 800.63 383.64 812.35 383.64 812.35 389.71 814.98 389.71 814.98 354.31"/><polygon class="cls-10" points="814.95 354.31 819.98 360.5 816.57 360.5 823.4 367.33 818.57 367.33 826.13 374.89 820.54 374.89 829.29 383.64 817.58 383.64 817.58 389.71 814.95 389.71 814.95 354.31"/><polygon class="cls-10" points="920.46 354.31 915.42 360.5 918.84 360.5 912.01 367.33 916.83 367.33 909.28 374.89 914.87 374.89 906.11 383.64 917.83 383.64 917.83 389.71 920.46 389.71 920.46 354.31"/><polygon class="cls-10" points="920.43 354.31 925.46 360.5 922.05 360.5 928.88 367.33 924.06 367.33 931.61 374.89 926.02 374.89 934.77 383.64 923.06 383.64 923.06 389.71 920.43 389.71 920.43 354.31"/><polygon class="cls-10" points="838.5 339.92 831.42 348.63 836.22 348.63 826.61 358.24 833.4 358.24 822.77 368.86 830.64 368.86 818.33 381.18 834.8 381.18 834.8 389.71 838.5 389.71 838.5 339.92"/><polygon class="cls-10" points="838.46 339.92 845.54 348.63 840.74 348.63 850.35 358.24 843.56 358.24 854.19 368.86 846.33 368.86 858.64 381.18 842.16 381.18 842.16 389.71 838.46 389.71 838.46 339.92"/><polygon class="cls-10" points="895.38 339.92 888.3 348.63 893.11 348.63 883.5 358.24 890.28 358.24 879.66 368.86 887.52 368.86 875.21 381.18 891.69 381.18 891.69 389.71 895.38 389.71 895.38 339.92"/><polygon class="cls-10" points="895.34 339.92 902.42 348.63 897.62 348.63 907.23 358.24 900.44 358.24 911.07 368.86 903.21 368.86 915.52 381.18 899.04 381.18 899.04 389.71 895.34 389.71 895.34 339.92"/><polygon class="cls-10" points="866.46 330.09 857.98 340.52 863.73 340.52 852.23 352.02 860.35 352.02 847.63 364.75 857.04 364.75 842.3 379.49 862.03 379.49 862.03 389.71 866.46 389.71 866.46 330.09"/><polygon class="cls-10" points="866.41 330.09 874.89 340.52 869.14 340.52 880.65 352.02 872.52 352.02 885.25 364.75 875.83 364.75 890.57 379.49 870.84 379.49 870.84 389.71 866.41 389.71 866.41 330.09"/><rect class="cls-11" x="223.02" y="404.27" width="132.34" height="5.68" rx="2.69"/><rect class="cls-11" x="389.45" y="404.27" width="242.39" height="5.68" rx="2.69"/><rect class="cls-11" x="658.47" y="404.27" width="190.08" height="5.68" rx="2.69"/><rect class="cls-11" x="629.14" y="436.72" width="149.31" height="5.68" rx="2.69"/><rect class="cls-11" x="259.13" y="420.49" width="117.2" height="5.68" rx="2.69"/><rect class="cls-11" x="404.99" y="420.49" width="153.53" height="5.68" rx="2.69"/><rect class="cls-11" x="375.73" y="452.94" width="153.53" height="5.68" rx="2.69"/><rect class="cls-11" x="422.58" y="436.72" width="162.94" height="5.68" rx="2.69"/><rect class="cls-11" x="600.52" y="420.49" width="71.63" height="5.68" rx="2.69"/><rect class="cls-11" x="570.06" y="452.94" width="106.53" height="5.68" rx="2.69"/><rect class="cls-11" x="322.9" y="436.72" width="71.63" height="5.68" rx="2.69"/><rect class="cls-11" x="700.81" y="420.49" width="113.66" height="5.68" rx="2.69"/><rect class="cls-12" x="170.17" y="456.33" width="178.3" height="30.91"/><rect class="cls-12" x="254.68" y="486.46" width="9.28" height="53.22"/><text class="cls-13" transform="translate(193.64 475.72)">Nothing <tspan class="cls-14" x="54.79" y="0">t</tspan><tspan x="59.67" y="0">o see he</tspan><tspan class="cls-15" x="111.07" y="0">r</tspan><tspan class="cls-16" x="115.83" y="0">e ...</tspan></text><line class="cls-17" x1="170.17" y1="471.79" x2="181.26" y2="471.79"/><line class="cls-17" x1="170.17" y1="464.81" x2="175.71" y2="464.81"/><line class="cls-17" x1="170.17" y1="475.72" x2="173.5" y2="475.72"/><line class="cls-17" x1="338.95" y1="462.84" x2="348.47" y2="462.84"/><line class="cls-17" x1="336.6" y1="466.24" x2="348.47" y2="466.24"/><line class="cls-17" x1="343.71" y1="469.25" x2="348.47" y2="469.25"/><line class="cls-17" x1="170.17" y1="468.46" x2="178.19" y2="468.46"/><line class="cls-17" x1="184.64" y1="483.72" x2="198.54" y2="483.72"/><line class="cls-17" x1="179.14" y1="483.72" x2="183.38" y2="483.72"/><line class="cls-17" x1="319.45" y1="483.72" x2="322.38" y2="483.72"/><line class="cls-17" x1="309.41" y1="483.72" x2="317.43" y2="483.72"/><polygon class="cls-18" points="249.99 539.68 243.73 534.99 249.99 534.99 249.99 528.53 254.68 531.85 258.01 529.9 258.01 535.96 260.75 535.96 258.01 539.68 249.99 539.68"/><line class="cls-17" x1="265.74" y1="539.68" x2="239.82" y2="539.68"/><path class="cls-1" d="M212.17,19.11l50-17.41a30.55,30.55,0,0,1,18.51-.51l35,10.08A30.57,30.57,0,0,1,337.77,39l.28,5.15A30.57,30.57,0,0,1,325.54,70.5L288,97.92a30.57,30.57,0,0,1-11.81,5.23L194.46,120.1a30.59,30.59,0,0,1-24.25-5.26h0A30.57,30.57,0,0,1,164.44,71l34-42.18A30.54,30.54,0,0,1,212.17,19.11Z"/><path class="cls-1" d="M1096.21,473.83l16.8-36.1a22.91,22.91,0,0,1,9.42-10.25l23.77-13.61a23,23,0,0,1,26.51,2.61l2.93,2.55a23,23,0,0,1,7.66,20.55l-4.89,34.63a23.09,23.09,0,0,1-3.36,9.11l-33.63,52.94a23,23,0,0,1-15.53,10.33h0a23,23,0,0,1-26.68-19.85l-5-40.41A23,23,0,0,1,1096.21,473.83Z"/><path class="cls-1" d="M84.26,132.78h0a20.63,20.63,0,0,0,7.57,21.61l5,3.75a20.63,20.63,0,0,0,17.37,3.55L124.89,159a20.62,20.62,0,0,0,15-25.16l-.54-2.12A20.65,20.65,0,0,0,118,116.31l-15.15,1A20.65,20.65,0,0,0,84.26,132.78Z"/><path class="cls-1" d="M1139.45,349h0a20.62,20.62,0,0,0,7.56,21.61l5,3.75a20.61,20.61,0,0,0,17.36,3.55l10.73-2.65a20.63,20.63,0,0,0,15-25.16l-.55-2.12a20.63,20.63,0,0,0-21.36-15.45l-15.16,1A20.63,20.63,0,0,0,1139.45,349Z"/><text class="cls-19" transform="translate(468.3 539.68)"><tspan class="cls-20">“</tspan><tspan class="cls-21" x="16.15" y="0">T</tspan><tspan x="33.62" y="0">o </tspan><tspan class="cls-22" x="64.82" y="0">r</tspan><tspan class="cls-23" x="77.82" y="0">e</tspan><tspan class="cls-24" x="98.36" y="0">c</tspan><tspan x="116.48" y="0">ei</tspan><tspan class="cls-25" x="146.61" y="0">v</tspan><tspan class="cls-26" x="165.92" y="0">e</tspan><tspan class="cls-27" x="185.44" y="0">”</tspan><tspan class="cls-28" x="196.43" y="0"> </tspan><tspan class="cls-29" x="205.12" y="0">f</tspan><tspan class="cls-30" x="216.56" y="0">e</tspan><tspan class="cls-31" x="237.1" y="0">a</tspan><tspan class="cls-5" x="256.7" y="0">tu</tspan><tspan class="cls-32" x="292.86" y="0">r</tspan><tspan class="cls-5" x="305.86" y="0">e soon</tspan></text></g></g></svg>