<svg xmlns="http://www.w3.org/2000/svg" viewBox="0 0 634.13 709.46"><defs><style>.cls-1{isolation:isolate;}.cls-2{fill:#ffdec2;}.cls-3{fill:#fb3371;}.cls-4{fill:#f98ff9;}.cls-5{fill:red;}.cls-6{fill:#fff;}.cls-7{fill:lime;}.cls-8{fill:#ff0;}.cls-9{mix-blend-mode:multiply;}.cls-10{fill:#3a3a3a;}.cls-11{fill:#d4145a;}.cls-12{fill:#ffa1c7;}.cls-13{fill:#f95353;}</style></defs><title>toReceiveAssetAsset 7</title><g class="cls-1"><g id="Layer_2" data-name="Layer 2"><g id="Layer_1-2" data-name="Layer 1"><path class="cls-2" d="M154.52,604.85C72.08,604.85,5,537.78,5,455.33S72.08,305.8,154.52,305.8s149.53,67.08,149.53,149.53S237,604.85,154.52,604.85Zm0-205A55.46,55.46,0,1,0,210,455.33,55.51,55.51,0,0,0,154.52,399.88Z"/><path class="cls-3" d="M154.52,310.8A144.53,144.53,0,1,1,10,455.33,144.53,144.53,0,0,1,154.52,310.8m0,205a60.46,60.46,0,1,0-60.45-60.46,60.46,60.46,0,0,0,60.45,60.46m0-215a154.53,154.53,0,1,0,109.27,45.26A153.54,153.54,0,0,0,154.52,300.8Zm0,205A50.46,50.46,0,1,1,205,455.33a50.51,50.51,0,0,1-50.46,50.46Z"/><path class="cls-4" d="M286.31,416.15a71.27,71.27,0,0,0-11.54-24.59l-22.59-30.88a68.56,68.56,0,0,0-28.85-22.84l-37.07-15.49a66.37,66.37,0,0,0-38.54-3.91l-33.42,6.61a67.53,67.53,0,0,0-32.67,16.66l-33,30.46a70.63,70.63,0,0,0-20.48,34.48l-10.8,42.24a35.09,35.09,0,0,0-1.08,8A127.52,127.52,0,0,0,31.75,521c17.34,31.53,43.13,46,52.67,51.25,3.12,1.7,69.52,36.5,133.66,2.13,0,0,39.71-21.29,64.7-73.92,6.12-12.88,9.4-27.95,9.68-29.28,2.64-12.39,2.79-24.43.48-28.76ZM206.5,494.76c-15.27,19.68-45.65,29.31-71.78,22.2-5.25-1.42-25.22-6.86-37.08-26.69C88.15,474.43,89.33,458.54,90,453l4.17-21.87a38.7,38.7,0,0,1,16-24.7l7.34-5a51.94,51.94,0,0,1,25.47-9l14.88-1.11a53.22,53.22,0,0,1,32.72,8.3l6.1,3.9a56.11,56.11,0,0,1,24.54,36l1.35,6.56C223.4,451.55,220.33,477,206.5,494.76Z"/><rect class="cls-5" x="35.19" y="429.98" width="2.36" height="20.31" transform="translate(-294.45 147.56) rotate(-43.79)"/><rect class="cls-6" x="58.96" y="395.03" width="2.36" height="11.18" transform="translate(-211.13 99.75) rotate(-33.5)"/><rect class="cls-7" x="66.83" y="428.49" width="11.18" height="2.36" transform="translate(-344.34 302.5) rotate(-63.46)"/><rect class="cls-5" x="71.06" y="401.76" width="11.18" height="2.36" transform="matrix(0.61, -0.79, 0.79, 0.61, -289.25, 217.59)"/><rect class="cls-8" x="51.95" y="418.37" width="2.36" height="11.18" transform="matrix(0.13, -0.99, 0.99, 0.13, -374.13, 420)"/><rect class="cls-7" x="123.48" y="338.44" width="11.18" height="2.36" transform="translate(-218.7 234.45) rotate(-52.36)"/><rect class="cls-5" x="104.37" y="355.05" width="2.36" height="11.18" transform="matrix(0.13, -0.99, 0.99, 0.13, -265.95, 417.09)"/><rect class="cls-7" x="68.98" y="365.43" width="11.18" height="2.36" transform="translate(-156.14 72.1) rotate(-26.58)"/><rect class="cls-8" x="163.2" y="349.99" width="11.18" height="2.36" transform="translate(-189.85 503.47) rotate(-87.34)"/><rect class="cls-7" x="155.97" y="380.69" width="11.18" height="2.36" transform="translate(-157.15 116.64) rotate(-27.3)"/><rect class="cls-5" x="232.29" y="367.71" width="11.18" height="2.36" transform="translate(-169.84 206.3) rotate(-35.44)"/><rect class="cls-5" x="208.08" y="376.56" width="2.36" height="11.18" transform="translate(-225.31 413.38) rotate(-65.41)"/><rect class="cls-8" x="251.52" y="414.19" width="11.18" height="2.36" transform="translate(-83.37 65.07) rotate(-12.43)"/><rect class="cls-6" x="224.4" y="410.8" width="2.36" height="11.18" transform="translate(-221.75 260.95) rotate(-42.39)"/><rect class="cls-6" x="109.26" y="379.53" width="11.18" height="2.36" transform="translate(-197.04 134.02) rotate(-34.87)"/><rect class="cls-6" x="175.3" y="363.23" width="2.36" height="11.18" transform="translate(-187.25 182.08) rotate(-37.25)"/><rect class="cls-7" x="190.86" y="347.33" width="11.18" height="2.36" transform="translate(-169.68 187.27) rotate(-36.82)"/><rect class="cls-7" x="225.21" y="394.56" width="11.18" height="2.36" transform="matrix(0.52, -0.85, 0.85, 0.52, -227.19, 384.42)"/><rect class="cls-7" x="265.12" y="437.54" width="11.18" height="2.36" transform="translate(-231.72 323.29) rotate(-45.38)"/><rect class="cls-8" x="74.47" y="379.53" width="20.31" height="2.36" transform="translate(-280.77 244.38) rotate(-57.01)"/><rect class="cls-8" x="112.49" y="335.05" width="2.36" height="20.31" transform="translate(-170.76 118.96) rotate(-33.27)"/><rect class="cls-5" x="134.53" y="373.94" width="20.31" height="2.36" transform="translate(-255.51 336.46) rotate(-63.39)"/><rect class="cls-5" x="167.28" y="325.45" width="2.36" height="20.31" transform="translate(-193.78 434.55) rotate(-78.62)"/><rect class="cls-8" x="198.45" y="382.44" width="2.36" height="20.31" transform="translate(-221.04 262.13) rotate(-45.82)"/><rect class="cls-6" x="213.25" y="351.9" width="20.31" height="2.36" transform="translate(-184.61 263.08) rotate(-45.24)"/><rect class="cls-5" x="230.25" y="438.64" width="20.31" height="2.36" transform="translate(-257.16 379.26) rotate(-54.4)"/><rect class="cls-6" x="263" y="390.15" width="2.36" height="20.31" transform="translate(-171.41 199.55) rotate(-31.83)"/><rect class="cls-5" x="269.82" y="457.69" width="2.36" height="20.31" transform="translate(-248.38 317.62) rotate(-43.79)"/><rect class="cls-6" x="246.05" y="501.78" width="2.36" height="11.18" transform="translate(-238.97 220.74) rotate(-33.5)"/><rect class="cls-7" x="229.36" y="477.14" width="11.18" height="2.36" transform="translate(-297.95 474.82) rotate(-63.46)"/><rect class="cls-5" x="225.13" y="503.86" width="11.18" height="2.36" transform="translate(-310.11 379.36) rotate(-52.36)"/><rect class="cls-8" x="253.06" y="478.44" width="2.36" height="11.18" transform="translate(-259.4 671.37) rotate(-82.33)"/><rect class="cls-7" x="172.71" y="567.18" width="11.18" height="2.36" transform="translate(-380.67 362.49) rotate(-52.36)"/><rect class="cls-5" x="200.63" y="541.76" width="2.36" height="11.18" transform="translate(-367.58 674.28) rotate(-82.33)"/><rect class="cls-7" x="227.21" y="540.2" width="11.18" height="2.36" transform="translate(-217.61 161.36) rotate(-26.58)"/><rect class="cls-8" x="132.99" y="555.63" width="11.18" height="2.36" transform="translate(-424.06 669.38) rotate(-87.34)"/><rect class="cls-7" x="140.22" y="524.93" width="11.18" height="2.36" transform="translate(-225.06 125.48) rotate(-27.3)"/><rect class="cls-5" x="63.9" y="537.91" width="11.18" height="2.36" transform="translate(-299.74 140.2) rotate(-35.44)"/><rect class="cls-5" x="96.93" y="520.25" width="2.36" height="11.18" transform="translate(-420.86 396.2) rotate(-65.41)"/><rect class="cls-8" x="44.67" y="491.44" width="11.18" height="2.36" transform="translate(-104.85 22.36) rotate(-12.43)"/><rect class="cls-6" x="80.6" y="486.01" width="2.36" height="11.18" transform="translate(-310.05 183.67) rotate(-42.39)"/><rect class="cls-6" x="186.93" y="526.1" width="11.18" height="2.36" transform="translate(-266.89 204.74) rotate(-34.87)"/><rect class="cls-6" x="129.7" y="533.58" width="2.36" height="11.18" transform="translate(-299.67 189.23) rotate(-37.25)"/><rect class="cls-7" x="105.33" y="558.29" width="11.18" height="2.36" transform="translate(-313.19 178.09) rotate(-36.82)"/><rect class="cls-7" x="70.98" y="511.06" width="11.18" height="2.36" transform="translate(-399.6 308.49) rotate(-58.33)"/><rect class="cls-7" x="31.07" y="468.08" width="11.18" height="2.36" transform="translate(-323.13 165.77) rotate(-45.38)"/><rect class="cls-8" x="212.59" y="526.1" width="20.31" height="2.36" transform="translate(-340.8 426.99) rotate(-57.01)"/><rect class="cls-8" x="192.52" y="552.63" width="2.36" height="20.31" transform="translate(-277.01 198.54) rotate(-33.27)"/><rect class="cls-5" x="152.53" y="531.69" width="20.31" height="2.36" transform="translate(-386.61 439.65) rotate(-63.39)"/><rect class="cls-5" x="137.73" y="562.23" width="2.36" height="20.31" transform="translate(-449.63 595.65) rotate(-78.62)"/><rect class="cls-8" x="106.56" y="505.24" width="2.36" height="20.31" transform="translate(-336.95 233.45) rotate(-45.82)"/><rect class="cls-6" x="73.81" y="553.73" width="20.31" height="2.36" transform="translate(-369.17 223.78) rotate(-45.24)"/><rect class="cls-5" x="56.81" y="466.98" width="20.31" height="2.36" transform="translate(-352.68 250.08) rotate(-54.4)"/><rect class="cls-6" x="42.01" y="497.52" width="2.36" height="20.31" transform="translate(-261.28 99.15) rotate(-31.83)"/><g class="cls-9"><path class="cls-10" d="M98.37,668.59a3.5,3.5,0,0,1-.89-2.52,13.81,13.81,0,0,1,1-4.47,39.13,39.13,0,0,1,2.44-5.42,12,12,0,0,1,1.52-2.35,1.89,1.89,0,0,1,1.46-.58,2.7,2.7,0,0,1,1.68.48,1.8,1.8,0,0,1,.62,1.54,4.05,4.05,0,0,1-.14,1c-.35,1.47-.62,2.83-.79,4.08a29.31,29.31,0,0,0-.27,4.17,5.49,5.49,0,0,1-1.12,3.7,3.7,3.7,0,0,1-2.91,1.29A3.44,3.44,0,0,1,98.37,668.59Zm10.56,0a3.5,3.5,0,0,1-.89-2.52,13.81,13.81,0,0,1,1-4.47,39.13,39.13,0,0,1,2.44-5.42,12,12,0,0,1,1.52-2.35,1.89,1.89,0,0,1,1.46-.58,2.7,2.7,0,0,1,1.68.48,1.81,1.81,0,0,1,.63,1.54,4.11,4.11,0,0,1-.15,1c-.35,1.47-.62,2.83-.79,4.08a29.4,29.4,0,0,0-.26,4.17,5.49,5.49,0,0,1-1.13,3.7,3.7,3.7,0,0,1-2.91,1.29A3.44,3.44,0,0,1,108.93,668.59Z"/><path class="cls-10" d="M159.47,659.25a2.29,2.29,0,0,1,.74,1.68,2.81,2.81,0,0,1-.88,2.31,4,4,0,0,1-2.81.57q-4.32-.33-6.75-.45t-6.36-.17Q141.64,672,140.15,681q-.53,3.25-1.11,7.56t-.76,6.93a2.72,2.72,0,0,1-1.16,2.14,4.26,4.26,0,0,1-2.54.74,3.59,3.59,0,0,1-2.45-.76,2.59,2.59,0,0,1-.86-2,32.69,32.69,0,0,1,.36-3.82c.24-1.77.52-3.64.84-5.59s.62-3.65.81-5.09q.54-3.64,1.21-7.24c.44-2.4.89-4.68,1.34-6.82.1-.48.21-1,.33-1.66l.44-2.08a39.91,39.91,0,0,0-7.4.76,8,8,0,0,0-3.81,1.76,3.93,3.93,0,0,0-1.13,2.9,5.66,5.66,0,0,0,1,3.12,1.39,1.39,0,0,1,.19.72,2.16,2.16,0,0,1-1.08,1.7,3.72,3.72,0,0,1-2.23.8,1.91,1.91,0,0,1-1.34-.48,6.07,6.07,0,0,1-1.59-2.33,9,9,0,0,1-.62-3.43,8.55,8.55,0,0,1,2.66-6.56c1.78-1.64,4.48-2.85,8.12-3.62a69.48,69.48,0,0,1,14-1.15q5.28,0,8.42.19a48.8,48.8,0,0,1,5.5.62A4.41,4.41,0,0,1,159.47,659.25Z"/><path class="cls-10" d="M151.6,696.91a8.78,8.78,0,0,1-3-3.72,12.11,12.11,0,0,1-1-5,14.74,14.74,0,0,1,1.37-6.5,11,11,0,0,1,3.72-4.46,9,9,0,0,1,5.28-1.61,8.23,8.23,0,0,1,4.84,1.41,8.75,8.75,0,0,1,3,3.72,12.28,12.28,0,0,1,1,5,14.74,14.74,0,0,1-1.39,6.5,11.23,11.23,0,0,1-3.77,4.47,9.21,9.21,0,0,1-5.26,1.6A8.1,8.1,0,0,1,151.6,696.91Zm8.11-5.55a9.74,9.74,0,0,0,1.13-5.18,6.81,6.81,0,0,0-1-4,2.79,2.79,0,0,0-2.31-1.35,3.33,3.33,0,0,0-2.85,1.75,9.67,9.67,0,0,0-1.13,5.21,6.78,6.78,0,0,0,1,4,2.88,2.88,0,0,0,2.4,1.3A3.24,3.24,0,0,0,159.71,691.36Z"/><path class="cls-10" d="M183.61,696.4a18.54,18.54,0,0,1-.74-6.14,39.27,39.27,0,0,1,1.77-11.86,3.66,3.66,0,0,1,1.42-2,5,5,0,0,1,2.76-.64,2.67,2.67,0,0,1,1.34.24,1,1,0,0,1,.39.91,18.27,18.27,0,0,1-.72,3.45c-.32,1.28-.58,2.4-.77,3.36a35.69,35.69,0,0,0-.48,3.56,27.2,27.2,0,0,1,3.55-6.72,13.88,13.88,0,0,1,3.87-3.7,7,7,0,0,1,3.48-1.1q3.12,0,3.12,3.12a24.51,24.51,0,0,1-.44,3,18.47,18.47,0,0,0-.38,2.4q0,1.68,1.2,1.68c.9,0,2.05-.7,3.46-2.11a1.8,1.8,0,0,1,1.29-.63,1.13,1.13,0,0,1,1,.56,2.61,2.61,0,0,1,.36,1.46,3.87,3.87,0,0,1-1,2.78,13.18,13.18,0,0,1-3.15,2.38,7.78,7.78,0,0,1-3.81,1,5.32,5.32,0,0,1-3.87-1.29,4.7,4.7,0,0,1-1.32-3.51,7,7,0,0,1,.15-1.44q.09-1,.09-1.29c0-.51-.17-.77-.53-.77s-1.11.54-1.89,1.61a22.3,22.3,0,0,0-2.33,4.25,34.25,34.25,0,0,0-1.87,5.56,7.35,7.35,0,0,1-1.23,3,2.74,2.74,0,0,1-2.18.79A2.62,2.62,0,0,1,183.61,696.4Z"/><path class="cls-10" d="M227,688a3,3,0,0,1,.36,1.58,4.42,4.42,0,0,1-.91,3,17.51,17.51,0,0,1-5,4,13.89,13.89,0,0,1-6.94,1.82q-5,0-7.82-2.73a10,10,0,0,1-2.79-7.49,14,14,0,0,1,1.39-6.17,11.42,11.42,0,0,1,3.87-4.53,9.72,9.72,0,0,1,5.59-1.68,5.74,5.74,0,0,1,6.14,6.14,7.78,7.78,0,0,1-2.37,5.69q-2.38,2.37-8,3.77,1.2,2.2,4.56,2.2A10.47,10.47,0,0,0,220,692a16.24,16.24,0,0,0,4.77-4,1.69,1.69,0,0,1,1.3-.67A1.09,1.09,0,0,1,227,688Zm-16.08-5.48a9.7,9.7,0,0,0-1.22,5v.09a10.93,10.93,0,0,0,4.46-2,4,4,0,0,0,1.64-3.12,2.09,2.09,0,0,0-.51-1.47,1.74,1.74,0,0,0-1.37-.55A3.53,3.53,0,0,0,210.92,682.48Z"/><path class="cls-10" d="M225.32,695.66a9.62,9.62,0,0,1-2.61-7,14.53,14.53,0,0,1,1.53-6.82,11.81,11.81,0,0,1,4-4.51,9.25,9.25,0,0,1,5.13-1.58,5.37,5.37,0,0,1,4.11,1.56,5.63,5.63,0,0,1,1.46,4,6.14,6.14,0,0,1-.89,3.41,2.65,2.65,0,0,1-2.32,1.39,2.32,2.32,0,0,1-1.47-.43,1.44,1.44,0,0,1-.55-1.2,3.32,3.32,0,0,1,.1-.77c.06-.28.11-.49.14-.62a4.27,4.27,0,0,0,.24-1.34,1.34,1.34,0,0,0-.31-1,1.15,1.15,0,0,0-.89-.34,2.86,2.86,0,0,0-2.06,1,7,7,0,0,0-1.54,2.67,11.42,11.42,0,0,0-.58,3.69c0,3.72,1.62,5.57,4.85,5.57A8.58,8.58,0,0,0,237.9,692a17.45,17.45,0,0,0,4.49-4,1.66,1.66,0,0,1,1.29-.67,1.11,1.11,0,0,1,1,.58,3,3,0,0,1,.36,1.58,4.7,4.7,0,0,1-.91,3,15.76,15.76,0,0,1-5.4,4.29,14,14,0,0,1-6.08,1.51A9.79,9.79,0,0,1,225.32,695.66Z"/><path class="cls-10" d="M263.53,688a3,3,0,0,1,.36,1.58,4.42,4.42,0,0,1-.91,3,17.56,17.56,0,0,1-5,4,13.86,13.86,0,0,1-6.93,1.82q-5,0-7.83-2.73a10.05,10.05,0,0,1-2.78-7.49,13.88,13.88,0,0,1,1.39-6.17,11.42,11.42,0,0,1,3.87-4.53,9.69,9.69,0,0,1,5.59-1.68,6.09,6.09,0,0,1,4.46,1.65,6,6,0,0,1,1.68,4.49,7.78,7.78,0,0,1-2.37,5.69q-2.39,2.37-8,3.77c.79,1.47,2.32,2.2,4.56,2.2a10.5,10.5,0,0,0,4.92-1.51,16.24,16.24,0,0,0,4.77-4,1.69,1.69,0,0,1,1.3-.67A1.1,1.1,0,0,1,263.53,688Zm-16.08-5.48a9.7,9.7,0,0,0-1.22,5v.09a11,11,0,0,0,4.46-2,4,4,0,0,0,1.63-3.12,2.08,2.08,0,0,0-.5-1.47,1.76,1.76,0,0,0-1.37-.55A3.53,3.53,0,0,0,247.45,682.48Z"/><path class="cls-10" d="M261.37,696.12a10.79,10.79,0,0,1-1.42-5.86,35.64,35.64,0,0,1,.56-5.54,51.72,51.72,0,0,1,1.41-6.32,4,4,0,0,1,1.16-2.11,3.68,3.68,0,0,1,2.3-.57c1.63,0,2.45.54,2.45,1.63a37.78,37.78,0,0,1-.92,5.57,42.24,42.24,0,0,0-1.15,7.15,5,5,0,0,0,.39,2.21,1.32,1.32,0,0,0,1.29.76,3.59,3.59,0,0,0,2.16-1.2,40.27,40.27,0,0,0,3.46-3.79,1.66,1.66,0,0,1,1.29-.67,1.11,1.11,0,0,1,1,.58,3,3,0,0,1,.36,1.58,4.48,4.48,0,0,1-.91,3q-4.76,5.81-8.88,5.8A5,5,0,0,1,261.37,696.12Zm1.9-24.51a3.35,3.35,0,0,1-1-2.61,3.55,3.55,0,0,1,1.32-2.81,4.89,4.89,0,0,1,3.29-1.13,4.59,4.59,0,0,1,2.88.86,3,3,0,0,1,1.1,2.45,3.91,3.91,0,0,1-1.25,3,4.75,4.75,0,0,1-3.31,1.13A4.27,4.27,0,0,1,263.27,671.61Z"/><path class="cls-10" d="M296.53,683.44a1.32,1.32,0,0,1,1.1.48,2,2,0,0,1,.39,1.3,4,4,0,0,1-.58,2.33,3.21,3.21,0,0,1-1.73,1.22,15.06,15.06,0,0,1-4.7.72,13.53,13.53,0,0,1-4-.57q-1.39,2.25-3.08,4.65a16.37,16.37,0,0,1-3.31,3.75,5.27,5.27,0,0,1-3.17,1,3.63,3.63,0,0,1-3.09-1.53,9.76,9.76,0,0,1-1.42-4.85q-.57-6.72-.57-11.76V678.5a2.74,2.74,0,0,1,.86-2.21,4,4,0,0,1,2.45-.62,2.66,2.66,0,0,1,1.85.55,2.42,2.42,0,0,1,.6,1.85q0,5.52.67,14.35,2.88-4.27,4.32-6.82a7.09,7.09,0,0,1-.72-3.31,7.41,7.41,0,0,1,.72-3.17,6.58,6.58,0,0,1,2-2.49,4.51,4.51,0,0,1,2.83-1,2.85,2.85,0,0,1,2.25,1,4.2,4.2,0,0,1,.87,2.86,13.28,13.28,0,0,1-1.15,4.94,33,33,0,0,0,4.84-.72l1.3-.24A1.79,1.79,0,0,1,296.53,683.44Z"/><path class="cls-10" d="M312,689.4a3,3,0,0,1,.36,1.58,5.31,5.31,0,0,1-.82,3,9.37,9.37,0,0,1-3.52,3.21,11,11,0,0,1-5.21,1.15,9.23,9.23,0,0,1-7.15-2.76,10.55,10.55,0,0,1-2.55-7.46,14,14,0,0,1,1.39-6.17,11.42,11.42,0,0,1,3.87-4.53,9.72,9.72,0,0,1,5.59-1.68,5.74,5.74,0,0,1,6.14,6.14,7.78,7.78,0,0,1-2.37,5.69c-1.59,1.58-4.28,2.84-8.09,3.77a4,4,0,0,0,3.89,2.2,5.42,5.42,0,0,0,3.24-.91,15.37,15.37,0,0,0,3-3.07,1.65,1.65,0,0,1,1.3-.72A1.1,1.1,0,0,1,312,689.4Zm-11.86-6.92a9.7,9.7,0,0,0-1.22,5v.09a10.93,10.93,0,0,0,4.46-2,4,4,0,0,0,1.64-3.12,2.09,2.09,0,0,0-.51-1.47,1.74,1.74,0,0,0-1.37-.55A3.53,3.53,0,0,0,300.15,682.48Z"/><path class="cls-10" d="M315.87,669a1.82,1.82,0,0,1-.62-1.53,4.5,4.5,0,0,1,.14-1c.35-1.47.62-2.83.8-4.08a31.11,31.11,0,0,0,.26-4.18,5.45,5.45,0,0,1,1.13-3.69,3.65,3.65,0,0,1,2.9-1.3,3.44,3.44,0,0,1,2.62.94,3.51,3.51,0,0,1,.89,2.52,14,14,0,0,1-1,4.46,38.78,38.78,0,0,1-2.45,5.43A13,13,0,0,1,319,669a2,2,0,0,1-1.47.57A2.7,2.7,0,0,1,315.87,669Zm10.56,0a1.82,1.82,0,0,1-.62-1.53,4.5,4.5,0,0,1,.14-1c.35-1.47.62-2.83.79-4.08a29.45,29.45,0,0,0,.27-4.18,5.4,5.4,0,0,1,1.13-3.69,3.65,3.65,0,0,1,2.9-1.3,3.44,3.44,0,0,1,2.62.94,3.5,3.5,0,0,1,.88,2.52,13.91,13.91,0,0,1-1,4.46,38.78,38.78,0,0,1-2.45,5.43,13,13,0,0,1-1.51,2.35,2,2,0,0,1-1.47.57A2.7,2.7,0,0,1,326.43,669Z"/><path class="cls-10" d="M357.4,689.52c0,1.89-1.48,2.84-4.46,2.84a14.12,14.12,0,0,1-2.48-.32c.31,1.48.57,3.13.77,5a42.62,42.62,0,0,1,.31,4.48,11.46,11.46,0,0,1-1.26,5.94,3.78,3.78,0,0,1-3.32,2.05q-2.58,0-3.69-3.67a41.74,41.74,0,0,1-1.09-11.09,67.74,67.74,0,0,1,1.49-14,41.79,41.79,0,0,1,4.1-11.77q2.61-4.67,5.75-4.67a3,3,0,0,1,2.64,1.52,7.48,7.48,0,0,1,1,4.06q0,8.46-10.12,18.44a61.79,61.79,0,0,0-.36,6.19q0,3.7.25,7.61c.17,2.61.45,3.91.83,3.91q1.08,0,1.08-3.75a38.36,38.36,0,0,0-.38-5.43q-.37-2.62-1-5.55a2.35,2.35,0,0,1,.3-1.18,4.89,4.89,0,0,1,.85-1.26,1.34,1.34,0,0,1,.9-.54c.48,0,1.05,0,1.73.07q.31,0,.75,0a22.64,22.64,0,0,0,3.21-.25l.61-.07c.21,0,.43,0,.65,0C357.07,688,357.4,688.51,357.4,689.52ZM351.16,670a39.93,39.93,0,0,0-1.89,5.82q-.94,3.61-1.62,7.65a26.67,26.67,0,0,0,4.43-6.82,17.17,17.17,0,0,0,1.58-6.65q0-2.19-.9-2.19C352.33,667.81,351.79,668.54,351.16,670Z"/><path class="cls-10" d="M371.46,690.49a2.23,2.23,0,0,1,.27,1.19,3.34,3.34,0,0,1-.68,2.23,13.31,13.31,0,0,1-3.76,3,10.47,10.47,0,0,1-5.21,1.36,8,8,0,0,1-5.86-2,7.48,7.48,0,0,1-2.09-5.61,10.51,10.51,0,0,1,1-4.63,8.53,8.53,0,0,1,2.9-3.4,7.28,7.28,0,0,1,4.19-1.26,4.31,4.31,0,0,1,4.61,4.61,5.81,5.81,0,0,1-1.78,4.26q-1.79,1.79-6,2.83a3.54,3.54,0,0,0,3.42,1.65,7.82,7.82,0,0,0,3.69-1.13,12.33,12.33,0,0,0,3.58-3,1.25,1.25,0,0,1,1-.5A.82.82,0,0,1,371.46,690.49Zm-12.06-4.11a7.26,7.26,0,0,0-.92,3.75v.07a8.21,8.21,0,0,0,3.35-1.51,3,3,0,0,0,1.23-2.34,1.58,1.58,0,0,0-.38-1.1,1.31,1.31,0,0,0-1-.41A2.63,2.63,0,0,0,359.4,686.38Z"/><path class="cls-10" d="M369.5,696.64a6.44,6.44,0,0,1-1.33-4.24,11.71,11.71,0,0,1,1.33-5.46,11.46,11.46,0,0,1,3.55-4.14,8,8,0,0,1,4.69-1.56,1.44,1.44,0,0,1,1.07.3,2.62,2.62,0,0,1,.45,1.1,8.08,8.08,0,0,1,1.58-.14c1.18,0,1.76.42,1.76,1.26a27.2,27.2,0,0,1-.54,3.6,34.88,34.88,0,0,0-.82,5.76,1.3,1.3,0,0,0,.27.86.85.85,0,0,0,.7.32,2.7,2.7,0,0,0,1.65-.88,30.11,30.11,0,0,0,2.63-2.86,1.25,1.25,0,0,1,1-.5.82.82,0,0,1,.74.43,2.23,2.23,0,0,1,.27,1.19,3.34,3.34,0,0,1-.68,2.23,18.59,18.59,0,0,1-3.13,3.09,5.37,5.37,0,0,1-3.21,1.26,3.37,3.37,0,0,1-2.18-.81,4.93,4.93,0,0,1-1.49-2.21c-1.25,2-2.82,3-4.72,3A4.38,4.38,0,0,1,369.5,696.64Zm6.37-2.95a6.09,6.09,0,0,0,1.05-2.48l1.33-6.63a4.4,4.4,0,0,0-2.79,1.14,7.73,7.73,0,0,0-2,2.9,9.81,9.81,0,0,0-.75,3.81,2.55,2.55,0,0,0,.45,1.66,1.52,1.52,0,0,0,1.24.54A2,2,0,0,0,375.87,693.69Z"/><path class="cls-10" d="M402.35,690.49a2.23,2.23,0,0,1,.27,1.19,3.34,3.34,0,0,1-.68,2.23,15.52,15.52,0,0,1-3.39,3.13,7.38,7.38,0,0,1-4.21,1.22q-7.35,0-7.34-10.33c0-1,0-2.12.1-3.2h-1.4a2,2,0,0,1-1.46-.4,1.77,1.77,0,0,1-.38-1.26q0-2,1.62-2h2.06a34.51,34.51,0,0,1,1.87-7.24,16.38,16.38,0,0,1,3-5.22,5.17,5.17,0,0,1,3.83-1.94,2.7,2.7,0,0,1,2.38,1.33,6,6,0,0,1,.86,3.35,12.61,12.61,0,0,1-4.68,9.72h4a1.1,1.1,0,0,1,.82.25,1.31,1.31,0,0,1,.26.93q0,2.49-4.07,2.49H391.5c-.05,1.2-.08,2.13-.08,2.81q0,3.74.89,5.25a3,3,0,0,0,2.79,1.51,4.3,4.3,0,0,0,2.73-.93,22.27,22.27,0,0,0,2.81-2.81,1.25,1.25,0,0,1,1-.5A.83.83,0,0,1,402.35,690.49Zm-8.24-19a18.42,18.42,0,0,0-1.26,3.75,47.7,47.7,0,0,0-1,5.31,12.41,12.41,0,0,0,3.18-4.13,9.94,9.94,0,0,0,1.06-4.15c0-1.42-.26-2.13-.79-2.13Q394.77,670.11,394.11,671.46Z"/><path class="cls-10" d="M400.73,696.77a6.48,6.48,0,0,1-1-3.73,28.77,28.77,0,0,1,1.55-9.72,3,3,0,0,1,1-1.54,3.56,3.56,0,0,1,2.05-.47,1.78,1.78,0,0,1,1.1.25.94.94,0,0,1,.31.76,16.11,16.11,0,0,1-.4,1.94c-.24.89-.43,1.69-.58,2.41a34.05,34.05,0,0,0-.72,5,2.21,2.21,0,0,0,.18,1.06.62.62,0,0,0,.58.31q.54,0,1.35-1.08a16.15,16.15,0,0,0,1.73-3.28,44.38,44.38,0,0,0,1.78-5.4,2.82,2.82,0,0,1,.88-1.54,2.86,2.86,0,0,1,1.78-.47,2.31,2.31,0,0,1,1.16.2.79.79,0,0,1,.32.73,35,35,0,0,1-.9,4.94,40.28,40.28,0,0,0-1,5.68,1.77,1.77,0,0,0,.29,1.07.9.9,0,0,0,.76.37,2.82,2.82,0,0,0,1.71-.88,29.93,29.93,0,0,0,2.64-2.86,1.25,1.25,0,0,1,1-.5.82.82,0,0,1,.74.43,2.23,2.23,0,0,1,.27,1.19,3.34,3.34,0,0,1-.68,2.23,16.23,16.23,0,0,1-3.33,3.13,7,7,0,0,1-4.05,1.22,2.75,2.75,0,0,1-2.54-1.33,7.21,7.21,0,0,1-.81-3.74A8.44,8.44,0,0,1,406,697a3.54,3.54,0,0,1-2.62,1.31A3.08,3.08,0,0,1,400.73,696.77Z"/><path class="cls-10" d="M417,696.82a13.53,13.53,0,0,1-.56-4.6,29.32,29.32,0,0,1,1.33-8.9,2.73,2.73,0,0,1,1.06-1.53,3.77,3.77,0,0,1,2.07-.48,2,2,0,0,1,1,.18.75.75,0,0,1,.29.68,13.56,13.56,0,0,1-.54,2.59c-.24,1-.43,1.8-.58,2.52s-.26,1.61-.36,2.67a20,20,0,0,1,2.67-5,10.25,10.25,0,0,1,2.89-2.77,5.21,5.21,0,0,1,2.61-.83,2.07,2.07,0,0,1,2.34,2.34,17.07,17.07,0,0,1-.32,2.27,13.77,13.77,0,0,0-.29,1.8q0,1.26.9,1.26a4.31,4.31,0,0,0,2.59-1.59,1.41,1.41,0,0,1,1-.47.83.83,0,0,1,.73.42,2,2,0,0,1,.27,1.1,2.89,2.89,0,0,1-.72,2.08,9.8,9.8,0,0,1-2.35,1.79,6,6,0,0,1-2.87.73,3.93,3.93,0,0,1-2.89-1,3.51,3.51,0,0,1-1-2.63,5.64,5.64,0,0,1,.1-1.08c.05-.48.07-.8.07-1q0-.57-.39-.57c-.36,0-.83.4-1.42,1.2a17.27,17.27,0,0,0-1.75,3.19,26.51,26.51,0,0,0-1.4,4.17,5.7,5.7,0,0,1-.92,2.29,2.07,2.07,0,0,1-1.64.59A2,2,0,0,1,417,696.82Z"/><path class="cls-10" d="M446.34,691.57a2.23,2.23,0,0,1,.27,1.19A4,4,0,0,1,446,695a7,7,0,0,1-2.65,2.41,8.19,8.19,0,0,1-3.9.86,7,7,0,0,1-5.37-2.07,7.93,7.93,0,0,1-1.9-5.59,10.37,10.37,0,0,1,1-4.63,8.46,8.46,0,0,1,2.9-3.4,7.26,7.26,0,0,1,4.19-1.26,4.31,4.31,0,0,1,4.61,4.61,5.81,5.81,0,0,1-1.78,4.26q-1.78,1.79-6.07,2.83a3,3,0,0,0,2.92,1.65,4.06,4.06,0,0,0,2.43-.68,12,12,0,0,0,2.21-2.3,1.24,1.24,0,0,1,1-.54A.83.83,0,0,1,446.34,691.57Zm-8.89-5.19a7.26,7.26,0,0,0-.92,3.75v.07a8.27,8.27,0,0,0,3.35-1.51,3,3,0,0,0,1.22-2.34,1.58,1.58,0,0,0-.37-1.1,1.33,1.33,0,0,0-1-.41A2.63,2.63,0,0,0,437.45,686.38Z"/><path class="cls-10" d="M460.88,698.19a2.51,2.51,0,0,1-1-1.94,2.18,2.18,0,0,1,.68-1.62,2.72,2.72,0,0,1,2-.69,7.82,7.82,0,0,1,1.09.09l1,.13a4.59,4.59,0,0,0-.42-1.76,8.83,8.83,0,0,0-1-1.61c-.38-.51-.75-1-1.08-1.35A23.69,23.69,0,0,1,460,693a27.55,27.55,0,0,1-2.4,2.67,1.92,1.92,0,0,1-1.37.64,1.16,1.16,0,0,1-.93-.41,1.52,1.52,0,0,1-.36-1,2.08,2.08,0,0,1,.5-1.33l.47-.57a49,49,0,0,0,3-4q.6-1,1.44-2.79c.55-1.16,1.09-2.37,1.62-3.61a2.76,2.76,0,0,1,2.84-1.59,3.84,3.84,0,0,1,1.41.18.6.6,0,0,1,.39.58,2.87,2.87,0,0,1-.14.68,5.41,5.41,0,0,1-.4.94,5.17,5.17,0,0,0-.65,2.19,2.42,2.42,0,0,0,.38,1.19,13.35,13.35,0,0,0,1.17,1.62,23.25,23.25,0,0,1,1.75,2.58,4.71,4.71,0,0,1,.59,2.32,9.27,9.27,0,0,1-.07,1,11.54,11.54,0,0,0,4.14-3.64,1.25,1.25,0,0,1,1-.5.83.83,0,0,1,.74.43,2.23,2.23,0,0,1,.27,1.19,3.53,3.53,0,0,1-.68,2.23,11.08,11.08,0,0,1-3.44,3,9.85,9.85,0,0,1-4.05.88,5.09,5.09,0,0,1-3.42,1.23A4.23,4.23,0,0,1,460.88,698.19Z"/><path class="cls-10" d="M491.5,687.5a2.47,2.47,0,0,1,.25,1.19c0,1.15-.34,1.83-1,2a16.43,16.43,0,0,1-4.75.86,9.08,9.08,0,0,1-2.7,4.85,6.66,6.66,0,0,1-4.57,1.81,6.36,6.36,0,0,1-3.69-1,6.7,6.7,0,0,1-2.33-2.77,9,9,0,0,1-.79-3.75,10.89,10.89,0,0,1,1.05-4.87,8.08,8.08,0,0,1,2.88-3.35,7.19,7.19,0,0,1,4.06-1.21,5.59,5.59,0,0,1,4.41,1.89,8.15,8.15,0,0,1,2,4.66,21.58,21.58,0,0,0,4-.72,2.59,2.59,0,0,1,.5-.07A.79.79,0,0,1,491.5,687.5Zm-10.53,6a5.19,5.19,0,0,0,1.14-2.7,4.83,4.83,0,0,1-1.71-2,5.79,5.79,0,0,1-.6-2.59,6.4,6.4,0,0,1,.11-1.15h-.18a2.82,2.82,0,0,0-2.39,1.38,6.83,6.83,0,0,0-1,3.91,5,5,0,0,0,.78,3,2.22,2.22,0,0,0,1.81,1.05A2.59,2.59,0,0,0,481,693.51Z"/><path class="cls-10" d="M507.74,687.5a2.47,2.47,0,0,1,.25,1.19c0,1.15-.35,1.83-1,2a16.5,16.5,0,0,1-4.76.86,9,9,0,0,1-2.7,4.85,6.62,6.62,0,0,1-4.57,1.81,6.36,6.36,0,0,1-3.69-1,6.67,6.67,0,0,1-2.32-2.77,8.85,8.85,0,0,1-.79-3.75,10.89,10.89,0,0,1,1-4.87,8.23,8.23,0,0,1,2.88-3.35,7.23,7.23,0,0,1,4.07-1.21,5.62,5.62,0,0,1,4.41,1.89,8.07,8.07,0,0,1,2,4.66,21.44,21.44,0,0,0,4-.72A2.58,2.58,0,0,1,507,687,.79.79,0,0,1,507.74,687.5Zm-10.53,6a5.18,5.18,0,0,0,1.13-2.7,5,5,0,0,1-1.71-2,5.92,5.92,0,0,1-.59-2.59,5.6,5.6,0,0,1,.11-1.15H496a2.84,2.84,0,0,0-2.4,1.38,6.91,6.91,0,0,0-.95,3.91,5,5,0,0,0,.77,3,2.24,2.24,0,0,0,1.82,1.05A2.61,2.61,0,0,0,497.21,693.51Z"/><path class="cls-10" d="M505.52,696.82a13.79,13.79,0,0,1-.56-4.6,29.32,29.32,0,0,1,1.34-8.9,2.73,2.73,0,0,1,1.06-1.53,3.77,3.77,0,0,1,2.07-.48,2.06,2.06,0,0,1,1,.18.74.74,0,0,1,.28.68,13.56,13.56,0,0,1-.54,2.59c-.23,1-.43,1.8-.57,2.52a22.89,22.89,0,0,0-.36,2.67,20.32,20.32,0,0,1,2.66-5,10.4,10.4,0,0,1,2.9-2.77,5.21,5.21,0,0,1,2.61-.83,2.08,2.08,0,0,1,2.34,2.34,29.06,29.06,0,0,1-.39,3.53c-.25,1.46-.44,2.85-.58,4.15a41.32,41.32,0,0,0-.22,4.38,2.78,2.78,0,0,1-.56,2,2.36,2.36,0,0,1-1.81.59,2.19,2.19,0,0,1-1.73-.61,2.7,2.7,0,0,1-.54-1.83,37.13,37.13,0,0,1,.5-4.76,34.15,34.15,0,0,0,.44-3.67c0-.38-.14-.57-.4-.57s-.75.4-1.31,1.2a18.61,18.61,0,0,0-1.73,3.19,25.6,25.6,0,0,0-1.43,4.17,5.73,5.73,0,0,1-.91,2.29,2.07,2.07,0,0,1-1.64.59A2,2,0,0,1,505.52,696.82Z"/></g><path class="cls-11" d="M98.37,666.59a3.5,3.5,0,0,1-.89-2.52,13.81,13.81,0,0,1,1-4.47,39.13,39.13,0,0,1,2.44-5.42,12,12,0,0,1,1.52-2.35,1.89,1.89,0,0,1,1.46-.58,2.7,2.7,0,0,1,1.68.48,1.8,1.8,0,0,1,.62,1.54,4.05,4.05,0,0,1-.14,1c-.35,1.47-.62,2.83-.79,4.08a29.31,29.31,0,0,0-.27,4.17,5.49,5.49,0,0,1-1.12,3.7,3.7,3.7,0,0,1-2.91,1.29A3.44,3.44,0,0,1,98.37,666.59Zm10.56,0a3.5,3.5,0,0,1-.89-2.52,13.81,13.81,0,0,1,1-4.47,39.13,39.13,0,0,1,2.44-5.42,12,12,0,0,1,1.52-2.35,1.89,1.89,0,0,1,1.46-.58,2.7,2.7,0,0,1,1.68.48,1.81,1.81,0,0,1,.63,1.54,4.11,4.11,0,0,1-.15,1c-.35,1.47-.62,2.83-.79,4.08a29.4,29.4,0,0,0-.26,4.17,5.49,5.49,0,0,1-1.13,3.7,3.7,3.7,0,0,1-2.91,1.29A3.44,3.44,0,0,1,108.93,666.59Z"/><path class="cls-11" d="M159.47,657.25a2.29,2.29,0,0,1,.74,1.68,2.81,2.81,0,0,1-.88,2.31,4,4,0,0,1-2.81.57q-4.32-.33-6.75-.45t-6.36-.17Q141.64,670,140.15,679q-.53,3.25-1.11,7.56t-.76,6.93a2.72,2.72,0,0,1-1.16,2.14,4.26,4.26,0,0,1-2.54.74,3.59,3.59,0,0,1-2.45-.76,2.59,2.59,0,0,1-.86-2,32.69,32.69,0,0,1,.36-3.82c.24-1.77.52-3.64.84-5.59s.62-3.65.81-5.09q.54-3.64,1.21-7.24c.44-2.4.89-4.68,1.34-6.82.1-.48.21-1,.33-1.66l.44-2.08a39.91,39.91,0,0,0-7.4.76,8,8,0,0,0-3.81,1.76,3.93,3.93,0,0,0-1.13,2.9,5.66,5.66,0,0,0,1,3.12,1.39,1.39,0,0,1,.19.72,2.16,2.16,0,0,1-1.08,1.7,3.72,3.72,0,0,1-2.23.8,1.91,1.91,0,0,1-1.34-.48,6.07,6.07,0,0,1-1.59-2.33,9,9,0,0,1-.62-3.43,8.55,8.55,0,0,1,2.66-6.56c1.78-1.64,4.48-2.85,8.12-3.62a69.48,69.48,0,0,1,14-1.15q5.28,0,8.42.19a48.8,48.8,0,0,1,5.5.62A4.41,4.41,0,0,1,159.47,657.25Z"/><path class="cls-11" d="M151.6,694.91a8.78,8.78,0,0,1-3-3.72,12.11,12.11,0,0,1-1-5,14.74,14.74,0,0,1,1.37-6.5,11,11,0,0,1,3.72-4.46,9,9,0,0,1,5.28-1.61,8.23,8.23,0,0,1,4.84,1.41,8.75,8.75,0,0,1,3,3.72,12.28,12.28,0,0,1,1,5,14.74,14.74,0,0,1-1.39,6.5,11.23,11.23,0,0,1-3.77,4.47,9.21,9.21,0,0,1-5.26,1.6A8.1,8.1,0,0,1,151.6,694.91Zm8.11-5.55a9.74,9.74,0,0,0,1.13-5.18,6.81,6.81,0,0,0-1-4,2.79,2.79,0,0,0-2.31-1.35,3.33,3.33,0,0,0-2.85,1.75,9.67,9.67,0,0,0-1.13,5.21,6.78,6.78,0,0,0,1,4,2.88,2.88,0,0,0,2.4,1.3A3.24,3.24,0,0,0,159.71,689.36Z"/><path class="cls-11" d="M183.61,694.4a18.54,18.54,0,0,1-.74-6.14,39.27,39.27,0,0,1,1.77-11.86,3.66,3.66,0,0,1,1.42-2,5,5,0,0,1,2.76-.64,2.67,2.67,0,0,1,1.34.24,1,1,0,0,1,.39.91,18.27,18.27,0,0,1-.72,3.45c-.32,1.28-.58,2.4-.77,3.36a35.69,35.69,0,0,0-.48,3.56,27.2,27.2,0,0,1,3.55-6.72,13.88,13.88,0,0,1,3.87-3.7,7,7,0,0,1,3.48-1.1q3.12,0,3.12,3.12a24.51,24.51,0,0,1-.44,3,18.47,18.47,0,0,0-.38,2.4q0,1.68,1.2,1.68c.9,0,2.05-.7,3.46-2.11a1.8,1.8,0,0,1,1.29-.63,1.13,1.13,0,0,1,1,.56,2.61,2.61,0,0,1,.36,1.46,3.87,3.87,0,0,1-1,2.78,13.18,13.18,0,0,1-3.15,2.38,7.78,7.78,0,0,1-3.81,1,5.32,5.32,0,0,1-3.87-1.29,4.7,4.7,0,0,1-1.32-3.51,7,7,0,0,1,.15-1.44q.09-1,.09-1.29c0-.51-.17-.77-.53-.77s-1.11.54-1.89,1.61a22.3,22.3,0,0,0-2.33,4.25,34.25,34.25,0,0,0-1.87,5.56,7.35,7.35,0,0,1-1.23,3,2.74,2.74,0,0,1-2.18.79A2.62,2.62,0,0,1,183.61,694.4Z"/><path class="cls-11" d="M227,686a3,3,0,0,1,.36,1.58,4.42,4.42,0,0,1-.91,3,17.51,17.51,0,0,1-5,4,13.89,13.89,0,0,1-6.94,1.82q-5,0-7.82-2.73a10,10,0,0,1-2.79-7.49,14,14,0,0,1,1.39-6.17,11.42,11.42,0,0,1,3.87-4.53,9.72,9.72,0,0,1,5.59-1.68,5.74,5.74,0,0,1,6.14,6.14,7.78,7.78,0,0,1-2.37,5.69q-2.38,2.37-8,3.77,1.2,2.2,4.56,2.2A10.47,10.47,0,0,0,220,690a16.24,16.24,0,0,0,4.77-4,1.69,1.69,0,0,1,1.3-.67A1.09,1.09,0,0,1,227,686Zm-16.08-5.48a9.7,9.7,0,0,0-1.22,5v.09a10.93,10.93,0,0,0,4.46-2,4,4,0,0,0,1.64-3.12,2.09,2.09,0,0,0-.51-1.47,1.74,1.74,0,0,0-1.37-.55A3.53,3.53,0,0,0,210.92,680.48Z"/><path class="cls-11" d="M225.32,693.66a9.62,9.62,0,0,1-2.61-7,14.53,14.53,0,0,1,1.53-6.82,11.81,11.81,0,0,1,4-4.51,9.25,9.25,0,0,1,5.13-1.58,5.37,5.37,0,0,1,4.11,1.56,5.63,5.63,0,0,1,1.46,4,6.14,6.14,0,0,1-.89,3.41,2.65,2.65,0,0,1-2.32,1.39,2.32,2.32,0,0,1-1.47-.43,1.44,1.44,0,0,1-.55-1.2,3.32,3.32,0,0,1,.1-.77c.06-.28.11-.49.14-.62a4.27,4.27,0,0,0,.24-1.34,1.34,1.34,0,0,0-.31-1,1.15,1.15,0,0,0-.89-.34,2.86,2.86,0,0,0-2.06,1,7,7,0,0,0-1.54,2.67,11.42,11.42,0,0,0-.58,3.69c0,3.72,1.62,5.57,4.85,5.57A8.58,8.58,0,0,0,237.9,690a17.45,17.45,0,0,0,4.49-4,1.66,1.66,0,0,1,1.29-.67,1.11,1.11,0,0,1,1,.58,3,3,0,0,1,.36,1.58,4.7,4.7,0,0,1-.91,3,15.76,15.76,0,0,1-5.4,4.29,14,14,0,0,1-6.08,1.51A9.79,9.79,0,0,1,225.32,693.66Z"/><path class="cls-11" d="M263.53,686a3,3,0,0,1,.36,1.58,4.42,4.42,0,0,1-.91,3,17.56,17.56,0,0,1-5,4,13.86,13.86,0,0,1-6.93,1.82q-5,0-7.83-2.73a10.05,10.05,0,0,1-2.78-7.49,13.88,13.88,0,0,1,1.39-6.17,11.42,11.42,0,0,1,3.87-4.53,9.69,9.69,0,0,1,5.59-1.68,6.09,6.09,0,0,1,4.46,1.65,6,6,0,0,1,1.68,4.49,7.78,7.78,0,0,1-2.37,5.69q-2.39,2.37-8,3.77c.79,1.47,2.32,2.2,4.56,2.2a10.5,10.5,0,0,0,4.92-1.51,16.24,16.24,0,0,0,4.77-4,1.69,1.69,0,0,1,1.3-.67A1.1,1.1,0,0,1,263.53,686Zm-16.08-5.48a9.7,9.7,0,0,0-1.22,5v.09a11,11,0,0,0,4.46-2,4,4,0,0,0,1.63-3.12,2.08,2.08,0,0,0-.5-1.47,1.76,1.76,0,0,0-1.37-.55A3.53,3.53,0,0,0,247.45,680.48Z"/><path class="cls-11" d="M261.37,694.12a10.79,10.79,0,0,1-1.42-5.86,35.64,35.64,0,0,1,.56-5.54,51.72,51.72,0,0,1,1.41-6.32,4,4,0,0,1,1.16-2.11,3.68,3.68,0,0,1,2.3-.57c1.63,0,2.45.54,2.45,1.63a37.78,37.78,0,0,1-.92,5.57,42.24,42.24,0,0,0-1.15,7.15,5,5,0,0,0,.39,2.21,1.32,1.32,0,0,0,1.29.76,3.59,3.59,0,0,0,2.16-1.2,40.27,40.27,0,0,0,3.46-3.79,1.66,1.66,0,0,1,1.29-.67,1.11,1.11,0,0,1,1,.58,3,3,0,0,1,.36,1.58,4.48,4.48,0,0,1-.91,3q-4.76,5.81-8.88,5.8A5,5,0,0,1,261.37,694.12Zm1.9-24.51a3.35,3.35,0,0,1-1-2.61,3.55,3.55,0,0,1,1.32-2.81,4.89,4.89,0,0,1,3.29-1.13,4.59,4.59,0,0,1,2.88.86,3,3,0,0,1,1.1,2.45,3.91,3.91,0,0,1-1.25,3,4.75,4.75,0,0,1-3.31,1.13A4.27,4.27,0,0,1,263.27,669.61Z"/><path class="cls-11" d="M296.53,681.44a1.32,1.32,0,0,1,1.1.48,2,2,0,0,1,.39,1.3,4,4,0,0,1-.58,2.33,3.21,3.21,0,0,1-1.73,1.22,15.06,15.06,0,0,1-4.7.72,13.53,13.53,0,0,1-4-.57q-1.39,2.25-3.08,4.65a16.37,16.37,0,0,1-3.31,3.75,5.27,5.27,0,0,1-3.17,1,3.63,3.63,0,0,1-3.09-1.53,9.76,9.76,0,0,1-1.42-4.85q-.57-6.72-.57-11.76V676.5a2.74,2.74,0,0,1,.86-2.21,4,4,0,0,1,2.45-.62,2.66,2.66,0,0,1,1.85.55,2.42,2.42,0,0,1,.6,1.85q0,5.52.67,14.35,2.88-4.27,4.32-6.82a7.09,7.09,0,0,1-.72-3.31,7.41,7.41,0,0,1,.72-3.17,6.58,6.58,0,0,1,2-2.49,4.51,4.51,0,0,1,2.83-1,2.85,2.85,0,0,1,2.25,1,4.2,4.2,0,0,1,.87,2.86,13.28,13.28,0,0,1-1.15,4.94,33,33,0,0,0,4.84-.72l1.3-.24A1.79,1.79,0,0,1,296.53,681.44Z"/><path class="cls-11" d="M312,687.4a3,3,0,0,1,.36,1.58,5.31,5.31,0,0,1-.82,3,9.37,9.37,0,0,1-3.52,3.21,11,11,0,0,1-5.21,1.15,9.23,9.23,0,0,1-7.15-2.76,10.55,10.55,0,0,1-2.55-7.46,14,14,0,0,1,1.39-6.17,11.42,11.42,0,0,1,3.87-4.53,9.72,9.72,0,0,1,5.59-1.68,5.74,5.74,0,0,1,6.14,6.14,7.78,7.78,0,0,1-2.37,5.69c-1.59,1.58-4.28,2.84-8.09,3.77a4,4,0,0,0,3.89,2.2,5.42,5.42,0,0,0,3.24-.91,15.37,15.37,0,0,0,3-3.07,1.65,1.65,0,0,1,1.3-.72A1.1,1.1,0,0,1,312,687.4Zm-11.86-6.92a9.7,9.7,0,0,0-1.22,5v.09a10.93,10.93,0,0,0,4.46-2,4,4,0,0,0,1.64-3.12,2.09,2.09,0,0,0-.51-1.47,1.74,1.74,0,0,0-1.37-.55A3.53,3.53,0,0,0,300.15,680.48Z"/><path class="cls-11" d="M315.87,667a1.82,1.82,0,0,1-.62-1.53,4.5,4.5,0,0,1,.14-1c.35-1.47.62-2.83.8-4.08a31.11,31.11,0,0,0,.26-4.18,5.45,5.45,0,0,1,1.13-3.69,3.65,3.65,0,0,1,2.9-1.3,3.44,3.44,0,0,1,2.62.94,3.51,3.51,0,0,1,.89,2.52,14,14,0,0,1-1,4.46,38.78,38.78,0,0,1-2.45,5.43A13,13,0,0,1,319,667a2,2,0,0,1-1.47.57A2.7,2.7,0,0,1,315.87,667Zm10.56,0a1.82,1.82,0,0,1-.62-1.53,4.5,4.5,0,0,1,.14-1c.35-1.47.62-2.83.79-4.08a29.45,29.45,0,0,0,.27-4.18,5.4,5.4,0,0,1,1.13-3.69,3.65,3.65,0,0,1,2.9-1.3,3.44,3.44,0,0,1,2.62.94,3.5,3.5,0,0,1,.88,2.52,13.91,13.91,0,0,1-1,4.46,38.78,38.78,0,0,1-2.45,5.43,13,13,0,0,1-1.51,2.35,2,2,0,0,1-1.47.57A2.7,2.7,0,0,1,326.43,667Z"/><path class="cls-12" d="M357.4,687.52c0,1.89-1.48,2.84-4.46,2.84a14.12,14.12,0,0,1-2.48-.32c.31,1.48.57,3.13.77,5a42.62,42.62,0,0,1,.31,4.48,11.46,11.46,0,0,1-1.26,5.94,3.78,3.78,0,0,1-3.32,2.05q-2.58,0-3.69-3.67a41.74,41.74,0,0,1-1.09-11.09,67.74,67.74,0,0,1,1.49-14,41.79,41.79,0,0,1,4.1-11.77q2.61-4.67,5.75-4.67a3,3,0,0,1,2.64,1.52,7.48,7.48,0,0,1,1,4.06q0,8.46-10.12,18.44a61.79,61.79,0,0,0-.36,6.19q0,3.7.25,7.61c.17,2.61.45,3.91.83,3.91q1.08,0,1.08-3.75a38.36,38.36,0,0,0-.38-5.43q-.37-2.62-1-5.55a2.35,2.35,0,0,1,.3-1.18,4.89,4.89,0,0,1,.85-1.26,1.34,1.34,0,0,1,.9-.54c.48,0,1.05,0,1.73.07q.31,0,.75,0a22.64,22.64,0,0,0,3.21-.25l.61-.07c.21,0,.43,0,.65,0C357.07,686,357.4,686.51,357.4,687.52ZM351.16,668a39.93,39.93,0,0,0-1.89,5.82q-.94,3.61-1.62,7.65a26.67,26.67,0,0,0,4.43-6.82,17.17,17.17,0,0,0,1.58-6.65q0-2.19-.9-2.19C352.33,665.81,351.79,666.54,351.16,668Z"/><path class="cls-12" d="M371.46,688.49a2.23,2.23,0,0,1,.27,1.19,3.34,3.34,0,0,1-.68,2.23,13.31,13.31,0,0,1-3.76,3,10.47,10.47,0,0,1-5.21,1.36,8,8,0,0,1-5.86-2,7.48,7.48,0,0,1-2.09-5.61,10.51,10.51,0,0,1,1-4.63,8.53,8.53,0,0,1,2.9-3.4,7.28,7.28,0,0,1,4.19-1.26,4.31,4.31,0,0,1,4.61,4.61,5.81,5.81,0,0,1-1.78,4.26q-1.79,1.79-6,2.83a3.54,3.54,0,0,0,3.42,1.65,7.82,7.82,0,0,0,3.69-1.13,12.33,12.33,0,0,0,3.58-3,1.25,1.25,0,0,1,1-.5A.82.82,0,0,1,371.46,688.49Zm-12.06-4.11a7.26,7.26,0,0,0-.92,3.75v.07a8.21,8.21,0,0,0,3.35-1.51,3,3,0,0,0,1.23-2.34,1.58,1.58,0,0,0-.38-1.1,1.31,1.31,0,0,0-1-.41A2.63,2.63,0,0,0,359.4,684.38Z"/><path class="cls-12" d="M369.5,694.64a6.44,6.44,0,0,1-1.33-4.24,11.71,11.71,0,0,1,1.33-5.46,11.46,11.46,0,0,1,3.55-4.14,8,8,0,0,1,4.69-1.56,1.44,1.44,0,0,1,1.07.3,2.62,2.62,0,0,1,.45,1.1,8.08,8.08,0,0,1,1.58-.14c1.18,0,1.76.42,1.76,1.26a27.2,27.2,0,0,1-.54,3.6,34.88,34.88,0,0,0-.82,5.76,1.3,1.3,0,0,0,.27.86.85.85,0,0,0,.7.32,2.7,2.7,0,0,0,1.65-.88,30.11,30.11,0,0,0,2.63-2.86,1.25,1.25,0,0,1,1-.5.82.82,0,0,1,.74.43,2.23,2.23,0,0,1,.27,1.19,3.34,3.34,0,0,1-.68,2.23,18.59,18.59,0,0,1-3.13,3.09,5.37,5.37,0,0,1-3.21,1.26,3.37,3.37,0,0,1-2.18-.81,4.93,4.93,0,0,1-1.49-2.21c-1.25,2-2.82,3-4.72,3A4.38,4.38,0,0,1,369.5,694.64Zm6.37-2.95a6.09,6.09,0,0,0,1.05-2.48l1.33-6.63a4.4,4.4,0,0,0-2.79,1.14,7.73,7.73,0,0,0-2,2.9,9.81,9.81,0,0,0-.75,3.81,2.55,2.55,0,0,0,.45,1.66,1.52,1.52,0,0,0,1.24.54A2,2,0,0,0,375.87,691.69Z"/><path class="cls-12" d="M402.35,688.49a2.23,2.23,0,0,1,.27,1.19,3.34,3.34,0,0,1-.68,2.23,15.52,15.52,0,0,1-3.39,3.13,7.38,7.38,0,0,1-4.21,1.22q-7.35,0-7.34-10.33c0-1,0-2.12.1-3.2h-1.4a2,2,0,0,1-1.46-.4,1.77,1.77,0,0,1-.38-1.26q0-2,1.62-2h2.06a34.51,34.51,0,0,1,1.87-7.24,16.38,16.38,0,0,1,3-5.22,5.17,5.17,0,0,1,3.83-1.94,2.7,2.7,0,0,1,2.38,1.33,6,6,0,0,1,.86,3.35,12.61,12.61,0,0,1-4.68,9.72h4a1.1,1.1,0,0,1,.82.25,1.31,1.31,0,0,1,.26.93q0,2.49-4.07,2.49H391.5c-.05,1.2-.08,2.13-.08,2.81q0,3.74.89,5.25a3,3,0,0,0,2.79,1.51,4.3,4.3,0,0,0,2.73-.93,22.27,22.27,0,0,0,2.81-2.81,1.25,1.25,0,0,1,1-.5A.83.83,0,0,1,402.35,688.49Zm-8.24-19a18.42,18.42,0,0,0-1.26,3.75,47.7,47.7,0,0,0-1,5.31,12.41,12.41,0,0,0,3.18-4.13,9.94,9.94,0,0,0,1.06-4.15c0-1.42-.26-2.13-.79-2.13Q394.77,668.11,394.11,669.46Z"/><path class="cls-12" d="M400.73,694.77a6.48,6.48,0,0,1-1-3.73,28.77,28.77,0,0,1,1.55-9.72,3,3,0,0,1,1-1.54,3.56,3.56,0,0,1,2.05-.47,1.78,1.78,0,0,1,1.1.25.94.94,0,0,1,.31.76,16.11,16.11,0,0,1-.4,1.94c-.24.89-.43,1.69-.58,2.41a34.05,34.05,0,0,0-.72,5,2.21,2.21,0,0,0,.18,1.06.62.62,0,0,0,.58.31q.54,0,1.35-1.08a16.15,16.15,0,0,0,1.73-3.28,44.38,44.38,0,0,0,1.78-5.4,2.82,2.82,0,0,1,.88-1.54,2.86,2.86,0,0,1,1.78-.47,2.31,2.31,0,0,1,1.16.2.79.79,0,0,1,.32.73,35,35,0,0,1-.9,4.94,40.28,40.28,0,0,0-1,5.68,1.77,1.77,0,0,0,.29,1.07.9.9,0,0,0,.76.37,2.82,2.82,0,0,0,1.71-.88,29.93,29.93,0,0,0,2.64-2.86,1.25,1.25,0,0,1,1-.5.82.82,0,0,1,.74.43,2.23,2.23,0,0,1,.27,1.19,3.34,3.34,0,0,1-.68,2.23,16.23,16.23,0,0,1-3.33,3.13,7,7,0,0,1-4.05,1.22,2.75,2.75,0,0,1-2.54-1.33,7.21,7.21,0,0,1-.81-3.74A8.44,8.44,0,0,1,406,695a3.54,3.54,0,0,1-2.62,1.31A3.08,3.08,0,0,1,400.73,694.77Z"/><path class="cls-12" d="M417,694.82a13.53,13.53,0,0,1-.56-4.6,29.32,29.32,0,0,1,1.33-8.9,2.73,2.73,0,0,1,1.06-1.53,3.77,3.77,0,0,1,2.07-.48,2,2,0,0,1,1,.18.75.75,0,0,1,.29.68,13.56,13.56,0,0,1-.54,2.59c-.24,1-.43,1.8-.58,2.52s-.26,1.61-.36,2.67a20,20,0,0,1,2.67-5,10.25,10.25,0,0,1,2.89-2.77,5.21,5.21,0,0,1,2.61-.83,2.07,2.07,0,0,1,2.34,2.34,17.07,17.07,0,0,1-.32,2.27,13.77,13.77,0,0,0-.29,1.8q0,1.26.9,1.26a4.31,4.31,0,0,0,2.59-1.59,1.41,1.41,0,0,1,1-.47.83.83,0,0,1,.73.42,2,2,0,0,1,.27,1.1,2.89,2.89,0,0,1-.72,2.08,9.8,9.8,0,0,1-2.35,1.79,6,6,0,0,1-2.87.73,3.93,3.93,0,0,1-2.89-1,3.51,3.51,0,0,1-1-2.63,5.64,5.64,0,0,1,.1-1.08c.05-.48.07-.8.07-1q0-.57-.39-.57c-.36,0-.83.4-1.42,1.2a17.27,17.27,0,0,0-1.75,3.19,26.51,26.51,0,0,0-1.4,4.17,5.7,5.7,0,0,1-.92,2.29,2.07,2.07,0,0,1-1.64.59A2,2,0,0,1,417,694.82Z"/><path class="cls-12" d="M446.34,689.57a2.23,2.23,0,0,1,.27,1.19A4,4,0,0,1,446,693a7,7,0,0,1-2.65,2.41,8.19,8.19,0,0,1-3.9.86,7,7,0,0,1-5.37-2.07,7.93,7.93,0,0,1-1.9-5.59,10.37,10.37,0,0,1,1-4.63,8.46,8.46,0,0,1,2.9-3.4,7.26,7.26,0,0,1,4.19-1.26,4.31,4.31,0,0,1,4.61,4.61,5.81,5.81,0,0,1-1.78,4.26q-1.78,1.79-6.07,2.83a3,3,0,0,0,2.92,1.65,4.06,4.06,0,0,0,2.43-.68,12,12,0,0,0,2.21-2.3,1.24,1.24,0,0,1,1-.54A.83.83,0,0,1,446.34,689.57Zm-8.89-5.19a7.26,7.26,0,0,0-.92,3.75v.07a8.27,8.27,0,0,0,3.35-1.51,3,3,0,0,0,1.22-2.34,1.58,1.58,0,0,0-.37-1.1,1.33,1.33,0,0,0-1-.41A2.63,2.63,0,0,0,437.45,684.38Z"/><path class="cls-12" d="M460.88,696.19a2.51,2.51,0,0,1-1-1.94,2.18,2.18,0,0,1,.68-1.62,2.72,2.72,0,0,1,2-.69,7.82,7.82,0,0,1,1.09.09l1,.13a4.59,4.59,0,0,0-.42-1.76,8.83,8.83,0,0,0-1-1.61c-.38-.51-.75-1-1.08-1.35A23.69,23.69,0,0,1,460,691a27.55,27.55,0,0,1-2.4,2.67,1.92,1.92,0,0,1-1.37.64,1.16,1.16,0,0,1-.93-.41,1.52,1.52,0,0,1-.36-1,2.08,2.08,0,0,1,.5-1.33l.47-.57a49,49,0,0,0,3-4q.6-1,1.44-2.79c.55-1.16,1.09-2.37,1.62-3.61a2.76,2.76,0,0,1,2.84-1.59,3.84,3.84,0,0,1,1.41.18.6.6,0,0,1,.39.58,2.87,2.87,0,0,1-.14.68,5.41,5.41,0,0,1-.4.94,5.17,5.17,0,0,0-.65,2.19,2.42,2.42,0,0,0,.38,1.19,13.35,13.35,0,0,0,1.17,1.62,23.25,23.25,0,0,1,1.75,2.58,4.71,4.71,0,0,1,.59,2.32,9.27,9.27,0,0,1-.07,1,11.54,11.54,0,0,0,4.14-3.64,1.25,1.25,0,0,1,1-.5.83.83,0,0,1,.74.43,2.23,2.23,0,0,1,.27,1.19,3.53,3.53,0,0,1-.68,2.23,11.08,11.08,0,0,1-3.44,3,9.85,9.85,0,0,1-4.05.88,5.09,5.09,0,0,1-3.42,1.23A4.23,4.23,0,0,1,460.88,696.19Z"/><path class="cls-12" d="M491.5,685.5a2.47,2.47,0,0,1,.25,1.19c0,1.15-.34,1.83-1,2a16.43,16.43,0,0,1-4.75.86,9.08,9.08,0,0,1-2.7,4.85,6.66,6.66,0,0,1-4.57,1.81,6.36,6.36,0,0,1-3.69-1,6.7,6.7,0,0,1-2.33-2.77,9,9,0,0,1-.79-3.75,10.89,10.89,0,0,1,1.05-4.87,8.08,8.08,0,0,1,2.88-3.35,7.19,7.19,0,0,1,4.06-1.21,5.59,5.59,0,0,1,4.41,1.89,8.15,8.15,0,0,1,2,4.66,21.58,21.58,0,0,0,4-.72,2.59,2.59,0,0,1,.5-.07A.79.79,0,0,1,491.5,685.5Zm-10.53,6a5.19,5.19,0,0,0,1.14-2.7,4.83,4.83,0,0,1-1.71-2,5.79,5.79,0,0,1-.6-2.59,6.4,6.4,0,0,1,.11-1.15h-.18a2.82,2.82,0,0,0-2.39,1.38,6.83,6.83,0,0,0-1,3.91,5,5,0,0,0,.78,3,2.22,2.22,0,0,0,1.81,1.05A2.59,2.59,0,0,0,481,691.51Z"/><path class="cls-12" d="M507.74,685.5a2.47,2.47,0,0,1,.25,1.19c0,1.15-.35,1.83-1,2a16.5,16.5,0,0,1-4.76.86,9,9,0,0,1-2.7,4.85,6.62,6.62,0,0,1-4.57,1.81,6.36,6.36,0,0,1-3.69-1,6.67,6.67,0,0,1-2.32-2.77,8.85,8.85,0,0,1-.79-3.75,10.89,10.89,0,0,1,1-4.87,8.23,8.23,0,0,1,2.88-3.35,7.23,7.23,0,0,1,4.07-1.21,5.62,5.62,0,0,1,4.41,1.89,8.07,8.07,0,0,1,2,4.66,21.44,21.44,0,0,0,4-.72A2.58,2.58,0,0,1,507,685,.79.79,0,0,1,507.74,685.5Zm-10.53,6a5.18,5.18,0,0,0,1.13-2.7,5,5,0,0,1-1.71-2,5.92,5.92,0,0,1-.59-2.59,5.6,5.6,0,0,1,.11-1.15H496a2.84,2.84,0,0,0-2.4,1.38,6.91,6.91,0,0,0-.95,3.91,5,5,0,0,0,.77,3,2.24,2.24,0,0,0,1.82,1.05A2.61,2.61,0,0,0,497.21,691.51Z"/><path class="cls-12" d="M505.52,694.82a13.79,13.79,0,0,1-.56-4.6,29.32,29.32,0,0,1,1.34-8.9,2.73,2.73,0,0,1,1.06-1.53,3.77,3.77,0,0,1,2.07-.48,2.06,2.06,0,0,1,1,.18.74.74,0,0,1,.28.68,13.56,13.56,0,0,1-.54,2.59c-.23,1-.43,1.8-.57,2.52a22.89,22.89,0,0,0-.36,2.67,20.32,20.32,0,0,1,2.66-5,10.4,10.4,0,0,1,2.9-2.77,5.21,5.21,0,0,1,2.61-.83,2.08,2.08,0,0,1,2.34,2.34,29.06,29.06,0,0,1-.39,3.53c-.25,1.46-.44,2.85-.58,4.15a41.32,41.32,0,0,0-.22,4.38,2.78,2.78,0,0,1-.56,2,2.36,2.36,0,0,1-1.81.59,2.19,2.19,0,0,1-1.73-.61,2.7,2.7,0,0,1-.54-1.83,37.13,37.13,0,0,1,.5-4.76,34.15,34.15,0,0,0,.44-3.67c0-.38-.14-.57-.4-.57s-.75.4-1.31,1.2a18.61,18.61,0,0,0-1.73,3.19,25.6,25.6,0,0,0-1.43,4.17,5.73,5.73,0,0,1-.91,2.29,2.07,2.07,0,0,1-1.64.59A2,2,0,0,1,505.52,694.82Z"/><path class="cls-2" d="M384.65,494A244.48,244.48,0,0,1,211.77,76.61,244.48,244.48,0,1,1,557.52,422.35,242.87,242.87,0,0,1,384.65,494Zm0-339.65a95.18,95.18,0,1,0,95.17,95.17A95.28,95.28,0,0,0,384.65,154.31Z"/><path class="cls-3" d="M384.65,10c132.26,0,239.48,107.22,239.48,239.48S516.91,489,384.65,489,145.17,381.74,145.17,249.48,252.39,10,384.65,10m0,339.66A100.18,100.18,0,1,0,284.47,249.48,100.18,100.18,0,0,0,384.65,349.66M384.65,0a249.54,249.54,0,0,0-97.11,479.35A249.54,249.54,0,0,0,481.76,19.61,248,248,0,0,0,384.65,0Zm0,339.66a90.18,90.18,0,1,1,90.17-90.18,90.28,90.28,0,0,1-90.17,90.18Z"/><path class="cls-13" d="M603,184.56a118.09,118.09,0,0,0-19.12-40.75L546.47,92.64a113.7,113.7,0,0,0-47.8-37.84L437.24,29.12a110.08,110.08,0,0,0-63.87-6.47L318,33.6a111.85,111.85,0,0,0-54.13,27.61l-54.74,50.47a117.13,117.13,0,0,0-33.94,57.13l-17.88,70a58,58,0,0,0-1.8,13.26,211.19,211.19,0,0,0,25.71,106.18c28.72,52.24,71.46,76.3,87.26,84.92,5.17,2.82,115.2,60.48,221.48,3.52,0,0,65.81-35.28,107.21-122.48,10.14-21.35,15.58-46.32,16.05-48.52,4.37-20.53,4.62-40.48.79-47.65ZM470.78,314.82c-25.31,32.61-75.65,48.56-118.95,36.78-8.69-2.36-41.78-11.36-61.44-44.22-15.72-26.26-13.76-52.58-12.66-61.72q3.45-18.12,6.91-36.23a64.13,64.13,0,0,1,26.52-40.93l12.16-8.35a85.89,85.89,0,0,1,42.21-14.91l24.65-1.85a88.28,88.28,0,0,1,54.21,13.75l10.11,6.47a93,93,0,0,1,40.66,59.67q1.13,5.43,2.24,10.87C498.78,243.21,493.69,285.31,470.78,314.82Z"/><rect class="cls-5" x="186.91" y="207.48" width="3.91" height="33.65" transform="translate(-102.7 193.06) rotate(-43.79)"/><rect class="cls-6" x="226.3" y="149.57" width="3.91" height="18.52" transform="translate(-49.75 152.37) rotate(-33.5)"/><rect class="cls-7" x="239.34" y="205.01" width="18.52" height="3.91" transform="translate(-47.62 336.91) rotate(-63.46)"/><rect class="cls-5" x="246.34" y="160.72" width="18.52" height="3.91" transform="translate(-29.31 265.75) rotate(-52.36)"/><rect class="cls-8" x="214.67" y="188.23" width="3.91" height="18.52" transform="translate(-8.02 385.82) rotate(-82.33)"/><rect class="cls-7" x="333.21" y="55.8" width="18.52" height="3.91" transform="translate(87.61 293.69) rotate(-52.36)"/><rect class="cls-5" x="301.54" y="83.31" width="3.91" height="18.52" transform="translate(171.24 380.99) rotate(-82.33)"/><rect class="cls-7" x="242.89" y="100.51" width="18.52" height="3.91" transform="translate(-19.2 123.64) rotate(-26.58)"/><rect class="cls-8" x="399.02" y="74.94" width="18.52" height="3.91" transform="translate(312.5 481.16) rotate(-87.34)"/><rect class="cls-7" x="387.04" y="125.81" width="18.52" height="3.91" transform="translate(-14.46 196) rotate(-27.3)"/><rect class="cls-5" x="513.5" y="104.3" width="18.52" height="3.91" transform="translate(35.26 322.84) rotate(-35.44)"/><rect class="cls-5" x="473.39" y="118.96" width="3.91" height="18.52" transform="translate(160.93 507.08) rotate(-65.41)"/><rect class="cls-8" x="545.37" y="181.31" width="18.52" height="3.91" transform="translate(-26.45 123.67) rotate(-12.43)"/><rect class="cls-6" x="500.44" y="175.69" width="3.91" height="18.52" transform="translate(6.66 387.07) rotate(-42.39)"/><rect class="cls-6" x="309.65" y="123.88" width="18.52" height="3.91" transform="translate(-14.68 204.92) rotate(-34.87)"/><rect class="cls-6" x="419.08" y="96.88" width="3.91" height="18.52" transform="translate(21.65 276.52) rotate(-37.25)"/><rect class="cls-7" x="444.86" y="70.53" width="18.52" height="3.91" transform="translate(47.16 286.64) rotate(-36.82)"/><rect class="cls-7" x="501.78" y="148.79" width="18.52" height="3.91" transform="matrix(0.52, -0.85, 0.85, 0.52, 114.45, 506.55)"/><rect class="cls-7" x="567.91" y="220.01" width="18.52" height="3.91" transform="translate(13.8 476.92) rotate(-45.38)"/><rect class="cls-8" x="251.99" y="123.88" width="33.65" height="3.91" transform="translate(16.9 282.79) rotate(-57.01)"/><rect class="cls-8" x="314.99" y="50.18" width="3.91" height="33.65" transform="matrix(0.84, -0.55, 0.55, 0.84, 15.2, 184.88)"/><rect class="cls-5" x="351.52" y="114.61" width="33.65" height="3.91" transform="translate(99.14 393.69) rotate(-63.39)"/><rect class="cls-5" x="405.78" y="34.27" width="3.91" height="33.65" transform="translate(277.21 440.74) rotate(-78.62)"/><rect class="cls-8" x="457.43" y="128.7" width="3.91" height="33.65" transform="translate(34.86 373.54) rotate(-45.82)"/><rect class="cls-6" x="481.95" y="78.09" width="33.65" height="3.91" transform="translate(90.72 377.83) rotate(-45.24)"/><rect class="cls-5" x="510.12" y="221.83" width="33.65" height="3.91" transform="translate(38.23 521.97) rotate(-54.4)"/><rect class="cls-6" x="564.39" y="141.48" width="3.91" height="33.65" transform="matrix(0.85, -0.53, 0.53, 0.85, 1.69, 322.53)"/><rect class="cls-5" x="575.69" y="253.4" width="3.91" height="33.65" transform="translate(-26.36 474.86) rotate(-43.79)"/><rect class="cls-6" x="536.3" y="326.44" width="3.91" height="18.52" transform="translate(-95.88 352.86) rotate(-33.5)"/><rect class="cls-7" x="508.65" y="285.61" width="18.52" height="3.91" transform="translate(29.25 622.44) rotate(-63.46)"/><rect class="cls-5" x="501.65" y="329.9" width="18.52" height="3.91" transform="translate(-63.87 533.81) rotate(-52.36)"/><rect class="cls-8" x="547.92" y="287.78" width="3.91" height="18.52" transform="translate(182.08 802.33) rotate(-82.33)"/><rect class="cls-7" x="414.78" y="434.82" width="18.52" height="3.91" transform="translate(-180.79 505.87) rotate(-52.36)"/><rect class="cls-5" x="461.05" y="392.7" width="3.91" height="18.52" transform="matrix(0.13, -0.99, 0.99, 0.13, 2.82, 807.16)"/><rect class="cls-7" x="505.1" y="390.11" width="18.52" height="3.91" transform="translate(-121.06 271.54) rotate(-26.58)"/><rect class="cls-8" x="348.97" y="415.68" width="18.52" height="3.91" transform="translate(-75.59 756.09) rotate(-87.34)"/><rect class="cls-7" x="360.95" y="364.81" width="18.52" height="3.91" transform="translate(-126.99 210.65) rotate(-27.3)"/><rect class="cls-5" x="234.49" y="386.32" width="18.52" height="3.91" transform="translate(-179.99 213.3) rotate(-35.44)"/><rect class="cls-5" x="289.21" y="357.05" width="3.91" height="18.52" transform="translate(-163.1 478.61) rotate(-65.41)"/><rect class="cls-8" x="202.62" y="309.31" width="18.52" height="3.91" transform="translate(-62.03 52.9) rotate(-12.43)"/><rect class="cls-6" x="262.16" y="300.32" width="3.91" height="18.52" transform="translate(-139.67 259) rotate(-42.39)"/><rect class="cls-6" x="438.34" y="366.74" width="18.52" height="3.91" transform="translate(-130.43 322.11) rotate(-34.87)"/><rect class="cls-6" x="343.52" y="379.14" width="3.91" height="18.52" transform="translate(-164.62 288.36) rotate(-37.25)"/><rect class="cls-7" x="303.13" y="420.09" width="18.52" height="3.91" transform="translate(-190.63 271.43) rotate(-36.82)"/><rect class="cls-7" x="246.21" y="341.83" width="18.52" height="3.91" transform="translate(-171.25 380.74) rotate(-58.33)"/><rect class="cls-7" x="180.08" y="270.61" width="18.52" height="3.91" transform="translate(-137.67 215.91) rotate(-45.38)"/><rect class="cls-8" x="480.86" y="366.74" width="33.65" height="3.91" transform="translate(-82.56 585.37) rotate(-57.01)"/><rect class="cls-8" x="447.6" y="410.7" width="3.91" height="33.65" transform="translate(-160.86 316.74) rotate(-33.27)"/><rect class="cls-5" x="381.34" y="376.01" width="33.65" height="3.91" transform="translate(-118.1 564.67) rotate(-63.39)"/><rect class="cls-5" x="356.82" y="426.61" width="3.91" height="33.65" transform="translate(-146.72 707.69) rotate(-78.62)"/><rect class="cls-8" x="305.17" y="332.18" width="3.91" height="33.65" transform="translate(-157.2 326.01) rotate(-45.82)"/><rect class="cls-6" x="250.91" y="412.53" width="33.65" height="3.91" transform="translate(-215.09 312.72) rotate(-45.24)"/><rect class="cls-5" x="222.73" y="268.79" width="33.65" height="3.91" transform="translate(-120.04 307.92) rotate(-54.4)"/><rect class="cls-6" x="198.21" y="319.4" width="3.91" height="33.65" transform="translate(-147.23 156.15) rotate(-31.83)"/></g></g></g></svg>